<svg xmlns="http://www.w3.org/2000/svg" width="229.291" height="233.724" viewBox="0 0 60.666691 61.839501"><path d="M28.42 61.707h-.41l.136-.463.136-.463.176-.992.176-.992h.735v1.176l.412-.588.412-.588h1.249l.419.16.418.161V60.649l-.529.53-.53.528H29.678l-.241-.725-.242-.726-.182.726-.183.725zm2.086-.529h.344l.318-.317.317-.318v-.921l-.276-.17-.276-.172-.385.32-.386.32v1.259zm-.344-2.92h-.132l-.872-1.492-.871-1.49.24-.24.24-.24.56.875.562.877.004-7.331.004-7.331-1.918-.56-1.918-.56-1.749-.51-1.748-.51h-.742l-4.76 4.773-4.76 4.773 1.125-.176 1.124-.176v.565l-.207.128-.208.129-1.609.182-1.608.182.421-1.618.422-1.617h.715l-.177.86-.177.86 4.708-4.686 4.709-4.686-.121-.098-.121-.097-4.943-3.75-4.943-3.75-3.26.005-3.258.004.876.56.877.562-.24.24-.24.24-1.491-.872-1.491-.871v-.265l1.481-.866 1.482-.866.334.277.334.278.179-.465.178-.465-.281-.093-.282-.094.15-.242.15-.242h.99l-.228.794-.228.793h.506l.159-.793.158-.794h1.251l-.07.86-.068.86-1.689.08-1.688.08-.548.382-.547.384h6.466l3.024-6.044 3.024-6.044-2.655-2.621-2.656-2.622.174.993.173.992h-.716l-.41-1.714-.41-1.713.101-.101.101-.101 1.714.41 1.713.41v.716l-.992-.174-.992-.175 1.823 1.86 1.822 1.86.375-.144.374-.144-.08-.688-.08-.69.416-.08.418-.082-.02.935-.021.936-.656.001h-.657l.789.781.789.78 6.019-1.503 6.02-1.503-.005-4.767-.004-4.767-.561.876-.561.876-.24-.24-.24-.24.872-1.49.871-1.492h.265l.872 1.491.871 1.491-.24.24-.24.24-.56-.876-.562-.876-.004 4.796-.004 4.797 3.903 2.987 3.902 2.986.279.21.278.209 4.352-4.38 4.352-4.378-.86.178-.86.177v-.715l1.618-.421 1.617-.422-.182 1.609-.182 1.609-.128.207-.129.208h-.565l.176-1.125.176-1.124-4.442 4.433-4.441 4.432-1.149 4.009-1.148 4.008-.137.356-.137.357 9.355-.004 9.355-.004-.876-.561-.877-.562.24-.24.24-.24 1.491.872 1.492.872v.264l-1.492.872-1.49.872-.24-.24-.24-.24.876-.561.876-.561-9.326-.004-9.327-.004.01.198.008.199.887 3.672.886 3.673 4.81 4.794 4.81 4.794-.185-1.026-.185-1.026.36.12.359.119.37 1.514.369 1.515-.151.15-.152.152-1.514-.37-1.514-.369-.12-.36-.12-.358 1.026.184 1.026.185-4.81-4.826-4.809-4.825-2.07.593L34 40.84l-1.786.524-1.786.523.004 7.33.004 7.332.561-.877.562-.876.24.24.24.24-.872 1.491-.872 1.491h-.132zm-.595-17.217l.33.029v-9.386l-3.571 3.565-3.572 3.564v.309l3.241.945 3.241.944zm1.004.029h.145l3.361-.959 3.362-.958.057-.047.057-.046-3.563-3.556-3.563-3.555v9.12zm-8.607-2.399l.136.018 3.565-3.572 3.564-3.572-8.33.008-8.331.008.77.573.77.574 3.86 2.972 3.86 2.973.136.017zm15.506-.587l.058-.058-.729-3.174-.728-3.175-2.623-.074-2.624-.075 3.294 3.307 3.295 3.306zm-16.636-7.068h8.662l-5.684-5.689-5.683-5.688h-.275l-2.841 5.688-2.84 5.689zm12.486-.059l2.761-.074 1.11-3.77 1.11-3.77h-.076l-3.833 3.844-3.833 3.844zm-3.49-.47h.068V16.258l-4.696 1.174-4.697 1.174-1.034.273-1.035.272L24.1 24.82l5.662 5.667zm4.434-3.97l3.836-3.829v-.314l-3.836-2.946-3.837-2.946v13.865zm-25.665 3.44h.132v-.264h-.264v.264zm.265-1.058h.132v-.265H8.73v.265zm-2.67 25.664h-.409l.136-.463.136-.463.176-.992.176-.992h.735v1.176l.412-.588.412-.588h1.249l.419.16.418.161v1.267h1.323v.564l-.728-.084-.727-.084-.463.463-.463.464H7.452l-.241-.726-.242-.726-.182.726-.183.726zm2.087-.529h.344l.318-.317.317-.318v-.921l-.276-.17-.276-.171-.385.32-.386.32v1.258zm4.122.53h-.761v-.83l.529.168.529.168v-.829h-.794v-.53H12.965v-.564l-.53.168-.529.167v-.508l.419-.16.418-.16h.987l-.031 1.124-.031 1.124-.252.33-.252.331zm34.538 0h-.41l.136-.464.136-.463.176-.992.176-.992h.735v1.176l.411-.588.412-.588h1.25l.418.16.419.161v1.267h1.323v.564l-.728-.084-.727-.084-.463.463-.463.464h-1.544l-.242-.726-.241-.726-.183.726-.182.726zm2.086-.53h.344l.318-.317.317-.318v-.921l-.276-.17-.276-.171-.385.32-.386.32v1.258zm4.003.53h-.907v-.24l.286-1.335.287-1.336H54.52l.162.424.163.423-.332.205-.33.205.292.18.293.182v.46l-.416.416-.416.415zm.298-.577l.41-.085.053-.243.052-.242-.298-.1-.298-.099-.164.427-.164.428zm.235-1.276h.412v-.529h-.498l-.163.265-.164.264zm-26.647-6.614h-1.29l.417-.416.415-.416v-.491h-.56l.163-.265.164-.264h.99l-.228.793-.227.794h.426l.159-.794.158-.793H28.84v1.217l-.318.317-.317.318zm1.13-.53l.256-.396v-.794l-.256.397-.257.397v.794zm9.934-2.385l-1.335-.004.353-.224.354-.224-.089-.625-.089-.625.46-.092.46-.091-.162.812-.163.813h.798l.139-.53.138-.528h-.511l.164-.265.163-.265h.78l-.063.926-.062.926-1.335-.004zm-21.3-1.587l-.673-.004.284-.195.284-.194.17-.463.172-.463h-.544l.163-.265.164-.264h.78l-.063.926-.063.926-.673-.004zm1.576 0l-.661-.004.353-.224.354-.224-.09-.625-.088-.626.417-.083.417-.083-.02.936-.02.936-.662-.003zM.761 32.602H0v-.829l.53.168.528.168v-.83H.265v-.529h1.058v-.565l-.53.168-.528.168v-.508l.418-.16.419-.161h.987l-.032 1.124-.031 1.125-.252.33-.251.331zm58.09 0h-.907v-.238l.286-1.336.287-1.336H60.342l.162.423.163.424-.332.205-.331.204.293.181.293.181v.46l-.416.416-.416.416zm.298-.576l.41-.085.052-.243.053-.243-.299-.099-.298-.1-.164.428-.164.427zm.234-1.276h.413v-.529h-.498l-.164.264-.163.265zm-17.135-7.958l-1.54.02.416-.415.416-.416v-.491h-.56l.163-.265.163-.265h.99l-.227.794-.228.794h.41l.438-.484.438-.484v-.386l-.265.163-.264.164v-.56H43.625l.174.28.174.282-.44.485-.438.485.347.139.347.139-1.54.02zM18.27 16.944l-.278.093.008-.22.008-.221.395-.523.396-.524-.47-.185-.47-.186.885-.019.886-.018-.541.855-.542.855zm13.999-3.39h-1.35l.415-.417.416-.415v-.492h-.56l.163-.264.164-.265h.99l-.228.794-.227.793H33.337v-.529h-.529v-1.058l.728.03.728.031-.463.121-.464.121v.447l.313.104.312.104-.172.447-.171.447zM8.047 10.642h-.62l-.274-.512-.274-.512.237-.624.237-.623.41-.34.41-.34.59.086.588.086.123.373.123.373-.466-.179-.467-.179-.363.302-.364.301v1.258h.756l.397-.396.397-.397h.87l.396.397.397.396h.492V9.32h-.794V8.79h1.058v-.565l-.529.168-.53.168v-.509l.42-.16.418-.16h.987l-.031 1.124-.032 1.124-.251.33-.252.332H10.583v-.794H9.325l-.33.397-.329.397zm40.216 0h-.62l-.273-.512-.274-.512.237-.624.237-.623.41-.34.41-.34.589.086.589.086.123.373.123.373-.467-.179-.466-.179-.363.302-.364.301v1.258h.756l.397-.396.397-.397H50.8v.529h-1.258l-.33.397-.329.397zm3.444 0H50.8v-.239l.287-1.336.286-1.336H53.198l.162.424.163.423-.331.205-.332.205.293.181.293.18v.461l-.416.416-.416.416zm.299-.576l.41-.086.052-.242.052-.243-.298-.1-.298-.099-.164.428-.164.427zm.234-1.276h.412v-.53h-.498l-.163.265-.164.265zM30.272 2.97h-.62l-.274-.512-.274-.512.237-.623.237-.624.41-.34.41-.34.59.086.588.087.123.373.123.372-.466-.179-.467-.179-.363.302-.364.302v1.315l.708-.178.708-.177-.343.413-.344.414z" fill="#cfcfcf"/><path d="M28.488 61.707h-.352l.264-1.455.263-1.455h.741l-.168.529-.167.53h.3l.529-.53.53-.53h1.258l.326.394.326.394-.162.646-.162.646-.43.43-.43.43-.688-.08-.688-.081-.294-.594-.295-.594-.175.175-.174.175v.97zm2.018-.529h.344l.318-.317.317-.318v-1.217h-1.001l-.16.418-.162.419V61.178zm-.344-3.175h-.137l-.277-.463-.278-.463-.601-.992-.602-.992h.58l.527.86.527.86-.068-7.513-.067-7.512-3.88-1.112-3.88-1.111-4.852 4.883-4.85 4.884 1.124-.165L14.552 49v.493l-.728.145-.727.144-.992.17-.992.171v-.492l.407-1.37.407-1.371h.508v.135l-.263.92-.264.92 3.577-3.567 3.578-3.568-.734-.167-.734-.167.35-.031.35-.032-.086-.704-.085-.705.366-.123.365-.123-.12.818-.12.817.316.121.315.121 1.15-1.17 1.148-1.171-.52-.376-.519-.375-4.498-3.454-4.498-3.453-3.44-.005-3.439-.005.86.524.86.524v.567l-1.125-.685-1.124-.686-.397-.256-.397-.255.397-.255.397-.256 1.124-.685 1.125-.686v.567l-.86.524-.86.525h3.373l3.372.001 3.024-6.043 3.024-6.044-2.785-2.754-2.785-2.753.138.529.138.529.17.595.172.596h-.544l-.26-.993-.26-.992-.186-.766-.185-.766.766.186.766.185.992.26.992.26v.545l-.53-.15-.528-.15-.596-.16-.595-.16 1.955 1.99 1.956 1.988.374-.143.374-.144-.08-.67-.08-.671.365-.123.366-.123-.121.821-.12.821.283.118.284.118-.788.02-.789.022.789.78.788.78 6.02-1.503 6.019-1.503-.001-4.9-.001-4.9-.524.86-.525.86h-.567l.686-1.124.686-1.124.255-.397.256-.397.255.397.255.397.686 1.124.686 1.125h-.567l-.525-.86-.524-.86v4.941l-.002 4.942 3.91 3.01 3.91 3.01.275.17.274.17 4.477-4.483 4.478-4.483-.921.264-.921.264h-.136v-.509l1.371-.407 1.37-.407h.493l-.17.992-.172.992-.144.728-.144.728h-.494l.166-1.125.166-1.124-4.462 4.431-4.462 4.432-1.16 4.035-1.16 4.035-.126.33-.124.331h9.487l9.487-.002-.86-.524-.86-.524v-.567l1.125.686 1.124.685.397.256.397.255-.397.255-.397.256-1.124.685-1.125.686v-.567l.86-.524.86-.524-9.49-.001-9.49-.001.16.595.16.595.711 3.224.71 3.223 5.008 4.979 5.007 4.978-.137-.529-.138-.529-.17-.595-.172-.596h.544l.26.993.26.992.186.766.185.766-.766-.186-.766-.185-.992-.26-.992-.26v-.545l.463.13.463.129.662.178.661.179-4.947-4.972-4.948-4.972-3.784 1.067-3.783 1.066-.068 7.518-.068 7.519.527-.86.527-.86h.58l-.602.992-.601.992-.278.463-.277.463zm-.595-16.962l.33.029v-9.386l-3.571 3.565-3.572 3.564v.309l3.241.945 3.241.944zm1.004.029h.145l3.361-.959 3.362-.958.057-.047.057-.046-3.563-3.556-3.563-3.555v9.12zm-8.607-2.395l.136.014 3.565-3.572 3.564-3.572H12.612l.12.12.121.121 4.488 3.438 4.487 3.438.136.013zm15.504-.59l.055-.058-.712-3.175-.711-3.175-2.638-.074-2.638-.075 3.294 3.307 3.295 3.306zm-16.634-7.07h8.662l-5.684-5.688-5.683-5.688h-.275l-2.841 5.688-2.84 5.689zm12.502-.058l2.777-.074 1.096-3.77 1.096-3.77h-.08l-3.833 3.844-3.833 3.844zm-3.507-.47h.069V16.258l-4.696 1.174-4.697 1.174-1.034.273-1.035.272L24.1 24.82l5.662 5.667zm4.5-4.05l3.903-3.917-.793-.65-.794-.65-3.11-2.388-3.108-2.388v13.908zM6.264 54.562H5.91l.264-1.455.263-1.455h.741l-.168.53-.167.528h.3l.529-.529.53-.529H9.46l.326.393.326.394-.162.646-.162.647-.43.43-.43.43-.688-.081-.688-.08-.294-.595-.295-.593-.175.175-.174.174v.97zm2.018-.529h.344l.318-.317.317-.318v-1.217H8.26l-.16.419-.162.418V54.034zm4.132.525l-.419.004-.176-.176-.176-.176v-.351l.568.02.569.022.115-.33.115-.332h-.838v-.529h.794v-.585l-.42.16-.418.161.11-.33.11-.332h1.279l-.091 1.19-.092 1.192-.305.194-.306.194-.419.004zm34.596.004h-.352l.264-1.455.263-1.455h.741l-.168.53-.168.528h.3l.53-.529.529-.529h1.258l.327.393.326.394-.162.646-.162.647-.43.43-.43.43-.688-.081-.688-.08-.295-.595-.294-.593-.175.174-.175.175v.97zm2.018-.529h.344l.318-.317.317-.318v-1.217h-1.001l-.161.419-.16.418V54.034zm4.035.53h-.849l.264-1.456.264-1.455h1.732l.163.265.164.264-.207.33-.208.332.079.478.079.48-.317.38-.316.381zm.265-.57l.472-.092.118-.356.119-.356-.472.091-.471.092-.119.356-.118.356zm.251-1.283h.397v-.529h-.794v.529zM10.7 53.77h-.677l.163-.265.164-.264H11.377v.529zm40.746 0h-.677l.163-.265.164-.264H52.123v.529zm-25.12-7.678l-.53-.003.354-.225.354-.224-.09-.607-.088-.607.313-.107.313-.107-.048.941-.049.941-.529-.003zm1.586.005H27.5l-.144-.377-.145-.376.295-.55.294-.55h.744l.15.243.15.242-.26.684-.26.684zm.134-.397l.264-.164v-1.058l-.264.163-.265.164V45.864zm9.393-2.539l-.794.017.353-.224.354-.224-.089-.607-.089-.608.366-.124.365-.124-.12.82-.12.822.283.117.284.118-.793.017zm1.356.024l-.495.001.313-.377.313-.378-.082-.455-.083-.455.314-.11.313-.11-.049.942-.048.94-.496.002zm-21.96-1.588l-.496.001.313-.377.314-.377-.083-.455-.082-.455.313-.11.313-.11-.048.941-.049.941-.495.001zM.772 32.6l-.42.004-.176-.177L0 32.25v-.351l.569.021.568.021.115-.33.115-.331H.529v-.529h.794v-.586l-.42.16-.418.161.11-.33.11-.331h1.28l-.092 1.19-.091 1.19-.306.195-.305.195-.42.004zm58.11.004h-.848l.264-1.455.263-1.456h1.733l.163.265.164.265-.208.33-.207.331.079.479.079.479-.317.38-.316.382zm.266-.57l.472-.092.118-.356.119-.356-.472.092-.471.091-.119.356-.118.356zm.251-1.282h.397v-.529h-.794v.529zm-52.388-.535l-.529-.003.354-.224.353-.224-.089-.607-.089-.607.313-.107.314-.107-.049.941-.048.941-.53-.003zm1.588.005h-.366l-.174-.282-.174-.282.195-.18.195-.182.118.33.118.332h.567l-.485-.536-.484-.535.293-.294.294-.293.431.165.432.166-.183.295-.182.294-.227-.359-.228-.359-.004.278-.004.278.295.295.294.294-.178.288-.177.287zm32.808-7.413l-.529-.003.354-.224.353-.224-.089-.608-.089-.607.313-.107.313-.107-.048.941-.049.941-.529-.003zm1.613-.016l-.769.02.398-.462.398-.463.216-.376.215-.376-.506.193-.506.193.313-.315.313-.315.443.17.443.17-.419.639-.418.639.324.131.324.131-.77.021zm-24.851-5.8h-.238l.455-.695.455-.694-.358-.228-.359-.227.595-.004.596-.004v.315l-.454.769-.454.768zm13.449-3.445l-.53-.003.354-.224.354-.224-.09-.607-.088-.607.313-.107.313-.107-.049.94-.048.942-.53-.003zm1.452-.078l-.659.049.463-.134.463-.135v-.446l-.312-.104-.312-.104.172-.447.171-.448h.912l-.514.389-.513.388.482.008.482.008-.088.463-.088.463-.659.05zM8.172 10.588l-.651.078-.189-.188-.188-.189V8.908l.422-.603.423-.604.702.082.702.08-.133.261-.132.26-.446-.075-.447-.076-.301.564-.302.564.156.406.156.406.541-.142.541-.141-.102.31-.101.31zm3.13.05l-.47.004-.153-.397-.152-.397H9.229l.164-.264.163-.265h.837l.321.44.322.44.435-.167.435-.167v-.546h-.794V8.79h.794v-.586l-.419.16-.419.162.11-.331.11-.331h1.28l-.092 1.19-.091 1.191-.306.194-.305.195zm37.086-.05l-.65.078-.19-.188-.188-.189V8.908l.423-.603.422-.604.702.082.702.08-.132.261-.132.26-.447-.075-.446-.076-.302.564-.301.564.156.406.156.406.54-.142.542-.141-.102.31-.102.31zm3.35.054h-.848l.264-1.455.264-1.455h1.732l.164.264.163.265-.207.33-.208.331.079.48.079.478-.317.38-.316.382zm.266-.57l.472-.091.118-.356.119-.356-.472.091-.471.091-.119.356-.118.356zm.251-1.282h.397v-.529h-.794v.529zm-2.132 1.058h-.677l.163-.264.164-.265H50.8v.529zM30.397 2.915l-.651.078-.189-.188-.188-.189V1.235l.422-.603.423-.603.702.08.702.082-.133.26-.132.26-.446-.075L30.46.56l-.301.564-.302.564.156.406.156.406.541-.141.541-.142-.102.31-.101.31z" fill="#fda5a5"/><path d="M28.488 61.707h-.352l.264-1.455.263-1.455h.741l-.168.529-.167.53h.3l.529-.53.53-.53h1.258l.326.394.326.394-.162.646-.162.646-.43.43-.43.43-.688-.08-.688-.081-.294-.594-.295-.594-.175.175-.174.175v.97zm2.018-.529h.344l.318-.317.317-.318v-1.217h-1.001l-.16.418-.162.419V61.178zm-.344-3.175h-.137l-.277-.463-.278-.463-.601-.992-.602-.992h.58l.527.86.527.86-.068-7.531-.067-7.53-2.117-.608-2.117-.608-1.752-.497-1.752-.497-4.863 4.895-4.862 4.895 1.125-.165L14.552 49v.493l-.728.145-.727.144-.992.17-.992.171v-.492l.407-1.37.407-1.371h.508v.135l-.263.92-.264.92 3.577-3.567 3.578-3.568-.734-.167-.734-.167.35-.031.35-.032-.086-.704-.085-.705.366-.123.365-.123-.12.818-.12.817.316.121.315.121 1.147-1.168 1.146-1.168-.252-.237-.253-.238-4.743-3.6-4.744-3.6H8.09l-3.459.002.86.524.86.524v.567l-1.125-.685-1.124-.686-.397-.256-.397-.255.397-.255.397-.256 1.124-.685 1.125-.686v.567l-.86.524-.86.524 3.478.001 3.477.001.135-.33.136-.331 2.774-5.722 2.775-5.722-2.776-2.745-2.776-2.744.138.529.138.529.17.595.172.596h-.544l-.26-.993-.26-.992-.186-.766-.185-.766.766.186.766.185.992.26.992.26v.545l-.53-.15-.528-.15-.596-.16-.595-.16 1.955 1.99 1.956 1.988.374-.143.374-.144-.08-.67-.08-.671.365-.123.366-.123-.121.82-.12.822.283.118.284.118-.788.02-.789.021.807.807.807.807 6-1.501 6.002-1.501-.001-4.928-.001-4.928-.524.86-.525.86h-.567l.686-1.125.686-1.125.255-.396.256-.397.255.397.255.396.686 1.125.686 1.124h-.567l-.525-.86-.524-.86.013 5.028.013 5.027 4.129 3.132 4.129 3.133 4.521-4.522 4.522-4.522-.924.265-.923.265h-.136v-.509l1.37-.407 1.372-.407h.492l-.171.992-.17.992-.145.728-.144.728h-.494l.166-1.125.166-1.124-4.494 4.46-4.493 4.46-1.132 3.874-1.132 3.874-.124.463-.125.463h9.49l9.49-.002-.86-.524-.86-.524v-.567l1.124.686 1.125.685.397.256.397.255-.397.255-.397.256-1.125.685-1.124.686v-.567l.86-.524.86-.525h-9.46l-9.458-.001v.491l.808 3.525.807 3.524 5.039 5.027 5.038 5.027-.136-.529-.137-.529-.171-.595-.171-.595h.544l.26.992.26.992.186.766.185.766-.766-.186-.766-.185-.992-.26-.992-.26v-.544l.463.129.463.129.661.18.662.178-4.892-4.92-4.892-4.921-.4.007-.4.007-3.44.997-3.439.998-.067 7.528-.068 7.529.527-.86.527-.86h.58l-.602.992-.601.993-.278.463-.277.463zm-.727-16.96l.463.027v-9.386l-3.707 3.7-3.707 3.7.201.066.201.067 3.043.9 3.043.899zm1.273.027h.28l3.198-.92 3.197-.921.085-.085.084-.084-3.562-3.556-3.563-3.555v9.12zm-8.744-2.384l.136.003 3.565-3.572 3.564-3.572H12.594l.268.268.268.268 4.349 3.301 4.35 3.302.135.003zm15.524-.62l.076-.076-.709-3.223-.709-3.222h-5.314l3.29 3.298 3.29 3.298zm-16.654-7.05h8.663l-5.817-5.822-5.818-5.822-2.831 5.624-2.832 5.623-.014.198-.014.199zm12.521 0h2.79l1.095-3.763 1.096-3.763-.065-.064-.064-.065-3.82 3.827-3.82 3.828zm-3.519-7.578l.07-7.054-.076-.077-.077-.077-5.286 1.316-5.285 1.316-.383.135-.383.136 5.675 5.679 5.675 5.68zm4.539 2.969l3.947-3.941-2.955-2.281-2.956-2.28-.992-.753-.992-.751v13.946zM6.263 54.563H5.91l.264-1.455.263-1.455h.741l-.168.53-.167.528h.3l.529-.529.53-.529H9.46l.326.393.326.394-.162.646-.162.647-.43.43-.43.43-.688-.081-.688-.08-.294-.595-.295-.593-.175.175-.174.174v.97zm2.018-.529h.344l.318-.317.317-.318v-1.217H8.26l-.16.419-.162.418V54.034zm4.132.525l-.419.004-.176-.176-.176-.176v-.351l.568.02.569.022.115-.33.115-.332h-.838v-.529h.794v-.585l-.42.16-.418.161.11-.33.11-.332h1.279l-.091 1.19-.092 1.192-.305.194-.306.194-.419.004zm34.596.004h-.352l.264-1.455.263-1.455h.741l-.168.53-.168.528h.3l.53-.529.529-.529h1.258l.327.393.326.394-.162.646-.162.647-.43.43-.43.43-.688-.081-.688-.08-.295-.595-.294-.593-.175.174-.175.175v.97zm2.018-.529h.344l.318-.317.317-.318v-1.217h-1.001l-.161.419-.16.418V54.034zm4.035.53h-.849l.264-1.456.264-1.455h1.732l.163.265.164.264-.207.33-.208.332.079.478.079.48-.317.38-.316.381zm.265-.57l.472-.092.118-.356.119-.356-.472.091-.471.092-.119.356-.118.356zm.251-1.283h.397v-.529h-.794v.529zM10.7 53.77h-.677l.163-.265.164-.265H11.377v.53zm40.746 0h-.677l.163-.265.164-.265H52.123v.53zm-25.12-7.679l-.53-.003.354-.224.354-.224-.09-.607-.088-.607.313-.107.313-.107-.048.941-.049.941-.529-.003zm1.586.005H27.5l-.144-.376-.145-.376.295-.55.294-.55h.744l.15.243.15.242-.26.684-.26.683zm.134-.396l.264-.164v-1.058l-.264.163-.265.164V45.864zm9.393-2.539l-.794.017.353-.224.354-.224-.089-.607-.089-.608.366-.124.365-.124-.12.82-.12.822.283.117.284.118-.793.017zm1.356.024H38.3l.313-.376.313-.378-.082-.455-.083-.455.314-.11.313-.11-.049.942-.048.94-.496.002zm-21.96-1.588l-.496.001.313-.377.314-.377-.083-.455-.082-.455.313-.11.313-.11-.048.941-.049.941-.495.001zM.772 32.6l-.42.004-.176-.177L0 32.25v-.351l.569.021.568.021.115-.33.115-.331H.529v-.529h.794v-.586l-.42.16-.418.161.11-.33.11-.331h1.28l-.092 1.19-.091 1.19-.306.195-.305.195-.42.004zm58.11.004h-.848l.264-1.455.263-1.456h1.733l.163.265.164.264-.208.331-.207.33.079.48.079.479-.317.38-.316.382zm.266-.57l.472-.092.118-.356.119-.356-.472.092-.471.091-.119.356-.118.356zm.251-1.282h.397v-.53h-.794v.53zm-52.388-.535l-.529-.003.354-.224.353-.224-.089-.607-.089-.607.313-.107.314-.107-.049.941-.048.941-.53-.003zm1.588.005h-.366l-.174-.282-.174-.282.195-.181.195-.18.118.33.118.33h.567l-.485-.535-.484-.535.293-.294.294-.293.431.165.432.166-.183.295-.182.294-.227-.359-.228-.359-.004.278-.004.278.295.295.294.294-.178.288-.177.287zm32.808-7.413l-.529-.003.354-.224.353-.225-.089-.607-.089-.607.313-.107.313-.107-.048.941-.049.941-.529-.003zm1.613-.016l-.769.02.398-.462.398-.463.216-.376.215-.376-.506.193-.506.193.313-.315.313-.315.443.17.443.17-.419.639-.418.639.324.13.324.132-.77.021zm-24.851-5.8h-.238l.455-.695.455-.694-.358-.228-.359-.227.595-.004.596-.004v.315l-.454.769-.454.768zm13.449-3.445l-.53-.003.354-.224.354-.224-.09-.607-.088-.607.313-.107.313-.107-.049.94-.048.942-.53-.003zm1.452-.078l-.659.049.463-.134.463-.135v-.446l-.312-.104-.312-.104.172-.447.171-.448h.912l-.514.389-.513.388.482.008.482.008-.088.463-.088.463-.659.05zM8.172 10.588l-.651.078-.189-.188-.188-.189V8.908l.422-.603.423-.604.702.082.702.08-.133.261-.132.26-.446-.075-.447-.076-.301.564-.302.563.156.407.156.406.541-.142.541-.141-.102.31-.101.31zm3.13.05l-.47.004-.153-.397-.152-.397H9.229l.164-.264.163-.265h.837l.321.44.322.44.435-.167.435-.167v-.546h-.794V8.79h.794v-.586l-.419.16-.419.162.11-.331.11-.331h1.28l-.092 1.19-.091 1.191-.306.194-.305.195zm37.086-.05l-.65.078-.19-.188-.188-.189V8.908l.423-.603.422-.604.702.082.702.08-.132.261-.132.26-.447-.075-.446-.076-.302.564-.301.563.156.407.156.406.54-.142.542-.141-.102.31-.102.31zm3.35.054h-.848l.264-1.455.264-1.455h1.732l.164.264.163.265-.207.33-.208.331.079.479.079.479-.317.38-.316.382zm.266-.57l.472-.091.118-.356.119-.356-.472.091-.471.091-.119.356-.118.356zm.251-1.282h.397V8.26h-.794v.529zm-2.132 1.058h-.677l.163-.264.164-.265H50.8v.529zM30.397 2.915l-.651.078-.189-.188-.188-.189V1.235l.422-.603.423-.604.702.082.702.081-.133.26-.132.26-.446-.075L30.46.56l-.301.564-.302.564.156.406.156.406.541-.141.541-.142-.102.31-.101.31z" fill="#fd6666"/><path d="M28.488 61.707h-.352l.264-1.455.263-1.455h.741l-.168.529-.167.53h.3l.529-.53.53-.53h1.258l.326.394.326.394-.162.646-.162.646-.43.43-.43.43-.688-.08-.688-.081-.294-.594-.295-.594-.175.175-.174.175v.97zm2.018-.529h.344l.318-.317.317-.318v-1.217h-1.001l-.16.418-.162.419V61.178zm-.344-3.175h-.137l-.277-.463-.278-.463-.601-.992-.602-.992h.58l.525.86.524.86v-7.558l.002-7.558-3.903-1.105-3.902-1.104-4.895 4.921-4.895 4.922 1.125-.165 1.124-.165v.493l-.727.145-.728.144-.992.17-.992.171v-.492l.407-1.37.407-1.371h.508v.135l-.263.92-.264.92 3.577-3.567 3.577-3.568-.733-.167-.734-.167.35-.031.349-.032-.085-.704-.085-.705.366-.123.365-.123-.12.818-.12.817.316.121.315.121 1.093-1.113 1.092-1.113v-.345l-4.883-3.72-4.883-3.72H8.147l-3.517.002.86.524.86.524v.567l-1.125-.685-1.124-.686-.397-.256-.397-.255.397-.255.397-.256 1.124-.685 1.125-.686v.567l-.86.524-.86.524 3.442.001 3.443.001 2.995-5.996 2.994-5.997-2.824-2.8-2.825-2.801.137.529.137.529.17.595.172.596h-.544l-.26-.993-.26-.992-.186-.766-.185-.766.766.186.766.185.992.26.992.26v.545l-.53-.15-.528-.15-.596-.16-.595-.16 1.955 1.99 1.956 1.988.374-.143.374-.144-.08-.67-.081-.671.366-.123.365-.123-.12.821-.12.821.283.118.284.118-.788.02-.789.022.823.823.823.823 5.919-1.428 5.919-1.429.068-5.017.069-5.017-.528.86-.528.86h-.567l.686-1.125.686-1.124.255-.397.255-.397.256.397.255.397.686 1.124.686 1.125h-.567l-.525-.86-.524-.86v5.03l-.002 5.031 3.982 3.04 3.981 3.038.188.067.188.067 4.492-4.498 4.493-4.498-.921.264-.921.264h-.136v-.509l1.37-.407 1.372-.407h.492l-.171.992-.17.992-.145.728-.144.728h-.494l.165-1.125.166-1.124-4.538 4.508-4.537 4.508-1.176 3.959-1.176 3.958-.005.33-.005.331h9.46l9.458-.002-.86-.524-.86-.524v-.567l1.125.686 1.124.685.397.256.397.255-.397.255-.397.256-1.124.685-1.125.686v-.567l.86-.524.86-.524-9.556-.001-9.556-.001.865 3.743.865 3.744 5.078 5.053 5.079 5.054-.137-.529-.136-.529-.172-.595-.17-.596h.544l.26.993.26.992.185.766.185.766-.765-.186-.766-.185-.993-.26-.992-.26v-.545l.463.13.463.129.662.179.661.18-4.996-5.025-4.995-5.025-1.751.505-1.751.505-2.051.567-2.05.566v7.565l.001 7.565.525-.86.524-.86h.58l-.601.993-.602.992-.277.463-.278.463zm-.32-19.093l.076-2.338-.076-2.375-.076-2.375-3.705 3.672-3.704 3.673 3.704 1.04 3.705 1.041zm2.371 1.874l1.786-.513 1.587-.434 1.588-.433.194-.168.193-.168-3.567-3.56-3.567-3.56v9.349zm-10.381-2.109l.268.014 3.565-3.572 3.564-3.572H12.347l2.87 2.183 2.868 2.182 1.74 1.376 1.739 1.376.268.013zm15.955-.024l.084.038-.13-.464-.13-.463-.708-3.108-.707-3.11h-5.35l3.428 3.535 3.43 3.534zM20.77 31.016h8.599v-.137l-5.813-5.808-5.812-5.808-2.786 5.763-2.787 5.763v.227zm12.62 0h2.822l.138-.463.138-.463.958-3.266.958-3.265-.099-.1-.098-.098-3.82 3.827-3.82 3.828zm-3.554-7.578l.07-7.054-.097-.098-.098-.097-5.738 1.38-5.739 1.382L24 24.72l5.766 5.77zm4.564 2.944l3.972-3.965-.349-.265-.349-.265-3.293-2.531-3.292-2.532-.331-.196-.33-.196v13.915zm4.097-3.304h.132v-.265h-.264v.265zM6.263 54.563H5.91l.264-1.455.263-1.455h.741l-.168.53-.167.528h.3l.529-.529.53-.529H9.46l.326.394.326.393-.162.646-.162.647-.43.43-.43.43-.688-.081-.688-.08-.294-.595-.295-.593-.175.175-.174.174v.971zm2.018-.529h.344l.318-.317.317-.318v-1.217H8.26l-.16.419-.162.418V54.034zm4.132.525l-.419.004-.176-.176-.176-.176v-.351l.568.021.569.021.115-.33.115-.331h-.838v-.53h.794v-.585l-.42.16-.418.161.11-.33.11-.332h1.279l-.091 1.19-.092 1.192-.305.194-.306.194-.419.004zm34.596.004h-.352l.264-1.455.263-1.455h.741l-.168.53-.168.528h.3l.53-.529.529-.529h1.258l.327.393.326.394-.162.646-.162.647-.43.43-.43.43-.688-.081-.688-.08-.295-.595-.294-.593-.175.174-.175.175v.97zm2.018-.529h.344l.318-.317.317-.318v-1.217h-1.001l-.161.419-.16.418V54.034zm4.035.53h-.849l.264-1.456.264-1.455h1.732l.163.265.164.264-.207.33-.208.332.079.478.079.48-.317.38-.316.381zm.265-.57l.472-.092.118-.356.119-.356-.472.091-.471.092-.119.356-.118.356zm.251-1.283h.397v-.529h-.794v.529zM10.7 53.77h-.677l.163-.265.164-.264H11.377v.529zm40.746 0h-.677l.163-.265.164-.264H52.123v.529zm-25.12-7.678l-.53-.003.354-.225.354-.224-.09-.607-.088-.607.313-.107.313-.107-.048.941-.049.941-.529-.003zm1.586.005H27.5l-.144-.377-.145-.376.295-.55.294-.55h.744l.15.243.15.242-.26.684-.26.684zm.134-.397l.264-.164V44.477l-.264.164-.265.164V45.864zm9.393-2.539l-.794.017.353-.224.354-.224-.089-.607-.089-.608.366-.124.365-.124-.12.82-.12.822.283.117.284.118-.793.017zm1.356.024l-.495.001.313-.377.313-.378-.082-.455-.083-.455.314-.11.313-.11-.049.942-.048.94-.496.002zm-21.96-1.588l-.496.001.313-.377.314-.377-.083-.455-.082-.455.313-.11.313-.11-.048.941-.049.941-.495.001zM.772 32.6l-.42.004-.176-.177L0 32.25v-.351l.569.021.568.021.115-.33.115-.331H.529v-.529h.794v-.586l-.42.16-.418.161.11-.33.11-.331h1.28l-.092 1.19-.091 1.19-.306.195-.305.195-.42.004zm58.11.004h-.848l.264-1.455.263-1.456h1.733l.163.265.164.265-.208.33-.207.331.079.479.079.479-.317.38-.316.382zm.266-.57l.472-.092.118-.356.119-.356-.472.092-.471.091-.119.356-.118.356zm.251-1.282h.397v-.529h-.794v.529zm-52.388-.535l-.529-.003.354-.224.353-.224-.089-.607-.089-.607.313-.107.314-.107-.049.941-.048.941-.53-.003zm1.588.005h-.366l-.174-.282-.174-.282.195-.18.195-.182.118.331.118.33h.567l-.485-.535-.484-.535.293-.294.294-.293.431.165.432.166-.183.295-.182.294-.227-.359-.228-.359-.004.278-.004.278.295.295.294.294-.178.288-.177.287zm32.808-7.413l-.529-.003.354-.224.353-.224-.089-.608-.089-.607.313-.107.313-.107-.048.941-.049.941-.529-.003zm1.613-.016l-.769.02.398-.462.398-.463.216-.376.215-.376-.506.193-.506.193.313-.315.313-.315.443.17.443.17-.419.639-.418.639.324.131.324.131-.77.021zm-24.851-5.8h-.238l.455-.695.455-.694-.358-.228-.359-.227.595-.004.596-.004v.315l-.454.769-.454.768zm13.449-3.445l-.53-.003.354-.224.354-.224-.09-.607-.088-.607.313-.107.313-.107-.049.941-.048.941-.53-.003zm1.452-.078l-.659.049.463-.134.463-.135v-.446l-.312-.104-.312-.104.172-.447.171-.448h.912l-.514.389-.513.388.482.008.482.008-.088.463-.088.463-.659.05zm-24.898-2.88l-.651.077-.189-.188-.188-.189V8.908l.422-.603.423-.604.702.082.702.08-.133.261-.132.26-.446-.075-.447-.076-.301.564-.302.564.156.406.156.406.541-.142.541-.141-.102.31-.101.31zm3.13.049l-.47.004-.153-.397-.152-.397H9.229l.164-.264.163-.265h.837l.321.44.322.44.435-.167.435-.167v-.546h-.794V8.79h.794v-.586l-.419.16-.419.162.11-.331.11-.331h1.28l-.092 1.19-.091 1.191-.306.194-.305.195zm37.086-.05l-.65.078-.19-.188-.188-.189V8.908l.423-.603.422-.604.702.082.702.08-.132.261-.132.26-.447-.075-.446-.076-.302.564-.301.564.156.406.156.406.54-.142.542-.141-.102.31-.102.31zm3.35.054h-.848l.264-1.455.264-1.455h1.732l.164.264.163.265-.207.33-.208.331.079.48.079.478-.317.381-.316.381zm.266-.57l.472-.091.118-.356.119-.356-.472.091-.471.091-.119.356-.118.356zm.251-1.282h.397v-.529h-.794v.529zm-2.132 1.058h-.677l.163-.264.164-.265H50.8v.529zM30.397 2.915l-.651.078-.189-.188-.188-.189V1.235l.422-.603.423-.603.702.08.702.082-.133.26-.132.26-.446-.075L30.46.56l-.301.564-.302.564.156.406.156.406.541-.141.541-.142-.102.31-.101.31z" fill="#8e8e8e"/><path d="M28.538 61.598l-.3.186.182-1.03.183-1.031.136-.463.136-.463h.444l-.138.529-.139.53h.509l.48-.53.478-.53h1.222l.274.513.274.511-.237.624-.237.624-.41.34-.41.34-.61-.087-.61-.086-.084-.595-.084-.596h-.757V61.411zm2.16-.42h.504l.294-.55.295-.55-.145-.376-.144-.376h-1.088l-.26.684-.26.683.15.243.15.242zm-.536-3.44h-.214l-.71-1.21-.71-1.212.136-.136.137-.137.423.819.423.818h.251V41.695l-4.008-1.13-4.008-1.132-4.922 4.853-4.921 4.854 4.837-4.907 4.838-4.906-.605-.54-.604-.541-4.426-3.358-4.427-3.359-3.51.074-3.512.074.885.483.884.482-.136.136-.136.136-1.211-.71-1.212-.71v-.428l1.212-.71 1.211-.71.136.136.136.136-.818.423-.819.424v.251h6.757l3.033-6.086 3.034-6.085-2.774-2.844-2.773-2.845 2.834 2.764 2.835 2.764 5.896-1.407 5.897-1.406.205-.186.204-.186-.072-4.876-.072-4.875-.483.884-.482.885-.137-.136-.136-.136.71-1.212.71-1.211h.429l.71 1.211.71 1.212-.136.136-.137.136-.423-.818-.423-.819h-.251v9.929l3.982 3.04 3.981 3.039.283.098.283.099 4.533-4.465 4.533-4.464-4.412 4.498-4.412 4.498-1.253 4.301-1.253 4.301.134.134.134.134 9.368-.07 9.367-.069-.885-.482-.884-.483.136-.136.136-.136 1.211.71 1.212.71v.428l-1.212.71-1.211.71-.136-.136-.136-.136.818-.423.818-.423v-.251h-18.98l.749 3.24.748 3.242.162.662.163.661 4.938 5.027 4.938 5.027-5.024-4.958-5.024-4.957-3.902 1.104-3.903 1.104V56.68h.251l.423-.818.423-.819.137.137.136.136-.71 1.211-.71 1.212zm-.33-16.423l.066.02v-9.916l-3.903 3.833-3.902 3.833 3.7-3.77 3.7-3.77H12.389l1.28 1.003 1.28 1.002 3.705 2.806 3.704 2.806 3.704 1.067 3.705 1.066zm2.375-.53L34 40.272l1.587-.432 1.588-.432.332-.411.332-.412-.114-.41-.114-.412-.709-3.117-.709-3.118-2.816.075-2.817.075-.072 4.812-.072 4.811zm5.294-2.097h-.07l-3.436-3.505-3.436-3.506 3.506 3.436 3.506 3.436v.14zm-16.533-7.735l8.798-.07.07-7.342.07-7.342h-.253l-5.632 1.356-5.633 1.355-.12.11-.12.11 5.809 5.876 5.809 5.877-5.823-5.754-5.824-5.755h-.428l-2.76 5.707-2.76 5.708v.234zm12.288.063h2.954l.449-1.522.448-1.521.728-2.514.728-2.513-.174-.328-.174-.327-3.791-2.914-3.791-2.914h-.206V30.612l4.035-3.965 4.035-3.966-4.098 4.167-4.098 4.168zM6.313 54.454l-.3.186.182-1.03.183-1.03.136-.464.136-.463h.444l-.138.53-.139.528h.509l.48-.529.478-.529h1.222l.274.512.274.512-.237.623-.237.624-.41.34-.41.34-.61-.086-.61-.087-.084-.595-.084-.596h-.757v1.028zm2.16-.42h.504l.294-.55.295-.55-.145-.376-.144-.376H8.189l-.26.684-.26.684.15.242.15.242zm3.974.53h-.453l-.176-.177-.176-.176v-.368l.661.127.662.126v-.855h-.794v-.468l.595-.197.595-.196-.599-.118-.599-.118.152-.245.152-.246h.996l.163.265.164.264-.208.331-.207.33.078.48.08.478-.317.381-.316.381zm34.612-.11l-.301.186.183-1.03.183-1.03.136-.464.136-.463h.444l-.138.53-.139.528h.509l.479-.529.479-.529h1.222l.274.512.274.512-.237.623-.237.624-.41.34-.41.34-.61-.086-.61-.087-.084-.595-.085-.596h-.757v1.028zm2.16-.42h.504l.294-.55.295-.55-.145-.376-.144-.376h-1.088l-.26.684-.26.684.15.242.15.242zm3.9.53h-.79l.175-.993.176-.992.141-.478.141-.479.705.082.705.081.057 1.042.058 1.042-.289.347-.288.347zm.327-.53h.529v-.793h-1.058v.793zm.117-1.323h.38l.164-.264.164-.265h-1.09v.529zM10.7 53.77h-.381v-.529h1.089l-.163.264-.164.265zm40.746 0h-.381v-.529h1.089l-.163.264-.164.265zm-2.432-3.471l-.198-.031-1.588-.487-1.587-.487 1.323.055 1.322.055-.057-1.323-.058-1.323.512 1.72.51 1.72.01.066.009.066-.199-.031zm-37.058-.401l-.877.161.155-.489.155-.489.386-1.161.385-1.162-.132.957-.132.957.152.398.153.398 1.242-.093 1.241-.092-.926.227-.926.227zm14.37-3.823l-.53-.02.332-.133.33-.134V44.245h.437l-.02.925-.02.925-.529-.02zm1.654-.027l-.463.088v-.552l.397.153.396.152v-1.38h-.49l-.111.331-.111.33.028-.393.029-.394.478-.092.479-.092-.085.88-.084.881zm9.194-2.866l-.53-.004.343-.217.342-.217.233-.771.233-.771-.046.991-.046.992-.529-.004zm1.587-.016l-.529-.021.331-.134.33-.133v-1.544h.398v1.852l-.53-.02zm-21.96-1.588l-.53-.02.332-.134.33-.134V39.747h.397v1.852l-.529-.02zm1.323.016l-.53-.004.343-.217.342-.217.233-.77.233-.772-.046.992-.046.991-.529-.004zM.805 32.604H.353l-.177-.177L0 32.25v-.367l.661.126.662.127v-.856H.529v-.467l.595-.197.596-.197-.6-.117-.599-.118.152-.246.152-.245h.996l.163.264.164.265-.208.33-.207.331.079.48.079.478-.317.381-.316.381zm58.135 0h-.79l.175-.993.176-.992.141-.479.14-.478.706.081.705.082.057 1.042.058 1.041-.289.348-.288.347zm.327-.53h.529v-.794H58.737v.794zm.116-1.323h.382l.163-.265.164-.264h-1.09v.529zm-52.372-.55l-.529-.02.331-.134.33-.134V28.37h.437l-.02.925-.02.925-.529-.02zm1.7-.038l-.402.077-.179-.178-.178-.179.184-.293.184-.294.007-.393.007-.392.462-.09.461-.09-.071.877-.071.877-.403.078zm-.128-.206h.413v-.529h-.498l-.164.265-.163.264zm.148-.793h.265v-.53h-.529v.53zm32.676-6.372l-.529-.02.33-.134.332-.133V20.96h.436l-.02.926-.02.925-.529-.02zm1.608.003l-.774.018.635-.675.634-.675-.39-.247-.39-.247.463-.004.463-.004v.729l-.422.351-.423.35.489.193.489.192zM16.8 16.988l-.53-.004.343-.217.342-.217.233-.771.233-.771-.046.991-.046.992zm1.407.005h-.229l.449-.684.448-.684-.376-.238-.376-.238.617-.004.618-.004-.097.198-.097.199-.364.728-.365.727zm-6.14-1.323h-.099l-.308-1.257-.308-1.256-.141-.474-.142-.473.749.183.749.183 1.058.333 1.058.332-1.323-.042-1.322-.042.064 1.256.064 1.257zm36.47-1.587l-.363 1.72.088-1.242.087-1.242-.398-.153-.398-.152-.957.134-.956.135 1.576-.516 1.576-.515.054.056.053.055zm-16.92-.551l-.53-.02.331-.134.331-.133V11.7h.437l-.02.926-.02.925-.53-.02zm1.103.005l-.31-.017.662-.288.661-.288-.463-.112-.463-.111v-.509l.53.283.529.283v.454l-.419.16-.418.162zm.727-1.592l-.507-.02.347-.14.347-.139.16.16.16.16-.507-.02zM8.29 10.59l-.532.079-.331-.4-.331-.398.177-.807.177-.807.49-.262.49-.262h.829v.529h-.993l-.319.384-.319.384.096.476.097.476.594-.022.594-.022-.094.286-.094.287-.532.079zm3.098.053h-.453l-.176-.176-.177-.177v-.367l.662.126.661.127V9.32h-.793v-.467l.595-.197.595-.197-.6-.117-.598-.118.151-.246.152-.245h.996l.164.264.163.265-.207.33-.208.331.08.48.078.478-.316.381-.317.381zm37.118-.053l-.531.079-.331-.4-.331-.398.177-.807.177-.807.49-.262.49-.262h.829v.529h-.993l-.32.384-.318.384.096.476.096.476.595-.022.594-.022-.094.286-.094.287zm3.29.053h-.791l.176-.992.175-.992.141-.479.141-.478.705.081.705.082.057 1.042.058 1.041-.289.348-.288.347zm.326-.529h.53V9.32h-1.06v.794zm.117-1.323h.38l.164-.265.164-.264h-1.09v.529zM9.906 9.85h-.381V9.32h1.09l-.164.265-.163.264zm40.217 0h-.381V9.32h1.089l-.163.265-.164.264zM30.516 2.917l-.532.079-.331-.399-.331-.399.177-.807.177-.806.49-.263.49-.262h.829v.529h-.993l-.319.384-.319.384.096.476.097.476.594-.022.594-.022-.094.287-.094.286z" fill="#676767"/><path d="M28.651 61.112l-.29.728.15-.927.151-.926.198-.661.199-.661.022.595.023.595h.577l.46-.569.461-.569.706.177.707.177v1.578l-.53.53-.529.528h-1.048l-.166-.661-.166-.662h-.634l-.29.728zm1.876.066h.629l.319-.384.319-.384-.091-.473-.091-.473-.473-.09-.473-.092-.384.32-.384.318v1.259zm-24.1-7.21l-.291.728.15-.926.151-.926.198-.662.199-.661.022.595.023.595h.577l.46-.569.461-.569.706.177.707.178v1.578l-.53.528-.529.53H7.683l-.166-.662-.166-.661h-.634zm1.875.066h.629l.319-.384.319-.384-.091-.473-.091-.473-.473-.09-.473-.092-.384.32-.384.318v1.258zm4.101.53h-.497v-.53H12.965v-.794h-.794v-.529H13.23v-.529l-.596-.004-.595-.004.396-.256.397-.257.317-.004.317-.004-.032 1.125-.03 1.124-.253.33-.251.332h-.497zm34.77-.596l-.291.728.15-.926.15-.926.2-.662.198-.661.022.595.023.595h.577l.46-.569.461-.569.706.177.706.178v1.577l-.529.53-.529.528H48.43l-.166-.661-.166-.662h-.634l-.29.728zm1.875.066h.629l.319-.384.319-.384-.091-.473-.091-.473-.473-.09-.473-.092-.384.32-.384.318v1.258zm3.982.53h-.643v-.24l.29-1.35.29-1.351.7.08.7.082.064.53.064.529-.15-.331-.15-.33h-.983l-.163.264-.164.264h.984l.318.318.317.317v.386l-.416.416-.415.415zm.351-.579l.726-.083v-.529l-.561-.08-.562-.08-.164.428-.165.428zm-42.665-.215h-.397v-.53h.793v.53zm40.745 0h-.396v-.53h.793v.53zM26.57 46.076l-.508-.021.348-.14.347-.138.16.16.16.16-.507-.021zm1.345.02h-.133v-.264h.265v.265zm.264-1.587h-.132v-.264h.264v.264zm9.238-1.344l-.507-.02.348-.14.347-.138.16.16.16.16-.508-.022zm1.323 0l-.507-.02.348-.14.347-.138.16.16.16.16-.508-.022zm-8.216-1.491l-.493.13-3.969-1.151-3.968-1.151-.303-.208-.302-.209-4.99-3.813-4.989-3.813-.081-.06-.082-.062 3.162-6.32 3.163-6.32 6.284-1.516 6.285-1.517 1.35 1.03 1.35 1.031 3.043 2.307 3.043 2.307.056.05.056.051-1.177 3.957-1.178 3.957-.034.926-.034.926.83 3.545.829 3.545-.102.102-.101.101-3.577 1.023-3.577 1.022zm-.492-.359l.265.02 3.673-1.05 3.673-1.05.13-.131.132-.131-.862-3.648-.86-3.648.004-.397.005-.397 1.228-4.1 1.228-4.102-.736-.6-.737-.6-3.524-2.692-3.524-2.692-5.868 1.4-5.87 1.399-.45.437-.45.438-2.77 5.738-2.77 5.739 5.137 3.918 5.136 3.92 3.773 1.105 3.772 1.105.265.02zm7.716.46l-.176.177v-.706l.176.176.177.177zm-20.968-.197l-.507-.021.347-.139.347-.139.16.16.16.16-.507-.021zm1.587 0l-.507-.021.348-.139.347-.139.16.16.16.16-.508-.021zm.331-1.39l-.176.176v-.706l.176.177.177.176zM.761 32.603H.265v-.529h1.058v-.794H.529v-.529h1.058v-.529l-.595-.004-.595-.004.397-.257.397-.256.316-.004.317-.004-.031 1.124-.032 1.125-.251.33-.252.331H.761zm58.09 0h-.643v-.239l.29-1.35.29-1.352.7.082.7.08.064.53.064.53-.15-.332-.15-.33h-.983l-.163.264-.164.265h.984l.317.317.318.318v.385l-.416.416-.416.416zm.351-.578l.726-.084v-.529l-.562-.08-.561-.08-.165.428-.164.429zM7.254 30.201l-.507-.021.347-.14.347-.138.16.16.16.16-.507-.021zm1.213.02h-.353l.176-.176.177-.176.176.176.176.177zm.264-.793h-.353l.177-.176.176-.177.177.177.176.176zm.133-.794H8.73v-.264h.265v.264zm32.786-5.842l-.507-.02.347-.14.347-.138.16.16.16.16zm1.345.021h-.397v-.512l.397.152.397.152v.208zm.61-1.183l-.148.148-.18-.475-.181-.474.328.326.33.327zm-26.561-4.658l-.508-.021.348-.14.347-.138.16.16.16.16zm1.345-.244h-.133v-.265h.265v.265zm.529-.794h-.133v-.264h.265v.264zm-1.544-.353l-.176.177v-.706l.176.177.177.176zm1.411-.218h-.661l.33-.133.331-.134.331.134.33.133zm13.075-1.83l-.507-.022.347-.139.348-.139.16.16.16.16zm1.213.02h-.353l.177-.176.176-.177.176.177.177.176zm.264-.794h-.352l.176-.176.176-.177.177.177.176.176zm.11-.814l-.506-.021.347-.14.347-.138.16.16.16.16zM8.064 10.643h-.371l-.274-.512-.274-.512.237-.624.237-.623.42-.35.422-.35.466.204.467.203-.53.12-.529.12-.33.268-.331.268v1.258h1.089l-.163.265-.164.265zm3.282 0h-.497v-.53h1.058V9.32h-.793v-.53h1.058v-.529l-.595-.004-.596-.004.397-.256.397-.257.317-.004.316-.004-.03 1.125-.032 1.124-.252.331-.252.33zm36.935 0h-.372l-.274-.512-.274-.512.237-.624.237-.623.422-.35.42-.35.467.204.466.203-.529.12-.529.12-.33.268-.331.268v1.258h1.089l-.163.265-.164.265zm3.427 0h-.642v-.239l.29-1.351.29-1.351.7.081.7.081.063.53.064.529-.15-.331-.15-.33h-.983l-.163.264-.164.264h.984l.318.318.317.317v.386l-.416.416-.415.416zm.351-.578l.726-.084v-.529l-.561-.08-.562-.08-.164.428-.165.428zM9.922 9.849h-.397V9.32h.794v.529zm40.217 0h-.397V9.32h.793v.529zm-19.85-6.88h-.372l-.274-.511-.274-.512.237-.624.237-.623.42-.35.422-.349.466.203.467.203-.53.12-.529.12-.33.268-.331.268V2.44h1.089l-.163.265-.164.265z" fill="#fd0c0c"/><path d="M28.651 61.112l-.29.728.15-.927.151-.926.198-.661.199-.661.022.595.023.595h.577l.46-.569.461-.569.706.177.707.177v1.578l-.53.53-.529.528h-1.048l-.166-.661-.166-.662h-.634l-.29.728zm1.876.066h.629l.319-.384.319-.384-.091-.473-.091-.473-.473-.09-.473-.092-.384.32-.384.318v1.259zm-24.1-7.21l-.291.728.15-.926.151-.926.198-.662.199-.661.022.595.023.595h.577l.46-.569.461-.569.706.177.707.178v1.578l-.53.528-.529.53H7.683l-.166-.662-.166-.661h-.634zm1.875.066h.629l.319-.384.319-.384-.091-.473-.091-.473-.473-.09-.473-.092-.384.32-.384.318v1.258zm4.101.53h-.497v-.53H12.965v-.794h-.794v-.529H13.23v-.529l-.596-.004-.595-.004.396-.256.397-.257.317-.004.317-.004-.032 1.125-.03 1.124-.253.33-.251.332h-.497zm34.77-.596l-.291.728.15-.926.15-.926.2-.662.198-.661.022.595.023.595h.577l.46-.569.461-.569.706.177.706.178v1.577l-.529.53-.529.528H48.43l-.166-.661-.166-.662h-.634l-.29.728zm1.875.066h.629l.319-.384.319-.384-.091-.473-.091-.473-.473-.09-.473-.092-.384.32-.384.318v1.258zm3.982.53h-.643v-.24l.29-1.35.29-1.351.7.08.7.082.064.53.064.529-.15-.331-.15-.33h-.983l-.163.264-.164.264h.984l.318.318.317.317v.386l-.416.416-.415.415zm.351-.579l.726-.083v-.529l-.561-.08-.562-.08-.164.428-.165.428zm-42.665-.215h-.397v-.53h.793v.53zm40.745 0h-.396v-.53h.793v.53zM26.57 46.076l-.508-.021.348-.14.347-.138.16.16.16.16-.507-.021zm1.345.02h-.133v-.264h.265v.265zm.264-1.587h-.132v-.264h.264v.264zm9.238-1.344l-.507-.02.348-.14.347-.138.16.16.16.16-.508-.022zm1.323 0l-.507-.02.348-.14.347-.138.16.16.16.16-.508-.022zm-.992-1.39l-.176.177v-.706l.176.176.177.177zm-20.968-.197l-.507-.021.347-.139.347-.139.16.16.16.16-.507-.021zm1.587 0l-.507-.021.348-.139.347-.139.16.16.16.16-.508-.021zm.331-1.39l-.176.176v-.706l.176.177.177.176zM.761 32.603H.265v-.529h1.058v-.794H.529v-.529h1.058v-.529l-.595-.004-.595-.004.397-.257.397-.256.316-.004.317-.004-.031 1.124-.032 1.125-.251.33-.252.331H.761zm58.09 0h-.643v-.239l.29-1.35.29-1.352.7.082.7.08.064.53.064.53-.15-.332-.15-.33h-.983l-.163.264-.164.265h.984l.317.317.318.318v.385l-.416.416-.416.416zm.351-.578l.726-.084v-.529l-.562-.08-.561-.08-.165.428-.164.429zM7.254 30.201l-.507-.021.347-.14.347-.138.16.16.16.16-.507-.021zm1.213.02h-.353l.176-.176.177-.176.176.176.176.177zm.264-.793h-.353l.177-.176.176-.177.177.177.176.176zm.133-.794H8.73v-.264h.265v.264zm32.786-5.842l-.507-.02.347-.14.347-.138.16.16.16.16zm1.345.021h-.397v-.512l.397.152.397.152v.208zm.61-1.183l-.148.148-.18-.475-.181-.474.328.326.33.327zm-26.561-4.658l-.508-.021.348-.14.347-.138.16.16.16.16zm1.345-.244h-.133v-.265h.265v.265zm.529-.794h-.133v-.264h.265v.264zm-1.544-.353l-.176.177v-.706l.176.177.177.176zm1.411-.218h-.661l.33-.133.331-.134.331.134.33.133zm13.075-1.83l-.507-.022.347-.139.348-.139.16.16.16.16zm1.213.02h-.353l.177-.176.176-.177.176.177.177.176zm.264-.794h-.352l.176-.176.176-.177.177.177.176.176zm.11-.814l-.506-.021.347-.14.347-.138.16.16.16.16zM8.064 10.643h-.371l-.274-.512-.274-.512.237-.624.237-.623.42-.35.422-.35.466.204.467.203-.53.12-.529.12-.33.268-.331.268v1.258h1.089l-.163.265-.164.265zm3.282 0h-.497v-.53h1.058V9.32h-.793v-.53h1.058v-.529l-.595-.004-.596-.004.397-.256.397-.257.317-.004.316-.004-.03 1.125-.032 1.124-.252.331-.252.33zm36.935 0h-.372l-.274-.512-.274-.512.237-.624.237-.623.422-.35.42-.35.467.204.466.203-.529.12-.529.12-.33.268-.331.268v1.258h1.089l-.163.265-.164.265zm3.427 0h-.642v-.239l.29-1.351.29-1.351.7.081.7.081.063.53.064.529-.15-.331-.15-.33h-.983l-.163.264-.164.264h.984l.318.318.317.317v.386l-.416.416-.415.416zm.351-.578l.726-.084v-.529l-.561-.08-.562-.08-.164.428-.165.428zM9.922 9.849h-.397V9.32h.794v.529zm40.217 0h-.397V9.32h.793v.529zm-19.85-6.88h-.372l-.274-.511-.274-.512.237-.624.237-.623.42-.35.422-.349.466.203.467.203-.53.12-.529.12-.33.268-.331.268V2.44h1.089l-.163.265-.164.265z" fill="#080808"/></svg>