<svg xmlns="http://www.w3.org/2000/svg" width="229.292" height="233.724" viewBox="0 0 60.666741 61.83936"><path d="M28.42 61.707h-.41l.136-.463.136-.463.176-.992.176-.992h.735v1.176l.412-.588.412-.588h1.249l.419.16.418.16v1.532l-.529.529-.53.53H29.678l-.241-.726-.242-.726-.182.726-.182.725zm2.086-.53h.344l.318-.317.317-.317v-.921l-.276-.171-.276-.17-.385.319-.385.32v1.258zm-.343-2.92h-.133l-.871-1.491-.872-1.491.24-.24.24-.24.56.876.562.877.004-8.004.004-8.004h-.661l-5.079.974-5.078.974-3.389 3.402-3.388 3.402 1.125-.176 1.124-.177v.566l-.207.128-.208.129-1.609.182-1.608.182.421-1.618.422-1.618h.715l-.178.86-.177.86 3.37-3.347 3.37-3.347-3.694-5.12-3.693-5.12-3.29-.066-3.291-.067.876.567.877.566-.24.24-.24.24-1.491-.872-1.491-.872v-.264l1.481-.866 1.482-.866.334.277.334.278.179-.465.178-.465-.281-.094-.282-.093.15-.242.15-.242h.99l-.228.793-.228.794h.739l.3-.563.302-.562-.358-.227-.358-.227.728-.004.727-.004v.291l-.404.78-.403.78-1.382.009-1.383.008-.525.397-.526.397 3.286-.075 3.286-.075 3.645-5.027 3.645-5.027.01-.268.011-.269-3.336-3.303-3.336-3.303.173.992.173.992h-.716l-.41-1.713-.41-1.714.101-.1.101-.102 1.714.41 1.713.41v.716l-.992-.173-.992-.174 2.618 2.652 2.618 2.652.373-.143.373-.143-.08-.689-.081-.689.46-.09.46-.09-.151.88-.152.878.577-.86.577-.86h.772l-.096.842-.097.841-1.275.074-1.275.074-.096.096-.096.096.725.686.725.686 5.222-1.631 5.222-1.631v-5.424l-.002-5.424-.56.876-.562.876-.24-.24-.24-.24.872-1.49.872-1.492h.264l.872 1.491.872 1.491-.24.24-.24.24-.561-.876-.562-.876-.004 5.447-.004 5.447 3.667 3.06 3.666 3.06 4.867-4.894 4.866-4.893-.86.178-.86.177v-.715l1.618-.421 1.617-.421-.182 1.608-.182 1.609-.128.207-.128.208h-.566l.176-1.125.176-1.124-4.905 4.893-4.906 4.893.072.214.071.214 4.626 3.68 4.626 3.682 3.836.005 3.836.005-.876-.561-.876-.562.24-.24.24-.24 1.49.872 1.492.872v.264l-1.491.872-1.491.872-.24-.24-.24-.24.876-.561.876-.561-3.79-.004-3.79-.004-5.404 2.94-5.404 2.94v.342l5.573 5.554 5.573 5.554-.185-1.026-.185-1.026.36.12.359.12.37 1.513.369 1.515-.151.15-.152.152-1.514-.37-1.514-.369-.12-.36-.12-.358 1.026.184 1.027.184-5.723-5.738-5.723-5.738-2.876 1.181-2.876 1.181-.064 8.18-.064 8.178.563-.877.563-.876.24.24.24.24-.871 1.491-.872 1.491zm-9.658-16.75l.53-.143 4.431-.838 4.432-.838V31.81h-.138l-4.892 4.921-4.892 4.92zm3.759-4.99l4.846-4.84-8.245-.07-8.246-.07-.108.108-.109.109 3.092 4.327 3.092 4.327.416.475.416.475zm7.552 2.415l1.39-.543 1.267-.578 1.267-.578-2.656-2.64-2.657-2.642v7.523zm5.611-2.461l1.07-.616 3.77-2.054 3.77-2.054v-.202H30.834l2.762 2.77 2.762 2.772zm-16.461-5.456h8.53l-5.002-5.007-5.002-5.007-.447.575-.447.576-3.081 4.304-3.082 4.304v.255zm17.654 0h8.053l-.252-.221-.251-.222-3.969-3.124-3.969-3.124-.279-.215-.278-.216-3.554 3.561-3.554 3.561zm-8.78-3.685l.074-3.163-.074-3.274-.074-3.274-4.445 1.383-4.444 1.383-.436.168-.436.167 4.88 4.887 4.88 4.886zm3.998-.387l3.41-3.403-.83-.705-.832-.704-2.58-2.182-2.579-2.182v12.58zm-13.862-8.892h.132v-.265h-.264v.265zM6.195 54.563h-.41l.136-.463.136-.463.176-.992.176-.992h.735v1.176l.412-.588.412-.588h1.249l.419.16.418.161v1.266h1.323v.565l-.727-.084-.728-.084-.463.463-.463.463H7.452l-.241-.725-.242-.726-.182.726-.182.725zm2.086-.529h.344l.318-.317.317-.318v-.921l-.276-.17-.276-.171-.385.32-.385.319v1.258zm4.122.53h-.761v-.83l.529.168.529.168v-.83h-.794v-.529H12.965v-.565l-.53.168-.529.168v-.508l.419-.16.418-.161h.987l-.031 1.124-.031 1.125-.252.33-.252.331zm34.538 0h-.41l.136-.464.136-.463.176-.992.176-.992h.735v1.176l.411-.588.412-.588h1.25l.419.16.418.161v1.266h1.323v.565l-.728-.084-.727-.084-.463.463-.463.463h-1.544l-.242-.725-.241-.726-.183.726-.182.725zm2.086-.53h.344l.318-.317.317-.318v-.921l-.276-.17-.276-.171-.385.32-.386.319v1.258zm4.003.53h-.907v-.24l.286-1.335.287-1.336H54.521l.162.423.163.424-.331.205-.332.205.293.18.293.182v.46l-.416.416-.416.415zm.298-.577l.41-.085.053-.243.052-.242-.298-.1-.298-.099-.164.427-.164.428zm.235-1.276h.412v-.529h-.498l-.163.265-.164.264zm-38.761-8.29l-1.44.08.353-.224.354-.224-.09-.625-.088-.626.46-.091.46-.092-.151.88-.152.878.577-.86.577-.86h.772l-.096.841-.096.84zm.676-.441h.132v-.265h-.264v.265zm11.703.48l-.723.084v-.53l.258-.678.258-.679h1.065l-.068.86-.068.86zm-.061-.215h.132v-.265h-.264v.265zm.264-1.059h.133v-.264h-.265v.264zm8.955-1.903l-.57.081-.162-.261-.161-.261.257-.16.257-.159-.148-.386-.148-.386.424-.163.425-.163.413.16.414.158-.208.333-.209.332-.007.397-.007.397-.57.081zm.041-.213h.133v-.265h-.265v.265zm13.447-7.144H48.38l.416-.416.416-.416v-.491h-.56l.163-.265.163-.264h.99l-.227.793-.228.794h.492v-.952l.318-.318.317-.317h1.054l-.485.354-.484.354.43.165.429.165-.156.407-.156.407zm.885-.353l.176-.176-.176-.177-.177-.176v.705zm-49.95-.97H0v-.829l.53.167.528.168v-.829H.265v-.529h1.058v-.565l-.53.168-.528.168v-.508l.418-.16.419-.162h.987l-.032 1.125-.03 1.124-.253.331-.251.33zm58.089 0h-.907v-.239l.286-1.336.287-1.336H60.342l.162.424.163.424-.332.204-.331.205.293.181.293.181v.46l-.416.416-.416.416zm.298-.576l.41-.086.052-.242.053-.243-.298-.099-.299-.1-.164.428-.164.427zm.234-1.276h.413v-.529h-.498l-.164.264-.163.265zm-18.36-6.883l-1.203-.004.353-.224.354-.225-.09-.625-.088-.625.46-.092.46-.091-.128.879-.129.878.272-.86.27-.86H42.864v1.218l-.318.317-.317.318-1.204-.004zm1.046-.526l.256-.396v-.794l-.256.397-.257.397v.793zm-9.707-8.73h-1.444l.416-.417.416-.415v-.492h-.56l.163-.264.164-.265h.99l-.228.794-.227.794h1.286v-.485l-.331-.134-.33-.133.33-.021.33-.021v-.56l-.264.163-.265.164v-.56H33.835l.124.2.124.199-.14.726-.138.726zm-24.315-3.97h-.62l-.274-.511-.274-.512.237-.624.237-.623.41-.34.41-.34.59.086.588.086.123.373.123.373-.466-.179-.467-.179-.363.302-.363.301v1.258h.755l.397-.396.397-.397h.87l.396.397.397.396h.492V9.32h-.794V8.79h1.058v-.565l-.529.168-.529.168v-.509l.418-.16.419-.16h.987l-.031 1.124-.032 1.124-.251.33-.252.332H10.583v-.794H9.325l-.33.397-.328.397zm40.216 0h-.62l-.273-.511-.274-.512.237-.624.237-.623.41-.34.41-.34.589.086.589.086.123.373.123.373-.467-.179-.466-.179-.363.302-.364.301v1.258h.756l.397-.396.397-.397H50.8v.529h-1.259l-.328.397-.33.397zm3.444 0H50.8v-.238l.287-1.336.286-1.336H53.198l.162.424.163.423-.331.205-.332.205.293.18.293.182v.46l-.416.416-.416.415zm.299-.576l.41-.085.052-.243.052-.242-.298-.1-.298-.099-.164.427-.164.428zm.234-1.276h.412v-.529h-.498l-.163.265-.164.264zM30.272 2.97h-.62l-.274-.512-.274-.512.237-.624.237-.623.41-.34.41-.34.59.086.588.086.123.373.123.373-.466-.179-.467-.179-.363.302-.363.301v1.316l.707-.178.708-.177-.343.413-.343.414z" fill="#cfcfcf"/><path d="M28.488 61.707h-.352l.264-1.455.264-1.455h.74l-.168.529-.167.529h.3l.529-.53.53-.528h1.258l.326.393.326.394-.162.646-.162.646-.43.43-.43.43-.688-.08-.688-.081-.294-.594-.295-.594-.175.175-.174.175v.97zm2.018-.53h.344l.318-.317.317-.317v-1.217h-1.001l-.16.418-.161.419V61.178zm-.343-3.174h-.138l-.277-.463-.278-.463-.601-.992-.602-.993h.58l.525.86.524.86.001-8.17.001-8.17-1.124.178-1.125.176-4.268.814-4.267.813-3.406 3.44-3.405 3.44 1.125-.166L14.552 49v.493l-.728.144-.727.145-.992.17-.993.171v-.492l.408-1.37.407-1.372h.508v.136l-.264.923-.265.924 3.479-3.48 3.478-3.478-3.677-5.171-3.677-5.172-3.44-.013-3.439-.012.86.524.86.524v.567l-1.125-.686-1.124-.685-.397-.256-.397-.255.397-.255.397-.256 1.124-.685 1.125-.686v.567l-.86.524-.86.525 3.44-.015 3.44-.014 3.738-5.246 3.738-5.246-3.566-3.536-3.567-3.536.138.529.138.529.17.595.172.596h-.544l-.26-.993-.26-.992-.186-.766-.185-.766.766.186.766.185.992.26.992.26v.545l-.53-.15-.528-.15-.596-.16-.595-.159 2.75 2.782 2.75 2.782.374-.143.373-.143-.08-.67-.081-.672.365-.123.366-.122-.121.827-.122.827h.408l.469-.793.468-.794h.604l-.028.793-.028.793-.265.029-.264.029-.397.059-.397.058-.789.046-.788.045.788.78.789.78 5.225-1.635 5.226-1.635-.001-5.561-.001-5.561-.524.86-.525.86h-.567l.686-1.125.686-1.124.255-.397.255-.397.256.397.255.397.686 1.124.686 1.125h-.567l-.525-.86-.524-.86-.001 5.594-.001 5.594 2.315 1.933 2.315 1.933 1.338 1.126 1.337 1.126 5.01-5.015 5.01-5.015-.922.265-.921.264h-.136v-.509l1.37-.407 1.372-.407h.492l-.17.992-.172.992-.144.728-.144.728h-.494l.166-1.125.166-1.124-4.925 4.892-4.925 4.892v.363l4.696 3.72 4.696 3.72 3.97.003 3.968.003-.86-.524-.86-.525V29.4l1.125.685 1.124.686.397.255.397.256-.397.255-.397.255-1.124.686-1.125.686v-.567l.86-.525.86-.524H51.75l-3.945-.002-5.382 2.94-5.381 2.94V37.768l5.714 5.686 5.715 5.686-.138-.53-.137-.528-.17-.596-.172-.595h.544l.26.992.26.992.186.766.185.766-.766-.185-.766-.185-.992-.26-.992-.26v-.545l.463.13.463.128.661.179.662.178-5.864-5.888-5.865-5.89-2.867 1.192-2.867 1.192-.067 8.31-.067 8.31.526-.86.527-.86h.58l-.602.992-.601.993-.278.463-.277.463zm-9.658-16.49l.53-.139 4.431-.844 4.432-.845v-7.876h-.138l-4.892 4.921-4.892 4.92zm-1.188-.192l.135.013 4.89-4.895 4.89-4.894h-16.84l.088.246.088.247 3.307 4.635 3.307 4.635.135.013zm11.195-1.839h.085l2.47-1.056 2.47-1.056.082-.082.083-.082-2.638-2.627-2.637-2.628V39.482zm6.915-3.01l1.07-.616 3.77-2.047 3.77-2.046v-.218H30.834l2.762 2.77 2.762 2.772zm-16.461-5.457h8.53l-5.017-5.021-5.016-5.022-.165.193-.164.193-3.35 4.669-3.349 4.668v.32zm17.654 0h8.053l-.252-.234-.251-.235-3.307-2.618-3.308-2.618-.939-.71-.939-.71-3.555 3.563-3.555 3.562zm-8.78-3.685l.074-3.163-.074-3.297-.074-3.296-4.437 1.402-4.436 1.403-.444.17-.444.17 4.88 4.888 4.88 4.886zm4.018-.407l3.43-3.422-.057-.044-.057-.044-2.778-2.323-2.778-2.323-.596-.537-.595-.536v12.652zm-13.913-8.872h.132l.164-.265.163-.264h-.264l-.164.264-.163.265zM6.263 54.563H5.91l.264-1.455.264-1.455h.74l-.168.53-.167.528h.3l.529-.529.53-.53H9.46l.326.394.326.394-.162.646-.162.647-.43.43-.43.43-.688-.081-.688-.08-.294-.595-.295-.593-.175.174-.174.175v.97zm2.018-.529h.344l.318-.317.317-.318v-1.217H8.26l-.16.419-.161.418V54.034zm4.132.525l-.419.004-.176-.176-.176-.176v-.351l.568.02.569.022.115-.33.115-.332h-.838v-.529h.794v-.586l-.42.161-.418.161.11-.33.11-.332h1.28l-.092 1.19-.092 1.191-.305.195-.306.194-.419.004zm34.596.004h-.352l.264-1.455.263-1.455h.741l-.168.529-.168.53h.3l.53-.53.529-.53h1.259l.326.394.326.394-.162.646-.162.647-.43.43-.43.429-.688-.08-.688-.081-.295-.594-.294-.593-.175.174-.175.175v.97zm2.018-.529h.344l.318-.317.317-.318v-1.217h-1.001l-.161.419-.16.418V54.034zm4.035.53h-.849l.264-1.456.264-1.455h1.732l.163.264.164.265-.207.33-.208.331.079.48.079.478-.316.381-.317.381zm.265-.57l.472-.092.118-.356.119-.356-.472.091-.471.092-.119.356-.118.356zm.251-1.283h.397v-.529h-.794v.529zM10.7 53.77h-.677l.163-.265.164-.265H11.377v.53zm40.746 0h-.677l.163-.265.164-.265H52.123v.53zm-36.762-9.374l-1.323.12.354-.231.354-.232-.09-.607-.088-.607.365-.125.366-.124-.121.827-.122.828h.408l.469-.794.469-.794h.603l-.028.793-.028.793-.132.017-.133.016-1.323.12zm.763-.416h.132l.164-.265.163-.264h-.264l-.164.264-.163.265zm11.85.53h-.486l-.17-.17-.168-.17.184-.293.184-.294.007-.397.007-.397.632-.09.633-.088-.166.618-.165.619-.004.33-.004.331zm-.045-.265h.265v-.53h-.529v.53zm.176-.882l.177-.177-.177-.176-.176-.177v.706zm8.843-2.072l-.626.09.166-.619.165-.619.004-.33.004-.331h1.052l-.069.86-.069.86zm-.039-.221h.28v-.53h-.233l-.163.265-.164.265zm.133-.794h.116l.164-.265.163-.264h-.56v.529zM49.08 33.92l-.529-.003.354-.225.353-.224-.089-.607-.089-.607.313-.107.313-.107-.048.941-.049.941-.529-.003zm1.675-.05l-.435.084-.159-.257-.159-.257.26-.684.26-.683.602.016.602.017-.661.288-.662.288.478.115.478.114-.084.438-.084.437-.436.084zm-.103-.21h.117l.163-.264.164-.265h-.56v.529zM.772 32.6l-.42.004-.176-.177L0 32.25v-.351l.569.021.568.021.115-.33.115-.331H.529v-.529h.794v-.586l-.42.16-.418.161.11-.33.11-.331h1.28l-.092 1.19-.091 1.19-.306.195-.305.195-.42.004zm58.11.004h-.848l.264-1.455.263-1.456h1.733l.163.265.164.265-.208.33-.207.331.079.479.079.479-.317.38-.316.382zm.266-.57l.472-.092.118-.356.119-.356-.472.092-.471.091-.119.356-.118.356zm.251-1.282h.397v-.529h-.794v.529zm-52.388-.535l-.529-.003.354-.224.353-.224-.089-.607-.088-.607.313-.107.313-.107-.049.941-.048.941-.53-.003zm1.413.005h-.222l.008-.198.008-.199.396-.523.395-.523-.47-.186-.47-.186.75-.018.75-.019-.097.199-.097.198-.365.728-.365.727h-.222zm32.672-6.393l-1.276.026.353-.22.354-.219-.09-.607-.088-.607.366-.125.365-.124-.121.827-.122.828h.322l.3-.794.3-.794h.808l.15.243.15.242-.248.65-.247.65-1.276.025zm.973-.354l.264-.163v-1.058l-.264.163-.265.164v1.058zm-10.451-8.868l-.53-.003.354-.224.354-.225-.09-.607-.088-.607.313-.107.313-.107-.049.941-.048.941-.53-.003zm1.45-.079l-.657.05.463-.135.463-.134v-.491h-.63l.514-.418.513-.419-.476.151-.477.151.161-.262.162-.261h.756l-.069.86-.068.86zM8.171 10.588l-.651.078-.189-.188-.188-.189V8.908l.422-.603.423-.603.702.08.702.082-.133.26-.132.26-.446-.075-.447-.076-.301.564-.302.564.156.406.156.406.541-.141.541-.142-.102.31-.101.31zm3.13.05l-.47.004-.153-.397-.152-.397H9.229l.164-.264.163-.265h.837l.321.44.322.44.435-.167.435-.167v-.546h-.794V8.79h.794v-.586l-.419.161-.419.16.11-.33.11-.331h1.28l-.092 1.19-.091 1.191-.306.195-.305.194zm37.086-.05l-.65.078-.19-.188-.188-.189V8.908l.423-.603.422-.603.702.08.702.082-.132.26-.132.26-.447-.075-.446-.076-.302.564-.301.564.156.406.156.406.54-.141.542-.142-.102.31-.102.31zm3.35.054h-.848l.264-1.455.264-1.455h1.732l.164.264.163.265-.207.33-.208.331.079.48.079.478-.317.381-.316.381zm.266-.57l.472-.091.118-.356.119-.356-.472.091-.471.092-.119.356-.118.356zm.251-1.282h.397v-.529h-.794v.529zm-2.132 1.058h-.677l.163-.264.164-.265H50.8v.529zM30.397 2.915l-.651.079-.189-.189-.188-.189V1.235l.422-.603.423-.603.702.08.702.082-.133.26-.132.26-.446-.075L30.46.56l-.301.564-.302.564.156.406.156.406.541-.141.541-.142-.102.31-.101.31z" fill="#fda2a2"/><path d="M28.488 61.707h-.352l.264-1.455.264-1.455h.74l-.168.529-.167.529h.3l.529-.53.53-.528h1.258l.326.393.326.394-.162.646-.162.646-.43.43-.43.43-.688-.08-.688-.081-.294-.594-.295-.594-.175.175-.174.175v.97zm2.018-.53h.344l.318-.317.317-.317v-1.217h-1.001l-.16.418-.161.419V61.178zm-.343-3.174h-.138l-.277-.463-.278-.463-.601-.992-.602-.993h.58l.525.86.524.86.001-8.286.001-8.286-.463.138-.463.138-4.892.937-4.893.937-3.442 3.47-3.442 3.471 1.125-.165 1.124-.165v.493l-.728.144-.727.145-.992.17-.993.171v-.492l.408-1.37.407-1.372h.508v.136l-.263.92-.264.92 3.442-3.435 3.442-3.434-.108-.28-.107-.28-3.53-4.946-3.53-4.946H8.074l-3.444.002.86.524.86.524v.567l-1.125-.686-1.124-.685-.397-.256-.397-.255.397-.255.397-.256 1.124-.686 1.125-.685v.567l-.86.524-.86.524 3.45.001 3.448.001 2.681-3.77 2.681-3.77 1.063-1.477 1.062-1.476-3.58-3.55-3.582-3.552.138.53.138.529.17.595.172.595h-.544l-.26-.992-.26-.992-.186-.766-.185-.766.766.185.766.186.992.26.992.26v.544l-.53-.15-.528-.15-.596-.159-.595-.159 2.75 2.782 2.75 2.782.374-.143.373-.143-.08-.671-.081-.67.365-.124.366-.123-.121.828-.122.827h.408l.469-.793.468-.794h.604l-.028.793-.028.793-.265.029-.264.028-.397.06-.397.058-.789.046-.788.045.803.803.803.803 5.1-1.597 5.101-1.597h.22V11.37l-.001-5.622-.524.86-.525.86h-.567l.686-1.125.686-1.125.255-.396.255-.397.256.397.255.396.686 1.125.686 1.124h-.567l-.525-.86-.524-.86-.001 5.605v5.603l3.245 2.73 3.246 2.731.406.32.406.32 5.01-5.016 5.01-5.016-.92.265-.922.264h-.136v-.509l1.371-.407 1.37-.407h.493l-.17.992-.172.992-.144.728-.144.727h-.494l.166-1.124.166-1.125-5.041 5.009-5.042 5.008 4.781 3.79 4.782 3.788h4l4-.002-.86-.524-.86-.524v-.567l1.125.685 1.124.686.397.255.397.256-.397.255-.397.256-1.124.685-1.125.686v-.567l.86-.524.86-.525h-4.016l-4.016-.001-5.377 2.946-5.377 2.947-.056.042-.056.042 5.837 5.809 5.836 5.808-.137-.529-.137-.529-.17-.595-.172-.596h.544l.26.993.26.992.186.766.185.766-.766-.186-.766-.185-.992-.26-.992-.26v-.545l.463.13.463.129.661.178.662.179-5.875-5.9-5.875-5.9-2.92 1.179-2.921 1.178-.001 8.334-.001 8.334.524-.86.525-.86h.58l-.602.993-.601.992-.278.463-.277.463zm-9.129-16.555l1.059-.184 3.795-.74 3.796-.74.114-.114.115-.114-.074-3.877-.073-3.876-4.895 4.915-4.895 4.915zm-1.726-.114h.144l4.89-4.895 4.89-4.894H12.124l.835 1.124.835 1.125 2.684 3.77 2.685 3.77zm11.248-1.852h.13l2.318-.952 2.318-.952.194-.182.194-.181-2.641-2.632-2.642-2.632V39.482zm6.597-2.83l.815-.415 4.1-2.252 4.102-2.252.11-.094.11-.094H30.833l2.753 2.761 2.752 2.762zm-16.398-5.637h8.614v-.138l-4.985-4.98-4.986-4.98-3.283 4.577-3.283 4.576-.345.473-.346.472zm17.81 0h8.002v-.209l-4.404-3.494-4.404-3.494-3.599 3.599-3.598 3.598zM29.836 24.1l.07-6.392-.09-.09-.09-.091-4.743 1.484-4.743 1.484-.12.11-.12.11 4.882 4.889 4.883 4.888zm4.027 2.817l3.437-3.429-.328-.297-.328-.298-2.646-2.207-2.646-2.206-.463-.388-.463-.388v12.642zm-13.92-8.866h.133l.164-.265.163-.264h-.264l-.164.264-.163.265zM6.264 54.563H5.91l.264-1.455.264-1.455h.74l-.168.53-.167.528h.3l.529-.529.53-.53H9.46l.326.394.326.394-.162.646-.162.647-.43.43-.43.43-.688-.081-.688-.08-.294-.595-.295-.593-.175.174-.174.175v.97zm2.018-.529h.344l.318-.317.317-.318v-1.217H8.26l-.16.419-.161.418V54.034zm4.132.525l-.419.004-.176-.176-.176-.176v-.351l.568.02.569.022.115-.33.115-.332h-.838v-.529h.794v-.586l-.42.161-.418.161.11-.33.11-.332h1.28l-.092 1.19-.092 1.191-.305.195-.306.194-.419.004zm34.596.004h-.352l.264-1.455.263-1.455h.741l-.168.529-.168.53h.3l.53-.53.529-.53h1.259l.326.394.326.394-.162.646-.162.647-.43.43-.43.429-.688-.08-.688-.081-.295-.594-.294-.593-.175.174-.175.175v.97zm2.018-.529h.344l.318-.317.317-.318v-1.217h-1.001l-.161.419-.16.418V54.034zm4.035.53h-.849l.264-1.456.264-1.455h1.732l.163.264.164.265-.207.33-.208.331.079.48.079.478-.316.381-.317.381zm.265-.57l.472-.092.118-.356.119-.356-.472.091-.471.092-.119.356-.118.356zm.251-1.283h.397v-.529h-.794v.529zM10.7 53.77h-.677l.163-.265.164-.265H11.377v.53zm40.746 0h-.677l.163-.265.164-.265H52.123v.53zm-36.762-9.374l-1.323.12.354-.231.354-.232-.09-.607-.088-.607.365-.125.366-.124-.121.827-.122.828h.408l.469-.794.469-.794h.603l-.028.793-.028.793-.132.017-.133.016-1.323.12zm.763-.416h.132l.164-.265.163-.264h-.264l-.164.264-.163.265zm11.85.53h-.486l-.17-.17-.168-.17.184-.293.184-.294.007-.397.007-.397.632-.09.633-.088-.166.618-.165.619-.004.33-.004.331zm-.045-.265h.265v-.53h-.529v.53zm.176-.882l.177-.177-.177-.176-.176-.177v.706zm8.843-2.072l-.626.09.166-.619.165-.619.004-.33.004-.331h1.052l-.069.86-.069.86zm-.039-.221h.28v-.53h-.233l-.163.265-.164.265zm.133-.794h.116l.164-.265.163-.264h-.56v.529zM49.08 33.92l-.529-.003.354-.225.353-.224-.089-.607-.089-.607.313-.107.313-.107-.048.941-.049.941-.529-.003zm1.675-.05l-.435.084-.159-.257-.159-.257.26-.684.26-.683.602.016.602.017-.661.288-.662.288.478.115.478.114-.084.438-.084.437-.436.084zm-.103-.21h.117l.163-.264.164-.265h-.56v.529zM.772 32.6l-.42.004-.176-.177L0 32.25v-.351l.569.021.568.021.115-.33.115-.331H.529v-.529h.794v-.586l-.42.16-.418.161.11-.33.11-.331h1.28l-.092 1.19-.091 1.19-.306.195-.305.195-.42.004zm58.11.004h-.848l.264-1.455.263-1.456h1.733l.163.265.164.265-.208.33-.207.331.079.479.079.479-.317.38-.316.382zm.266-.57l.472-.092.118-.356.119-.356-.472.092-.471.091-.119.356-.118.356zm.251-1.282h.397v-.529h-.794v.529zm-52.388-.535l-.529-.003.354-.224.353-.224-.089-.607-.088-.607.313-.107.313-.107-.049.941-.048.941-.53-.003zm1.413.005h-.222l.008-.198.008-.199.396-.523.395-.523-.47-.186-.47-.186.75-.018.75-.019-.097.199-.097.198-.365.728-.365.727h-.222zm32.672-6.393l-1.276.026.353-.22.354-.219-.09-.607-.088-.607.366-.125.365-.124-.121.827-.122.828h.322l.3-.794.3-.794h.808l.15.243.15.242-.248.65-.247.65-1.276.025zm.973-.354l.264-.163v-1.058l-.264.163-.265.164v1.058zm-10.451-8.868l-.53-.003.354-.224.354-.225-.09-.607-.088-.607.313-.107.313-.107-.049.941-.048.941-.53-.003zm1.45-.079l-.657.05.463-.135.463-.134v-.491h-.63l.514-.418.513-.419-.476.151-.477.151.161-.262.162-.261h.756l-.069.86-.068.86zM8.171 10.588l-.651.078-.189-.188-.188-.189V8.908l.422-.603.423-.603.702.08.702.082-.133.26-.132.26-.446-.075-.447-.076-.301.564-.302.564.156.406.156.406.541-.141.541-.142-.102.31-.101.31zm3.13.05l-.47.004-.153-.397-.152-.397H9.229l.164-.264.163-.265h.837l.321.44.322.44.435-.167.435-.167v-.546h-.794V8.79h.794v-.586l-.419.161-.419.16.11-.33.11-.331h1.28l-.092 1.19-.091 1.191-.306.195-.305.194zm37.086-.05l-.65.078-.19-.188-.188-.189V8.908l.423-.603.422-.603.702.08.702.082-.132.26-.132.26-.447-.075-.446-.076-.302.564-.301.564.156.406.156.406.54-.141.542-.142-.102.31-.102.31zm3.35.054h-.848l.264-1.455.264-1.455h1.732l.164.264.163.265-.207.33-.208.331.079.48.079.478-.317.381-.316.381zm.266-.57l.472-.091.118-.356.119-.356-.472.091-.471.092-.119.356-.118.356zm.251-1.282h.397v-.529h-.794v.529zm-2.132 1.058h-.677l.163-.264.164-.265H50.8v.529zM30.397 2.915l-.651.079-.189-.189-.188-.189V1.235l.422-.603.423-.603.702.08.702.082-.133.26-.132.26-.446-.075L30.46.56l-.301.564-.302.564.156.406.156.406.541-.141.541-.142-.102.31-.101.31z" fill="#fd6060"/><path d="M28.488 61.707h-.352l.264-1.455.264-1.455h.74l-.168.529-.167.529h.3l.529-.53.53-.528h1.258l.326.393.326.394-.162.646-.162.646-.43.43-.43.43-.688-.08-.688-.081-.294-.594-.295-.594-.175.175-.174.175v.97zm2.018-.53h.344l.318-.317.317-.317v-1.217h-1.001l-.16.418-.161.419V61.178zm-.343-3.174h-.138l-.277-.463-.278-.463-.601-.992-.602-.993h.58l.525.86.524.86.001-8.268v-8.268h-.238l-4.788.926-4.79.926-.449.038-.45.038-3.44 3.567-3.439 3.567 1.125-.169 1.124-.168v.493l-.728.144-.727.145-.992.17-.993.171v-.492l.408-1.37.407-1.372h.508v.136l-.263.92-.264.92 3.439-3.432 3.438-3.43v-.417l-3.603-5.021-3.604-5.021H8.104l-3.474.002.86.524.86.524v.567l-1.125-.686-1.124-.685-.397-.256-.397-.255.397-.255.397-.256 1.124-.685 1.125-.686v.567l-.86.524-.86.524 3.474.001 3.474.001 3.554-4.96 3.553-4.962.168-.282.169-.283-3.584-3.554-3.585-3.554.138.53.138.529.17.595.172.595h-.544l-.26-.992-.26-.992-.186-.766-.185-.766.766.186.766.185.992.26.992.26v.544l-.53-.15-.528-.15-.596-.159-.595-.159 2.75 2.782 2.75 2.782.374-.143.373-.143-.08-.671-.081-.67.365-.124.366-.123-.121.828-.122.827h.408l.469-.793.468-.794h.604l-.028.793-.028.793-.265.029-.264.028-.397.06-.397.058-.789.046-.788.045.824.824.824.825.89-.279.891-.278 4.3-1.351 4.299-1.351-.001-5.611-.001-5.611-.524.86-.525.86h-.567l.686-1.125.686-1.125.255-.396.256-.397.255.397.255.396.686 1.125.686 1.124h-.567l-.525-.86-.524-.86.005 5.69.005 5.688 3.345 2.778 3.344 2.778.305.184.305.184 5.007-5.012 5.007-5.013-.921.265-.921.264h-.136v-.509l1.37-.407 1.372-.407h.492l-.171.992-.17.992-.145.728-.144.727h-.494l.166-1.124.166-1.125-5.054 5.022-5.054 5.02.327.297.327.297 4.407 3.48 4.406 3.48 4.06-.002h4.06l-.86-.525-.86-.524v-.567l1.125.685 1.125.686.397.255.397.256-.397.255-.397.256-1.125.685-1.124.686v-.567l.86-.524.86-.525H51.62l-4.075-.002-5.411 2.947-5.412 2.947 5.77 5.775 5.77 5.774.074-.074.074-.073-.256-.891-.255-.891.127-.128.128-.128.15.151.152.15.394 1.51.394 1.51-.12.119-.12.12-1.509-.395-1.509-.394-.15-.15-.151-.151.127-.128.128-.128.891.256.891.255.074-.073.074-.074-5.877-5.843-5.877-5.844-2.845 1.198-2.844 1.197.001 8.362.001 8.362.524-.86.525-.86h.58l-.602.993-.601.992-.278.463-.277.463zM19.843 41.81l.398-.136 4.828-.898 4.829-.898v-8.197l-5.084 5.025-5.083 5.024-.142.108-.142.109zm-.56-.477h.17l4.889-4.895 4.89-4.894H12.14l.2.33.202.331 3.285 4.564 3.286 4.564zm13.787-2.74l2.643-1.096.003-.138.003-.137-2.646-2.636-2.646-2.636v7.74zM36.66 37l.284-.109 4.876-2.673 4.877-2.672H30.833l2.773 2.781 2.772 2.782zm-15.84-5.984h8.676l-5.025-5.083-5.024-5.084v-.101l-3.44 4.776-3.44 4.776-.21.358-.212.358zm17.923 0h8.175l-4.475-3.562-4.475-3.562-.136-.01-.136-.008-3.565 3.571-3.564 3.572zM29.837 24.1l.07-6.392-.111-.112-.112-.112-4.93 1.527-4.931 1.527 4.971 4.977 4.972 4.977zm.66 6.122h.07l3.385-3.393 3.385-3.393-3.124-2.641-3.124-2.642-.331-.2-.33-.198V30.222zM19.945 18.05h.132l.164-.265.163-.264h-.264l-.164.264-.163.265zM6.263 54.563H5.91l.264-1.455.264-1.455h.74l-.168.53-.167.528h.3l.529-.529.53-.53H9.46l.326.394.326.394-.162.646-.162.647-.43.43-.43.43-.688-.081-.688-.08-.294-.595-.295-.593-.175.174-.174.175v.97zm2.018-.529h.344l.318-.317.317-.318v-1.217H8.26l-.16.419-.161.418V54.034zm4.132.525l-.419.004-.176-.176-.176-.176v-.351l.568.02.569.022.115-.33.115-.332h-.838v-.529h.794v-.586l-.42.161-.418.161.11-.33.11-.332h1.28l-.092 1.19-.092 1.191-.305.195-.306.194-.419.004zm34.596.004h-.352l.264-1.455.263-1.455h.741l-.168.529-.168.53h.3l.53-.53.529-.53h1.259l.326.394.326.394-.162.646-.162.647-.43.43-.43.429-.688-.08-.688-.081-.295-.594-.294-.593-.175.174-.175.175v.97zm2.018-.529h.344l.318-.317.317-.318v-1.217h-1.001l-.161.419-.16.418V54.034zm4.035.53h-.849l.264-1.456.264-1.455h1.732l.163.264.164.265-.207.33-.208.331.079.48.079.478-.316.381-.317.381zm.265-.57l.472-.092.118-.356.119-.356-.472.091-.471.092-.119.356-.118.356zm.251-1.283h.397v-.529h-.794v.529zM10.7 53.77h-.677l.163-.265.164-.265H11.377v.53zm40.746 0h-.677l.163-.265.164-.265H52.123v.53zm-36.762-9.374l-1.323.12.354-.231.354-.232-.09-.607-.088-.607.365-.125.366-.124-.121.827-.122.828h.408l.469-.794.469-.794h.603l-.028.793-.028.793-.132.017-.133.016-1.323.12zm.763-.416h.132l.164-.265.163-.264h-.264l-.164.264-.163.265zm11.85.53h-.486l-.17-.17-.168-.17.184-.293.184-.294.007-.397.007-.397.632-.09.633-.088-.166.618-.165.619-.004.33-.004.331zm-.045-.265h.265v-.53h-.529v.53zm.176-.882l.177-.177-.177-.176-.176-.177v.706zm8.843-2.072l-.626.09.166-.619.165-.619.004-.33.004-.331h1.052l-.069.86-.069.86zm-.039-.221h.28v-.53h-.233l-.163.265-.164.265zm.133-.794h.116l.164-.265.163-.264h-.56v.529zM49.08 33.92l-.529-.003.354-.225.353-.224-.089-.607-.089-.607.313-.107.313-.107-.048.941-.049.941-.529-.003zm1.675-.05l-.435.084-.159-.257-.159-.257.26-.684.26-.683.602.016.602.017-.661.288-.662.288.478.115.478.114-.084.438-.084.437-.436.084zm-.103-.21h.117l.163-.264.164-.265h-.56v.529zM.772 32.6l-.42.004-.176-.177L0 32.25v-.351l.569.021.568.021.115-.33.115-.331H.529v-.529h.794v-.586l-.42.16-.418.161.11-.33.11-.331h1.28l-.092 1.19-.091 1.19-.306.195-.305.195-.42.004zm58.11.004h-.848l.264-1.455.263-1.456h1.733l.163.265.164.265-.208.33-.207.331.079.479.079.479-.317.38-.316.382zm.266-.57l.472-.092.118-.356.119-.356-.472.092-.471.091-.119.356-.118.356zm.251-1.282h.397v-.529h-.794v.529zm-52.388-.535l-.529-.003.354-.224.353-.224-.089-.607-.088-.607.313-.107.313-.107-.049.941-.048.941-.53-.003zm1.413.005h-.222l.008-.198.008-.199.396-.523.395-.523-.47-.186-.47-.186.75-.018.75-.019-.097.199-.097.198-.365.728-.365.727h-.222zm32.672-6.393l-1.276.026.353-.22.354-.219-.09-.607-.088-.607.366-.125.365-.124-.121.827-.122.828h.322l.3-.794.3-.794h.808l.15.243.15.242-.248.65-.247.65-1.276.025zm.973-.354l.264-.163v-1.058l-.264.163-.265.164v1.058zm-10.451-8.868l-.53-.003.354-.224.354-.225-.09-.607-.088-.607.313-.107.313-.107-.049.941-.048.941-.53-.003zm1.45-.079l-.657.05.463-.135.463-.134v-.491h-.63l.514-.418.513-.419-.476.151-.477.151.161-.262.162-.261h.756l-.069.86-.068.86zM8.171 10.588l-.651.078-.189-.188-.188-.189V8.908l.422-.603.423-.603.702.08.702.082-.133.26-.132.26-.446-.075-.447-.076-.301.564-.302.564.156.406.156.406.541-.141.541-.142-.102.31-.101.31zm3.13.05l-.47.004-.153-.397-.152-.397H9.229l.164-.264.163-.265h.837l.321.44.322.44.435-.167.435-.167v-.546h-.794V8.79h.794v-.586l-.419.161-.419.16.11-.33.11-.331h1.28l-.092 1.19-.091 1.191-.306.195-.305.194zm37.086-.05l-.65.078-.19-.188-.188-.189V8.908l.423-.603.422-.603.702.08.702.082-.132.26-.132.26-.447-.075-.446-.076-.302.564-.301.564.156.406.156.406.54-.141.542-.142-.102.31-.102.31zm3.35.054h-.848l.264-1.455.264-1.455h1.732l.164.264.163.265-.207.33-.208.331.079.48.079.478-.317.381-.316.381zm.266-.57l.472-.091.118-.356.119-.356-.472.091-.471.092-.119.356-.118.356zm.251-1.282h.397v-.529h-.794v.529zm-2.132 1.058h-.677l.163-.264.164-.265H50.8v.529zM30.397 2.915l-.651.079-.189-.189-.188-.189V1.235l.422-.603.423-.603.702.08.702.082-.133.26-.132.26-.446-.075L30.46.56l-.301.564-.302.564.156.406.156.406.541-.141.541-.142-.102.31-.101.31z" fill="#8e8e8e"/><path d="M28.538 61.597l-.3.187.182-1.03.183-1.031.136-.463.136-.463h.444l-.138.529-.139.529h.509l.48-.53.478-.528h1.222l.274.512.274.511-.237.624-.237.623-.41.34-.41.34-.61-.086-.61-.086-.084-.596-.084-.595h-.757V61.411zm2.16-.42h.504l.295-.549.294-.55-.145-.376-.144-.376h-1.088l-.26.683-.26.684.15.243.15.242zm-.535-3.439h-.215l-.71-1.211-.71-1.211.136-.137.137-.136.482.885.483.884.07-8.176.07-8.176-.097-.097-.098-.097-4.814.93-4.815.932h-.893l-3.575 3.506-3.576 3.505 3.51-3.58 3.511-3.58-3.739-5.217-3.738-5.217h-6.82v.251l.819.423.818.423-.136.136-.136.136-1.212-.71-1.21-.71v-.428l1.21-.71 1.212-.71.136.136.136.136-.818.423-.819.423v.251h6.816l3.554-4.96 3.553-4.962.216-.36.216-.359-3.54-3.609-3.539-3.609 3.623 3.552 3.622 3.553 1.14-.332 1.14-.33 4.168-1.315 4.167-1.314V5.88h-.251l-.423.818-.424.819-.136-.136-.136-.137.71-1.211.71-1.211h.429l.71 1.211.71 1.211-.137.137-.136.136-.423-.819-.423-.818h-.251l.006 5.622.006 5.623 3.345 2.778 3.344 2.778.387.23.386.23 5.06-4.993 5.062-4.992-5.021 5.09-5.021 5.09.39.36.391.36 4.416 3.487 4.415 3.486 4.051-.073 4.052-.073-.885-.482-.884-.483.136-.136.136-.136 1.211.71 1.212.71v.428l-1.212.71-1.211.71-.136-.136-.136-.136.884-.483.885-.482-4.062-.073-4.062-.074-5.397 2.94-5.397 2.939v.349l5.755 5.82 5.754 5.82-5.97-5.888-5.97-5.888-2.886 1.209-2.885 1.208-.078.078-.078.078.07 8.309.07 8.308.483-.884.482-.885.136.136.137.137-.71 1.21-.71 1.212zm-10.2-15.961l.278-.102 4.828-.898 4.829-.898v-8.462l-5.226 5.157-5.225 5.157 5.024-5.093 5.025-5.093H12.14l.199.33.2.331 3.034 4.233 3.035 4.234.54.603.538.603zm12.64-3.004l2.19-.93.644-.25.645-.252-2.761-2.832-2.762-2.832 2.832 2.76 2.83 2.76.61-.283.608-.283 4.63-2.546 4.63-2.545-8.07.068-8.07.069-.073 4.013-.072 4.013zm-11.65-7.82l8.813-.07.07-6.68.071-6.681h-.358l-4.787 1.485-4.786 1.484-.12.113-.12.112 5.015 5.084 5.015 5.083-5.16-5.08-5.16-5.08-3.439 4.788-3.44 4.788-.213.362-.213.362zm17.657.062h8.308l-4.475-3.562-4.475-3.562-.269-.01-.268-.008-3.564 3.572-3.565 3.571zm-4.743-3.836l3.44-3.432v-.337l-3.11-2.629-3.108-2.628-.331-.2-.33-.198v12.856zM6.313 54.454l-.3.186.182-1.03.183-1.031.136-.463.136-.463h.444l-.138.53-.139.528h.509l.48-.529.478-.529h1.222l.274.512.274.512-.237.623-.237.624-.41.34-.41.34-.61-.086-.61-.087-.084-.595-.084-.596h-.757v1.028zm2.16-.42h.504l.295-.55.294-.55-.145-.376-.144-.376H8.189l-.26.684-.26.683.15.243.15.242zm3.974.53h-.453l-.176-.177-.176-.176v-.368l.661.126.662.127v-.856h-.794v-.467l.595-.197.595-.196-.599-.118-.599-.118.152-.245.152-.246h.996l.163.265.164.264-.208.33-.207.332.079.478.078.48-.316.38-.316.381zm34.612-.11l-.301.186.183-1.03.183-1.031.136-.463.136-.463h.444l-.138.53-.139.528h.509l.48-.529.478-.529h1.222l.274.512.274.512-.237.623-.237.624-.41.34-.41.34-.61-.086-.61-.087-.084-.595-.085-.596h-.757v1.028zm2.16-.42h.504l.294-.55.295-.55-.145-.376-.144-.376h-1.088l-.26.684-.26.683.15.243.15.242zm3.9.53h-.79l.175-.993.176-.992.141-.478.141-.479.705.082.705.081.057 1.042.058 1.042-.289.347-.288.347zm.327-.53h.529v-.794h-1.058v.794zm.117-1.323h.38l.164-.264.164-.265h-1.09v.529zM10.7 53.77h-.381v-.53h1.089l-.163.265-.164.265zm40.746 0h-.381v-.53h1.089l-.163.265-.164.265zm-2.432-3.471l-.198-.032-1.588-.487-1.587-.487 1.323.056 1.322.055-.057-1.323-.058-1.323.512 1.72.51 1.72.01.066.009.066-.199-.031zm-37.058-.401l-.877.16.155-.488.155-.489.386-1.161.385-1.162-.132.957-.132.956.152.399.153.398 1.242-.093 1.241-.092-.926.227-.926.227zm1.935-5.393l-.53-.004.342-.217.342-.217.234-.771.233-.772-.046.992-.046.992-.53-.004zm2.07-.261l-.218.2-.331-.122-.33-.121v-.469l.396.152.397.153v-.881l-.33.198-.331.198.396-.492.397-.492.087.738.087.738zm11.17.225l-.479.093.187-.754.186-.754.223-.228.223-.229.264.164.264.163-.194.727-.194.726zm.121-.224h.265v-.53h-.529v.53zm.117-.794h.116l.164-.265.164-.264h-.56v.529zm8.725-2.117h-.433l.18-.727.18-.728.246-.251.246-.252.274.275.274.274-.268.705-.267.704zm.154-.264h.265v-.53h-.53v.53zm.265-.794h.264v-.529h-.529v.529zm12.567-6.372l-.529-.02.33-.133.332-.134V32.074h.436l-.02.925-.02.925-.529-.02zm1.65-.028l-.46.089v-1.256l.318-.318.318-.317h.524l-.513.388-.514.389.483.008.482.008-.089.46-.088.46-.46.088zm.07-.215h.265v-.529h-.53v.529zM.806 32.603H.353l-.177-.176L0 32.25v-.367l.662.126.661.126v-.855H.529v-.467l.596-.197.595-.197-.6-.117-.599-.118.152-.246.152-.245h.996l.163.264.164.265-.207.33-.208.331.079.479.079.479-.317.38-.316.382zm58.134 0h-.79l.175-.992.176-.992.141-.479.141-.478.705.081.705.082.057 1.042.058 1.041-.289.348-.288.347zm.327-.53h.529v-.793h-1.058v.794zm.116-1.322h.382l.163-.265.164-.264h-1.09v.529zM7.012 30.2l-.53-.021.331-.133.33-.134V28.37h.437l-.02.925-.02.925-.529-.02zm1.578-.376l-.444.529.425-.718.425-.719v-.244l-.463-.121-.463-.121.737-.03.737-.031-.255.463-.254.463zm31.759-5.958l-.53-.004.343-.217.342-.217.233-.77.233-.772-.046.992-.046.991-.529-.004zm1.654-.044l-.463.088v-.552l.397.152.396.153v-1.38h-.49l-.111.331-.111.33.028-.393.029-.394.478-.092.479-.092-.085.88-.084.881zm-23.614-5.247l-.53-.004.342-.217.342-.217.233-.772.234-.77-.046.99-.046.993zm2.07-.261l-.218.199-.331-.121-.33-.122v-.468l.396.152.397.153v-.882l-.33.199-.331.198.396-.492.397-.492.087.738.087.738zm-8.391-2.645h-.099l-.308-1.257-.308-1.257-.141-.473-.142-.474.749.184.749.183 1.058.332 1.058.333-1.322-.043-1.323-.042.064 1.257.064 1.257zm36.47-1.588l-.363 1.72.088-1.242.087-1.241-.398-.153-.398-.153-.957.135-.956.134 1.576-.515 1.576-.515.054.055.053.055zm-16.92.508l-.53-.02.331-.134.331-.133v-1.544h.437l-.02.926-.02.925-.53-.02zm1.45-.047l-.656.063.655-.275.655-.276-.355-.219-.354-.219.36-.144.361-.144-.396-.281-.397-.28.46-.005.46-.004-.07.86-.068.86-.656.064zM8.29 10.589l-.532.08-.331-.4-.331-.399.177-.806.177-.807.49-.262.49-.263h.829v.529h-.993l-.319.384-.319.385.096.475.097.476.594-.022.594-.021-.094.286-.094.286zm3.098.054h-.453l-.176-.177-.177-.176v-.368l.662.127.661.126V9.32h-.793v-.468l.595-.196.595-.197-.6-.118-.598-.117.152-.246.151-.246h.996l.164.265.163.264-.207.331-.208.33.08.48.078.478-.316.382-.316.38zm37.118-.054l-.531.08-.331-.4-.331-.399.177-.806.177-.807.49-.262.49-.263h.829v.529h-.993l-.32.384-.318.385.096.475.096.476.595-.022.594-.021-.094.286-.094.286zm3.29.054h-.791l.176-.993.175-.992.141-.478.141-.479.705.082.705.081.057 1.042.058 1.042-.288.347-.289.348zm.326-.53h.53V9.32h-1.06v.793zm.117-1.322h.38l.164-.265.164-.265h-1.09v.53zM9.906 9.849h-.38V9.32h1.089l-.164.264-.163.265zm40.217 0h-.381V9.32h1.089l-.163.264-.164.265zM30.516 2.916l-.532.08-.331-.4-.331-.398.177-.807.177-.807.49-.262.49-.263h.829v.529h-.993l-.319.385-.319.384.096.475.097.476.594-.022.594-.021-.094.286-.094.286z" fill="#676767"/><path d="M28.651 61.112l-.29.727.15-.926.151-.926.198-.661.199-.662.023.596.022.595h.577l.46-.57.461-.568.707.177.706.177v1.578l-.53.529-.529.53h-1.048l-.166-.662-.166-.662h-.634l-.29.728zm1.876.066h.63l.318-.384.319-.384-.091-.473-.091-.473-.473-.09-.473-.092-.384.319-.384.319v1.258zm-24.1-7.21l-.291.728.15-.926.151-.927.198-.661.199-.661.022.595.023.595h.577l.46-.569.461-.569.706.177.707.178v1.577l-.53.53-.529.528H7.683l-.166-.661-.166-.662h-.634zm1.875.066h.63l.318-.384.319-.384-.091-.473-.091-.473-.473-.09-.473-.092-.384.32-.384.318v1.258zm4.101.53h-.497v-.53H12.965v-.794h-.794v-.529H13.23v-.529l-.596-.004-.595-.004.396-.257.397-.256.317-.004.317-.004-.032 1.124-.03 1.125-.253.33-.251.331h-.497zm34.77-.596l-.291.728.15-.927.15-.926.2-.661.198-.661.022.595.023.595h.577l.46-.569.461-.569.706.177.706.177v1.578l-.529.53-.529.528H48.43l-.166-.661-.166-.662h-.634l-.29.728zm1.875.066h.629l.319-.384.319-.384-.091-.473-.091-.473-.473-.09-.473-.092-.384.32-.384.318v1.259zm3.982.53h-.642v-.24l.29-1.35.289-1.352.7.082.7.081.064.53.064.528-.15-.33-.15-.331h-.983l-.163.265-.164.264h.984l.318.318.317.317v.386l-.416.415-.415.416zm.351-.579l.726-.083v-.529l-.561-.08-.562-.08-.164.428-.165.428zm-42.665-.216h-.397v-.529h.794v.529zm40.745 0h-.396v-.529h.793v.529zm-37.328-9.28l-.507-.022.347-.139.348-.139.16.16.16.16-.508-.02zm13.12.02h-.354l.177-.176.176-.177.177.177.176.176zm-11.643-.306h-.661l.33-.134.331-.133.331.133.33.134zm12.055-.223h-.117l-.189-.305-.189-.306.306.189.305.189v.233zm-13.201-.882l-.176.176v-.705l.176.176.176.177zm1.587 0l-.176.176v-.705l.176.176.177.177zm11.466-.176h-.353l.176-.177.177-.176.176.176.176.177zm-7.814-.802l-.538.008-3.891-5.425-3.892-5.425 3.942-5.49 3.943-5.489 5.44-1.692 5.441-1.691.466.369.466.369 4.647 3.836 4.648 3.836 3.74 2.91 3.739 2.911.01.133.01.132-5.614 3.042-5.615 3.042-3.043 1.29-3.043 1.289-5.159 1.018-5.16 1.018-.537.008zm.384-.371l.418-.122L25.4 40.7l4.895-.929 3.09-1.314 3.09-1.314 5.186-2.837 5.186-2.837.109-.175.108-.176-4.519-3.557-4.519-3.556-3.844-3.241-3.844-3.241-.419.002-.418.002-4.985 1.561-4.986 1.562-.346.487-.346.487-3.333 4.621-3.334 4.622v.828l3.327 4.622 3.328 4.621.421.467.421.467zm16.161-.415h-.353l.177-.176.176-.177.176.177.177.176zm.132-.794h-.132v-.264h.265v.264zm.611-.533l-.082-.004-.397-.256-.396-.257.315-.004.315-.004.163.265.164.264-.082-.004zm12.332-6.102l-.507-.021.347-.139.347-.139.16.16.16.16-.507-.021zm1.345.02h-.133v-.264h.265v.265zm-.022-.814l-.507-.02.347-.14.347-.139.16.16.16.16-.507-.02zM.76 32.603H.265v-.529h1.058v-.794H.529v-.529H1.588v-.529l-.596-.004-.595-.004.397-.257.397-.256.316-.004.317-.004-.031 1.124-.031 1.125-.252.33-.252.331H.761zm58.09 0h-.643v-.239l.29-1.35.29-1.352.7.082.7.08.064.53.064.53-.15-.332-.15-.33h-.983l-.163.264-.164.265h.984l.317.317.318.318v.385l-.416.416-.416.416zm.351-.578l.726-.084v-.529l-.561-.08-.562-.08-.164.428-.165.429zm-8.137.313h-.353l.176-.176.177-.176.176.176.176.176zm-43.81-2.137l-.508-.021.347-.14.347-.138.16.16.16.16-.507-.021zm1.08.02h-.133v-.264h.265v.265zm.529-.793H8.73v-.265h.265v.265zm-.022-.815l-.508-.02.348-.14.347-.139.16.16.16.16-.507-.02zm31.75-4.762l-.508-.021.348-.14.347-.138.16.16.16.16zm1.344.02h-.132v-.264h.265v.265zm-1.014-1.41l-.176.176v-.706l.176.177.177.176zm1.28-.177h-.133v-.264h.264v.264zm-23.57-3.725l-.508-.02.347-.14.348-.139.16.16.16.16zm1.476-.285h-.661l.33-.134.331-.133.331.133.33.134zm-1.146-1.105l-.177.176v-.705l.177.176.176.177zm1.587 0l-.176.176v-.705l.176.176.177.177zM31.86 14.59l-.507-.02.347-.14.348-.138.16.16.16.16zm1.213.021h-.353l.177-.176.176-.176.176.176.177.176zm.265-.793h-.353l.176-.177.177-.176.176.176.176.177zm.412-.53h-.117l-.188-.305-.19-.306.306.19.306.188v.233zM8.064 10.643h-.372l-.274-.512-.274-.512.237-.624.237-.623.42-.35.422-.35.466.204.467.203-.53.12-.529.12-.33.268-.331.268v1.258h1.09l-.164.265-.164.265zm3.28 0h-.496v-.53h1.058V9.32h-.793v-.53h1.058v-.529l-.595-.004-.596-.004.397-.256.397-.257.317-.004.316-.004-.03 1.125-.032 1.124-.252.331-.252.33zm36.936 0h-.372l-.274-.512-.274-.512.237-.624.237-.623.422-.35.42-.35.467.204.466.203-.529.12-.529.12-.33.268-.331.268v1.258h1.089l-.163.265-.164.265zm3.427 0h-.642v-.239l.29-1.351.29-1.351.7.081.7.081.063.53.064.529-.15-.331-.15-.33h-.983l-.163.264-.164.264h.984l.318.318.317.317v.386l-.416.416-.415.416zm.351-.578l.726-.084v-.529l-.561-.08-.562-.08-.164.428-.165.428zM9.922 9.849h-.397V9.32h.794v.529zm40.217 0h-.397V9.32h.793v.529zm-19.85-6.88h-.372l-.274-.511-.274-.512.237-.624.237-.623.42-.35.422-.349.466.203.467.203-.53.12-.529.12-.33.268-.331.268V2.44h1.09l-.164.265-.164.265z" fill="#fd0b0b"/><path d="M28.651 61.112l-.29.727.15-.926.151-.926.198-.661.199-.662.023.596.022.595h.577l.46-.57.461-.568.707.177.706.177v1.578l-.53.529-.529.53h-1.048l-.166-.662-.166-.662h-.634l-.29.728zm1.876.066h.63l.318-.384.319-.384-.091-.473-.091-.473-.473-.09-.473-.092-.384.319-.384.319v1.258zm-24.1-7.21l-.291.728.15-.926.151-.927.198-.661.199-.661.022.595.023.595h.577l.46-.569.461-.569.706.177.707.178v1.577l-.53.53-.529.528H7.683l-.166-.661-.166-.662h-.634zm1.875.066h.63l.318-.384.319-.384-.091-.473-.091-.473-.473-.09-.473-.092-.384.32-.384.318v1.258zm4.101.53h-.497v-.53H12.965v-.794h-.794v-.529H13.23v-.529l-.596-.004-.595-.004.396-.257.397-.256.317-.004.317-.004-.032 1.124-.03 1.125-.253.33-.251.331h-.497zm34.77-.596l-.291.728.15-.927.15-.926.2-.661.198-.661.022.595.023.595h.577l.46-.569.461-.569.706.177.706.177v1.578l-.529.53-.529.528H48.43l-.166-.661-.166-.662h-.634l-.29.728zm1.875.066h.629l.319-.384.319-.384-.091-.473-.091-.473-.473-.09-.473-.092-.384.32-.384.318v1.259zm3.982.53h-.642v-.24l.29-1.35.289-1.352.7.082.7.081.064.53.064.528-.15-.33-.15-.331h-.983l-.163.265-.164.264h.984l.318.318.317.317v.386l-.416.415-.415.416zm.351-.579l.726-.083v-.529l-.561-.08-.562-.08-.164.428-.165.428zm-42.665-.216h-.397v-.529h.794v.529zm40.745 0h-.396v-.529h.793v.529zm-37.328-9.28l-.507-.022.347-.139.348-.139.16.16.16.16-.508-.02zm13.12.02h-.354l.177-.176.176-.177.177.177.176.176zm-11.643-.306h-.661l.33-.134.331-.133.331.133.33.134zm12.055-.223h-.117l-.189-.305-.189-.306.306.189.305.189v.233zm-13.201-.882l-.176.176v-.705l.176.176.176.177zm1.587 0l-.176.176v-.705l.176.176.177.177zm11.466-.176h-.353l.176-.177.177-.176.176.176.176.177zm8.731-1.588h-.353l.177-.176.176-.177.176.177.177.176zm.132-.794h-.132v-.264h.265v.264zm.611-.533l-.082-.004-.397-.256-.396-.257.315-.004.315-.004.163.265.164.264-.082-.004zm12.332-6.102l-.507-.021.347-.139.347-.139.16.16.16.16-.507-.021zm1.345.02h-.133v-.264h.265v.265zm-.022-.814l-.507-.02.347-.14.347-.139.16.16.16.16-.507-.02zM.76 32.603H.265v-.529h1.058v-.794H.529v-.529H1.588v-.529l-.596-.004-.595-.004.397-.257.397-.256.316-.004.317-.004-.031 1.124-.031 1.125-.252.33-.252.331H.761zm58.09 0h-.643v-.239l.29-1.35.29-1.352.7.082.7.08.064.53.064.53-.15-.332-.15-.33h-.983l-.163.264-.164.265h.984l.317.317.318.318v.385l-.416.416-.416.416zm.351-.578l.726-.084v-.529l-.561-.08-.562-.08-.164.428-.165.429zm-8.137.313h-.353l.176-.176.177-.176.176.176.176.176zm-43.81-2.137l-.508-.021.347-.14.347-.138.16.16.16.16-.507-.021zm1.08.02h-.133v-.264h.265v.265zm.529-.793H8.73v-.265h.265v.265zm-.022-.815l-.508-.02.348-.14.347-.139.16.16.16.16-.507-.02zm31.75-4.762l-.508-.021.348-.14.347-.138.16.16.16.16zm1.344.02h-.132v-.264h.265v.265zm-1.014-1.41l-.176.176v-.706l.176.177.177.176zm1.28-.177h-.133v-.264h.264v.264zm-23.57-3.725l-.508-.02.347-.14.348-.139.16.16.16.16zm1.476-.285h-.661l.33-.134.331-.133.331.133.33.134zm-1.146-1.105l-.177.176v-.705l.177.176.176.177zm1.587 0l-.176.176v-.705l.176.176.177.177zM31.86 14.59l-.507-.02.347-.14.348-.138.16.16.16.16zm1.213.021h-.353l.177-.176.176-.176.176.176.177.176zm.265-.793h-.353l.176-.177.177-.176.176.176.176.177zm.412-.53h-.117l-.188-.305-.19-.306.306.19.306.188v.233zM8.064 10.643h-.372l-.274-.512-.274-.512.237-.624.237-.623.42-.35.422-.35.466.204.467.203-.53.12-.529.12-.33.268-.331.268v1.258h1.09l-.164.265-.164.265zm3.28 0h-.496v-.53h1.058V9.32h-.793v-.53h1.058v-.529l-.595-.004-.596-.004.397-.256.397-.257.317-.004.316-.004-.03 1.125-.032 1.124-.252.331-.252.33zm36.936 0h-.372l-.274-.512-.274-.512.237-.624.237-.623.422-.35.42-.35.467.204.466.203-.529.12-.529.12-.33.268-.331.268v1.258h1.089l-.163.265-.164.265zm3.427 0h-.642v-.239l.29-1.351.29-1.351.7.081.7.081.063.53.064.529-.15-.331-.15-.33h-.983l-.163.264-.164.264h.984l.318.318.317.317v.386l-.416.416-.415.416zm.351-.578l.726-.084v-.529l-.561-.08-.562-.08-.164.428-.165.428zM9.922 9.849h-.397V9.32h.794v.529zm40.217 0h-.397V9.32h.793v.529zm-19.85-6.88h-.372l-.274-.511-.274-.512.237-.624.237-.623.42-.35.422-.349.466.203.467.203-.53.12-.529.12-.33.268-.331.268V2.44h1.09l-.164.265-.164.265z" fill="#080808"/></svg>