<svg xmlns="http://www.w3.org/2000/svg" width="229.291" height="233.724" viewBox="0 0 60.666691 61.839581"><path d="M28.42 61.707h-.41l.136-.463.136-.463.176-.992.176-.992h.735v1.176l.412-.588.412-.588h1.249l.419.16.418.161V60.65l-.529.53-.53.528H29.678l-.241-.725-.242-.726-.182.726-.182.725zm2.087-.529h.343l.318-.317.317-.318v-.921l-.276-.17-.276-.172-.385.32-.385.32v1.258zm-.344-2.92h-.133l-.871-1.492-.872-1.49.24-.24.24-.24.56.876.562.876.004-6.772.004-6.773-3.216-.173-3.217-.173h-4.555l-3.303 3.318-3.304 3.318 1.125-.177 1.124-.176v.565l-.207.129-.208.128-1.609.182-1.608.182.421-1.618.422-1.617h.715l-.177.86-.178.86 3.362-3.34 3.36-3.338-.569-4.466-.57-4.467-.142-.728-.143-.727-6.263.004-6.263.004.876.56.877.562-.24.24-.24.24-1.491-.872-1.491-.871v-.265l1.49-.872 1.492-.871.24.24.24.24-.877.56-.876.562h12.7l2.086-3.862 2.086-3.862-4.826-4.799-4.826-4.798.172.992.173.992h-.717l-.41-1.713-.41-1.714.101-.1.102-.102 1.713.41 1.713.41v.716l-.992-.173-.992-.173 3.965 3.998 3.966 3.997h.606l.138-.529.139-.53h-.511l.163-.264.164-.264h.78l-.063.926-.063.926h-1.07l.695.695.695.695 3.859-2.084 3.859-2.084v-12.7l-.562.876-.561.876-.24-.24-.24-.24.872-1.49.871-1.492h.265l.872 1.491.871 1.491-.24.24-.24.24-.56-.876-.562-.876-.004 6.283-.004 6.284.198-.007.199-.007 6.065-.37 6.064-.37 2.27-2.293 2.27-2.292-.86.178-.86.177v-.715l1.618-.421 1.617-.422-.182 1.609-.182 1.608-.128.208-.129.208h-.565l.176-1.125.176-1.124-2.255 2.249-2.254 2.249-.801 5.953-.801 5.953-.135.595-.134.596 6.818-.004 6.818-.004-.876-.562-.877-.56.24-.24.24-.24 1.491.871 1.492.872v.264l-1.492.872-1.49.872-.24-.24-.24-.24.876-.561.876-.561-6.879-.002-6.88-.002-.67 1.254-.67 1.255-1.24 2.26-1.238 2.26 5.167 5.148 5.168 5.148-.185-1.026-.185-1.026.36.12.358.12.37 1.514.37 1.514-.152.151-.151.152-1.514-.37-1.515-.37-.12-.359-.12-.36 1.027.186 1.026.185-5.148-5.168-5.148-5.167-2.26 1.239-2.26 1.239-1.255.67-1.254.67.002 6.88.001 6.88.562-.877.56-.877.24.24.24.24-.871 1.491-.872 1.492h-.132zM26.92 42.08l2.977.048V31.682l-5.032 5.025-5.032 5.024 2.056.15 2.055.15zm3.672-.216h.166l3.006-1.654 3.006-1.654.003-.136.003-.137-3.175-3.166-3.175-3.167v9.914zm-11.02-.794h.144l4.757-4.763 4.757-4.762H18.187l.137.86.136.86.484 3.902.483 3.903zm17.73-3.178l.136-.003 1.653-3.006 1.654-3.006v-.332h-9.914L34 34.72l3.167 3.175.136-.003zm-13.296-6.876h5.487l-3.56-3.567-3.56-3.568-.184.194-.185.194-1.742 3.196-1.742 3.197v.354zm11.863 0h5.306l.806-6.02.805-6.019-.04-.056-.041-.056-6.071 6.075-6.071 6.076zm-6.033-5.856l.072-5.334-.123-.123-.123-.123-2.33 1.259-2.33 1.259-1.148.661-1.148.662 3.53 3.537 3.529 3.537zm6.401-.617l5.811-5.806-.065-.065-.065-.065-5.15.27-5.151.27-.596.119-.595.118V30.35zM6.195 54.563h-.41l.136-.462.136-.463.176-.993.176-.992h.735v1.176l.412-.588.412-.588h1.249l.419.16.418.161v1.267h1.323v.564l-.727-.084-.728-.083-.463.463-.463.463H7.452l-.241-.726-.242-.726-.182.726-.182.726zm2.087-.529h.343l.318-.317.317-.318v-.92l-.276-.172-.276-.17-.385.32-.385.32v1.258zm4.121.53h-.761v-.83l.529.168.529.168v-.829h-.794v-.53H12.965v-.564l-.53.168-.529.168v-.509l.419-.16.418-.16h.987l-.031 1.124-.031 1.124-.252.33-.252.332zm34.538 0h-.41l.136-.463.136-.463.176-.993.176-.992h.735v1.176l.412-.588.411-.588h1.25l.419.16.418.161v1.267h1.323v.564l-.728-.084-.727-.083-.463.463-.463.463h-1.544l-.242-.726-.241-.726-.183.726-.182.726zm2.086-.53h.344l.318-.317.317-.318v-.92l-.276-.172-.276-.17-.385.32-.386.32v1.258zm4.003.53h-.907v-.239l.286-1.336.287-1.336H54.521l.162.424.163.423-.331.205-.332.205.293.18.293.182v.46l-.416.416-.416.416zm.298-.577l.41-.085.053-.242.052-.243-.298-.1-.298-.099-.164.427-.164.428zm.235-1.276h.412v-.529h-.498l-.163.265-.164.264zm-26.528-5.557l-1.408.001.416-.416.415-.416v-.491h-.56l.164-.264.163-.265h.99l-.227.794-.228.793h1.06l-.086-.722-.085-.723.445-.087.446-.087-.049.94-.048.942h-1.408zm-12.54-2.649l-1.398-.004.284-.194.284-.194.17-.463.171-.463h-.543l.163-.265.164-.265h.822l-.116.794-.117.794H15.61v-.529h-.744l.139-.53.138-.529.697.031.696.03-.463.122-.463.12v.447l.313.104.312.104-.172.447-.171.447zm22.018-2.118l-.662-.003.354-.224.353-.224-.089-.625-.089-.625.446-.089.445-.089-.049.941-.048.941-.662-.003zm1.678-.045l-.57.081-.16-.258-.158-.257.26-.684.26-.683h1.104l-.083.86-.082.86zm.069-.55l.16-.16-.14-.347-.138-.348-.021.508-.021.507.16-.16zm4.615-7.87l-.674-.004.284-.194.284-.195.17-.463.171-.463h-.543l.163-.264.164-.265h.779L43.61 33l-.062.926-.673-.004zm1.575 0l-.661-.004.353-.224.354-.224-.09-.625-.088-.625.417-.084.417-.083-.02.936-.02.936-.662-.003zM.761 32.602H0v-.829l.53.168.528.168v-.83H.265v-.529h1.058v-.565l-.53.168-.528.168v-.508l.418-.16.419-.161h.987l-.032 1.124-.031 1.125-.252.33-.251.331zm58.09 0h-.907v-.238l.286-1.336.287-1.336H60.342l.162.423.163.424-.332.205-.331.204.293.181.293.181v.46l-.416.416-.416.416zm.298-.576l.41-.085.052-.243.053-.242-.299-.1-.298-.1-.164.428-.164.427zm.234-1.276h.413v-.529h-.498l-.164.264-.163.265zm-45.228-.552l-1.587.015.353-.224.354-.224-.09-.626-.088-.625.49-.097.489-.097-.18.818-.18.818h.507l.363-.44.363-.44-.332-.111-.333-.112.15-.242.15-.242h1.026v.729l-.422.35-.423.351.489.192.489.193-1.588.014zm8.6-8.713l-.662-.003.353-.224.354-.224-.09-.626-.088-.625.417-.083.417-.083-.02.936-.02.935zm23.812-2.976l-1.456.062.354-.224.354-.224-.09-.625-.088-.626.489-.097.49-.097-.194.88-.193.879.416-.345.415-.345-.144-.375-.144-.376.425-.163.424-.162.414.158.413.16-.208.332-.208.332-.007.397-.007.397zm.926-.194h.132v-.265h-.265v.265zm-15.034-1.873l-1.54.02.415-.415.416-.416v-.491h-.56l.163-.265.164-.265h.99l-.228.794-.227.794h.41l.438-.484.437-.484v-.386l-.264.163-.265.164v-.56H33.835l.174.28.174.282-.439.485-.439.485.347.139.347.139-1.54.02zm-24.412-5.8h-.62l-.274-.512-.274-.512.237-.624.237-.623.41-.34.41-.34.59.086.588.087.123.372.123.373-.466-.179-.467-.179-.363.302-.364.301v1.259h.756l.397-.397.397-.397h.87l.396.397.397.397h.492V9.32h-.794V8.79h1.058v-.565l-.529.168-.53.168v-.509l.42-.16.418-.16h.987l-.031 1.124-.032 1.124-.251.33-.252.332H10.583v-.794H9.325l-.33.397-.329.397zm40.216 0h-.62l-.273-.512-.274-.512.237-.624.237-.623.41-.34.41-.34.589.086.589.087.123.372.123.373-.467-.179-.466-.179-.363.302-.364.301v1.259h.756l.397-.397.397-.397H50.8v.529h-1.258l-.33.397-.329.397zm3.444 0H50.8v-.239l.287-1.336.286-1.336H53.198l.162.424.163.423-.331.205-.332.205.293.181.293.181v.46l-.416.416-.416.416zm.299-.576l.41-.086.052-.242.052-.243-.298-.1-.298-.099-.164.428-.164.427zm.234-1.276h.412v-.53h-.498l-.163.265-.164.265zM30.272 2.97h-.62l-.274-.512-.274-.512.237-.623.237-.624.41-.34.41-.34.59.086.588.087.123.373.123.373-.466-.18-.467-.178-.363.301-.363.302v1.315l.707-.178.708-.177-.343.413-.344.414z" fill="#cfcfcf"/><path d="M28.488 61.707h-.352l.264-1.455.264-1.455h.74l-.167.529-.168.53h.3l.529-.53.53-.53h1.258l.326.394.326.394-.162.646-.162.647-.43.43-.43.429-.688-.08-.688-.081-.294-.594-.295-.593-.175.174-.174.175v.97zm2.019-.529h.343l.318-.317.317-.318v-1.217h-1.001l-.16.419-.161.418V61.178zm-.344-3.175h-.138l-.277-.463-.278-.463-.601-.992-.602-.992h.58l.525.86.524.86.001-6.905v-6.905l-3.216-.173-3.216-.173H18.91l-3.304 3.338-3.303 3.338 1.125-.166 1.124-.166v.493l-.728.145-.727.144-.992.17-.993.172v-.492l.408-1.371.407-1.371h.508v.135l-.264.924-.265.923 3.475-3.475 3.475-3.475-.587-4.594-.586-4.594-.14-.595-.138-.595h-6.387l-6.388.002.86.524.86.524v.567l-1.124-.685L4.1 31.79l-.397-.256-.397-.255.397-.255.397-.256 1.125-.685 1.124-.686v.567l-.86.524-.86.525 6.482-.003 6.483-.003 2.086-3.863 2.086-3.862-4.956-4.93-4.955-4.932.136.53.137.528.17.596.172.595h-.544l-.26-.992-.26-.992-.186-.766-.185-.766.766.185.766.185.992.26.992.26v.545l-.53-.15-.528-.15-.596-.158-.595-.158 4.93 4.955 4.93 4.954 3.867-2.085 3.867-2.084V12.23l-.001-6.482-.525.86-.524.86h-.567l.686-1.125.686-1.124.255-.397.255-.397.256.397.255.397.686 1.124.685 1.125h-.567l-.524-.86-.524-.86-.001 6.416v6.416l.198-.007.198-.007 6.065-.37 6.064-.37 2.4-2.4 2.4-2.401-.922.265-.922.264h-.136v-.509l1.37-.407 1.372-.407h.492l-.171.992-.17.993-.145.727-.144.728h-.494l.166-1.125.165-1.124-2.28 2.251-2.279 2.251-.786 5.819-.787 5.818-.132.728-.133.728 6.94-.001 6.938-.001-.86-.525-.86-.524V29.4l1.124.686 1.125.685.397.256.397.255-.397.256-.397.255-1.125.686-1.124.685v-.567l.86-.524.86-.524-7.012.007-7.011.007-1.928 3.486-1.929 3.487 5.327 5.303 5.327 5.302-.136-.529-.137-.53-.17-.594-.172-.596h.544l.26.992.26.993.186.766.185.765-.766-.185-.766-.185-.992-.26-.992-.26v-.545l.463.13.463.129.661.178.662.179-5.302-5.326-5.301-5.326-3.492 1.927-3.492 1.927-.003 7.012-.003 7.011.525-.86.524-.86h.58l-.601.993-.602.992-.277.463-.278.463zM26.789 42.08l3.109.048V31.682l-5.032 5.025-5.032 5.024 1.923.151 1.923.15zm3.804-.216h.166l3.006-1.654 3.006-1.654.003-.136.003-.137-3.175-3.166-3.175-3.167v9.914zm-11.022-.794h.146l4.757-4.763 4.757-4.762H18.189l.15.992.149.992.468 3.77.468 3.77zm17.731-3.178l.137-.003 1.653-3.006 1.654-3.006v-.332h-9.914L34 34.72l3.167 3.175.136-.003zm-13.295-6.876h5.487l-3.56-3.567-3.56-3.568-.184.194-.185.194-1.742 3.196-1.742 3.197v.354zm11.86 0h5.305l.813-6.02.813-6.019-.046-.056-.046-.056-6.071 6.075-6.071 6.076zm-6.03-5.856l.072-5.334-.123-.123-.123-.123-2.33 1.259-2.33 1.259-1.148.661-1.148.662 3.53 3.537 3.529 3.537zm6.401-.617l5.811-5.806-.065-.065-.065-.065-5.15.27-5.151.27-.596.119-.595.118V30.35zM6.263 54.563H5.91l.264-1.455.264-1.455h.74l-.167.53-.168.528h.3l.529-.529.53-.529H9.46l.326.394.326.393-.162.646-.162.647-.43.43-.43.43-.688-.081-.688-.08-.294-.594-.295-.594-.175.175-.174.174v.971zm2.019-.529h.343l.318-.317.317-.318v-1.217H8.26l-.16.419-.161.418V54.034zm4.131.525l-.419.004-.176-.176-.176-.176v-.351l.568.021.569.021.115-.33.115-.331h-.838v-.53h.794v-.585l-.42.16-.418.161.11-.33.11-.332h1.28l-.092 1.191-.092 1.19-.305.195-.306.194-.419.004zm34.596.004h-.352l.264-1.455.263-1.455h.741l-.168.53-.168.528h.3l.53-.529.529-.529h1.259l.326.394.326.393-.162.646-.162.647-.43.43-.43.43-.688-.081-.688-.08-.295-.595-.294-.593-.175.175-.175.174v.971zm2.018-.529h.344l.318-.317.317-.318v-1.217h-1.001l-.161.419-.16.418V54.034zm4.035.53h-.849l.264-1.456.264-1.455h1.732l.164.265.163.264-.207.331-.208.33.079.48.079.478-.316.381-.317.381zm.265-.57l.472-.092.118-.356.119-.356-.472.091-.471.092-.119.356-.118.356zm.251-1.283h.397v-.529h-.794v.529zM10.7 53.77h-.677l.164-.265.163-.264H11.377v.529zm40.746 0h-.677l.163-.265.164-.264H52.123v.529zm-25.12-6.62l-.53-.003.354-.224.354-.224-.089-.607-.089-.608.313-.106.313-.107-.048.94-.049.942-.529-.003zm1.455 0l-.661-.003.284-.194.284-.195.17-.463.171-.463h-.544l.164-.264.164-.265h.63v1.852l-.662-.004zm-13.857-2.642l-.495.001.313-.377.313-.378-.082-.455-.082-.455.313-.11.313-.11-.049.942-.048.94-.496.002zm1.34-.03l-.58-.03.463-.121.463-.121v-.491h-.529v-1.058l.596.03.595.032-.463.12-.463.122v.3l.437.319.437.32-.188.305-.188.304zm21.249-2.09l-.662-.003.284-.195.284-.194.17-.463.172-.463h-.544l.163-.265.164-.264h.63v1.852l-.661-.004zm1.402.005h-.344v-1.016l.16-.418.161-.419h1.002v1.218l-.318.317-.317.318zm.154-.265h.234l.153-.584.152-.584-.136-.136-.136-.136-.246.39-.246.388-.004.331-.004.331h.233zm4.96-8.203h-.496l.313-.377.313-.377-.082-.455-.082-.455.313-.11.313-.11-.049.941-.048.941-.496.001zm1.553-.024l-.793.017.353-.224.354-.225-.09-.607-.088-.607.365-.124.366-.125-.12.821-.12.821.283.118.284.118-.794.017zM.772 32.599l-.42.004-.176-.177L0 32.25V31.9l.569.021.568.021.115-.33.115-.331H.53v-.529h.794v-.586l-.419.16-.419.162.11-.331.11-.331h1.28l-.092 1.19-.091 1.191-.306.194-.305.195-.42.004zm58.11.004h-.848l.264-1.455.263-1.456h1.733l.163.265.164.265-.208.33-.207.331.079.479.079.479-.317.38-.316.382zm.266-.57l.472-.092.118-.356.119-.356-.472.092-.471.091-.119.356-.118.356zm.251-1.282h.397v-.529h-.794v.529zm-45.376-.554l-1.455.016.284-.194.284-.194.17-.463.171-.463h-.544l.164-.265.163-.264h.671l-.116.793-.117.794h.508l.493-.545.494-.546-.387-.244-.386-.244.447-.004.448-.004.173.28.174.282-.439.485-.439.485.347.14.347.138-1.455.017zm7.31-8.708l-.496.001.313-.377.314-.377-.083-.456-.082-.455.313-.11.313-.11-.048.942-.049.94-.495.002zm1.554-.024l-.794.017.353-.224.354-.224-.09-.607-.088-.607.366-.125.365-.124-.12.82-.12.822.283.118.284.118-.794.016zm22.886-2.89l-.661-.003.283-.195.284-.194.171-.463.17-.463h-.543l.164-.265.163-.264h.63v1.852l-.661-.004zm1.61-.038l-.626.09.166-.62.166-.618.004-.33.004-.331h1.052l-.07.86-.068.86zm-.038-.222h.28v-.529h-.233l-.164.265-.163.264zm.132-.793h.117l.163-.265.164-.265h-.56v.53zm-15.86-1.064l-.528-.003.353-.224.354-.224-.09-.607-.088-.607.313-.107.313-.107-.049.94-.048.942-.53-.003zm1.613-.016l-.768.021.397-.463.398-.463.216-.375.216-.376-.507.193-.506.193.313-.316.313-.315.443.17.444.17-.42.64-.418.638.324.131.324.132-.769.02zM8.172 10.588l-.651.079-.189-.189-.188-.188V8.909l.422-.604.423-.603.702.081.702.081-.133.26-.132.26-.446-.075-.447-.075-.301.563-.302.564.156.406.156.406.541-.141.541-.142-.102.31-.101.31zm3.13.05l-.47.004-.153-.396-.152-.397H9.229l.164-.265.163-.265h.837l.321.44.322.44.435-.167.435-.167V9.32h-.793V8.79h.793v-.585l-.419.16-.419.161.11-.33.11-.332h1.28l-.092 1.19-.091 1.192-.306.194-.305.194zm37.086-.05l-.65.079-.189-.189-.189-.188V8.909l.423-.604.422-.603.702.081.702.081-.132.26-.132.26-.447-.075-.446-.075-.301.563-.302.564.156.406.156.406.54-.141.542-.142-.102.31-.102.31zm3.35.054h-.848l.264-1.455.264-1.455h1.732l.164.265.163.264-.207.331-.208.33.079.48.079.478-.316.381-.317.381zm.266-.57l.472-.09.118-.357.119-.356-.472.091-.471.092-.119.356-.118.356zm.251-1.282h.397v-.529h-.794v.529zM50.123 9.85h-.677l.163-.265.164-.264H50.8v.529zM30.397 2.916l-.651.078-.189-.189-.188-.188V1.236l.422-.604.423-.603.702.081.702.081-.133.26-.132.26-.446-.075-.447-.075-.301.563-.302.564.156.406.156.406.541-.141.541-.142-.102.31-.101.31z" fill="#fda7a7"/><path d="M28.488 61.707h-.352l.264-1.455.264-1.455h.74l-.167.529-.168.53h.3l.529-.53.53-.53h1.258l.326.394.326.394-.162.646-.162.647-.43.43-.43.429-.688-.08-.688-.081-.294-.594-.295-.593-.175.174-.174.175v.97zm2.019-.529h.343l.318-.317.317-.318v-1.217h-1.001l-.16.419-.161.418V61.178zm-.344-3.175h-.138l-.277-.463-.278-.463-.601-.992-.602-.992h.58l.525.86.524.86.001-6.921.001-6.92-2.447-.15-2.448-.15-2.947-.107-2.948-.106-3.402 3.437-3.403 3.437 1.125-.166 1.124-.166v.493l-.728.145-.727.144-.992.17-.993.172v-.492l.408-1.371.407-1.371h.508v.135l-.263.92-.264.92 3.439-3.431 3.438-3.432-.012-.797-.012-.798-.593-4.365-.593-4.366-6.472-.068-6.473-.068.86.527.86.527v.567l-1.125-.685-1.124-.686-.397-.255-.397-.256.397-.255.397-.256 1.124-.685 1.125-.686v.567l-.86.524-.86.525h6.501l6.502.002 2.031-3.72 2.032-3.72v-.371l-4.921-4.892-4.92-4.892.136.529.138.53.17.594.172.596h-.544l-.26-.993-.26-.992-.186-.766-.185-.765.766.185.766.185.992.26.992.26v.545l-.53-.15-.528-.15-.596-.159-.595-.158 4.892 4.92 4.892 4.921h.371l3.72-2.031 3.72-2.032-.001-6.5-.001-6.502-.525.86-.524.86h-.567l.686-1.125.686-1.124.255-.397.255-.397.256.397.255.397.686 1.124.685 1.125h-.567l-.524-.86-.524-.86-.001 6.455-.001 6.455 2.447-.168 2.448-.168 3.749-.175 3.749-.176 2.462-2.472 2.462-2.472-.918.263-.917.263h-.136v-.509l1.37-.407 1.372-.407h.492l-.17.992-.172.992-.144.728-.144.728h-.494l.166-1.125.165-1.124-2.324 2.296-2.325 2.297-.868 6.302-.867 6.303-.013.198-.013.199 6.945-.001 6.946-.001-.86-.525-.86-.524v-.567l1.124.686 1.125.685.397.256.397.255-.397.255-.397.256-1.125.685-1.124.686v-.567l.86-.524.86-.524-7.027-.001-7.028-.001-1.932 3.475-1.932 3.475 5.346 5.322 5.347 5.322-.136-.529-.137-.529-.171-.595-.171-.596h.544l.26.993.26.992.186.766.185.766-.766-.186-.766-.185-.992-.26-.992-.26v-.545l.463.13.463.129.661.178.662.179-5.323-5.347-5.322-5.347-3.475 1.933-3.475 1.932.001 7.027.001 7.027.524-.86.525-.86h.58l-.602.993-.601.992-.278.463-.277.463zm-.596-15.652l.331.042V31.682l-5.017 5.013-5.018 5.012.113.112.113.113 4.574.188 4.574.189zm1.985-.824l1.124-.65 2.05-1.119 2.051-1.117v-.358l-3.175-3.166-3.175-3.167v10.228zm-7.29-5.007l4.848-4.843-5.333-.072-5.333-.071-.128.128-.129.128.614 4.786.613 4.786zm13.082 1.375h.179l1.118-2.05 1.118-2.051.65-1.125.652-1.124H30.832L34 34.72l3.167 3.175zm-13.455-6.88h5.605l-3.565-3.571-3.564-3.572h-.294l-.704 1.389-.703 1.389-1.19 2.183-1.19 2.183zm12.03 0h5.356v-.396l.796-5.797.797-5.796-.081-.08-.081-.081-6.071 6.075-6.071 6.076zm-6.078-3.302l.075-2.783-.075-2.733-.075-2.733-3.308 1.8-3.307 1.801-.264.11-.265.108 3.572 3.607 3.572 3.606zm6.397-3.17l5.811-5.806-.101-.101-.101-.102-4.66.288-4.661.287h-2.099v11.24zM6.263 54.563H5.91l.264-1.455.264-1.455h.74l-.167.53-.168.528h.3l.529-.529.53-.529H9.46l.326.394.326.393-.162.646-.162.647-.43.43-.43.43-.688-.081-.688-.08-.294-.594-.295-.594-.175.175-.174.174v.971zm2.019-.529h.343l.318-.317.317-.318v-1.217H8.26l-.16.419-.161.418V54.034zm4.131.525l-.419.004-.176-.176-.176-.176v-.351l.568.021.569.021.115-.33.115-.331h-.838v-.53h.794v-.585l-.42.16-.418.161.11-.33.11-.332h1.28l-.092 1.191-.092 1.19-.305.195-.306.194-.419.004zm34.596.004h-.352l.264-1.455.263-1.455h.741l-.168.53-.168.528h.3l.53-.529.529-.529h1.259l.326.394.326.393-.162.646-.162.647-.43.43-.43.43-.688-.081-.688-.08-.295-.595-.294-.593-.175.175-.175.174v.971zm2.018-.529h.344l.318-.317.317-.318v-1.217h-1.001l-.161.419-.16.418V54.034zm4.035.53h-.849l.264-1.456.264-1.455h1.732l.164.265.163.264-.207.331-.208.33.079.48.079.478-.316.381-.317.381zm.265-.57l.472-.092.118-.356.119-.356-.472.091-.471.092-.119.356-.118.356zm.251-1.283h.397v-.529h-.794v.529zM10.7 53.77h-.677l.164-.265.163-.264H11.377v.529zm40.746 0h-.677l.163-.265.164-.264H52.123v.529zm-25.12-6.62l-.53-.003.354-.224.354-.224-.089-.607-.089-.608.313-.106.313-.107-.048.94-.049.942-.529-.003zm1.455 0l-.661-.003.284-.194.284-.195.17-.463.171-.463h-.544l.164-.264.164-.265h.63v1.852l-.662-.004zm-13.857-2.642l-.495.001.313-.377.313-.378-.082-.455-.082-.455.313-.11.313-.11-.049.942-.048.94-.496.002zm1.34-.03l-.58-.03.463-.121.463-.121v-.491h-.529v-1.058l.596.03.595.032-.463.12-.463.122v.3l.437.319.437.32-.188.305-.188.304zm21.249-2.09l-.662-.003.284-.195.284-.194.17-.463.172-.463h-.544l.163-.265.164-.264h.63v1.852l-.661-.004zm1.402.005h-.344v-1.016l.16-.418.161-.419h1.002v1.218l-.318.317-.317.318zm.154-.265h.234l.153-.584.152-.584-.136-.136-.136-.136-.246.39-.246.388-.004.331-.004.331h.233zm4.96-8.203h-.496l.313-.377.313-.377-.082-.455-.082-.455.313-.11.313-.11-.049.941-.048.941-.496.001zm1.553-.024l-.793.017.353-.224.354-.225-.09-.607-.088-.607.365-.124.366-.125-.12.821-.12.821.283.118.284.118-.794.017zM.772 32.599l-.42.004-.176-.177L0 32.25V31.9l.569.021.568.021.115-.33.115-.331H.53v-.529h.794v-.586l-.419.16-.419.162.11-.331.11-.331h1.28l-.092 1.19-.091 1.191-.306.194-.305.195-.42.004zm58.11.004h-.848l.264-1.455.263-1.456h1.733l.163.265.164.265-.208.33-.207.331.079.479.079.479-.317.38-.316.382zm.266-.57l.472-.092.118-.356.119-.356-.472.092-.471.091-.119.356-.118.356zm.251-1.282h.397v-.529h-.794v.529zm-45.376-.554l-1.455.016.284-.194.284-.194.17-.463.171-.463h-.544l.164-.265.163-.264h.671l-.116.793-.117.794h.508l.493-.545.494-.546-.387-.244-.386-.244.447-.004.448-.004.173.28.174.282-.439.485-.439.485.347.14.347.138-1.455.017zm7.31-8.708l-.496.001.313-.377.314-.377-.083-.456-.082-.455.313-.11.313-.11-.048.942-.049.94-.495.002zm1.554-.024l-.794.017.353-.224.354-.224-.09-.607-.088-.607.366-.125.365-.124-.12.82-.12.822.283.118.284.118-.794.016zm22.886-2.89l-.661-.003.283-.195.284-.194.171-.463.17-.463h-.543l.164-.265.163-.264h.63v1.852l-.661-.004zm1.61-.038l-.626.09.166-.62.166-.618.004-.33.004-.331h1.052l-.07.86-.068.86zm-.038-.222h.28v-.529h-.233l-.164.265-.163.264zm.132-.793h.117l.163-.265.164-.265h-.56v.53zm-15.86-1.064l-.528-.003.353-.224.354-.224-.09-.607-.088-.607.313-.107.313-.107-.049.94-.048.942-.53-.003zm1.613-.016l-.768.021.397-.463.398-.463.216-.375.216-.376-.507.193-.506.193.313-.316.313-.315.443.17.444.17-.42.64-.418.638.324.131.324.132-.769.02zM8.172 10.588l-.651.079-.189-.189-.188-.188V8.909l.422-.604.423-.603.702.081.702.081-.133.26-.132.26-.446-.075-.447-.075-.301.563-.302.564.156.406.156.406.541-.141.541-.142-.102.31-.101.31zm3.13.05l-.47.004-.153-.396-.152-.397H9.229l.164-.265.163-.265h.837l.321.44.322.44.435-.167.435-.167V9.32h-.793V8.79h.793v-.585l-.419.16-.419.161.11-.33.11-.332h1.28l-.092 1.19-.091 1.192-.306.194-.305.194zm37.086-.05l-.65.079-.189-.189-.189-.188V8.909l.423-.604.422-.603.702.081.702.081-.132.26-.132.26-.447-.075-.446-.075-.301.563-.302.564.156.406.156.406.54-.141.542-.142-.102.31-.102.31zm3.35.054h-.848l.264-1.455.264-1.455h1.732l.164.265.163.264-.207.331-.208.33.079.48.079.478-.316.381-.317.381zm.266-.57l.472-.09.118-.357.119-.356-.472.091-.471.092-.119.356-.118.356zm.251-1.282h.397v-.529h-.794v.529zM50.123 9.85h-.677l.163-.265.164-.264H50.8v.529zM30.397 2.916l-.651.078-.189-.189-.188-.188V1.236l.422-.604.423-.603.702.081.702.081-.133.26-.132.26-.446-.075-.447-.075-.301.563-.302.564.156.406.156.406.541-.141.541-.142-.102.31-.101.31z" fill="#fd6767"/><path d="M28.488 61.707h-.352l.264-1.455.264-1.455h.74l-.167.529-.168.53h.3l.529-.53.53-.53h1.258l.326.394.326.394-.162.646-.162.647-.43.43-.43.429-.688-.08-.688-.081-.294-.594-.295-.593-.175.174-.174.175v.97zm2.019-.529h.343l.318-.317.317-.318v-1.217h-1.001l-.16.419-.161.418V61.178zm-.344-3.175h-.138l-.277-.463-.278-.463-.601-.992-.602-.992h.58l.525.86.524.86.001-7.038v-7.038l-5.34-.188-5.341-.188-3.456 3.485-3.457 3.485 1.125-.165 1.124-.165v.493l-.728.145-.727.144-.992.17-.993.172v-.492l.408-1.371.407-1.371h.508v.135l-.263.92-.264.92 3.496-3.435 3.496-3.435.072-.02.073-.019-.66-4.981-.658-4.982v-.449h-6.548l-6.549.002.86.524.86.524v.567l-1.125-.685-1.124-.686-.397-.256-.397-.255.397-.255.397-.256 1.124-.685 1.125-.686v.567l-.86.527-.86.527 6.579-.068 6.578-.068 2.05-3.742 2.052-3.743-5.017-4.989-5.018-4.988.138.529.137.53.17.594.172.596h-.544l-.26-.992-.26-.993-.186-.766-.185-.765.766.185.766.185.992.26.992.26v.545l-.53-.15-.528-.15-.596-.159-.595-.158 4.989 5.017 4.988 5.017 3.743-2.05 3.743-2.051.067-6.579.068-6.578-.527.86-.527.86h-.567l.686-1.125.686-1.124.255-.397.255-.397.256.397.255.397.686 1.124.686 1.125h-.567l-.525-.86-.524-.86-.001 6.523-.001 6.523.992-.101.992-.102 5.292-.293 5.292-.292v-.104l2.374-2.437 2.374-2.438-.917.263-.917.263h-.136v-.509l1.37-.407 1.372-.407h.492l-.171.992-.17.992-.145.728-.144.728h-.494l.166-1.125.165-1.124-2.395 2.381-2.394 2.381-.81 5.995-.81 5.994v.844l6.945-.001 6.945-.001-.86-.525-.86-.524v-.567l1.125.686 1.124.685.397.256.397.255-.397.255-.397.256-1.124.685-1.125.686v-.567l.86-.524.86-.524-7.063-.001-7.063-.001-1.508 2.712-1.508 2.712-.42.732-.418.733 5.377 5.353 5.377 5.352-.136-.529-.137-.529-.17-.595-.172-.596h.544l.26.993.26.992.186.766.185.766-.766-.186-.766-.185-.992-.26-.992-.26v-.545l.463.13.463.129.661.178.662.179-5.353-5.377-5.352-5.377-.733.418-.733.42-2.712 1.508-2.712 1.508.001 7.063.001 7.062.524-.86.525-.86h.58l-.602.993-.601.992-.278.463-.277.463zM27.847 42.34l2.051.054V31.682l-5.163 5.157-5.164 5.157 3.113.145 3.113.145zm2.682-.21h.102l3.14-1.752 3.138-1.75.058-.049.057-.048-3.299-3.29-3.298-3.29v10.179zm-6.325-5.543l4.89-4.909-5.458-.072-5.457-.071-.072.072-.072.072.638 4.762.638 4.762.002.147.002.146 4.89-4.909zm13.257 1.498l.048-.057 1.75-3.14 1.751-3.138v-.204H30.831l3.291 3.298 3.29 3.298zm-13.604-7.068h5.642l-3.649-3.638-3.648-3.638-.32.523-.318.523-1.675 3.115-1.674 3.115zm12.062 0h5.356l.02-.066.02-.067.851-6.151.851-6.152h-.026l-6.214 6.218-6.213 6.218zm-6.09-.53h.069V19.332l-3.115 1.675-3.114 1.674-.524.318-.523.318 3.568 3.585 3.568 3.584zm6.541-6.075l5.944-5.939-.057-.037-.056-.038-5.556.342-5.556.342-.331.014-.33.014v11.24zM6.263 54.564H5.91l.264-1.456.264-1.455h.74l-.167.53-.168.528h.3l.529-.529.53-.529H9.46l.326.394.326.393-.162.646-.162.647-.43.43-.43.43-.688-.081-.688-.08-.294-.594-.295-.594-.175.175-.174.174v.971zm2.019-.53h.343l.318-.317.317-.318v-1.217H8.26l-.16.419-.161.418V54.034zm4.131.525l-.419.004-.176-.176-.176-.176v-.351l.568.021.569.021.115-.33.115-.331h-.838v-.53h.794v-.585l-.42.16-.418.161.11-.33.11-.332h1.28l-.092 1.191-.092 1.19-.305.195-.306.194-.419.004zm34.596.004h-.352l.264-1.455.263-1.455h.741l-.168.53-.168.528h.3l.53-.529.529-.529h1.259l.326.394.326.393-.162.646-.162.647-.43.43-.43.43-.688-.081-.688-.08-.295-.595-.294-.593-.175.175-.175.174v.971zm2.018-.529h.344l.318-.317.317-.318v-1.217h-1.001l-.161.419-.16.418V54.034zm4.035.53h-.849l.264-1.456.264-1.455h1.732l.164.265.163.264-.207.331-.208.33.079.48.079.478-.316.381-.317.381zm.265-.57l.472-.092.118-.356.119-.356-.472.091-.471.092-.119.356-.118.356zm.251-1.283h.397v-.529h-.794v.529zM10.7 53.77h-.677l.164-.265.163-.264H11.377v.529zm40.746 0h-.677l.163-.265.164-.264H52.123v.529zm-25.12-6.62l-.53-.003.354-.224.354-.224-.089-.607-.089-.608.313-.106.313-.107-.048.94-.049.942-.529-.003zm1.455 0l-.661-.003.284-.194.284-.195.17-.463.171-.463h-.544l.164-.264.164-.265h.63v1.852l-.662-.004zm-13.857-2.642l-.495.001.313-.377.313-.378-.082-.455-.082-.455.313-.11.313-.11-.049.942-.048.94-.496.002zm1.34-.03l-.58-.03.463-.121.463-.121v-.491h-.529v-1.058l.596.03.595.032-.463.12-.463.122v.3l.437.319.437.32-.188.305-.188.304zm21.249-2.09l-.662-.003.284-.195.284-.194.17-.463.172-.463h-.544l.163-.265.164-.264h.63v1.852l-.661-.004zm1.402.005h-.344v-1.016l.16-.418.161-.419h1.002v1.218l-.318.317-.317.318zm.154-.265h.234l.153-.584.152-.584-.136-.136-.136-.136-.246.39-.246.388-.004.331-.004.331h.233zm4.96-8.203h-.496l.313-.377.313-.377-.082-.455-.082-.455.313-.11.313-.11-.049.941-.048.941-.496.001zm1.553-.024l-.793.017.353-.224.354-.225-.09-.607-.088-.607.365-.124.366-.125-.12.821-.12.821.283.118.284.118-.794.017zM.772 32.599l-.42.004-.176-.177L0 32.25V31.9l.569.021.568.021.115-.33.115-.331H.53v-.529h.794v-.586l-.419.16-.419.162.11-.331.11-.331h1.28l-.092 1.19-.091 1.191-.306.194-.305.195-.42.004zm58.11.004h-.848l.264-1.455.263-1.456h1.733l.163.265.164.265-.208.33-.207.331.079.479.079.479-.317.38-.316.382zm.266-.57l.472-.092.118-.356.119-.356-.472.092-.471.091-.119.356-.118.356zm.251-1.282h.397v-.529h-.794v.529zm-45.376-.554l-1.455.016.284-.194.284-.194.17-.463.171-.463h-.544l.164-.265.163-.264h.671l-.116.793-.117.794h.508l.493-.545.494-.546-.387-.244-.386-.244.447-.004.448-.004.173.28.174.282-.439.485-.439.485.347.14.347.138-1.455.017zm7.31-8.708l-.496.001.313-.377.314-.377-.083-.456-.082-.455.313-.11.313-.11-.048.942-.049.94-.495.002zm1.554-.024l-.794.017.353-.224.354-.224-.09-.607-.088-.607.366-.125.365-.124-.12.82-.12.822.283.118.284.118-.794.016zm22.886-2.89l-.661-.003.283-.195.284-.194.171-.463.17-.463h-.543l.164-.265.163-.264h.63v1.852l-.661-.004zm1.61-.038l-.626.09.166-.62.166-.618.004-.33.004-.331h1.052l-.07.86-.068.86zm-.038-.222h.28v-.529h-.233l-.164.265-.163.264zm.132-.793h.117l.163-.265.164-.265h-.56v.53zm-15.86-1.064l-.528-.003.353-.224.354-.224-.09-.607-.088-.607.313-.107.313-.107-.049.94-.048.942-.53-.003zm1.613-.016l-.768.021.397-.463.398-.463.216-.375.216-.376-.507.193-.506.193.313-.316.313-.315.443.17.444.17-.42.64-.418.638.324.131.324.132-.769.02zM8.172 10.588l-.651.079-.189-.189-.188-.188V8.909l.422-.604.423-.603.702.081.702.081-.133.26-.132.26-.446-.075-.447-.075-.301.563-.302.564.156.406.156.406.541-.141.541-.142-.102.31-.101.31zm3.13.05l-.47.004-.153-.396-.152-.397H9.229l.164-.265.163-.265h.837l.321.44.322.44.435-.167.435-.167V9.32h-.793V8.79h.793v-.585l-.419.16-.419.161.11-.33.11-.332h1.28l-.092 1.19-.091 1.192-.306.194-.305.194zm37.086-.05l-.65.079-.189-.189-.189-.188V8.909l.423-.604.422-.603.702.081.702.081-.132.26-.132.26-.447-.075-.446-.075-.301.563-.302.564.156.406.156.406.54-.141.542-.142-.102.31-.102.31zm3.35.054h-.848l.264-1.455.264-1.455h1.732l.164.265.163.264-.207.331-.208.33.079.48.079.478-.316.381-.317.381zm.266-.57l.472-.09.118-.357.119-.356-.472.091-.471.092-.119.356-.118.356zm.251-1.282h.397v-.529h-.794v.529zM50.123 9.85h-.677l.163-.265.164-.264H50.8v.529zM30.397 2.916l-.651.078-.189-.189-.188-.188V1.236l.422-.604.423-.603.702.081.702.081-.133.26-.132.26-.446-.075-.447-.075-.301.563-.302.564.156.406.156.406.541-.141.541-.142-.102.31-.101.31z" fill="#8e8e8e"/><path d="M28.538 61.598l-.3.186.182-1.03.183-1.031.136-.463.136-.463h.444l-.138.529-.139.53h.509l.48-.53.478-.53h1.222l.274.513.274.512-.237.623-.237.624-.41.34-.41.34-.61-.087-.61-.086-.084-.595-.084-.596h-.757V61.411zm2.16-.42h.504l.295-.55.294-.55-.145-.376-.144-.376h-1.088l-.26.684-.26.683.15.243.15.242zm-.535-3.44h-.215l-.71-1.21-.71-1.212.137-.136.136-.136.423.818.423.818h.251V42.736l-5.468-.19-5.468-.19-3.462 3.392-3.461 3.392 3.504-3.575 3.505-3.574-.68-5.155-.68-5.154-.073-.073-.074-.074-6.455.071-6.456.071.885.483.884.482-.136.136-.136.136-1.211-.71-1.212-.71v-.428l1.212-.71 1.21-.71.137.136.136.136-.884.483-.885.482 6.464.071 6.465.071.193-.203.193-.203 2.012-3.684 2.012-3.684-4.965-5.047-4.966-5.048 5.048 4.966 5.047 4.965 3.684-2.012 3.684-2.012.203-.193.203-.194-.07-6.464-.072-6.464-.482.884-.483.885-.136-.136-.136-.136.71-1.212.71-1.211h.429l.71 1.211.71 1.212-.137.136-.136.136-.482-.885-.483-.884-.07 6.455-.072 6.456.071.047.071.048 6.218-.363 6.218-.364 2.507-2.435 2.507-2.436L45.7 15.57l-2.308 2.413.002.233.002.232-.832 6.16-.832 6.16.129.128.129.129 6.852-.07 6.853-.072-.885-.482-.884-.483.136-.136.136-.136 1.212.71 1.211.71v.429l-1.211.71-1.212.71-.136-.137-.136-.136.884-.482.885-.483-6.994-.07-6.994-.071-.188.203-.189.203-1.747 3.139-1.747 3.14v.595l5.225 5.294 5.226 5.294-5.294-5.225-5.295-5.226h-.596l-3.139 1.748-3.139 1.747-.203.188-.203.19.07 6.993.071 6.994.483-.885.483-.884.136.136.136.136-.71 1.211-.71 1.212zm-2.316-15.402l2.051.057V31.418l-5.226 5.156-5.225 5.157 5.024-5.093 5.025-5.093H17.95l.146.727.146.728.537 4.15.538 4.148.156.407.157.407 3.083.083 3.084.084zm2.677-.208h.107l3.14-1.75 3.138-1.751.12-.11.119-.111-3.294-3.365-3.295-3.364 3.365 3.294 3.364 3.295.11-.12.111-.119 1.75-3.14 1.751-3.138v-.215l-5.225.071-5.226.072-.071 5.226-.072 5.225zM23.99 30.955l5.776-.072.071-5.775.071-5.775-3.222 1.674-3.223 1.674-.95.95-.95.95-1.674 3.222-1.674 3.223zm5.636-.204h-.132l-3.565-3.572-3.564-3.572h.264l3.565 3.572 3.564 3.572zm6.161.265h5.488l.02-.066.02-.067.851-6.151.851-6.152h-.291l-6.213 6.218-6.214 6.218zm.648-6.407l6.008-6.007-.121-.103-.12-.102-5.557.342-5.556.342-.331.014-.33.014v11.508zM6.313 54.454l-.3.186.182-1.03.183-1.03.136-.464.136-.463h.444l-.138.53-.139.528h.509l.48-.529.478-.529h1.222l.274.512.274.512-.237.623-.237.624-.41.34-.41.34-.61-.086-.61-.087-.084-.595-.084-.595h-.757V54.268zm2.16-.42h.504l.295-.55.294-.55-.145-.376-.144-.376H8.19l-.26.684-.26.684.15.242.15.242zm3.974.53h-.453l-.176-.177-.176-.176v-.368l.661.127.662.126v-.855h-.794v-.468l.595-.197.595-.196-.599-.118-.599-.118.152-.245.152-.246h.996l.163.265.164.264-.208.331-.207.33.079.48.078.478-.316.381-.316.382zm34.612-.11l-.3.186.182-1.03.183-1.03.136-.464.136-.463h.444l-.138.53-.139.528h.509l.48-.529.478-.529h1.222l.274.512.274.512-.237.623-.237.624-.41.34-.41.34-.61-.086-.61-.087-.084-.595-.085-.595h-.757V54.268zm2.16-.42h.504l.294-.55.295-.55-.145-.376-.144-.376h-1.088l-.26.684-.26.684.15.242.15.242zm3.9.53h-.79l.175-.993.176-.992.141-.478.141-.479.705.082.705.081.057 1.042.058 1.042-.289.347-.288.347zm.327-.53h.529v-.793h-1.058v.793zm.117-1.323h.38l.164-.264.164-.265h-1.09v.529zM10.7 53.77h-.381v-.529h1.089l-.163.264-.164.265zm40.746 0h-.381v-.529h1.089l-.163.264-.164.265zm-2.432-3.471l-.198-.031-1.588-.487-1.587-.487 1.323.055 1.323.055-.058-1.323-.058-1.323.512 1.72.511 1.72.009.066.009.066-.198-.031zm-37.058-.401l-.877.161.155-.489.155-.489.386-1.161.385-1.162-.132.957-.132.957.152.398.153.398 1.242-.093 1.241-.092-.926.227-.926.227zm14.37-2.764l-.53-.02.332-.134.33-.133v-1.544h.437l-.02.925-.02.926-.529-.02zm1.501.021h-.375l.272-.33.271-.331.128-.662.128-.661-.024.992-.025.992h-.375zM13.891 44.49l-.53-.021.331-.134.331-.133v-1.544h.397v1.852l-.53-.02zm1.224.004l-.43-.017.66-.288.662-.289-.478-.114-.478-.114.084-.438.085-.437.394-.029.393-.028-.33.11-.331.112v.433l.427.164.426.164-.327.394-.326.393-.43-.017zm21.443-2.1h-.375l.272-.331.271-.33.128-.662.128-.662-.024.992-.024.993h-.376zm1.592 0h-.226l-.177-.177-.176-.176v-.906l.408-.338.408-.339.3.3.298.298-.304.669-.305.669zm-.068-.265h.247l.174-.55.175-.548-.14-.139-.138-.139-.282.175-.283.174V42.128zm4.913-8.223l-.53-.02.331-.134.331-.134V32.074h.397v1.852l-.53-.021zm1.323.016l-.53-.004.343-.217.341-.217.234-.77.233-.772-.046.992-.046.991-.53-.004zM.805 32.603H.353l-.177-.176L0 32.25v-.367l.662.126.661.127v-.856H.529v-.467l.596-.197.595-.197-.6-.117-.599-.118.152-.246.152-.245h.996l.163.264.164.265-.208.33-.207.331.079.479.079.479-.317.38-.316.382zm58.135 0h-.79l.175-.992.176-.992.141-.479.141-.478.705.081.705.082.057 1.042.058 1.041-.289.348-.288.347zm.327-.53h.529v-.793h-1.058v.794zm.116-1.322h.382l.163-.265.164-.264h-1.09v.529zm-46.108-.53H12.9l.271-.33.272-.33.128-.662.128-.662-.024.993-.025.992h-.375zm1.608-.02l-.595.02v-.464l.408-.339.41-.34-.137-.354-.136-.354h.425l.177.177.177.177-.39.597-.392.597.324.13.324.132-.595.02zm6.416-8.731l-.53-.021.332-.134.33-.133v-1.544h.397V21.491l-.529-.021zm1.323.016l-.53-.004.343-.217.342-.217.233-.771.233-.771-.046.991-.046.992-.529-.004zm23.197-2.906h-.375l.271-.33.272-.331.128-.662.128-.661-.025.992-.024.992h-.375zm1.387 0h-.432l.18-.727.18-.728.245-.251.246-.252.274.275.275.274-.268.705-.268.704zm.154-.264h.265v-.53h-.529v.53zm.265-.794h.265v-.529h-.53v.529zm-16.007-1.08l-.53-.02.331-.134.331-.133V14.61h.437l-.02.926-.02.925-.53-.02zm1.607.003l-.773.018.634-.675.635-.675-.39-.247-.39-.247.463-.004.463-.004v.729l-.423.351-.422.35.488.193.489.192zm-21.157-.775h-.099l-.308-1.257-.308-1.257-.141-.473-.142-.474.749.184.749.183 1.058.332 1.058.333-1.323-.043-1.322-.042.064 1.257.064 1.257zm36.47-1.588l-.363 1.72.088-1.242.087-1.241-.398-.153-.398-.153-.957.135-.956.134 1.576-.515 1.576-.515.054.055.053.055zM8.29 10.59l-.532.08-.331-.4-.331-.399.177-.806.177-.807.49-.263.49-.262h.829v.529h-.993l-.319.384-.319.385.096.475.097.476.594-.022.594-.022-.094.287-.094.286zm3.098.054h-.453l-.176-.177-.177-.176v-.368l.662.127.661.126V9.32h-.793v-.468l.595-.197.595-.196-.6-.118-.598-.118.152-.245.151-.246h.996l.164.265.163.264-.207.331-.208.33.08.48.078.478-.316.381-.316.382zm37.118-.054l-.531.08-.331-.4-.331-.399.177-.806.177-.807.49-.263.49-.262h.829v.529h-.993l-.32.384-.318.385.096.475.096.476.595-.022.594-.022-.094.287-.094.286zm3.29.054h-.791l.176-.993.175-.992.141-.478.141-.479.705.082.705.081.057 1.042.058 1.042-.288.347-.289.348zm.326-.53h.53V9.32h-1.06v.793zm.117-1.323h.38l.164-.264.164-.265h-1.09v.529zM9.906 9.85h-.381V9.32h1.09l-.164.264-.163.265zm40.217 0h-.381V9.32h1.089l-.163.264-.164.265zM30.516 2.916l-.532.08-.331-.4-.331-.398.177-.807.177-.807.49-.262.49-.263h.829v.529h-.993l-.319.385-.319.384.096.475.097.476.594-.022.594-.021-.094.286-.094.286z" fill="#676767"/><path d="M28.651 61.112l-.29.728.15-.926.151-.926.198-.662.199-.661.023.595.022.595h.577l.46-.569.461-.569.707.177.706.178v1.577l-.53.53-.529.528h-1.048l-.166-.661-.166-.662h-.634l-.29.728zm1.876.066h.63l.318-.384.319-.384-.091-.473-.091-.473-.473-.09-.473-.092-.384.32-.384.318v1.258zm-24.1-7.21l-.29.728.15-.926.15-.926.198-.662.199-.661.022.595.023.595h.577l.46-.569.461-.569.707.178.706.177v1.578l-.53.528-.529.53H7.683l-.166-.662-.166-.661h-.634zm1.875.066h.63l.318-.384.319-.384-.091-.473-.091-.472-.473-.091-.473-.091-.384.318-.384.32v1.258zm4.101.53h-.497v-.53H12.965v-.793h-.794v-.53H13.23v-.529l-.596-.004-.595-.004.396-.256.397-.257.317-.004.317-.004-.032 1.125-.03 1.124-.252.33-.252.332h-.497zm34.77-.596l-.291.728.15-.926.15-.926.2-.662.198-.661.022.595.023.595h.577l.46-.569.461-.569.706.177.706.178v1.578l-.529.528-.529.53H48.43l-.166-.662-.166-.661h-.634l-.29.727zm1.875.066h.629l.319-.384.319-.384-.091-.473-.091-.472-.473-.091-.473-.091-.384.318-.384.32v1.258zm3.982.53h-.642v-.24l.29-1.35.29-1.351.7.081.7.081.063.53.064.529-.15-.331-.15-.33h-.983l-.163.264-.164.264h.984l.318.318.317.317v.386l-.416.416-.415.415zm.351-.578l.726-.084v-.529l-.561-.08-.562-.08-.164.428-.165.428zm-42.665-.216h-.397v-.53h.794v.53zm40.746 0h-.397v-.53h.793v.53zm-24.893-6.636l-.507-.02.347-.14.347-.139.16.16.16.16-.507-.02zm1.323 0l-.508-.02.348-.14.347-.139.16.16.16.16-.507-.02zm.314-1.109l-.16.16.02-.507.022-.507.139.347.139.347-.16.16zm-14.337-1.537l-.507-.02.347-.14.347-.138.16.16.16.16-.507-.022zm1.477.021h-.353l.176-.176.177-.177.176.177.177.176zm-1.19-.794h-.133v-.264h.265v.264zm1.3-.02l-.507-.021.347-.14.348-.138.16.16.16.16-.508-.021zm.265-.794l-.507-.021.347-.139.347-.139.16.16.16.16-.507-.021zm14.337-.02l-.028-.041-5.422-.244-5.422-.244-.053-.052-.052-.053-.695-5.273-.695-5.273-.124-.2-.123-.201.623-1.002.624-1.002 1.662-3.082 1.662-3.081 3.082-1.662 3.081-1.662.926-.56.926-.56 1.72-.059 1.72-.058 4.762-.287 4.763-.287.198-.121.199-.122-.005.479-.005.478-.786 5.689-.786 5.689-.002.557-.002.557-1.295 2.25-1.295 2.25-.798 1.516-.798 1.516-1.516.798-1.515.798-2.25 1.295-2.25 1.295-.029-.041zm-1.88-.615l2.381-.037 3.308-1.87 3.307-1.87 1.28-2.205 1.28-2.204.8-1.539.802-1.539.84-6.195.839-6.194-.407-.104-.407-.103-5.916.348-5.915.347-3.455 1.79-3.455 1.79-.948.94-.948.941-1.787 3.557-1.786 3.558.654 4.727.653 4.727.156.49.156.49 3.093.096 3.094.095 2.381-.036zm8.445.106l-.507-.021.347-.14.347-.138.16.16.16.16-.507-.021zm1.477.02h-.353l.177-.176.176-.176.176.176.177.177zm-1.163-1.13l-.16.16.021-.507.02-.507.14.348.139.347-.16.16zm1.428-.457h-.353l.176-.176.177-.177.176.177.176.176zm4.608-6.9l-.507-.02.347-.14.347-.139.16.16.16.16-.507-.021zm1.587 0l-.507-.02.347-.14.348-.139.16.16.16.16-.508-.021zm-1.3-.773h-.133v-.264h.265v.264zM.76 32.603H.265v-.529h1.058v-.794H.529v-.529H1.588v-.529l-.596-.004-.595-.004.397-.257.397-.256.316-.004.317-.004-.031 1.124-.032 1.125-.251.33-.252.331H.761zm44.13-.088l-.176.176v-.705l.176.176.176.176zm13.96.088h-.643v-.239l.29-1.35.29-1.352.7.082.7.08.064.53.064.53-.15-.331-.15-.331h-.983l-.163.264-.164.265h.984l.317.317.318.318v.386l-.416.415-.416.416zm.351-.578l.726-.083v-.53l-.561-.08-.562-.08-.164.428-.165.429zM13.34 30.201l-.507-.021.348-.139.347-.139.16.16.16.16-.508-.021zm1.323 0l-.507-.021.348-.139.347-.139.16.16.16.16-.508-.021zm-1.008-1.11l-.16.16.02-.506.022-.508.139.348.139.347-.16.16zm1.56.072h-.133V28.9h.265v.264zm-.133-.529h-.352l.176-.176.176-.177.177.177.176.176zm6.196-7.164l-.507-.021.347-.14.347-.138.16.16.16.16zm1.587 0l-.507-.021.348-.14.347-.138.16.16.16.16zm-1.3-.773h-.133v-.265h.265v.265zm1.631-.618l-.176.177v-.706l.176.177.177.176zm22.688-1.52l-.507-.02.347-.14.348-.139.16.16.16.16zm1.477.021h-.352l.176-.176.176-.177.177.177.176.176zm.133-.794h-.133v-.264h.265v.264zm-1.296-.336l-.16.16.021-.507.021-.507.14.347.138.347-.16.16zm1.907-.197l-.082-.004-.397-.256-.397-.257.315-.004.315-.004.164.265.163.264-.081-.004zm-16.244-.81l-.507-.021.347-.14.348-.138.16.16.16.16-.508-.022zm1.411 0l-.463.02V16l.41-.34.408-.339-.16-.42-.16-.42.327.324.327.324-.46.508-.46.508.348.139.346.139-.463.02zm-25.207-5.8h-.372l-.274-.512-.274-.512.237-.624.237-.623.42-.35.422-.349.466.203.467.203-.53.12-.529.12-.33.268-.331.268v1.258h1.09l-.164.265-.164.265zm3.28 0h-.496v-.53h1.058V9.32h-.793v-.53h1.058v-.529l-.595-.004-.596-.004.397-.256.397-.257.317-.004.316-.004-.03 1.125-.032 1.124-.252.331-.251.33zm36.936 0h-.372l-.274-.512-.274-.512.237-.624.237-.623.422-.35.42-.349.467.203.466.203-.529.12-.529.12-.33.268-.331.268v1.258h1.089l-.163.265-.164.265zm3.427 0h-.642v-.239l.29-1.351.29-1.351.7.081.7.081.063.53.064.529-.15-.33-.15-.332h-.982l-.164.265-.164.265h.984l.318.317.317.318v.385l-.416.416-.415.416zm.351-.578l.726-.084v-.529l-.561-.08-.562-.08-.164.428-.165.428zM9.922 9.849h-.397V9.32h.794v.529zm40.217 0h-.397V9.32h.793v.529zm-19.85-6.88h-.372l-.274-.511-.274-.512.237-.624.237-.623.42-.35.422-.349.466.203.467.203-.53.12-.529.12-.33.268-.331.268V2.44h1.09l-.164.265-.164.265z" fill="#fc0c0c"/><path d="M28.651 61.112l-.29.728.15-.926.151-.926.198-.662.199-.661.023.595.022.595h.577l.46-.569.461-.569.707.177.706.178v1.577l-.53.53-.529.528h-1.048l-.166-.661-.166-.662h-.634l-.29.728zm1.876.066h.63l.318-.384.319-.384-.091-.473-.091-.473-.473-.09-.473-.092-.384.32-.384.318v1.258zm-24.1-7.21l-.29.728.15-.926.15-.926.198-.662.199-.661.022.595.023.595h.577l.46-.569.461-.569.707.178.706.177v1.578l-.53.528-.529.53H7.683l-.166-.662-.166-.661h-.634zm1.875.066h.63l.318-.384.319-.384-.091-.473-.091-.472-.473-.091-.473-.091-.384.318-.384.32v1.258zm4.101.53h-.497v-.53H12.965v-.793h-.794v-.53H13.23v-.529l-.596-.004-.595-.004.396-.256.397-.257.317-.004.317-.004-.032 1.125-.03 1.124-.252.33-.252.332h-.497zm34.77-.596l-.291.728.15-.926.15-.926.2-.662.198-.661.022.595.023.595h.577l.46-.569.461-.569.706.177.706.178v1.578l-.529.528-.529.53H48.43l-.166-.662-.166-.661h-.634l-.29.727zm1.875.066h.629l.319-.384.319-.384-.091-.473-.091-.472-.473-.091-.473-.091-.384.318-.384.32v1.258zm3.982.53h-.642v-.24l.29-1.35.29-1.351.7.081.7.081.063.53.064.529-.15-.331-.15-.33h-.983l-.163.264-.164.264h.984l.318.318.317.317v.386l-.416.416-.415.415zm.351-.578l.726-.084v-.529l-.561-.08-.562-.08-.164.428-.165.428zm-42.665-.216h-.397v-.53h.794v.53zm40.746 0h-.397v-.53h.793v.53zm-24.893-6.636l-.507-.02.347-.14.347-.139.16.16.16.16-.507-.02zm1.323 0l-.508-.02.348-.14.347-.139.16.16.16.16-.507-.02zm.314-1.109l-.16.16.02-.507.022-.507.139.347.139.347-.16.16zm-14.337-1.537l-.507-.02.347-.14.347-.138.16.16.16.16-.507-.022zm1.477.021h-.353l.176-.176.177-.177.176.177.177.176zm-1.19-.794h-.133v-.264h.265v.264zm1.3-.02l-.507-.021.347-.14.348-.138.16.16.16.16-.508-.021zm.265-.794l-.507-.021.347-.139.347-.139.16.16.16.16-.507-.021zm20.902-.53l-.507-.02.347-.14.347-.138.16.16.16.16-.507-.021zm1.477.022h-.353l.177-.177.176-.176.176.176.177.177zm-1.163-1.13l-.16.16.021-.508.02-.507.14.347.139.348-.16.16zm1.428-.458h-.353l.176-.176.177-.177.176.177.176.176zm4.608-6.9l-.507-.02.347-.14.347-.139.16.16.16.16-.507-.021zm1.587 0l-.507-.02.347-.14.348-.139.16.16.16.16-.508-.021zm-1.3-.773h-.133v-.264h.265v.264zM.76 32.603H.265v-.529h1.058v-.794H.529v-.529H1.588v-.529l-.596-.004-.595-.004.397-.257.397-.256.316-.004.317-.004-.031 1.124-.032 1.125-.251.33-.252.331H.761zm44.13-.088l-.176.176v-.705l.176.176.176.176zm13.96.088h-.643v-.239l.29-1.35.29-1.352.7.082.7.08.064.53.064.53-.15-.332-.15-.33h-.983l-.163.264-.164.265h.984l.317.317.318.318v.385l-.416.416-.416.416zm.351-.578l.726-.084v-.529l-.561-.08-.562-.08-.164.428-.165.429zM13.34 30.201l-.507-.021.348-.139.347-.139.16.16.16.16-.508-.021zm1.323 0l-.507-.021.348-.139.347-.139.16.16.16.16-.508-.021zm-1.008-1.11l-.16.16.02-.507.022-.507.139.348.139.347-.16.16zm1.56.072h-.133V28.9h.265v.264zm-.133-.529h-.352l.176-.176.176-.177.177.177.176.176zm6.196-7.164l-.507-.021.347-.14.347-.138.16.16.16.16zm1.587 0l-.507-.021.348-.14.347-.138.16.16.16.16zm-1.3-.773h-.133v-.265h.265v.265zm1.631-.618l-.176.177v-.706l.176.177.177.176zm22.688-1.52l-.507-.02.347-.14.348-.139.16.16.16.16zm1.477.021h-.352l.176-.176.176-.177.177.177.176.176zm.133-.794h-.133v-.264h.265v.264zm-1.296-.336l-.16.16.021-.507.021-.507.14.347.138.347-.16.16zm1.907-.197l-.082-.004-.397-.256-.397-.257.315-.004.315-.004.164.265.163.264-.081-.004zm-16.244-.81l-.507-.021.347-.14.348-.138.16.16.16.16-.508-.022zm1.411 0l-.463.02V16l.41-.34.408-.339-.16-.42-.16-.421.327.324.327.325-.46.508-.46.508.348.139.346.139-.463.02zm-25.207-5.8h-.372l-.274-.512-.274-.512.237-.624.237-.623.42-.35.422-.35.466.204.467.203-.53.12-.529.12-.33.268-.331.268v1.258h1.09l-.164.265-.164.265zm3.28 0h-.496v-.53h1.058V9.32h-.793v-.53h1.058v-.529l-.595-.004-.596-.004.397-.256.397-.257.317-.004.316-.004-.03 1.125-.032 1.124-.252.331-.251.33zm36.936 0h-.372l-.274-.512-.274-.512.237-.624.237-.623.422-.35.42-.35.467.204.466.203-.529.12-.529.12-.33.268-.331.268v1.258h1.089l-.163.265-.164.265zm3.427 0h-.642v-.239l.29-1.351.29-1.351.7.081.7.081.063.53.064.529-.15-.331-.15-.33h-.982l-.164.264-.164.264h.984l.318.318.317.317v.386l-.416.416-.415.416zm.351-.578l.726-.084v-.529l-.561-.08-.562-.08-.164.428-.165.428zM9.922 9.849h-.397V9.32h.794v.529zm40.217 0h-.397V9.32h.793v.529zm-19.85-6.88h-.372l-.274-.511-.274-.512.237-.624.237-.623.42-.35.422-.349.466.203.467.203-.53.12-.529.12-.33.268-.331.268V2.44h1.09l-.164.265-.164.265z" fill="#090909"/></svg>