<svg xmlns="http://www.w3.org/2000/svg" width="229.291" height="233.724" viewBox="0 0 60.666691 61.83947"><path d="M28.42 61.707h-.41l.136-.463.136-.463.176-.992.176-.992h.735v1.176l.412-.588.412-.588h1.249l.419.16.418.161V60.649l-.529.529-.53.53H29.678l-.241-.726-.242-.726-.182.726-.182.725zm2.087-.529h.343l.318-.317.317-.318v-.921l-.276-.171-.276-.17-.385.32-.385.319v1.258zm-.344-2.92h-.133l-.871-1.492-.872-1.491.24-.24.24-.24.56.876.562.877.004-9.46.004-9.458h-5.958l-5.818 5.83-5.819 5.831 1.125-.176 1.124-.175v.565l-.207.128-.208.129-1.609.182-1.608.182.421-1.618.422-1.617h.715l-.178.86-.177.86 5.713-5.688 5.713-5.686-.067-.191-.066-.191-2.2-2.655-2.2-2.655-7.06.004-7.061.004.876.56.877.562-.24.24-.24.24-1.491-.872-1.491-.872v-.264l1.49-.872 1.492-.872.24.24.24.24-.877.562-.876.56 7.037.005 7.037.004 2.025-3.041 2.025-3.04v-.406l-5.452-5.422-5.453-5.422.173.993.173.992h-.717l-.41-1.714-.41-1.713.101-.1.102-.102 1.713.41 1.713.41v.716l-.992-.173-.992-.172 4.736 4.767 4.736 4.767.372-.142.371-.143-.08-.689-.08-.688.46-.09.46-.09-.163.812-.163.813h.799l.135-.516.135-.517-.303-.114-.303-.114.49-.202.49-.202.173.281.174.28 2.445-4.448 2.446-4.448-.004-3.268-.004-3.268-.561.876-.561.876-.24-.24-.24-.24.872-1.49.871-1.492h.265l.872 1.491.871 1.491-.24.24-.24.24-.56-.876-.562-.876-.004 3.264-.004 3.265 3.595 5.002 3.594 5.002.193.119.193.12 4.746-4.773 4.745-4.772-.86.178-.86.177v-.715l1.618-.421 1.617-.422-.182 1.609-.182 1.609-.128.207-.128.208h-.566l.176-1.125.176-1.124-4.905 4.892-4.904 4.892v.413l2.315 3.694 2.315 3.695H55.43l-.876-.561-.876-.562.24-.24.24-.24 1.49.872 1.492.872v.265l-1.491.871-1.491.872-.24-.24-.24-.24.876-.561.876-.561-6.21-.004-6.209-.004-3.794 2.298-3.793 2.297 6.297 6.302 6.297 6.3h.16l-.18-.96-.18-.96.36.12.359.12.37 1.514.369 1.515-.152.151-.151.151-1.514-.37-1.514-.369-.12-.36-.12-.358 1.026.185 1.026.184-6.348-6.366-6.347-6.367-.4-.003-.398-.003-1.919.449-1.918.448.004 9.543.004 9.543.561-.877.561-.876.24.24.24.24-.871 1.491-.872 1.491h-.132zm-2.84-21.422h2.575V31.81h-.143l-2.503 2.514-2.503 2.513zm4.758-.463l1.653-.404.196-.172.195-.172-1.849-1.834-1.849-1.835v4.821zm-5.438-2.234l2.473-2.462-4.41-.073-4.408-.072-.118.118-.119.118 2.055 2.416 2.055 2.416zm8.336 1.374h.2l3.238-1.984 3.239-1.984H30.837l1.971 1.984 1.972 1.984zm-10.317-4.497h4.83L26.6 28.114l-2.892-2.902-.041.058-.041.057-1.897 2.844-1.896 2.845zm11.656 0h5.75v-.253l-2.147-3.38-2.149-3.379-.047-.057-.047-.057-3.556 3.563-3.555 3.562zm-6.49-.53h.07l-.002-8.268-.002-8.268-2.938 5.39-2.938 5.39 2.87 2.878 2.868 2.878zm4.076-3.611l3.477-3.477-3.477-4.826-3.477-4.826v16.606zM23.74 23.703l.337-.462v-.428h-1.944l.634.676.635.676zM6.195 54.563h-.41l.136-.463.136-.463.176-.992.176-.992h.735v1.176l.412-.588.412-.588h1.249l.419.16.418.161v1.267h1.323v.564l-.727-.084-.728-.084-.463.463-.463.463H7.452l-.241-.725-.242-.726-.182.726-.182.725zm2.087-.529h.343l.318-.317.317-.318v-.921l-.276-.17-.276-.171-.385.32-.385.32v1.258zm4.121.53h-.761v-.83l.529.168.529.168v-.829h-.794v-.53H12.965v-.564l-.53.167-.529.168v-.508l.419-.16.418-.161h.987l-.031 1.124-.031 1.125-.252.33-.252.331zm34.538 0h-.41l.136-.464.136-.463.176-.992.176-.992h.735v1.176l.411-.588.412-.588h1.25l.419.16.418.161v1.267h1.323v.564l-.728-.084-.727-.084-.463.463-.463.463h-1.544l-.242-.725-.241-.726-.183.726-.182.725zm2.086-.53h.344l.318-.317.317-.318v-.921l-.276-.17-.276-.171-.385.32-.386.32v1.258zm4.003.53h-.907v-.24l.286-1.335.287-1.336H54.521l.162.424.163.423-.331.205-.332.205.293.18.293.182v.46l-.416.416-.416.415zm.298-.577l.41-.085.053-.243.052-.242-.298-.1-.298-.099-.164.427-.164.428zm.235-1.276h.412v-.529h-.498l-.163.265-.164.264zm-18.71-12.748l-.722.083v-.529l.258-.68.258-.678h1.065l-.068.86-.068.86zm-.06-.216h.132v-.265h-.265v.265zm.264-1.059h.133v-.264h-.265v.264zm-16.272.789l-.661-.003.354-.224.353-.224-.089-.625-.089-.626.445-.088.446-.09-.049.942-.048.94zm1.68-.046l-.571.081-.16-.257-.159-.258.26-.683.26-.684H21.2l-.083.86-.083.86zm.068-.55l.16-.16-.14-.347-.138-.347-.021.507-.021.507.16-.16zm24.388-4.96l-1.397-.003.284-.195.284-.194.17-.463.171-.463h-.543l.163-.265.164-.264h.822l-.116.794-.117.793h1.232v-.529h-.745l.139-.529.138-.53.697.032.697.03-.463.121-.463.121v.447l.312.104.312.104-.172.447-.171.447-1.398-.004zM.761 32.604H0v-.829l.53.168.528.167v-.829H.265v-.529h1.058v-.565l-.53.168-.528.168v-.508l.418-.16.419-.161h.987l-.032 1.124-.031 1.125-.252.33-.251.331zm58.09 0h-.907v-.239l.286-1.336.287-1.335H60.342l.162.423.163.424-.332.205-.331.204.293.181.293.181v.46l-.416.416-.416.416zm.298-.576l.41-.086.052-.242.053-.243-.299-.099-.298-.1-.164.428-.164.427zm.234-1.276h.413v-.529h-.498l-.164.264-.163.265zm-44.095-.533l-1.397-.004.284-.195.283-.194.171-.463.171-.463h-.544l.164-.265.163-.264h.822l-.116.793-.116.794h.935l.15-.242.15-.242-.333-.134-.332-.134.33-.02.331-.022v-.56l-.264.164-.265.163v-.597l.595.084.596.085-.08.53-.078.528-.111.331-.112.33-1.397-.003zm25.981-6.407l-1.45.071.354-.233.354-.234-.09-.625-.088-.625.46-.092.46-.091-.162.813-.163.812h1.125v-.529h-.631l.514-.398.514-.397-.507.178-.506.178.191-.31.191-.31h1.021l-.069.86-.068.86zM8.047 10.643h-.62l-.274-.512-.274-.512.237-.624.237-.623.41-.34.41-.34.59.086.588.087.123.372.123.373-.466-.179-.467-.179-.363.302-.363.301v1.258h.755l.397-.396.397-.397h.87l.396.397.397.396h.492V9.32h-.794V8.79h1.058v-.565l-.529.168-.53.168v-.509l.42-.16.418-.16h.987l-.031 1.124-.032 1.124-.251.33-.252.332H10.583v-.794H9.325l-.33.397-.329.397zm40.216 0h-.62l-.273-.512-.274-.512.237-.624.237-.623.41-.34.41-.34.589.086.589.087.123.372.123.373-.467-.179-.466-.179-.363.302-.364.301v1.258h.756l.397-.396.397-.397H50.8v.529h-1.258l-.33.397-.329.397zm3.444 0H50.8v-.239l.287-1.336.286-1.336H53.198l.162.424.163.423-.331.205-.332.205.293.18.293.182v.46l-.416.416-.416.416zm.299-.577l.41-.085.052-.242.052-.243-.298-.1-.298-.099-.164.427-.164.428zm.234-1.276h.412v-.529h-.498l-.163.265-.164.264zM32.43 10.357l-1.567.021.575-.612.576-.613v-.346l-.44.169-.441.169.191-.31.192-.31H32.544v1.033l-.463.27-.463.27.422.007.422.008.438-.484.438-.483v-.387l-.265.164-.265.163v-.56H33.835l.174.281.174.281-.439.485-.439.485.347.14.347.138-1.568.021zm-2.16-7.387h-.62l-.273-.512-.274-.512.237-.624.237-.623.41-.34.41-.34.59.086.588.087.123.372.123.373-.466-.179-.467-.179-.363.302-.364.301v1.316l.708-.178.708-.177-.343.413-.344.414z" fill="#cfcfcf"/><path d="M28.488 61.707h-.352l.264-1.455.264-1.455h.74l-.167.529-.168.53h.3l.529-.53.53-.53h1.258l.326.394.326.394-.162.646-.162.646-.43.43-.43.43-.688-.08-.688-.081-.294-.594-.295-.594-.175.175-.174.175v.97zm2.018-.529h.344l.318-.317.317-.318v-1.217h-1.001l-.16.418-.161.419V61.178zm-.343-3.175h-.138l-.277-.463-.278-.463-.601-.992-.602-.992h.58l.525.86.524.86.001-9.592v-9.59H23.94l-5.818 5.85-5.819 5.851 1.125-.166 1.124-.165v.493l-.728.145-.727.144-.992.17-.993.171v-.492l.408-1.37.407-1.371h.508v.135l-.264.922-.264.922 5.82-5.816 5.82-5.816v-.301L21.29 34.24l-2.259-2.696h-7.2l-7.2.002.86.524.859.524v.567l-1.124-.685L4.1 31.79l-.397-.256-.397-.255.397-.255.397-.256 1.125-.685 1.124-.686v.567l-.86.524-.86.524 7.187.001 7.187.001 2.121-3.13 2.121-3.129-5.696-5.668-5.696-5.667.138.529.137.529.17.595.172.596h-.544l-.26-.993-.26-.992-.186-.766-.185-.766.766.186.766.185.992.26.992.26v.545l-.53-.15-.528-.15-.596-.159-.595-.158 4.869 4.897 4.868 4.897.372-.143.371-.142-.08-.67-.081-.671.366-.123.365-.123-.12.82-.12.822.283.118.284.117-.773.021-.774.021.625.665.624.665.259-.258.259-.26.052-.472.052-.472.192-.45.193-.45-.16-.26-.16-.259.298-.184.298-.185.18.29.179.29 2.437-4.463 2.437-4.463-.001-3.4-.001-3.4-.524.86-.525.86h-.567l.686-1.124.686-1.125.255-.396.256-.397.255.397.255.396.686 1.125.686 1.124h-.567l-.525-.86-.524-.86v3.416l-.002 3.415 3.618 5.052 3.618 5.051.097.12.097.122 4.95-4.95 4.95-4.95-.924.265-.924.265h-.136v-.509l1.37-.407 1.372-.407h.492l-.17.992-.172.992-.144.728-.144.728h-.494l.166-1.125.166-1.124-4.925 4.892-4.925 4.892v.453l2.315 3.677 2.315 3.676h6.35l6.35.002-.86-.524-.86-.525v-.567l1.125.686 1.124.686.397.255.397.255-.397.256-.397.255-1.124.686-1.125.686v-.567l.86-.525.86-.524-6.35-.001-6.35-.001-3.794 2.29-3.794 2.289 6.438 6.442 6.437 6.442h.172l-.129-.463-.129-.464-.17-.595-.172-.595h.544l.26.992.26.992.186.766.185.766-.766-.185-.766-.185-.992-.26-.992-.26v-.545l.463.129.463.13.661.178.662.18-6.571-6.6-6.572-6.6-2.226.543-2.226.542.001 9.67.001 9.669.524-.86.525-.86h.58l-.602.992-.601.992-.278.463-.277.463zm-2.84-21.167h2.575V31.81h-.143l-2.503 2.514-2.503 2.513zm4.956-.505l1.852-.417v-.282l-1.852-1.838-1.852-1.838v4.792zm-5.64-2.187l2.478-2.467-2.401-.076-2.401-.077-2.205.077-2.206.076 2.128 2.467 2.128 2.467zm8.334 1.37h.193l3.12-1.881 3.121-1.88.11-.104.11-.104h-10.79l1.971 1.984 1.971 1.984zm-10.32-4.498h4.84l-2.883-2.892-2.883-2.892-1.756 2.561-1.756 2.561-.201.33-.201.332zm11.665 0h5.75v-.28l-2.03-3.234-2.03-3.233-.16-.194-.162-.194-3.56 3.567-3.56 3.568zm-6.49-.53h.07l-.002-8.268-.002-8.268-2.946 5.382-2.945 5.382L26.88 27.6l2.877 2.886zm4.08-3.616l3.483-3.482-3.002-4.19-3.002-4.19-.48-.63-.48-.632v16.606zm-9.17-4.85h.133v-.265h-.265v.265zM6.264 54.563H5.91l.264-1.455.264-1.455h.74l-.167.53-.168.528h.3l.529-.529.53-.529H9.46l.326.393.326.394-.162.646-.162.647-.43.43-.43.43-.688-.081-.688-.08-.294-.595-.295-.593-.175.174-.174.175v.97zm2.019-.529h.343l.318-.317.317-.318v-1.217H8.26l-.16.419-.161.418V54.034zm4.131.525l-.419.004-.176-.176-.176-.176v-.351l.568.02.569.022.115-.33.115-.332h-.838v-.529h.794v-.586l-.42.161-.418.161.11-.33.11-.332h1.28l-.092 1.19-.092 1.191-.305.195-.306.194-.419.004zm34.596.004h-.352l.264-1.455.263-1.455h.741l-.168.53-.168.528h.3l.53-.529.529-.529h1.259l.326.393.326.394-.162.646-.162.647-.43.43-.43.43-.688-.081-.688-.08-.295-.595-.294-.593-.175.174-.175.175v.97zm2.018-.529h.344l.318-.317.317-.318v-1.217h-1.001l-.161.419-.16.418V54.034zm4.035.53h-.849l.264-1.456.264-1.455h1.732l.164.265.163.264-.207.33-.208.332.079.478.079.48-.316.38-.317.381zm.265-.57l.472-.092.118-.356.119-.356-.472.091-.471.092-.119.356-.118.356zm.251-1.283h.397v-.529h-.794v.529zM10.7 53.77h-.677l.163-.265.164-.265H11.377v.53zm40.746 0h-.677l.163-.265.164-.265H52.123v.53zM34.969 40.01h-.485l-.17-.169-.168-.17.184-.293.184-.294.007-.397.007-.397.632-.089.633-.09-.166.62-.166.618-.004.33-.004.331zm-.044-.264h.265v-.529h-.53v.529zm.176-.882l.177-.177-.177-.176-.176-.176v.705zm-16.316.613l-.661-.004.284-.194.284-.195.17-.463.171-.463h-.543l.163-.264.164-.265h.63v1.852l-.662-.004zm1.403.004h-.344V38.467l.16-.419.161-.418h1.002v1.217l-.318.318-.317.317zm.154-.265h.234l.152-.583.153-.584-.136-.136-.136-.136-.246.389-.247.389-.004.33-.004.331h.234zm24.01-5.292h-.496l.313-.377.313-.377-.082-.455-.082-.455.313-.11.313-.11-.049.941-.048.941-.495.001zm1.34-.03l-.58-.03.463-.122.463-.12v-.491h-.53v-1.058l.596.03.595.031-.463.121-.463.121v.3l.437.32.438.32-.189.304-.188.305zM.771 32.6l-.42.004-.176-.177L0 32.25V31.9l.569.021.568.021.115-.33.115-.331H.529v-.529h.794v-.586l-.419.16-.419.162.11-.331.11-.331h1.28l-.092 1.19-.091 1.191-.306.194-.305.195-.42.004zm58.11.004h-.848l.264-1.455.263-1.456h1.733l.163.265.164.265-.208.33-.207.331.079.479.079.479-.317.38-.316.382zm.266-.57l.472-.092.118-.356.119-.356-.472.092-.471.091-.119.356-.118.356zm.251-1.282h.397v-.529h-.794v.529zm-44.68-.53h-.496l.313-.377.313-.377-.082-.455-.083-.455.313-.11.314-.11-.049.941-.048.941-.496.001zm1.415-.083l-.656.049.463-.134.463-.135v-.49h-.63l.513-.419.514-.418-.477.15-.476.152.161-.262.162-.261h.756l-.069.86-.069.86zm24.95-6.27l-1.264-.004.353-.225.354-.224-.09-.607-.088-.607.366-.124.365-.125-.121.828-.121.827h1.2l.163-.265.164-.264-.347-.004-.346-.004.397-.26.397-.261-.397-.279-.397-.279.53.09.528.09-.078.52-.08.52-.11.33-.112.33-1.265-.003zM8.173 10.588l-.651.079-.189-.189-.188-.188V8.909l.422-.604.423-.603.702.081.702.081-.133.26-.132.26-.446-.075-.446-.075-.302.563-.302.564.156.406.156.406.541-.141.541-.142-.102.31-.101.31zm3.13.05l-.47.004-.153-.397-.152-.396H9.229l.164-.265.163-.265h.837l.321.44.322.44.435-.167.435-.167V9.32h-.793V8.79h.793v-.586l-.419.161-.419.161.11-.33.11-.332h1.28l-.092 1.19-.091 1.191-.306.195-.305.194zm37.086-.05l-.65.079-.189-.189-.189-.188V8.909l.423-.604.422-.603.702.081.702.081-.132.26-.132.26-.446-.075-.447-.075-.301.563-.302.564.156.406.156.406.54-.141.542-.142-.102.31-.102.31zm3.35.054h-.848l.264-1.455.264-1.455h1.732l.164.265.163.264-.207.33-.208.332.079.478.079.48-.316.38-.317.381zm.266-.57l.472-.091.119-.356.118-.356-.471.091-.472.092-.119.356-.118.356zm.251-1.282h.397v-.529h-.794v.529zm-20.439 1.584l-.595.004v-.355l.452-.5.453-.5-.386-.245-.387-.244.595-.004.596-.004v.729l-.41.34-.409.34.343.217.344.218zm1.414-.017l-.768.02.397-.462.398-.463.216-.376.216-.376-.506.193-.507.193.313-.315.313-.315.443.17.444.17-.42.639-.418.639.324.13.324.132-.769.021zm16.893-.508h-.677l.163-.265.164-.264H50.8v.529zM30.397 2.916l-.651.078-.189-.189-.188-.188V1.236l.422-.604.423-.603.702.081.702.081-.133.26-.132.26-.446-.075-.446-.075-.302.563-.302.564.156.406.156.406.541-.141.541-.142-.102.31-.101.31z" fill="#fda7a7"/><path d="M28.488 61.707h-.352l.264-1.455.264-1.455h.74l-.167.529-.168.53h.3l.529-.53.53-.53h1.258l.326.394.326.394-.162.646-.162.646-.43.43-.43.43-.688-.08-.688-.081-.294-.594-.295-.594-.175.175-.174.175v.97zm2.018-.529h.344l.318-.317.317-.318v-1.217h-1.001l-.16.418-.161.419V61.178zm-.343-3.175h-.138l-.277-.463-.278-.463-.601-.992-.602-.992h.58l.525.86.524.86.001-9.746.001-9.746-2.977.18-2.976.18-5.821 5.825-5.82 5.825 1.124-.165L14.552 49v.493l-.727.145-.728.144-.992.17-.992.171v-.492l.407-1.37.407-1.371h.508v.135l-.264.922-.264.922 5.823-5.818 5.823-5.819-.129-.336-.129-.337-2.056-2.49-2.057-2.491-7.276-.016-7.276-.016.86.524.86.524v.567l-1.125-.685-1.124-.686-.397-.255-.397-.256.397-.255.397-.256 1.124-.685 1.125-.686v.567l-.86.524-.86.525h7.205l7.204.002 2.1-3.134 2.1-3.134-5.693-5.663-5.692-5.664.138.529.137.53.17.594.172.596h-.544l-.26-.992-.26-.993-.186-.766-.185-.765.766.185.766.185.992.26.992.26v.545l-.53-.15-.528-.15-.596-.159-.595-.158 4.869 4.897 4.868 4.897.372-.142.371-.143-.08-.67-.081-.671.366-.123.365-.123-.12.821-.12.821.283.118.284.118-.773.02-.774.021.621.662.622.661h.352l.301-.661.301-.662h-.582l.326-.393.327-.394-.15-.391-.15-.392.282-.175.282-.174.195.315.195.316 2.422-4.428 2.42-4.427V9.21l-.001-3.462-.524.86-.525.86h-.567l.686-1.125.686-1.124.255-.397.256-.397.255.397.255.397.686 1.124.686 1.125h-.567l-.525-.86-.524-.86v3.456l-.002 3.455 3.591 5.011 3.591 5.011.182.067.18.067 4.89-4.895 4.89-4.895-.921.264-.921.264h-.136v-.509l1.37-.407 1.372-.407h.492l-.17.992-.172.992-.144.728-.144.728h-.494l.166-1.125.166-1.124-5.038 5.004-5.037 5.005.947 1.478.947 1.477 1.441 2.315 1.44 2.316 6.39-.001 6.39-.001-.86-.525-.86-.524v-.567l1.125.686 1.124.685.397.256.397.255-.397.255-.397.256-1.124.686-1.125.685v-.567l.86-.524.86-.524-6.402-.001-6.402-.001-3.388 2.022-3.387 2.022-.327.299-.327.298 6.504 6.477 6.504 6.476-.137-.529-.137-.529-.17-.595-.172-.596h.544l.26.993.26.992.186.766.185.766-.766-.186-.766-.185-.992-.26-.992-.26v-.544l.463.129.463.129.661.178.662.179-6.615-6.63-6.614-6.631-2.183.552-2.183.553.001 9.69.001 9.691.524-.86.525-.86h.58l-.602.993-.601.992-.278.463-.277.463zm-2.84-21.167h2.575V31.81h-.143l-2.503 2.514-2.503 2.513zm3.17-.01l.066-.012 1.915-.462 1.915-.461-1.98-1.968-1.982-1.968v4.881l.066-.01zm-6.41-.254h.137l2.503-2.514 2.503-2.513h-9.428l1.385 1.653 1.384 1.654.689.86.689.86zm10.922-1.059h.226l3.154-1.886 3.155-1.886v-.196H30.838l1.97 1.984 1.971 1.984zm-10.353-4.497h4.84l-2.897-2.907-2.897-2.906-.172.194-.172.195-1.576 2.38-1.575 2.382-.195.33-.195.332zm11.784 0h5.87l-2.131-3.374-2.131-3.373-.179-.194-.179-.194-3.56 3.567-3.56 3.568zM29.84 26.39l.072-4.106-.072-4.116-.073-4.116-2.646 4.822-2.646 4.822-.245.5-.246.499 2.891 2.9 2.892 2.901zm4.03.521l3.444-3.435-.114-.297-.114-.297-3.095-4.334-3.095-4.334-.234-.25-.234-.252v16.634zm-9.13-4.891h.132v-.265h-.265v.265zM6.263 54.563H5.91l.264-1.455.264-1.455h.74l-.168.53-.167.528h.3l.529-.529.53-.529H9.46l.326.393.326.394-.162.646-.162.647-.43.43-.43.43-.688-.081-.688-.08-.294-.595-.295-.593-.175.174-.174.175v.97zm2.018-.529h.344l.318-.317.317-.318v-1.217H8.26l-.16.419-.161.418V54.034zm4.132.525l-.419.004-.176-.176-.176-.176v-.351l.568.02.569.022.115-.33.115-.332h-.838v-.529h.794v-.586l-.42.161-.418.161.11-.33.11-.332h1.28l-.092 1.19-.092 1.191-.305.195-.306.194-.419.004zm34.596.004h-.352l.264-1.455.263-1.455h.741l-.168.53-.168.528h.3l.53-.529.529-.529h1.259l.326.393.326.394-.162.646-.162.647-.43.43-.43.43-.688-.081-.688-.08-.295-.595-.294-.593-.175.174-.175.175v.97zm2.018-.529h.344l.318-.317.317-.318v-1.217h-1.001l-.161.419-.16.418V54.034zm4.035.53h-.849l.264-1.456.264-1.455h1.732l.164.265.163.264-.207.33-.208.332.079.478.079.48-.316.38-.317.381zm.265-.57l.472-.092.118-.356.119-.356-.472.091-.471.092-.119.356-.118.356zm.251-1.283h.397v-.529h-.794v.529zM10.7 53.77h-.677l.163-.265.164-.265H11.377v.53zm40.746 0h-.677l.163-.265.164-.265H52.123v.53zM34.969 40.01h-.485l-.17-.169-.168-.17.184-.293.184-.294.007-.397.007-.396.632-.09.633-.09-.166.62-.166.618-.004.33-.004.331zm-.044-.264h.265v-.529h-.53v.529zm.176-.882l.177-.177-.177-.176-.176-.176v.705zm-16.316.613l-.661-.004.284-.194.284-.195.17-.463.171-.463h-.543l.163-.264.164-.265h.63v1.852l-.662-.004zm1.403.004h-.344V38.467l.16-.418.161-.419h1.002v1.217l-.318.318-.317.317zm.154-.265h.234l.152-.583.153-.584-.136-.136-.136-.136-.246.389-.247.389-.004.33-.004.331h.234zm24.01-5.292h-.496l.313-.377.313-.377-.082-.455-.082-.455.313-.11.313-.11-.049.941-.048.941-.495.001zm1.34-.03l-.58-.03.463-.122.463-.12v-.491h-.53v-1.058l.596.03.595.031-.463.121-.463.121v.3l.437.32.438.32-.189.304-.188.305zM.771 32.6l-.42.004-.176-.177L0 32.25V31.9l.569.021.568.021.115-.33.115-.331H.529v-.529h.794v-.586l-.419.16-.419.162.11-.331.11-.331h1.28l-.092 1.19-.091 1.191-.306.194-.305.195-.42.004zm58.11.004h-.848l.264-1.455.263-1.456h1.733l.163.265.164.265-.208.33-.207.331.079.479.079.479-.317.38-.316.382zm.266-.57l.472-.092.118-.356.119-.356-.472.092-.471.091-.119.356-.118.356zm.251-1.282h.397v-.529h-.794v.529zm-44.68-.53h-.496l.313-.377.313-.377-.082-.455-.083-.455.313-.11.314-.11-.049.941-.048.941-.496.001zm1.415-.083l-.656.049.463-.134.463-.135v-.49h-.63l.513-.419.514-.418-.477.15-.476.152.161-.262.162-.261h.756l-.069.86-.069.86zm24.95-6.27l-1.264-.004.353-.225.354-.224-.09-.607-.088-.607.366-.124.365-.125-.121.828-.121.827h1.2l.163-.265.164-.264-.347-.004-.346-.004.397-.26.397-.261-.397-.279-.397-.279.53.09.528.09-.078.52-.08.52-.11.33-.112.33-1.265-.003zM8.173 10.588l-.651.079-.189-.189-.188-.188V8.909l.422-.604.423-.603.702.081.702.081-.133.26-.132.26-.446-.075-.446-.075-.302.563-.302.564.156.406.156.406.541-.141.541-.142-.102.31-.101.31zm3.13.05l-.47.004-.153-.397-.152-.396H9.229l.164-.265.163-.265h.837l.321.44.322.44.435-.167.435-.167V9.32h-.793V8.79h.793v-.586l-.419.161-.419.161.11-.33.11-.332h1.28l-.092 1.19-.091 1.191-.306.195-.305.194zm37.086-.05l-.65.079-.189-.189-.189-.188V8.909l.423-.604.422-.603.702.081.702.081-.132.26-.132.26-.446-.075-.447-.075-.301.563-.302.564.156.406.156.406.54-.141.542-.142-.102.31-.102.31zm3.35.054h-.848l.264-1.455.264-1.455h1.732l.164.265.163.264-.207.33-.208.332.079.478.079.48-.316.38-.317.381zm.266-.57l.472-.091.119-.356.118-.356-.471.091-.472.092-.119.356-.118.356zm.251-1.282h.397v-.529h-.794v.529zm-20.439 1.584l-.595.004v-.355l.452-.5.453-.5-.386-.245-.387-.244.595-.004.596-.004v.729l-.41.34-.409.34.343.217.344.218zm1.414-.017l-.768.02.397-.462.398-.463.216-.376.216-.376-.506.193-.507.193.313-.315.313-.315.443.17.444.17-.42.639-.418.639.324.13.324.132-.769.021zm16.893-.508h-.677l.163-.265.164-.264H50.8v.529zM30.397 2.916l-.651.078-.189-.189-.188-.188V1.236l.422-.604.423-.603.702.081.702.081-.133.26-.132.26-.446-.075-.446-.075-.302.563-.302.564.156.406.156.406.541-.141.541-.142-.102.31-.101.31z" fill="#fc6565"/><path d="M28.488 61.707h-.352l.264-1.455.264-1.455h.74l-.167.529-.168.53h.3l.529-.53.53-.53h1.258l.326.394.326.394-.162.646-.162.646-.43.43-.43.43-.688-.08-.688-.081-.294-.594-.295-.594-.175.175-.174.175v.97zm2.018-.529h.344l.318-.317.317-.318v-1.217h-1.001l-.16.418-.161.419V61.178zm-.343-3.175h-.138l-.277-.463-.278-.463-.601-.992-.602-.992h.58l.525.86.524.86.001-9.724v-9.723h-5.692l-5.951 5.983-5.95 5.983 1.124-.166 1.124-.165v.493l-.728.145-.727.144-.992.17-.993.171v-.492l.408-1.37.407-1.371h.508v.135l-.264.922-.264.922 5.927-5.923 5.927-5.922-2.285-2.74-2.285-2.74h-7.28l-7.28.002.86.524.859.524v.567l-1.124-.685L4.1 31.79l-.397-.256-.397-.255.397-.255.397-.256 1.125-.685 1.124-.686v.567l-.86.524-.86.524 7.276-.003 7.276-.003 1.588-2.412 1.587-2.413.454-.703.455-.703-5.706-5.678-5.706-5.677.138.53.137.528.17.596.172.595h-.544l-.26-.992-.26-.993-.186-.765-.185-.766.766.185.766.185.992.26.992.26v.545l-.53-.15-.528-.15-.596-.159-.595-.158 4.869 4.897 4.868 4.897.372-.142.371-.143-.08-.67-.081-.671.366-.123.365-.123-.12.821-.12.821.283.118.284.118-.787.02-.788.022.717.717.718.718.392-.52.393-.518.008-.199.008-.198h-.594l.313-.378.313-.377-.082-.455-.082-.455.368-.128.368-.128-.191.761-.192.762.119-.132.119-.132 2.548-4.649 2.55-4.649-.002-3.553V5.748l-.525.86-.524.86h-.567l.685-1.125.686-1.124.255-.397.256-.397.255.397.255.397.686 1.124.686 1.125h-.567l-.524-.86-.525-.86v3.523l-.002 3.522 3.605 5.01 3.605 5.01h.336l4.89-4.894 4.888-4.894-.92.264-.922.264h-.136v-.508l1.371-.408 1.371-.407h.492l-.17.993-.171.992-.145.727-.144.728h-.493l.165-1.125.166-1.124-5.046 5.013-5.047 5.014.573.94.573.94 1.763 2.777 1.763 2.778 6.45.068 6.451.068-.86-.527-.86-.527v-.567l1.125.686 1.124.686.397.255.397.255-.397.256-.397.255-1.124.686-1.125.685v-.566l.86-.525.86-.524-6.481-.001-6.481-.001-3.632 2.183-3.632 2.183-.007.134-.007.134 6.508 6.48 6.508 6.48-.137-.528-.137-.53-.171-.595-.172-.595h.545l.26.992.26.992.185.766.186.766-.766-.185-.766-.186-.992-.26-.993-.26v-.544l.463.129.463.129.662.179.661.178L41.4 42.94l-6.623-6.647-2.108.48-2.11.481-.066 9.78-.067 9.779.526-.86.526-.86h.58l-.601.992-.602.992-.277.463-.278.463zm-3.087-20.902h2.822v-5.414l-2.704 2.64-2.703 2.642-.119.066-.118.066zm4.343-.424l.992-.183 1.002-.292 1.001-.292-1.993-1.977-1.994-1.978V36.86zm-7.345-.105h.146l2.503-2.514 2.503-2.513h-9.412l.346.485.345.485 1.712 2.028 1.712 2.029zm11.096-.91l.152-.09 3.175-1.91 3.175-1.91.11-.103.11-.104H30.836l2.091 2.103 2.092 2.103zm-10.51-4.646h4.815l-2.897-2.977-2.898-2.977-1.918 2.84-1.918 2.839v.275zm11.803 0h5.897l-.212-.36-.212-.36-2.103-3.335-2.104-3.336-.013.067-.013.066-3.568 3.629-3.568 3.629h5.896zm-6.625-4.612l.073-4.086-.073-4.218-.072-4.217-2.934 5.369-2.934 5.37 2.934 2.934 2.934 2.934zm4.029.51l3.44-3.431v-.442l-3.44-4.776-3.44-4.775v16.856zM6.263 54.564H5.91l.264-1.456.264-1.455h.74l-.168.53-.167.528h.3l.529-.529.53-.529H9.46l.326.393.326.394-.162.646-.162.647-.43.43-.43.43-.688-.081-.688-.08-.294-.595-.295-.593-.175.174-.174.175v.97zm2.018-.53h.344l.318-.317.317-.318v-1.217H8.26l-.16.419-.161.418V54.034zm4.132.525l-.419.004-.176-.176-.176-.176v-.351l.568.02.569.022.115-.33.115-.332h-.838v-.529h.794v-.586l-.42.161-.418.161.11-.33.11-.332h1.28l-.092 1.19-.092 1.191-.305.195-.306.194-.419.004zm34.596.004h-.352l.264-1.455.263-1.455h.741l-.168.53-.168.528h.3l.53-.529.529-.529h1.259l.326.393.326.394-.162.646-.162.647-.43.43-.43.43-.688-.081-.688-.08-.295-.595-.294-.593-.175.174-.175.175v.97zm2.018-.529h.344l.318-.317.317-.318v-1.217h-1.001l-.161.419-.16.418V54.034zm4.035.53h-.849l.264-1.456.264-1.455h1.732l.163.265.164.264-.207.33-.208.332.079.478.079.48-.316.38-.317.381zm.265-.57l.472-.092.118-.356.119-.356-.472.091-.471.092-.119.356-.118.356zm.251-1.283h.397v-.529h-.794v.529zM10.7 53.77h-.677l.163-.265.164-.265H11.377v.53zm40.746 0h-.677l.163-.265.164-.265H52.123v.53zM34.969 40.01h-.485l-.17-.169-.168-.17.184-.293.184-.294.007-.397.007-.397.632-.089.633-.09-.166.62-.166.618-.004.33-.004.331zm-.044-.264h.265v-.529h-.53v.529zm.176-.882l.177-.177-.177-.176-.176-.176v.705zm-16.316.613l-.661-.004.284-.194.284-.195.17-.463.171-.463h-.543l.163-.264.164-.265h.63v1.852l-.662-.004zm1.403.004h-.344V38.467l.16-.419.161-.418h1.002v1.217l-.318.318-.317.317zm.154-.265h.234l.152-.583.153-.584-.136-.136-.136-.136-.246.389-.247.389-.004.33-.004.331h.234zm24.01-5.292h-.496l.313-.377.313-.377-.082-.455-.082-.455.313-.11.313-.11-.049.941-.048.941-.495.001zm1.34-.03l-.58-.03.463-.122.463-.12v-.491h-.53v-1.058l.596.03.595.031-.463.121-.463.121v.3l.437.32.438.32-.189.304-.188.305zM.771 32.6l-.42.004-.176-.177L0 32.25V31.9l.569.021.568.021.115-.33.115-.331H.529v-.529h.794v-.586l-.419.16-.419.162.11-.331.11-.331h1.28l-.092 1.19-.091 1.191-.306.194-.305.195-.42.004zm58.11.004h-.848l.264-1.455.263-1.456h1.733l.163.265.164.265-.208.33-.207.331.079.479.079.479-.317.38-.316.382zm.266-.57l.472-.092.118-.356.119-.356-.472.092-.471.091-.119.356-.118.356zm.251-1.282h.397v-.529h-.794v.529zm-44.68-.53h-.496l.313-.377.313-.377-.082-.455-.083-.455.313-.11.314-.11-.049.941-.048.941-.496.001zm1.415-.083l-.656.049.463-.134.463-.135v-.49h-.63l.513-.419.514-.418-.477.15-.476.152.161-.262.162-.261h.756l-.069.86-.069.86zm24.95-6.27l-1.264-.004.353-.225.354-.224-.09-.607-.088-.607.366-.124.365-.125-.121.828-.121.827h1.2l.163-.265.164-.264-.347-.004-.346-.004.397-.26.397-.261-.397-.279-.397-.279.53.09.528.09-.078.52-.08.52-.11.33-.112.33-1.265-.003zM8.173 10.588l-.651.079-.189-.189-.188-.188V8.909l.422-.604.423-.603.702.081.702.081-.133.26-.132.26-.446-.075-.446-.075-.302.563-.302.564.156.406.156.406.541-.141.541-.142-.102.31-.101.31zm3.13.05l-.47.004-.153-.397-.152-.396H9.229l.164-.265.163-.265h.837l.321.44.322.44.435-.167.435-.167V9.32h-.793V8.79h.793v-.586l-.419.161-.419.161.11-.33.11-.332h1.28l-.092 1.19-.091 1.191-.306.195-.305.194zm37.086-.05l-.65.079-.189-.189-.189-.188V8.909l.423-.604.422-.603.702.081.702.081-.132.26-.132.26-.446-.075-.447-.075-.301.563-.302.564.156.406.156.406.54-.141.542-.142-.102.31-.102.31zm3.35.054h-.848l.264-1.455.264-1.455h1.732l.164.265.163.264-.207.33-.208.332.079.478.079.48-.316.38-.317.381zm.266-.57l.472-.091.119-.356.118-.356-.471.091-.472.092-.119.356-.118.356zm.251-1.282h.397v-.529h-.794v.529zm-20.439 1.584l-.595.004v-.355l.452-.5.453-.5-.386-.245-.387-.244.595-.004.596-.004v.729l-.41.34-.409.34.343.217.344.218zm1.414-.017l-.768.02.397-.462.398-.463.216-.376.216-.376-.506.193-.507.193.313-.315.313-.315.443.17.444.17-.42.639-.418.639.324.13.324.132-.769.021zm16.893-.508h-.677l.163-.265.164-.264H50.8v.529zM30.397 2.916l-.651.078-.189-.189-.188-.188V1.236l.422-.604.423-.603.702.081.702.081-.133.26-.132.26-.446-.075-.446-.075-.302.563-.302.564.156.406.156.406.541-.141.541-.142-.102.31-.101.31z" fill="#8e8e8e"/><path d="M28.538 61.598l-.3.186.182-1.03.183-1.031.136-.463.136-.463h.444l-.138.529-.139.53h.509l.48-.53.478-.53h1.222l.274.513.274.511-.237.624-.237.623-.41.34-.41.34-.61-.086-.61-.086-.084-.596-.084-.595h-.757V61.411zm2.16-.42h.504l.295-.55.294-.55-.145-.376-.144-.376h-1.088l-.26.684-.26.683.15.243.15.242zm-.535-3.44h-.215l-.71-1.211-.71-1.211.137-.136.136-.137.423.819.423.818h.251V37.366h-5.949l-5.955 5.886-5.955 5.887 5.919-5.987 5.92-5.988-2.344-2.81-2.343-2.81H4.763v.252l.818.423.818.423-.136.136-.136.136-1.211-.71-1.212-.71v-.428l1.212-.71 1.211-.71.136.136.136.136-.818.423-.818.424v.251l7.21-.005 7.21-.005 2.097-3.187 2.098-3.186-5.67-5.738-5.67-5.739L17.75 18.8l5.71 5.642.47-.714.468-.715-.36-.228-.358-.227.331-.004.33-.004V20.962h.456l-.131.727-.132.728.133-.133.133-.132 2.557-4.663 2.557-4.663-.074-3.54-.074-3.538-.483.885-.482.884-.137-.136-.136-.136.71-1.212.71-1.211h.429l.71 1.211.71 1.212-.136.136-.137.136-.482-.884-.483-.885-.074 3.522-.073 3.523 2.707 3.753 2.708 3.754 1.036 1.42 1.036 1.422 5.061-4.993 5.062-4.993-5.004 5.073-5.005 5.074 2.352 3.755 2.353 3.756.276.106.276.106 6.213-.071 6.212-.072-.885-.482-.884-.483.136-.136.136-.136 1.211.71 1.212.71v.429l-1.212.71-1.21.71-.137-.137-.136-.136.884-.482.885-.483-6.473-.07-6.473-.072-3.64 2.188-3.64 2.187-.008.263-.007.263 6.417 6.484 6.416 6.484-6.643-6.575L35 36.254l-2.088.455-2.089.455-.202.184-.201.183.07 9.64.069 9.642.482-.885.483-.884.136.136.136.136-.71 1.211-.71 1.212zm-3.01-20.637h2.745v-5.68l-2.844 2.774-2.845 2.774 2.641-2.712 2.641-2.712H19.78l.36.463.36.463 1.954 2.315 1.955 2.315zm3.42-.265h.147l1.838-.418L34.396 36V35.658l-1.918-1.99-1.919-1.991 2.155 2.082 2.154 2.082 3.471-2.082 3.472-2.082-5.354-.072-5.354-.072-.338.13-.338.13V36.836zm-5.848-5.82h4.925l.128-.334.128-.333-.07-8.232-.07-8.233-2.972 5.437-2.97 5.437 2.965 3.062 2.966 3.063-3.037-2.966-3.038-2.967-1.852 2.803-1.852 2.803-.088.23-.088.23zm11.623 0h6.046l-.383-.596-.384-.595-2.007-3.175-2.007-3.175-3.593-4.996-3.593-4.996v17.128l3.638-3.568 3.638-3.568-3.7 3.77-3.701 3.77zM6.313 54.454l-.3.186.182-1.03.183-1.031.136-.463.136-.463h.444l-.138.53-.139.528h.509l.48-.529.478-.529h1.222l.274.512.274.512-.237.623-.237.624-.41.34-.41.34-.61-.086-.61-.087-.084-.595-.084-.596h-.757v1.028zm2.16-.42h.504l.295-.55.294-.55-.145-.376-.144-.376H8.19l-.26.684-.26.683.15.243.15.242zm3.974.53h-.453l-.176-.177-.176-.176v-.368l.661.126.662.127v-.855h-.794v-.468l.595-.197.596-.196-.6-.118-.599-.118.152-.245.152-.246h.996l.163.265.164.264-.208.33-.207.332.079.478.078.48-.316.38-.316.381zm34.612-.11l-.3.186.182-1.03.183-1.031.136-.463.136-.463h.444l-.138.53-.139.528h.509l.48-.529.478-.529h1.222l.274.512.274.512-.237.623-.237.624-.41.34-.41.34-.61-.086-.61-.087-.084-.595-.085-.596h-.757v1.028zm2.16-.42h.504l.294-.55.295-.55-.145-.376-.144-.376h-1.088l-.26.684-.26.683.15.243.15.242zm3.9.53h-.79l.175-.993.176-.992.141-.478.141-.479.705.082.705.081.057 1.042.058 1.042-.289.347-.288.347zm.327-.53h.529v-.793h-1.058v.793zm.117-1.323h.38l.164-.264.164-.265h-1.09v.529zM10.7 53.77h-.381v-.529h1.089l-.163.264-.164.265zm40.746 0h-.381v-.529h1.089l-.163.264-.164.265zm-2.432-3.471l-.198-.031-1.588-.487-1.587-.487 1.323.055 1.323.055-.058-1.323-.058-1.323.512 1.72.511 1.72.009.066.009.066-.198-.031zm-37.058-.401l-.877.161.155-.489.155-.489.386-1.161.385-1.162-.132.957-.132.957.152.398.153.398 1.242-.093 1.241-.092-.926.227-.926.227zm22.849-9.927l-.48.093.187-.754.186-.754.223-.228.223-.229.264.164.264.163-.194.727-.194.726zm.12-.224h.265v-.529h-.53v.529zm.117-.794h.116l.164-.265.163-.264h-.56v.529zm-16.21.53h-.376l.272-.332.271-.33.128-.662.128-.661-.024.992-.025.992h-.375zm1.59 0h-.225l-.177-.177-.176-.177v-.905l.408-.339.408-.338.3.299.298.299-.304.669-.305.668zm-.067-.265h.247l.174-.55.174-.549-.138-.138-.14-.14-.281.175-.283.174v1.028zm23.963-5.313l-.53-.02.331-.134.331-.134V32.074h.397v1.852l-.53-.021zm1.224.004l-.43-.017.661-.288.661-.288-.478-.114-.478-.115.084-.437.085-.438.394-.028.393-.029-.33.111-.331.111v.434l.427.164.426.163-.326.394-.327.394-.43-.017zM.805 32.603H.353l-.177-.177L0 32.25v-.367l.662.126.661.126v-.855H.529v-.467l.596-.197.595-.197-.6-.118-.599-.117.152-.246.152-.246h.996l.163.265.164.265-.208.33-.207.331.079.479.079.479-.317.38-.316.382zm58.135 0h-.79l.175-.992.176-.993.141-.478.141-.478.705.081.705.082.057 1.041.058 1.042-.289.347-.288.348zm.327-.53h.529v-.793h-1.058v.794zm.116-1.322h.382l.163-.265.164-.264h-1.09v.529zm-44.699-.55l-.529-.021.331-.134.33-.133V28.37h.398v1.852l-.53-.021zm1.242-.01l-.448-.031.463-.121.463-.121v-.446l-.33-.134-.331-.133.463-.021.463-.02v-.486l-.33-.133-.332-.134.472-.02.472-.022-.081.596-.082.595-.208.33-.207.331-.447-.03zm24.423-6.324l-.53-.004.343-.217.342-.217.233-.771.233-.771-.046.991-.046.992-.529-.004zm1.642-.091l-.462.042.402-.125.402-.125v-.49l-.33-.004-.331-.004.365-.231.364-.231-.182-.294-.181-.294h.554l-.07.857-.07.858zm-19.37-.967l-.528-.004.342-.217.342-.217.233-.772.233-.77-.046.99-.046.993zm-10.553-7.14h-.099l-.308-1.256-.308-1.257-.141-.474-.142-.473.749.183.749.184 1.058.332 1.058.332-1.323-.042-1.322-.042.064 1.257.064 1.256zm36.47-1.587l-.363 1.72.088-1.242.087-1.242-.398-.152-.398-.153-.957.134-.956.135 1.576-.515 1.576-.516.054.056.053.055zM8.29 10.589l-.532.079-.331-.399-.331-.399.177-.807.177-.806.49-.263.49-.262h.829v.529h-.993l-.319.384-.319.384.096.476.097.476.594-.022.594-.022-.094.287-.094.286zm3.098.053h-.453l-.176-.176-.177-.176v-.368l.662.126.661.127v-.856h-.793v-.467l.595-.197.595-.197-.6-.117-.598-.118.152-.245.151-.246h.996l.164.264.163.265-.207.33-.208.332.08.478.078.48-.316.38-.317.381zm37.118-.053l-.531.079-.331-.399-.331-.399.177-.807.177-.806.49-.263.49-.262h.829v.529h-.993l-.32.384-.318.384.096.476.096.476.595-.022.594-.022-.094.287-.094.286zm3.29.053h-.791l.176-.992.175-.992.141-.478.141-.479.705.082.705.081.057 1.042.058 1.042-.288.347-.289.347zm.326-.529h.53V9.32h-1.06v.794zm.117-1.323h.38l.164-.264.164-.265h-1.09v.529zm-20.424 1.567l-.595.02v-.472l.427-.164.427-.163-.138-.526-.137-.526h.391l.177.177.178.177-.391.597-.391.597.324.13.324.132-.596.02zm1.41.002l-.774.018.634-.675.635-.675-.39-.247-.39-.247.463-.004.463-.004v.729l-.423.351-.422.35.488.193.489.192-.774.019zm-23.32-.51h-.381v-.53h1.09l-.164.265-.163.264zm40.217 0h-.381v-.53h1.089l-.163.265-.164.264zM30.516 2.915l-.532.079-.331-.4-.331-.398.177-.807.177-.807.49-.262.49-.262h.829v.529h-.993l-.319.384-.319.384.096.476.097.476.594-.022.594-.022-.094.286-.094.287z" fill="#676767"/><path d="M28.651 61.112l-.29.727.15-.926.151-.926.198-.661.199-.662.023.596.022.595h.577l.46-.569.461-.569.707.177.706.177v1.578l-.53.529-.529.53h-1.048l-.166-.662-.166-.662h-.634l-.29.728zm1.876.066h.63l.318-.384.319-.384-.091-.473-.091-.473-.473-.09-.473-.092-.384.32-.384.318v1.258zm-24.1-7.21l-.29.728.15-.926.15-.926.198-.662.199-.661.022.595.023.595h.577l.46-.569.461-.569.707.177.706.178v1.577l-.53.53-.529.528H7.683l-.166-.661-.166-.662h-.634zm1.875.066h.63l.318-.384.319-.384-.091-.473-.091-.473-.473-.09-.473-.092-.384.32-.384.318v1.258zm4.101.53h-.497v-.53H12.965v-.794h-.794v-.529H13.23v-.529l-.596-.004-.595-.004.396-.256.397-.257.317-.004.317-.004-.032 1.125-.03 1.124-.252.33-.252.332h-.497zm34.77-.596l-.291.728.15-.926.15-.926.2-.662.198-.661.022.595.023.595h.577l.46-.569.461-.569.706.177.706.178v1.577l-.529.53-.529.528H48.43l-.166-.661-.166-.662h-.634l-.29.728zm1.875.066h.629l.319-.384.319-.384-.091-.473-.091-.473-.473-.09-.473-.092-.384.32-.384.318v1.258zm3.982.53h-.642v-.24l.29-1.35.29-1.351.7.08.7.082.063.53.064.528-.15-.33-.15-.331h-.983l-.163.265-.164.264h.984l.318.318.317.317v.386l-.416.416-.415.415zm.351-.579l.726-.083v-.529l-.561-.08-.562-.08-.164.428-.165.428zm-42.665-.215h-.397v-.53h.794v.53zm40.746 0h-.397v-.53h.793v.53zM34.925 40.01h-.353l.177-.176.176-.177.176.177.177.176zm-16.03-.55l-.506-.02.347-.14.347-.139.16.16.16.16-.507-.02zm1.478.021h-.353l.177-.176.176-.177.176.177.177.176zm14.965 0h-.117l-.189-.305-.189-.306.306.189.305.189v.233zm-16.128-1.13l-.16.16.02-.507.022-.507.139.347.139.347-.16.16zm15.98.072h-.353l.176-.177.177-.176.176.176.176.177zm-14.552-.53h-.353l.176-.176.177-.176.176.176.176.177zm6.396-.544l-3.09-.015-1.322-1.624-1.323-1.625-1.155-1.4-1.154-1.4 2.707-4.135 2.708-4.135-.318-.197-.32-.197.486-.137.486-.137 2.645-4.919 2.646-4.919.133.004.132.004 3.704 5.17 3.704 5.17 2.381 3.774 2.382 3.774.397.48.396.48-.29.097-.292.098-3.83 2.339-3.831 2.338-2.447.563-2.446.564-3.09-.015zm.608-.32l3.182-.13 2.066-.554 2.067-.555 3.547-2.134 3.547-2.134.163-.263.162-.263-2.294-3.629-2.294-3.629-3.734-5.208-3.733-5.208-.189.116-.189.117-2.837 5.224-2.837 5.224-2.38 3.644-2.38 3.645.384.456.384.457 2.091 2.477 2.092 2.478zm16.654-3.125l-.507-.021.347-.139.347-.139.16.16.16.16-.507-.021zm1.477.02h-.353l.177-.176.176-.176.176.176.177.177zm.11-.814l-.507-.02.347-.14.348-.139.16.16.16.16-.508-.02zM.761 32.603H.265v-.529h1.058v-.794H.529v-.529H1.588v-.529l-.596-.004-.595-.004.397-.257.397-.256.316-.004.317-.004-.031 1.124-.032 1.125-.251.33-.252.331H.761zm58.09 0h-.643v-.239l.29-1.35.29-1.352.7.082.7.08.064.53.064.53-.15-.332-.15-.33h-.983l-.163.264-.164.265h.984l.317.317.318.318v.385l-.416.416-.416.416zm.351-.578l.726-.084v-.529l-.561-.08-.562-.08-.164.428-.165.429zm-13.054.292l-.507-.02.347-.14.347-.138.16.16.16.16-.507-.022zm-31.486-2.116l-.507-.021.348-.14.347-.138.16.16.16.16-.508-.021zm1.478.02h-.353l.176-.176.177-.176.176.176.176.177zm.264-.793h-.353l.177-.176.176-.177.177.177.176.176zm.413-.53H16.7l-.189-.305-.189-.305.306.189.305.188v.234zm23.775-5.047l-.508-.021.348-.14.347-.138.16.16.16.16zm1.212.02h-.353l.177-.176.176-.176.177.176.176.177zm.711-.274l-.05-.01-.318-.363-.32-.363.332-.127.33-.127.038.5.038.5zm-19.65-.805l-.508-.02.348-.14.347-.138.16.16.16.16zm18.057-.331l-.176.176v-.706l.176.177.177.176zm1.411-.177h-.352l.176-.176.176-.177.177.177.176.176zm-19.138-.882l-.176.177v-.706l.176.176.177.177zM8.064 10.642h-.372l-.274-.511-.274-.512.237-.624.237-.623.42-.35.422-.35.466.204.467.203-.53.12-.529.12-.33.268-.331.268v1.258h1.09l-.164.265-.164.265zm3.28 0h-.496v-.529h1.058V9.32h-.793v-.53h1.058v-.529l-.595-.004-.596-.004.397-.256.397-.257.317-.004.316-.004-.03 1.125-.032 1.124-.252.331-.251.33zm36.936 0h-.372l-.274-.511-.274-.512.237-.624.237-.623.422-.35.42-.35.467.204.466.203-.529.12-.529.12-.33.268-.331.268v1.258h1.089l-.163.265-.164.265zm3.427 0h-.642v-.238l.29-1.351.29-1.351.7.081.7.081.063.53.064.529-.15-.331-.15-.33h-.982l-.164.264-.164.264h.984l.318.318.317.317v.386l-.416.416-.415.416zm.351-.577l.726-.084v-.529l-.561-.08-.562-.08-.164.428-.165.428zm-20.308.271h-.661l.33-.133.331-.134.33.134.331.133zm1.455.042h-.397v-.513l.397.153.397.152v.208zm-23.283-.53h-.397V9.32h.794v.529zm40.217 0h-.397V9.32h.793v.529zm-16.323-.654l-.149.148-.18-.474-.18-.474.328.326.329.326zm-1.801-.404h-.353l.176-.176.177-.176.176.176.176.176zm-1.726-5.82h-.372l-.274-.512-.274-.512.237-.624.237-.623.42-.35.422-.349.466.203.467.203-.53.12-.529.12-.33.268-.331.268V2.44h1.09l-.164.265-.164.265z" fill="#fc0b0b"/><path d="M28.651 61.112l-.29.727.15-.926.151-.926.198-.661.199-.662.023.596.022.595h.577l.46-.569.461-.569.707.177.706.177v1.578l-.53.529-.529.53h-1.048l-.166-.662-.166-.662h-.634l-.29.728zm1.876.066h.63l.318-.384.319-.384-.091-.473-.091-.473-.473-.09-.473-.092-.384.32-.384.318v1.258zm-24.1-7.21l-.29.728.15-.926.15-.926.198-.662.199-.661.022.595.023.595h.577l.46-.569.461-.569.707.177.706.178v1.577l-.53.53-.529.528H7.683l-.166-.661-.166-.662h-.634zm1.875.066h.63l.318-.384.319-.384-.091-.473-.091-.473-.473-.09-.473-.092-.384.32-.384.318v1.258zm4.101.53h-.497v-.53H12.965v-.794h-.794v-.529H13.23v-.529l-.596-.004-.595-.004.396-.256.397-.257.317-.004.317-.004-.032 1.125-.03 1.124-.252.33-.252.332h-.497zm34.77-.596l-.291.728.15-.926.15-.926.2-.662.198-.661.022.595.023.595h.577l.46-.569.461-.569.706.177.706.178v1.577l-.529.53-.529.528H48.43l-.166-.661-.166-.662h-.634l-.29.728zm1.875.066h.629l.319-.384.319-.384-.091-.473-.091-.473-.473-.09-.473-.092-.384.32-.384.318v1.258zm3.982.53h-.642v-.24l.29-1.35.29-1.351.7.08.7.082.063.53.064.528-.15-.33-.15-.331h-.983l-.163.265-.164.264h.984l.318.318.317.317v.386l-.416.416-.415.415zm.351-.579l.726-.083v-.529l-.561-.08-.562-.08-.164.428-.165.428zm-42.665-.215h-.397v-.53h.794v.53zm40.746 0h-.397v-.53h.793v.53zM34.925 40.01h-.353l.177-.176.176-.177.176.177.177.176zm-16.03-.55l-.506-.02.347-.14.347-.139.16.16.16.16-.507-.02zm1.478.021h-.353l.177-.176.176-.177.176.177.177.176zm14.965 0h-.117l-.189-.305-.189-.306.306.189.305.189v.233zm-16.128-1.13l-.16.16.02-.507.022-.507.139.347.139.347-.16.16zm15.98.072h-.353l.176-.177.177-.176.176.176.176.177zm-14.552-.53h-.353l.176-.176.177-.176.176.176.176.177zm23.658-3.99l-.507-.02.347-.139.347-.139.16.16.16.16-.507-.021zm1.477.022h-.353l.177-.177.176-.176.176.176.177.177zm.11-.815l-.507-.02.347-.14.348-.139.16.16.16.16-.508-.02zM.761 32.603H.265v-.529h1.058v-.794H.529v-.529H1.588v-.529l-.596-.004-.595-.004.397-.257.397-.256.316-.004.317-.004-.031 1.124-.032 1.125-.251.33-.252.331H.761zm58.09 0h-.643v-.239l.29-1.35.29-1.352.7.082.7.08.064.53.064.53-.15-.332-.15-.33h-.983l-.163.264-.164.265h.984l.317.317.318.318v.385l-.416.416-.416.416zm.351-.578l.726-.084v-.529l-.561-.08-.562-.08-.164.428-.165.429zm-13.054.292l-.507-.02.347-.14.347-.138.16.16.16.16-.507-.022zm-31.486-2.116l-.507-.021.348-.14.347-.138.16.16.16.16-.508-.021zm1.478.02h-.353l.176-.176.177-.176.176.176.176.177zm.264-.793h-.353l.177-.176.176-.177.177.177.176.176zm.413-.53H16.7l-.189-.305-.189-.305.306.189.305.188v.234zm23.775-5.047l-.508-.021.348-.14.347-.138.16.16.16.16zm1.212.02h-.353l.177-.176.176-.176.177.176.176.177zm.711-.274l-.05-.01-.318-.363-.32-.363.332-.127.33-.127.038.5.038.5zm-19.65-.805l-.508-.02.348-.14.347-.138.16.16.16.16zm1.477-.02h-.662l.331-.134.33-.133.331.133.331.134zm16.58-.311l-.176.176v-.706l.176.177.177.176zm1.411-.177h-.352l.176-.176.176-.177.177.177.176.176zm-19.138-.882l-.176.177v-.706l.176.176.177.177zM8.064 10.642h-.372l-.274-.511-.274-.512.237-.624.237-.623.42-.35.422-.35.466.204.467.203-.53.12-.529.12-.33.268-.331.268v1.258h1.09l-.164.265-.164.265zm3.28 0h-.496v-.529h1.058V9.32h-.793v-.53h1.058v-.529l-.595-.004-.596-.004.397-.256.397-.257.317-.004.316-.004-.03 1.125-.032 1.124-.252.331-.251.33zm36.936 0h-.372l-.274-.511-.274-.512.237-.624.237-.623.422-.35.42-.35.467.204.466.203-.529.12-.529.12-.33.268-.331.268v1.258h1.089l-.163.265-.164.265zm3.427 0h-.642v-.238l.29-1.351.29-1.351.7.081.7.081.063.53.064.529-.15-.331-.15-.33h-.982l-.164.264-.164.264h.984l.318.318.317.317v.386l-.416.416-.415.416zm.351-.577l.726-.084v-.529l-.561-.08-.562-.08-.164.428-.165.428zm-20.308.271h-.661l.33-.133.331-.134.33.134.331.133zm1.455.042h-.397v-.513l.397.153.397.152v.208zm-23.283-.53h-.397V9.32h.794v.529zm40.217 0h-.397V9.32h.793v.529zm-16.323-.654l-.149.148-.18-.474-.18-.474.328.326.329.326zm-1.801-.404h-.353l.176-.176.177-.176.176.176.176.176zm-1.726-5.82h-.372l-.274-.512-.274-.512.237-.624.237-.623.42-.35.422-.349.466.203.467.203-.53.12-.529.12-.33.268-.331.268V2.44h1.09l-.164.265-.164.265z" fill="#080808"/></svg>