<svg xmlns="http://www.w3.org/2000/svg" width="229.291" height="233.724" viewBox="0 0 60.666691 61.839489"><path d="M28.42 61.707h-.41l.136-.463.136-.463.176-.992.176-.992h.735v1.176l.412-.588.412-.588h1.249l.419.16.418.161V60.649l-.529.529-.53.53H29.678l-.241-.726-.242-.726-.182.726-.183.725zm2.086-.529h.344l.318-.317.317-.318v-.921l-.276-.17-.276-.172-.385.32-.386.32v1.258zm-.344-2.92h-.132l-.872-1.492-.871-1.491.24-.24.24-.24.56.876.562.877.004-9.09.004-9.09-.33.12-.331.122-4.16 1.021-4.16 1.02-4.307 4.32-4.307 4.321 1.125-.176 1.124-.176v.565l-.207.128-.208.129-1.609.182-1.608.182.421-1.618.422-1.617h.715l-.178.86-.178.86 4.257-4.23 4.257-4.23-.859-.816-.86-.816-3.732-3.487-3.733-3.487-3.278.004-3.28.004.877.56.877.562-.24.24-.24.24-1.491-.872-1.491-.872-.005-.132-.005-.132 1.388-.794 1.39-.794h.793l.33-.214.331-.214v-.481l-.44.169-.44.169.191-.31.191-.31H7.936v1.033l-.463.27-.463.27.422.007.422.008.438-.484.438-.484v-.386l-.264.164-.265.163v-.56H9.228l.174.281.174.281-.44.485-.438.485.347.14.347.138-1.72.03-1.72.029-.514.388-.513.389h6.46l5.876-2.785 5.876-2.786.2-.199.199-.2-5.711-5.68-5.712-5.68.173.992.172.992h-.716l-.41-1.714-.41-1.713.101-.101.101-.101 1.714.41 1.713.41v.716l-.992-.173-.992-.173 5.024 5.056 5.025 5.056h.704l-.085-.723-.085-.723.445-.087.446-.087-.049.941-.048.94-.524.002h-.523l.675.676.675.675 2.759-.764 2.758-.763.064-8.71.064-8.708-.563.876-.563.877-.24-.24-.24-.24.871-1.491.872-1.491h.265l.871 1.49.872 1.492-.24.24-.24.24-.56-.877-.562-.876-.004 8.533-.004 8.533.198.007.199.007 5.074-1.638 5.074-1.637 3.26-3.29 3.26-3.288-.86.178-.86.178v-.715l1.618-.421 1.618-.422-.182 1.609-.182 1.608-.128.208-.129.208h-.565l.176-1.125.177-1.124-3.133 3.118-3.133 3.118-1.772 5.391-1.773 5.39v.578l8.533-.004 8.533-.004-.876-.562-.877-.56.24-.24.24-.24 1.491.871 1.491.872v.264l-1.49.872-1.492.872-.24-.24-.24-.24.877-.561.876-.562-8.735-.004-8.735-.004-1.253 2.148-1.253 2.148v.339l6.367 6.348 6.367 6.348-.185-1.026-.185-1.027.36.12.358.12.37 1.514.37 1.514-.152.152-.151.151-1.514-.37-1.515-.37-.12-.358-.12-.36 1.027.185 1.026.185-6.348-6.367-6.348-6.366h-.497l-2.068.845-2.07.846.005 9.142.004 9.143.561-.877.561-.876.24.24.24.24-.872 1.49-.871 1.492h-.133zM25.69 38.762l3.812-.942.208-.184.208-.184-.076-2.826-.075-2.826-3.945 3.952-3.944 3.952zm-4.546.72h.163l3.962-3.97 3.962-3.968H12.7v.229l4.14 3.854 4.14 3.854zm9.522-2.117h.239l1.738-.742 1.739-.742-1.977-1.963-1.977-1.964v5.411zm4.164-1.853h.05l1.081-1.875 1.082-1.875v-.218h-6.205l1.971 1.984 1.971 1.984zm-13.51-4.497h8.179l-2.654-2.655-2.655-2.654-5.414 2.555-5.414 2.554-.11.1-.11.1zm12.687 0h3.441l1.643-4.946 1.644-4.945-.073-.072-.072-.072-5.012 5.017-5.012 5.018zm-4.166-3.602l.075-3.084-.078-.079-.08-.078-2.463.684-2.464.683 2.468 2.48 2.468 2.478zm5.208-1.68l4.62-4.615-.072-.073-.073-.072-4.548 1.51-4.548 1.51v6.354zM6.195 54.563h-.41l.136-.464.136-.463.176-.992.176-.992h.735v1.176l.412-.588.412-.588h1.249l.419.16.418.161v1.267h1.323v.564l-.728-.084-.727-.084-.463.463-.463.463H7.452l-.241-.725-.242-.726-.182.726-.183.725zm2.086-.53h.344l.318-.317.317-.318v-.921l-.276-.17-.276-.171-.385.32-.386.32v1.258zm4.122.53h-.761v-.83l.529.168.529.168v-.829h-.794v-.53H12.965v-.564l-.53.168-.529.167v-.508l.419-.16.418-.161h.987l-.031 1.125-.031 1.124-.252.33-.252.331zm34.538 0h-.41l.136-.464.136-.463.176-.992.176-.992h.735v1.176l.411-.588.412-.588h1.25l.418.16.419.161v1.267h1.323v.564l-.728-.084-.727-.084-.463.463-.463.463h-1.544l-.242-.725-.241-.726-.183.726-.182.725zm2.086-.53h.344l.318-.317.317-.318v-.921l-.276-.17-.276-.171-.385.32-.386.32v1.258zm4.003.53h-.907v-.24l.286-1.335.287-1.336H54.52l.162.424.163.423-.332.205-.33.205.292.18.293.182v.46l-.416.416-.416.415zm.298-.577l.41-.085.053-.243.052-.242-.298-.1-.298-.099-.164.427-.164.428zm.235-1.276h.412v-.529h-.498l-.163.265-.164.264zM16.587 42.653l-1.373-.004.353-.224.354-.224-.09-.625-.088-.625.46-.092.46-.091-.163.812-.162.813h1.124v-.529h-.529V40.805l.728.03.727.032-.463.12-.463.122v.3l.438.32.437.319-.188.305-.189.304-1.373-.004zm10.593-.309l-.722.084v-.53l.258-.679.258-.678h1.065l-.068.86-.068.86zm-.06-.216h.132v-.265h-.265v.265zm.264-1.058h.133v-.265h-.265v.265zm7.47-1.107l-.723.084v-.53l.258-.679.258-.679h1.065l-.068.86-.068.86zm-.061-.216h.132v-.265h-.265v.265zm.264-1.059h.133v-.264h-.265v.264zm4.792-4.762h-.527l.484-.354.485-.355-.43-.165-.43-.164.157-.407.156-.407h1.266v1.217l-.317.317-.318.318zm.544-1.147l.176-.176-.176-.176-.176-.177v.706zM.761 32.603H0v-.829l.53.168.528.168v-.83H.265v-.529h1.058v-.565l-.53.168-.528.168v-.508l.418-.16.419-.161h.987l-.032 1.124-.031 1.125-.252.33-.251.331zm58.09 0h-.907v-.238l.286-1.336.287-1.336H60.342l.162.423.163.424-.332.205-.331.204.293.181.293.181v.46l-.416.416-.416.416zm.298-.576l.41-.085.052-.243.053-.243-.299-.099-.298-.1-.164.428-.164.427zm.234-1.276h.413v-.529h-.498l-.164.264-.163.265zm-34.421-7.195l-.57.081-.16-.257-.159-.258.26-.683.26-.684h1.105l-.083.86-.083.86zm.069-.55l.16-.16-.14-.347-.138-.347-.021.507-.021.507.16-.16zm7.13-1.81l-.543-.031.463-.121.463-.121v-.447l-.312-.104-.313-.104.172-.447.172-.447h1.074v1.217l-.317.317-.318.318zm.56-1.117l.175-.176-.176-.176-.176-.177v.706zm11.918.085l-1.38-.004.284-.195.284-.194.17-.463.172-.463h-.544l.163-.265.164-.264h.823l-.117.793-.116.794h.935l.164-.265.163-.264h-.864l.089-.463.088-.463.594-.085.593-.085.152.395.151.395-.294.55-.294.55zm.97-1.055h.133l.163-.264.164-.265h-.265l-.163.265-.164.264zM8.047 10.643h-.62l-.274-.512-.274-.512.237-.624.237-.623.41-.34.41-.34.59.086.588.086.123.373.123.373-.466-.179-.467-.179-.363.302-.364.301v1.258h.756l.397-.396.397-.397h.87l.396.397.397.396h.492V9.32h-.794v-.53H11.907v-.564l-.53.168-.53.168v-.509l.42-.16.418-.16h.987l-.031 1.124-.032 1.124-.251.33-.252.332H10.583v-.794H9.325l-.33.397-.329.397zm40.216 0h-.62l-.273-.512-.274-.512.237-.624.237-.623.41-.34.41-.34.589.086.589.086.123.373.123.373-.467-.179-.466-.179-.364.302-.363.301v1.258h.756l.397-.396.397-.397H50.8v.529h-1.258l-.33.397-.329.397zm3.444 0H50.8v-.239l.286-1.336.287-1.336H53.198l.162.424.163.423-.331.205-.332.205.293.18.293.182v.46l-.416.416-.416.416zm.298-.577l.41-.085.053-.242.052-.243-.298-.1-.298-.099-.164.428-.164.427zm.235-1.275h.412v-.53h-.498l-.163.265-.164.265zM30.272 2.97h-.62l-.274-.512-.274-.512.237-.624.237-.623.41-.34.41-.34.59.086.588.087.123.373.123.372-.466-.179-.467-.179-.363.302-.364.301v1.316l.708-.178.708-.177-.343.413-.344.414z" fill="#cfcfcf"/><path d="M28.488 61.707h-.352l.264-1.455.263-1.455h.741l-.168.529-.167.53h.3l.529-.53.53-.53h1.258l.326.394.326.394-.162.646-.162.646-.43.43-.43.43-.688-.08-.688-.081-.294-.594-.295-.594-.175.175-.174.175v.97zm2.018-.529h.344l.318-.317.317-.318v-1.217h-1.001l-.16.418-.162.419V61.178zm-.344-3.175h-.137l-.277-.463-.278-.463-.601-.992-.602-.992h.58l.525.86.524.86V47.59l.002-9.223-.33.122-.332.121-4.16 1.021-4.159 1.02-4.307 4.341-4.307 4.34 1.124-.165L14.552 49v.493l-.728.145-.727.144-.992.17-.993.171v-.492l.408-1.37.407-1.371h.508v.135l-.264.921-.264.92 4.383-4.361 4.382-4.362-1.836-1.72L17 36.704l-2.776-2.58-2.777-2.58-3.408.002H4.63l.86.525.86.524v.567l-1.125-.685-1.124-.686-.397-.256-.397-.255.397-.255.397-.256 1.124-.685 1.125-.686v.567l-.86.524-.86.524 3.397.001 3.396.001 5.996-2.829 5.997-2.829.12-.092.121-.092-5.9-5.876-5.901-5.876.136.529.137.529.17.595.172.595h-.544l-.26-.992-.26-.992-.186-.766-.185-.766.766.186.766.185.992.26.992.26v.544l-.53-.15-.528-.15-.596-.158-.595-.158 5.157 5.185 5.157 5.185h.605l.138-.529.138-.529h-.511l.164-.265.163-.264h.631v1.852H22.898l.683.683.682.682 2.751-.756 2.752-.756.067-8.856.067-8.856-.526.86-.527.86h-.567l.686-1.125.686-1.125.255-.396.255-.397.256.397.255.396.686 1.125.686 1.124h-.567l-.525-.86-.524-.86-.001 8.778v8.777l5.225-1.73 5.225-1.728 3.439-3.41 3.438-3.41-.923.264-.923.265h-.136v-.509l1.37-.407 1.372-.407h.492l-.171.992-.17.992-.145.728-.144.727h-.494l.166-1.124.165-1.124-3.176 3.175-3.175 3.175-1.861 5.622-1.86 5.622h8.776l8.777-.002-.86-.524-.86-.524v-.567l1.124.685 1.125.686.397.256.397.255-.397.255-.397.256-1.125.685-1.124.686v-.567l.86-.524.86-.525H46.82l-8.875-.002-1.246 2.133-1.246 2.132v.37l6.508 6.48 6.508 6.48-.137-.529-.137-.53-.171-.594-.171-.596h.544l.26.992.26.993.186.766.185.765-.766-.185-.766-.185-.992-.26-.992-.26v-.545l.463.13.463.129.661.179.662.179-6.48-6.508-6.48-6.508-.267-.002-.267-.002-2.05.844-2.05.844v9.278l.001 9.279.524-.86.525-.86h.58l-.602.992-.601.992-.278.463-.277.463zm-4.236-19.288l3.965-.953.003-3.039.003-3.04-3.969 3.963-3.969 3.962v.06zm-4.832.767h.212l3.962-3.969 3.962-3.968H12.347l.11.087.11.087 4.158 3.882 4.158 3.881zm9.571-2.116h.239l1.738-.742 1.739-.742-1.977-1.963-1.977-1.964v5.411zm4.157-1.853h.043l1.088-1.832 1.089-1.832v-.304h-6.205l1.971 1.984 1.971 1.984zM21.32 31.016h8.179l-2.654-2.655-2.655-2.654-5.414 2.555-5.414 2.554-.11.1-.11.1zm12.687 0h3.441l1.643-4.946 1.644-4.945-.073-.072-.072-.072-5.012 5.017-5.012 5.018zm-4.166-3.602l.075-3.084-.096-.096-.096-.096-1.302.377-1.301.378-1.165.304-1.164.304L27.278 28l2.488 2.499zm5.208-1.68l4.62-4.615-.072-.073-.073-.072-4.548 1.51-4.548 1.51v6.354zM6.263 54.563H5.91l.264-1.456.263-1.455h.741l-.168.53-.167.528h.3l.529-.529.53-.529H9.46l.326.393.326.394-.162.646-.162.647-.43.43-.43.43-.688-.081-.688-.08-.294-.595-.295-.593-.175.175-.174.174v.97zm2.018-.53h.344l.318-.317.317-.318v-1.217H8.26l-.16.419-.162.418V54.034zm4.132.525l-.419.004-.176-.176-.176-.176v-.351l.568.02.569.022.115-.33.115-.332h-.838v-.529h.794v-.585l-.42.16-.418.161.11-.33.11-.332h1.279l-.091 1.19-.092 1.192-.305.194-.306.194-.419.004zm34.596.004h-.352l.264-1.455.263-1.455h.741l-.168.53-.168.528h.3l.53-.529.529-.529h1.258l.327.393.326.394-.162.646-.162.647-.43.43-.43.43-.688-.081-.688-.08-.295-.595-.294-.593-.175.174-.175.175v.97zm2.018-.529h.344l.318-.317.317-.318v-1.217h-1.001l-.161.419-.16.418V54.034zm4.035.53h-.849l.264-1.456.264-1.455h1.732l.163.265.164.264-.207.33-.208.332.079.478.079.48-.317.38-.316.381zm.265-.57l.472-.092.118-.356.119-.356-.472.091-.471.092-.119.356-.118.356zm.251-1.283h.397v-.529h-.794v.529zM10.7 53.77h-.677l.163-.265.164-.265H11.377v.53zm40.746 0h-.677l.163-.265.164-.265H52.123v.53zM16.479 42.653l-1.265-.004.353-.224.354-.224-.09-.607-.088-.607.365-.125.366-.124-.121.827-.122.828h1.2l.164-.265.163-.265h-.825v-.22l.16-.42.161-.418.567.03.567.032-.463.12-.463.122v.446l.313.104.312.104-.172.447-.171.447zm10.817-.26h-.485l-.17-.17-.168-.169.184-.294.184-.293.007-.397.007-.397.632-.09.633-.089-.166.619-.166.618-.004.33-.004.332zm-.044-.265h.265v-.529h-.53v.529zm.176-.882l.177-.176-.177-.177-.176-.176v.705zm7.541-1.235h-.485l-.17-.169-.168-.17.184-.293.184-.294.007-.397.007-.396.632-.09.633-.09-.166.62-.166.618-.004.33-.004.331zm-.044-.264h.265v-.529h-.53v.529zm.176-.882l.177-.177-.177-.176-.176-.176v.705zm4.791-4.956l-.601-.017.661-.288.662-.288-.463-.111-.464-.112v-.771l.415-.16.415-.158.256.256.257.257-.268.704-.268.705-.602-.017zm.309-1.041h.28v-.53h-.233l-.164.265-.163.265zm-39.43-.27l-.418.005-.177-.176L0 32.25V31.9l.569.021.568.021.115-.33.115-.331H.529v-.529h.794v-.586l-.42.16-.418.162.11-.331.11-.331h1.28l-.092 1.19-.091 1.191-.306.194-.305.195-.42.004zm58.111.005h-.848l.264-1.455.263-1.455h1.733l.163.264.164.265-.208.33-.207.331.079.479.079.479-.317.38-.316.382zm.266-.57l.472-.092.118-.356.119-.356-.472.092-.471.091-.119.356-.118.356zm.251-1.282h.397v-.529h-.794v.529zm-52.19-.533l-.594.004v-.356l.452-.5.453-.5-.387-.244-.386-.244.595-.004.595-.004v.729l-.409.34-.41.34.344.217.343.218zm1.415-.017l-.769.02.398-.462.398-.463.216-.376.216-.376-.507.193-.506.193.313-.315.313-.316.443.17.443.17-.418.64-.42.639.325.13.324.132-.769.02zm16.062-6.594h-.344V22.592l.16-.418.16-.419h1.002v1.217l-.317.318-.317.317zm.154-.264h.234l.152-.584.153-.584-.136-.136-.136-.136-.247.389-.246.39-.004.33-.004.33zm7.527-2.117h-.454l.514-.389.514-.388-.463-.008-.463-.008v-.81l.414-.16.415-.159.292.293.293.292-.305.67-.304.668zm.353-1.147l.177-.176-.177-.176-.176-.177v.706zm11.367.087l-.496.001.314-.377.313-.377-.083-.455-.082-.456.313-.11.313-.109-.048.941-.049.941-.495.001zm1.17-.03l-.41-.03.463-.12.463-.122v-.446l-.312-.104-.312-.104.171-.447.172-.448h.81v1.218l-.317.317-.318.318zm.516-1.027h.264v-.529h-.529v.529zM8.172 10.59l-.651.078-.189-.189-.188-.188V8.909l.422-.604.423-.603.702.081.702.081-.133.26-.132.26-.446-.075-.447-.075-.301.563-.302.564.156.406.156.406.541-.141.541-.142-.102.31-.101.31zm3.13.05l-.47.003-.153-.396-.152-.397H9.229l.164-.265.163-.264h.837l.321.44.322.44.435-.168.435-.167V9.32h-.794v-.53h.794v-.585l-.419.16-.419.161.11-.33.11-.332h1.28l-.092 1.19-.091 1.192-.306.194-.305.194zm37.086-.05l-.65.078-.19-.189-.188-.188V8.909l.423-.604.422-.603.702.081.702.081-.132.26-.132.26-.447-.075-.446-.075-.302.563-.301.564.156.406.156.406.54-.141.542-.142-.102.31-.102.31zm3.35.054h-.848l.264-1.456.264-1.455h1.732l.164.265.163.264-.207.331-.208.33.079.48.079.478-.317.381-.316.382zm.266-.57l.472-.092.118-.356.119-.356-.472.092-.471.09-.119.357-.118.356zm.251-1.283h.397v-.529h-.794v.529zM50.123 9.85h-.677l.163-.265.164-.264H50.8v.529zM30.397 2.916l-.651.078-.189-.189-.188-.188V1.235l.422-.603.423-.603.702.081.702.082-.133.26-.132.26-.446-.076-.447-.075-.301.563-.302.564.156.406.156.407.541-.142.541-.141-.102.31-.101.31z" fill="#fda1a1"/><path d="M28.488 61.707h-.352l.264-1.455.263-1.455h.741l-.168.529-.167.53h.3l.529-.53.53-.53h1.258l.326.394.326.394-.162.646-.162.646-.43.43-.43.43-.688-.08-.688-.081-.294-.594-.295-.594-.175.175-.174.175v.97zm2.018-.529h.344l.318-.317.317-.318v-1.217h-1.001l-.16.418-.162.419V61.178zm-.344-3.175h-.137l-.277-.463-.278-.463-.601-.992-.602-.992h.58l.525.86.524.86v-9.195l.002-9.194h-.276l-4.32 1.081-4.32 1.081-4.339 4.373-4.34 4.374 1.125-.166L14.552 49v.493l-.728.145-.727.144-.992.17-.993.171v-.492l.408-1.37.407-1.371h.508v.135l-.264.921-.264.92 4.365-4.358 4.365-4.36v-.104l-4.545-4.25-4.545-4.25H8.089l-3.459.002.86.524.86.524v.567l-1.125-.685-1.124-.686-.397-.256-.397-.255.397-.255.397-.256 1.124-.685 1.125-.686v.567l-.86.524-.86.524 3.44.004 3.44.004 6.019-2.84 6.019-2.84V25.058L17.7 19.24l-5.847-5.818.138.529.137.529.17.595.172.595h-.544l-.26-.992-.26-.992-.186-.766-.185-.766.766.186.766.185.992.26.992.26v.544l-.53-.15-.528-.15-.596-.158-.595-.158 5.157 5.185 5.157 5.185h.605l.138-.529.138-.529h-.511l.164-.265.163-.264h.631v1.852H22.898l.702.701.7.701 2.8-.741 2.798-.742-.001-8.89-.001-8.888-.524.86-.525.86h-.567l.686-1.125.686-1.125.255-.396.255-.397.256.397.255.396.686 1.125.686 1.124h-.567l-.525-.86-.524-.86-.001 8.784-.001 8.784.728-.237.727-.238 4.498-1.463 4.498-1.464 3.435-3.444 3.435-3.444-.92.264-.92.264h-.135v-.509l1.37-.407 1.372-.407h.492l-.171.992-.17.992-.145.728-.144.727h-.494l.167-1.124.166-1.124-3.211 3.175-3.21 3.175-1.73 5.291-1.73 5.292-.11.33-.108.331h8.789l8.789-.002-.86-.524-.86-.524v-.567l1.125.685 1.124.686.397.256.397.255-.397.255-.397.256-1.124.685-1.125.686v-.567l.86-.524.86-.525H46.79l-8.904-.002-1.216 2.074-1.216 2.074v.487l6.508 6.48 6.508 6.48-.137-.529-.137-.53-.17-.594-.172-.596h.544l.26.992.26.993.186.766.185.765-.766-.185-.766-.185-.992-.26-.992-.26v-.545l.463.13.463.129.661.179.662.179-6.587-6.615-6.588-6.616-2.136.901-2.136.901h-.148l.001 9.327.001 9.326.524-.86.525-.86h.58l-.602.993-.601.992-.278.463-.277.463zM25.073 35.69l4.039-4.013-4.088-.073-4.089-.073-4.246.073-4.247.073 4.296 4.013 4.296 4.014zm-2.782 3.992l.33-.122 3.639-.889 3.638-.889v-6.098l-3.969 3.962-3.969 3.962v.195zm10.038-2.866l1.901-.784.075-.075.075-.075-1.976-1.964-1.977-1.963V37.6zm2.503-1.303h.053l1.205-1.984 1.205-1.984h-6.458l1.971 1.984 1.972 1.984zm-13.535-4.51l8.2.013-2.675-2.676-2.676-2.676-4.466 2.106-4.466 2.107-1.059.557-1.058.558 8.2.012zm12.748.013h3.48l1.722-5.16 1.723-5.16h-.097l-5.154 5.16-5.154 5.16zm-4.205-3.602l.075-3.084-.117-.117-.117-.118-2.075.565-2.074.565-.38.128-.381.128 2.497 2.509 2.498 2.509zm.656 2.808h.069l4.758-4.764 4.758-4.764-4.827 1.612-4.827 1.612v6.304zM6.263 54.563H5.91l.264-1.455.263-1.455h.741l-.168.53-.167.528h.3l.529-.529.53-.529H9.46l.326.393.326.394-.162.646-.162.647-.43.43-.43.43-.688-.081-.688-.08-.294-.595-.295-.593-.175.175-.174.174v.97zm2.018-.529h.344l.318-.317.317-.318v-1.217H8.26l-.16.419-.162.418V54.034zm4.132.525l-.419.004-.176-.176-.176-.176v-.351l.568.02.569.022.115-.33.115-.332h-.838v-.529h.794v-.585l-.42.16-.418.161.11-.33.11-.332h1.279l-.091 1.19-.092 1.192-.305.194-.306.194-.419.004zm34.596.004h-.352l.264-1.455.263-1.455h.741l-.168.53-.168.528h.3l.53-.529.529-.529h1.258l.327.393.326.394-.162.646-.162.647-.43.43-.43.43-.688-.081-.688-.08-.295-.595-.294-.593-.175.174-.175.175v.97zm2.018-.529h.344l.318-.317.317-.318v-1.217h-1.001l-.161.419-.16.418V54.034zm4.035.53h-.849l.264-1.456.264-1.455h1.732l.163.265.164.264-.207.33-.208.332.079.478.079.48-.317.38-.316.381zm.265-.57l.472-.092.118-.356.119-.356-.472.091-.471.092-.119.356-.118.356zm.251-1.283h.397v-.529h-.794v.529zM10.7 53.77h-.677l.163-.265.164-.265H11.377v.53zm40.746 0h-.677l.163-.265.164-.265H52.123v.53zM16.479 42.653l-1.265-.004.353-.224.354-.224-.09-.607-.088-.607.365-.125.366-.124-.121.827-.122.828h1.2l.164-.265.163-.265h-.825v-.22l.16-.42.161-.418.567.03.567.032-.463.12-.463.122v.446l.313.104.312.104-.172.447-.171.447zm10.817-.26h-.485l-.17-.17-.168-.169.184-.294.184-.293.007-.397.007-.397.632-.09.633-.089-.166.619-.166.618-.004.33-.004.332zm-.044-.265h.265v-.529h-.53v.529zm.176-.882l.177-.176-.177-.177-.176-.176v.705zm7.541-1.235h-.485l-.17-.169-.168-.17.184-.293.184-.294.007-.397.007-.396.632-.09.633-.09-.166.62-.166.618-.004.33-.004.331zm-.044-.264h.265v-.529h-.53v.529zm.176-.882l.177-.177-.177-.176-.176-.176v.705zm4.791-4.956l-.601-.017.661-.288.662-.288-.463-.111-.464-.112v-.771l.415-.16.415-.158.256.256.257.257-.268.704-.268.705-.602-.017zm.309-1.041h.28v-.53h-.233l-.164.265-.163.265zm-39.43-.27l-.418.005-.177-.176L0 32.25V31.9l.569.021.568.021.115-.33.115-.331H.529v-.529h.794v-.586l-.42.16-.418.162.11-.331.11-.331h1.28l-.092 1.19-.091 1.191-.306.194-.305.195-.42.004zm58.111.005h-.848l.264-1.455.263-1.455h1.733l.163.264.164.265-.208.33-.207.331.079.479.079.479-.317.38-.316.382zm.266-.57l.472-.092.118-.356.119-.356-.472.092-.471.091-.119.356-.118.356zm.251-1.282h.397v-.529h-.794v.529zm-52.19-.533l-.594.004v-.356l.452-.5.453-.5-.387-.244-.386-.244.595-.004.595-.004v.729l-.409.34-.41.34.344.217.343.218zm1.415-.017l-.769.02.398-.462.398-.463.216-.376.216-.376-.507.193-.506.193.313-.315.313-.316.443.17.443.17-.418.64-.42.639.325.13.324.132-.769.02zm16.062-6.594h-.344V22.592l.16-.418.16-.419h1.002v1.217l-.317.318-.317.317zm.154-.264h.234l.152-.584.153-.584-.136-.136-.136-.136-.247.389-.246.39-.004.33-.004.33zm7.527-2.117h-.454l.514-.389.514-.388-.463-.008-.463-.008v-.81l.414-.16.415-.159.292.293.293.292-.305.67-.304.668zm.353-1.147l.177-.176-.177-.176-.176-.177v.706zm11.367.087l-.496.001.314-.377.313-.377-.083-.455-.082-.456.313-.11.313-.109-.048.941-.049.941-.495.001zm1.17-.03l-.41-.03.463-.12.463-.122v-.446l-.312-.104-.312-.104.171-.447.172-.448h.81v1.218l-.317.317-.318.318zm.516-1.027h.264v-.529h-.529v.529zM8.172 10.59l-.651.078-.189-.189-.188-.188V8.909l.422-.604.423-.603.702.081.702.081-.133.26-.132.26-.446-.075-.447-.075-.301.563-.302.564.156.406.156.406.541-.141.541-.142-.102.31-.101.31zm3.13.05l-.47.003-.153-.396-.152-.397H9.229l.164-.265.163-.264h.837l.321.44.322.44.435-.168.435-.167V9.32h-.794v-.53h.794v-.585l-.419.16-.419.161.11-.33.11-.332h1.28l-.092 1.19-.091 1.192-.306.194-.305.194zm37.086-.05l-.65.078-.19-.189-.188-.188V8.909l.423-.604.422-.603.702.081.702.081-.132.26-.132.26-.447-.075-.446-.075-.302.563-.301.564.156.406.156.406.54-.141.542-.142-.102.31-.102.31zm3.35.054h-.848l.264-1.456.264-1.455h1.732l.164.265.163.264-.207.331-.208.33.079.48.079.478-.317.381-.316.382zm.266-.57l.472-.092.118-.356.119-.356-.472.092-.471.09-.119.357-.118.356zm.251-1.283h.397v-.529h-.794v.529zM50.123 9.85h-.677l.163-.265.164-.264H50.8v.529zM30.397 2.916l-.651.078-.189-.189-.188-.188V1.235l.422-.603.423-.603.702.081.702.082-.133.26-.132.26-.446-.076-.447-.075-.301.563-.302.564.156.406.156.407.541-.142.541-.141-.102.31-.101.31z" fill="#fd5f5f"/><path d="M28.488 61.707h-.352l.264-1.455.263-1.455h.741l-.168.529-.167.53h.3l.529-.53.53-.53h1.258l.326.394.326.394-.162.646-.162.646-.43.43-.43.43-.688-.08-.688-.081-.294-.594-.295-.594-.175.175-.174.175v.97zm2.018-.529h.344l.318-.317.317-.318v-1.217h-1.001l-.16.418-.162.419V61.178zm-.344-3.175h-.137l-.277-.463-.278-.463-.601-.992-.602-.992h.58l.525.86.524.86v-9.195l.002-9.194h-.477l-3.87.926-3.87.926h-.693L16.3 35.91l-4.69-4.365H8.12l-3.49.002.86.524.86.524v.567l-1.125-.685-1.124-.686-.397-.256-.397-.255.397-.255.397-.256 1.124-.685 1.125-.686v.567l-.86.524-.86.524 3.56.001 3.562.001 5.964-2.816 5.964-2.817.056-.04.057-.04-5.97-5.94-5.969-5.941.138.529.137.529.17.595.172.596h-.544l-.26-.993-.26-.992-.186-.766-.185-.766.766.186.766.185.992.26.992.26v.545l-.53-.15-.528-.15-.596-.159-.595-.158 5.157 5.185 5.157 5.185h.605l.138-.529.138-.529h-.511l.164-.264.163-.265h.631v1.852h-.967l.616.754.615.754 1.72-.467 1.72-.466 1.124-.298 1.125-.297-.001-8.92-.001-8.92-.524.86-.525.86h-.567l.686-1.124.686-1.125.255-.396.255-.397.256.397.255.396.686 1.125.685 1.124h-.566l-.525-.86-.524-.86-.001 8.826-.001 8.826.399-.153.399-.153 4.959-1.64 4.959-1.64 3.292-3.39 3.292-3.392-.909.261-.91.26h-.135v-.508l1.371-.407 1.37-.407h.493l-.17.992-.172.992-.144.728-.144.728h-.494l.167-1.125.166-1.124-3.273 3.238-3.273 3.238-1.686 5.229-1.687 5.228-.12.33-.121.331h8.82l8.819-.002-.86-.524-.86-.524v-.567l1.125.686 1.124.685.397.256.397.255-.397.255-.397.256-1.124.685-1.125.686v-.567l.86-.524.86-.525h-8.926l-8.927-.002-.613.993-.614.992-.696 1.21-.696 1.208 6.624 6.596 6.623 6.596-.137-.529-.137-.53-.17-.594-.172-.596h.544l.26.993.26.992.186.766.185.765-.766-.185-.766-.185-.992-.26-.992-.26v-.545l.463.13.463.129.662.178.661.179-6.627-6.652-6.627-6.652-2.104.898-2.105.898-.067 9.366-.067 9.367.526-.86.527-.86h.58l-.602.993-.601.992-.278.463-.277.463zm-8.598-17.992h.132v-.264h-.265v.264zm3.509-4.312l4.039-4.022-4.088-.073-4.089-.073-4.288.073-4.29.073 4.339 4.022 4.338 4.023zm-2.977 4.039l.261-.01 3.645-.88 3.645-.88.135-.133.134-.135-.075-2.95-.075-2.95-3.966 3.974-3.965 3.973.261-.01zm8.662-2.182l.33-.132 1.784-.737 1.784-.737-.071-.02-.072-.02-2.043-1.977-2.043-1.978v5.732l.33-.131zm4.16-2.044l.14-.002.412-.726.413-.726.737-1.257.737-1.257h-6.52l1.971 1.985 1.971 1.984.14-.002zm-13.753-4.515l8.333.019-2.693-2.693-2.693-2.693-1.936.89-1.935.892-3.705 1.783-3.704 1.784 8.333.018zm12.944-.041l3.549-.073 1.672-5.009 1.672-5.01-.074-.073-.074-.075-5.147 5.156-5.148 5.156zm-4.269-3.542l.075-3.084-.136-.136-.135-.136-2.32.612-2.32.612-.12.097-.118.097 2.5 2.511 2.5 2.512zm5.333-1.81l4.76-4.75-.075-.075-.074-.074-4.612 1.54-4.613 1.54-.073 3.284-.072 3.285zm-28.91 28.96H5.91l.264-1.456.263-1.455h.741l-.168.53-.167.528h.3l.529-.529.53-.529H9.46l.326.393.326.394-.162.646-.162.647-.43.43-.43.43-.688-.081-.688-.08-.294-.595-.295-.593-.175.175-.174.174v.97zm2.018-.53h.344l.318-.317.317-.318v-1.217H8.26l-.16.419-.162.418V54.034zm4.132.525l-.419.004-.176-.176-.176-.176v-.351l.568.02.569.022.115-.33.115-.332h-.838v-.529h.794v-.585l-.42.16-.418.161.11-.33.11-.332h1.279l-.091 1.19-.092 1.192-.305.194-.306.194-.419.004zm34.596.004h-.352l.264-1.455.263-1.455h.741l-.168.53-.168.528h.3l.53-.529.529-.529h1.258l.327.393.326.394-.162.646-.162.647-.43.43-.43.43-.688-.081-.688-.08-.295-.595-.294-.593-.175.174-.175.175v.97zm2.018-.529h.344l.318-.317.317-.318v-1.217h-1.001l-.161.419-.16.418V54.034zm4.035.53h-.849l.264-1.456.264-1.455h1.732l.163.265.164.264-.207.33-.208.332.079.478.079.48-.317.38-.316.381zm.265-.57l.472-.092.118-.356.119-.356-.472.091-.471.092-.119.356-.118.356zm.251-1.283h.397v-.529h-.794v.529zM10.7 53.77h-.677l.163-.265.164-.265H11.377v.53zm40.746 0h-.677l.163-.265.164-.265H52.123v.53zm-39.341-3.816l-.993.17v-.492l.408-1.37.407-1.372h.508v.136l-.264.921-.264.92 4.356-4.349 4.355-4.35.196.196.195.196-4.353 4.386-4.353 4.387 1.125-.166L14.552 49v.493l-.728.145-.727.144zm4.374-7.3l-1.265-.005.353-.224.354-.224-.09-.607-.088-.607.365-.125.366-.124-.121.827-.122.828h1.2l.164-.265.163-.265h-.825v-.22l.16-.42.161-.418.567.03.567.032-.463.12-.463.122v.446l.313.104.312.104-.172.447-.171.447zm10.817-.261h-.485l-.17-.17-.168-.169.184-.294.184-.293.007-.397.007-.397.632-.09.633-.089-.166.619-.166.618-.004.33-.004.332zm-.044-.265h.265v-.529h-.53v.529zm.176-.882l.177-.176-.177-.177-.176-.176v.705zm7.541-1.235h-.485l-.17-.169-.168-.17.184-.293.184-.294.007-.397.007-.396.632-.09.633-.09-.166.62-.166.618-.004.33-.004.331zm-.044-.264h.265v-.529h-.53v.529zm.176-.882l.177-.177-.177-.176-.176-.176v.705zm4.791-4.956l-.601-.017.661-.288.662-.288-.463-.111-.464-.112v-.771l.415-.16.415-.158.256.256.257.257-.268.704-.268.705-.602-.017zm.309-1.041h.28v-.53h-.233l-.164.265-.163.265zm-39.43-.27l-.418.005-.177-.176L0 32.25V31.9l.569.021.568.021.115-.33.115-.331H.529v-.529h.794v-.586l-.42.16-.418.162.11-.331.11-.331h1.28l-.092 1.19-.091 1.191-.306.194-.305.195-.42.004zm58.111.005h-.848l.264-1.455.263-1.455h1.733l.163.264.164.265-.208.33-.207.331.079.479.079.479-.317.38-.316.382zm.266-.57l.472-.092.118-.356.119-.356-.472.092-.471.091-.119.356-.118.356zm.251-1.282h.397v-.529h-.794v.529zm-52.19-.533l-.594.004v-.356l.452-.5.453-.5-.387-.244-.386-.244.595-.004.595-.004v.729l-.409.34-.41.34.344.217.343.218zm1.415-.017l-.769.02.398-.462.398-.463.216-.376.216-.376-.507.193-.506.193.313-.315.313-.316.443.17.443.17-.418.64-.42.639.325.13.324.132-.769.02zm16.062-6.594h-.344V22.592l.16-.418.16-.419h1.002v1.217l-.317.318-.317.317zm.154-.264h.234l.152-.584.153-.584-.136-.136-.136-.136-.247.389-.246.39-.004.33-.004.33zm7.527-2.117h-.454l.514-.389.514-.388-.463-.008-.463-.008v-.81l.414-.16.415-.159.292.293.293.292-.305.67-.304.668zm.353-1.147l.177-.176-.177-.176-.176-.177v.706zm11.367.087l-.496.001.314-.377.313-.377-.083-.455-.082-.456.313-.11.313-.109-.048.941-.049.941-.495.001zm1.17-.03l-.41-.03.463-.12.463-.122v-.446l-.312-.104-.312-.104.171-.447.172-.448h.81v1.218l-.317.317-.318.318zm.516-1.027h.264v-.529h-.529v.529zM8.172 10.59l-.651.078-.189-.189-.188-.188V8.909l.422-.604.423-.603.702.081.702.081-.133.26-.132.26-.446-.075-.447-.075-.301.563-.302.564.156.406.156.406.541-.141.541-.142-.102.31-.101.31zm3.13.05l-.47.003-.153-.396-.152-.397H9.229l.164-.265.163-.264h.837l.321.44.322.44.435-.168.435-.167V9.32h-.794v-.53h.794v-.585l-.419.16-.419.161.11-.33.11-.332h1.28l-.092 1.19-.091 1.192-.306.194-.305.194zm37.086-.05l-.65.078-.19-.189-.188-.188V8.909l.423-.604.422-.603.702.081.702.081-.132.26-.132.26-.447-.075-.446-.075-.302.563-.301.564.156.406.156.406.54-.141.542-.142-.102.31-.102.31zm3.35.054h-.848l.264-1.456.264-1.455h1.732l.164.265.163.264-.207.331-.208.33.079.48.079.478-.317.381-.316.382zm.266-.57l.472-.092.118-.356.119-.356-.472.092-.471.09-.119.357-.118.356zm.251-1.283h.397v-.529h-.794v.529zM50.123 9.85h-.677l.163-.265.164-.264H50.8v.529zM30.397 2.916l-.651.078-.189-.189-.188-.188V1.235l.422-.603.423-.603.702.081.702.082-.133.26-.132.26-.446-.076-.447-.075-.301.563-.302.564.156.406.156.407.541-.142.541-.141-.102.31-.101.31z" fill="#8e8e8e"/><path d="M28.538 61.598l-.3.186.182-1.03.183-1.031.136-.463.136-.463h.444l-.138.529-.139.53h.509l.48-.53.478-.53h1.222l.274.513.274.511-.237.624-.237.623-.41.34-.41.34-.61-.086-.61-.086-.084-.595-.084-.596h-.757V61.411zm2.16-.42h.504l.294-.55.295-.55-.145-.376-.144-.376h-1.088l-.26.684-.26.683.15.243.15.242zm-.536-3.44h-.214l-.71-1.21-.71-1.212.136-.136.137-.137.482.885.483.884.07-9.102.069-9.103-.115-.115-.115-.115-4.32.994-4.32.994-4.498 4.387-4.498 4.387 4.418-4.497 4.418-4.498-4.633-4.3-4.634-4.3H4.763v.252l.818.423.818.423-.136.136-.136.136-1.211-.71-1.212-.71v-.428l1.212-.71 1.211-.71.136.136.136.136-.884.483-.885.482 3.544.074 3.544.074 5.981-2.824 5.981-2.825.12-.103.12-.104-5.94-6.01-5.941-6.009 6.085 5.991 6.085 5.991 2.742-.75 2.741-.751.107-.107.106-.106-.07-8.838-.07-8.838-.482.884-.482.885-.137-.136-.136-.136.71-1.212.71-1.211h.429l.71 1.211.71 1.212-.136.136-.137.136-.482-.885-.483-.884-.07 8.705-.07 8.706.079.078.078.078 5.283-1.715 5.284-1.715 3.44-3.365 3.439-3.364-3.104 3.175-3.103 3.175-1.843 5.681-1.843 5.681.077.078.078.077 8.705-.07 8.706-.07-.885-.482-.884-.483.136-.136.136-.136 1.211.71 1.212.71v.428l-1.212.71-1.211.71-.136-.136-.136-.136.884-.482.885-.483-8.73-.07-8.729-.07-.297.114-.297.114-1.254 2.175-1.255 2.175 6.577 6.645 6.576 6.644-6.658-6.59-6.658-6.59-2.17.897-2.172.896-.104.271-.104.272.07 9.126.07 9.126.482-.884.482-.884.136.136.137.136-.71 1.211-.71 1.212zm-5.528-18.564l3.28-.777.992-.261.992-.262V31.42l-4.3 4.23-4.299 4.23 4.098-4.167 4.098-4.167-8.596.012-8.596.013 1.984 1.869 1.985 1.87 2.541 2.32 2.541 2.322 3.28-.777zm6.124-1.618l.33-.132 1.796-.741 1.795-.742-2.06-2.132-2.06-2.132 1.991 1.918 1.99 1.918.259-.004.258-.004 1.114-1.914 1.114-1.914-3.083-.075-3.083-.075-.346.133-.346.133v5.894zm-9.44-6.603l8.448-.07.074-3.373.074-3.374h-.644l-2.001.545-2.001.544-.381.128-.381.128 2.63 2.701 2.63 2.701-2.651-2.58-2.65-2.58h-.614l-5.377 2.537-5.377 2.535-.114.114-.114.114zm12.658.002l3.682-.072 1.677-5.024 1.677-5.025-.068-.203-.067-.203-5.291 5.3-5.291 5.3zm1.341-5.23l4.904-4.895-.204-.068-.203-.067-4.627 1.544-4.628 1.545-.072 3.417-.073 3.417 4.903-4.894zM6.313 54.452l-.3.187.182-1.03.183-1.031.136-.463.136-.463h.444l-.138.529-.139.529h.509l.48-.53.478-.528h1.222l.274.512.274.511-.237.624-.237.623-.41.34-.41.34-.61-.086-.61-.086-.084-.596-.084-.595h-.757V54.267zm2.16-.42h.504l.294-.549.295-.55-.145-.376-.144-.376H8.189l-.26.683-.26.684.15.243.15.242zm3.974.53h-.453l-.176-.176-.176-.177v-.367l.661.126.662.127v-.856h-.794v-.467l.595-.197.595-.197-.599-.117-.599-.118.152-.246.152-.245h.996l.163.264.164.265-.208.33-.207.331.078.48.08.478-.317.381-.316.381zm34.612-.11l-.301.187.183-1.03.183-1.031.136-.463.136-.463h.444l-.138.529-.139.529h.509l.479-.53.479-.528h1.222l.274.512.274.511-.237.624-.237.623-.41.34-.41.34-.61-.086-.61-.086-.084-.596-.085-.595h-.757V54.267zm2.16-.42h.504l.294-.549.295-.55-.145-.376-.144-.376h-1.088l-.26.683-.26.684.15.243.15.242zm3.9.53h-.79l.175-.992.176-.992.141-.479.141-.478.705.081.705.082.057 1.042.058 1.041-.289.348-.288.347zm.327-.53h.529v-.793h-1.058v.794zm.117-1.322h.38l.164-.265.164-.264h-1.09v.529zM10.7 53.769h-.381v-.529h1.089l-.163.265-.164.264zm40.746 0h-.381v-.529h1.089l-.163.265-.164.264zm-2.432-3.47l-.198-.032-1.588-.487-1.587-.487 1.323.055 1.322.056-.057-1.323-.058-1.323.512 1.72.51 1.72.01.066.009.066-.199-.032zm-37.058-.401l-.877.16.155-.488.155-.49.386-1.16.385-1.162-.132.957-.132.956.152.398.153.399 1.242-.093 1.241-.093-.926.227-.926.227zm3.787-7.246l-.53-.004.342-.217.342-.217.234-.77.233-.772-.046.992-.046.991-.53-.004zm1.645-.091l-.465.042.402-.125.402-.124v-.447l-.33-.133-.331-.134.482-.02.482-.021-.088.46-.089.46-.465.042zm9.744-.209l-.48.093.187-.754.186-.754.223-.228.223-.229.264.164.264.163-.194.727-.194.726zm.12-.224h.265v-.529h-.53v.529zm.117-.794h.116l.164-.265.163-.264h-.56v.529zm-9.774-.169l-.397.152v-.512h.794v.208zm17.21-1.194l-.48.092.187-.753.186-.754.223-.229.222-.228.265.164.264.163-.194.726-.194.727zm.12-.225h.265v-.529h-.53v.529zm.117-.793h.116l.164-.265.163-.264h-.56v.529zm4.659-5.044l-.41-.017.661-.288.662-.288-.479-.114-.478-.115.085-.437.084-.438.46-.089.46-.088v1.256l-.318.317-.317.318-.41-.017zm.516-1.042h.264v-.529h-.529v.529zM.805 32.603H.353l-.177-.177L0 32.25v-.368l.661.127.662.126v-.855H.529v-.468l.595-.196.596-.197-.6-.118-.599-.117.152-.246.152-.246h.996l.163.265.164.264-.208.331-.207.33.079.48.079.478-.317.382-.316.38zm58.135 0h-.79l.175-.992.176-.993.141-.478.14-.478.706.081.705.082.057 1.041.058 1.042-.289.347-.288.348zm.327-.53h.529v-.793H58.737v.794zm.116-1.322h.382l.163-.265.164-.265h-1.09v.53zM7.21 30.2l-.595.02v-.472l.426-.164.427-.164-.137-.526-.138-.526h.392l.177.178.177.177-.39.597-.392.596.324.132.324.13-.595.022zm1.409.002l-.774.018.635-.675.634-.676-.39-.246-.39-.247.463-.004.463-.004v.729l-.422.35-.423.351.489.193.489.192-.774.019zm14.71-6.597h-.375l.272-.33.271-.331.128-.661.128-.662-.024.992-.025.992h-.375zm1.592 0h-.227l-.176-.176-.176-.176v-.906l.408-.338.408-.339.299.3.3.298-.306.669-.304.668zm-.068-.264h.247l.174-.55.174-.548-.139-.14-.138-.138-.283.174-.282.175V23.342zm7.483-2.147l-.454-.031.463-.121.463-.121v-.434l-.392-.15-.392-.151.156-.407.156-.407h.754l.144.376.144.377-.294.55-.294.55zm.324-1.028h.413v-.529h-.498l-.164.264-.163.265zm11.393-.021l-.529-.02.33-.134.331-.134V18.315h.397v1.852zm1.204.004l-.41-.017.661-.288.662-.288-.478-.114-.478-.115.084-.437.084-.438.46-.089.46-.088v1.256l-.317.317-.318.318-.41-.017zm.516-1.042h.264v-.529h-.529v.529zm-33.705-3.44h-.099l-.308-1.256-.308-1.257-.141-.473-.142-.473.749.183.749.183 1.058.332 1.058.333-1.323-.042-1.322-.043.064 1.257.064 1.257zm36.47-1.587l-.363 1.72.088-1.241.087-1.242-.398-.153-.398-.153-.957.135-.956.134 1.576-.515 1.576-.515.054.055.053.056zM8.29 10.588l-.531.08-.331-.4-.331-.398.177-.807.177-.807.49-.262.49-.263h.829v.529h-.993l-.319.385-.319.384.096.476.097.475.594-.022.594-.021-.094.286-.094.286zm3.099.054h-.453l-.176-.177-.177-.176v-.368l.662.127.661.126V9.32h-.794V8.85l.596-.196.595-.197-.6-.118-.598-.117.151-.246.152-.246h.996l.164.265.163.265-.207.33-.208.331.08.479.078.479-.316.38-.317.382zm37.118-.054l-.531.08-.331-.4-.331-.398.177-.807.177-.807.49-.262.49-.263h.829v.529h-.993l-.32.385-.318.384.096.476.096.475.595-.022.594-.021-.094.286-.094.286zm3.29.054h-.791l.176-.992.175-.993.141-.478.141-.478.705.081.705.082.057 1.041.058 1.042-.289.347-.288.348zm.326-.53h.53V9.32h-1.06v.794zm.117-1.322h.38l.164-.265.164-.264h-1.09v.529zM9.906 9.848h-.381v-.529h1.09l-.164.264-.163.265zm40.217 0h-.381v-.529h1.089l-.163.264-.164.265zM30.515 2.915l-.531.08-.331-.4-.331-.398.177-.807.177-.807.49-.262.49-.263h.829v.53h-.993l-.319.384-.319.384.096.476.097.475.594-.021.594-.022-.094.286-.094.287z" fill="#676767"/><path d="M28.651 61.112l-.29.727.15-.926.151-.926.198-.661.199-.662.022.596.023.595h.577l.46-.569.461-.569.706.177.707.177v1.578l-.53.529-.529.53h-1.048l-.166-.662-.166-.662h-.634l-.29.728zm1.876.066h.629l.319-.384.319-.384-.091-.473-.091-.473-.473-.09-.473-.092-.384.32-.384.318v1.259zm-24.1-7.21l-.291.728.15-.926.151-.926.198-.662.199-.661.022.595.023.595h.577l.46-.569.461-.569.706.177.707.178v1.578l-.53.528-.529.53H7.683l-.166-.662-.166-.662h-.634zm1.875.066h.629l.319-.384.319-.384-.091-.473-.091-.473-.473-.09-.473-.092-.384.32-.384.318v1.258zm4.101.53h-.497v-.53H12.965v-.794h-.794v-.529H13.23v-.529l-.596-.004-.595-.004.396-.256.397-.257.317-.004.317-.004-.032 1.125-.03 1.124-.253.33-.251.332h-.497zm34.77-.596l-.291.728.15-.926.15-.926.2-.662.198-.661.022.595.023.595h.577l.46-.569.461-.569.706.177.706.178v1.577l-.529.53-.529.528H48.43l-.166-.661-.166-.662h-.634l-.29.728zm1.875.066h.629l.319-.384.319-.384-.091-.473-.091-.473-.473-.09-.473-.092-.384.32-.384.318v1.258zm3.982.53h-.643v-.24l.29-1.35.29-1.351.7.08.7.082.064.53.064.529-.15-.331-.15-.33h-.983l-.163.264-.164.264h.984l.318.318.317.317v.386l-.416.416-.415.415zm.351-.579l.726-.083v-.529l-.561-.08-.562-.08-.164.428-.165.428zm-42.665-.215h-.397v-.53h.793v.53zm40.745 0h-.396v-.53h.793v.53zM15.985 42.636l-.507-.02.347-.14.348-.139.16.16.16.16-.508-.02zm1.213.021h-.353l.177-.176.176-.177.176.177.177.176zm10.054-.265H26.9l.177-.176.176-.176.176.176.177.176zm-9.31-.268l-.083-.004-.397-.257-.396-.256.315-.004.315-.004.163.264.164.265-.082-.004zm9.723-.26h-.117l-.189-.306-.189-.306.306.19.305.188v.233zm-11.349-.618l-.176.176v-.705l.176.176.176.177zm1.411-.176h-.353l.177-.177.176-.176.176.176.177.177zm9.79-.265h-.353l.176-.176.177-.177.176.177.176.176zm-6.188-.53h-.34l-4.74-4.405-4.74-4.405-.06-.159-.06-.158 6.41-3.015 6.41-3.015 2.646-.726 2.646-.725 5.689-1.856 5.688-1.856.443-.18.443-.178-1.168 3.659-1.169 3.658-.74 2.25-.74 2.248-.672 1.059-.671 1.058-.74 1.323-.74 1.323-2.679 1.102-2.68 1.102-4.047.948-4.048.949zm4.315-1.35l4.287-1.028 2.43-1.01 2.432-1.011 1.38-2.338 1.38-2.338 1.756-5.268 1.756-5.269-.138-.138-.138-.138-5.644 1.863-5.644 1.864-2.422.647-2.422.647-2.34 1.06-2.341 1.06-3.969 1.9-3.968 1.902 2.116 1.991 2.117 1.992 2.543 2.32 2.543 2.321zm9.281 1.086h-.353l.177-.176.176-.177.176.177.177.176zm.412-.529h-.116l-.189-.305-.189-.306.306.189.305.189v.233zm-.147-1.058h-.353l.176-.177.177-.176.176.176.176.177zm4.762-4.498H39.6l.177-.177.176-.176.176.176.177.177zm.375-.815l-.507-.02.347-.14.347-.139.16.16.16.16-.507-.02zM.76 32.603H.265v-.529h1.058v-.794H.529v-.529H1.588v-.529l-.596-.004-.595-.004.397-.257.397-.256.316-.004.317-.004-.031 1.124-.032 1.125-.251.33-.252.331H.761zm58.09 0h-.643v-.239l.29-1.35.29-1.352.7.081.7.082.064.529.064.53-.15-.332-.15-.33h-.983l-.163.264-.164.265h.984l.317.317.318.318v.385l-.416.416-.416.416zm.351-.578l.726-.084v-.529l-.562-.08-.561-.08-.164.428-.165.429zm-18.853.313h-.132v-.264h.264v.264zM7.144 30.18h-.662l.331-.134.33-.133.331.133.331.134zm1.455.042h-.397v-.513l.397.152.397.153v.208zm.61-1.184l-.148.148-.18-.474-.181-.475.329.327.328.326zm-1.8-.404h-.353l.176-.176.176-.177.177.177.176.176zm15.985-5.048l-.508-.02.348-.14.347-.139.16.16.16.16zm1.477.021h-.353l.176-.176.177-.177.176.177.177.176zm-1.163-1.13l-.16.16.02-.507.022-.507.139.347.139.347zm1.427-.457h-.352l.176-.177.176-.176.177.176.176.177zm7.144-.794h-.353l.177-.177.176-.176.177.176.176.177zm.375-.815l-.507-.02.347-.14.347-.139.16.16.16.16-.507-.02zm11.377-.264l-.507-.021.347-.14.347-.138.16.16.16.16zm1.345.02h-.132v-.264h.264v.265zm-12.568-.529h-.352l.176-.176.176-.176.177.176.176.176zm13.075-.285l-.507-.021.347-.139.348-.139.16.16.16.16zm.022-.773h-.132v-.265h.264v.265zM8.063 10.643h-.372l-.273-.512-.274-.512.237-.624.237-.623.42-.35.422-.35.466.204.467.203-.53.12-.529.12-.33.268-.331.268v1.258h1.089l-.163.265-.164.265zm3.282 0h-.497v-.53H11.907V9.32h-.795v-.53H12.171v-.529l-.596-.004-.595-.004.397-.256.397-.257.317-.004.316-.004-.031 1.125-.031 1.124-.252.331-.252.33zm36.935 0h-.372l-.274-.512-.274-.512.237-.624.237-.623.421-.35.422-.35.466.204.466.203-.529.12-.529.12-.33.268-.331.268v1.258h1.089l-.163.265-.164.265zm3.427 0h-.642v-.239l.29-1.351.289-1.351.7.081.7.081.064.53.064.529-.15-.331-.15-.33h-.983l-.163.264-.164.264h.984l.318.318.317.317v.386l-.416.416-.415.416zm.351-.578l.726-.084v-.529l-.561-.08-.562-.08-.164.428-.165.428zM9.922 9.849h-.397V9.32h.794v.529zm40.216 0h-.396V9.32h.793v.529zm-19.85-6.88h-.372l-.273-.511-.274-.512.237-.624.237-.623.42-.35.422-.349.466.203.467.203-.53.12-.529.12-.33.268-.331.268V2.44h1.089l-.163.265-.164.265z" fill="#fc0a0a"/><path d="M28.651 61.112l-.29.727.15-.926.151-.926.198-.661.199-.662.022.596.023.595h.577l.46-.569.461-.569.706.177.707.177v1.578l-.53.529-.529.53h-1.048l-.166-.662-.166-.662h-.634l-.29.728zm1.876.066h.629l.319-.384.319-.384-.091-.473-.091-.473-.473-.09-.473-.092-.384.32-.384.318v1.259zm-24.1-7.21l-.291.728.15-.926.151-.926.198-.662.199-.661.022.595.023.595h.577l.46-.569.461-.569.706.177.707.178v1.578l-.53.528-.529.53H7.683l-.166-.662-.166-.662h-.634zm1.875.066h.629l.319-.384.319-.384-.091-.473-.091-.473-.473-.09-.473-.092-.384.32-.384.318v1.258zm4.101.53h-.497v-.53H12.965v-.794h-.794v-.529H13.23v-.529l-.596-.004-.595-.004.396-.256.397-.257.317-.004.317-.004-.032 1.125-.03 1.124-.253.33-.251.332h-.497zm34.77-.596l-.291.728.15-.926.15-.926.2-.662.198-.661.022.595.023.595h.577l.46-.569.461-.569.706.177.706.178v1.577l-.529.53-.529.528H48.43l-.166-.661-.166-.662h-.634l-.29.728zm1.875.066h.629l.319-.384.319-.384-.091-.473-.091-.473-.473-.09-.473-.092-.384.32-.384.318v1.258zm3.982.53h-.643v-.24l.29-1.35.29-1.351.7.08.7.082.064.53.064.529-.15-.331-.15-.33h-.983l-.163.264-.164.264h.984l.318.318.317.317v.386l-.416.416-.415.415zm.351-.579l.726-.083v-.529l-.561-.08-.562-.08-.164.428-.165.428zm-42.665-.215h-.397v-.53h.793v.53zm40.745 0h-.396v-.53h.793v.53zM15.985 42.636l-.507-.02.347-.14.348-.139.16.16.16.16-.508-.02zm1.213.021h-.353l.177-.176.176-.177.176.177.177.176zm10.054-.265H26.9l.177-.176.176-.176.176.176.177.176zm-9.31-.268l-.083-.004-.397-.257-.396-.256.315-.004.315-.004.163.264.164.265-.082-.004zm9.723-.26h-.117l-.189-.306-.189-.306.306.19.305.188v.233zm-11.349-.618l-.176.176v-.705l.176.176.176.177zm1.411-.176h-.353l.177-.177.176-.176.176.176.177.177zm9.79-.265h-.353l.176-.176.177-.177.176.177.176.176zm7.408-.794h-.353l.177-.176.176-.177.176.177.177.176zm.412-.529h-.116l-.189-.305-.189-.306.306.189.305.189v.233zm-.147-1.058h-.353l.176-.177.177-.176.176.176.176.177zm4.762-4.498H39.6l.177-.177.176-.176.176.176.177.177zm.375-.815l-.507-.02.347-.14.347-.139.16.16.16.16-.507-.02zM.76 32.603H.265v-.529h1.058v-.794H.529v-.529H1.588v-.529l-.596-.004-.595-.004.397-.257.397-.256.316-.004.317-.004-.031 1.124-.032 1.125-.251.33-.252.331H.761zm58.09 0h-.643v-.239l.29-1.35.29-1.352.7.081.7.082.064.529.064.53-.15-.332-.15-.33h-.983l-.163.264-.164.265h.984l.317.317.318.318v.385l-.416.416-.416.416zm.351-.578l.726-.084v-.529l-.562-.08-.561-.08-.164.428-.165.429zm-18.853.313h-.132v-.264h.264v.264zM7.144 30.18h-.662l.331-.134.33-.133.331.133.331.134zm1.455.042h-.397v-.513l.397.152.397.153v.208zm.61-1.184l-.148.148-.18-.474-.181-.475.329.327.328.326zm-1.8-.404h-.353l.176-.176.176-.177.177.177.176.176zm15.985-5.048l-.508-.02.348-.14.347-.139.16.16.16.16zm1.477.021h-.353l.176-.176.177-.177.176.177.177.176zm-1.163-1.13l-.16.16.02-.507.022-.507.139.347.139.347zm1.427-.457h-.352l.176-.177.176-.176.177.176.176.177zm7.144-.794h-.353l.177-.177.176-.176.177.176.176.177zm.375-.815l-.507-.02.347-.14.347-.139.16.16.16.16-.507-.02zm11.377-.264l-.507-.021.347-.14.347-.138.16.16.16.16zm1.345.02h-.132v-.264h.264v.265zm-12.568-.529h-.352l.176-.176.176-.176.177.176.176.176zm13.075-.285l-.507-.021.347-.139.348-.139.16.16.16.16zm.022-.773h-.132v-.265h.264v.265zM8.063 10.643h-.372l-.273-.512-.274-.512.237-.624.237-.623.42-.35.422-.35.466.204.467.203-.53.12-.529.12-.33.268-.331.268v1.258h1.089l-.163.265-.164.265zm3.282 0h-.497v-.53H11.907V9.32h-.795v-.53H12.171v-.529l-.596-.004-.595-.004.397-.256.397-.257.317-.004.316-.004-.031 1.125-.031 1.124-.252.331-.252.33zm36.935 0h-.372l-.274-.512-.274-.512.237-.624.237-.623.421-.35.422-.35.466.204.466.203-.529.12-.529.12-.33.268-.331.268v1.258h1.089l-.163.265-.164.265zm3.427 0h-.642v-.239l.29-1.351.289-1.351.7.081.7.081.064.53.064.529-.15-.331-.15-.33h-.983l-.163.264-.164.264h.984l.318.318.317.317v.386l-.416.416-.415.416zm.351-.578l.726-.084v-.529l-.561-.08-.562-.08-.164.428-.165.428zM9.922 9.849h-.397V9.32h.794v.529zm40.216 0h-.396V9.32h.793v.529zm-19.85-6.88h-.372l-.273-.511-.274-.512.237-.624.237-.623.42-.35.422-.349.466.203.467.203-.53.12-.529.12-.33.268-.331.268V2.44h1.089l-.163.265-.164.265z" fill="#080808"/></svg>