<svg xmlns="http://www.w3.org/2000/svg" width="229.291" height="233.724" viewBox="0 0 60.666691 61.839409"><path d="M28.42 61.707h-.41l.136-.463.136-.463.176-.992.176-.992h.735v1.176l.412-.588.412-.588h1.249l.419.16.418.16v1.532l-.529.529-.53.53H29.678l-.241-.726-.242-.726-.182.726-.182.725zm2.086-.53h.344l.318-.317.317-.317v-.921l-.276-.171-.276-.17-.385.32-.385.319v1.258zm-.343-2.92h-.133l-.872-1.491-.871-1.491.24-.24.24-.24.56.876.562.877.004-10.338.004-10.338-.432-1.304-.432-1.304-.17-.192-.171-.193-8.195 8.206-8.195 8.206 1.125-.176 1.124-.176v.566l-.207.128-.208.129-1.609.182-1.608.182.421-1.618.422-1.618h.715l-.178.86-.177.86 8.49-8.465 8.491-8.465v-.135L17 31.549l-12.105.004.876.56.877.562-.24.24-.24.24-1.491-.872-1.491-.872v-.264l1.49-.872 1.492-.872.24.24.24.24-.877.561-.876.562 12.105.004 12.104.004v-.4l-8.495-8.465-8.494-8.466.172.993.172.992h-.716l-.41-1.714-.41-1.713.101-.101.102-.101 1.713.41 1.713.41v.716l-.992-.172-.992-.173 8.327 8.357 8.327 8.357.272-.272.272-.272.066-11.695.067-11.695-.566.877-.566.876-.24-.24-.24-.24.871-1.49.872-1.492h.265l.872 1.491.871 1.491-.24.24-.24.24-.56-.876-.562-.877v11.642l-.001 11.642.205.322.204.322 8.324-8.35 8.324-8.35-.86.178-.86.177v-.715l1.618-.421 1.618-.422-.182 1.609-.182 1.608-.128.208-.128.208h-.566l.176-1.125.175-1.124-8.608 8.597-8.609 8.598v.4l12.237-.004 12.237-.004-.876-.562-.877-.56.24-.24.24-.24 1.491.871 1.492.872v.264l-1.492.872-1.49.872-.24-.24-.24-.24.876-.561.876-.561-11.708-.004-11.707-.004v.28l7.371 7.863 7.372 7.864.721.661.722.662-.192-1.026-.191-1.027.36.12.359.12.37 1.514.369 1.514-.152.152-.151.151-1.514-.37-1.515-.369-.12-.36-.12-.359 1.027.185 1.026.185-2.381-2.377-2.381-2.377-6.284-4.116-6.284-4.115.004 10.114.004 10.114.561-.877.561-.876.24.24.24.24-.871 1.491-.872 1.491h-.132zM40.415 42.11l.066.018v-.138l-5.027-5.022-5.027-5.021v3.482l4.961 3.332 4.961 3.331.066.018zM29.807 32.94l.132-.326-.122-.468-.122-.468-.01.794-.01.793.132-.325zM6.195 54.563h-.41l.136-.463.136-.463.176-.992.176-.992h.735v1.176l.412-.588.412-.588h1.249l.419.16.418.161v1.266h1.323v.565l-.728-.084-.727-.084-.463.463-.463.463H7.452l-.241-.725-.242-.726-.182.726-.182.725zm2.086-.529h.344l.318-.317.317-.318v-.921l-.276-.17-.276-.171-.385.32-.385.32v1.258zm4.122.53h-.761v-.83l.529.168.529.168v-.83h-.794v-.529H12.965v-.565l-.53.168-.529.168v-.508l.419-.16.418-.161h.987l-.031 1.124-.031 1.125-.252.33-.252.331zm34.538 0h-.41l.136-.464.136-.463.176-.992.176-.992h.735v1.176l.411-.588.412-.588h1.25l.418.16.419.161v1.266h1.323v.565l-.728-.084-.727-.084-.463.463-.463.463h-1.544l-.242-.725-.241-.726-.183.726-.182.725zm2.086-.53h.344l.318-.317.317-.318v-.921l-.276-.17-.276-.171-.385.32-.386.32v1.258zm4.003.53h-.907v-.24l.286-1.335.287-1.336H54.52l.162.424.163.423-.332.205-.33.205.292.18.293.182v.46l-.416.416-.416.415zm.298-.577l.41-.085.053-.243.052-.242-.298-.1-.298-.099-.164.427-.164.428zm.235-1.276h.412v-.529h-.498l-.163.265-.164.264zm-10.375-4.55l-1.384.08v-1.286l.33-.268.332-.269 1.12-.012 1.12-.011-.068.843-.067.843-1.384.08zm-.678-.3l.176-.177-.176-.176-.177-.177v.706zm.998.088h.413v-.529h-.498l-.164.264-.163.265zm.2-.822l.477-.255v-.138l-.727.044-.728.044-.132.038-.132.039.382.242.383.242zM.761 32.603H0v-.829l.53.167.528.168v-.829H.265v-.529h1.058v-.565l-.53.168-.528.168v-.508l.418-.16.419-.161h.987l-.032 1.124-.031 1.124-.252.331-.251.33zm58.09 0h-.907v-.239l.286-1.336.287-1.335H60.342l.162.423.163.424-.332.204-.331.205.293.181.293.181v.46l-.416.416-.416.416zm.298-.576l.41-.086.052-.242.053-.243-.299-.099-.298-.1-.164.428-.164.427zm.234-1.276h.413v-.529h-.498l-.164.264-.163.265zM8.047 10.643h-.62l-.274-.512-.274-.512.237-.624.237-.623.41-.34.41-.34.59.086.588.086.123.373.123.373-.466-.179-.467-.179-.363.302-.363.301v1.258h.755l.397-.397.397-.396h.87l.396.396.397.397h.492V9.32h-.794v-.53h1.058v-.564l-.529.168-.53.168v-.509l.42-.16.418-.16h.987l-.031 1.124-.032 1.124-.251.33-.252.332H10.583v-.794H9.325l-.33.397-.329.397zm40.216 0h-.62l-.273-.512-.274-.512.237-.624.237-.623.41-.34.41-.34.589.086.589.086.123.373.123.373-.467-.179-.466-.179-.363.302-.364.301v1.258h.756l.397-.397.397-.396H50.8v.529h-1.258l-.33.397-.329.397zm3.444 0H50.8v-.239l.287-1.336.286-1.336H53.198l.162.424.163.423-.331.205-.332.205.293.18.293.182v.46l-.416.416-.416.416zm.299-.577l.41-.085.052-.242.052-.243-.298-.1-.298-.099-.164.427-.164.428zm.234-1.276h.412v-.529h-.498l-.163.265-.164.264zM30.272 2.97h-.62l-.274-.512-.274-.512.237-.624.237-.623.41-.34.41-.34.59.086.588.087.123.372.123.373-.466-.179-.467-.179-.363.302-.363.301v1.316l.707-.178.708-.177-.343.413-.344.414z" fill="#cfcfcf"/><path d="M28.488 61.707h-.352l.264-1.455.263-1.455h.741l-.168.529-.167.529h.3l.529-.53.53-.528h1.258l.326.393.326.394-.162.646-.162.646-.43.43-.43.43-.688-.08-.688-.081-.294-.594-.295-.594-.175.175-.174.175v.97zm2.018-.53h.344l.318-.317.317-.317v-1.217h-1.001l-.16.418-.161.419V61.178zm-.343-3.174h-.138l-.277-.463-.278-.463-.601-.992-.602-.992h.58l.525.86.524.86V46.415l.002-10.396-.463-1.576-.463-1.576h-.268l-8.2 8.232-8.201 8.231 1.124-.165 1.125-.165v.493l-.728.144-.727.145-.992.17-.993.171v-.492l.408-1.37.407-1.372h.508v.136l-.264.923-.265.923 8.599-8.596 8.6-8.596v-.135H16.866l-12.237.002.86.524.86.524v.567l-1.125-.686-1.124-.685-.397-.256-.397-.255.397-.255.397-.256 1.124-.686 1.125-.685v.567l-.86.524-.86.524 12.237.001 12.237.001v-.4l-8.624-8.597-8.625-8.598.137.53.137.529.17.595.172.595h-.544l-.26-.992-.26-.992-.186-.766-.185-.766.766.185.766.186.992.26.992.26v.544l-.53-.15-.528-.15-.596-.158-.595-.158 8.467 8.495 8.466 8.496.331-.45.33-.451V17.405l-.001-11.658-.524.86-.525.86h-.567l.686-1.124.686-1.125.255-.397.255-.396.256.396.255.397.686 1.125.685 1.124h-.566l-.525-.86-.524-.86.003 11.774.003 11.774.205.322.204.322 8.455-8.458 8.455-8.458-.923.265-.922.265h-.136v-.509l1.37-.407 1.372-.407h.492l-.171.992-.17.992-.145.728-.144.727h-.494l.165-1.124.166-1.125-8.63 8.598-8.628 8.597v.4h12.37l12.369-.002-.86-.524-.86-.524v-.567l1.124.685 1.125.686.397.255.397.256-.397.255-.397.255-1.125.686-1.124.686v-.567l.86-.524.86-.525H43.664l-12.031-.002 1.6 1.654 1.6 1.654 5.575 5.953 5.575 5.953 1.247 1.19 1.247 1.191-.14-.53-.141-.528-.171-.596-.171-.595h.544l.26.992.26.993.186.765.185.766-.766-.185-.766-.185-.992-.26-.992-.26v-.545l.463.13.463.128.661.18.662.181-2.25-2.302-2.248-2.303-6.218-4.158-6.218-4.157-.33-.197-.331-.197v10.268l.002 10.268.524-.86.525-.86h.58l-.602.992-.601.993-.278.463-.277.463zM40.415 42.11l.066.018v-.138l-5.027-5.022-5.027-5.021v3.482l4.961 3.332 4.961 3.331.066.018zm-10.6-9.044l.122-.463-.121-.463-.121-.463v1.852zM6.264 54.563H5.91l.264-1.455.263-1.455h.741l-.168.53-.167.528h.3l.529-.529.53-.53H9.46l.326.394.326.394-.162.646-.162.647-.43.43-.43.43-.688-.081-.688-.08-.294-.595-.295-.593-.175.174-.174.175v.97zm2.018-.529h.344l.318-.317.317-.318v-1.217H8.26l-.16.419-.161.418V54.034zm4.132.525l-.419.004-.176-.176-.176-.176v-.351l.568.02.569.022.115-.33.115-.332h-.838v-.529h.794v-.586l-.42.161-.418.161.11-.33.11-.332h1.279l-.091 1.19-.092 1.191-.305.195-.306.194-.419.004zm34.596.004h-.352l.264-1.455.263-1.455h.741l-.168.53-.168.528h.3l.53-.529.529-.53h1.258l.327.394.326.394-.162.646-.162.647-.43.43-.43.429-.688-.08-.688-.081-.295-.594-.294-.593-.175.174-.175.175v.97zm2.018-.529h.344l.318-.317.317-.318v-1.217h-1.001l-.161.419-.16.418V54.034zm4.035.53h-.849l.264-1.456.264-1.455h1.732l.163.264.164.265-.207.33-.208.332.079.478.079.48-.317.38-.316.381zm.265-.57l.472-.092.118-.356.119-.356-.472.091-.471.092-.119.356-.118.356zm.251-1.283h.397v-.529h-.794v.529zM10.7 53.77h-.677l.163-.265.164-.265H11.377v.53zm40.746 0h-.677l.163-.265.164-.265H52.123v.53zm-8.893-5.611l-.435.084-.159-.257-.159-.257.26-.684.26-.684.602.017.602.017-.661.288-.662.288.478.114.478.115-.084.437-.084.438-.436.084zm-.103-.21h.117l.163-.265.164-.264h-.56v.529zm1.405.234l-.596-.031.463-.121.463-.121v-.49l-.33-.004-.331-.004.397-.261.397-.26-.397-.261-.397-.26.604-.005.605-.004-.12.728-.12.728-.021.198-.022.198zM.772 32.599l-.42.004-.176-.177L0 32.25V31.9l.569.021.568.021.115-.33.115-.331H.529v-.529h.794v-.586l-.42.16-.418.162.11-.331.11-.331h1.28l-.092 1.19-.091 1.19-.306.195-.305.195-.42.004zm58.11.004h-.848l.264-1.455.263-1.456h1.733l.163.265.164.265-.208.33-.207.331.079.479.079.479-.317.38-.316.382zm.266-.57l.472-.092.118-.356.119-.356-.472.092-.471.091-.119.356-.118.356zm.251-1.282h.397v-.529h-.794v.529zM8.172 10.588l-.651.079-.189-.189-.188-.188V8.909l.422-.604.423-.603.702.081.702.081-.133.26-.132.26-.446-.075-.447-.075-.301.563-.302.564.156.406.156.406.541-.141.541-.142-.102.31-.101.31zm3.13.05l-.47.004-.153-.397-.152-.396H9.229l.164-.265.163-.265h.837l.321.44.322.44.435-.167.435-.167V9.32h-.793V8.79h.793v-.586l-.419.161-.419.161.11-.33.11-.332h1.28l-.092 1.19-.091 1.191-.306.195-.305.194zm37.086-.05l-.65.079-.189-.189-.189-.188V8.909l.423-.604.422-.603.702.081.702.081-.132.26-.132.26-.447-.075-.446-.075-.302.563-.301.564.156.406.156.406.54-.141.542-.142-.102.31-.102.31zm3.35.054h-.848l.264-1.455.264-1.455h1.732l.164.265.163.264-.207.33-.208.332.079.478.079.48-.316.38-.317.381zm.266-.57l.472-.091.118-.356.119-.356-.472.091-.471.092-.119.356-.118.356zm.251-1.282h.397v-.529h-.794v.529zM50.123 9.85h-.677l.163-.265.164-.264H50.8v.529zM30.397 2.916l-.651.078-.189-.189-.188-.188V1.236l.422-.604.423-.603.702.081.702.081-.133.26-.132.26-.446-.075-.447-.075-.301.563-.302.564.156.406.156.406.541-.141.541-.142-.102.31-.101.31z" fill="#fca5a5"/><path d="M28.488 61.707h-.352l.264-1.455.263-1.455h.741l-.168.529-.167.529h.3l.529-.53.53-.528h1.258l.326.393.326.394-.162.646-.162.646-.43.43-.43.43-.688-.08-.688-.081-.294-.594-.295-.594-.175.175-.174.175v.97zm2.018-.53h.344l.318-.317.317-.317v-1.217h-1.001l-.16.418-.161.419V61.178zm-.343-3.174h-.138l-.277-.463-.278-.463-.601-.992-.602-.992h.58l.525.86.524.86v-10.56l.002-10.56-.445-1.413-.445-1.412h-.304l-8.2 8.232-8.201 8.231 1.124-.165 1.125-.165v.493l-.728.144-.727.145-.992.17-.993.171v-.492l.408-1.37.407-1.372h.508v.136l-.264.923-.265.923 8.599-8.596 8.6-8.596v-.135H16.866l-12.237.002.86.524.86.524v.567l-1.125-.686-1.124-.685-.397-.256-.397-.255.397-.255.397-.256 1.124-.686 1.125-.685v.567l-.86.524-.86.524 12.434.001 12.434.001-8.718-8.72-8.718-8.722-.073.074-.074.073.256.891.255.891-.128.128-.127.128-.151-.151-.15-.15-.395-1.51-.394-1.51.12-.119.12-.12 1.508.395 1.51.394.15.15.151.151-.128.128-.127.128-.891-.256-.891-.255-.074.073-.073.073 8.446 8.443 8.446 8.444.209-.209.209-.208.07-11.951.07-11.95-.53.86-.529.86h-.567l.686-1.125.686-1.125.255-.397.255-.396.256.396.255.397.686 1.125.686 1.124h-.567l-.525-.86-.524-.86-.001 12.105v12.105h.4l8.463-8.467 8.463-8.467-.922.265-.923.265h-.136v-.509l1.37-.407 1.372-.407h.492l-.171.992-.17.992-.145.728-.144.727h-.494l.17-1.058.169-1.058h-.203l-8.728 8.731-8.729 8.731H43.13l12.566-.002-.86-.524-.86-.524v-.567l1.124.685 1.125.686.397.255.397.256-.397.255-.397.255-1.125.686-1.124.686v-.567l.86-.524.86-.525H43.667l-12.027-.002 1.066 1.125 1.067 1.124 5.578 5.953 5.578 5.954 1.773 1.72 1.772 1.72-.139-.53-.139-.53-.17-.595-.172-.595h.544l.26.992.26.993.186.765.185.766-.766-.185-.766-.185-.992-.26-.992-.26v-.545l.463.13.463.128.661.18.662.181-2.381-2.442-2.382-2.443-6.085-4.015-6.085-4.016-.331-.2-.33-.198v10.268l.001 10.268.524-.86.525-.86h.58l-.602.992-.601.993-.278.463-.277.463zm10.58-15.627l.13.016-5.154-5.159-5.155-5.16h-.137v3.434l5.093 3.426 5.094 3.426.13.017zm-10.947-8.98h.102v-1.693l-.256.256-.256.256.155.59.154.592zM6.263 54.564H5.91l.264-1.455.263-1.455h.741l-.168.53-.167.528h.3l.529-.529.53-.53H9.46l.326.394.326.394-.162.646-.162.647-.43.43-.43.43-.688-.081-.688-.08-.294-.595-.295-.593-.175.174-.174.175v.97zm2.018-.529h.344l.318-.317.317-.318v-1.217H8.26l-.16.419-.161.418V54.034zm4.132.525l-.419.004-.176-.176-.176-.176v-.351l.568.02.569.022.115-.33.115-.332h-.838v-.529h.794v-.586l-.42.161-.418.161.11-.33.11-.332h1.279l-.091 1.19-.092 1.191-.305.195-.306.194-.419.004zm34.596.004h-.352l.264-1.455.263-1.455h.741l-.168.53-.168.528h.3l.53-.529.529-.53h1.258l.327.394.326.394-.162.646-.162.647-.43.43-.43.429-.688-.08-.688-.081-.295-.594-.294-.593-.175.174-.175.175v.97zm2.018-.529h.344l.318-.317.317-.318v-1.217h-1.001l-.161.419-.16.418V54.034zm4.035.53h-.849l.264-1.456.264-1.455h1.732l.163.264.164.265-.207.33-.208.332.079.478.079.48-.317.38-.316.381zm.265-.57l.472-.092.118-.356.119-.356-.472.091-.471.092-.119.356-.118.356zm.251-1.283h.397v-.529h-.794v.529zM10.7 53.77h-.677l.163-.265.164-.265H11.377v.53zm40.746 0h-.677l.163-.265.164-.265H52.123v.53zm-8.893-5.611l-.435.084-.159-.257-.159-.257.26-.684.26-.684.602.017.602.017-.661.288-.662.288.478.114.478.115-.084.437-.084.438-.436.084zm-.103-.21h.117l.163-.265.164-.264h-.56v.529zm1.405.234l-.596-.031.463-.121.463-.121v-.49l-.33-.004-.331-.004.397-.261.397-.26-.397-.261-.397-.26.604-.005.605-.004-.12.728-.12.728-.021.198-.022.198zM.772 32.599l-.42.004-.176-.177L0 32.25V31.9l.569.021.568.021.115-.33.115-.331H.529v-.529h.794v-.586l-.42.16-.418.162.11-.331.11-.331h1.28l-.092 1.19-.091 1.19-.306.195-.305.195-.42.004zm58.11.004h-.848l.264-1.455.263-1.456h1.733l.163.265.164.265-.208.33-.207.331.079.479.079.479-.317.38-.316.382zm.266-.57l.472-.092.118-.356.119-.356-.472.092-.471.091-.119.356-.118.356zm.251-1.282h.397v-.529h-.794v.529zM8.172 10.588l-.651.079-.189-.189-.188-.188V8.909l.422-.604.423-.603.702.081.702.081-.133.26-.132.26-.446-.075-.447-.075-.301.563-.302.564.156.406.156.406.541-.141.541-.142-.102.31-.101.31zm3.13.05l-.47.004-.153-.397-.152-.396H9.229l.164-.265.163-.265h.837l.321.44.322.44.435-.167.435-.167V9.32h-.793V8.79h.793v-.586l-.419.161-.419.161.11-.33.11-.332h1.28l-.092 1.19-.091 1.191-.306.195-.305.194zm37.086-.05l-.65.079-.189-.189-.189-.188V8.909l.423-.604.422-.603.702.081.702.081-.132.26-.132.26-.447-.075-.446-.075-.302.563-.301.564.156.406.156.406.54-.141.542-.142-.102.31-.102.31zm3.35.054h-.848l.264-1.455.264-1.455h1.732l.164.265.163.264-.207.33-.208.332.079.478.079.48-.316.38-.317.381zm.266-.57l.472-.091.118-.356.119-.356-.472.091-.471.092-.119.356-.118.356zm.251-1.282h.397v-.529h-.794v.529zM50.123 9.85h-.677l.163-.265.164-.264H50.8v.529zM30.397 2.916l-.651.078-.189-.189-.188-.188V1.236l.422-.604.423-.603.702.081.702.081-.133.26-.132.26-.446-.075-.447-.075-.301.563-.302.564.156.406.156.406.541-.141.541-.142-.102.31-.101.31z" fill="#fb6464"/><path d="M28.488 61.707h-.352l.264-1.455.263-1.455h.741l-.168.529-.167.529h.3l.529-.53.53-.528h1.258l.326.393.326.394-.162.646-.162.646-.43.43-.43.43-.688-.08-.688-.081-.294-.594-.295-.594-.175.175-.174.175v.97zm2.018-.53h.344l.318-.317.317-.317v-1.217h-1.001l-.16.418-.161.419V61.178zm-.343-3.174h-.138l-.277-.463-.278-.463-.601-.992-.602-.992h.58l.525.86.524.86-.02-10.849-.02-10.848-.442-1.257-.444-1.257-8.333 8.365-8.334 8.364 1.125-.165 1.124-.165v.493l-.727.144-.728.145-.992.17-.992.171v-.492l.407-1.37.407-1.372h.508v.136l-.263.919-.263.918 8.556-8.46 8.556-8.461.042-.199.041-.198H16.867l-12.237.002.86.524.86.524v.567l-1.124-.686-1.125-.685-.397-.256-.397-.255.397-.255.397-.256 1.125-.685 1.124-.686v.567l-.86.524-.86.524 12.434.001 12.434.001-8.728-8.731-8.728-8.731H11.87l.129.463.129.463.17.595.172.595h-.544l-.26-.992-.26-.992-.186-.766-.185-.766.766.186.766.185.992.26.992.26v.544l-.53-.15-.528-.15-.596-.158-.595-.158 8.596 8.624 8.596 8.623.183-.462.183-.462.017-11.773.018-11.774-.524.86-.525.86h-.567l.686-1.125.686-1.125.255-.396.255-.397.256.397.255.396.686 1.125.686 1.124h-.567l-.525-.86-.524-.86-.001 12.414-.001 12.413.066-.12.066-.12 8.598-8.656 8.597-8.655-.923.265-.922.265h-.136v-.509l1.37-.407 1.372-.407h.492l-.171.992-.17.992-.145.728-.144.727h-.494l.17-1.058.169-1.058h-.203l-8.728 8.731-8.729 8.731H43.13l12.566-.002-.86-.524-.86-.524v-.567l1.124.685 1.125.686.397.255.397.256-.397.255-.397.256-1.125.685-1.124.686v-.567l.86-.524.86-.525H43.7l-11.994-.002.882 1.043.882 1.043 5.556 5.902 5.556 5.903 1.95 1.852 1.951 1.852-.143-.529-.144-.53-.171-.594-.171-.596h.544l.26.992.26.993.186.766.185.765-.766-.185-.766-.185-.992-.26-.992-.26v-.545l.463.13.463.128.661.18.662.18-2.514-2.573-2.513-2.575-6.156-4.067-6.155-4.067h-.257l.001 10.253.001 10.252.524-.86.525-.86h.58l-.602.993-.601.992-.278.463-.277.463zM41.12 42.639l.242.018-.113-.066-.114-.066-5.354-5.283-5.355-5.283.007 1.843.007 1.844 5.219 3.488 5.218 3.488.242.018zm-6.816-7.39h.09v-.182l-.594-.505-.596-.504.504.595.504.596zm-4.51-1.588h.103v-1.958l-.28.28-.279.279.176.7.176.7zm1.574-1.587h.116v-.234l-.305-.188-.306-.19.19.306.188.306zM6.263 54.564H5.91l.264-1.456.263-1.455h.741l-.168.53-.167.528h.3l.529-.529.53-.53H9.46l.326.394.326.394-.162.646-.162.647-.43.43-.43.43-.688-.081-.688-.08-.294-.595-.295-.593-.175.174-.174.175v.97zm2.018-.53h.344l.318-.317.317-.318v-1.217H8.26l-.16.419-.161.418V54.034zm4.132.525l-.419.004-.176-.176-.176-.176v-.351l.568.02.569.022.115-.33.115-.332h-.838v-.529h.794v-.586l-.42.161-.418.161.11-.33.11-.332h1.279l-.091 1.19-.092 1.191-.305.195-.306.194-.419.004zm34.596.004h-.352l.264-1.455.263-1.455h.741l-.168.53-.168.528h.3l.53-.529.529-.53h1.258l.327.394.326.394-.162.646-.162.647-.43.43-.43.429-.688-.08-.688-.081-.295-.594-.294-.593-.175.174-.175.175v.97zm2.018-.529h.344l.318-.317.317-.318v-1.217h-1.001l-.161.419-.16.418V54.034zm4.035.53h-.849l.264-1.456.264-1.455h1.732l.163.264.164.265-.207.33-.208.332.079.478.079.48-.317.38-.316.381zm.265-.57l.472-.092.118-.356.119-.356-.472.091-.471.092-.119.356-.118.356zm.251-1.283h.397v-.529h-.794v.529zM10.7 53.77h-.677l.163-.265.164-.265H11.377v.53zm40.746 0h-.677l.163-.265.164-.265H52.123v.53zm-8.893-5.611l-.435.084-.159-.257-.159-.257.26-.684.26-.684.602.017.602.017-.661.288-.662.288.478.114.478.115-.084.437-.084.438-.436.084zm-.103-.21h.117l.163-.265.164-.264h-.56v.529zm1.405.234l-.596-.031.463-.121.463-.121v-.49l-.33-.004-.331-.004.397-.261.397-.26-.397-.261-.397-.26.604-.005.605-.004-.12.728-.12.728-.021.198-.022.198zM.772 32.599l-.42.004-.176-.177L0 32.25V31.9l.569.021.568.021.115-.33.115-.331H.529v-.529h.794v-.586l-.42.16-.418.162.11-.331.11-.331h1.28l-.092 1.19-.091 1.19-.306.195-.305.195-.42.004zm58.11.004h-.848l.264-1.455.263-1.456h1.733l.163.265.164.265-.208.33-.207.331.079.479.079.479-.317.38-.316.382zm.266-.57l.472-.092.118-.356.119-.356-.472.092-.471.091-.119.356-.118.356zm.251-1.282h.397v-.529h-.794v.529zM8.172 10.588l-.651.079-.189-.189-.188-.188V8.909l.422-.604.423-.603.702.081.702.081-.133.26-.132.26-.446-.075-.447-.075-.301.563-.302.564.156.406.156.406.541-.141.541-.142-.102.31-.101.31zm3.13.05l-.47.004-.153-.397-.152-.396H9.229l.164-.265.163-.265h.837l.321.44.322.44.435-.167.435-.167V9.32h-.793V8.79h.793v-.586l-.419.161-.419.161.11-.33.11-.332h1.28l-.092 1.19-.091 1.191-.306.195-.305.194zm37.086-.05l-.65.079-.189-.189-.189-.188V8.909l.423-.604.422-.603.702.081.702.081-.132.26-.132.26-.447-.075-.446-.075-.302.563-.301.564.156.406.156.406.54-.141.542-.142-.102.31-.102.31zm3.35.054h-.848l.264-1.455.264-1.455h1.732l.164.265.163.264-.207.33-.208.332.079.478.079.48-.316.38-.317.381zm.266-.57l.472-.091.118-.356.119-.356-.472.091-.471.092-.119.356-.118.356zm.251-1.282h.397v-.529h-.794v.529zM50.123 9.85h-.677l.163-.265.164-.264H50.8v.529zM30.397 2.916l-.651.078-.189-.189-.188-.188V1.236l.422-.604.423-.603.702.081.702.081-.133.26-.132.26-.446-.075-.447-.075-.301.563-.302.564.156.406.156.406.541-.141.541-.142-.102.31-.101.31z" fill="#8d8d8d"/><path d="M28.538 61.597l-.3.187.182-1.03.183-1.031.136-.463.136-.463h.444l-.138.529-.139.529h.509l.48-.53.478-.528h1.222l.274.512.274.511-.237.624-.237.623-.41.34-.41.34-.61-.086-.61-.086-.084-.596-.084-.595h-.757V61.411zm2.16-.42h.504l.294-.549.295-.55-.145-.376-.144-.376h-1.088l-.26.684-.26.683.15.243.15.242zm-.535-3.439h-.215l-.71-1.211-.71-1.211.136-.137.137-.136.482.885.483.884.078-10.583.078-10.583-.45-1.522-.452-1.521h-.31l-8.336 8.268-8.335 8.268 8.587-8.654 8.587-8.655-.145-.146-.146-.145-12.146.069-12.146.069.885.482.884.483-.136.136-.136.136-1.211-.71-1.212-.71v-.428l1.212-.71 1.21-.71.137.136.136.136-.884.483-.885.482 6.302.071 6.302.071 6.134-.07 6.133-.072-8.73-8.863-8.729-8.864 8.599 8.533 8.598 8.533h.37l.154-.86.155-.86-.076-11.377-.076-11.377-.483.884-.482.885-.137-.136-.136-.137.71-1.211.71-1.211h.429l.71 1.211.71 1.211-.137.137-.136.136-.482-.885-.483-.884-.073 12.038-.073 12.039.144.595.145.595h24.86v-.251l-.818-.423-.818-.423.136-.136.136-.136 1.211.71 1.212.71v.428l-1.212.71-1.211.71-.136-.136-.136-.136.884-.483.885-.482-6.02-.071-6.019-.071-5.98.07-5.982.072 4.432 4.762 4.432 4.763 2.265 2.381 2.264 2.381 1.6 1.71 1.6 1.71-2.578-2.447-2.578-2.447-6.248-4.107-6.248-4.108-.107.107-.107.108.069 10.161.07 10.161.482-.884.482-.885.136.136.137.136-.71 1.212-.71 1.211zm10.96-15.099l.244.018-3.552-3.592-3.551-3.591.055-.214.056-.213-.585-.494-.585-.495.504.595.504.596h-.229l-1.712-1.785-1.713-1.784 1.31 1.189 1.31 1.19-1.038-1.192-1.038-1.19h-.544l-.066 1.984-.067 1.985 5.226 3.488 5.226 3.488.245.017zm-11.329-8.978h.104v-1.958l-.28.28-.279.279.176.7.176.7zM6.314 54.454l-.302.186.183-1.03.183-1.031.136-.463.136-.463h.444l-.138.53-.139.528h.509l.48-.529.478-.53h1.222l.274.513.274.512-.237.623-.237.624-.41.34-.41.34-.61-.087-.61-.086-.084-.595-.084-.596h-.757V54.267zm2.159-.42h.504l.294-.55.295-.55-.145-.376-.144-.376H8.189l-.26.684-.26.683.15.243.15.242zm3.974.53h-.453l-.176-.177-.176-.176v-.368l.661.126.662.127v-.856h-.794v-.467l.595-.197.595-.196-.599-.118-.599-.118.152-.245.152-.246h.996l.163.265.164.264-.208.33-.207.332.079.478.078.48-.316.38-.316.381zm34.612-.11l-.301.186.183-1.03.183-1.031.136-.463.136-.463h.444l-.138.53-.139.528h.509l.479-.529.479-.53h1.222l.274.513.274.512-.237.623-.237.624-.41.34-.41.34-.61-.087-.61-.086-.084-.595-.085-.596h-.757V54.267zm2.16-.42h.504l.294-.55.295-.55-.145-.376-.144-.376h-1.088l-.26.684-.26.683.15.243.15.242zm3.9.53h-.79l.175-.993.176-.992.141-.478.141-.479.705.082.705.081.057 1.042.058 1.042-.289.347-.288.347zm.327-.53h.529v-.794h-1.058v.794zm.117-1.323h.38l.164-.264.164-.265h-1.09v.529zM10.7 53.77h-.381v-.53h1.089l-.163.265-.164.265zm40.746 0h-.381v-.53h1.089l-.163.265-.164.265zm-2.432-3.471l-.198-.032-1.588-.487-1.587-.487 1.323.056 1.322.055-.057-1.323-.058-1.323.512 1.72.51 1.72.01.066.009.066-.199-.031zm-37.058-.401l-.877.16.155-.488.155-.489.386-1.161.385-1.162-.132.957-.132.956.152.399.153.398 1.242-.093 1.241-.092-.926.227-.926.227zm30.573-1.734l-.46.088v-1.256l.317-.317.318-.318h.524l-.513.389-.514.388.482.008.483.008-.089.46-.088.46-.46.089zm.069-.215h.265v-.529h-.53v.529zm1.133.234l-.472-.031.463-.121.463-.121v-.49l-.33-.004-.331-.004.365-.231.364-.231-.203-.329-.203-.328.368.128.367.128-.078.501-.08.502-.11.33-.112.331-.471-.03zM.805 32.603H.353l-.177-.176L0 32.25v-.367l.661.126.662.126v-.855H.529v-.467l.595-.197.596-.197-.6-.118-.599-.117.152-.246.152-.245h.996l.163.264.164.265-.208.33-.207.331.079.479.079.479-.317.38-.316.382zm58.135 0h-.79l.175-.992.176-.992.141-.479.14-.478.706.081.705.082.057 1.041.058 1.042-.289.348-.288.347zm.327-.53h.529v-.793h-1.058v.794zm.116-1.322h.382l.163-.265.164-.264h-1.09v.529zm-28.688-.265h-.133l8.596-8.599 8.596-8.599h.265l-8.596 8.6-8.596 8.598zM12.068 15.67h-.099l-.308-1.257-.308-1.257-.141-.473-.142-.474.749.184.749.183 1.058.332 1.058.333-1.323-.043-1.322-.042.064 1.257.064 1.257zm36.47-1.588l-.363 1.72.088-1.242.087-1.241-.398-.153-.398-.153-.957.135-.956.134 1.576-.515 1.576-.515.054.055.053.055zM8.29 10.59l-.532.079-.331-.399-.331-.399.177-.806.177-.807.49-.263.49-.262h.829v.529h-.993l-.319.384-.319.385.096.475.097.476.594-.022.594-.022-.094.287-.094.286zm3.098.054h-.453l-.176-.177-.177-.176v-.368l.662.127.661.126V9.32h-.793v-.468l.595-.197.595-.196-.6-.118-.598-.118.151-.245.152-.246h.996l.164.265.163.264-.207.331-.208.33.08.48.078.478-.316.381-.317.382zm37.118-.054l-.531.079-.331-.399-.331-.399.177-.806.177-.807.49-.263.49-.262h.829v.529h-.993l-.32.384-.318.385.096.475.096.476.595-.022.594-.022-.094.287-.094.286zm3.29.054h-.791l.176-.993.175-.992.141-.478.141-.479.705.082.705.081.057 1.042.058 1.042-.289.347-.288.347zm.326-.53h.53V9.32h-1.06v.793zm.117-1.323h.38l.164-.264.164-.265h-1.09v.529zM9.906 9.85h-.381V9.32h1.09l-.164.264-.163.265zm40.217 0h-.381V9.32h1.089l-.163.264-.164.265zM30.516 2.916l-.532.08-.331-.4-.331-.398.177-.807.177-.807.49-.262.49-.263h.829v.529h-.993l-.319.385-.319.384.096.475.097.476.594-.022.594-.021-.094.286-.094.286z" fill="#676767"/><path d="M28.651 61.112l-.29.727.15-.926.151-.926.198-.661.199-.662.022.596.023.595h.577l.46-.569.461-.57.707.178.706.177v1.578l-.53.529-.529.53h-1.048l-.166-.662-.166-.662h-.634l-.29.728zm1.876.066h.629l.319-.384.319-.384-.091-.473-.091-.473-.473-.09-.473-.092-.384.319-.384.319v1.258zm-24.1-7.21l-.291.728.15-.926.151-.926.198-.662.199-.661.022.595.023.595h.577l.46-.569.461-.569.706.177.706.178v1.577l-.529.53-.529.528H7.683l-.166-.661-.166-.662h-.634zm1.875.066h.629l.319-.384.319-.384-.091-.473-.091-.473-.473-.09-.473-.092-.384.32-.384.318v1.258zm4.101.53h-.497v-.53H12.965v-.794h-.794v-.529H13.23v-.529l-.596-.004-.595-.004.396-.256.397-.257.317-.004.317-.004-.032 1.125-.03 1.124-.253.33-.251.331h-.497zm34.77-.596l-.291.728.15-.926.15-.927.2-.661.198-.661.022.595.023.595h.577l.46-.569.461-.569.706.177.706.178v1.577l-.529.53-.529.528H48.43l-.166-.661-.166-.662h-.634l-.29.728zm1.875.066h.629l.319-.384.319-.384-.091-.473-.091-.473-.473-.09-.473-.092-.384.32-.384.318v1.259zm3.982.53h-.642v-.24l.29-1.35.289-1.351.7.08.7.082.064.53.064.528-.15-.33-.15-.331h-.983l-.163.265-.164.264h.984l.318.318.317.317v.386l-.416.415-.415.416zm.351-.579l.726-.083v-.529l-.561-.08-.562-.08-.164.428-.165.428zm-42.665-.216h-.397v-.529h.794v.529zm40.745 0h-.396v-.529h.793v.529zm-8.995-5.556h-.133v-.264h.265v.264zm1.19 0h-.353l.177-.176.176-.177.177.177.176.176zm.754-.406l-.092.088-.341-.37-.342-.37h.52l.174.282.174.282zm-1.966-.408l-.508-.021.348-.14.347-.138.16.16.16.16-.507-.021zm.419-.773h-.353l.176-.177.177-.176.176.176.176.177zm1.322 0h-.352l.176-.177.176-.176.177.176.176.177zm.079-1.344l-.21-.02-2.528-1.765-2.528-1.766-4.494-2.91-4.494-2.91-.56-1.81-.558-1.807.74-2.293.741-2.293.027 1.344.027 1.344 1.26 1.302L32.944 33l5.765 6.151 5.764 6.152-.21-.02zM41.1 42.64l.223.018-3.645-3.903-3.644-3.902-1.675-1.786-1.674-1.786h-.523l-.012-.463-.012-.463-.38 1.058-.381 1.059.532 1.587.532 1.588 5.218 3.488 5.218 3.488.223.017zM.761 32.603H.265v-.529h1.058v-.794H.529v-.529H1.588v-.529l-.596-.004-.595-.004.397-.257.397-.256.316-.004.317-.004-.031 1.124-.032 1.125-.251.33-.252.331H.761zm58.09 0h-.643v-.239l.29-1.35.29-1.352.7.082.7.08.064.53.064.53-.15-.332-.15-.33h-.983l-.163.264-.164.265h.984l.317.317.318.318v.385l-.416.416-.416.416zm.351-.578l.726-.084v-.529l-.562-.08-.561-.08-.164.428-.165.429zM8.063 10.643h-.371l-.274-.512-.274-.512.237-.624.237-.623.42-.35.422-.35.466.204.467.203-.53.12-.529.12-.33.268-.331.268v1.258h1.089l-.163.265-.164.265zm3.282 0h-.497v-.53h1.058V9.32h-.793v-.53h1.058v-.529l-.595-.004-.596-.004.397-.256.397-.257.317-.004.316-.004-.03 1.125-.032 1.124-.252.331-.252.33zm36.935 0h-.372l-.274-.512-.274-.512.237-.624.237-.623.422-.35.42-.35.467.204.466.203-.529.12-.529.12-.33.268-.331.268v1.258h1.089l-.163.265-.164.265zm3.427 0h-.642v-.239l.29-1.351.29-1.351.7.081.7.081.063.53.064.529-.15-.331-.15-.33h-.983l-.163.264-.164.264h.984l.318.318.317.317v.386l-.416.416-.415.416zm.351-.578l.726-.084v-.529l-.561-.08-.562-.08-.164.428-.165.428zM9.922 9.849h-.397V9.32h.794v.529zm40.217 0h-.397V9.32h.793v.529zm-19.85-6.88h-.372l-.274-.511-.274-.512.237-.624.237-.623.42-.35.422-.349.466.203.467.203-.53.12-.529.12-.33.268-.331.268V2.44h1.089l-.163.265-.164.265z" fill="#f80c0c"/><path d="M28.651 61.112l-.29.727.15-.926.151-.926.198-.661.199-.662.022.596.023.595h.577l.46-.569.461-.57.707.178.706.177v1.578l-.53.529-.529.53h-1.048l-.166-.662-.166-.662h-.634l-.29.728zm1.876.066h.629l.319-.384.319-.384-.091-.473-.091-.473-.473-.09-.473-.092-.384.319-.384.319v1.258zm-24.1-7.21l-.291.728.15-.926.151-.926.198-.662.199-.661.022.595.023.595h.577l.46-.569.461-.569.706.177.706.178v1.577l-.529.53-.529.528H7.683l-.166-.661-.166-.662h-.634zm1.875.066h.629l.319-.384.319-.384-.091-.473-.091-.473-.473-.09-.473-.092-.384.32-.384.318v1.258zm4.101.53h-.497v-.53H12.965v-.794h-.794v-.529H13.23v-.529l-.596-.004-.595-.004.396-.256.397-.257.317-.004.317-.004-.032 1.125-.03 1.124-.253.33-.251.331h-.497zm34.77-.596l-.291.728.15-.926.15-.927.2-.661.198-.661.022.595.023.595h.577l.46-.569.461-.569.706.177.706.178v1.577l-.529.53-.529.528H48.43l-.166-.661-.166-.662h-.634l-.29.728zm1.875.066h.629l.319-.384.319-.384-.091-.473-.091-.473-.473-.09-.473-.092-.384.32-.384.318v1.259zm3.982.53h-.642v-.24l.29-1.35.289-1.351.7.08.7.082.064.53.064.528-.15-.33-.15-.331h-.983l-.163.265-.164.264h.984l.318.318.317.317v.386l-.416.415-.415.416zm.351-.579l.726-.083v-.529l-.561-.08-.562-.08-.164.428-.165.428zm-42.665-.216h-.397v-.529h.794v.529zm40.745 0h-.396v-.529h.793v.529zm-8.995-5.556h-.133v-.264h.265v.264zm1.19 0h-.353l.177-.176.176-.177.177.177.176.176zm.754-.406l-.092.088-.341-.37-.342-.37h.52l.174.282.174.282zm-1.966-.408l-.508-.021.348-.14.347-.138.16.16.16.16-.507-.021zm.419-.773h-.353l.176-.177.177-.176.176.176.176.177zm1.322 0h-.352l.176-.177.176-.176.177.176.176.177zM.761 32.603H.265v-.529h1.058v-.794H.529v-.529H1.588v-.529l-.596-.004-.595-.004.397-.257.397-.256.316-.004.317-.004-.031 1.124-.032 1.125-.251.33-.252.331H.761zm58.09 0h-.643v-.239l.29-1.35.29-1.352.7.082.7.08.064.53.064.53-.15-.332-.15-.33h-.983l-.163.264-.164.265h.984l.317.317.318.318v.385l-.416.416-.416.416zm.351-.578l.726-.084v-.529l-.562-.08-.561-.08-.164.428-.165.429zM8.063 10.643h-.371l-.274-.512-.274-.512.237-.624.237-.623.42-.35.422-.35.466.204.467.203-.53.12-.529.12-.33.268-.331.268v1.258h1.089l-.163.265-.164.265zm3.282 0h-.497v-.53h1.058V9.32h-.793v-.53h1.058v-.529l-.595-.004-.596-.004.397-.256.397-.257.317-.004.316-.004-.03 1.125-.032 1.124-.252.331-.252.33zm36.935 0h-.372l-.274-.512-.274-.512.237-.624.237-.623.422-.35.42-.35.467.204.466.203-.529.12-.529.12-.33.268-.331.268v1.258h1.089l-.163.265-.164.265zm3.427 0h-.642v-.239l.29-1.351.29-1.351.7.081.7.081.063.53.064.529-.15-.331-.15-.33h-.983l-.163.264-.164.264h.984l.318.318.317.317v.386l-.416.416-.415.416zm.351-.578l.726-.084v-.529l-.561-.08-.562-.08-.164.428-.165.428zM9.922 9.849h-.397V9.32h.794v.529zm40.217 0h-.397V9.32h.793v.529zm-19.85-6.88h-.372l-.274-.511-.274-.512.237-.624.237-.623.42-.35.422-.349.466.203.467.203-.53.12-.529.12-.33.268-.331.268V2.44h1.089l-.163.265-.164.265z" fill="#060606"/></svg>