<svg xmlns="http://www.w3.org/2000/svg" width="500" height="200" viewBox="0 0 132.29167 52.916668"><defs><filter id="a" x="-.008" width="1.017" y="-.021" height="1.042" color-interpolation-filters="sRGB"><feGaussianBlur stdDeviation=".462"/></filter></defs><path fill="#fff" d="M-18.196-9.195h159.774v69.223H-18.196z"/><text style="line-height:1.25" x="134.704" y="103.497" font-weight="400" font-size="10.583" font-family="sans-serif" letter-spacing="0" word-spacing="0" stroke-width=".265" transform="translate(0 -244.083)"/><g opacity=".075" fill="#333"><path d="M18.807 50.687c-1.357-.26-2.453-.81-3.534-1.773-1.06-.944-1.556-1.688-1.93-2.895-.267-.864-.321-2.244-.12-3.055.721-2.901 3.46-4.98 6.76-5.13 2.194-.1 3.932.493 5.502 1.874l.911.802v1.215c0 .984-.033 1.228-.176 1.277-.097.033-.177.157-.177.274 0 .296-.286.268-.518-.05-.203-.276-.658-.361-.658-.122 0 .077-.136.205-.302.284-.351.169-.56.085-.848-.34-.18-.266-.178-.298.024-.498.172-.17.188-.246.076-.367a.44.44 0 0 1-.105-.337c.024-.117-.056-.207-.219-.245-.382-.089-1.084-1.037-.893-1.207.154-.138.502-.055.505.121.004.172.014.172.155.007.083-.098.288-.208.456-.246 1.343-.302-1.301-1.528-3.283-1.522-1.166.003-1.734.122-2.85.596-.62.264-.826.395-.673.428.122.026.254.003.294-.05a.659.659 0 0 1 .27-.162c.226-.075.533.18.344.285-.065.036-.09.13-.057.21.034.078.005.174-.064.213-.198.11-.148.247.118.322.144.041.218.13.182.215-.035.08.009.21.096.287.111.1.124.197.045.325-.077.122-.071.23.018.325.102.11.044.255-.254.632-.288.367-.382.594-.373.905.01.354-.024.416-.231.416-.243 0-1.139-.492-1.139-.626 0-.039-.185-.251-.41-.472-.4-.39-.42-.397-.703-.231-.16.094-.366.17-.458.17-.167 0-.209.165-.379 1.501l-.077.606h.425c.455 0 .512-.088.279-.43-.125-.182-.114-.237.07-.36.12-.079.297-.116.394-.083a.257.257 0 0 0 .28-.086c.083-.12.145-.123.339-.016.13.073.31.132.4.132.09 0 .225.065.298.144.102.11.09.176-.047.278-.102.076-.151.217-.113.325.037.105-.019.31-.125.454-.106.145-.192.476-.192.736 0 .35-.04.458-.158.418-.087-.03-.273.049-.414.175-.2.18-.224.256-.112.35.11.092.158.09.198-.01.037-.09.196-.111.508-.067.34.05.551.013.843-.146.278-.15.669-.224 1.363-.258.944-.046.976-.04 1.043.2.038.137.04.354.003.483-.458 1.624-.49 1.874-.275 2.208.148.23.171.357.082.437-.22.197-.507-.072-.98-.92-.267-.48-.52-.805-.629-.805-.28 0-.864-.415-.864-.613 0-.139-.096-.172-.441-.153-.612.033-1.207.145-1.204.225.01.229.923 1.12 1.55 1.514 2.033 1.276 4.286 1.462 6.445.534 1.21-.52 2.332-1.523 2.886-2.579.334-.637.405-.718.408-.462.002.17-.112.525-.255.788-.142.264-.281.756-.309 1.094-.049.605-.06.621-.77 1.15-1.754 1.308-4.02 1.808-6.251 1.381zm9.465.081c-1.778-.519-2.598-2.173-1.776-3.584.245-.42.253-.555.253-3.944 0-3.802.045-4.141.639-4.838.34-.4 1.035-.704 1.604-.704.427 0 1.131.307 1.488.65.597.573.623.765.623 4.655v3.627l.314.541c.722 1.247.195 2.76-1.182 3.394-.51.234-1.504.337-1.963.203zm1.571-1.135c.796-.364 1.03-1.5.458-2.22-.252-.316-.257-.389-.257-4.022 0-4.312-.036-4.485-.97-4.695-.268-.06-.393-.01-.735.297l-.413.369v3.89c0 3.763-.008 3.898-.236 4.083-.598.484-.548 1.534.1 2.089.577.495 1.273.566 2.053.21zm-1.654-.538c-.542-.454-.58-.838-.152-1.555l.36-.604V40.12h1.176v3.502l.001 3.501.29.422c.419.609.389 1.045-.103 1.485-.52.466-1.066.488-1.573.065zm-4.79-1.18a1.222 1.222 0 0 0-.427-.268c-.119-.034-.265-.222-.326-.418-.06-.196-.17-.418-.243-.494a5.03 5.03 0 0 1-.289-.34c-.152-.198-.166-.197-.594.04-.392.217-.486.23-.897.12-.253-.068-.518-.222-.59-.342-.154-.259-.05-.879.21-1.238.168-.235.167-.249-.024-.183a.381.381 0 0 1-.348-.674c.137-.102.147-.155.04-.214-.103-.057-.055-.173.17-.413.173-.183.314-.415.314-.514 0-.1.065-.24.145-.311.114-.103.087-.124-.13-.1-.398.042-.594-.268-.333-.526.11-.11.2-.303.2-.43 0-.45.745-1.28 1.15-1.28.06 0 .178.202.264.448.086.246.299.59.472.764.174.174.349.399.389.5.046.12.194.184.421.184.398 0 .513.1.363.318a.22.22 0 0 0 .018.28c.133.143.026.386-.132.299-.213-.118-.506.103-.715.539-.16.332-.27.44-.402.394a.447.447 0 0 0-.363.07c-.136.102-.213.105-.316.013-.214-.192-.53-.144-.73.112-.27.345-.225.4.18.22.213-.096.519-.14.74-.108.212.03.502-.008.666-.09.493-.244.82-.178 1.374.28.411.339.583.417.808.366.34-.076.365.06.11.605-.105.226-.146.506-.101.705.13.587-.412 1.895-.787 1.895-.042 0-.172-.094-.287-.208zm-1.931-5.563c.082-.194.072-.29-.038-.351-.11-.061-.162.004-.189.228-.023.193-.104.313-.213.313-.097 0-.145.046-.106.101.112.163.424-.003.546-.29zM14.72 14.885c-.303-.053-.907-.232-1.34-.4-.787-.303-.793-.304-2.052-.357-2.028-.084-2.347-.235-1.923-.911.21-.333.153-.591-.16-.736-.124-.058-.638-.17-1.14-.25-1.039-.163-1.314-.253-1.314-.43 0-.144.37-.44.78-.625.467-.21 1.278-.359 1.967-.359h.646V7.81c0-3.475-.038-3.29.75-3.632.633-.276 1.252-.41 2.248-.488 2.083-.162 4.218.296 4.62.99.095.166.114.704.114 3.157v2.958l.454.114c.56.14.733.25.75.476.006.096.049.198.094.227.046.028.5.052 1.008.053 1.295.001 1.718.166 1.718.67 0 .388-.66.673-1.815.786-.282.028-.46.066-.394.084.25.071.878.533.99.729.23.396-.18.668-1.326.883-.808.15-3.93.197-4.674.069zm-1.658-2.179c.08-.204.247-.566.37-.805.234-.455.265-.55.162-.493-.104.058-1.214-.143-1.697-.307a4 4 0 0 1-.808-.395l-.353-.24v.725c0 .828.04.91.61 1.262.298.183 1.349.612 1.525.622.024.001.11-.165.19-.369zm1.036-2.149c.147-.318.316-.766.376-.996l.11-.418-.918-.042c-1.194-.055-2.229-.346-2.752-.775l-.178-.146.002.983c0 .541.027 1.017.059 1.058.34.435 1.912.96 2.77.925.254-.01.275-.033.532-.589zm.406-1.702c.14-.042.124-.577-.028-.983-.186-.497-.456-.773-.992-1.016-.263-.118-.554-.288-.646-.378-.108-.104-.34-.194-.642-.25-.41-.076-.778-.183-1.322-.388-.128-.048-.138.026-.138 1.009v1.06l.247.187c.33.247.726.423 1.28.567.707.185 1.923.289 2.24.192zm2.838-.492c-.019-.106-.033-.019-.033.195 0 .213.014.3.033.194a1.399 1.399 0 0 0 0-.389zm-.003-.666c-.025-.056-.044-.04-.048.043-.003.074.015.116.042.092.026-.023.029-.084.006-.135zm-4.554-1.995c-.064-.057-.4-.21-.747-.343-.953-.362-.854-.615.242-.615.28 0 .836-.051 1.237-.114.942-.147 2.77-.167 3.097-.034l.237.097-.434.117c-.326.088-.398.13-.29.167.08.027.222.05.316.05s.288.064.43.141c.316.173.308.173.412 0 .257-.43-.743-.837-2.44-.992-1.816-.165-4.005.28-4.094.832-.018.114.058.2.303.338.325.184 1.281.446 1.652.454.17.003.18-.01.079-.098zM-.962 39.254c-.216-.162-.395-.42-.44-.637-.075-.357-.088-.363-.751-.395l-.676-.031-.035-.723-.035-.722h.728V31.18H14.092V36.746h.718v1.498h-.718c-.693 0-.718.01-.718.278 0 .43-.707 1.007-1.234 1.007-.556 0-1.123-.425-1.226-.917-.043-.202-.125-.368-.184-.368-.058 0-.1.036-.092.08.099.561-.476 1.205-1.075 1.205-.74 0-1.33-.473-1.33-1.065 0-.214-.062-.22-2.273-.22H3.688v.278c0 .439-.707 1.007-1.252 1.007-.574 0-1.14-.475-1.14-.955 0-.445-.193-.419-.289.038-.101.483-.671.917-1.205.917-.255 0-.532-.1-.764-.275zM1.596 34.5v-1.82H.819V36.318h.777zm3.169 0v-1.82h-.837V36.318h.837zm3.228 0v-1.82h-.837V36.318h.837zm3.11 0v-1.82h-.778V36.318h.777zm-11.36-4.115c0-.085.127-.287.283-.45.212-.22.392-.294.717-.294.315 0 .452-.054.503-.196.105-.297.59-.532 1.031-.498a1.38 1.38 0 0 0 .746-.178c.206-.12.586-.214.918-.224.312-.009.611-.04.665-.069.299-.157.892-.181 1.252-.05.286.104.493.116.719.043.327-.107 1.057.072 1.057.26 0 .048.256.062.568.03.469-.048.615-.019.832.165.162.137.423.224.671.224.237 0 .591.112.848.268.242.147.522.267.622.267.404 0 .991.425 1 .723.003.105-1.318.134-6.215.134-5.34 0-6.218-.022-6.218-.155zM45.893 21.693c-.823-2.254-1.571-5.637-1.983-8.963-.182-1.468-.34-2.12-.566-2.322-.275-.246-.884-.287-4.904-.33-2.834-.03-4.782.016-5.091.12-.667.228-.791.572-1.05 2.914-.39 3.54-1.364 7.65-2.308 9.742l-.43.953H42.07l.116-.518c.064-.285.125-1.535.137-2.777.012-1.243.058-2.11.103-1.928.433 1.768 1.081 3.9 1.366 4.493l.35.73H46.663zm-17.58 1.51c.914-1.96 1.788-5.268 2.314-8.765.11-.73.24-1.494.29-1.7l.09-.372h-2.862c-2.355 0-2.914.046-3.153.26-.16.144-.291.36-.291.483 0 .577-.626 4.478-.933 5.807-.283 1.232-.834 3.025-1.413 4.601-.098.268.114.29 2.785.29h2.89zm.927-14.415c4.186-1.03 5.213-1.231 6.316-1.231 1.256 0 2.64.341 3.44.849.727.461.764.393.266-.487-.567-1.001-1.705-1.93-3.052-2.493-.886-.37-1.29-.433-2.709-.429-1.502.005-1.925.085-4.261.805-3.922 1.208-6.058 1.224-7.92.06-.281-.174-.51-.27-.51-.212 0 .272 1.192 1.609 2.048 2.298 1.65 1.328 3.443 1.564 6.382.84zm-3.25-3.177c.251-.042 1.418-.38 2.594-.752s2.722-.8 3.435-.953l1.297-.277-1.096-.294c-.715-.192-1.397-.263-1.96-.203-.82.086-1.297.224-5.004 1.446-1.277.421-1.78.507-2.662.452-.94-.058-1.04-.037-.75.153.73.478 2.661.677 4.146.428zM16.395 35.358c.117-.43.4-.788.746-.943.18-.082.353-.234.383-.339.093-.324.801-.881 1.262-.993.372-.09.446-.152.546-.454.337-1.015 1.7-1.58 2.71-1.123l.368.167.336-.252c.818-.615 2.053-.532 2.73.183.164.175.323.26.422.226.255-.089.865.137 1.13.418.165.174.39.282.68.325.655.097 1.351.573 1.718 1.172.172.282.441.578.599.658.34.174.705.674.706.967l.002.208-7.204.017-7.203.017zm-.267-4.11c.503-.392 1.26-.726 1.802-.793.367-.046.48-.106.57-.3.21-.456 1.66-1.618 1.83-1.467.03.027-.11.204-.314.392-.565.524-.89 1.185-.888 1.81l.002.528-.385-.174c-.556-.253-1.474-.227-2.254.063-.342.127-.644.229-.672.227-.029-.002.11-.13.31-.285zm12.21-.189c0-.462-.539-1.037-1.297-1.385-.326-.15-.365-.192-.185-.195.37-.008 1.323.347 1.576.587.205.194.274.21.547.124.332-.105 1.684.05 1.791.203.03.043-.209.078-.53.08-.704 0-1.12.137-1.565.512-.323.272-.336.275-.336.074zm-5.493-4.516c-.515-.23-.8-.252-1.385-.105-.22.055-.424.077-.455.049-.113-.1 1.066-.519 1.467-.52.326-.002.485-.068.776-.322.324-.283 1.347-.775 1.347-.648 0 .027-.236.245-.525.484-.392.325-.556.542-.644.853l-.119.417zM3.162 27.098C1.92 26.843.714 26.216-.31 25.291c-3.689-3.33-2.527-8.99 2.243-10.919 3.313-1.34 7.328-.101 9.175 2.829 1.68 2.667 1.114 6.113-1.357 8.254-.742.643-1.983 1.284-3.006 1.554-.57.15-2.992.21-3.582.089zm.115-2.674c.657-.279 1.179-.714 1.315-1.096.068-.194.275-.279.275-.113 0 .046.198.286.441.533.498.506 1.415.96 1.917.95.306-.006.292-.019-.159-.145-.614-.173-1.28-.73-1.577-1.32-.273-.54-.286-1.367-.03-1.896.238-.49.226-.52-.112-.28-.347.243-.837.264-1.082.044-.264-.236-.3-.12-.114.353.528 1.34-.276 2.74-1.813 3.16l-.276.074.275.009c.152.004.574-.119.94-.273zm.71-1.532c0-.022.028-.105.061-.183.042-.097-.037-.16-.247-.2-.812-.15-1.571-1.208-1.43-1.99.04-.22.012-.342-.086-.376-.228-.079-.278.028-.278.595 0 .603.17 1.027.589 1.472.335.355 1.391.874 1.391.682zm2.373-.271c.748-.395 1.28-1.479 1.095-2.232-.118-.482-.389-.287-.389.28 0 .257-.072.623-.16.811-.171.368-.783.904-1.152 1.009-.13.036-.227.148-.227.26 0 .228.223.194.833-.128zm-7.46-.352c.014-.957.45-1.614 1.395-2.099.982-.504 2.354-.356 3.165.342.34.292.527.327.527.099 0-.087.144-.278.32-.426.38-.316.33-.42-.275-.577-1.956-.511-2.539-2.716-1.066-4.034.52-.465.455-.465-.212 0-.25.174-.55.539-.77.94-.305.555-.36.76-.349 1.303.008.396.085.77.2.97.104.18.173.337.153.351-.02.014-.318.074-.663.135-1.477.257-2.62 1.438-2.615 2.705.001.367.092.857.158.857.014 0 .028-.254.033-.566zm11.9-.785c-.165-.658-.48-1.141-1.028-1.572-.518-.408-1.036-.593-1.935-.688l-.54-.057.23-.402c.523-.92.339-2.238-.418-2.98l-.389-.381.301.374c.83 1.033.634 2.442-.457 3.302-.44.346-1.089.605-1.517.605-.284 0-.22.364.076.43.14.032.313.17.382.306.151.297.358.317.617.06.105-.102.445-.285.756-.405.456-.175.706-.208 1.296-.17 1.507.096 2.482 1.017 2.529 2.388l.017.492.095-.433a2.065 2.065 0 0 0-.015-.87zm-6.054-2.782c.338.001.667.084.992.25.423.217.507.23.645.108.137-.123.089-.177-.365-.415-.882-.463-2.026-.433-2.743.072-.22.154-.258.232-.164.332.1.108.212.088.625-.108a2.39 2.39 0 0 1 1.01-.239zM40.835 31.372a1.144 1.144 0 0 1-.025-.29c0-.236.004-.253.052-.283a.215.215 0 0 1 .09-.033c.097 0 .098-.022.092-1.267v-.172h-.698c-.764 0-.751-.002-.782.124-.009.035-.024.068-.035.074-.01.005-.157.012-.327.015-.28.004-.31.001-.34-.035a.146.146 0 0 1-.033-.075c0-.019-.019-.05-.042-.069-.04-.031-.237-.034-2.364-.034-1.277 0-2.338.005-2.359.012-.02.007-.036.035-.036.063a.146.146 0 0 1-.047.092c-.042.037-.078.041-.36.041-.287 0-.316-.003-.338-.04a.216.216 0 0 1-.025-.094.172.172 0 0 0-.005-.058c-.004-.002-.667-.01-1.475-.016l-1.468-.01-.201-.065c-.4-.128-.766-.414-.95-.743-.179-.321-.174-.275-.188-1.67-.014-1.331-.01-1.287-.122-1.288-.095 0-.113-.053-.113-.331 0-.18.01-.274.028-.291.022-.019.4-.025 1.56-.025 1.362 0 1.537.004 1.57.033.028.026.036.083.035.287 0 .14-.008.265-.018.279a.287.287 0 0 1-.11.052l-.093.027-.006.652-.006.652h.744c.41 0 .761-.006.782-.013.02-.007.036-.035.036-.063 0-.029.028-.074.062-.102.058-.049.077-.052.338-.052.316 0 .37.023.37.154 0 .056.01.074.052.083.028.007.487.01 1.02.008l.967-.005.007-.137.007-.138-.135-.044a1.306 1.306 0 0 1-.795-.71 1.321 1.321 0 0 1-.052-.668c.108-.435.497-.8.973-.91.172-.04.495-.04.672 0 .488.111.874.473.978.918a.974.974 0 0 1 0 .495c-.09.386-.425.734-.838.872l-.13.044v.132c0 .091.01.135.032.142.018.006.46.012.982.014.824.002.958-.002 1.006-.03.03-.018.055-.051.055-.074s.021-.06.047-.083c.041-.037.078-.042.322-.042.306 0 .334.01.376.128.017.05.045.08.078.089.028.007.644.012 1.368.013 1.424 0 1.45.002 1.754.117.453.17.777.49.944.933l.064.17.007 1.283c.006 1.144.011 1.286.045 1.319.02.02.05.037.065.037s.045.017.066.038c.032.032.039.086.039.299 0 .174-.01.268-.028.285-.021.019-.402.025-1.573.025-1.503 0-1.545-.001-1.568-.04zm-11.446-4.611v-1.106h-.163V27.866h.163zm9.339.453l-.004-.067-2.255-.006-2.255-.005v.146h4.518zm3.411-.01v-.078H39.69l-.014.047c-.032.114-.088.11 1.239.11h1.224zm-8.321-.162c0-.077-.002-.078-.222-.078-.17 0-.175.002-.175.078v.073h.397zm5.594.002v-.072l-.198-.006-.199-.007v.156h.397v-.071zm-2.793-.724a.979.979 0 0 0 .487-.246c.283-.253.375-.59.247-.906a.948.948 0 0 0-.544-.53c-.122-.052-.162-.057-.392-.057-.326 0-.455.042-.67.218a.785.785 0 0 0-.23.275c-.075.145-.08.165-.08.383 0 .214.006.238.073.365.206.384.653.585 1.11.498zm-.284-.692c-.082-.037-.113-.127-.068-.199.019-.03.057-.059.085-.062.034-.005.114-.086.242-.245.106-.131.195-.236.2-.232.003.003-.047.118-.113.255-.084.176-.118.274-.116.335.005.126-.111.201-.23.148zm-.77-.13c0-.06.059-.08.201-.069.08.006.092.014.099.064l.007.058h-.153c-.148 0-.153-.002-.153-.052zm1.404-.005c.007-.054.014-.057.138-.063.13-.006.132-.006.142.057l.01.064h-.149c-.148 0-.149 0-.141-.058zm-1.158-.4c-.089-.082-.09-.084-.047-.127l.043-.042.1.087c.081.071.095.094.076.126-.034.057-.072.047-.172-.045zm1.1.044c-.037-.035-.033-.043.061-.125l.1-.088.044.042c.042.043.042.045-.047.126a.523.523 0 0 1-.106.083c-.008 0-.032-.017-.053-.038zm-.566-.23a.482.482 0 0 1-.01-.132c0-.121 0-.121.07-.121h.07v.135c0 .132-.001.135-.06.13a.2.2 0 0 1-.07-.013zm-7.12.357v-.172h-.162v.344h.163zM33.676 45.622c0-.498.012-.524.24-.524.196 0 .259-.06.337-.327a277.7 277.7 0 0 0 1.292-5c.122-.545.489-3.158.449-3.194-.08-.072-1.462-.22-1.52-.164-.036.035-.011.081.056.103.082.026.122.239.122.643v.604h-.683v-.606c0-.334.044-.63.098-.66.186-.104.095-.2-.244-.257-.298-.05-.342-.09-.342-.313v-.255l1.342-.024 1.341-.025.199-1.429c.13-.944.164-1.438.097-1.456a14.366 14.366 0 0 0-.728-.12c-.604-.088-.838-.065-.638.063.052.033.095.326.096.65l.002.59h-.735v-.612c0-.35.042-.611.098-.611.053 0 .097-.057.097-.126 0-.077-.12-.135-.317-.152-.28-.025-.317-.058-.316-.29v-.262l3.72-.023 3.72-.022.044.263c.052.32.023.35-.33.35-.18 0-.276.045-.276.13 0 .073.044.132.098.132.06 0 .091.247.08.611l-.018.611h-.719l.004-.589c.002-.324.05-.617.106-.65.209-.125-.01-.135-.722-.035-.403.057-.726.14-.72.187.007.046.092.702.189 1.459l.177 1.375h2.696v.252c0 .22-.045.26-.342.31-.204.034-.341.108-.341.184 0 .07.044.127.097.127.056 0 .098.262.098.612v.61h-.683v-.603c0-.404.04-.617.122-.643.067-.022.09-.07.05-.107-.107-.103-1.538.138-1.538.26 0 .056.11.827.244 1.712.152 1.002.496 2.564.911 4.141.66 2.504.67 2.533.927 2.56.248.027.26.05.26.546v.518h-8.197zm5.533-2.22c-.762-.934-1.408-1.698-1.435-1.7-.027 0-.673.763-1.436 1.697l-1.388 1.7h5.646zm-2.434-1.214l.713-.858-.607-.734c-.334-.403-.621-.721-.638-.706-.032.03-1.103 4.128-1.103 4.224 0 .031.207-.197.46-.506.254-.309.783-.948 1.175-1.42zm3.088-.197c-.3-1.149-.557-2.1-.572-2.113-.014-.013-.296.308-.626.715l-.6.739 1.145 1.397c.63.769 1.158 1.387 1.173 1.374.014-.013-.22-.964-.52-2.112zm-1.35-1.925c.44-.547.665-.906.644-1.026-.032-.18-1.285-1.968-1.383-1.973-.09-.005-1.293 1.691-1.37 1.931-.066.206.015.347.615 1.073.38.46.719.836.753.836.035 0 .368-.379.74-.841zm-1.337-3.847l-.323-.42-.111.61c-.061.336-.139.828-.172 1.092l-.06.48.494-.67.496-.672zm1.717.756a17.648 17.648 0 0 1-.14-1.089c-.002-.12-.107-.035-.35.287l-.346.46.457.656c.25.36.47.643.486.629.016-.015-.032-.44-.107-.943zm-2.777-.828c0-.105-.139-.129-.708-.12l-.707.012.585.11c.79.149.83.149.83-.002zm2.122-.473l.415-.597-.415-.619c-.228-.34-.437-.62-.464-.622-.027-.002-.24.281-.474.628-.33.49-.4.66-.319.764.058.073.25.339.425.59.176.25.341.455.368.454.027 0 .236-.27.464-.598zm2.123.436l.487-.073-.708-.01c-.572-.009-.707.015-.707.122 0 .094.064.118.22.083.122-.027.44-.082.708-.122zm-3.018-2.905c-.102-.13-.155-.153-.155-.068 0 .07-.026.286-.057.478l-.056.35.211-.282c.196-.26.2-.295.057-.478zm1.036.191c-.074-.37-.085-.381-.198-.197-.099.161-.09.246.045.48.2.347.257.243.153-.283zm-.376-.698l.173-.262h-.803l.173.262c.095.144.198.262.228.262s.134-.118.229-.262zm-1.4-.393c0-.106-.143-.13-.756-.12l-.756.01.634.11c.862.149.878.149.878 0zm3.464-.046c.33-.056.273-.067-.366-.076-.597-.007-.756.017-.756.116 0 .13.156.124 1.122-.04zM45.056 34.731c0-.265.006-.278.127-.278.104 0 .137-.033.179-.174.073-.25.631-2.408.687-2.657.064-.29.26-1.678.238-1.697-.043-.038-.776-.117-.808-.087-.019.018-.005.043.03.054.044.014.065.127.065.342v.32h-.363v-.321c0-.177.023-.335.052-.35.1-.056.05-.107-.13-.137-.158-.027-.181-.048-.181-.166v-.136l.713-.013.713-.013.105-.76c.07-.5.087-.764.052-.773a7.622 7.622 0 0 0-.387-.063c-.321-.048-.445-.035-.34.033.028.017.052.173.052.345l.001.313h-.391v-.325c0-.185.023-.324.052-.324.029 0 .052-.03.052-.067 0-.041-.064-.072-.168-.081-.15-.013-.169-.03-.169-.154v-.14l1.977-.011 1.977-.012.023.14c.028.17.013.185-.175.185-.096 0-.147.024-.147.07 0 .038.024.07.052.07.032 0 .049.13.043.324l-.01.325h-.382l.002-.313c.001-.172.027-.328.056-.345.112-.067-.005-.072-.383-.019-.214.03-.386.075-.382.1l.1.774.094.731h1.432v.134c0 .117-.024.138-.181.165-.109.018-.182.057-.182.098 0 .037.024.067.052.067.03 0 .052.14.052.325v.325h-.363v-.321c0-.215.022-.328.065-.342.036-.011.048-.037.027-.057-.057-.054-.818.074-.818.138 0 .03.059.44.13.91.081.533.264 1.363.484 2.2.35 1.331.356 1.347.492 1.361.133.014.139.027.139.29v.275h-4.355zm2.94-1.18c-.406-.496-.749-.902-.763-.903-.014 0-.358.406-.763.902l-.738.903h3zm-1.294-.645l.379-.456-.323-.39c-.177-.214-.33-.383-.338-.375a69.83 69.83 0 0 0-.587 2.245c0 .016.11-.105.245-.27l.624-.754zm1.641-.105a33.94 33.94 0 0 0-.304-1.122c-.008-.007-.157.164-.333.38l-.319.392.61.743c.334.408.614.737.622.73.008-.007-.116-.512-.276-1.123zm-.718-1.022c.234-.29.354-.481.343-.546-.017-.095-.683-1.045-.735-1.048-.048-.003-.687.899-.728 1.026-.035.11.008.185.327.57.201.245.382.444.4.444.018 0 .195-.2.393-.446zm-.71-2.045l-.171-.223-.06.325c-.032.178-.073.44-.09.58l-.033.255.263-.357.263-.356zm.913.403a9.357 9.357 0 0 1-.075-.58c-.001-.064-.057-.018-.186.153l-.184.245.243.348c.133.192.25.342.258.334.009-.008-.017-.233-.056-.5zm-1.476-.44c0-.057-.074-.069-.376-.064l-.376.006.311.058c.42.08.44.08.44 0zm1.128-.252l.22-.317-.22-.33c-.122-.18-.233-.329-.247-.33-.015 0-.128.15-.252.334-.175.26-.213.351-.17.406.032.04.133.18.226.313.094.133.182.242.196.242.014 0 .125-.143.247-.318zm1.128.231l.258-.038-.376-.006c-.304-.004-.376.008-.376.065 0 .05.034.063.118.044.064-.014.233-.043.376-.065zm-1.604-1.543c-.054-.069-.082-.081-.083-.036 0 .037-.013.152-.03.254l-.03.185.113-.149c.104-.138.106-.157.03-.254zm.55.102c-.039-.197-.045-.203-.105-.105-.052.086-.048.13.024.255.107.184.136.13.081-.15zm-.2-.371l.092-.14h-.426l.092.14c.05.076.105.139.121.139s.07-.063.121-.14zm-.743-.21c0-.056-.076-.068-.402-.063l-.402.006.337.058c.458.079.467.079.467 0zm1.84-.023c.176-.03.146-.036-.194-.04-.317-.005-.402.008-.402.06 0 .07.083.067.596-.02zM5.703 47.607c0-.264.006-.278.127-.278.104 0 .138-.032.18-.174.072-.25.63-2.408.686-2.656.064-.29.26-1.679.238-1.698-.042-.038-.776-.117-.808-.087-.019.019-.005.043.03.055.044.014.065.127.065.341v.321h-.363v-.322c0-.177.024-.335.052-.35.1-.055.05-.106-.13-.137-.158-.026-.18-.048-.18-.166v-.136l.712-.013.713-.013.105-.759c.07-.501.087-.764.052-.774a7.622 7.622 0 0 0-.387-.063c-.32-.047-.445-.035-.339.033.028.018.05.173.051.345l.001.314h-.39v-.325c0-.186.022-.325.051-.325.029 0 .052-.03.052-.067 0-.04-.064-.072-.168-.08-.15-.014-.169-.031-.168-.155V40.3l1.977-.012 1.976-.012.023.14c.028.17.013.186-.175.186-.096 0-.147.024-.147.07 0 .038.024.069.053.069.03 0 .048.131.042.325l-.01.325h-.382l.002-.314c.001-.172.027-.327.057-.345.11-.066-.006-.072-.384-.019-.214.03-.386.075-.382.1l.1.775.094.73h1.432v.135c0 .116-.023.138-.181.164-.109.018-.181.058-.181.098 0 .037.023.068.051.068.03 0 .052.139.052.324v.325H9.54v-.32c0-.215.022-.328.065-.342.036-.012.048-.037.027-.057-.057-.055-.817.073-.817.138 0 .03.058.44.13.91.08.532.263 1.362.483 2.2.35 1.33.356 1.346.493 1.36.132.015.138.027.138.29v.276H5.703zm2.94-1.18c-.405-.496-.748-.902-.763-.902-.014 0-.358.405-.763.901l-.738.903h3zm-1.294-.644l.38-.456-.323-.39c-.178-.215-.33-.383-.34-.375a69.83 69.83 0 0 0-.586 2.244c0 .017.11-.104.245-.269l.624-.754zm1.641-.105a33.94 33.94 0 0 0-.304-1.123c-.007-.007-.157.164-.333.38l-.318.393.608.742c.335.409.615.737.623.73.008-.007-.116-.512-.276-1.122zm-.718-1.023c.234-.29.354-.481.343-.545-.017-.096-.683-1.046-.735-1.049-.048-.002-.687.9-.728 1.027-.035.11.008.184.327.57.202.244.382.444.4.444.019 0 .196-.201.393-.447zm-.71-2.044l-.171-.224-.06.325c-.032.179-.073.44-.09.58l-.033.255.263-.356.263-.357zm.913.402a9.357 9.357 0 0 1-.075-.579c0-.064-.057-.018-.185.153l-.184.244.242.348c.134.192.25.342.259.334.008-.007-.017-.233-.057-.5zm-1.476-.44c0-.056-.073-.069-.376-.064l-.376.006.311.059c.42.079.44.079.44-.001zm1.128-.252l.22-.317-.22-.329c-.122-.18-.233-.33-.247-.33-.014-.001-.128.15-.252.333-.175.261-.212.352-.169.407.03.038.132.18.226.313.093.133.181.242.195.241.015 0 .125-.143.247-.318zm1.128.232l.258-.039-.375-.005c-.305-.005-.376.008-.376.065 0 .05.034.063.117.044.065-.015.234-.044.376-.065zM7.65 41.009c-.054-.069-.082-.08-.082-.036 0 .038-.014.152-.03.254l-.03.186.112-.15c.104-.138.106-.156.03-.253zm.55.102c-.039-.197-.045-.203-.105-.105-.052.086-.048.131.024.256.107.183.137.129.081-.15zm-.2-.371l.093-.14h-.427l.092.14c.05.077.105.14.121.14s.071-.063.122-.14zm-.743-.209c0-.056-.076-.068-.402-.064l-.401.006.337.058c.458.08.466.08.466 0zm1.84-.024c.176-.03.146-.036-.194-.04-.317-.004-.402.009-.402.061 0 .069.083.066.597-.021zM13.544 27.272c0-.415.01-.436.2-.436.162 0 .215-.05.28-.273.114-.39.988-3.772 1.075-4.162.102-.454.407-2.63.374-2.66-.067-.06-1.217-.183-1.265-.136-.03.03-.01.068.046.086.068.021.102.199.102.535v.503h-.569v-.505c0-.277.037-.525.082-.55.155-.085.079-.165-.204-.213-.248-.041-.284-.075-.284-.26v-.213l1.117-.02 1.117-.02.165-1.19c.109-.786.137-1.197.081-1.212a11.956 11.956 0 0 0-.606-.1c-.503-.074-.698-.055-.531.052.043.028.08.271.08.541l.002.491h-.612v-.509c0-.29.034-.509.08-.509s.082-.047.082-.104c0-.065-.1-.113-.264-.127-.234-.02-.264-.048-.263-.241v-.218l3.097-.02 3.098-.019.036.22c.043.266.02.291-.275.291-.15 0-.23.038-.23.11 0 .06.037.108.082.108.05 0 .076.206.067.51l-.015.508h-.599l.003-.49c.002-.27.042-.514.088-.542.174-.104-.008-.113-.6-.03-.336.048-.605.118-.6.156.006.039.077.585.157 1.215l.148 1.145h2.244v.21c0 .183-.037.216-.284.258-.17.028-.285.09-.285.153 0 .058.037.106.082.106.046 0 .08.218.08.509v.509h-.568v-.503c0-.336.034-.514.102-.535.056-.018.075-.058.042-.09-.089-.085-1.28.116-1.28.217 0 .047.09.688.202 1.425.127.835.413 2.135.759 3.448.549 2.085.557 2.109.771 2.132.207.022.217.041.217.454v.431h-6.824zm4.606-1.849c-.635-.777-1.172-1.413-1.195-1.414-.022 0-.56.635-1.196 1.413l-1.155 1.414h4.7zm-2.027-1.01l.594-.715-.505-.61c-.278-.336-.517-.6-.531-.588-.027.024-.919 3.437-.919 3.517 0 .025.173-.164.384-.422.211-.257.65-.79.977-1.182zm2.572-.164c-.25-.957-.465-1.748-.477-1.76-.012-.01-.247.257-.521.596l-.5.615.954 1.164c.524.64.964 1.154.976 1.143.012-.01-.182-.802-.432-1.758zm-1.125-1.603c.366-.455.554-.754.536-.854-.026-.15-1.069-1.638-1.15-1.643-.076-.004-1.077 1.408-1.141 1.608-.055.172.012.289.511.893.316.383.599.696.628.696.029 0 .306-.315.616-.7zm-1.112-3.203l-.27-.35-.092.51c-.051.279-.116.688-.143.908l-.05.4.412-.559.412-.559zm1.429.63a14.66 14.66 0 0 1-.117-.906c-.002-.101-.089-.03-.29.239l-.289.383.38.545c.209.3.391.536.405.524.013-.013-.027-.366-.09-.785zm-2.313-.69c0-.087-.114-.106-.588-.099l-.59.01.488.091c.658.124.69.124.69-.001zm1.768-.393l.345-.497-.345-.515c-.19-.284-.364-.517-.387-.518-.023-.002-.2.234-.394.523-.275.408-.334.55-.266.636.049.06.208.281.354.49.146.209.284.38.306.379.023 0 .197-.225.387-.498zm1.767.363l.405-.061-.589-.009c-.477-.007-.589.013-.589.102 0 .079.054.099.184.07.101-.023.366-.07.59-.103zm-2.513-2.419c-.084-.108-.128-.127-.129-.056 0 .059-.022.238-.047.398l-.047.29.176-.234c.163-.217.166-.246.047-.398zm.863.16c-.061-.309-.07-.318-.165-.164-.082.134-.076.204.038.4.167.288.213.201.127-.236zm-.313-.582l.144-.218h-.669l.144.218c.08.12.165.218.19.218.026 0 .111-.098.19-.218zm-1.165-.327c0-.088-.12-.107-.63-.1l-.63.009.529.091c.717.124.73.124.73 0zm2.883-.038c.275-.047.228-.056-.304-.063-.498-.006-.63.014-.63.096 0 .108.13.103.934-.033z"/></g><path d="M74.838 260.984c-.105-.12-.118-.265-.037-.419.17-.325.49-1.026.781-1.715.675-1.595.695-1.622 1.487-1.976.415-.187.81-.34.878-.34.174 0 .245-.303.347-1.479.123-1.432.192-1.496 1.693-1.577l1.232-.067.898-.947c.85-.896 1.405-1.193 1.405-.754 0 .106.055.193.121.193.067 0 .357.347.645.771.289.424.56.771.604.772.043 0 .276-.26.517-.578.332-.438.528-.58.805-.58.687-.003.938-.146 1.23-.699.159-.302.29-.616.29-.697 0-.08.06-.147.135-.147.075 0 .136-.092.136-.205 0-.113.085-.359.188-.547.104-.187.302-.586.442-.886l.253-.546 1.445-.002 1.446-.002.66-.83c.724-.911 1.081-1.035 1.864-.648.214.105.476.192.583.192.325 0 1.27.51 1.27.684 0 .09.072.31.161.49l.162.323.551-.276c.743-.372 1.407-.58 1.608-.506.092.034.38.414.642.843l.475.782.094-.495c.052-.272.098-.733.102-1.025.011-.71.181-.814 1.095-.672 1.13.177 3.326.473 4.605.62 1.403.163 1.567.264 1.32.821-.098.224-.221.819-.274 1.323l-.095.916.758.09c.923.11 1.177.34 1.836 1.67.472.952.481.96 1.087 1.041.336.045.856.153 1.155.242.504.15.55.202.628.73l.23 1.533c.08.53.182 1.392.226 1.914.044.522.142 1.06.218 1.194.076.135.12.547.097.916l-.04.672-18.9.033c-16.222.028-18.922.008-19.06-.151zm35.31-.597c0-.13-.98-1.33-1.181-1.446a.378.378 0 0 1-.178-.29c0-.103-.049-.186-.109-.186s-.279-.255-.486-.566c-.208-.311-.486-.676-.618-.81-.133-.135-.475-.56-.761-.946a13.408 13.408 0 0 0-.666-.847 4.479 4.479 0 0 1-.345-.418c-.224-.307-.827-.359-1.652-.142-.272.072-.975.182-1.563.245-1.184.128-2.68.33-3.92.531a60.92 60.92 0 0 1-1.834.258c-3.39.42-4.342.62-4.346.915 0 .047-.291.256-.646.465-.355.21-.777.49-.939.623a7.537 7.537 0 0 1-.593.434c-.3.194-.897.612-1.151.809-.075.057-.556.39-1.07.74l-.933.637 11.19.033c6.154.018 11.327.036 11.495.04.168.002.305-.032.305-.079zm-17.083-.85c-.328-.125-.163-.552.462-1.195.715-.735.99-.79 2.204-.45.772.218 1.017.513.641.773-.173.12-.35.128-.667.033-.99-.297-1.018-.291-1.72.33-.369.327-.688.59-.71.584a3.259 3.259 0 0 1-.21-.075zm12.526-.586a7.221 7.221 0 0 1-.488-.615 6.807 6.807 0 0 0-.51-.63c-.158-.17-.287-.364-.287-.43 0-.134-1.07-.002-1.29.159-.075.055-.35.14-.612.19-.555.107-1.708.44-2.121.615-.399.168-.787.074-.844-.205-.062-.304.32-.563.99-.672.296-.049.633-.136.748-.194.114-.058.667-.229 1.227-.378.56-.15 1.16-.327 1.331-.393.172-.066.404-.12.516-.12.228 0 .86.625.866.857.003.083.058.17.124.193.288.103 1.116 1.306 1.077 1.564-.058.383-.408.411-.727.06zm6.458.922c0-.271-.054-.524-.12-.563-.065-.038-.16-.52-.208-1.069-.05-.55-.145-1.26-.212-1.578a19.41 19.41 0 0 1-.204-1.164c-.077-.566-.1-.59-.688-.74-.335-.085-.792-.154-1.015-.154-.26 0-.406-.066-.406-.182 0-.1-.048-.202-.107-.225-.094-.038-.585-.863-1.037-1.742-.18-.35-.628-.553-1.223-.553h-.453l-.097 1.104c-.09 1.014-.074 1.128.187 1.392.157.158.285.35.285.429 0 .078.054.16.12.184.163.058 1.103 1.238 1.103 1.384 0 .065.054.137.12.16.163.058 1.102 1.238 1.102 1.384 0 .065.054.136.12.16.162.057 1.103 1.237 1.103 1.381 0 .063.092.147.204.188.112.04.203.159.203.262 0 .333.361.554.803.492.386-.053.42-.098.42-.55zm-26.02.36a4.45 4.45 0 0 1 .479-.353c.166-.106.909-.62 1.651-1.143l1.35-.95-.721-.401a42.645 42.645 0 0 0-1.791-.916c-1.073-.516-1.6-.907-1.98-1.466a18.99 18.99 0 0 0-.624-.832 20.04 20.04 0 0 1-.798-1.102l-.379-.57-.86.86-.86.859H79.355l-.157.497a4.283 4.283 0 0 0-.16 1.062c-.002.982-.087 1.099-1.154 1.598-.79.37-1.025.548-1.153.873-.195.497-.65 1.485-.823 1.79-.07.123-.128.253-.128.29 0 .036 2.266.065 5.036.065 3.844 0 5.078-.038 5.213-.16zm-6.542-1.726c-.047-.118.023-.393.157-.61.134-.219.358-.6.497-.848.14-.247.393-.613.563-.813l.31-.364.744.356c.945.45 1.221.67 1.13.898-.096.236-.69.23-1.181-.013-.497-.246-.58-.242-.68.033a3.556 3.556 0 0 1-.354.61c-.15.213-.344.517-.431.676-.187.34-.63.383-.755.075zm11.76-1.918c.234-.131.426-.284.426-.34 0-.055.092-.1.204-.1.112 0 .203-.05.203-.11s.121-.16.269-.224c.358-.155.215-.31-.676-.729a47.296 47.296 0 0 1-1.834-.936c-.598-.322-1.255-.653-1.46-.737-.206-.083-.374-.192-.374-.241 0-.158-.775-.258-1.29-.167-.369.066-.6.222-.887.596-.214.28-.354.592-.312.696.163.402.821.976 1.47 1.282.374.176 1.286.627 2.027 1.002 1.266.64 1.362.669 1.578.464.126-.12.421-.325.656-.456zm4.977-1.537c.821-.12 1.781-.245 2.133-.28.638-.062.638-.062.73-.635.05-.315.054-.607.011-.648-.043-.04.01-.236.117-.434.113-.207.212-.814.233-1.431l.036-1.072-.596-.836c-.328-.46-.606-.848-.617-.862-.01-.015-.399.145-.862.354-1.116.503-1.506.502-1.613-.006-.045-.213-.135-.386-.2-.386-.066 0-.12-.08-.12-.178 0-.26-.337-.482-1.129-.741l-.705-.23-.44.477-.798.871c-.359.392-.36.393-1.564.338-1.331-.06-1.54.018-1.682.63-.049.207-.144.376-.213.376s-.125.073-.125.161c0 .089-.184.508-.407.933-.463.879-.482.965-.215.965.105 0 .212.043.237.096.025.053.382.256.793.45.41.195 1.236.617 1.833.938.598.322 1.24.654 1.427.738.187.084.37.183.407.22.038.037.252.165.476.286.446.24.584.235 2.852-.094zm1.094-1.894c-.14-.16-.614-.655-1.051-1.1-.693-.708-.77-.836-.599-.998.108-.102.277-.186.376-.186.32 0 2.15 1.927 2.15 2.265 0 .408-.52.42-.876.019zm-7.112-.766c-.274-.26-.194-.403.69-1.232.862-.81 1.155-.935 1.48-.635.1.091.424.306.723.478.914.525 1.014.666.69.974-.225.212-.486.242-.486.055 0-.07-.087-.129-.194-.129a.69.69 0 0 1-.379-.16c-.59-.515-.72-.5-1.484.167-.802.7-.808.702-1.04.482zm10.28 2.09c.271-.069.798-.166 1.171-.218l.68-.092-.612-.094c-.336-.052-.871-.136-1.188-.187-.318-.05-.579-.04-.58.022 0 .062-.038.243-.083.403-.093.328-.064.336.613.165zm4.83-.938c.051-.16.139-.623.196-1.031l.103-.741-.485-.11c-.448-.102-1.927-.3-3.86-.518-.924-.103-.96-.064-1.066 1.173l-.063.735.622.075c.343.041.867.128 1.166.193.299.065 1.002.156 1.562.203.56.047 1.141.132 1.29.19.405.155.436.145.536-.17zm.476-2.971c.107-.265.193-1.14.157-1.597-.008-.095-.205-.16-.485-.16-.26 0-.948-.084-1.529-.186a40.226 40.226 0 0 0-2.036-.296l-.981-.11-.14.379c-.077.209-.14.678-.14 1.042v.662l1.393.162c.766.088 1.728.208 2.14.264 1.335.184 1.489.17 1.621-.16zm-29.77 2.906c-.372-.404-.657-2.135-.392-2.386a.62.62 0 0 0 .15-.395c0-.14.106-.366.237-.503.3-.315.334-1.942.05-2.445-.164-.29-.16-.36.024-.534.261-.248.335-.25.58-.018.536.507.57 2.483.058 3.388-.3.53-.367 1.704-.131 2.29.267.666-.133 1.085-.576.603zm4.24-2.532c0-.11-.054-.202-.12-.202s-.223-.42-.35-.932c-.205-.838-.208-1.005-.03-1.64.11-.39.358-1.048.553-1.464.354-.755.477-1.831.237-2.081-.064-.067-.181-.305-.26-.528-.11-.315-.099-.464.054-.67.185-.25.211-.254.464-.049.147.12.267.308.267.42 0 .112.076.275.17.364.109.103.169.54.167 1.215-.002.91-.058 1.162-.407 1.827-.359.683-.405.903-.402 1.905.003.793.057 1.163.182 1.236.288.17.132.713-.22.76-.205.028-.305-.025-.305-.16zm4.95-2.221c-.561-.533-.637-1.871-.163-2.91.32-.7.37-1.394.177-2.447-.111-.608-.106-.622.211-.58.798.108 1.07 1.958.46 3.132-.383.737-.453 1.902-.138 2.296.353.442-.135.898-.546.509zm23.265-3.465c-.17-.16-.102-.626.14-.951.182-.248.234-.589.233-1.54 0-1.1-.044-1.308-.42-2.06-.787-1.57-.888-2.233-.536-3.517.367-1.333.762-1.769 1.175-1.297.149.17.135.28-.085.666-.21.37-.263.723-.263 1.759 0 1.223.027 1.347.474 2.197.453.86.474.96.468 2.25-.005 1.201-.045 1.416-.35 1.93-.328.554-.63.757-.836.563zm-11.013-.5c-.046-.114.022-.392.152-.617.175-.303.237-.712.237-1.568 0-1.047-.041-1.239-.44-2.004-.405-.775-.442-.95-.44-2.059 0-.998.054-1.314.306-1.79.21-.395.392-.58.576-.58.36 0 .43.493.13.925-.165.24-.23.617-.232 1.375-.003.887.053 1.153.37 1.753.204.39.424.91.487 1.158l.207.817c.113.447-.144 1.658-.482 2.27-.267.487-.734.658-.87.32zm5.399-.894c-.072-.176.223-1.135.504-1.643.203-.365.143-2.06-.096-2.723a9.64 9.64 0 0 0-.552-1.202c-.312-.557-.483-1.125-.676-2.254-.174-1.022.64-3.44 1.159-3.44.385 0 .428.422.108 1.05-.236.461-.286.805-.29 1.974-.004 1.426.066 1.715.682 2.786.108.187.197.429.197.536 0 .107.07.216.155.243.096.03.18.54.221 1.347.068 1.341-.126 2.316-.631 3.16-.228.382-.657.472-.781.166zm-15.807-3.348c-.23-.262-.11-.49.487-.92.44-.318.653-.374 1.575-.414.676-.03 1.135.01 1.255.103.147.115.23.103.371-.055.953-1.073 1.71-1.482 2.743-1.482.458 0 .903.222.903.45 0 .242-.421.437-.835.387-.514-.063-1.297.158-1.608.454-.113.108-.348.47-.521.804-.174.334-.388.607-.476.607-.088 0-.36-.116-.605-.258-.603-.348-1.628-.342-2.264.014-.266.148-.483.322-.483.386 0 .184-.358.134-.542-.076zm-10.027-4.723c-.09-.085-.163-.227-.163-.315 0-.256.566-.766 1.196-1.076.507-.25.735-.28 1.798-.232 1.036.047 1.217.026 1.22-.145.002-.342.983-1.247 1.67-1.541a2.738 2.738 0 0 1 1.29-.242c.578.035.637.069.637.36s-.065.329-.68.392c-1.079.111-1.958.683-2.166 1.41-.258.903-.554 1.083-1.14.694-.194-.129-.606-.21-1.09-.214-.806-.008-1.246.17-1.904.769-.372.338-.443.353-.668.14zm23.552-6.825c-.547-.812-1.78-1.246-2.5-.88-.302.153-.768-.156-.655-.434.31-.766 2.564-.502 3.45.404.314.32.352.329.693.146.198-.107.645-.267.994-.356.548-.14.732-.131 1.352.064.907.285 1.323.627 1.125.924-.203.304-.399.335-.646.1-.293-.277-1.43-.39-2.033-.2-.268.083-.628.292-.8.463-.171.171-.379.312-.461.314-.083.002-.316-.244-.519-.545z" fill="#4d4d4d" stroke="#4d4d4d" stroke-width=".215" transform="matrix(.33014 0 0 .31199 .128 -33.041)"/><g fill="#4d4d4d" stroke="none" stroke-width="0"><path d="M2.065 21.469c.217-.032.448-.164.554-.317a.686.686 0 0 0 .04-.663.79.79 0 0 0-.343-.32.983.983 0 0 0-.652-.027c-.184.064-.393.271-.442.44a.77.77 0 0 0 .02.445c.11.261.325.403.679.45.023.004.088 0 .144-.008zm-.322-.377a.39.39 0 0 1-.198-.31.39.39 0 0 1 .148-.279c.31-.233.784.048.658.389-.04.106-.167.223-.263.242-.033.007-.07.015-.081.019-.047.013-.177-.017-.264-.061zm-1.1-.5a1.03 1.03 0 0 0 .578-.261.82.82 0 0 0 .274-.695c-.022-.292-.239-.58-.537-.713l-.103-.047.103-.012c.147-.018.45-.101.576-.158.474-.215.82-.62.925-1.08a1.712 1.712 0 0 0-.028-.743 1.514 1.514 0 0 0-.475-.7l-.164-.143.105.013c.058.007.167.013.242.013.122 0 .14.005.157.043.116.253.176.359.291.515.494.671 1.3 1.062 2.19 1.06.25 0 .428-.022.73-.091a2.73 2.73 0 0 0 1.164-.636l.174-.16.202.083c.32.132.673.227 1.064.283.196.028.819.028 1.031 0 .869-.117 1.608-.447 2.197-.981.558-.506.884-1.053 1.05-1.759.054-.228.06-.288.06-.655 0-.408-.012-.502-.1-.827-.358-1.305-1.563-2.314-3.046-2.55a4.347 4.347 0 0 0-1.484.024l-.203.037-.194-.172a2.236 2.236 0 0 0-.474-.352 3.207 3.207 0 0 0-2.97-.111c-.25.12-.335.174-.576.37-.401.325-.649.67-.825 1.149l-.04.105-.265-.006c-.439-.01-.81.059-1.199.223-.245.104-.374.18-.6.359-.486.382-.8.932-.862 1.51-.09.832.352 1.673 1.122 2.135l.123.074-.188.013c-.77.053-1.341.452-1.587 1.106-.056.15-.06.185-.06.452 0 .317.019.403.15.657.194.377.598.704 1.02.823.14.04.182.068.103.068a.94.94 0 0 0-.228.077c-.435.195-.634.63-.487 1.065.083.244.355.486.632.56.105.03.348.049.431.036zm-.397-.37a.631.631 0 0 1-.313-.305.503.503 0 0 1 .13-.583c.154-.141.213-.162.45-.162.23 0 .32.03.444.147.125.118.18.236.179.39 0 .266-.171.473-.446.543a.838.838 0 0 1-.444-.03zm.242-1.697a1.8 1.8 0 0 1-.49-.178 1.806 1.806 0 0 1-.448-.42c-.127-.202-.165-.344-.165-.62 0-.213.008-.27.05-.383.09-.235.243-.424.487-.605.196-.145.548-.253.828-.253.173 0 .458.06.607.128.387.175.666.505.755.895.044.192.043.26-.008.467-.06.245-.164.423-.35.594-.228.209-.462.33-.728.376a1.985 1.985 0 0 1-.538 0zm3.768-1.22c-.79-.165-1.405-.69-1.651-1.408l-.061-.18-.072.013c-.238.04-.73-.006-1.01-.094-.793-.249-1.358-.867-1.484-1.621-.153-.915.497-1.851 1.496-2.157a2.73 2.73 0 0 1 1.122-.07.78.78 0 0 0 .216.015c.008-.009.036-.1.063-.205.2-.763.785-1.351 1.633-1.64.385-.132.92-.166 1.353-.086.601.11 1.167.428 1.53.859l.087.102.081-.026c.045-.014.201-.05.348-.08.244-.049.303-.053.706-.054.516 0 .76.034 1.193.168a3.635 3.635 0 0 1 1.76 1.264c.235.328.424.789.505 1.232.033.18.028.69-.007.883-.035.19-.118.501-.142.529a.475.475 0 0 0-.043.096c-.082.23-.311.598-.513.826-.945 1.066-2.518 1.47-3.919 1.009-.169-.056-.5-.198-.637-.273l-.073-.04-.034.046a3.112 3.112 0 0 1-.487.482 2.423 2.423 0 0 1-1.96.41z"/><path d="M2.976 12.323a.335.335 0 0 0-.216.077c-.063.051-.094.11-.094.175 0 .066.007.164.022.294.015.13.022.228.022.293 0 .07.002.173.006.312a8.39 8.39 0 0 1-.002.602 8.39 8.39 0 0 0-.008.29c0 .044-.004.11-.012.199a2.644 2.644 0 0 0-.011.198c0 .062.023.115.071.16.054.048.125.073.214.073.176 0 .264-.161.264-.484 0-.086-.002-.216-.007-.39a20.31 20.31 0 0 1-.005-.39c0-.065.003-.24.01-.524.592.685 1.123 1.217 1.593 1.596.107.086.204.13.29.13.153 0 .243-.07.267-.212.02-.118.031-.204.031-.26a113.01 113.01 0 0 1 .015-1.295c0-.55-.1-.825-.299-.825-.178 0-.267.076-.267.227 0 .043.006.103.018.18.013.086.021.145.024.177a20.63 20.63 0 0 1 .016 1.34c-.54-.447-1.087-1.025-1.642-1.733-.11-.14-.21-.21-.3-.21zm4.19.059c-.443 0-.81.172-1.102.516-.26.306-.39.645-.39 1.017 0 .316.135.574.406.773.254.185.562.278.924.278.444 0 .805-.174 1.08-.523.24-.302.36-.638.36-1.01 0-.351-.106-.614-.319-.789-.212-.175-.532-.262-.958-.262zm0 .444c.28 0 .475.043.585.128.115.09.173.25.173.479 0 .274-.083.52-.248.735-.18.236-.404.354-.672.354a.955.955 0 0 1-.574-.164.523.523 0 0 1-.236-.443c0-.269.09-.514.273-.735.194-.236.427-.354.7-.354zm3.323.228a.244.244 0 0 0-.2.1 1.677 1.677 0 0 1-.278.258l-.314.236-.293-.338c-.153-.156-.272-.235-.359-.235a.249.249 0 0 0-.174.068.2.2 0 0 0-.072.15c0 .06.032.113.096.16.074.055.154.134.238.234.07.085.139.17.207.256-.158.138-.274.24-.348.307l-.242.185c-.1.082-.15.155-.15.218 0 .057.025.107.075.15.051.042.11.063.176.063a.259.259 0 0 0 .181-.075c.034-.033.084-.074.15-.123.208-.17.361-.299.46-.387.253.279.435.472.545.579a.255.255 0 0 0 .183.079.268.268 0 0 0 .176-.064.19.19 0 0 0 .077-.15c0-.043-.02-.088-.06-.133l-.56-.611.28-.233c.11-.088.2-.158.27-.212.127-.11.19-.2.19-.272 0-.057-.026-.106-.078-.148a.272.272 0 0 0-.176-.062z" style="line-height:1.25;-inkscape-font-specification:'Comic Sans MS Bold'" font-weight="700" font-size="10.583" font-family="Comic Sans MS" letter-spacing="0" word-spacing="0"/></g><path d="M83.139 228.093a1.235 1.235 0 0 1-.397-.48c-.068-.177-.212-.288-.373-.29-.597-.006-.974-.436-.739-.842.073-.126.08-.25.018-.287-.061-.037-.093-.384-.07-.77l.041-.704-.494-.218c-.643-.283-1.47-1.185-1.762-1.923-.175-.443-.24-1.002-.27-2.283l-.037-1.697.849.01.849.008-.065-.844c-.093-1.219-.108-1.228-1.785-1.151-1.382.064-1.408.06-1.786-.248-.488-.398-.607-.964-.321-1.52.231-.448.428-.568 1.462-.894l.694-.219-.696.055c-.62.048-.74.02-1.088-.264-.464-.38-.602-.875-.398-1.438.197-.545.616-.755 2.563-1.286.885-.242 1.586-.461 1.557-.489-.028-.027-.616.109-1.306.303-1.59.446-1.959.445-2.42-.002-.461-.446-.564-.874-.34-1.412.195-.472.705-.776 1.718-1.024.332-.082 2.978-.827 5.882-1.657l5.278-1.51.455.217c.288.137.539.384.684.673.217.434.218.481.01.982-.122.289-.23.526-.241.526-.012 0-.362.129-.779.286l-.757.287.517.008c.989.016 1.617.89 1.239 1.722-.104.229-.331.501-.504.606-.257.155-5.934 1.828-8.64 2.546-.37.097-.645.203-.613.234.032.03 1.884-.464 4.115-1.098 2.231-.635 4.244-1.153 4.472-1.15.528.006 1.014.375 1.192.908.118.35.103.487-.095.86-.223.42-.347.502-1.487.984-.65.275-1.552 1.127-1.892 1.788-.375.729-.612 1.734-.622 2.646l-.008.628.844.044.844.044.034 1.178c.04 1.347-.15 2.38-.582 3.164-.338.615-1.08 1.285-1.669 1.509l-.396.15.008 1.09c.01 1.198-.145 1.51-.748 1.503-.197-.002-.336.082-.39.238-.22.634-.994.884-1.555.503zm.961-.305c.072-.081.152-.28.178-.444.04-.248.13-.306.55-.352.336-.036.504-.113.506-.232.002-.132-.096-.164-.376-.124-.208.031-.773.051-1.257.046-.484-.005-1.05-.037-1.256-.072-.279-.047-.377-.017-.378.115-.001.12.165.2.5.244.419.053.508.114.541.362.054.405.24.598.578.602.156.002.342-.064.414-.145zm.832-1.585c.26-.038.473-.129.474-.202 0-.092-.528-.139-1.695-.151-1.223-.013-1.697.021-1.698.123-.001.077.153.165.343.194.573.088 2.073.11 2.576.036zm.267-.82c.118-.042.216-.147.217-.234 0-.119-.118-.14-.47-.082a9.01 9.01 0 0 1-1.227.069 9.132 9.132 0 0 1-1.224-.095c-.363-.067-.47-.048-.472.082-.001.093.125.196.28.229.155.033.395.087.532.12.319.078 2.078.01 2.364-.09zm.292-1.322c.844-.268 1.375-.67 1.77-1.34.338-.572.384-.773.446-1.976l.07-1.339-3.99-.042-3.99-.042.041 1.339c.044 1.46.222 1.978.905 2.647.938.92 3.131 1.268 4.748.754zm-2.755-6.144c.012-.967-.194-1.733-.632-2.359-.2-.284-.343-.533-.32-.553.112-.088 3.797-1.106 3.844-1.061.029.028-.132.552-.356 1.164-.313.851-.428 1.4-.49 2.332l-.08 1.22.629.006.628.007.1-1.091c.114-1.248.458-2.29.995-3.01.53-.713 1.445-1.421 2.13-1.648.919-.305 1.252-.765.843-1.162-.31-.3-.71-.24-3.196.485a471.66 471.66 0 0 1-3.978 1.14c-5.664 1.583-5.594 1.555-5.443 2.155.097.382.502.549 1.012.416.59-.153 1.926-.1 2.307.092.46.23.629.635.71 1.694l.069.882.61.007.61.007zm1.31-.506c.056-.682.186-1.498.29-1.812.106-.315.192-.607.194-.65 0-.043-.369.03-.821.165-.64.19-.805.285-.742.428.321.731.446 1.267.494 2.122.048.823.091.983.271.985.184.002.23-.178.315-1.238zm-3.98-3.94c.496-.136.844-.267.774-.29-.07-.023-.524.085-1.007.24-1.102.35-.963.381.233.05zm-.143-.803c1.562-.45 2.6-.744 7.416-2.11 2.779-.787 3.089-.955 2.82-1.529-.247-.53-.097-.56-7.146 1.456-1.04.297-2.63.747-3.531.998-1.68.47-2.082.67-2.086 1.038-.004.295.333.59.677.593.16.002.992-.2 1.85-.446zm4.173-4.033c3.243-.917 5.852-1.717 5.992-1.838.2-.172.225-.275.132-.531-.064-.175-.23-.36-.37-.41-.174-.063-1.329.212-3.593.853-1.835.52-3.932 1.112-4.66 1.315-3.902 1.087-4.162 1.193-4.168 1.692-.002.243.355.538.656.541.147.002 2.852-.728 6.011-1.622zm1.16.501c2.061-.589 3.726-1.092 3.7-1.118-.06-.057-7.783 2.13-7.882 2.233-.103.106.08.058 4.182-1.115zm-8.02-1.334c-.752-.575-.603-1.774.266-2.126.23-.094 2.63-.796 5.335-1.56 2.705-.765 5.244-1.491 5.643-1.613 1.365-.417 2.178-.194 2.47.678.108.321.094.496-.07.873-.234.534-.428.652-1.581.958-.451.12-1.926.535-3.279.922-6.393 1.833-7.685 2.183-8.021 2.179-.2-.003-.542-.143-.762-.311zm1.747-.578c.303-.099.835-.25 1.182-.336.346-.086 1.822-.5 3.278-.919 1.457-.419 3.5-.997 4.54-1.286 2.213-.613 2.625-.895 2.176-1.49-.09-.12-.305-.22-.477-.222-.171-.002-1.528.342-3.015.764s-3.441.975-4.343 1.229c-3.55 1-4.709 1.377-4.783 1.554-.124.296-.092.49.116.691.246.24.626.244 1.326.015zm-1.571-2.192c-.548-.332-.748-.863-.551-1.46.085-.258.29-.55.456-.651.433-.263 6.233-1.89 6.717-1.885.271.003.541.121.813.356.357.31.405.425.399.954-.006.452-.074.662-.274.848-.164.151-1.188.515-2.65.94-4.268 1.243-4.325 1.253-4.91.898zm2.788-1.006c3.771-1.04 4.217-1.194 4.3-1.496.118-.423-.138-.776-.564-.78-.201-.003-.95.169-1.665.38-1.16.344-3.584 1.03-4.168 1.18-.559.145-.776.691-.413 1.043.278.269.406.252 2.51-.327z" fill="#8fb82b" stroke="#8fb82b" stroke-width=".22" transform="matrix(.33014 0 0 .31199 .128 -33.041)"/><path d="M134.269 189.79c6.158-.377 9.806-1.568 9.806-3.2 0-.154-.263-.536-.585-.847l-.586-.565v-6.843l.586-.566c.364-.351.585-.695.585-.908 0-.195-.251-.63-.585-1.013l-.586-.671v-6.328l.421-.374c.458-.406.75-.865.75-1.178 0-.109-.263-.512-.585-.895l-.586-.696v-6.484l.504-.45c.631-.564.724-.839.522-1.549-.353-1.24-2.516-2.036-7.246-2.666-1.759-.234-9.34-.235-11.197-.002-2.04.257-3.59.559-4.83.941-1.82.562-2.366.992-2.565 2.025-.089.46-.042.566.501 1.124l.6.616v6.445l-.586.696c-.322.383-.585.786-.585.896 0 .312.292.771.75 1.177l.42.374v6.328l-.585.67c-.333.383-.585.819-.585 1.014 0 .213.222.557.585.908l.586.566v6.88l-.504.435c-1.27 1.093-.514 2.264 1.95 3.024 3.003.925 8.887 1.408 13.63 1.117zm-9.587-1.016c-3.12-.47-5.292-1.166-5.745-1.84-.184-.275-.152-.345.394-.856l.594-.557v-3.735c0-3.508-.018-3.756-.29-4.083l-.288-.347.838.32c.89.34 3.008.782 4.936 1.03 1.892.244 7.809.335 10.026.154 3.072-.25 5.787-.752 7.235-1.336.27-.11.272-.1.036.219-.215.29-.245.793-.245 4.055v3.723l.594.557c.55.516.578.578.386.855-.598.86-3.71 1.677-7.933 2.083-1.506.145-9.132-.03-10.538-.242zm2.493-10.627c-3.297-.253-6.915-.985-7.757-1.568-.274-.19-.27-.207.113-.639l.394-.443v-3.436c0-3.164-.022-3.463-.278-3.77l-.277-.335 1.214.385c3.198 1.013 9.227 1.46 14.424 1.068 2.582-.194 5-.591 6.505-1.068l1.215-.385-.278.334c-.255.308-.277.607-.277 3.77v3.437l.386.435c.226.254.332.486.256.558-.249.236-2.04.802-3.423 1.083-3.154.64-8.242.88-12.217.574zm-1.88-9.639c-2.005-.233-3.74-.592-4.933-1.02-1.258-.452-1.267-.462-.823-1.013l.386-.479v-3.501c0-3.284.015-3.496.256-3.395.14.058.816.245 1.5.414 2.19.541 4.43.78 8.05.857 4.818.102 8.462-.22 11.307-.997l1.135-.31v6.932l.365.455c.202.25.366.482.366.516 0 .138-1.598.698-2.85.999-1.302.313-4.3.704-6.224.812-1.748.098-6.729-.06-8.535-.27zm-.262-9.13c-2.121-.27-4.25-.775-5.213-1.237-1.235-.592-1.185-.998.2-1.624 3.794-1.715 14.94-2 20.542-.524 1.76.463 2.75 1.058 2.557 1.536-.335.827-4.412 1.81-8.704 2.1-1.738.118-7.748-.043-9.382-.25zm14.608-1.185c.819-.166 1.175-.36 1.29-.702.238-.712-.735-1.03-3.15-1.028-1.526 0-1.926.046-2.415.275-.807.378-.816.86-.023 1.227.646.3 3.258.438 4.298.228zm-2.99-.646c-.42-.048-.735-.133-.699-.189.194-.297 3.732-.286 3.732.01 0 .203-1.856.312-3.033.178z" fill="#4d4d4d" stroke="#4d4d4d" stroke-width=".29" transform="matrix(.33014 0 0 .31199 .128 -33.041)"/><path d="M59.845 140.503c-.081-.078-.148-.391-.148-.696 0-.541-.012-.557-.403-.593l-.402-.036-.036-1.163c-.026-.852.008-1.19.124-1.26.088-.052 1.06-.096 2.16-.097l2-.003-.249-.615c-.316-.785-.262-2.028.119-2.732.278-.514 1.205-1.385 1.702-1.6.285-.123.31-.194.31-.921 0-.681-.034-.797-.24-.848-.189-.047-.387-.497-.923-2.095-1.172-3.494-3.543-10.662-3.543-10.713 0-.027-.404-.065-.898-.084l-.897-.034v-2.815h33.555v2.815l-.877.034-.877.034-1.568 4.721c-.863 2.597-1.569 4.787-1.569 4.867 0 .106.3.135 1.146.11l1.145-.033.037-.47c.021-.26.127-.533.24-.615.312-.225 2.192-.196 2.438.038.165.156.195.572.195 2.732 0 1.826-.042 2.588-.149 2.69-.208.197-2.377.19-2.55-.009-.072-.081-.149-.358-.17-.615l-.04-.468-1.951-.032-1.95-.033v1.8l.621.565c.342.31.732.808.867 1.106.33.73.33 2.033 0 2.721l-.238.499 2.378.003c1.307 0 2.449.045 2.537.097.116.07.15.408.123 1.26l-.035 1.162-.459.036-.458.036-.037.668-.037.667h-4.334l-.062-.645c-.06-.627-.072-.646-.464-.681l-.402-.037v.64c0 .475-.05.658-.196.71-.108.04-1.084.072-2.17.072h-1.974l-.12-.3a2.273 2.273 0 0 1-.122-.704c0-.368-.031-.403-.365-.403-.358 0-.366.013-.402.674l-.038.674h-4.333l-.034-.293c-.111-.979-.15-1.055-.523-1.055-.351 0-.36.016-.397.674l-.037.674-2.13.032c-2.029.031-2.136.021-2.264-.204-.074-.13-.118-.435-.099-.677.034-.42.016-.442-.367-.477-.4-.037-.402-.034-.402.488 0 .937.1.897-2.218.897-1.442 0-2.112-.042-2.215-.14-.082-.078-.149-.395-.149-.704 0-.548-.01-.563-.371-.563-.367 0-.372.009-.372.632 0 .469-.05.651-.196.704-.383.14-4.08.079-4.237-.07zm3.579-.651c.008-.049.026-.344.042-.656.016-.312.102-.61.19-.661.22-.13 1.75-.119 2.015.014.166.084.217.26.217.75v.64h2.817l.057-.644c.03-.355.096-.683.145-.73.158-.149 1.764-.181 2.041-.04.22.11.264.24.264.774v.64h1.416c1.561 0 1.605-.021 1.504-.772-.027-.2-.001-.434.055-.522.134-.205 1.55-.293 2.009-.125.315.115.34.173.34.776v.651l1.455-.033 1.455-.033.035-.64c.02-.35.064-.665.098-.697.131-.125 1.617-.143 1.941-.025.315.115.34.174.34.776v.652l1.456-.033 1.455-.033.036-.662c.032-.569.076-.672.31-.732.425-.107 1.4-.084 1.75.042.289.104.318.175.318.766v.652l1.455-.033 1.455-.033.037-.674.037-.674.49-.074c.471-.072.489-.09.489-.528v-.454H88.62c-2.515 0-2.53 0-3.184.322-.56.275-.805.322-1.652.32-.833-.003-1.106-.056-1.676-.325l-.681-.321H68.55l-.677.322c-.481.229-.918.335-1.512.367-.732.039-.937 0-1.659-.32-.822-.365-.826-.365-2.976-.365h-2.153v.469c0 .396.04.469.256.469.565 0 .735.204.735.884v.64h1.424c.783 0 1.43-.04 1.436-.088zm4.09-2.734c2.124-1.027 1.86-3.981-.427-4.794-1.376-.489-3.084.356-3.507 1.734-.244.795-.146 1.463.317 2.154.774 1.156 2.305 1.54 3.617.906zm-2.103-.235c-.93-.353-1.504-1.136-1.504-2.051 0-1.426 1.402-2.505 2.816-2.168.975.233 1.547.796 1.775 1.747.124.52-.142 1.468-.52 1.851-.64.65-1.77.923-2.567.62zm1.407-.747c.805-.32 1.167-1.345.725-2.055-.667-1.069-2.359-.89-2.77.293-.252.72.036 1.34.805 1.732.466.237.702.242 1.24.03zm-1.28-.69c-.55-.554-.127-1.604.647-1.604.51 0 .99.483.99.997 0 .81-1.05 1.2-1.637.608zm.845-.673c0-.06-.083-.11-.185-.11-.192 0-.246.138-.107.27.099.094.292-.012.292-.16zm18.713 2.345c1.132-.547 1.77-2.034 1.34-3.122-.734-1.852-3.184-2.395-4.617-1.024-.575.55-.754.977-.759 1.808-.004.628.057.86.343 1.322.769 1.238 2.34 1.67 3.693 1.016zm-2.306-.305c-.937-.47-1.351-1.17-1.276-2.16.162-2.117 2.95-2.824 4.193-1.061.35.495.38.611.34 1.318-.036.629-.11.856-.389 1.203-.66.82-1.982 1.143-2.868.7zm1.885-.814c1.208-.725.56-2.626-.895-2.626-.46 0-.638.068-.996.38-.532.465-.66 1.022-.383 1.652.344.779 1.474 1.074 2.274.594zm-1.576-.515c-.574-.544-.132-1.642.66-1.642.365 0 .815.308.953.652.139.347-.068.951-.38 1.11-.373.189-.967.131-1.233-.12zm.867-.645a.181.181 0 0 0-.186-.176c-.193 0-.245.138-.103.273.143.135.289.086.289-.097zm-3.366 1.524l-.14-.293H69.518l-.142.293-.14.293H80.74zm-.348-1.732c.003-1.182.876-2.41 2.085-2.932.434-.188.815-.248 1.541-.245l.965.005-.036-.714-.036-.714H65.826l-.018.66-.018.66.69.076c1.87.208 3.223 1.52 3.285 3.181.02.534.062.638.27.667.137.018 2.491.019 5.232.003l4.984-.032.001-.613zm11.39-6.256v-2.038H90.282v4.09l.464.036c.945.075.898.184.898-2.088zm-5.96.16c.132-.403.696-2.105 1.254-3.781 2.045-6.146 2.478-7.469 2.478-7.574 0-.065-5.638-.108-14.116-.108-7.763 0-14.115.044-14.115.097 0 .054.394 1.28.875 2.727.482 1.446 1.32 3.975 1.864 5.62l1.115 3.371.127.381h20.278zm3.794-.146v-.821h-2.6l-.271.704c-.15.387-.275.77-.28.853-.005.116.351.143 1.572.118l1.579-.033zm1.857-12.782v-.704h-32.07l-.038.571c-.02.315-.009.645.027.734.056.137 2.552.157 16.074.132l16.007-.03z" fill="#4d4d4d" stroke="#4d4d4d" stroke-width=".134" transform="matrix(.33014 0 0 .31199 .128 -33.041)"/><path d="M-.344 217.047c-1.046-.208-2.352-.931-3.029-1.675-.7-.77-3.085-5.316-4.203-8.01-2.697-6.5-3.22-10.16-1.922-13.446.412-1.042 1.048-1.959 2.022-2.91 1.462-1.429 3.102-2.035 5.488-2.03 2.755.009 4.916.813 6.64 2.477.532.513 1.025.935 1.094.936.07 0 .125-.376.123-.838-.004-.989-.47-2.064-1.205-2.785-.437-.43-.485-.553-.322-.84.251-.445.362-.428.94.142.267.264.537.48.6.48.064 0 .16-.252.212-.56.268-1.563 2.107-3.992 3.803-5.023 1.022-.621 2.761-1.236 3.795-1.34.798-.082.803-.079.803.396 0 1.314-.906 3.393-2.103 4.825-.995 1.192-3.112 2.395-4.946 2.811l-.866.197.154.507c.084.279.153.762.153 1.074v.568l.906-.807c2.983-2.656 8.078-3.05 11.144-.86 2.074 1.48 3.504 4.519 3.504 7.448 0 1.04-.521 3.581-1.126 5.495-1.056 3.338-3.924 9.508-5.406 11.627-1.044 1.493-2.466 2.17-4.626 2.201-1.348.02-1.526-.019-2.866-.62-1.9-.85-2.754-.852-4.657-.005-1.468.653-2.766.832-4.104.565zm3.729-1.414c1.422-.63 2.505-.867 3.308-.727.34.059 1.302.393 2.139.742 1.426.595 1.597.63 2.725.55 2.416-.167 3.488-1.157 5.387-4.972 3.515-7.066 4.956-12.313 4.247-15.473-.901-4.019-3.742-6.176-7.719-5.862-2.467.195-3.842.859-5.898 2.85-1.315 1.272-1.545 1.256-3.197-.23-.71-.638-1.33-1.209-1.378-1.268-.048-.06-.476-.292-.95-.517-2.209-1.051-5.08-1.16-7.051-.27-1.183.535-2.56 1.788-3.133 2.851-1.045 1.941-1.31 4.693-.701 7.3.973 4.17 4.66 12.49 6.3 14.219 1.426 1.503 3.66 1.808 5.92.807zm-1.017-10.428c-.895-.79-.618-1.627.846-2.558.567-.36 1.094-.594 1.173-.52.078.074.153.7.166 1.39.023 1.179-.003 1.275-.436 1.628-.562.458-1.271.482-1.749.06zm1.38-.417c.337-.32.388-2.074.054-1.896-1.256.673-1.662 1.334-1.128 1.84.395.374.72.39 1.074.056zm4.462.575c-.468-.273-.685-1.182-.556-2.325.065-.572.168-1.04.228-1.04.176 0 1.413.807 1.922 1.253.523.46.627 1.332.219 1.842-.274.343-1.4.51-1.813.27zm1.256-.546c.162-.117.295-.364.295-.549 0-.328-.634-1.014-1.225-1.325-.25-.131-.299-.086-.314.29-.038.953.052 1.414.316 1.607.344.251.553.246.928-.023zm-.183-16.763c.94-.454 2.607-1.992 3.163-2.921.273-.455.615-1.21.76-1.68l.264-.852-.544.102c-1.894.356-4.314 2.18-5.222 3.933-.432.835-.817 1.818-.817 2.088 0 .164 1.588-.28 2.396-.67z" fill="#8fb82b" stroke="#8fb82b" stroke-width=".554" transform="matrix(.33014 0 0 .31199 .128 -33.041)"/><path d="M5.666 45.913c-.158-.71.225-2.515 1.013-4.77.425-1.218.577-2.384.508-3.892l-.053-1.163H8.753l-.035-.369c-.041-.439.155-.796.542-.988l.265-.131-.177-.292c-.22-.361-.232-1.035-.026-1.378.082-.138.276-.363.431-.5.252-.223.283-.306.297-.784.021-.704.274-1.092.986-1.516.29-.172.422-.194 1.166-.194.652 0 .863-.027.949-.123.06-.067.282-.187.493-.267.302-.115.456-.13.729-.072.293.062.395.046.662-.105.217-.121.454-.177.756-.177 1.142 0 1.797 1.1 1.098 1.847a.59.59 0 0 0-.178.468c.05.49-.453 1.173-1.004 1.365-.24.084-.249.106-.212.586.02.274-.014.628-.076.787-.244.62-1.006 1.106-1.872 1.192-.341.034-.46.079-.46.174 0 .07-.065.207-.145.303l-.145.174h1.589l-.056 1.156c-.032.689-.01 1.503.055 2.017.105.83.423 2.045.57 2.182.147.137.322-1.117.319-2.28l-.003-1.195h1.319l-.035-.305c-.03-.26.014-.35.292-.608.303-.283.317-.318.198-.499-.272-.413-.132-1.036.324-1.448.213-.192.261-.307.263-.632.006-.885.876-1.526 1.914-1.41.4.045.486.026.743-.155.24-.17.365-.2.726-.18.288.017.492-.014.604-.091.1-.07.357-.118.628-.118.411 0 .493.03.778.293.38.348.425.737.133 1.14-.103.14-.186.36-.186.486 0 .353-.268.746-.642.945-.326.173-.336.193-.306.587.057.751-.579 1.425-1.42 1.505-.32.03-.433.08-.513.229-.142.263-.144.261.227.261h.331l-.063.768c-.077.942.081 2.18.383 2.99.487 1.309.62 1.86.671 2.766l.052.92h-5.807v.269c0 .558.427.516-5.134.516H5.73zm9.76-.167c.062-1.256-.145-2.244-.89-4.252-.168-.453-.336-.973-.372-1.156l-.067-.332-3.325.001-3.326.001-.208.685a45.777 45.777 0 0 1-.531 1.6c-.412 1.162-.612 2.124-.613 2.944v.647h4.662c4.376 0 4.663-.009 4.67-.138zm5.866-1.058c0-.623-.144-1.247-.593-2.574l-.407-1.207H15.58l-.199.588-.2.587.25.823c.138.453.278 1.088.312 1.41.034.324.078.633.098.686.029.076.66.098 2.744.098h2.707zm-1.06-4.379a3.656 3.656 0 0 1-.058-.666v-.42h-4.476v.42c0 .232-.026.532-.058.666l-.058.245h4.709zm-6.245-1.028a8.628 8.628 0 0 1-.06-.98v-.568h-6.34v.616c0 .339-.027.78-.06.98l-.06.363h6.58zm6.187-.686v-.313h-4.476v.627h4.476zm-1.911-.705c.038-.053.115-.053.232 0 .096.043.34.078.54.078.433 0 .658-.173.733-.565.053-.27.055-.272.486-.24.997.071 1.73-.836 1.272-1.574-.19-.305-.182-.322.16-.342.189-.011.402-.105.582-.256.238-.2.283-.299.281-.61-.002-.26.045-.4.156-.468.21-.13.305-.518.176-.72a1.066 1.066 0 0 0-.329-.286c-.188-.103-.282-.11-.555-.033-.181.05-.367.147-.413.216-.07.106-.124.11-.36.029-.374-.13-.704-.046-.899.231-.164.234-.286.286-.377.16-.092-.124-.71-.176-1.034-.086a1.746 1.746 0 0 0-.608.367c-.269.257-.29.318-.265.76.025.46.013.49-.312.759-.427.353-.527.728-.3 1.129.089.158.266.344.393.414l.23.127-.399.083c-.49.102-.795.405-.706.703.057.191.093.202.66.202.329 0 .624-.035.656-.078zm-4.32-.98l.03-.51H10.78l-3.194.001V37.42H13.911zm-3.112-.916c.087-.074.137-.074.224 0 .063.052.363.094.685.094.689 0 .88-.133.95-.657l.047-.35.572.007c.615.007.995-.114 1.33-.423.515-.476.644-1.128.325-1.653-.096-.158-.152-.307-.124-.33.028-.023.195-.042.372-.042.25 0 .403-.069.684-.305.36-.302.418-.457.369-.978-.015-.153.058-.294.23-.445.493-.432.265-1.196-.404-1.357a1.116 1.116 0 0 0-1.02.235c-.21.176-.264.189-.455.102-.482-.216-1.19-.022-1.304.359-.066.22-.171.237-.504.077-.128-.062-.445-.113-.705-.115-1.15-.007-1.9.889-1.604 1.917.059.207.031.254-.226.392-.865.463-.985 1.392-.257 2.003.364.306.365.309.125.309-.585 0-1.063.368-1.063.82 0 .403.062.434.877.434.47 0 .807-.037.876-.094z" fill="#4d4d4d"/><path d="M140.184 229.54c-3.509-1.799-7.196-2.14-12.733-1.182-3.333.577-8.363.708-9.946.258-1.988-.564-12.19-6.671-13.878-8.306-1.135-1.101-2.248-2.687-2.463-3.51-.174-.667.52-1.516 1.23-1.508.538.007 2.15.707 3.238 1.407l.868.559.691-.55c1.082-.863 2.015-1.256 3.899-1.644l1.745-.359.917-1.615.918-1.616-.404-1.212c-.356-1.07-.463-1.196-.91-1.075-2.82.762-4.458.626-7.16-.591-1.606-.724-2.338-1.235-3.87-2.703-1.888-1.808-3.952-4.516-5.104-6.695-.335-.635-.61-1.223-.61-1.306 0-.083 1.078-.088 2.395-.01 4.44.263 8.712 1.196 11.453 2.502 3.583 1.706 5.012 3.921 4.383 6.793-.222 1.01-.21 1.336.07 1.84l.34.614.273-.878c.357-1.143.586-6.2.377-8.313l-.164-1.654-1.191-.4c-2.344-.79-4.273-3.094-5.204-6.22-.721-2.422-.711-10.7.014-11.367.212-.195 3.183 2.834 4.81 4.905 3.21 4.087 4.24 8.232 2.808 11.3-.483 1.032-.488 1.133-.152 2.956.191 1.039.347 2.886.347 4.106 0 2.19.006 2.213.459 1.825.363-.311.456-.674.448-1.749-.019-2.372.557-3.73 2.188-5.153 1.915-1.672 5.146-2.427 9.51-2.223 2.736.129 6.502.698 6.873 1.04.113.104-.251.403-.818.672-2.37 1.128-4.853 2.92-7.007 5.06-2.777 2.759-4.109 3.452-6.63 3.451-1.216 0-1.9-.126-2.668-.489-.966-.456-1.052-.463-1.334-.11-.42.526-1.325 2.663-2.13 5.025-.373 1.095-.857 2.367-1.075 2.826-.376.792-.375.842.018.978.228.078.824.487 1.326.91l.911.767 3.177-.12c1.748-.065 4.636-.337 6.419-.604 2.85-.426 3.466-.454 5.098-.228 3.369.467 6.758 1.753 10.35 3.93 2.031 1.23 4.79 3.19 4.79 3.403 0 .087-.694 1.188-1.543 2.446-.848 1.258-1.926 2.86-2.394 3.56-.468.7-.904 1.259-.968 1.243-.065-.015-.959-.46-1.987-.986zm3.78-3.19l1.91-2.872-.976-.75c-2.762-2.125-7.49-4.498-10.697-5.37-1.906-.517-2.389-.563-4.728-.453-1.433.068-3.605.279-4.825.468-1.471.229-3.765.346-6.8.347-2.717 0-4.878.1-5.314.244-2.522.833 2.045 1.904 7.162 1.68 2.438-.107 2.895-.075 3.01.21.075.184-.009.466-.187.624-.79.703-6.32 1.836-7.737 1.584-1.098-.195-6.466-2.7-9.135-4.263-2.404-1.408-3.003-1.654-3.427-1.406-.387.227.672 1.86 2.108 3.253 1.508 1.462 10.929 7.172 13.15 7.97 1.516.546 5.911.47 9.506-.162 4.259-.75 8.311-.72 10.864.08 1.028.322 2.29.826 2.803 1.119.514.293 1.04.54 1.168.551.129.011 1.094-1.274 2.145-2.853zm-26.559-5.404l1.519-.295-1.519-.028c-2.172-.04-4.399-.418-5.549-.94-.827-.377-.993-.558-.993-1.088 0-1.18 1.087-1.702 3.806-1.828.88-.041.882-.043.383-.428-.601-.464-3.639-.544-4.913-.13-.973.317-2.546 1.23-2.546 1.479 0 .213 4.079 2.264 6.023 3.03 1.55.61 1.76.622 3.79.228zm-4.941-12.54c.405-.133.735-.307.734-.387-.003-.32-.97-1.508-1.687-2.074-.42-.331-.637-.605-.481-.608.155-.003.865.443 1.577.992l1.294.998.034-.611c.063-1.145-.083-2.159-.394-2.73-.889-1.63-3.98-3.322-7.585-4.153-2.014-.464-7.678-1.243-7.85-1.08-.176.167 3.146 4.737 4.349 5.984 2.49 2.581 5.097 3.898 7.731 3.907.848.002 1.873-.104 2.278-.237zm12.52-2.953c.795-.37 1.848-1.233 3.215-2.632 1.247-1.276 2.815-2.584 4.054-3.38l2.02-1.3-1.016-.19c-.56-.104-2.54-.201-4.404-.216-2.661-.022-3.688.059-4.79.373-3.246.929-5.022 2.907-5.022 5.593v.96l.759-.44c1.16-.67 1.572-.523.455.163-1.122.69-1.178.831-.469 1.19 1.54.781 3.357.739 5.198-.12zm-9.92-9.692a45.152 45.152 0 0 0-.903-3.254c-.456-1.37-.501-2.187-.061-1.091.117.29.477 1.125.801 1.856.324.73.714 1.771.867 2.313.25.885.307.942.543.554.458-.752.303-3.817-.268-5.3-.72-1.867-2.406-4.421-4.333-6.564l-1.646-1.831-.205.878c-.295 1.266-.017 6.843.416 8.34.802 2.771 2.315 4.906 3.964 5.592 1.257.522 1.284.473.824-1.493zM33.967 195.848c-.3-.126-.742-.43-.98-.675-.409-.42-.465-.43-.947-.195-1.228.601-2.872.076-3.382-1.08-.51-1.157.064-2.8 1.353-3.867.654-.54.695-.631.627-1.372l-.072-.794-1.031.402c-1.986.773-3.787.374-4.741-1.05-.772-1.153-.877-2.433-.307-3.733.088-.201-.036-.338-.456-.503-1.116-.438-1.579-1.877-1.014-3.156.305-.693 1.263-1.48 1.962-1.613.474-.09.52-.163.52-.827 0-1.554 1.413-2.495 3.187-2.123 1.176.246 2.372 1.385 2.853 2.718.033.092.225.127.425.077.314-.077.355-.208.3-.944-.057-.779-.007-.906.558-1.442 1.094-1.036 2.383-1.13 3.894-.287l.62.347v-2.92h-1.162c-.836 0-1.228-.076-1.4-.273-.304-.346-.22-.476 1.64-2.538.786-.873 2.545-2.822 3.907-4.332l2.477-2.746v-10.46h-1.274v-3.277h9.104v3.276h-1.092v2.933l.613-.647c.338-.356 2.677-2.937 5.198-5.735 2.522-2.798 4.664-5.087 4.762-5.087.098 0 2.532 2.605 5.409 5.789 19.83 21.946 19.798 21.91 19.798 22.471v.54l-1.229.05-1.229.051v5.288l4.689 3.323c2.579 1.828 4.72 3.348 4.759 3.379.101.08-.508.929-.666.927-.073 0-2.044-1.359-4.38-3.018-2.337-1.659-4.283-3.016-4.325-3.016-.042 0-.077 1.911-.077 4.248v4.247l1.357-.082c1.545-.094 1.557-.084 1.557 1.258v.849h2.549v2.092l1.411-.04 1.411-.04.052 1.667.052 1.667H64.496c-23.368 0-26.835.032-27.406.258-.802.318-2.387.325-3.123.016zm2.633-1.132c.427-.216.735-1.059.735-2.007 0-.567-.06-.723-.254-.653-.47.171-1.835-.3-2.431-.841-.326-.295-.592-.491-.592-.436 0 .056-.129.745-.287 1.53-.313 1.566-.208 2.033.535 2.374.503.23 1.866.25 2.294.033zm44.984-1.9v-1.553H38.61v3.104h42.974zm8.376 1.12c0-.415-.044-.43-1.162-.43-1.364 0-1.62-.195-1.658-1.262l-.026-.722-.899-.045c-1.693-.085-1.718-.102-1.718-1.166v-.945H82.858V194.367h7.102zm-58.144-.246c.406-.357 2.06-3.13 2.06-3.451 0-.143-.1-.145-.371-.007-.204.103-.717.164-1.138.135-.696-.047-.846.02-1.617.73-1.004.924-1.287 1.8-.805 2.495.37.537 1.318.586 1.871.098zm5.231-2.876c.256-.093.288-.84.288-6.634v-6.529l-.588-.635c-1-1.078-2.09-1.31-2.917-.623-.748.622-.092 1.503 2.226 2.992.498.32.908.634.91.698.003.064-.876-.11-1.952-.387-2.31-.593-2.775-.617-3.349-.17l-.43.336.547.188c2.415.83 5.382 2.054 5 2.063-.255.006-1.443-.113-2.64-.264-2.918-.367-5.174-.274-6.34.262-1.873.86-2.734 2.26-2.298 3.736.303 1.023.877 1.481 1.98 1.582 1.13.102 2.072-.3 3.469-1.484l.992-.841.44.387.44.386-.379.494c-.747.976-.827 2.629-.139 2.877.4.144 1.036-.229 1.408-.826.41-.658.537-.706 1.1-.42.307.155.35.292.25.797-.253 1.273.873 2.418 1.982 2.015zm44.493-10.372l-.048-9.615H63.465c-9.914 0-19.563.023-21.44.05l-3.415.051v19.128H81.587zm-36.01-.647v-6.122h9.832v12.244H45.53zm4.188 2.414v-2.5h-2.914v5h2.914zm4.37 0v-2.5h-3.096v2.385c0 1.312.055 2.438.122 2.501.066.063.763.115 1.547.115h1.427zm-4.37-5.518v-1.81h-2.914v3.62h2.914zm4.37 0v-1.81h-3.096v3.62h3.096zm10.925 3.104v-6.122h9.833v12.244h-9.833zm4.188 2.414v-2.5H66.288V184.71H69.2zm4.37 0v-2.5H70.477V184.71h3.096zm-4.37-5.518v-1.81H66.288v3.62H69.2zm4.37 0v-1.81H70.477v3.62h3.096zm-47.457 5.006c.81-.585 2.042-1.074 3.062-1.216l.854-.118.123-.928c.15-1.14.032-1.619-.562-2.288-.624-.702-1.547-.986-2.22-.682-.755.341-.758 1.254-.008 2.25.188.25.159.363-.18.683-.317.3-.453.338-.625.175-.122-.115-.525-.21-.897-.21-1.316 0-2.208 1.832-1.213 2.492.565.375.982.336 1.666-.158zm11.221-10.46c0-.305-.045-.33-.273-.15-.15.117-.273.282-.273.365 0 .083.123.151.273.151.157 0 .273-.155.273-.366zm46.252.307c0-.033-.164-.2-.365-.372-.353-.303-.364-.3-.364.06 0 .257.113.371.364.371.2 0 .365-.026.365-.059zm-14.808-2.056c.118-.073.258-.066.311.015.053.081 2.934.165 6.403.185 5.147.03 6.28-.005 6.165-.187-.078-.124-1.544-1.778-3.258-3.675a23852.053 23852.053 0 0 1-16.064-17.804l-2.21-2.455-1.441 1.593c-.792.876-2.253 2.488-3.247 3.582a6896.228 6896.228 0 0 0-13.823 15.338 480.643 480.643 0 0 0-2.956 3.3c-.201.24 1.282.266 14.84.254 8.286-.008 15.162-.073 15.28-.146zm-9.283-3.536l-3.606-.047.055-4.035.055-4.034.548-.738c1.44-1.94 4.623-2.195 6.524-.522.912.803.935.922 1.03 5.227l.092 4.082-.546.057c-.3.031-2.17.035-4.152.01zm-.128-3.489v-2.241h-2.185V164.705h2.185zm3.642-.025v-2.216h-2.367v4.495l1.184-.03 1.183-.032zm-3.642-4.545c0-1.008-.036-1.12-.366-1.12-.545 0-1.62 1.031-1.75 1.68l-.114.561h2.23zm3.642 1.03c0-.05-.112-.342-.25-.647a2.93 2.93 0 0 0-1.616-1.488l-.5-.18v2.406h1.183c.65 0 1.183-.04 1.183-.091zm-16.684.105c1.064-1.178 1.935-2.206 1.935-2.285 0-.079-.942-.143-2.094-.143h-2.094v2.449c0 1.409.067 2.38.16 2.285.087-.09 1.03-1.128 2.093-2.306zm1.902-4.023c-.056-.373-.139-.39-2.107-.437l-2.048-.049v.874h2.107c2.08 0 2.106-.005 2.048-.388zm.002-2.137c-.057-.286-.285-.326-2.11-.37l-2.047-.048v.43c0 .43.005.432 1.957.48 1.077.028 2.027 0 2.112-.061.084-.061.124-.255.089-.431zm1.124-2.045v-.431h-6.556v.862h6.556z" fill="#8fb82b" stroke="#8fb82b" stroke-width=".195" transform="matrix(.33014 0 0 .31199 .128 -33.041)"/><path d="M37.391 137.02a188.35 188.35 0 0 0-.722-2.804c-.194-.72-.277-1.365-.192-1.484.136-.188.931-.472 4.813-1.72.634-.205 1.245-.313 1.356-.24.199.128.087.43-.572 1.534l-.213.359 1.259.861c.692.474 1.276.838 1.298.807.022-.03.14-1.011.26-2.18.203-1.943.262-2.18.687-2.769.822-1.139 2.278-1.39 3.495-.602.721.466 1.084 1.054 1.113 1.803.012.303-.127 1.76-.308 3.237-.182 1.477-.334 2.795-.34 2.929-.004.133-.076.795-.16 1.47-.197 1.583-.678 2.353-1.727 2.758-1.095.423-1.659.26-3.726-1.074-1.227-.792-1.754-1.192-1.796-1.365-.047-.196-.062-.206-.076-.05-.014.152-.305.01-1.283-.623l-1.265-.818-.407.729c-.383.686-.77.994-1.032.824-.045-.029-.252-.74-.462-1.582zm1.894-.834c.11.005 1.664.959 3.454 2.12 3.529 2.291 3.599 2.321 4.496 1.97.752-.294 1.214-1.319 1.151-2.56-.014-.274-.067-.333-.27-.299-.19.033-1.111-.512-3.744-2.216l-3.491-2.26.125-.291c.068-.16.201-.429.295-.596.158-.282.107-.284-.727-.03-.493.15-1.448.458-2.122.683l-1.224.41.09.434c.051.239.279 1.157.506 2.042l.414 1.607.425-.511c.233-.282.513-.508.622-.503zm9.083.187c.158-.22.296-.558.306-.754.01-.195.151-1.428.313-2.74.312-2.53.247-2.98-.498-3.462-.964-.623-2.162-.353-2.65.599-.123.242-.326 1.434-.45 2.648l-.224 2.209 1.457.951 1.457.95zM25.22 127.78c-.808-.84-.742-2.476.13-3.256.326-.29 1.339-.81 5.457-2.803 1.459-.706 1.467-.726.741-1.626-.395-.49-.425-.955-.063-.983.34-.027 5.67 1.315 5.955 1.5.187.12.201.412.06 1.24l-.465 2.722c-.154.903-.324 1.78-.378 1.951-.152.479-.499.304-1.109-.557l-.538-.76-1.267.595c-.696.327-1.297.638-1.335.69-.037.052.696.59 1.63 1.195 1.975 1.279 2.373 1.678 2.613 2.617.419 1.646-1.089 3.17-2.848 2.88-.58-.097-.98-.33-4.446-2.585-2.094-1.363-3.957-2.632-4.137-2.82zm8.328 4.573c1.14.378 2.256-.292 2.405-1.444.105-.81-.173-1.101-2.478-2.593l-2.083-1.348-.779.366c-2.615 1.23-2.58 1.195-1.888 1.86.64.616 4.215 2.957 4.823 3.159zm-5.77-4.291c.147-.204.412-.423.59-.488s.941-.426 1.697-.802c2.184-1.088 4.578-2.227 4.942-2.35.326-.11.342-.101.636.377.165.27.342.483.392.474.074-.013.805-3.826.776-4.052-.013-.103-4.144-1.144-4.206-1.06-.03.041.08.298.243.571.376.626.306.696-1.586 1.596-.811.386-2.156 1.044-2.99 1.462-.832.417-1.658.813-1.834.878-.772.288-1.284 1.726-.84 2.356.107.151.581.53 1.054.841l.859.567zm17.344-2.329c-1.028-.833-1.922-1.586-1.985-1.672-.226-.31.132-.477 1.12-.521l1.003-.045.04-.583c.022-.321.073-.954.113-1.406.04-.452.037-.846-.008-.875-.045-.029-.708.231-1.474.579-3.036 1.376-3.598 1.467-4.722.762-.778-.487-1.346-1.57-1.055-2.013.032-.05.036-.243.01-.429-.033-.226.092-.535.375-.927.395-.548.61-.668 3.09-1.737a217.765 217.765 0 0 0 3.423-1.5c1.554-.723 2.967-1.204 3.48-1.185.753.027 1.952.894 2.208 1.594.11.301.103 1.777-.018 3.74-.109 1.784-.194 3.376-.188 3.538.01.271.077.29.88.25.954-.047 1.23.05 1.141.404-.047.188-3.466 3.502-4.265 4.134-.252.2-.628-.05-3.168-2.108zm3.974.338a38.934 38.934 0 0 0 1.55-1.452l.482-.5-.635-.028c-.426-.018-.664-.096-.721-.234-.047-.114.018-1.819.146-3.79.127-1.97.189-3.749.137-3.952-.054-.211-.326-.552-.636-.797-.478-.378-.614-.42-1.154-.35-.337.042-.947.232-1.356.42-.74.343-.742.344-.578.624.142.24.14 2.169-.004 3.394a75.23 75.23 0 0 0-.152 2.266c-.134 2.372-.174 2.481-.946 2.554-.33.032-.592.086-.58.12.028.087 3.08 2.552 3.246 2.621.074.031.614-.372 1.2-.896zm-8.542-4.42c.358.017 1.2-.278 2.675-.94 1.184-.531 2.192-1.024 2.24-1.094.11-.16.299-2.932.215-3.143-.153-.384-1.059-.139-3.546.958-2.206.974-2.684 1.236-2.97 1.631-.793 1.1-.034 2.518 1.386 2.588z" fill="#8fb82b" stroke="#8fb82b" stroke-width=".335" transform="matrix(.33014 0 0 .31199 .128 -33.041)"/><path d="M61.714 269.59c-2.282-.392-4.517-1.96-5.549-3.893-.43-.805-.554-1.178-.442-1.323.16-.208.339-.076.507.373.401 1.075 1.42 2.343 2.5 3.111 2.945 2.098 7.185 1.807 9.757-.669 1.135-1.092 1.813-2.384 2.124-4.045l.052-.275-.372.345c-.379.352-.635.396-.634.109 0-.17 1.152-1.307 1.285-1.269.133.039.971 1.26.971 1.416a.204.204 0 0 1-.127.177c-.123.044-.173.005-.522-.416l-.156-.19-.145.704c-.167.807-.647 1.901-1.159 2.643-.844 1.224-2.344 2.346-3.816 2.855a8.827 8.827 0 0 1-4.274.346zm.921-2.02a1.046 1.046 0 0 1-.48-.27c-.168-.184-.19-.293-.19-.95v-.74l-.252-.053c-.225-.047-.299-.007-.711.394-.253.246-.571.483-.708.528-.369.122-.76-.035-1.202-.483-.648-.656-.626-.969.118-1.689.524-.508.561-.582.393-.787-.08-.098-.288-.134-.876-.154-.713-.024-.789-.042-1.001-.244-.202-.19-.234-.291-.262-.8-.055-1.033.255-1.318 1.436-1.318.695 0 .707-.003.762-.21.048-.18-.01-.274-.4-.653-.56-.546-.671-.742-.605-1.075.057-.286.785-1.038 1.125-1.16.316-.115.682.048 1.18.526.44.42.591.488.87.387.108-.04.133-.188.133-.798 0-.723.009-.758.244-.981.234-.222.278-.232.988-.232.639 0 .77.023.93.166.275.242.346.483.346 1.173 0 .573.014.621.201.702.183.079.243.047.648-.344.841-.812 1.234-.827 1.985-.075.351.352.426.478.426.714 0 .377-.098.537-.638 1.036-.414.383-.443.433-.356.613.09.186.137.198.886.224.773.026.797.033 1.035.286.223.236.244.309.244.846 0 1.045-.206 1.23-1.362 1.23-.682 0-.704.007-.805.216-.099.205-.083.235.32.598.573.519.676.676.676 1.029 0 .251-.066.37-.394.702-.78.789-1.127.799-1.918.056-.44-.413-.546-.476-.731-.432-.212.05-.217.066-.217.727 0 .708-.12 1.07-.4 1.213-.206.104-1.088.155-1.438.082zm1.17-.467c.093-.056.135-.286.166-.913l.042-.838.486-.208.485-.207.603.567c.333.313.677.568.766.568.186 0 .962-.69.962-.857 0-.06-.27-.374-.6-.697l-.602-.587.153-.414c.083-.228.21-.459.282-.513.085-.064.42-.1.953-.1.805 0 .823-.003.903-.202.132-.328.098-.87-.064-1.054-.128-.145-.252-.169-.982-.187l-.835-.021-.184-.356c-.101-.196-.186-.422-.19-.501-.001-.08.26-.399.581-.71.322-.31.585-.611.585-.67 0-.18-.76-.89-.952-.889-.105.002-.41.224-.761.557-.636.602-.657.608-1.286.328l-.303-.135-.042-.845c-.023-.464-.072-.873-.109-.908-.037-.034-.323-.077-.637-.093-.769-.041-.842.054-.842 1.097v.76l-.44.173c-.243.095-.48.173-.525.173-.047 0-.346-.25-.665-.554-.32-.305-.65-.555-.735-.555-.213 0-.896.675-.896.886 0 .105.226.392.584.741l.584.57-.2.466-.2.465-.86.023c-.472.012-.909.061-.969.108-.113.09-.155.969-.058 1.208.041.103.203.126.898.127.467 0 .886.027.932.06.046.031.168.252.272.49l.189.434-.586.558c-.72.687-.744.832-.211 1.297.206.18.451.327.546.327.102 0 .408-.226.751-.554.32-.305.612-.555.65-.555.04 0 .227.072.417.159.19.087.386.158.434.158.055 0 .088.287.088.774 0 1.025.07 1.127.778 1.125.285 0 .574-.035.643-.076zm-1.571-2.212c-.855-.3-1.547-.945-1.86-1.73-.23-.579-.198-1.52.073-2.1.261-.56.924-1.183 1.541-1.45.444-.192.624-.224 1.23-.222.88.003 1.474.232 2.073.8 1.858 1.76.643 4.716-1.987 4.83-.473.02-.737-.011-1.07-.128zm1.863-.455c.585-.188 1.223-.805 1.46-1.413.45-1.148-.078-2.387-1.274-2.986-.511-.256-1.613-.256-2.162 0-1.46.681-1.882 2.364-.916 3.65.206.273.734.625 1.153.766.438.148 1.252.14 1.74-.017zm-1.32-.431c-.937-.206-1.504-.888-1.506-1.813-.004-1.567 1.98-2.386 3.242-1.337.789.656.818 2.005.057 2.656-.513.438-1.192.625-1.793.494zm1.224-.618c.376-.22.64-.696.64-1.154 0-.773-.51-1.309-1.302-1.37-.562-.045-.868.07-1.243.463-.644.675-.427 1.688.455 2.119a1.579 1.579 0 0 0 1.45-.058zm-9.115-1.72c-.238-.375-.412-.73-.388-.79.08-.2.344-.114.53.171.102.155.2.266.22.247.02-.018.11-.322.198-.675.251-.995.64-1.864 1.174-2.62 1.054-1.492 2.656-2.568 4.576-3.074.724-.19.945-.213 2.065-.207 1.107.007 1.342.032 2.006.22 2.347.666 4.084 2.034 5.073 3.996.391.777.452 1.147.194 1.18-.135.017-.21-.08-.395-.514-.863-2.026-2.526-3.467-4.83-4.186-.655-.205-.815-.222-2.048-.226-1.025-.003-1.461.028-1.865.134-2.26.592-3.994 1.95-4.944 3.872-.33.666-.674 1.749-.674 2.118 0 .195.007.193.325-.102.318-.293.585-.354.657-.149.05.142-1.075 1.27-1.274 1.279-.124.006-.28-.17-.6-.675z" fill="#8fb82b" stroke="#8fb82b" stroke-width=".311" transform="matrix(.33014 0 0 .31199 .128 -33.041)"/><g fill="#8fb82b" stroke="#8fb82b"><path d="M2.211 230.11l.266-.252.491-.002c.765-.004 1.387-.156 2.108-.515.39-.194 1.016-.587 1.289-.809l.08-.065-.074-.336c-.373-1.714-.142-3.063.75-4.399.37-.551.694-.916 1.894-2.134 1.665-1.688 2.366-2.467 3.103-3.449.89-1.183 1.566-2.349 2.04-3.516l.15-.365.02.216c.03.31-.008 2.444-.055 3.163-.303 4.613-1.564 7.863-3.74 9.636a5.22 5.22 0 0 1-1.042.662c-.728.359-1.26.489-2.077.505-.44.01-.537.019-.578.056-.031.028-.043.063-.032.097.014.046.007.051-.048.038-.05-.013-.122.024-.329.17-1.161.82-2.426 1.292-4.005 1.495-.236.03-.44.055-.453.055-.013 0 .096-.113.242-.251zm5.636-1.858c.6-.12 1.257-.38 1.793-.71 2.259-1.389 3.683-4.256 4.182-8.415a28.41 28.41 0 0 0 .19-3.26v-.652l-.131.326a13.61 13.61 0 0 1-2.079 3.559c-.468.58-.836.973-2.203 2.35-1.466 1.476-1.844 1.894-2.215 2.452-.427.645-.666 1.21-.805 1.908-.069.347-.069 1.347 0 1.752.05.297.127.658.143.676.042.046 1.366-1.26 1.842-1.817.942-1.1 2.083-2.708 2.868-4.041.064-.108.121-.197.128-.197.021 0-.28.536-.704 1.25-1.29 2.175-2.542 3.8-3.701 4.807l-.136.117.244-.018c.135-.01.398-.05.584-.087zm3.75-6.15c.015-.03.034-.055.042-.055.007 0 0 .025-.016.055s-.035.054-.042.054c-.008 0 0-.025.015-.054z" stroke-width=".544" transform="matrix(-.3454 -.13269 -.14825 .30914 38.54 -28.047)"/><path d="M2.557 230.308l.029-.212.223-.18c.347-.282.574-.579.77-1.006.107-.23.248-.639.291-.84l.013-.058-.157-.126c-.796-.643-1.185-1.342-1.267-2.276-.034-.386-.02-.67.08-1.664.14-1.377.174-1.988.15-2.704a9.225 9.225 0 0 0-.358-2.347l-.065-.22.088.09c.127.131.89 1.116 1.132 1.46 1.55 2.21 2.165 4.15 1.823 5.752-.05.238-.12.443-.231.683-.2.43-.395.683-.76.99-.198.165-.238.205-.243.236-.004.024.004.045.02.056.024.016.023.02-.007.035-.028.012-.047.056-.088.198-.228.798-.631 1.475-1.275 2.145-.096.1-.18.186-.186.19-.006.006.002-.086.018-.202zm1.885-2.907c.229-.274.433-.633.556-.979.52-1.458.119-3.284-1.176-5.359a16.587 16.587 0 0 0-1.106-1.553l-.239-.296.06.196c.242.794.357 1.56.356 2.38 0 .435-.024.748-.142 1.875-.128 1.208-.146 1.537-.11 1.926.04.45.138.794.33 1.163.096.183.462.638.642.797.131.117.298.253.312.255.036.006.16-1.073.174-1.5a18.284 18.284 0 0 0-.174-2.888.86.86 0 0 1-.014-.137c.01-.008.069.347.137.826.209 1.462.234 2.66.074 3.542l-.018.103.104-.098a3.52 3.52 0 0 0 .234-.253zm-.544-4.17c-.004-.02-.004-.038 0-.04.003-.003.008.01.012.03.004.02.004.038 0 .04-.003.003-.009-.01-.012-.03z" stroke-width=".318" transform="matrix(-.3454 -.13269 -.14825 .30914 38.54 -28.047)"/></g><path style="line-height:1.25;-inkscape-font-specification:'sans-serif Bold'" d="M109.98 143.99c-1.554 0-2.772.89-3.655 2.674-.882 1.775-1.324 4.193-1.324 7.256 0 3.038.442 5.452 1.324 7.244.883 1.783 2.101 2.675 3.655 2.675 1.557 0 2.777-.892 3.66-2.675.883-1.792 1.324-4.206 1.324-7.244 0-3.063-.443-5.481-1.33-7.256-.887-1.783-2.105-2.675-3.654-2.675zm-21.529.025c-.376 0-.744.047-1.103.14a4.1 4.1 0 0 0-.935.333c-.329.171-.597.333-.805.487a8.49 8.49 0 0 0-.668.524v4.352h.273c.125-.188.28-.418.467-.691.19-.273.407-.53.649-.768.268-.256.554-.465.857-.627.307-.171.64-.256 1-.256.289 0 .579.076.869.23.294.145.564.384.811.717.247.332.459.759.636 1.28.178.52.3 1.164.37 1.932h-4.245v3.635h4.304c-.052.99-.178 1.804-.377 2.444-.195.64-.428 1.152-.7 1.536-.26.375-.555.644-.884.806-.328.154-.638.23-.928.23-.41 0-.766-.08-1.064-.243-.299-.17-.58-.38-.844-.627a5.357 5.357 0 0 1-.61-.704 13.123 13.123 0 0 1-.474-.717h-.24v4.313c.126.103.31.244.552.423.242.17.513.337.811.499.281.153.597.281.948.384.354.11.737.166 1.148.166.77 0 1.467-.222 2.09-.665.628-.453 1.164-1.092 1.61-1.92.446-.828.796-1.89 1.051-3.187.256-1.305.383-2.773.383-4.402 0-1.519-.117-2.867-.35-4.044-.23-1.178-.56-2.18-.993-3.008-.442-.844-.967-1.484-1.577-1.92a3.418 3.418 0 0 0-2.032-.652zm14.344.333c-.744 0-1.3.247-1.668.742-.368.486-.719 1.305-1.052 2.457-.077.273-.175.623-.292 1.05-.112.418-.214.78-.305 1.087a15.81 15.81 0 0 1-.422 1.254c-.134.333-.26.585-.376.756a1.036 1.036 0 0 1-.37.345c-.134.06-.303.098-.506.115v-7.768H95.31v19.056h2.493v-7.692h.61l2.856 7.692h3.056l-3.783-9.829c.142-.153.29-.41.441-.768.151-.367.346-.998.584-1.894.238-.904.454-1.536.65-1.894.198-.358.475-.537.83-.537h.72v-4.134c-.082 0-.21-.005-.383-.014a6.067 6.067 0 0 0-.59-.025zm7.191 3.237c.312 0 .61.116.896.346.29.23.545.601.766 1.113.216.495.391 1.144.525 1.946s.201 1.774.201 2.918c0 1.066-.058 1.996-.175 2.79-.117.784-.296 1.467-.538 2.047-.217.512-.47.892-.76 1.14-.29.238-.595.358-.915.358-.32 0-.625-.12-.915-.359-.29-.239-.543-.61-.76-1.113-.216-.504-.391-1.152-.525-1.945-.13-.803-.195-1.77-.195-2.906 0-1.109.067-2.081.201-2.918.139-.844.316-1.505.532-1.983.234-.512.49-.879.766-1.1.282-.223.58-.334.896-.334z" font-weight="700" font-size="10.583" font-family="sans-serif" letter-spacing="0" word-spacing="0" fill="none" stroke="#8fb82b" stroke-width="1.292" transform="matrix(.33014 0 0 .31199 .128 -33.041)"/><path style="line-height:1.25;-inkscape-font-specification:'sans-serif, Bold';font-variant-ligatures:normal;font-variant-caps:normal;font-variant-numeric:normal;font-feature-settings:normal;text-align:start" d="M73.108 36.651c-.319 0-.626.034-.92.103-.293.065-.54.139-.743.22v1.03h.11c.086-.044.168-.086.245-.128a2.47 2.47 0 0 1 .31-.141c.12-.044.245-.083.377-.116.13-.033.273-.049.426-.049.257 0 .46.037.607.112.149.075.223.194.223.359a.69.69 0 0 1-.035.24.405.405 0 0 1-.126.175.614.614 0 0 1-.245.108 1.775 1.775 0 0 1-.385.036h-.788v.876h.818c.15 0 .279.009.388.026.112.018.204.05.278.096.073.05.127.115.16.194a.756.756 0 0 1 .055.31.67.67 0 0 1-.072.328.657.657 0 0 1-.218.221.937.937 0 0 1-.325.132c-.13.028-.273.042-.43.042-.161 0-.304-.016-.427-.05a3.831 3.831 0 0 1-.737-.305 11.297 11.297 0 0 1-.251-.151h-.108v1.105a4.272 4.272 0 0 0 1.654.32c.364 0 .673-.035.926-.106.252-.072.47-.177.653-.316a1.24 1.24 0 0 0 .395-.49c.09-.195.134-.41.134-.645 0-.21-.032-.383-.096-.517a1.067 1.067 0 0 0-.57-.55 1.576 1.576 0 0 0-.337-.105v-.05c.26-.067.472-.202.635-.404.166-.202.249-.443.249-.721a.997.997 0 0 0-.46-.872c-.305-.211-.761-.316-1.37-.316zm21.945 0c-.318 0-.625.034-.92.103-.292.065-.54.139-.742.22v1.03h.11c.086-.044.167-.086.245-.128.077-.044.18-.09.31-.141.12-.044.245-.083.376-.116.132-.033.274-.049.427-.049.257 0 .459.037.606.112.15.075.224.194.224.359a.69.69 0 0 1-.036.24.404.404 0 0 1-.125.175.614.614 0 0 1-.245.108 1.775 1.775 0 0 1-.385.036h-.788v.876h.818c.15 0 .279.009.388.026.112.018.204.05.278.096.073.05.127.115.16.194a.756.756 0 0 1 .055.31.67.67 0 0 1-.072.328.659.659 0 0 1-.218.221.934.934 0 0 1-.325.132c-.13.028-.273.042-.43.042-.161 0-.304-.016-.427-.05a3.831 3.831 0 0 1-.738-.305 11.004 11.004 0 0 1-.25-.151h-.108v1.105a4.277 4.277 0 0 0 1.654.32c.364 0 .673-.035.926-.106.252-.072.47-.177.653-.316a1.24 1.24 0 0 0 .394-.49c.09-.195.134-.41.134-.645 0-.21-.032-.383-.095-.517a1.067 1.067 0 0 0-.57-.55 1.58 1.58 0 0 0-.338-.105v-.05c.261-.067.473-.202.636-.404.166-.202.248-.443.248-.721a.997.997 0 0 0-.46-.872c-.304-.211-.76-.316-1.37-.316zm6.287.086c-.343 0-.598.064-.767.191-.17.125-.33.336-.484.632-.036.07-.08.16-.134.27a8.39 8.39 0 0 1-.14.28 3.086 3.086 0 0 1-.195.322c-.061.086-.12.15-.173.195a.477.477 0 0 1-.17.088c-.062.016-.14.026-.233.03v-1.998h-1.146v4.902h1.146V39.67h.28l1.314 1.979h1.406l-1.74-2.529a.763.763 0 0 0 .203-.197c.07-.095.16-.257.269-.487.11-.233.208-.395.298-.487a.515.515 0 0 1 .382-.139h.332v-1.063c-.038 0-.097 0-.177-.003a4.416 4.416 0 0 0-.271-.007zm-24.241.01l-1.642 4.902h1.155l.307-.991h1.648l.308.99h1.185l-1.642-4.9zm3.605 0v4.902h1.147v-3.954h2.06v-.948zm3.893 0v4.902h1.146v-1.597h.713c.325 0 .596-.05.813-.148.218-.099.416-.245.593-.438.13-.143.23-.318.299-.527.07-.21.104-.425.104-.645 0-.283-.047-.525-.143-.727a1.254 1.254 0 0 0-.409-.497 1.577 1.577 0 0 0-.516-.24 2.647 2.647 0 0 0-.714-.083zm3.94 0l1.806 3.667c-.028.068-.104.123-.227.165-.121.041-.28.062-.478.062-.103 0-.208-.007-.313-.02a1.617 1.617 0 0 1-.22-.042h-.07v1.07c.062.007.189.013.38.02.19.008.356.012.495.012.126 0 .25-.01.376-.03.127-.019.256-.063.385-.13.13-.067.255-.169.376-.307a1.96 1.96 0 0 0 .323-.546l1.618-3.92h-1.192l-.91 2.323-1.104-2.324zm15.224 0l-1.642 4.902h1.155l.307-.991h1.648l.308.99h1.185l-1.642-4.9zm-18.018.915h.197c.189 0 .34.003.454.01.113.005.23.033.349.086.09.04.168.11.236.21a.613.613 0 0 1 .101.356c0 .14-.017.26-.05.359a.6.6 0 0 1-.478.408c-.126.026-.286.04-.48.04h-.329zm-8 .34l.546 1.757h-1.092zm26.663 0l.546 1.757h-1.093zm2.94 2.353v1.294h1.116v-1.294zm2.209 0v1.294h1.116v-1.294zm2.208 0v1.294h1.117v-1.294z" font-weight="700" font-size="7.914" font-family="sans-serif" letter-spacing="0" word-spacing="0" fill="#333945"/><g font-weight="700" font-size="47.871" font-family="Garamond" letter-spacing="0" word-spacing="0" fill="#8fb82b"><path style="line-height:1.25;-inkscape-font-specification:'Garamond Bold'" d="M129.485 10.85c-.078.309-.11.627-.258.922-.15.267-.342.507-.59.711-.273.226-.445.44-.95.615-.533.172-.948.4-1.653.49-.766.103-1.423.2-2.484.217-.629.02-1.445-.045-2.217-.112a25.04 25.04 0 0 0-1.911-.224c-.412-.02-.832-.04-1.291-.048-.465-.017-.93.02-1.395.107-.43.057-.87.215-1.312.412-.363.19-.646.397-.9.609-.408.314-.66.757-.877 1.226a4.483 4.483 0 0 0-.31 1.754c.022.463.019.925.134 1.396.159.827.234.816.34 1.115-.574.489-1.008 1.233-1.39 1.846l.022.013a6.82 6.82 0 0 0-.158.342c-.419.998-.628 2.26-.628 3.785 0 1.404.185 2.487.555 3.25.37.756.95 1.319 1.738 1.688.79.37 1.655.554 2.598.554 1.431 0 2.58-.375 3.446-1.126.866-.75 1.298-1.688 1.298-2.814 0-1.162-.436-2.118-1.309-2.868-.873-.756-2.021-1.135-3.446-1.135-.747 0-1.434.142-2.063.427-.621.278-1.246.914-1.875 1.906-.023-2.783 1.292-5.6 4.101-6.022.904.527 1.54.715 2.484.938-.642-.443-1.355-.82-1.818-1.428l2.624-.93c.658.518 1.468.685 2.242.935-.496-.398-1.067-.692-1.477-1.208l1.715-.58c.527.185 1.042.195 1.56.242-.332-.155-.677-.25-.992-.485.917-.378 1.736-.848 2.323-1.535-1.232.542-2.464 1.096-3.696 1.439.032-.406.136-.805.219-1.206-.304.475-.6.944-.877 1.397-.841.25-1.677.514-2.557.674.219-.759.63-1.52 1.038-2.282-.785.789-1.39 1.591-1.943 2.398-.934.293-1.76.633-2.557.988-.283-.66-.183-1.287-.06-1.912a5.43 5.43 0 0 1 .358-.78c.149-.257.267-.37.406-.581.345-.402.744-.68 1.157-.925.53-.264 1.061-.402 1.591-.542.54-.11 1.072-.173 1.592-.14l2.975.225c1.354.052 2.64-.104 3.781-.536 1.322-.477 2.249-1.206 2.694-2.245-.183.901-.334 1.805-.76 2.686a17.56 17.56 0 0 1-.916 1.738c-.248.366-.48.732-1.049 1.108-.244.146-.468.306-.764.418a3.01 3.01 0 0 1-1.519.048c.418.145.834.297 1.26.363.476.05.838-.04 1.189-.143-.282.49-.74.924-1.225 1.347-.51.398-1.039.797-1.657 1.009-.47.242-.975.335-1.5.42a6.19 6.19 0 0 1-1.344.08c-.528-.01-1.04-.13-1.548-.263.138.217.26.432.558.675.286.25.572.448.858.57.279.134.558.204.837.223-.327.217-.748.364-1.282.424-.547.095-1.052.077-1.56.064a5.877 5.877 0 0 1-1.415-.23c-.925-.243-1.776-.67-2.604-1.157.533.537 1.12.994 1.777 1.348.464.243.957.472 1.547.66.468.173.935.25 1.346.327.592.048 1.026.053 1.385.037.781-.03 1.275-.14 1.674-.276.71-.27 1.42-.558 2.117-.943.505-.267.943-.6 1.351-.965a7.852 7.852 0 0 0 1.294-1.396c.353-.432.647-.896.889-1.388.323-.769.66-1.537.909-2.311.216-.571.296-1.237.393-1.892.07-.603.043-1.214.04-1.823-.005-.6-.138-1.159-.278-1.716zm-13.042 13.344c.782 0 1.362.26 1.739.78.377.521.565 1.396.565 2.624 0 2.197-.743 3.295-2.23 3.295-.706 0-1.264-.218-1.676-.653-.405-.436-.608-1.377-.608-2.823 0-1.138.171-1.958.513-2.46.35-.509.915-.763 1.697-.763zM59.119 19.292c-1.816 0-3.397.188-4.745.563-.489 1.071-.74 1.964-.754 2.678h.953c.747-.92 1.46-1.534 2.137-1.843a5.248 5.248 0 0 1 2.22-.472c1.32 0 2.311.382 2.975 1.144.663.757 1.033 1.936 1.11 3.54l-.765.027c-2.185 0-3.4-.088-3.645-.263-.237-.176-.45-.744-.638-1.706a2.07 2.07 0 0 0-.158-.01l-.586.01c-.028.496-.042.928-.042 1.298l.02 1.288.011.318-.052 1.09-.01.671h.743l.157-.599c.168-.678.332-1.074.492-1.189.168-.115.782-.172 1.844-.172l1.634.027c.244.013.415.016.513.016l.524-.01c0 1.682-.42 2.923-1.257 3.722-.831.793-1.89 1.189-3.174 1.189-1.794 0-3.198-.826-4.21-2.478a5.711 5.711 0 0 0-1.016-.073c.105.739.31 1.595.618 2.57 1.09.568 2.636.853 4.64.853 2.304 0 4.147-.527 5.53-1.58 1.39-1.053 2.084-2.563 2.084-4.53 0-1.76-.614-3.213-1.843-4.357-1.23-1.15-3-1.724-5.31-1.724zM94.085 19.329l-1.236 2.86-1.393 3.103c-.957 2.264-1.547 3.634-1.77 4.112-.224.472-.412.76-.566.863-.146.096-.492.19-1.037.281-.398.066-.632.112-.702.136l-.02.617c.607 0 1.162-.036 1.665-.109l.43-.063 1.204.073c.83.054 1.463.081 1.895.081.015-.067.021-.136.021-.209l-.01-.453a17.89 17.89 0 0 1-.744-.1c-.377-.043-.65-.106-.817-.19a.42.42 0 0 1-.251-.4c0-.121.283-.841.848-2.16l2.2-5.075c.32.551 1.026 2.079 2.115 4.584l.472 1.026c.516 1.071.775 1.661.775 1.77 0 .115-.042.19-.126.227-.084.036-.412.12-.984.254-.475.072-.73.115-.765.127-.02.188-.031.39-.031.608l1.194-.036c.83-.055 1.683-.082 2.555-.082.322 0 .775.02 1.362.063.656.043 1.243.064 1.76.064l.01-.191c0-.103-.018-.254-.052-.454a4.806 4.806 0 0 0-1.037-.227.945.945 0 0 1-.723-.435c-.175-.267-.394-.711-.66-1.335a37.107 37.107 0 0 0-.733-1.597l-.335-.7c-.566-1.288-1.006-2.235-1.32-2.84l-.282-.536c-.971-2.063-1.565-3.28-1.781-3.649zM76.02 23.577c-1.026 0-2.08.647-3.162 1.942-.517.618-.915 1.026-1.194 1.226-.28.2-.681.363-1.205.49v-.853c0-.121.025-.433.074-.935.014-.134.02-.236.02-.31.021-.26.064-.417.126-.471.063-.055.23-.082.503-.082l.765-.072.125-.626c-.377.054-1.037.081-1.98.081l-.837-.01-.545.01c-.412 0-1.082-.027-2.01-.081l.135.626c.336.036.584.054.744.054.328.007.517.06.566.164.049.096.073.363.073.798l-.01 1.08-.01.954-.011.3c-.007 1.736-.05 2.632-.126 2.686a.936.936 0 0 1-.304.064l-.398.026c-.041.014-.129.027-.262.046-.14.017-.268.054-.387.109a3.75 3.75 0 0 0-.01.245c0 .097.013.194.041.29.133 0 .276-.002.43-.01.111-.006.265-.01.46-.01.72-.054 1.205-.081 1.456-.081.44 0 .912.013 1.414.045l1.1.036.073-.027a.782.782 0 0 0 .021-.145l-.01-.164v-.226c-.07-.014-.154-.024-.252-.036-.488-.049-.82-.137-.995-.264l-.01-.335-.01-.3v-2.078c.53 0 .928.084 1.194.254.272.163.719.61 1.34 1.343l1.016 1.17c.37.412.608.688.712.827a24.892 24.892 0 0 1 1.624-.064c.398 0 .771.017 1.12.046.259.023.43.036.514.036.007-.096.01-.17.01-.218l-.01-.3c-.566-.139-.957-.269-1.173-.39-.21-.127-.548-.462-1.016-1.007-.908-1.053-1.56-1.725-1.959-2.015-.398-.29-.782-.484-1.152-.581.175-.14.44-.406.796-.799.426-.472.758-.79.995-.953.237-.164.471-.245.702-.245.153 0 .321.094.503.281.279.29.59.436.932.436.314 0 .558-.088.733-.263a.813.813 0 0 0 .272-.6c0-.308-.133-.571-.398-.79-.265-.217-.65-.326-1.152-.326zM82.764 23.577c-.67 0-1.243.063-1.717.19a5.077 5.077 0 0 0-1.404.618c-.321.205-.618.46-.89.762a3.42 3.42 0 0 0-.628 1.071c-.154.406-.231.811-.231 1.217 0 .798.16 1.467.482 2.006.328.538.869 1.02 1.623 1.443.761.423 1.686.635 2.776.635.97 0 1.822-.178 2.555-.535.733-.357 1.316-.911 1.75-1.661.286-.497.429-1.15.429-1.961 0-.43-.112-.887-.335-1.37a3.573 3.573 0 0 0-.995-1.299c-.817-.744-1.955-1.116-3.415-1.116zm-.084.617c.685 0 1.236.23 1.655.69.42.454.629 1.232.629 2.333 0 .895-.05 1.54-.147 1.933-.154.6-.405 1.041-.754 1.325-.349.279-.779.418-1.288.418-.426 0-.793-.072-1.1-.218-.307-.145-.527-.311-.66-.5a3.04 3.04 0 0 1-.43-1.043c-.027-.115-.073-.547-.135-1.298.014-1.07.066-1.77.157-2.097.14-.508.384-.892.733-1.153.356-.26.803-.39 1.34-.39zM107.322 23.65c-.866 0-1.599.084-2.2.254-.44.133-.914.366-1.424.698-.502.327-.88.666-1.13 1.017a1.55 1.55 0 0 0-.252.89c0 .133.049.236.147.308.223 0 .523-.078.9-.236.098-.042.283-.109.555-.2.28-.096.472-.202.576-.317.042-.043.088-.197.137-.463.07-.37.153-.62.25-.753.133-.182.347-.33.64-.445.293-.115.614-.173.963-.173.35 0 .594.09.733.273.23.296.346.853.346 1.67 0 .236-.01.469-.031.699l-2.608.907c-.454.17-.72.273-.796.31-.503.241-.87.465-1.1.67a2.13 2.13 0 0 0-.492.609 1.409 1.409 0 0 0-.147.608c0 .43.171.778.514 1.044.342.26.876.39 1.602.39.789 0 1.456-.115 2-.345a2.798 2.798 0 0 0 1.268-1.044c.244.497.513.845.806 1.044.3.194.657.29 1.069.29.405 0 .743-.099 1.015-.299.273-.206.493-.578.66-1.116l-.01-.045a.257.257 0 0 0-.115-.155l-.241-.136-.189.064-.314.426a.356.356 0 0 1-.199.055.41.41 0 0 1-.314-.137c-.077-.096-.115-.272-.115-.526v-.281l-.021-1.099.03-1.497c0-.914-.08-1.546-.24-1.897-.154-.351-.433-.615-.838-.79-.398-.182-.876-.272-1.435-.272zm.2 3.848c.027.266.041.533.041.799 0 .72-.031 1.159-.094 1.316-.063.152-.28.357-.65.617-.272.194-.604.291-.995.291a.894.894 0 0 1-.628-.254.843.843 0 0 1-.272-.645c0-.29.07-.535.21-.735.195-.272.54-.541 1.036-.808a6.962 6.962 0 0 1 1.351-.58z"/></g><path transform="matrix(.9995 0 0 .99827 -.017 -243.57)" opacity=".85" fill="none" stroke="#4d4d4d" stroke-width=".299" stroke-linecap="round" stroke-linejoin="round" filter="url(#a)" d="M.1 244.184h132.093v52.721H.1z"/></svg>