<?xml version="1.0" encoding="UTF-8" standalone="no"?>
<!-- Created with Inkscape (http://www.inkscape.org/) -->

<svg
   xmlns:dc="http://purl.org/dc/elements/1.1/"
   xmlns:cc="http://creativecommons.org/ns#"
   xmlns:rdf="http://www.w3.org/1999/02/22-rdf-syntax-ns#"
   xmlns:svg="http://www.w3.org/2000/svg"
   xmlns="http://www.w3.org/2000/svg"
   xmlns:sodipodi="http://sodipodi.sourceforge.net/DTD/sodipodi-0.dtd"
   xmlns:inkscape="http://www.inkscape.org/namespaces/inkscape"
   width="119.94999mm"
   height="132.17818mm"
   viewBox="0 0 119.94999 132.17818"
   version="1.1"
   id="svg8"
   inkscape:version="0.92.2 (5c3e80d, 2017-08-06)"
   sodipodi:docname="1.svg">
  <defs
     id="defs2">
    <inkscape:path-effect
       is_visible="true"
       id="path-effect35"
       effect="spiro" />
  </defs>
  <sodipodi:namedview
     id="base"
     pagecolor="#ffffff"
     bordercolor="#666666"
     borderopacity="1.0"
     inkscape:pageopacity="0.0"
     inkscape:pageshadow="2"
     inkscape:zoom="0.7"
     inkscape:cx="142.94678"
     inkscape:cy="141.85161"
     inkscape:document-units="mm"
     inkscape:current-layer="layer1"
     showgrid="false"
     fit-margin-top="0"
     fit-margin-left="0"
     fit-margin-right="0"
     fit-margin-bottom="0"
     inkscape:window-width="1920"
     inkscape:window-height="1001"
     inkscape:window-x="-9"
     inkscape:window-y="-9"
     inkscape:window-maximized="1"
     inkscape:snap-global="false" />
  <metadata
     id="metadata5">
    <rdf:RDF>
      <cc:Work
         rdf:about="">
        <dc:format>image/svg+xml</dc:format>
        <dc:type
           rdf:resource="http://purl.org/dc/dcmitype/StillImage" />
        <dc:title></dc:title>
      </cc:Work>
    </rdf:RDF>
  </metadata>
  <g
     inkscape:label="Layer 1"
     inkscape:groupmode="layer"
     id="layer1"
     transform="translate(-2.6372189,-2.4871326)">
    <path
       style="fill:#323844;stroke-width:0.15776706;fill-opacity:1"
       d="m 52.618705,132.83156 c -10.485304,-0.50907 -23.121454,-1.98159 -37.141773,-4.32822 -3.592421,-0.60129 -5.6622809,-1.02826 -6.8752377,-1.41826 -1.838511,-0.59114 -3.8086811,-1.6804 -3.6127452,-1.99743 0.066097,-0.10695 0.042276,-0.13774 -0.05832,-0.0758 -0.2212589,0.13672 -0.8799878,-0.78682 -0.7319957,-1.02628 0.068691,-0.11121 0.044484,-0.14079 -0.06154,-0.0752 -0.1088599,0.0673 -0.2318998,-0.11688 -0.3262519,-0.48837 -0.6485012,-2.55331 -0.093242,-8.62753 1.1690968,-12.78929 0.8740585,-2.8817 3.3495041,-8.21833 3.7090622,-7.99611 0.081027,0.05 0.099664,-0.0302 0.041932,-0.18069 -0.067455,-0.17583 -0.043147,-0.23312 0.069684,-0.16348 0.095612,0.0589 0.2250531,0.0241 0.2878491,-0.0773 0.071304,-0.11546 0.04578,-0.14241 -0.068063,-0.0721 -0.1002713,0.062 -0.1821086,0.0713 -0.1821086,0.0209 0,-0.23694 2.076321,-3.162002 2.24899,-3.168302 0.107969,-0.004 0.176032,-0.100475 0.151117,-0.21458 -0.05996,-0.274925 1.223368,-1.929886 1.408029,-1.815779 0.079,0.04882 0.124782,0.03039 0.101689,-0.04112 -0.0231,-0.07151 0.0784,-0.301097 0.225742,-0.510147 0.237714,-0.337296 0.29976,-0.355062 0.550964,-0.157801 0.260037,0.204209 0.264858,0.199125 0.05915,-0.0626 -0.203338,-0.258801 -0.138152,-0.363306 0.70996,-1.137784 0.88275,-0.80614 1.326921,-1.08783 1.076548,-0.682715 -0.07029,0.113843 -0.04314,0.139366 0.07211,0.06806 0.101689,-0.06279 0.146862,-0.175221 0.100876,-0.249929 -0.123972,-0.200542 1.781384,-1.616776 1.99641,-1.483892 0.106348,0.06584 0.13957,0.04355 0.07961,-0.05327 -0.130049,-0.210468 2.532504,-1.822848 2.768901,-1.676736 0.103917,0.06421 0.128631,0.03464 0.06179,-0.07353 -0.21539,-0.348519 9.745384,-4.891146 10.277347,-4.687019 0.118098,0.04537 0.175424,0.01823 0.127618,-0.05834 -0.109589,-0.177247 0.838145,-0.518574 1.059593,-0.381699 0.09135,0.05632 0.117286,0.02553 0.05854,-0.06948 -0.05935,-0.09602 0.05064,-0.218551 0.251711,-0.279929 0.19649,-0.05996 1.277293,-0.49301 2.401768,-0.962197 1.124455,-0.469168 2.139827,-0.816471 2.256364,-0.771744 0.131263,0.05044 0.168941,0.01216 0.09885,-0.101483 -0.07616,-0.123161 -0.02471,-0.148887 0.1578,-0.0788 0.148887,0.05713 0.236417,0.04842 0.194465,-0.02026 -0.109588,-0.177248 2.555922,-1.329008 2.769794,-1.196833 0.100074,0.06198 0.135517,0.04051 0.08022,-0.04861 -0.122149,-0.197503 0.641229,-0.563706 0.874588,-0.419478 0.09358,0.05794 0.12782,0.03647 0.07596,-0.0474 -0.120933,-0.19568 1.901201,-1.200094 2.13065,-1.058276 0.111209,0.06887 0.126605,0.03242 0.04335,-0.102295 -0.0946,-0.152939 -0.05672,-0.181096 0.141596,-0.105133 0.148887,0.05713 0.235161,0.04639 0.191629,-0.0239 -0.04355,-0.07029 0.361057,-0.385345 0.898956,-0.699994 0.913885,-0.534617 1.346915,-0.669689 1.254098,-0.391219 -0.02168,0.06502 0.01823,0.10068 0.08994,0.0788 0.180691,-0.0551 3.184976,2.591776 3.09921,2.730555 -0.03849,0.06219 0.05185,0.10331 0.200745,0.09136 0.148887,-0.01216 0.272312,0.06118 0.274398,0.162459 0.0021,0.101287 0.06847,0.243223 0.147469,0.31554 0.08346,0.07637 0.09602,0.04882 0.03018,-0.06584 -0.163472,-0.284 0.03403,-0.242758 0.466514,0.09743 0.205992,0.162055 0.325831,0.343273 0.266357,0.402767 -0.05955,0.05956 -0.004,0.07008 0.123566,0.0237 0.127618,-0.04639 0.409329,0.06239 0.62626,0.242008 0.21693,0.179475 0.294696,0.273791 0.17279,0.209476 -0.147469,-0.07779 -0.183324,-0.0551 -0.107361,0.06766 0.06279,0.101689 0.175424,0.146862 0.250192,0.100681 0.206943,-0.127821 1.262343,0.424136 1.152044,0.602599 -0.05307,0.08589 -0.01823,0.108171 0.07576,0.04984 0.229874,-0.142 1.936935,0.703641 1.815819,0.899605 -0.05266,0.08508 -0.01418,0.103108 0.08832,0.04031 0.243831,-0.15071 1.295037,0.237005 1.173922,0.432949 -0.05226,0.08447 -0.01823,0.106145 0.07535,0.04821 0.09358,-0.05773 0.86776,0.07252 1.720369,0.289489 2.413537,0.614451 4.602527,0.801846 6.70417,0.573897 2.07697,-0.225276 3.888009,-0.633005 5.416405,-1.21946 0.607399,-0.233055 1.257339,-0.430822 1.444289,-0.439472 0.18697,-0.0081 0.310152,-0.06381 0.27379,-0.122756 -0.03626,-0.05895 0.07232,-0.150913 0.241665,-0.204654 0.169346,-0.05368 1.075493,-0.563868 2.013829,-1.133671 0.938315,-0.569804 1.790843,-1.039762 1.894497,-1.04436 0.103714,-0.004 0.174613,-0.05449 0.1578,-0.111008 -0.05874,-0.196491 1.79538,-1.591617 1.971028,-1.483061 0.09723,0.06016 0.133694,0.0395 0.08103,-0.04598 -0.05266,-0.08548 0.288497,-0.534981 0.758415,-0.999064 0.797186,-0.787281 0.881799,-0.831279 1.26374,-0.657252 0.245007,0.111614 0.36434,0.259387 0.297209,0.368004 -0.06806,0.1104 -0.04274,0.138557 0.06482,0.07211 0.09743,-0.06016 0.532693,0.09379 0.967424,0.342035 0.648259,0.370235 0.755599,0.49058 0.596786,0.669042 -0.161447,0.181501 -0.151116,0.185756 0.06179,0.02573 0.212008,-0.159218 0.668089,0.01008 2.68204,0.989929 1.334619,0.64994 3.261486,1.525844 4.281923,1.946415 1.020416,0.420592 1.801376,0.824127 1.73544,0.896748 -0.06603,0.07252 -0.0399,0.08629 0.05793,0.03039 0.09784,-0.0559 1.553231,0.456001 3.234222,1.137399 4.205411,1.704731 4.909173,2.002425 6.448367,2.72768 0.73755,0.347545 1.60679,0.739474 1.93161,0.870981 0.33339,0.134911 0.54608,0.311144 0.48838,0.404528 -0.0579,0.09359 -0.0269,0.118907 0.0715,0.05793 0.22546,-0.139366 3.2806,1.564453 3.22362,1.797771 -0.0239,0.09764 0.032,0.131062 0.12397,0.07414 0.22903,-0.141595 1.75807,0.859496 1.62983,1.067007 -0.0604,0.09743 -0.0269,0.119312 0.0806,0.05287 0.10069,-0.06219 0.39869,0.04011 0.662,0.227686 0.41111,0.292751 0.44997,0.377728 0.275,0.601607 -0.18088,0.231353 -0.17359,0.237004 0.065,0.05024 0.23275,-0.182311 0.35358,-0.142405 0.90023,0.296924 0.34726,0.279078 0.61679,0.586778 0.59889,0.683789 -0.0182,0.09703 0.0458,0.162053 0.1414,0.144633 0.0956,-0.01823 0.41128,0.213324 0.70147,0.51274 0.2902,0.299416 0.46951,0.544381 0.3985,0.544381 -0.0711,0 -0.0416,0.105741 0.0658,0.234918 0.10716,0.129239 0.25194,0.199733 0.32161,0.156585 0.18211,-0.112628 1.26719,1.20056 1.14944,1.391055 -0.0541,0.08771 -0.0278,0.115666 0.0585,0.06239 0.21054,-0.130049 0.88254,0.795707 0.74227,1.022664 -0.0658,0.106754 -0.0401,0.135316 0.0638,0.0711 0.37925,-0.234391 4.30278,6.284706 4.03917,6.711236 -0.0638,0.10331 -0.0422,0.13754 0.0508,0.0802 0.20275,-0.12539 1.19902,2.05898 1.08027,2.36846 -0.0472,0.12316 -0.0217,0.18414 0.0568,0.13572 0.18596,-0.11485 1.1737,2.84897 1.05365,3.16181 -0.0504,0.13166 -0.0326,0.20287 0.0397,0.15821 0.14767,-0.0913 0.50652,1.29618 0.91443,3.53578 0.20115,1.10434 0.27541,2.39148 0.28222,4.89077 0.008,3.17585 -0.0121,3.43222 -0.32892,4.02306 -0.18595,0.34709 -0.41414,0.61418 -0.50706,0.59354 -0.093,-0.0207 -0.13187,0.0589 -0.0867,0.17683 0.13045,0.33993 -1.65627,1.64273 -1.97918,1.44316 -0.079,-0.0489 -0.19487,-0.006 -0.25777,0.096 -0.0713,0.11525 -0.0458,0.1424 0.0681,0.0721 0.10007,-0.062 0.18211,-0.0739 0.18211,-0.0265 0,0.13755 -1.07453,0.55263 -2.52427,0.97524 -2.36798,0.6903 -15.58391,2.80363 -23.980594,3.83468 -6.623123,0.81327 -13.711827,1.43216 -20.036425,1.74932 -3.528653,0.17705 -15.581934,0.16894 -19.326464,-0.0121 z M 5.9129103,125.59759 c 0.049912,-0.0808 0.030466,-0.18412 -0.043289,-0.2297 -0.073715,-0.0456 -0.1340392,0.0205 -0.1340392,0.14686 0,0.26601 0.049731,0.28926 0.177328,0.0829 z M 12.685789,97.317505 c -0.04558,-0.07374 -0.148888,-0.09318 -0.229712,-0.04335 -0.206417,0.127618 -0.183122,0.177246 0.08285,0.177246 0.126402,0 0.19244,-0.06037 0.146862,-0.134099 z M 48.595644,81.799258 c 0,-0.02876 -0.137139,-0.04193 -0.304602,-0.02937 -0.167523,0.01216 -0.271764,0.07616 -0.231596,0.140988 0.06664,0.107765 0.536198,0.01008 0.536198,-0.111818 z M 78.72915,80.070887 c 0.107969,-0.130251 0.160839,-0.23666 0.11749,-0.23666 -0.04335,0 -0.167322,0.106551 -0.27527,0.23666 -0.107969,0.130252 -0.160839,0.236641 -0.11749,0.236641 0.04335,0 0.167321,-0.106551 0.27529,-0.236641 z m -18.222104,3.13316 c -2.049056,-0.323359 -5.693497,-1.514398 -5.51544,-1.802491 0.04882,-0.07921 -0.03302,-0.09703 -0.181906,-0.0399 -0.198314,0.07597 -0.236133,0.04801 -0.141595,-0.105133 0.08447,-0.136734 0.06806,-0.17117 -0.0476,-0.09966 -0.251468,0.155369 -1.486626,-0.504152 -1.352,-0.721973 0.06503,-0.105335 0.03747,-0.132074 -0.06887,-0.06624 -0.234087,0.144634 -1.002225,-0.363407 -0.870819,-0.576001 0.05935,-0.09582 0.02573,-0.117895 -0.08001,-0.05247 -0.199732,0.123565 -0.858807,-0.265304 -0.7336,-0.432767 0.04274,-0.05732 0.03261,-0.07069 -0.02269,-0.02998 -0.18069,0.13329 -1.011746,-0.564354 -0.901529,-0.756794 0.05834,-0.101894 0.04923,-0.133695 -0.02026,-0.0711 -0.154965,0.140176 -1.376552,-0.801927 -1.267854,-0.977796 0.04295,-0.06927 -0.04558,-0.222825 -0.19649,-0.341125 -0.251367,-0.197098 -0.256411,-0.18859 -0.06037,0.100475 0.117692,0.173601 -0.290867,-0.21693 -0.907991,-0.86772 -0.617143,-0.65077 -1.08702,-1.275672 -1.044156,-1.388644 0.04295,-0.113033 0.01216,-0.164486 -0.06948,-0.114248 -0.191224,0.118096 -1.473014,-1.76532 -1.343755,-1.97445 0.05408,-0.08751 0.004,-0.13957 -0.110602,-0.115667 -0.303467,0.063 -2.314947,-4.044614 -2.953239,-6.030692 -0.300327,-0.934507 -0.696003,-1.833241 -0.907768,-2.061919 -0.206478,-0.222947 -0.321151,-0.459586 -0.254871,-0.525887 0.06624,-0.06624 0.02309,-0.09682 -0.09622,-0.06786 -0.274622,0.06664 -2.273705,-2.507832 -2.129071,-2.741859 0.05874,-0.09521 0.03788,-0.130454 -0.04619,-0.0784 -0.193654,0.119718 -0.737266,-0.77934 -0.602903,-0.996776 0.0549,-0.08872 0.01621,-0.141798 -0.08711,-0.118097 -0.246262,0.05713 -1.922026,-3.189393 -1.830343,-3.546074 0.0391,-0.151926 0.01008,-0.238929 -0.0634,-0.19325 -0.200137,0.123769 -1.062449,-2.709387 -1.333606,-4.381383 -0.424177,-2.615417 -0.249078,-6.03999 0.38176,-7.466089 0.305533,-0.690737 0.954844,-1.172038 1.581124,-1.172038 0.283372,0 0.324878,-0.102501 0.335533,-0.828281 0.136936,-9.328437 0.299821,-13.386077 0.59405,-14.790663 0.383564,-1.830971 1.008,-3.825152 1.64305,-5.247058 0.416055,-0.931609 0.508303,-1.041158 0.730581,-0.86772 0.221975,0.173197 0.22866,0.165499 0.05247,-0.05996 -0.158003,-0.202162 -0.161446,-0.34714 -0.01621,-0.665557 0.102089,-0.223939 0.241198,-0.372705 0.309301,-0.330631 0.06806,0.04213 0.175222,-0.0061 0.237937,-0.108171 0.07131,-0.115464 0.04578,-0.142405 -0.06806,-0.07211 -0.279301,0.172589 -0.224283,0.02492 0.312381,-0.838367 0.271987,-0.437527 0.566947,-0.750758 0.655448,-0.696065 0.08853,0.05469 0.11749,0.02917 0.06421,-0.05692 -0.136733,-0.221244 0.34937,-0.866261 0.556394,-0.738319 0.09906,0.06118 0.1262,0.03302 0.06462,-0.06685 -0.123364,-0.199529 0.790927,-1.305003 1.035709,-1.252315 0.08995,0.02026 0.186769,-0.104729 0.215189,-0.275979 0.05874,-0.354596 0.519992,-0.746807 0.727421,-0.618602 0.07616,0.047 0.118908,-7.7e-4 0.095,-0.106348 -0.05753,-0.254264 1.786609,-1.752578 2.038178,-1.656034 0.107766,0.04132 0.244742,-0.004 0.304318,-0.100074 0.07009,-0.113438 0.03545,-0.13025 -0.09824,-0.04761 -0.130049,0.08042 -0.168335,0.06563 -0.103108,-0.0395 0.189603,-0.30685 1.524972,-1.00338 1.707446,-0.89061 0.10574,0.06543 0.136733,0.04153 0.07535,-0.05793 -0.281022,-0.454704 4.566348,-2.194986 7.628629,-2.7388 3.529787,-0.6268666 9.725553,-0.5741178 13.003143,0.110602 1.756183,0.366932 3.566067,0.87953 3.497862,0.990679 -0.03423,0.05571 0.132683,0.108374 0.371064,0.116882 0.577745,0.02066 3.52756,1.441271 4.887196,2.353495 1.414654,0.949112 3.040181,2.424415 2.907641,2.638894 -0.05753,0.09298 -0.03018,0.122554 0.06097,0.06624 0.207024,-0.128023 1.34898,1.114448 1.218446,1.325645 -0.05287,0.08548 -0.01216,0.13572 0.08934,0.11202 0.243162,-0.05692 1.287015,1.4388 1.15415,1.653786 -0.05672,0.09176 -0.02775,0.119717 0.06462,0.06259 0.210954,-0.130453 1.193875,1.581326 1.045696,1.821046 -0.06077,0.09845 -0.03748,0.131466 0.05327,0.07556 0.233723,-0.144431 1.186035,2.201042 1.066702,2.627266 -0.06077,0.217133 -0.04558,0.270732 0.04153,0.146457 0.09176,-0.131062 0.248086,0.156989 0.470809,0.86772 0.926425,2.955993 1.121478,4.940187 1.174672,11.94987 0.04578,6.023176 0.05996,6.230828 0.425028,6.23411 0.406899,0.004 1.051449,0.397925 1.003684,0.613943 -0.0239,0.107767 0.02168,0.155774 0.101082,0.106754 0.219057,-0.135316 0.579344,0.517317 0.820116,1.485714 0.308997,1.242897 0.283069,5.586967 -0.04193,7.020621 -0.456588,2.014235 -0.606287,2.459682 -0.78878,2.346892 -0.103107,-0.06381 -0.130454,-0.03626 -0.06664,0.06685 0.05935,0.09622 0.06097,0.362395 0.004,0.59156 -0.08001,0.319166 -0.140176,0.367012 -0.25635,0.204452 -0.110196,-0.154155 -0.124376,-0.128631 -0.05166,0.09338 0.126808,0.386742 -0.518615,2.016159 -0.743465,1.877176 -0.09602,-0.05935 -0.117287,-0.02532 -0.05105,0.08204 0.123567,0.200138 -1.155913,2.73169 -1.327184,2.625849 -0.05774,-0.03566 -0.10493,0.02755 -0.10493,0.140582 0,0.347181 -1.65644,2.623052 -1.830729,2.515327 -0.09014,-0.05571 -0.117084,-0.02552 -0.05976,0.06726 0.05732,0.09258 -0.247679,0.553415 -0.67767,1.0239 -0.662418,0.724788 -0.869341,1.117041 -1.354937,2.56842 -1.304862,3.900062 -3.17501,7.081553 -5.914519,10.061653 -0.611512,0.665233 -1.071605,1.040895 -1.209838,0.987863 -0.126605,-0.04861 -0.180285,-0.01621 -0.123971,0.07474 0.11202,0.181095 -0.205201,0.476683 -1.617546,1.507896 -0.56557,0.412934 -1.061376,0.668778 -1.16819,0.602781 -0.113235,-0.06989 -0.14362,-0.04679 -0.07779,0.05956 0.133289,0.215734 -0.472167,0.561336 -0.717638,0.409633 -0.107159,-0.06624 -0.135518,-0.04031 -0.0705,0.06482 0.063,0.102089 -0.09642,0.281326 -0.381374,0.428695 -0.408256,0.211115 -0.533869,0.218813 -0.754546,0.04619 -0.233682,-0.182716 -0.240995,-0.176638 -0.06219,0.05206 0.179272,0.229469 0.063,0.317221 -1.013832,0.765544 -2.126113,0.885101 -3.993122,1.283552 -6.288157,1.342054 -1.12804,0.02876 -2.26396,0.01823 -2.52428,-0.02248 z M 48.807854,76.593201 c -0.05145,-0.133898 -0.127213,-0.209617 -0.168537,-0.168334 -0.04132,0.04132 -0.02836,0.150913 0.02876,0.243445 0.155572,0.251711 0.246485,0.202812 0.139772,-0.07515 z"
       id="path963"
       inkscape:connector-curvature="0" />
  </g>
</svg>
