<?xml version="1.0" encoding="UTF-8" standalone="no"?>
<!-- Created with Inkscape (http://www.inkscape.org/) -->

<svg
   xmlns:dc="http://purl.org/dc/elements/1.1/"
   xmlns:cc="http://creativecommons.org/ns#"
   xmlns:rdf="http://www.w3.org/1999/02/22-rdf-syntax-ns#"
   xmlns:svg="http://www.w3.org/2000/svg"
   xmlns="http://www.w3.org/2000/svg"
   xmlns:sodipodi="http://sodipodi.sourceforge.net/DTD/sodipodi-0.dtd"
   xmlns:inkscape="http://www.inkscape.org/namespaces/inkscape"
   width="119.94999mm"
   height="132.17818mm"
   viewBox="0 0 119.94999 132.17818"
   version="1.1"
   id="svg8"
   inkscape:version="0.92.2 (5c3e80d, 2017-08-06)"
   sodipodi:docname="2.svg">
  <defs
     id="defs2">
    <inkscape:path-effect
       is_visible="true"
       id="path-effect35"
       effect="spiro" />
  </defs>
  <sodipodi:namedview
     id="base"
     pagecolor="#ffffff"
     bordercolor="#666666"
     borderopacity="1.0"
     inkscape:pageopacity="0.0"
     inkscape:pageshadow="2"
     inkscape:zoom="0.49497475"
     inkscape:cx="438.81634"
     inkscape:cy="164.39054"
     inkscape:document-units="mm"
     inkscape:current-layer="layer1"
     showgrid="false"
     fit-margin-top="0"
     fit-margin-left="0"
     fit-margin-right="0"
     fit-margin-bottom="0"
     inkscape:window-width="1920"
     inkscape:window-height="1001"
     inkscape:window-x="-9"
     inkscape:window-y="-9"
     inkscape:window-maximized="1"
     inkscape:snap-global="false" />
  <metadata
     id="metadata5">
    <rdf:RDF>
      <cc:Work
         rdf:about="">
        <dc:format>image/svg+xml</dc:format>
        <dc:type
           rdf:resource="http://purl.org/dc/dcmitype/StillImage" />
        <dc:title></dc:title>
      </cc:Work>
    </rdf:RDF>
  </metadata>
  <g
     inkscape:label="Layer 1"
     inkscape:groupmode="layer"
     id="layer1"
     transform="translate(-2.6372189,-2.4871326)">
    <path
       style="fill:#8fb82b;stroke:#000000;stroke-width:0.26458332px;stroke-linecap:butt;stroke-linejoin:miter;stroke-opacity:1;fill-opacity:1"
       d="m 19.475199,91.768552 17.105249,-9.087162 28.464206,14.566189 25.657874,-13.096207 14.699822,7.750817 3.74178,34.745041 -29.266018,5.34539 -40.491333,-0.66818 -24.989701,-4.54358 z"
       id="path927"
       inkscape:connector-curvature="0" />
    <path
       style="fill:#323844;fill-opacity:1;stroke:none;stroke-width:1.09955502;stroke-miterlimit:4;stroke-dasharray:none;stroke-opacity:1"
       d="M 181.64349,497.08879 C 132.38249,494.98524 82.29963,488.53961 48.551,479.95986 30.114054,475.27274 8.6930639,467.51978 5.1773446,464.26152 2.8221284,462.07878 2.5907251,461.15348 2.6075648,453.98586 c 0.069498,-29.58129 12.3755722,-69.8865 29.1629432,-95.51532 6.857961,-10.46986 20.038028,-24.02181 29.380821,-30.20982 9.29383,-6.15558 43.419591,-23.05561 68.843091,-34.09302 10.34768,-4.49236 19.05548,-8.16793 19.35068,-8.16793 0.29519,0 2.22741,2.35332 4.29381,5.2296 11.82816,16.46393 29.94427,30.36011 48.08163,36.8816 9.81783,3.53011 31.06107,4.51591 41.33914,1.91836 12.59073,-3.18202 28.98176,-12.27182 39.99513,-22.17967 2.85955,-2.57252 5.70061,-4.6773 6.31346,-4.6773 0.61284,0 1.11426,-0.67548 1.11426,-1.50107 0,-0.82559 2.54008,-4.66704 5.64463,-8.53656 l 5.64462,-7.03549 4.70944,1.87289 c 9.3508,3.71871 43.41287,19.11397 57.77931,26.11489 24.52922,11.95336 37.76979,21.67275 48.74212,35.77975 12.32832,15.85035 21.37501,34.09444 27.55748,55.57399 6.26497,21.7662 10.04498,51.06152 7.26718,56.32107 -5.6762,10.74741 -66.49399,25.83409 -128.05035,31.76463 -35.45499,3.41584 -101.61065,5.12193 -138.13347,3.56233 z m 89.14107,-16.12445 c 30.24393,-0.93561 63.60852,-3.68018 80.8122,-6.6476 23.29095,-4.01741 31.48611,-5.74922 33.58758,-7.09782 2.11711,-1.35864 2.27096,-2.16639 2.24546,-11.78935 -0.015,-5.68192 -0.44203,-14.61881 -0.94883,-19.85976 -1.07075,-11.07271 -3.78759,-16.09643 -10.64055,-19.67548 l -4.04061,-2.11027 H 227.85308 c -162.722177,0 -147.885306,-0.78656 -154.895735,8.21164 -3.277246,4.20648 -3.567164,5.18209 -4.251181,14.30557 -0.697455,9.30275 -0.09646,31.21325 0.883032,32.19275 0.656556,0.65655 18.418096,4.15129 24.418668,4.80459 2.77792,0.30244 8.956496,1.20237 13.730176,1.99986 33.35018,5.57144 95.86998,7.74401 163.04652,5.66587 z M 120.77691,360.37225 c 0,-20.76495 -0.29078,-39.20832 -0.64617,-40.98528 -0.56084,-2.80421 -0.96698,-3.1503 -3.07578,-2.62103 -3.77307,0.94698 -27.254782,12.31641 -28.030785,13.57201 -0.38026,0.61528 -1.573692,1.11868 -2.652071,1.11868 -1.901207,0 -1.960689,1.0113 -1.960689,33.33504 v 33.33503 h 18.182745 18.18275 z m 246.47722,4.56592 v -33.18852 l -8.83884,-4.09691 c -8.72667,-4.04492 -25.99602,-11.3484 -26.83372,-11.3484 -0.74961,0 -1.95322,77.4226 -1.23861,79.67414 0.66196,2.08565 1.20946,2.14822 18.7965,2.14822 h 18.11467 z"
       id="path917"
       inkscape:connector-curvature="0"
       transform="matrix(0.26458333,0,0,0.26458333,2.6372189,2.4871326)" />
    <path
       style="fill:#323844;fill-opacity:1;stroke:none;stroke-width:1.09955502;stroke-miterlimit:4;stroke-dasharray:none;stroke-opacity:1"
       d="m 211.67388,315.41541 c -27.42602,-7.40582 -50.19755,-30.76511 -61.98759,-63.58754 -3.37946,-9.4081 -3.82916,-10.24021 -10.46628,-19.36619 -7.24017,-9.95518 -14.86308,-25.71086 -17.51242,-36.19618 -1.78992,-7.08401 -2.06839,-10.68344 -1.75835,-22.72843 0.32323,-12.55722 0.6529,-14.84985 2.68952,-18.70391 2.19859,-4.16053 2.5174,-4.36823 6.03802,-3.93369 2.04429,0.25233 9.85985,2.08277 17.36791,4.06764 17.58528,4.64896 30.86733,6.49582 57.01346,7.9277 39.24314,2.14913 78.26734,-1.46788 109.62744,-10.16098 9.22312,-2.55668 12.37297,-2.62823 14.38325,-0.32674 3.27553,3.75006 4.28846,9.59827 4.2428,24.4962 -0.0421,13.73395 -0.24361,15.22739 -3.23212,23.95223 -4.14732,12.10799 -8.76701,21.16019 -15.78928,30.93888 -6.80173,9.47156 -7.91302,11.54184 -11.32395,21.09586 -5.74121,16.08116 -16.77093,33.55175 -27.42428,43.43887 -5.68371,5.27491 -17.51169,13.22238 -21.44527,14.40955 -1.38896,0.41919 -3.02905,1.16319 -3.64463,1.65332 -2.33496,1.85914 -17.15449,4.92 -23.53854,4.86172 -3.66132,-0.0334 -9.61918,-0.86066 -13.23969,-1.83831 z"
       id="path919"
       inkscape:connector-curvature="0"
       transform="matrix(0.26458333,0,0,0.26458333,2.6372189,2.4871326)" />
    <path
       style="fill:#8fb82b;fill-opacity:1;stroke:#8fb82b;stroke-width:1.09955502;stroke-miterlimit:4;stroke-dasharray:none;stroke-opacity:1"
       d="m 196.08684,150.20055 c -23.88353,-1.77244 -48.17928,-7.05306 -61.3322,-13.33037 -7.90355,-3.77202 -18.25903,-13.39874 -18.25903,-16.97408 0,-1.68661 1.8778,-4.14912 6.12459,-8.03165 l 6.12458,-5.59927 1.44276,-9.783156 c 3.88333,-26.332383 17.96106,-49.928032 39.17602,-65.662837 4.35388,-3.22921 8.24957,-5.87129 8.65708,-5.87129 0.40751,0 3.64059,12.31019 7.18463,27.355978 3.54403,15.045786 6.96935,28.074851 7.61182,28.953477 0.68038,0.930478 1.86178,1.331316 2.82942,0.959997 2.32139,-0.890799 2.18012,-4.3519 -1.47723,-36.19354 -1.74116,-15.158846 -2.7531,-27.705835 -2.27284,-28.180697 0.47613,-0.47078 4.72754,-1.968514 9.44758,-3.328297 l 8.58188,-2.472331 0.83742,-4.406433 c 0.46057,-2.4235385 1.57222,-4.9746444 2.47032,-5.6691243 2.02819,-1.56834837 23.71105,-1.74545233 26.56699,-0.2169971 1.41133,0.7553151 1.9539,2.1235134 1.9539,4.9270748 0,2.1347598 0.56821,4.2973346 1.26269,4.8057206 0.69448,0.508387 5.19509,2.168553 10.00138,3.689259 l 8.73868,2.764921 -0.40776,3.758034 c -0.22428,2.066919 -1.80595,15.979401 -3.51484,30.916627 -2.78755,24.365742 -2.94829,27.317367 -1.56309,28.702572 1.23975,1.239746 1.84006,1.29826 3.04656,0.296952 0.86954,-0.721657 4.34868,-12.920402 8.25813,-28.955111 3.71555,-15.239445 7.06212,-27.708082 7.43681,-27.708082 1.49527,0 19.02137,15.184346 22.8673,19.811882 12.56028,15.112873 21.10144,33.708701 23.14611,50.39372 1.40489,11.464301 1.27962,11.205041 8.0794,16.721991 3.56153,2.88964 6.72597,5.90657 7.03209,6.7043 1.35648,3.53494 -3.65111,9.26594 -13.01159,14.89127 -18.51317,11.12577 -46.53165,16.36085 -91.97847,17.1856 -12.77843,0.2319 -28.55592,0.0267 -35.06109,-0.45611 z"
       id="path862"
       inkscape:connector-curvature="0"
       transform="matrix(0.26458333,0,0,0.26458333,2.6372189,2.4871326)" />
  </g>
</svg>
