<?xml version="1.0" encoding="UTF-8" standalone="no"?>
<!-- Created with Inkscape (http://www.inkscape.org/) -->

<svg
   xmlns:dc="http://purl.org/dc/elements/1.1/"
   xmlns:cc="http://creativecommons.org/ns#"
   xmlns:rdf="http://www.w3.org/1999/02/22-rdf-syntax-ns#"
   xmlns:svg="http://www.w3.org/2000/svg"
   xmlns="http://www.w3.org/2000/svg"
   xmlns:sodipodi="http://sodipodi.sourceforge.net/DTD/sodipodi-0.dtd"
   xmlns:inkscape="http://www.inkscape.org/namespaces/inkscape"
   width="119.94999mm"
   height="132.17818mm"
   viewBox="0 0 119.94999 132.17818"
   version="1.1"
   id="svg8"
   inkscape:version="0.92.2 (5c3e80d, 2017-08-06)"
   sodipodi:docname="3.svg">
  <defs
     id="defs2">
    <inkscape:path-effect
       is_visible="true"
       id="path-effect35"
       effect="spiro" />
  </defs>
  <sodipodi:namedview
     id="base"
     pagecolor="#ffffff"
     bordercolor="#666666"
     borderopacity="1.0"
     inkscape:pageopacity="0.0"
     inkscape:pageshadow="2"
     inkscape:zoom="0.35"
     inkscape:cx="-157.64632"
     inkscape:cy="392.53755"
     inkscape:document-units="mm"
     inkscape:current-layer="layer1"
     showgrid="false"
     fit-margin-top="0"
     fit-margin-left="0"
     fit-margin-right="0"
     fit-margin-bottom="0"
     inkscape:window-width="1920"
     inkscape:window-height="1001"
     inkscape:window-x="-9"
     inkscape:window-y="-9"
     inkscape:window-maximized="1" />
  <metadata
     id="metadata5">
    <rdf:RDF>
      <cc:Work
         rdf:about="">
        <dc:format>image/svg+xml</dc:format>
        <dc:type
           rdf:resource="http://purl.org/dc/dcmitype/StillImage" />
        <dc:title></dc:title>
      </cc:Work>
    </rdf:RDF>
  </metadata>
  <g
     inkscape:label="Layer 1"
     inkscape:groupmode="layer"
     id="layer1"
     transform="translate(-2.6372189,-2.4871326)">
    <path
       style="fill:#323844;fill-opacity:1;stroke:none;stroke-width:0.41142857;stroke-miterlimit:4;stroke-dasharray:none;stroke-opacity:1"
       d="m 58.439775,83.179545 c -3.126804,-0.840901 -6.389246,-2.752648 -9.176906,-5.37754 -2.950192,-2.777932 -4.424821,-4.944517 -6.150843,-9.037076 -0.685837,-1.626185 -2.228591,-4.398291 -3.428339,-6.160236 -3.557042,-5.223848 -4.806592,-8.724376 -4.855218,-13.601546 -0.03386,-3.396692 0.705763,-5.669643 1.844924,-5.669643 0.306491,0 0.557258,-0.255135 0.557258,-0.566965 0,-0.711282 -0.33387,-0.757465 3.86263,0.5343 6.691289,2.059707 10.446761,2.415267 23.153547,2.192142 11.963921,-0.210085 15.165414,-0.599626 20.766868,-2.526808 2.665754,-0.917154 2.865763,-0.931087 2.865763,-0.199634 0,0.31183 0.250764,0.566965 0.557258,0.566965 0.772414,0 1.62448,1.794812 1.900925,4.004136 0.54692,4.370983 -1.517086,10.518187 -5.326441,15.86367 -0.898308,1.260554 -2.208919,3.656793 -2.912467,5.324972 -1.695148,4.019352 -3.583117,6.793445 -6.440186,9.462911 -5.186852,4.846272 -11.463255,6.738207 -17.218773,5.190352 z"
       id="path864"
       inkscape:connector-curvature="0" />
    <path
       style="fill:#8fb82b;fill-opacity:1;stroke:none;stroke-width:0.41142857;stroke-miterlimit:4;stroke-dasharray:none;stroke-opacity:1"
       d="m 60.567422,119.21222 c -0.959705,-1.71506 -2.248964,-4.1889 -2.865023,-5.4974 -1.110371,-2.35844 -1.115422,-2.39948 -0.581297,-4.72471 0.296344,-1.29007 0.79452,-3.23856 1.107059,-4.32997 l 0.568251,-1.98438 h 3.533934 c 2.477756,0 3.658507,0.15011 3.950755,0.50225 0.229254,0.27623 0.832747,2.26216 1.341094,4.41317 l 0.924271,3.91094 -1.141902,2.2959 c -1.841158,3.70181 -4.586716,8.5325 -4.849508,8.5325 -0.133495,0 -1.02793,-1.40323 -1.987634,-3.1183 z"
       id="path866"
       inkscape:connector-curvature="0" />
    <path
       style="fill:#8fb82b;fill-opacity:1;stroke:none;stroke-width:0.41142857;stroke-miterlimit:4;stroke-dasharray:none;stroke-opacity:1"
       d="m 58.214381,99.179484 c -0.665916,-2.869848 -1.32897,-6.512351 -1.32897,-7.300751 v -0.920229 h 5.722292 5.722292 l -0.214104,1.795386 c -0.117755,0.987462 -0.49526,3.028534 -0.838896,4.535715 L 66.6522,100.02993 h -4.120239 c -3.96239,0 -4.127802,-0.03258 -4.31758,-0.850446 z"
       id="path868"
       inkscape:connector-curvature="0" />
    <path
       style="fill:#323844;fill-opacity:1;stroke:none;stroke-width:0.41142857;stroke-miterlimit:4;stroke-dasharray:none;stroke-opacity:1"
       d="M 44.412199,133.83945 C 30.530686,132.54444 12.43976,129.85924 7.6741084,128.38648 6.0354071,127.88006 4.7197042,127.18107 3.9427869,126.40415 L 2.74271,125.20408 2.930793,120.08203 c 0.1618908,-4.40875 0.350123,-5.6063 1.3516725,-8.59947 1.4167316,-4.23396 2.2027062,-5.82992 4.8296279,-9.80681 3.2098336,-4.859369 6.7206106,-7.863675 12.6946076,-10.86327 4.470308,-2.244579 20.001239,-9.033787 20.176009,-8.819766 0.03744,0.04584 0.60479,2.464599 1.260785,5.375016 2.495661,11.072317 5.433557,19.66395 8.982762,26.26934 2.09535,3.89963 6.842411,11.0713 8.443902,12.7567 2.045896,2.1531 2.803041,1.69142 6.973578,-4.25223 6.7618,-9.6366 10.682827,-19.22944 14.213628,-34.77381 0.661085,-2.910417 1.241481,-5.338059 1.289775,-5.394759 0.0483,-0.0567 1.260393,0.423214 2.693546,1.066482 1.433158,0.643266 5.072033,2.194161 8.086391,3.446434 9.090913,3.776694 14.104843,6.510221 17.067333,9.304879 5.18843,4.894504 8.79171,11.187744 10.54278,18.413274 0.83339,3.43886 0.99879,9.78664 0.29522,11.33078 -0.55345,1.21472 -2.16267,2.21338 -4.84878,3.00912 -3.99256,1.18276 -19.719898,3.58327 -32.505956,4.96148 -7.927557,0.85451 -32.307487,1.05777 -40.065475,0.33403 z"
       id="path870"
       inkscape:connector-curvature="0" />
    <path
       style="fill:#8fb82b;fill-opacity:1;stroke:#8fb82b;stroke-width:1.09955502;stroke-miterlimit:4;stroke-dasharray:none;stroke-opacity:1"
       d="m 196.08684,150.20055 c -23.88353,-1.77244 -48.17928,-7.05306 -61.3322,-13.33037 -7.90355,-3.77202 -18.25903,-13.39874 -18.25903,-16.97408 0,-1.68661 1.8778,-4.14912 6.12459,-8.03165 l 6.12458,-5.59927 1.44276,-9.783156 c 3.88333,-26.332383 17.96106,-49.928032 39.17602,-65.662837 4.35388,-3.22921 8.24957,-5.87129 8.65708,-5.87129 0.40751,0 3.64059,12.31019 7.18463,27.355978 3.54403,15.045786 6.96935,28.074851 7.61182,28.953477 0.68038,0.930478 1.86178,1.331316 2.82942,0.959997 2.32139,-0.890799 2.18012,-4.3519 -1.47723,-36.19354 -1.74116,-15.158846 -2.7531,-27.705835 -2.27284,-28.180697 0.47613,-0.47078 4.72754,-1.968514 9.44758,-3.328297 l 8.58188,-2.472331 0.83742,-4.406433 c 0.46057,-2.4235385 1.57222,-4.9746444 2.47032,-5.6691243 2.02819,-1.56834837 23.71105,-1.74545233 26.56699,-0.2169971 1.41133,0.7553151 1.9539,2.1235134 1.9539,4.9270748 0,2.1347598 0.56821,4.2973346 1.26269,4.8057206 0.69448,0.508387 5.19509,2.168553 10.00138,3.689259 l 8.73868,2.764921 -0.40776,3.758034 c -0.22428,2.066919 -1.80595,15.979401 -3.51484,30.916627 -2.78755,24.365742 -2.94829,27.317367 -1.56309,28.702572 1.23975,1.239746 1.84006,1.29826 3.04656,0.296952 0.86954,-0.721657 4.34868,-12.920402 8.25813,-28.955111 3.71555,-15.239445 7.06212,-27.708082 7.43681,-27.708082 1.49527,0 19.02137,15.184346 22.8673,19.811882 12.56028,15.112873 21.10144,33.708701 23.14611,50.39372 1.40489,11.464301 1.27962,11.205041 8.0794,16.721991 3.56153,2.88964 6.72597,5.90657 7.03209,6.7043 1.35648,3.53494 -3.65111,9.26594 -13.01159,14.89127 -18.51317,11.12577 -46.53165,16.36085 -91.97847,17.1856 -12.77843,0.2319 -28.55592,0.0267 -35.06109,-0.45611 z"
       id="path862"
       inkscape:connector-curvature="0"
       transform="matrix(0.26458333,0,0,0.26458333,2.6372189,2.4871326)" />
  </g>
</svg>
