<svg xmlns="http://www.w3.org/2000/svg" width="32" height="32" viewBox="0 0 8.4666668 8.4666666"><g transform="translate(-263.107 -240.311)"><flowRoot xml:space="preserve" style="line-height:1.25" transform="translate(-83.87 -175.735)" font-style="normal" font-weight="400" font-size="192" font-family="sans-serif" letter-spacing="0" word-spacing="0" fill="#000" fill-opacity="1" stroke="none"><flowRegion font-size="192"><path d="M48.571 157.987h1002.857v384.286H48.571z"/></flowRegion><flowPara/></flowRoot><path d="M264.733 248.653a.92.92 0 0 1-.103-.13l.02-.099c.017-.083.017-.091-.007-.109-.035-.025-.09-.014-.22.045l-.104.048-.036-.032a2.27 2.27 0 0 1-.365-.489l-.05-.09.072-.14a.848.848 0 0 0 .072-.168.898.898 0 0 0-.061-.166c-.094-.21-.116-.285-.094-.32.087-.14.67-.854 1.187-1.45.66-.765.735-.854.735-.87 0-.007-.053-.107-.118-.225-.544-.977-1.056-2.127-1.216-2.73l-.034-.129.094-.126c.051-.069.151-.186.222-.259l.129-.133.094.076c.052.041.104.09.116.108.015.024.035.033.07.033.062 0 .11-.06.134-.17.043-.198.09-.27.201-.317.067-.028.115-.028.168 0 .093.048.16.132.341.422.466.748 1.211 1.854 1.242 1.843.006-.002.181-.189.39-.414 1.075-1.167 2.258-2.34 2.36-2.34a.17.17 0 0 1 .067.032c.068.048.28.25.323.308l.039.052-.028.055a.271.271 0 0 0-.028.072c0 .024.183.174.211.174a.63.63 0 0 0 .095-.02l.072-.019.122.18c.067.098.122.187.122.196 0 .028-.05.12-.106.192-.041.054-.05.075-.042.108.008.038-.016.067-.379.44a34.808 34.808 0 0 0-2.074 2.327 3.51 3.51 0 0 0-.106.135c0 .008.61.802.854 1.112.305.386.632.78.778.936l.103.11-.016.067a.872.872 0 0 1-.223.414c-.03.028-.121.105-.203.171-.194.158-.186.148-.163.226l.02.065-.104.107c-.099.101-.23.193-.276.193a.929.929 0 0 1-.167-.105c-.09-.065-.154-.102-.164-.096a.84.84 0 0 0-.09.093c-.13.15-.328.306-.388.306-.052 0-.104-.042-.228-.181-.255-.29-.434-.527-.803-1.066-.102-.15-.23-.333-.285-.408l-.1-.136-.057.08c-.03.043-.241.32-.467.616-.227.295-.605.803-.84 1.127l-.428.59h-.087l-.087-.002z" fill="#fecfcf"/><path d="M264.736 248.652l-.113-.124.027-.085c.053-.17.011-.18-.274-.07l-.067.027-.058-.056a2.326 2.326 0 0 1-.278-.37c-.113-.178-.112-.171-.038-.3.092-.157.093-.18.017-.356a3.435 3.435 0 0 1-.087-.221l-.025-.074.294-.378c.161-.207.58-.709.93-1.114.35-.405.657-.762.681-.792l.044-.056-.127-.226c-.468-.833-.974-1.948-1.172-2.58-.086-.276-.087-.267.026-.416.053-.069.15-.183.217-.252l.12-.126.085.069a1.9 1.9 0 0 1 .128.113c.086.087.172.022.212-.161.041-.187.102-.27.222-.302.142-.038.243.049.457.397.33.535.799 1.244 1.132 1.714l.128.18.392-.424c.925-1.003 1.995-2.078 2.279-2.293l.078-.059.05.028c.029.015.124.097.212.183.167.163.183.193.138.253a.104.104 0 0 0-.021.05c0 .024.074.1.155.16.048.034.053.034.114.016a.467.467 0 0 1 .087-.02c.024 0 .266.333.266.367a.522.522 0 0 1-.102.182c-.044.06-.055.084-.049.115.007.036-.022.07-.326.384a38.06 38.06 0 0 0-1.96 2.177l-.256.318c-.016.024.016.071.323.472.647.845 1.069 1.366 1.292 1.598l.104.108-.023.09a.956.956 0 0 1-.156.326 1.863 1.863 0 0 1-.216.2c-.232.188-.23.186-.21.267l.014.067-.104.107c-.099.1-.225.19-.27.19a.602.602 0 0 1-.127-.08 2.496 2.496 0 0 0-.15-.107l-.043-.024-.174.173c-.204.201-.294.256-.365.221-.05-.025-.216-.206-.406-.444a11.623 11.623 0 0 1-.557-.77 14.29 14.29 0 0 0-.394-.555c-.005-.006-.037.029-.072.078-.034.048-.247.33-.473.625-.227.295-.602.8-.835 1.12l-.422.583h-.16z" fill="#feafaf"/><path d="M264.74 248.654l-.11-.121.016-.066.024-.096a.055.055 0 0 0-.015-.054c-.032-.031-.105-.02-.23.036-.05.023-.103.038-.117.033-.044-.014-.165-.158-.288-.344-.15-.224-.155-.239-.12-.3a.882.882 0 0 0 .112-.253.629.629 0 0 0-.05-.148 3.26 3.26 0 0 1-.086-.215l-.035-.102.289-.372c.159-.204.58-.71.937-1.122.357-.413.666-.773.686-.8l.037-.049-.091-.161c-.535-.946-1.13-2.278-1.256-2.814l-.025-.107.099-.134c.054-.073.153-.19.218-.258l.12-.126.103.091c.177.156.16.146.218.12.056-.027.08-.076.108-.213.02-.1.07-.192.124-.231.06-.042.154-.064.203-.046.102.035.163.11.404.494.357.57 1.002 1.537 1.179 1.765l.024.032.323-.35c.898-.973 2.06-2.144 2.343-2.363l.082-.063.049.027c.069.037.372.334.372.364 0 .014-.012.05-.027.08-.033.065-.03.069.095.168l.088.07.074-.02c.04-.01.082-.019.091-.019a1 1 0 0 1 .139.178c.14.206.14.195.027.355-.05.072-.063.103-.058.13.007.034-.031.078-.334.391a36.431 36.431 0 0 0-2.036 2.273l-.194.239.039.05c.687.912 1.362 1.756 1.59 1.99l.113.114-.024.09c-.055.215-.143.339-.381.533-.224.183-.224.183-.203.261l.017.065-.12.119a.934.934 0 0 1-.186.151c-.077.037-.061.043-.263-.101a1.227 1.227 0 0 0-.122-.082c-.004 0-.083.075-.174.167-.175.177-.287.253-.345.236-.045-.014-.132-.1-.3-.297-.211-.248-.365-.456-.7-.947-.243-.356-.385-.547-.396-.534a61.15 61.15 0 0 0-1.35 1.802l-.438.605h-.158l-.11-.121z" fill="#fe9090"/><path d="M264.74 248.653l-.111-.122.024-.09c.032-.124.018-.153-.069-.141a.771.771 0 0 0-.16.053l-.1.044-.05-.037c-.086-.066-.362-.458-.384-.545-.007-.024.01-.068.057-.157a.546.546 0 0 0 .065-.167.676.676 0 0 0-.057-.172 2.451 2.451 0 0 1-.112-.29c0-.003.132-.175.295-.384.162-.208.573-.7.913-1.092.34-.393.646-.75.68-.793l.06-.08-.098-.175c-.542-.962-1.126-2.275-1.256-2.823-.018-.074-.018-.075.032-.149.06-.091.169-.223.29-.35l.09-.097.043.03c.024.018.084.069.133.115.088.083.09.083.14.067.06-.02.096-.082.118-.205.032-.169.104-.26.227-.288.047-.01.074-.01.11.005.105.044.156.106.366.444.33.53 1.126 1.722 1.221 1.83.006.006.165-.156.354-.36a48.663 48.663 0 0 1 1.59-1.651c.477-.47.672-.651.773-.719l.054-.035.056.04c.095.064.353.324.353.354a.189.189 0 0 1-.028.072c-.015.025-.024.056-.02.067.008.019.152.14.199.168.008.005.047 0 .084-.012a.56.56 0 0 1 .087-.021.98.98 0 0 1 .14.183l.121.183-.03.062a.683.683 0 0 1-.08.12c-.048.056-.056.08-.046.133.003.015-.122.154-.343.381-.75.773-1.51 1.624-2.06 2.307-.089.11-.154.202-.148.211.005.009.156.207.335.44.641.839 1.068 1.366 1.275 1.578l.119.12-.03.105c-.063.229-.126.313-.41.546-.1.083-.182.156-.182.164 0 .007.007.041.015.075l.016.062-.111.112a.925.925 0 0 1-.187.15l-.077.04-.065-.047c-.19-.135-.24-.169-.252-.169a.828.828 0 0 0-.123.12c-.165.182-.331.302-.392.283-.11-.035-.512-.53-.93-1.145-.205-.3-.45-.643-.46-.643a63.319 63.319 0 0 0-1.385 1.849l-.41.567h-.078l-.079.001z" fill="#fe6f6f"/><path d="M264.754 248.665a2.168 2.168 0 0 1-.11-.126c-.006-.01 0-.058.014-.108.02-.079.021-.095.004-.115-.027-.033-.12-.02-.24.037-.092.042-.097.043-.132.02-.076-.05-.378-.47-.4-.557-.006-.023.01-.07.057-.157a.544.544 0 0 0 .065-.17.604.604 0 0 0-.05-.16 3.228 3.228 0 0 1-.084-.21l-.033-.094.282-.364c.155-.2.573-.701.932-1.116.358-.414.67-.777.692-.808l.041-.056-.149-.268a23.326 23.326 0 0 1-.718-1.44c-.304-.69-.527-1.322-.49-1.39.027-.05.19-.253.299-.372l.115-.125.08.063c.045.036.102.086.126.114.048.054.07.059.13.028.048-.025.082-.093.101-.203.03-.171.132-.282.263-.287.124-.005.201.076.446.469.25.4.502.79.686 1.06.244.359.53.763.539.762.004 0 .151-.158.326-.349.874-.954 2.096-2.184 2.365-2.38.031-.022.064-.035.08-.03.042.01.344.29.374.347.027.049.027.05-.004.101-.038.066-.03.082.09.176l.092.073.086-.022a.344.344 0 0 1 .092-.017c.003.003.06.084.125.179.134.196.134.195.041.323l-.069.096a.06.06 0 0 0-.009.064c.012.03-.016.063-.314.37a37.525 37.525 0 0 0-2.127 2.381c-.073.09-.113.152-.106.163.006.01.144.192.307.406.615.805 1.138 1.452 1.328 1.64l.093.094-.021.083a.987.987 0 0 1-.18.356c-.032.035-.14.13-.24.212-.198.161-.191.15-.158.265.018.065-.305.346-.372.323a.382.382 0 0 1-.073-.046 1.946 1.946 0 0 0-.235-.157c-.006 0-.078.07-.16.154-.09.091-.185.174-.237.205-.084.05-.09.052-.134.033a.798.798 0 0 1-.16-.145c-.263-.29-.462-.556-.877-1.165a12.939 12.939 0 0 0-.238-.339l-.1-.133-.028.04-.457.6c-.235.308-.626.834-.87 1.17l-.441.61-.078.001h-.078l-.1-.109z" fill="#fe4e4e"/><path d="M264.769 248.68c-.148-.164-.14-.144-.111-.25.02-.075.02-.094.006-.113-.029-.034-.096-.026-.226.027l-.118.049-.04-.032c-.095-.074-.395-.504-.395-.565 0-.015.023-.066.051-.112a.805.805 0 0 0 .07-.147c.019-.061.018-.066-.038-.193a3.784 3.784 0 0 1-.09-.224l-.032-.093.286-.37c.158-.203.563-.69.901-1.08.338-.39.649-.75.69-.8l.075-.091-.025-.044c-.516-.888-1.117-2.204-1.303-2.855l-.05-.177.046-.068c.067-.097.18-.236.285-.35.089-.096.092-.098.128-.08.02.011.08.06.131.11.1.094.132.106.187.068.042-.03.067-.082.087-.183.037-.19.12-.288.254-.3.137-.014.199.05.482.505.404.648 1.174 1.789 1.2 1.778.006-.002.175-.182.376-.4.92-.997 2.05-2.133 2.316-2.327.05-.037.057-.038.093-.02.052.027.306.261.35.323l.035.049-.03.06c-.017.032-.028.067-.024.078.004.01.052.054.107.099l.1.08.086-.023a.298.298 0 0 1 .093-.018c.003.004.06.086.124.182.141.208.143.184-.031.421-.013.017-.014.036-.006.059.012.03-.02.067-.365.422a35.256 35.256 0 0 0-2.047 2.292 2.67 2.67 0 0 0-.144.187c0 .012.63.835.909 1.187.277.35.534.66.693.833l.127.139-.018.08a.938.938 0 0 1-.163.339 2.764 2.764 0 0 1-.235.21 1.75 1.75 0 0 0-.192.17.192.192 0 0 0 .007.079c.015.058.015.059-.063.148-.088.1-.23.202-.281.202a.633.633 0 0 1-.17-.099.99.99 0 0 0-.153-.098c-.024 0-.036.011-.135.124-.096.11-.212.206-.305.254-.079.04-.115.021-.248-.126-.24-.265-.472-.572-.812-1.072a8.316 8.316 0 0 0-.409-.566.511.511 0 0 0-.06.074c-.03.041-.219.29-.421.554-.203.263-.582.772-.842 1.13l-.475.652-.077.004-.077.003z" fill="#fe2e2e"/><path d="M264.796 248.701c-.039-.04-.09-.096-.115-.124l-.046-.05.024-.088c.029-.107.017-.135-.058-.142a.396.396 0 0 0-.168.046l-.116.05-.076-.074c-.074-.073-.33-.441-.348-.5-.006-.02.015-.073.064-.168.083-.16.083-.161 0-.345-.085-.188-.108-.268-.086-.303.087-.14.67-.854 1.187-1.45.651-.754.735-.854.735-.87a2.72 2.72 0 0 0-.104-.196c-.537-.956-1.065-2.139-1.232-2.757l-.034-.126.052-.072c.09-.124.21-.266.298-.353l.085-.083.082.067a.974.974 0 0 1 .116.108c.04.05.095.054.148.013.039-.031.069-.103.094-.227.03-.146.118-.239.24-.25.06-.006.077-.001.13.035.092.064.106.083.315.417.467.747 1.2 1.834 1.236 1.834.006 0 .176-.18.377-.399.74-.803 1.3-1.38 1.841-1.894.362-.344.5-.463.536-.463.012 0 .052.021.088.048.07.051.326.31.326.33a.234.234 0 0 1-.028.057.196.196 0 0 0-.028.065c0 .02.066.085.159.155l.053.04.088-.022c.068-.016.09-.018.098-.005.005.01.058.087.117.172a.824.824 0 0 1 .107.186c0 .03-.074.15-.13.213-.021.023-.026.041-.02.072.01.04-.008.061-.31.373a37.348 37.348 0 0 0-1.975 2.195 3.382 3.382 0 0 0-.262.342c.005.022.483.65.844 1.108.312.396.649.801.785.944l.098.104-.023.09c-.054.207-.137.326-.339.489-.08.065-.172.142-.204.172l-.06.054.02.066.02.066-.074.078a.903.903 0 0 1-.175.156c-.103.073-.12.07-.276-.042a.87.87 0 0 0-.158-.1c-.011 0-.099.079-.195.174-.253.252-.311.27-.44.133-.252-.269-.48-.566-.86-1.122-.17-.25-.374-.537-.407-.573-.005-.006-.037.029-.072.077-.034.049-.247.33-.473.626-.227.295-.605.803-.84 1.127l-.428.59h-.066c-.062 0-.071-.005-.137-.074z" fill="#fe0000"/></g></svg>