<svg xmlns="http://www.w3.org/2000/svg" width="504" height="395.995" viewBox="0 0 133.34999 104.77357"><path d="M39.562 104.457c-1.8-.348-3.151-1.369-4.17-3.15l-.815-1.426-.006-41c-.007-44.816-.12-42.448 2.147-44.357 1.866-1.57 6.217-2.344 7.268-1.293.267.267.438 1.564.438 3.315 0 2.692.069 2.944 1.068 3.943l1.067 1.068h21.779c14.238 0 22.021-.13 22.48-.376 1.23-.658 1.806-2.328 1.806-5.227 0-3.049.105-3.172 2.678-3.145 1.813.019 4.018.752 5.066 1.684.417.37 1.06 1.33 1.429 2.134.638 1.39.67 3.448.678 42.122.008 38.966-.02 40.726-.676 42.209-1.029 2.326-2.499 3.185-6.027 3.523-3.757.36-54.338.339-56.21-.023zm58.255-4.677l.832-.832V29.245l-.832-.832-.832-.831H39.98l-.891 1.036-.892 1.036.034 8.964c-.405 13.342.008 27.114.004 38.343-.018 22.579-.03 22.428 1.815 23.368.711.363 6.91.443 28.92.372l28.016-.09.832-.831zm-51.502-6.742l.117-.825h21.544c21.3 0 21.544.008 21.544.73s-.275.732-21.66.825l-21.662.094zm0-10.955l.117-.824h21.544c21.3 0 21.544.008 21.544.73 0 .721-.275.732-21.66.825l-21.662.094zm.059-10.705c-.122-.316-.067-.73.122-.919.21-.209 8.702-.306 21.684-.249 21.065.093 21.34.104 21.34.825 0 .72-.275.731-21.463.824-19.252.085-21.486.035-21.684-.48zm0-10.954c-.122-.317-.067-.73.122-.92.21-.208 8.702-.306 21.684-.249 21.065.093 21.34.104 21.34.825 0 .72-.275.732-21.463.825-19.252.084-21.486.035-21.684-.481zm.122-10.626c-.135-.136-.246-.55-.246-.919 0-.646.83-.669 21.635-.578 21.36.093 21.635.103 21.635.824s-.275.732-21.389.825c-11.764.052-21.5-.017-21.635-.152zm0-10.955c-.135-.135-.246-.549-.246-.918 0-.647.83-.67 21.635-.579 21.36.093 21.635.104 21.635.825 0 .72-.275.731-21.389.824-11.764.052-21.5-.016-21.635-.152zM37.01 53.058c4.109-210.27 2.054-105.136 0 0zm10.154-32.206c-2.057-.858-2.95-4.197-2.034-7.6.54-2.002 1.35-2.426 5.067-2.65l3.033-.183.875-2.158C56.193 3.112 61.611.013 68.524.013c6.972 0 12.607 3.302 14.553 8.528l.7 1.878 2.506.093c5.1.19 5.61.679 5.61 5.39 0 3.114-.062 3.395-.941 4.222l-.943.885-21.058.074c-11.582.04-21.387-.063-21.788-.23zm22.413-11.02c2.322-.81 2.823-3.904.879-5.433-1.354-1.065-2.875-.943-4.15.333-1.992 1.991-1.142 4.242 2.073 5.49.02.009.56-.167 1.198-.39z" fill="#333945" stroke-width=".365"/></svg>