<svg xmlns="http://www.w3.org/2000/svg" xmlns:xlink="http://www.w3.org/1999/xlink" width="1670.966" height="1399.551" viewBox="0 0 442.10974 370.29782"><defs><linearGradient id="b"><stop offset="0" stop-color="#3e4558"/><stop offset="1" stop-color="#9199b1"/></linearGradient><linearGradient id="a"><stop offset="0" stop-color="#55d400"/><stop offset="1" stop-color="#004600" stop-opacity=".779"/></linearGradient><linearGradient xlink:href="#b" id="q" x1="342.9" y1="-113.633" x2="235.548" y2="-149.426" gradientUnits="userSpaceOnUse" gradientTransform="translate(-193.423 281.19)"/><linearGradient xlink:href="#b" id="c" x1="279.043" y1="-100.757" x2="171.072" y2="-138.174" gradientUnits="userSpaceOnUse" gradientTransform="translate(-193.423 281.19)"/><linearGradient xlink:href="#b" id="h" x1="506.353" y1="-178.409" x2="478.651" y2="-181.584" gradientUnits="userSpaceOnUse" gradientTransform="translate(-193.423 281.19)"/><linearGradient xlink:href="#b" id="m" x1="348.658" y1="73.214" x2="321.98" y2="72.156" gradientUnits="userSpaceOnUse"/><linearGradient xlink:href="#b" id="d" x1="292.521" y1="87.123" x2="269.018" y2="82.89" gradientUnits="userSpaceOnUse"/><linearGradient xlink:href="#b" id="n" gradientUnits="userSpaceOnUse" x1="348.658" y1="73.214" x2="321.98" y2="70.039"/><linearGradient xlink:href="#b" id="o" gradientUnits="userSpaceOnUse" x1="348.658" y1="73.214" x2="322.509" y2="67.922"/><linearGradient xlink:href="#b" id="f" gradientUnits="userSpaceOnUse" x1="292.521" y1="87.123" x2="269.579" y2="81.019"/><linearGradient xlink:href="#b" id="g" gradientUnits="userSpaceOnUse" x1="273.438" y1="78.704" x2="270.14" y2="79.335"/><linearGradient xlink:href="#b" id="p" gradientUnits="userSpaceOnUse" x1="340.239" y1="73.027" x2="321.98" y2="72.156"/><linearGradient xlink:href="#b" id="i" x1="475.073" y1="91.761" x2="452.639" y2="91.387" gradientUnits="userSpaceOnUse"/><linearGradient xlink:href="#b" id="r" x1="475.634" y1="92.322" x2="459.936" y2="90.638" gradientUnits="userSpaceOnUse"/><linearGradient xlink:href="#b" id="j" gradientUnits="userSpaceOnUse" x1="475.073" y1="91.761" x2="453.201" y2="89.142"/><linearGradient xlink:href="#b" id="s" gradientUnits="userSpaceOnUse" x1="475.634" y1="92.322" x2="459.936" y2="90.638"/><linearGradient xlink:href="#b" id="t" gradientUnits="userSpaceOnUse" x1="475.634" y1="92.322" x2="459.936" y2="90.638"/><linearGradient xlink:href="#b" id="u" gradientUnits="userSpaceOnUse" x1="475.634" y1="92.322" x2="459.936" y2="90.638"/><linearGradient xlink:href="#b" id="k" gradientUnits="userSpaceOnUse" x1="475.073" y1="91.761" x2="452.639" y2="91.387"/><linearGradient xlink:href="#b" id="l" gradientUnits="userSpaceOnUse" x1="475.073" y1="91.761" x2="452.639" y2="91.387"/><linearGradient xlink:href="#b" id="e" gradientUnits="userSpaceOnUse" x1="292.521" y1="87.123" x2="269.018" y2="82.89"/></defs><path d="M63.436 114.774c-7.81-.607-42.263 3.434-39.147 8.31 2.271 53.783-2.826 100.498-20.64 153.053h121.84c-13.292-45.39-23.789-97.291-20.141-153.384.109-.203-.025.305-.02.099 2.816-4.905-34.075-8.906-41.892-8.078z" fill="url(#c)" stroke="#000" stroke-width=".5" transform="translate(-3.246 -20.943)"/><g transform="translate(-95 63.163)" fill="url(#d)" stroke-width=".5" stroke="#000"><path d="M291.587 37.724a8.53 4.608 0 0 0-8.529 4.602h-.028v3.967l-4.006 93.615h25.187l-3.969-93.954h-.097v-3.628h-.028a8.53 4.608 0 0 0-8.53-4.602z" fill="url(#e)"/><path d="M291.806 33.28a11.114 2.153 0 0 0-11.114 2.154 11.114 2.153 0 0 0 .028.104h-.076v5.188h.067a11.114 2.153 0 0 0-.019.102 11.114 2.153 0 0 0 2.658 1.393 11.114 2.153 0 0 1 8.456-.757 11.114 2.153 0 0 1 8.454.76 11.114 2.153 0 0 0 2.66-1.396 11.114 2.153 0 0 0-.027-.102h.005v-5.079h-.037a11.114 2.153 0 0 0 .059-.213 11.114 2.153 0 0 0-11.113-2.154z" fill="url(#f)"/><path d="M291.697 39.853a11.114 1.439 0 0 0-11.114 1.438 11.114 1.439 0 0 0 2.659.931 11.114 1.439 0 0 1 8.455-.505 11.114 1.439 0 0 1 8.455.507 11.114 1.439 0 0 0 2.658-.933 11.114 1.439 0 0 0-11.113-1.438z" fill="url(#g)"/></g><path d="M.403 255.193l52.616 3.9-.336-91.038L.25 172.528z" fill="#606f82" stroke="#000" stroke-width=".5"/><path d="M308.527 21.194a3.333 10.59 89.668 0 0-10.57 3.386h-.054l-8.523 171.662 39.504.82-9.905-172.038a3.333 10.59 89.668 0 0 .158-.559 3.333 10.59 89.668 0 0-10.61-3.271z" fill="url(#h)" stroke="#000" stroke-width=".5" transform="translate(-3.246 -20.943)"/><g fill="#4e596b" stroke="#000" stroke-width="2.072"><path d="M92.197-6.433l-77.924 10v-95l77.924 50z" fill="#586375" transform="matrix(.2433 0 0 .23941 292.418 134.715)"/><path d="M14.273-91.433L-88.225-75.599l.902 71.666 101.596 7.5z" fill="#707d8e" transform="matrix(.2433 0 0 .23941 292.418 134.715)"/></g><path d="M393.029 134.389l8.757.672-.11-14.734-8.741-.36zm-1.155-.02l9.782.557v-15.502l-9.844-.437zm-11.551-.929l8.745.65-.109-14.265-8.73-.347zm-1.153-.02l9.768.54v-15.009l-9.83-.423zm-11.037-.66l8.672.64-.108-14.032-8.656-.342zm-1.143-.02l9.686.532v-14.764l-9.747-.417zm-10.974-.748l8.694.63-.108-13.798-8.679-.336zm-1.146-.02l9.711.523v-14.517l-9.772-.409zm38.124-15.805l8.737.595.017-16.026-8.873.175zm-1.169 0l9.851.471.05-16.863-10.034.083zm-11.502-.656l8.634.565.017-15.223-8.768.166zm-1.154 0l9.734.448.05-16.019-9.917.079zm-11.011-.432l8.582.552.016-14.868-8.714.162zm-1.148.001l9.676.437.05-15.646-9.857.077zm-11.067-.56l8.514.531.016-14.326-8.645.156zm-1.138 0l9.599.421.049-15.075-9.779.074zm38.176-18.066l8.868.094-.16-15.18-8.756.604zm-1.13-.086l9.863.061.119-16.262-10.051.792zm-11.584.158l8.84.089-.16-14.511-8.727.578zm-1.125-.083l9.83.059.118-15.546-10.018.758zm-11.082.095l8.687.084-.157-13.788-8.576.55zm-1.105-.079l9.66.056.116-14.772-9.845.72zm-10.957.147l8.64.082-.157-13.343-8.529.532zm-1.1-.076l9.608.054.115-14.294-9.79.697zm-10.679 34.822l8.397.505-.104-13.658-8.383-.332zm-1.107-.137l9.38.517v-14.37l-9.44-.405zm1.246-17.074l8.277.518.016-13.962-8.405.152zm-1.107 0l9.332.41.048-14.692-9.506.072zm.8-17.18l8.456-.255-.127-12.664-8.442.424zm-1.111-.046l9.42-.263V83.197l-9.548.412zm49.92-19.842l9.16-.814-.139-14.121-9.142 1zm-1.203.018l10.202-.884v-15.01l-10.34 1.056zm-11.412.844l8.996-.788-.136-13.66-8.98.968zm-1.183.017l10.022-.855v-14.52l-10.157 1.021zm-11.068.866l9.054-.775-.137-13.445-9.037.953zm-1.19.017l10.086-.84V63.701l-10.222 1.006zm-11.006 1.009l8.897-.757-.135-13.128-8.88.93zm-1.17.017l9.911-.822V65.083l-10.045.983zm-10.394.97l8.42-.724-.127-12.552-8.405.89zm-1.106.015l9.379-.785V66.718l-9.506.939z" fill="#ac9d93" stroke="#000" transform="matrix(1.0429 -.0627 0 1.07883 -130.353 87.518)" stroke-width=".471"/><path d="M393.825 206.62l-77.924 10v-95l77.924 38.027z" fill="#4e5a6a" stroke="#000" stroke-width=".5"/><path d="M386.397 168.046l-11.044-4.766v-9.762l11.044 5.435z" fill="#17202f" stroke="#000" stroke-width=".5"/><path d="M385.814 167.787l-10.47-4.471v-9.192l10.47 5.1z" fill="#2f3947" stroke="#000" stroke-width=".5"/><g transform="translate(-84.416 63.692)" fill="url(#i)" stroke-width=".5" stroke="#000"><path d="M474.353 67.4a8.53 2.4 0 0 0-8.529 2.397h-.028v50.815h17.115V69.797h-.028a8.53 2.4 0 0 0-8.53-2.398z" fill="url(#j)"/><path d="M474.572 78.683a11.114 1.439 0 0 0-11.114 1.438 11.114 1.439 0 0 0 .028.07h-.076v3.466h.067a11.114 1.439 0 0 0-.019.068 11.114 1.439 0 0 0 2.658.931 11.114 1.439 0 0 1 8.456-.505 11.114 1.439 0 0 1 8.454.507 11.114 1.439 0 0 0 2.66-.933 11.114 1.439 0 0 0-.027-.068h.01v-3.393h-.037a11.114 1.439 0 0 0 .06-.143 11.114 1.439 0 0 0-11.114-1.438z" fill="url(#k)"/><path d="M474.463 82.287a11.114 1.439 0 0 0-11.114 1.438 11.114 1.439 0 0 0 2.659.931 11.114 1.439 0 0 1 8.455-.505 11.114 1.439 0 0 1 8.455.507 11.114 1.439 0 0 0 2.658-.933 11.114 1.439 0 0 0-11.113-1.438z" fill="#2f3947"/><path d="M474.572 87.091a11.114 1.439 0 0 0-11.114 1.439 11.114 1.439 0 0 0 .028.07h-.076v3.465h.067a11.114 1.439 0 0 0-.019.068 11.114 1.439 0 0 0 2.658.931 11.114 1.439 0 0 1 8.456-.505 11.114 1.439 0 0 1 8.454.507 11.114 1.439 0 0 0 2.66-.933 11.114 1.439 0 0 0-.027-.068h.01v-3.392h-.037a11.114 1.439 0 0 0 .06-.143 11.114 1.439 0 0 0-11.114-1.439z" fill="url(#l)"/><path d="M474.463 90.695a11.114 1.439 0 0 0-11.114 1.438 11.114 1.439 0 0 0 2.659.931 11.114 1.439 0 0 1 8.455-.505 11.114 1.439 0 0 1 8.455.507 11.114 1.439 0 0 0 2.658-.933 11.114 1.439 0 0 0-11.113-1.438z" fill="#2f3947"/></g><path d="M315.901 121.62l-102.498 15.834.902 71.666 101.596 7.5z" fill="#5e6d80" stroke="#000" stroke-width=".5"/><path d="M238.022 239.971l8.757.672-.109-14.734-8.742-.359zm-1.154-.02l9.781.558v-15.503l-9.844-.437zm-11.083-.786l8.78.66-.11-14.487-8.764-.353zm-1.158-.02l9.808.548V224.45l-9.87-.43zm13.42-17.739l8.666.58.017-15.613-8.801.17zm-1.16.001l9.772.459.05-16.429-9.954.08zm-11.176-.589l8.598.559.016-15.044-8.73.164zm-1.15.001l9.694.442.05-15.83-9.875.078zm13.387-18.882l8.772.089-.158-14.478-8.661.577zm-1.117-.082l9.756.058.117-15.51-9.942.756zm-11.064.154l8.724.086-.158-14.01-8.613.558zm-1.11-.08l9.701.057.117-15.01-9.888.732zm-10.786 36.564l8.48.53-.106-14.341-8.465-.35zm-1.118-.144l9.472.543v-15.089l-9.532-.425zm1.258-17.929l8.359.545.016-14.661-8.488.16zm-1.117.001l9.424.43.048-15.426-9.6.076zm.807-18.04l8.54-.267-.129-13.297-8.525.444zm-1.122-.047l9.513-.277v-14.128l-9.642.432zm25.302-19.003l9.143-.813-.137-14.118-9.128 1zm-1.202.018l10.186-.883v-15.007l-10.323 1.056zm-11.115 1.059l8.985-.794-.135-13.785-8.97.976zm-1.18.018l10.008-.863V168.91l-10.144 1.032zm-10.498 1.018l8.503-.76-.128-13.18-8.488.934zm-1.117.017l9.472-.825v-14.01l-9.6.986z" stroke="#000" transform="matrix(1.03268 -.0302 0 1.02744 -1.735 -27.376)" fill="#2f3947" stroke-width=".485"/><path d="M301.232 207.854l9.132.176-.113-15.89-9.117.162zm-1.204.05l10.2-.011v-16.725l-10.265.146zm-12.047-.277l9.12.154-.114-15.383-9.104.172zm-1.202.05l10.187-.029v-16.192l-10.252.16zm-11.51-.02l9.043.147-.113-15.131-9.027.174zm-1.193.051l10.102-.034v-15.928l-10.166.163zm-11.445-.119l9.067.134-.112-14.878-9.052.182zm-1.195.051l10.128-.045v-15.661l-10.192.171zm39.76-19.443l9.111.094.018-17.29-9.253.745zm-1.22.075l10.274-.11.053-18.196-10.466.719zm-11.995.012l9.005.069.017-16.424-9.144.728zm-1.204.074l10.152-.128.052-17.285-10.342.707zm-11.483.224l8.95.057.017-16.042-9.088.722zm-1.197.073l10.091-.136.052-16.882-10.28.7zm-11.542.089l8.88.04.016-15.457-9.016.71zm-1.187.072l10.01-.148.052-16.267-10.198.693zm39.814-21.884l9.248-.455-.167-16.367-9.13 1.201zm-1.178-.022l10.285-.553.124-17.552-10.482 1.486zm-12.081.896l9.218-.458-.167-15.645-9.1 1.171zm-1.174-.018l10.252-.554.123-16.778-10.448 1.446zm-11.557.797l9.06-.454-.165-14.865-8.943 1.13zm-1.153-.016l10.074-.545.122-15.944-10.268 1.395zm-11.426.846l9.01-.454-.164-14.384-8.894 1.108zm-1.147-.013l10.019-.545.12-15.428-10.21 1.366zm-11.138 38.236l8.757.018-.109-14.727-8.741.166zm-1.154-.078l9.781-.03v-15.503l-9.843.155zm1.3-18.498l8.63.04.017-15.064-8.765.69zm-1.155.07l9.732-.143.05-15.853-9.914.674zm.834-18.585l8.819-.805-.133-13.654-8.804.986zm-1.16.02l9.825-.875v-14.515l-9.957 1.043zm52.064-24.537l9.55-1.452-.143-15.226-9.535 1.653zm-1.256.095l10.64-1.593v-16.194l-10.784 1.788zm-11.902 1.626l9.382-1.413-.141-14.73-9.366 1.608zm-1.233.093l10.451-1.55v-15.666l-10.592 1.74zm-11.543 1.629l9.442-1.404-.142-14.496-9.426 1.594zm-1.241.093l10.518-1.54v-15.42l-10.66 1.727zm-11.478 1.778l9.278-1.374-.14-14.155-9.262 1.56zm-1.22.091l10.336-1.508v-15.055l-10.476 1.69zm-10.84 1.698l8.78-1.308-.132-13.534-8.765 1.487zm-1.154.087l9.781-1.436V137.39l-9.913 1.609z" fill="#2f3947" stroke="#000" stroke-width=".5"/><g transform="translate(-95 62.634)" fill="url(#m)" stroke-width=".5" stroke="#000"><path d="M346.666 24.344a8.53 4.608 0 0 0-8.529 4.602h-.028v3.967l-4.007 93.615h25.188l-3.969-93.953h-.097v-3.629h-.028a8.53 4.608 0 0 0-8.53-4.602z" fill="url(#n)"/><path d="M346.885 19.9a11.114 2.153 0 0 0-11.114 2.154 11.114 2.153 0 0 0 .028.104h-.076v5.188h.067a11.114 2.153 0 0 0-.02.102 11.114 2.153 0 0 0 2.66 1.393 11.114 2.153 0 0 1 8.455-.756 11.114 2.153 0 0 1 8.454.76 11.114 2.153 0 0 0 2.66-1.397 11.114 2.153 0 0 0-.027-.102h.005v-5.079h-.037a11.114 2.153 0 0 0 .059-.213 11.114 2.153 0 0 0-11.113-2.153z" fill="url(#o)"/><path d="M346.776 26.473a11.114 1.439 0 0 0-11.114 1.438 11.114 1.439 0 0 0 2.659.931 11.114 1.439 0 0 1 8.455-.505 11.114 1.439 0 0 1 8.455.507 11.114 1.439 0 0 0 2.658-.933 11.114 1.439 0 0 0-11.113-1.438z" fill="url(#p)"/></g><path d="M294.232 244.12l-60.622 10V153.23l60.622 13.295z" fill="#4e596a" stroke="#000" stroke-width=".5"/><path d="M393.029 134.389l8.757.672-.11-14.734-8.741-.36zm-1.155-.02l9.782.557v-15.502l-9.844-.437zm-11.052-.683l8.683.661-.108-14.493-8.668-.353zm-1.145-.02l9.7.55v-15.25l-9.761-.43zm-10.99-.773l8.707.65-.108-14.25-8.692-.348zm-1.147-.02l9.725.54v-14.994l-9.787-.423zm25.489-17.003l8.646.584.017-15.724-8.78.172zm-1.156.001l9.748.462.05-16.545-9.93.08zm-11.027-.446l8.595.57.016-15.358-8.727.168zm-1.149 0l9.69.452.05-16.16-9.871.079zm-11.082-.579l8.525.55.017-14.798-8.658.161zm-1.14.001l9.612.435.049-15.571-9.792.076zm25.498-18.586l8.851.092-.16-14.988-8.739.597zm-1.127-.085l9.844.06.118-16.057-10.032.783zm-11.097.097l8.698.088-.157-14.242-8.588.568zm-1.108-.08l9.674.057.117-15.257-9.86.743zm-10.971.15l8.65.085-.156-13.78-8.54.548zm-1.101-.078l9.62.056.116-14.764-9.805.72zm-10.695 35.967l8.409.522-.105-14.107-8.394-.344zm-1.108-.142l9.392.535v-14.843l-9.452-.418zm1.247-17.635l8.288.535.016-14.421-8.416.157zm-1.108 0l9.345.424.047-15.175-9.52.075zm.8-17.744l8.468-.264-.127-13.08-8.453.437zm-1.112-.048l9.433-.272V82.494l-9.561.425zm37.357-19.605l9.009-.813-.136-14.11-8.993 1zm-1.184.019l10.036-.883V61.195l-10.172 1.056zm-11.084.894l9.067-.8-.137-13.887-9.05.984zm-1.191.018l10.1-.869V62.358l-10.237 1.039zm-11.022 1.041l8.91-.781-.135-13.56-8.894.96zm-1.171.018l9.925-.849V63.785l-10.06 1.014zm-10.409 1.001l8.431-.747-.127-12.964-8.416.918zm-1.108.017l9.392-.811V65.473l-9.519.97z" stroke="#000" transform="matrix(1.04143 .04508 0 1.04449 -368.51 95.612)" fill="#2f3947" stroke-width=".479"/><path d="M122.114 89.63c-9.187-.713-49.717 4.04-46.051 9.772 2.672 63.251-3.325 118.19-24.28 179.997h143.33c-15.636-53.381-27.985-114.418-23.694-180.386.129-.238-.028.36-.024.117 3.313-5.768-40.085-10.474-49.28-9.5z" fill="url(#q)" stroke="#000" stroke-width=".5" transform="translate(-3.246 -20.943)"/><path d="M233.61 153.23l-64.951 7.965v84.96l64.951 7.965z" fill="#73839a" stroke="#000" stroke-width=".5"/><path d="M210.252 169.37l17.383-1.224V157.82l-17.383 1.932zm-.968.08l18.336-1.347v-10.967l-18.336 2.099zM287.67 176.652l-12.604-1.848v-8.66l12.604 2.441zm.702.113l-13.295-1.996v-9.198l13.295 2.626z" fill="#17202f" stroke="#000" stroke-width=".5"/><path d="M281.27 259.61l121.188 6.98v-99.73L281.27 180z" fill="#606f82" stroke="#000" stroke-width=".5"/><g transform="translate(-52.237 76.906)" fill="url(#r)" stroke-width=".5" stroke="#000"><path d="M474.353 67.4a8.53 2.4 0 0 0-8.529 2.397h-.028v50.815h17.115V69.797h-.028a8.53 2.4 0 0 0-8.53-2.398z" fill="url(#s)"/><path d="M474.572 78.683a11.114 1.439 0 0 0-11.114 1.438 11.114 1.439 0 0 0 .028.07h-.076v3.466h.067a11.114 1.439 0 0 0-.019.068 11.114 1.439 0 0 0 2.658.931 11.114 1.439 0 0 1 8.456-.505 11.114 1.439 0 0 1 8.454.507 11.114 1.439 0 0 0 2.66-.933 11.114 1.439 0 0 0-.027-.068h.01v-3.393h-.037a11.114 1.439 0 0 0 .06-.143 11.114 1.439 0 0 0-11.114-1.438z" fill="url(#t)"/><path d="M474.463 82.287a11.114 1.439 0 0 0-11.114 1.438 11.114 1.439 0 0 0 2.659.931 11.114 1.439 0 0 1 8.455-.505 11.114 1.439 0 0 1 8.455.507 11.114 1.439 0 0 0 2.658-.933 11.114 1.439 0 0 0-11.113-1.438z" fill="#2f3947"/><path d="M474.572 87.091a11.114 1.439 0 0 0-11.114 1.439 11.114 1.439 0 0 0 .028.07h-.076v3.465h.067a11.114 1.439 0 0 0-.019.068 11.114 1.439 0 0 0 2.658.931 11.114 1.439 0 0 1 8.456-.505 11.114 1.439 0 0 1 8.454.507 11.114 1.439 0 0 0 2.66-.933 11.114 1.439 0 0 0-.027-.068h.01v-3.392h-.037a11.114 1.439 0 0 0 .06-.143 11.114 1.439 0 0 0-11.114-1.439z" fill="url(#u)"/><path d="M474.463 90.695a11.114 1.439 0 0 0-11.114 1.438 11.114 1.439 0 0 0 2.659.931 11.114 1.439 0 0 1 8.455-.505 11.114 1.439 0 0 1 8.455.507 11.114 1.439 0 0 0 2.658-.933 11.114 1.439 0 0 0-11.113-1.438z" fill="#2f3947"/></g><path d="M402.516 266.584l39.343-14.049-.433-64.666-38.91-20.45z" fill="#4e596b" stroke="#000" stroke-width=".5"/><path d="M159.104 247.507l-49.286 8.97v-50.69l49.286 3.505z" fill="#4e596a" stroke="#000" stroke-width=".5"/><path d="M190.734 170.857l14.335-.947v-9.532l-14.335 1.6zm-.799.063l15.122-1.05v-10.124l-15.122 1.745z" fill="#17202f" stroke="#000" stroke-width=".5"/><path d="M281.242 259.762l-85.276 11.502-.028-103.447 85.304 12.364z" fill="#4e596b" stroke="#000" stroke-width=".5"/><path d="M155.668 259.12l-38.971 7.5v-42.942l38.971 2.313z" fill="#4d596a" stroke="#000" stroke-width=".5"/><path d="M172.843 172.017l12.603-.884v-8.661l-12.603 1.478zm-.702.06l13.295-.98v-9.199l-13.295 1.61z" fill="#17202f" stroke="#000" stroke-width=".5"/><path d="M195.938 167.615l-64.895 9.193v87.086l64.895 7.463z" fill="#73839a" stroke="#000" stroke-width=".5"/><path d="M52.74 258.631l30.383-13.027-.333-71.111-30.05-6.418z" fill="#4e596b" stroke="#000" stroke-width=".5"/><path d="M34.909 247.486l74.81 8.994V205.6l-74.87 3.63z" fill="#606f82" stroke="#000" stroke-width=".5"/><path d="M25.836 259.162l90.861 7.458v-42.942l-90.933 3.59z" fill="#606f82" stroke="#000" stroke-width=".5"/><path d="M289.91 262.03l77.928 6.16V166.683l-77.927 10.013z" fill="#5f6a7c" stroke="#000" stroke-width=".5"/><path d="M367.838 268.283l8.658-3.203v-95.366l-8.658-3.025z" fill="#4e596b" stroke="#000" stroke-width=".5"/><path d="M37.524 260.12l52.685 4.311-.13-32.867-52.489 1.688z" fill="#4e596a" stroke="#000" stroke-width=".5"/><path d="M39.501 260.176l48.592 4.013-.12-30.598-48.497 1.407z" fill="#5c6e87" stroke="#000" stroke-width=".5"/><path d="M294.469 258.566l67.378 5.056v-89.144l-67.378 8.846z" fill="#8091a8" stroke="#000" stroke-width=".5"/><g stroke-width=".5" stroke="#000"><path d="M297.14 201.268l9.78-.847v-14.395l-9.913 1.013z" fill="#152131"/><path d="M298.294 201.251l8.78-.78-.132-13.542-8.765.96z" fill="#455166"/></g><path d="M39.409 238.851l48.419-.396M39.409 242.82l48.55.397M39.144 246.921l48.816 1.19M39.541 250.89l48.551 2.117M39.541 255.123l48.287 2.91M39.409 259.092l48.815 3.44" fill="none" stroke="#000" stroke-width=".5"/><g stroke-width=".476" stroke="#000"><path d="M391.874 134.666l9.782-.847v-14.395l-9.914 1.013z" fill="#152131" transform="matrix(1.0567 0 0 1.0459 -104.957 59.358)"/><path d="M393.029 134.648l8.78-.78-.132-13.541-8.765.959z" fill="#455166" transform="matrix(1.0567 0 0 1.0459 -104.957 59.358)"/></g><g stroke-width=".466" stroke="#000"><path d="M391.874 134.666l9.782-.847v-14.395l-9.914 1.013z" fill="#152131" transform="matrix(1.07534 0 0 1.07114 -99.567 54.853)"/><path d="M393.029 134.648l8.78-.78-.132-13.541-8.765.959z" fill="#455166" transform="matrix(1.07534 0 0 1.07114 -99.567 54.853)"/></g><g stroke-width=".464" stroke="#000"><path d="M391.874 134.666l9.782-.847v-14.395l-9.914 1.013z" fill="#152131" transform="matrix(1.06849 0 0 1.08829 -84.097 51.59)"/><path d="M393.029 134.648l8.78-.78-.132-13.541-8.765.959z" fill="#ac9d93" transform="matrix(1.06849 0 0 1.08829 -84.097 51.59)"/><path d="M393.029 134.648l8.78-.78-.132-13.541-8.765.959z" fill="#455166" transform="matrix(1.06849 0 0 1.08829 -84.097 51.59)"/></g><g stroke-width=".452" fill="#ac9d93" stroke="#000"><path d="M391.874 134.666l9.782-.847v-14.395l-9.914 1.013z" transform="matrix(1.08777 0 0 1.125 -78.518 45.717)"/><path d="M393.029 134.648l8.78-.78-.132-13.541-8.765.959z" transform="matrix(1.08777 0 0 1.125 -78.518 45.717)"/></g><g stroke-width=".497" stroke="#000"><path d="M391.874 134.666l9.782-.847v-14.395l-9.914 1.013z" fill="#152131" transform="matrix(1.00434 .05826 0 1.00834 -96.633 59.985)"/><path d="M393.029 134.648l8.78-.78-.132-13.541-8.765.959z" fill="#455166" transform="matrix(1.00434 .05826 0 1.00834 -96.633 59.985)"/></g><g stroke-width=".5" stroke="#000"><path d="M297.268 237.188l9.732.442.05-15.85-9.914.078z" fill="#152131"/><path d="M298.423 237.187l8.631.56.017-15.064-8.765.164z" fill="#455166"/></g><g stroke-width=".5" stroke="#000"><path d="M297.123 255.607l9.782.558v-15.503l-9.844-.436z" fill="#152131"/><path d="M298.278 255.755l8.757.545-.11-14.735-8.741-.358z" fill="#455166"/></g><g stroke-width=".493" stroke="#000"><path d="M391.874 134.666l9.98-.685.056-15.032-10.168 1.488z" fill="#152131" transform="matrix(1.00361 .07623 -.0043 1.02612 -83.296 50.13)"/><path d="M393.017 134.66l8.974-.58-.222-14.011-8.857 1.217z" fill="#455166" transform="matrix(1.00361 .07623 -.0043 1.02612 -83.296 50.13)"/></g><g stroke-width=".483" stroke="#000"><path d="M391.874 134.666l9.98-.685.056-15.032-10.168 1.488z" fill="#152131" transform="matrix(1.00916 .07878 -.00433 1.0604 -72.894 44.439)"/><path d="M393.017 134.66l8.974-.58-.222-14.011-8.857 1.217z" fill="#455166" transform="matrix(1.00916 .07878 -.00433 1.0604 -72.894 44.439)"/></g><g stroke-width=".467" fill="#ac9d93" stroke="#000"><path d="M391.874 134.666l9.98-.685.056-15.032-10.168 1.488z" transform="matrix(1.02692 .08291 -.0044 1.11598 -67.134 35.32)"/><path d="M393.017 134.66l8.974-.58-.222-14.011-8.857 1.217z" transform="matrix(1.02692 .08291 -.0044 1.11598 -67.134 35.32)"/></g><g stroke-width=".456" fill="#ac9d93" stroke="#000"><path d="M391.874 134.666l9.98-.685.056-15.032-10.168 1.488z" transform="matrix(1.03026 .08673 -.00442 1.16746 -55.183 26.807)"/><path d="M393.017 134.66l8.974-.58-.222-14.011-8.857 1.217z" transform="matrix(1.03026 .08673 -.00442 1.16746 -55.183 26.807)"/></g><g stroke-width=".487" stroke="#000"><path d="M391.874 134.831l9.732.443.05-15.85-9.914.077z" fill="#152131" transform="matrix(1.02864 0 0 1.02609 -93.78 99.248)"/><path d="M393.029 134.83l8.631.56.017-15.063-8.765.164z" fill="#455166" transform="matrix(1.02864 0 0 1.02609 -93.78 99.248)"/></g><g stroke-width=".476" stroke="#000"><path d="M391.874 134.831l9.732.443.05-15.85-9.914.077z" fill="#152131" transform="matrix(1.0369 0 0 1.0649 -84.29 94.618)"/><path d="M393.029 134.83l8.631.56.017-15.063-8.765.164z" fill="#455166" transform="matrix(1.0369 0 0 1.0649 -84.29 94.618)"/></g><g stroke-width=".469" stroke="#000"><path d="M391.874 134.831l9.732.443.05-15.85-9.914.077z" fill="#152131" transform="matrix(1.0432 0 0 1.0903 -74.08 91.66)"/><path d="M393.029 134.83l8.631.56.017-15.063-8.765.164z" fill="#455166" transform="matrix(1.0432 0 0 1.0903 -74.08 91.66)"/></g><g stroke-width=".454" stroke="#000"><path d="M391.874 134.831l9.732.443.05-15.85-9.914.077z" fill="#152131" transform="matrix(1.05567 0 0 1.14777 -65.763 84.618)"/><path d="M393.029 134.83l8.631.56.017-15.063-8.765.164z" fill="#455166" transform="matrix(1.05567 0 0 1.14777 -65.763 84.618)"/></g><g stroke-width=".489" stroke="#000"><path d="M391.874 134.368l9.782.558v-15.502l-9.844-.437z" fill="#152131" transform="matrix(1.0354 0 0 1.01021 -96.358 120.684)"/><path d="M393.029 134.389l8.757.672-.11-14.734-8.741-.36z" fill="#455166" transform="matrix(1.0354 0 0 1.01021 -96.358 120.684)"/></g><g stroke-width=".485" stroke="#000"><path d="M391.874 134.368l9.782.558v-15.502l-9.844-.437z" fill="#152131" transform="matrix(1.03268 0 0 1.02744 -82.656 119.198)"/><path d="M393.029 134.389l8.757.672-.11-14.734-8.741-.36z" fill="#455166" transform="matrix(1.03268 0 0 1.02744 -82.656 119.198)"/></g><g stroke-width=".479" stroke="#000"><path d="M391.874 134.368l9.782.558v-15.502l-9.844-.437z" fill="#152131" transform="matrix(1.04143 0 0 1.04449 -73.383 117.64)"/><path d="M393.029 134.389l8.757.672-.11-14.734-8.741-.36z" fill="#455166" transform="matrix(1.04143 0 0 1.04449 -73.383 117.64)"/></g><g stroke-width=".471" stroke="#000"><path d="M391.874 134.368l9.782.558v-15.502l-9.844-.437z" fill="#152131" transform="matrix(1.0429 0 0 1.07883 -60.708 114.049)"/><path d="M393.029 134.389l8.757.672-.11-14.734-8.741-.36z" fill="#455166" transform="matrix(1.0429 0 0 1.07883 -60.708 114.049)"/></g><path d="M276.945 260.05l-73.693 9.648-.212-84.127 73.905 7.176z" fill="#152131" stroke="#000" stroke-width=".5"/><path d="M274.856 260.347l-68.472 8.326-.196-80.487 68.669 6.865z" fill="#5c6e87" stroke="#000" stroke-width=".5"/><path d="M206.213 204.71l68.849 2.855m-68.755-5.521l68.755 3.141m-68.755-6.25l68.567 3.808m-68.754-6.474l68.754 4.57m-68.754-7.14l68.942 5.426m-68.849-7.901l68.474 6.188m-68.474 18.69l68.568 2.095m-68.568.286l68.755 2.475m-68.755.19l68.661 2.76m-68.754 0l68.754 3.047m-68.754 0l68.942 3.237m-68.833.079l68.394 3.096m-68.527.135l68.924 2.423m-68.924 1.48l68.924 1.213m-68.994 2.521h68.661m-68.458 3.806l68.526-1.615m-68.394 5.385l68.262-3.097m-68.13 6.664l68.395-4.24m-68.527 7.943l68.262-5.461m-68.262 9.23l68.527-7.017M206.4 263.13l68.38-7.949m-68.38 11.28l68.38-8.913m-68.568-44.22l68.568 1.619m-68.474-4.681l68.38 2.475m-68.474-5.59l68.287 3.237" fill="#8091a8" stroke="#000" stroke-width=".5"/><path d="M338.275 145.944l-18.337-8.28v-10.967l18.337 9.031z" fill="#17202f" stroke="#000" stroke-width=".5"/><path d="M337.306 145.498l-17.382-7.796v-10.326l17.382 8.504z" fill="#2f3947" stroke="#000" stroke-width=".5"/><path d="M356.812 155.045l-15.56-7.21v-10.992l15.56 7.962z" fill="#17202f" stroke="#000" stroke-width=".5"/><path d="M355.99 154.655l-14.75-6.78v-10.35l14.75 7.49z" fill="#2f3947" stroke="#000" stroke-width=".5"/><path d="M372.534 162.109l-13.157-5.994v-10.316l13.157 6.701z" fill="#17202f" stroke="#000" stroke-width=".5"/><path d="M371.839 161.784l-12.472-5.632v-9.713l12.472 6.298z" fill="#2f3947" stroke="#000" stroke-width=".5"/><path d="M254.987 171.15l-17.382-2.95v-10.327l17.382 3.66zm.969.177l-18.337-3.17v-10.966l18.337 3.92zM272.492 174.098l-14.336-2.327v-9.532l14.336 2.98zm.798.14l-15.122-2.506v-10.123l15.122 3.2z" fill="#17202f" stroke="#000" stroke-width=".5"/><g stroke-width=".452" stroke="#000"><path d="M391.874 134.666l9.782-.847v-14.395l-9.914 1.013z" fill="#152131" transform="matrix(1.08777 0 0 1.125 -78.518 45.717)"/><path d="M393.029 134.648l8.78-.78-.132-13.541-8.765.959z" fill="#455166" transform="matrix(1.08777 0 0 1.125 -78.518 45.717)"/></g><g stroke-width=".467" stroke="#000"><path d="M391.874 134.666l9.98-.685.056-15.032-10.168 1.488z" fill="#152131" transform="matrix(1.02692 .08291 -.0044 1.11598 -67.134 35.32)"/><path d="M393.017 134.66l8.974-.58-.222-14.011-8.857 1.217z" fill="#455166" transform="matrix(1.02692 .08291 -.0044 1.11598 -67.134 35.32)"/></g><g stroke-width=".456" stroke="#000"><path d="M391.874 134.666l9.98-.685.056-15.032-10.168 1.488z" fill="#152131" transform="matrix(1.03026 .08673 -.00442 1.16746 -55.183 26.807)"/><path d="M393.017 134.66l8.974-.58-.222-14.011-8.857 1.217z" fill="#455166" transform="matrix(1.03026 .08673 -.00442 1.16746 -55.183 26.807)"/></g><path d="M133.707 265.295l55.84 6.65v-99.1l-55.84 8.183z" fill="#5d6a7e" stroke="#000" stroke-width=".5"/><path d="M189.411 272.144l2.362-1.021v-97.69l-2.362-.67z" fill="#4e596b" stroke="#000" stroke-width=".5"/><path d="M136.979 260.534l48.272 5.45V177.86l-48.272 7.038z" fill="#8f9eb3" stroke="#000" stroke-width=".5"/><g stroke-width=".591" stroke="#000"><path d="M391.874 134.666l9.782-.847v-14.395l-9.914 1.013z" fill="#152131" transform="matrix(.71644 .01287 0 .99904 -141.861 63.278)"/><path d="M393.029 134.648l8.78-.78-.132-13.541-8.765.959z" fill="#455166" transform="matrix(.71644 .01287 0 .99904 -141.861 63.278)"/></g><g stroke-width=".562" stroke="#000"><path d="M391.874 134.666l9.782-.847v-14.395l-9.914 1.013z" fill="#152131" transform="matrix(.75705 .0136 0 1.0449 -149.185 55.908)"/><path d="M393.029 134.648l8.78-.78-.132-13.541-8.765.959z" fill="#455166" transform="matrix(.75705 .0136 0 1.0449 -149.185 55.908)"/></g><g stroke-width=".551" stroke="#000"><path d="M391.874 134.666l9.782-.847v-14.395l-9.914 1.013z" fill="#152131" transform="matrix(.77041 .01384 0 1.07011 -145.323 51.477)"/><path d="M393.029 134.648l8.78-.78-.132-13.541-8.765.959z" fill="#455166" transform="matrix(.77041 .01384 0 1.07011 -145.323 51.477)"/></g><g stroke-width=".548" stroke="#000"><path d="M391.874 134.666l9.782-.847v-14.395l-9.914 1.013z" fill="#152131" transform="matrix(.7655 .01375 0 1.08724 -134.24 48.417)"/><path d="M393.029 134.648l8.78-.78-.132-13.541-8.765.959z" fill="#ac9d93" transform="matrix(.7655 .01375 0 1.08724 -134.24 48.417)"/><path d="M393.029 134.648l8.78-.78-.132-13.541-8.765.959z" fill="#455166" transform="matrix(.7655 .01375 0 1.08724 -134.24 48.417)"/></g><g stroke-width=".534" fill="#ac9d93" stroke="#000"><path d="M391.874 134.666l9.782-.847v-14.395l-9.914 1.013z" transform="matrix(.77932 .014 0 1.12392 -130.242 42.621)"/><path d="M393.029 134.648l8.78-.78-.132-13.541-8.765.959z" transform="matrix(.77932 .014 0 1.12392 -130.242 42.621)"/></g><g stroke-width=".587" stroke="#000"><path d="M391.874 134.666l9.782-.847v-14.395l-9.914 1.013z" fill="#152131" transform="matrix(.71955 .07113 0 1.00737 -143.221 56.642)"/><path d="M393.029 134.648l8.78-.78-.132-13.541-8.765.959z" fill="#455166" transform="matrix(.71955 .07113 0 1.00737 -143.221 56.642)"/></g><g stroke-width=".591" stroke="#000"><path d="M391.874 134.831l9.732.443.05-15.85-9.914.077z" fill="#152131" transform="matrix(.71644 .01287 0 .99904 -141.769 99)"/><path d="M393.029 134.83l8.631.56.017-15.063-8.765.164z" fill="#455166" transform="matrix(.71644 .01287 0 .99904 -141.769 99)"/></g><g stroke-width=".591" stroke="#000"><path d="M391.874 134.368l9.782.558v-15.502l-9.844-.437z" fill="#152131" transform="matrix(.71644 .01287 0 .99904 -141.873 117.862)"/><path d="M393.029 134.516l8.757.545-.11-14.734-8.741-.36z" fill="#455166" transform="matrix(.71644 .01287 0 .99904 -141.873 117.862)"/></g><g stroke-width=".582" stroke="#000"><path d="M391.874 134.666l9.98-.685.056-15.032-10.168 1.488z" fill="#152131" transform="matrix(.71903 .08908 -.00308 1.02508 -133.666 46.969)"/><path d="M393.017 134.66l8.974-.58-.222-14.011-8.857 1.217z" fill="#455166" transform="matrix(.71903 .08908 -.00308 1.02508 -133.666 46.969)"/></g><g stroke-width=".571" stroke="#000"><path d="M391.874 134.666l9.98-.685.056-15.032-10.168 1.488z" fill="#152131" transform="matrix(.723 .0917 -.0031 1.05933 -126.213 41.417)"/><path d="M393.017 134.66l8.974-.58-.222-14.011-8.857 1.217z" fill="#455166" transform="matrix(.723 .0917 -.0031 1.05933 -126.213 41.417)"/></g><g stroke-width=".552" fill="#ac9d93" stroke="#000"><path d="M391.874 134.666l9.98-.685.056-15.032-10.168 1.488z" transform="matrix(.73573 .09605 -.00315 1.11485 -122.086 32.381)"/><path d="M393.017 134.66l8.974-.58-.222-14.011-8.857 1.217z" transform="matrix(.73573 .09605 -.00315 1.11485 -122.086 32.381)"/></g><g stroke-width=".539" fill="#ac9d93" stroke="#000"><path d="M391.874 134.666l9.98-.685.056-15.032-10.168 1.488z" transform="matrix(.73811 .09991 -.00316 1.16628 -113.524 24.03)"/><path d="M393.017 134.66l8.974-.58-.222-14.011-8.857 1.217z" transform="matrix(.73811 .09991 -.00316 1.16628 -113.524 24.03)"/></g><g stroke-width=".575" stroke="#000"><path d="M391.874 134.831l9.732.443.05-15.85-9.914.077z" fill="#152131" transform="matrix(.73695 .01324 0 1.0251 -141.176 95.904)"/><path d="M393.029 134.83l8.631.56.017-15.063-8.765.164z" fill="#455166" transform="matrix(.73695 .01324 0 1.0251 -141.176 95.904)"/></g><g stroke-width=".562" stroke="#000"><path d="M391.874 134.831l9.732.443.05-15.85-9.914.077z" fill="#152131" transform="matrix(.74288 .01335 0 1.06388 -134.378 91.401)"/><path d="M393.029 134.83l8.631.56.017-15.063-8.765.164z" fill="#455166" transform="matrix(.74288 .01335 0 1.06388 -134.378 91.401)"/></g><g stroke-width=".554" stroke="#000"><path d="M391.874 134.831l9.732.443.05-15.85-9.914.077z" fill="#152131" transform="matrix(.7474 .01343 0 1.08925 -127.063 88.577)"/><path d="M393.029 134.83l8.631.56.017-15.063-8.765.164z" fill="#455166" transform="matrix(.7474 .01343 0 1.08925 -127.063 88.577)"/></g><g stroke-width=".537" stroke="#000"><path d="M391.874 134.831l9.732.443.05-15.85-9.914.077z" fill="#152131" transform="matrix(.75632 .01359 0 1.14667 -121.105 81.649)"/><path d="M393.029 134.83l8.631.56.017-15.063-8.765.164z" fill="#455166" transform="matrix(.75632 .01359 0 1.14667 -121.105 81.649)"/></g><g stroke-width=".578" stroke="#000"><path d="M391.874 134.368l9.782.558v-15.502l-9.844-.437z" fill="#152131" transform="matrix(.7418 .01333 0 1.00924 -143.024 117.287)"/><path d="M393.029 134.389l8.757.672-.11-14.734-8.741-.36z" fill="#455166" transform="matrix(.7418 .01333 0 1.00924 -143.024 117.287)"/></g><g stroke-width=".574" stroke="#000"><path d="M391.874 134.368l9.782.558v-15.502l-9.844-.437z" fill="#152131" transform="matrix(.73985 .0133 0 1.02645 -133.207 115.978)"/><path d="M393.029 134.389l8.757.672-.11-14.734-8.741-.36z" fill="#455166" transform="matrix(.73985 .0133 0 1.02645 -133.207 115.978)"/></g><g stroke-width=".567" stroke="#000"><path d="M391.874 134.368l9.782.558v-15.502l-9.844-.437z" fill="#152131" transform="matrix(.74612 .0134 0 1.04348 -126.563 114.541)"/><path d="M393.029 134.389l8.757.672-.11-14.734-8.741-.36z" fill="#455166" transform="matrix(.74612 .0134 0 1.04348 -126.563 114.541)"/></g><g stroke-width=".557" stroke="#000"><path d="M391.874 134.368l9.782.558v-15.502l-9.844-.437z" fill="#152131" transform="matrix(.74717 .01342 0 1.0778 -117.483 111.116)"/><path d="M393.029 134.389l8.757.672-.11-14.734-8.741-.36z" fill="#455166" transform="matrix(.74717 .01342 0 1.0778 -117.483 111.116)"/></g><g stroke-width=".534" stroke="#000"><path d="M391.874 134.666l9.782-.847v-14.395l-9.914 1.013z" fill="#152131" transform="matrix(.77932 .014 0 1.12392 -130.242 42.621)"/><path d="M393.029 134.648l8.78-.78-.132-13.541-8.765.959z" fill="#455166" transform="matrix(.77932 .014 0 1.12392 -130.242 42.621)"/></g><g stroke-width=".552" stroke="#000"><path d="M391.874 134.666l9.98-.685.056-15.032-10.168 1.488z" fill="#152131" transform="matrix(.73573 .09605 -.00315 1.11485 -122.086 32.381)"/><path d="M393.017 134.66l8.974-.58-.222-14.011-8.857 1.217z" fill="#455166" transform="matrix(.73573 .09605 -.00315 1.11485 -122.086 32.381)"/></g><g stroke-width=".539" stroke="#000"><path d="M391.874 134.666l9.98-.685.056-15.032-10.168 1.488z" fill="#152131" transform="matrix(.73811 .09991 -.00316 1.16628 -113.524 24.03)"/><path d="M393.017 134.66l8.974-.58-.222-14.011-8.857 1.217z" fill="#455166" transform="matrix(.73811 .09991 -.00316 1.16628 -113.524 24.03)"/></g><path d="M96.425 260.245l16.227 1.569v-30.009l-16.32.489zm-1.792-.053l18.005 1.492v-31.871l-18.005.692z" fill="#2f3947" stroke="#000" stroke-width=".5"/><path style="line-height:1.25;-inkscape-font-specification:'Calibri, Normal';font-variant-ligatures:normal;font-variant-caps:normal;font-variant-numeric:normal;font-feature-settings:normal;text-align:center" d="M16.263 309.125a.947.947 0 0 0-.698.28c-.176.175-.264.444-.264.806v18.588c0 .082.021.155.062.217a.524.524 0 0 0 .217.14c.104.04.238.071.404.092.175.02.392.031.65.031.259 0 .47-.01.636-.03.176-.022.31-.053.403-.094a.524.524 0 0 0 .217-.14.329.329 0 0 0 .078-.216v-17.364h9.07V328.8c0 .082.02.155.061.217a.716.716 0 0 0 .217.14c.104.04.243.071.419.092.175.02.387.031.635.031.259 0 .47-.01.636-.03.176-.022.315-.053.419-.094a.524.524 0 0 0 .217-.14.382.382 0 0 0 .062-.216V310.21c0-.362-.083-.63-.248-.807-.166-.186-.393-.279-.683-.279h-12.51zm25.672 5.023c-.465 0-.91.057-1.333.17a5.283 5.283 0 0 0-1.225.481c-.392.207-.785.47-1.178.791-.393.32-.8.698-1.225 1.132v-1.876a.34.34 0 0 0-.062-.217c-.03-.062-.093-.114-.186-.155a1.075 1.075 0 0 0-.356-.078 3.603 3.603 0 0 0-.527-.03c-.207 0-.383.01-.527.03-.145.01-.264.036-.357.078-.093.041-.155.093-.186.155a.423.423 0 0 0-.046.217v19.487a.48.48 0 0 0 .046.217.456.456 0 0 0 .202.155c.103.041.237.072.403.093.165.02.372.031.62.031.258 0 .47-.01.635-.03.166-.022.295-.053.388-.094a.456.456 0 0 0 .202-.155.382.382 0 0 0 .062-.217v-6.976c.372.361.723.677 1.054.945.33.27.661.491.992.667a4.53 4.53 0 0 0 1.039.388c.351.082.733.124 1.147.124.971 0 1.834-.181 2.589-.543a5.239 5.239 0 0 0 1.891-1.566c.517-.682.905-1.509 1.163-2.48.269-.972.403-2.067.403-3.287 0-1.013-.103-1.969-.31-2.868-.207-.91-.538-1.705-.992-2.387a4.813 4.813 0 0 0-1.737-1.613c-.713-.392-1.576-.589-2.589-.589zm33.859 0c-.465 0-.91.057-1.333.17a5.283 5.283 0 0 0-1.225.481c-.393.207-.786.47-1.178.791-.393.32-.801.698-1.225 1.132v-1.876a.34.34 0 0 0-.062-.217c-.031-.062-.093-.114-.186-.155a1.075 1.075 0 0 0-.357-.078 3.603 3.603 0 0 0-.527-.03c-.207 0-.382.01-.527.03-.145.01-.263.036-.356.078-.094.041-.156.093-.187.155a.423.423 0 0 0-.046.217v19.487a.48.48 0 0 0 .046.217.456.456 0 0 0 .202.155c.103.041.238.072.403.093.165.02.372.031.62.031.259 0 .47-.01.636-.03.165-.022.294-.053.387-.094a.456.456 0 0 0 .202-.155.382.382 0 0 0 .062-.217v-6.976c.372.361.723.677 1.054.945.33.27.662.491.992.667a4.53 4.53 0 0 0 1.039.388c.351.082.734.124 1.147.124.972 0 1.835-.181 2.59-.543a5.239 5.239 0 0 0 1.89-1.566c.517-.682.905-1.509 1.163-2.48.269-.972.403-2.067.403-3.287 0-1.013-.103-1.969-.31-2.868-.206-.91-.537-1.705-.992-2.387a4.813 4.813 0 0 0-1.736-1.613c-.713-.392-1.576-.589-2.59-.589zm15.611 0c-1.188 0-2.227.191-3.116.574a6.085 6.085 0 0 0-2.232 1.612c-.59.693-1.034 1.52-1.333 2.48-.29.951-.435 1.995-.435 3.132 0 1.178.14 2.233.419 3.163.28.93.703 1.72 1.271 2.372a5.491 5.491 0 0 0 2.124 1.488c.858.341 1.86.512 3.008.512 1.178 0 2.211-.192 3.1-.574.9-.393 1.644-.935 2.233-1.628.6-.692 1.049-1.514 1.348-2.465.3-.96.45-2.01.45-3.147 0-1.168-.145-2.217-.434-3.147-.28-.93-.703-1.72-1.271-2.372a5.47 5.47 0 0 0-2.14-1.488c-.847-.341-1.845-.512-2.992-.512zm33.3 0c-1.188 0-2.227.191-3.116.574a6.085 6.085 0 0 0-2.232 1.612c-.59.693-1.033 1.52-1.333 2.48-.29.951-.434 1.995-.434 3.132 0 1.178.14 2.233.418 3.163.28.93.703 1.72 1.272 2.372a5.491 5.491 0 0 0 2.123 1.488c.858.341 1.86.512 3.008.512 1.178 0 2.212-.192 3.1-.574.9-.393 1.644-.935 2.233-1.628.6-.692 1.049-1.514 1.349-2.465.3-.96.45-2.01.45-3.147 0-1.168-.145-2.217-.435-3.147-.279-.93-.703-1.72-1.271-2.372a5.47 5.47 0 0 0-2.14-1.488c-.847-.341-1.844-.512-2.991-.512zm16.744 0c-1.189 0-2.228.191-3.116.574a6.085 6.085 0 0 0-2.233 1.612c-.589.693-1.033 1.52-1.333 2.48-.29.951-.434 1.995-.434 3.132 0 1.178.14 2.233.418 3.163.28.93.703 1.72 1.272 2.372a5.491 5.491 0 0 0 2.124 1.488c.857.341 1.86.512 3.007.512 1.178 0 2.212-.192 3.1-.574.9-.393 1.644-.935 2.233-1.628.6-.692 1.05-1.514 1.349-2.465.3-.96.45-2.01.45-3.147 0-1.168-.145-2.217-.435-3.147-.279-.93-.702-1.72-1.27-2.372a5.47 5.47 0 0 0-2.14-1.488c-.848-.341-1.845-.512-2.992-.512zm31.207 0c-.465 0-.91.057-1.333.17a5.283 5.283 0 0 0-1.225.481c-.393.207-.785.47-1.178.791-.393.32-.801.698-1.225 1.132v-1.876a.34.34 0 0 0-.062-.217c-.03-.062-.093-.114-.186-.155a1.075 1.075 0 0 0-.356-.078 3.603 3.603 0 0 0-.528-.03c-.206 0-.382.01-.527.03-.144.01-.263.036-.356.078-.093.041-.155.093-.186.155a.423.423 0 0 0-.047.217v19.487a.48.48 0 0 0 .047.217.456.456 0 0 0 .201.155c.104.041.238.072.403.093.166.02.372.031.62.031.259 0 .47-.01.636-.03.165-.022.295-.053.388-.094a.456.456 0 0 0 .201-.155.382.382 0 0 0 .062-.217v-6.976c.372.361.724.677 1.054.945.331.27.662.491.993.667a4.53 4.53 0 0 0 1.038.388c.352.082.734.124 1.148.124.971 0 1.834-.181 2.589-.543a5.239 5.239 0 0 0 1.89-1.566c.518-.682.905-1.509 1.164-2.48.268-.972.403-2.067.403-3.287 0-1.013-.104-1.969-.31-2.868-.207-.91-.538-1.705-.993-2.387a4.813 4.813 0 0 0-1.736-1.613c-.713-.392-1.576-.589-2.589-.589zm14.48 0c-.538 0-1.07.052-1.597.155a9.367 9.367 0 0 0-1.457.372c-.445.145-.837.31-1.178.496-.342.176-.584.331-.73.466a.968.968 0 0 0-.263.434 3.042 3.042 0 0 0-.046.604c0 .155.01.3.03.434.022.124.053.228.094.31a.6.6 0 0 0 .17.186.382.382 0 0 0 .217.062c.124 0 .31-.072.559-.217.258-.155.573-.32.945-.496a8.388 8.388 0 0 1 1.318-.496 5.817 5.817 0 0 1 1.705-.232c.59 0 1.086.072 1.489.217.403.134.728.34.976.62.259.269.445.61.558 1.023.114.413.17.889.17 1.426v1.085h-1.921c-1.086 0-2.062.099-2.93.295-.869.186-1.602.47-2.202.853-.6.382-1.06.863-1.38 1.441-.32.58-.48 1.261-.48 2.047 0 .672.113 1.271.34 1.798.239.527.564.972.977 1.333.424.362.93.636 1.52.822a6.4 6.4 0 0 0 2 .295c.837 0 1.627-.181 2.372-.543a6.854 6.854 0 0 0 2.046-1.52v1.396c0 .124.036.217.109.28a.753.753 0 0 0 .34.139c.166.03.383.046.652.046.279 0 .49-.015.635-.046a.87.87 0 0 0 .341-.14c.083-.062.124-.155.124-.279v-9.41c0-.868-.098-1.628-.294-2.28-.197-.65-.512-1.193-.946-1.627-.434-.444-1.002-.78-1.705-1.008-.703-.227-1.556-.34-2.558-.34zm71.08 0c-1.022 0-1.947.181-2.774.543a5.812 5.812 0 0 0-2.124 1.535c-.579.661-1.023 1.472-1.333 2.434-.31.95-.465 2.025-.465 3.224 0 1.261.15 2.367.45 3.318.299.95.743 1.741 1.332 2.372a5.603 5.603 0 0 0 2.17 1.426c.869.32 1.877.48 3.024.48.661 0 1.281-.051 1.86-.154a13.87 13.87 0 0 0 1.55-.326 8.105 8.105 0 0 0 1.086-.372c.279-.134.444-.227.496-.28a.729.729 0 0 0 .14-.185.482.482 0 0 0 .077-.202c.02-.082.036-.17.046-.263.01-.104.016-.222.016-.357 0-.186-.01-.34-.031-.465a1.016 1.016 0 0 0-.062-.31.295.295 0 0 0-.14-.155.288.288 0 0 0-.186-.062c-.124 0-.31.057-.558.17-.238.104-.548.223-.93.357-.372.135-.817.259-1.333.372a9.069 9.069 0 0 1-1.768.155c-.837 0-1.545-.119-2.124-.356a3.488 3.488 0 0 1-1.41-1.024 4.044 4.044 0 0 1-.775-1.596 8.646 8.646 0 0 1-.233-2.093h9.147c.258 0 .486-.083.682-.248.207-.176.31-.465.31-.868v-.465c0-.91-.119-1.763-.357-2.558a5.535 5.535 0 0 0-1.085-2.093c-.496-.6-1.132-1.075-1.907-1.427-.764-.351-1.695-.527-2.79-.527zm35.037 0c-1.023 0-1.948.181-2.775.543a5.812 5.812 0 0 0-2.123 1.535c-.58.661-1.024 1.472-1.334 2.434-.31.95-.465 2.025-.465 3.224 0 1.261.15 2.367.45 3.318.3.95.744 1.741 1.333 2.372a5.603 5.603 0 0 0 2.17 1.426c.869.32 1.876.48 3.023.48.662 0 1.282-.051 1.86-.154a13.87 13.87 0 0 0 1.551-.326 8.103 8.103 0 0 0 1.085-.372c.28-.134.445-.227.496-.28a.729.729 0 0 0 .14-.185.483.483 0 0 0 .077-.202c.021-.082.037-.17.047-.263.01-.104.015-.222.015-.357 0-.186-.01-.34-.03-.465a1.016 1.016 0 0 0-.063-.31.295.295 0 0 0-.14-.155.288.288 0 0 0-.185-.062c-.124 0-.31.057-.558.17-.238.104-.548.223-.93.357-.372.135-.817.259-1.334.372a9.068 9.068 0 0 1-1.767.155c-.837 0-1.545-.119-2.124-.356a3.488 3.488 0 0 1-1.41-1.024 4.044 4.044 0 0 1-.776-1.596 8.646 8.646 0 0 1-.232-2.093h9.146c.259 0 .486-.083.683-.248.206-.176.31-.465.31-.868v-.465c0-.91-.12-1.763-.357-2.558a5.534 5.534 0 0 0-1.085-2.093c-.496-.6-1.132-1.075-1.907-1.427-.765-.351-1.695-.527-2.79-.527zm46.82 0c-1.19 0-2.228.191-3.117.574a6.085 6.085 0 0 0-2.232 1.612c-.59.693-1.034 1.52-1.333 2.48-.29.951-.435 1.995-.435 3.132 0 1.178.14 2.233.419 3.163.28.93.703 1.72 1.271 2.372a5.491 5.491 0 0 0 2.124 1.488c.858.341 1.86.512 3.008.512 1.178 0 2.211-.192 3.1-.574.9-.393 1.644-.935 2.233-1.628.6-.692 1.049-1.514 1.348-2.465.3-.96.45-2.01.45-3.147 0-1.168-.145-2.217-.434-3.147-.28-.93-.703-1.72-1.271-2.372a5.47 5.47 0 0 0-2.14-1.488c-.847-.341-1.845-.512-2.992-.512zm32.37 0c-1.19 0-2.228.191-3.117.574a6.085 6.085 0 0 0-2.232 1.612c-.59.693-1.034 1.52-1.333 2.48-.29.951-.434 1.995-.434 3.132 0 1.178.14 2.233.418 3.163.28.93.703 1.72 1.271 2.372a5.492 5.492 0 0 0 2.124 1.488c.858.341 1.86.512 3.008.512 1.178 0 2.212-.192 3.1-.574.9-.393 1.644-.935 2.233-1.628.6-.692 1.049-1.514 1.349-2.465.3-.96.45-2.01.45-3.147 0-1.168-.146-2.217-.435-3.147-.279-.93-.703-1.72-1.271-2.372a5.47 5.47 0 0 0-2.14-1.488c-.847-.341-1.844-.512-2.992-.512zm-319.78.217c-.237 0-.439.01-.604.031-.166.01-.3.036-.403.078a.456.456 0 0 0-.202.155.444.444 0 0 0-.046.201v13.984c0 .072.015.14.046.202a.468.468 0 0 0 .186.155c.093.03.212.056.357.077.145.02.33.031.558.031.196 0 .362-.01.496-.03.134-.011.243-.032.326-.063a.586.586 0 0 0 .217-.155 4.48 4.48 0 0 0 .201-.217l5.922-8.092c.29-.393.574-.786.853-1.179.29-.403.553-.811.79-1.224-.03.403-.056.816-.077 1.24-.02.413-.03.821-.03 1.225v8.03c0 .072.02.14.061.202a.454.454 0 0 0 .217.155c.103.03.238.056.403.077.166.02.372.031.62.031s.455-.01.62-.03c.166-.022.295-.047.388-.078a.456.456 0 0 0 .202-.155.356.356 0 0 0 .062-.202v-13.968a.382.382 0 0 0-.062-.217c-.031-.062-.093-.114-.186-.155a.964.964 0 0 0-.357-.078 3.943 3.943 0 0 0-.543-.03c-.217 0-.392.01-.527.03-.134.01-.253.036-.356.078a.734.734 0 0 0-.248.14 2.025 2.025 0 0 0-.186.216l-6 8.201c-.28.362-.543.734-.79 1.117-.238.372-.476.754-.714 1.147.031-.393.057-.786.078-1.178.02-.403.03-.807.03-1.21v-8.077c0-.155-.092-.268-.278-.34-.186-.083-.527-.125-1.024-.125zm98.925 0c-.331 0-.6.01-.807.031-.196.021-.346.067-.45.14a.285.285 0 0 0-.139.248c.01.093.057.212.14.356l4.108 6.558-4.34 6.806a.893.893 0 0 0-.156.372c0 .093.042.17.124.233.093.062.233.103.419.124.196.03.444.046.744.046.29 0 .522-.01.698-.03.175-.011.315-.032.418-.063a.682.682 0 0 0 .248-.14.954.954 0 0 0 .155-.201l3.333-5.535 3.35 5.535c.04.072.087.14.139.202a.922.922 0 0 0 .248.14c.113.03.258.05.434.061.186.02.434.031.744.031.32 0 .579-.015.775-.046.207-.021.357-.062.45-.124.103-.062.155-.14.155-.233a.785.785 0 0 0-.124-.372l-4.31-6.883 4.077-6.48a1 1 0 0 0 .155-.388.222.222 0 0 0-.124-.233c-.093-.062-.238-.103-.434-.124a6.87 6.87 0 0 0-.729-.03c-.279 0-.5.01-.666.03-.155.01-.28.036-.372.078a.556.556 0 0 0-.202.124 1.116 1.116 0 0 0-.14.17l-3.224 5.194-3.178-5.194a.874.874 0 0 0-.14-.186.546.546 0 0 0-.232-.124 1.963 1.963 0 0 0-.434-.062 6.42 6.42 0 0 0-.713-.03zm47.005 0c-.249 0-.455.01-.62.031-.166.01-.3.042-.404.093a.456.456 0 0 0-.201.155.388.388 0 0 0-.047.202v13.953a.48.48 0 0 0 .047.217.53.53 0 0 0 .201.14c.104.04.238.071.403.092.166.02.372.031.62.031.259 0 .47-.01.636-.03.166-.022.295-.053.388-.094a.53.53 0 0 0 .201-.14.382.382 0 0 0 .062-.216v-6.124h7.116v6.124c0 .082.02.155.062.217a.53.53 0 0 0 .202.14c.093.04.222.071.387.092a5.3 5.3 0 0 0 .636.031c.248 0 .455-.01.62-.03.165-.022.295-.053.388-.094a.53.53 0 0 0 .201-.14.382.382 0 0 0 .062-.216v-13.953c0-.083-.02-.15-.062-.202a.456.456 0 0 0-.201-.155.927.927 0 0 0-.388-.093 5.143 5.143 0 0 0-.62-.03c-.259 0-.47.01-.636.03a.927.927 0 0 0-.387.093.456.456 0 0 0-.202.155.313.313 0 0 0-.062.202v5.674h-7.116v-5.674c0-.083-.02-.15-.062-.202a.456.456 0 0 0-.201-.155.927.927 0 0 0-.388-.093 5.305 5.305 0 0 0-.635-.03zm16.99 0c-.247 0-.454.01-.62.031-.165.01-.3.042-.402.093a.456.456 0 0 0-.202.155.388.388 0 0 0-.047.202v13.953a.48.48 0 0 0 .047.217.53.53 0 0 0 .202.14c.103.04.237.071.403.092.165.02.372.031.62.031.258 0 .47-.01.635-.03.166-.022.295-.053.388-.094a.53.53 0 0 0 .201-.14.382.382 0 0 0 .062-.216v-6.124h7.116v6.124c0 .082.021.155.062.217a.53.53 0 0 0 .202.14c.093.04.222.071.387.092a5.3 5.3 0 0 0 .636.031c.248 0 .455-.01.62-.03.166-.022.295-.053.388-.094a.53.53 0 0 0 .201-.14.382.382 0 0 0 .062-.216v-13.953c0-.083-.02-.15-.062-.202a.456.456 0 0 0-.201-.155.927.927 0 0 0-.388-.093 5.143 5.143 0 0 0-.62-.03c-.258 0-.47.01-.636.03a.927.927 0 0 0-.387.093.456.456 0 0 0-.202.155.313.313 0 0 0-.062.202v5.674h-7.116v-5.674c0-.083-.02-.15-.062-.202a.456.456 0 0 0-.201-.155.927.927 0 0 0-.388-.093 5.305 5.305 0 0 0-.635-.03zm16.96 0c-.237 0-.438.01-.604.031-.155.01-.284.042-.387.093a.456.456 0 0 0-.202.155.388.388 0 0 0-.046.202v12.976c0 .465.103.811.31 1.039.206.227.527.366.96.418a21.1 21.1 0 0 0 1.597.124c.27.02.543.031.822.031.28.01.559.016.838.016 1.188 0 2.206-.13 3.054-.388.847-.269 1.54-.63 2.077-1.085a4.016 4.016 0 0 0 1.194-1.612c.258-.62.387-1.287.387-2 0-.713-.119-1.354-.356-1.923a3.676 3.676 0 0 0-1.132-1.488c-.506-.413-1.152-.729-1.938-.946-.785-.227-1.731-.34-2.837-.34-.455 0-.878.01-1.271.03-.382.01-.765.031-1.147.062v-4.914c0-.165-.098-.284-.295-.357-.186-.082-.527-.124-1.023-.124zm13.876 0c-.248 0-.455.01-.62.031-.165.01-.3.042-.403.093a.456.456 0 0 0-.202.155.388.388 0 0 0-.046.202v13.953a.48.48 0 0 0 .046.217.53.53 0 0 0 .202.14c.103.04.238.071.403.092.165.02.372.031.62.031.258 0 .47-.01.636-.03.165-.022.294-.053.387-.094a.53.53 0 0 0 .202-.14.382.382 0 0 0 .062-.216v-13.953c0-.083-.02-.15-.062-.202a.456.456 0 0 0-.202-.155.927.927 0 0 0-.387-.093 5.305 5.305 0 0 0-.636-.03zm56.663 0c-.33 0-.6.01-.806.031-.196.021-.346.067-.45.14a.285.285 0 0 0-.139.248c.01.093.057.212.14.356l4.108 6.558-4.341 6.806a.893.893 0 0 0-.155.372c0 .093.041.17.124.233.093.062.233.103.419.124.196.03.444.046.744.046.29 0 .522-.01.697-.03.176-.011.316-.032.419-.063a.681.681 0 0 0 .248-.14.953.953 0 0 0 .155-.201l3.333-5.535 3.349 5.535c.041.072.088.14.14.202a.922.922 0 0 0 .247.14c.114.03.259.05.434.061.186.02.434.031.745.031.32 0 .578-.015.775-.046.206-.021.356-.062.45-.124.103-.062.154-.14.154-.233a.785.785 0 0 0-.124-.372l-4.31-6.883 4.078-6.48a1 1 0 0 0 .155-.388.222.222 0 0 0-.124-.233c-.093-.062-.238-.103-.434-.124a6.87 6.87 0 0 0-.729-.03c-.279 0-.501.01-.667.03-.155.01-.279.036-.372.078a.556.556 0 0 0-.201.124 1.117 1.117 0 0 0-.14.17l-3.224 5.194-3.178-5.194a.874.874 0 0 0-.14-.186.546.546 0 0 0-.232-.124 1.964 1.964 0 0 0-.435-.062 6.42 6.42 0 0 0-.713-.03zm15.131 0c-.248 0-.455.01-.62.031-.165.01-.3.042-.403.093a.456.456 0 0 0-.202.155.388.388 0 0 0-.046.202v13.953a.48.48 0 0 0 .046.217.53.53 0 0 0 .202.14c.103.04.238.071.403.092.165.02.372.031.62.031.259 0 .47-.01.636-.03.165-.022.294-.053.387-.094a.529.529 0 0 0 .202-.14.382.382 0 0 0 .062-.216v-6.124h7.116v6.124c0 .082.02.155.062.217a.53.53 0 0 0 .201.14c.093.04.222.071.388.092.165.02.377.031.635.031.249 0 .455-.01.62-.03.166-.022.295-.053.388-.094a.529.529 0 0 0 .202-.14.382.382 0 0 0 .062-.216v-13.953c0-.083-.021-.15-.062-.202a.456.456 0 0 0-.202-.155.927.927 0 0 0-.387-.093 5.143 5.143 0 0 0-.62-.03c-.259 0-.47.01-.636.03a.927.927 0 0 0-.388.093.456.456 0 0 0-.201.155.313.313 0 0 0-.062.202v5.674H319.5v-5.674c0-.083-.02-.15-.062-.202a.456.456 0 0 0-.202-.155.927.927 0 0 0-.387-.093 5.305 5.305 0 0 0-.636-.03zm77.065 0c-.238 0-.44.01-.604.031-.166.01-.3.036-.404.078a.456.456 0 0 0-.201.155.444.444 0 0 0-.047.201v13.984c0 .072.016.14.047.202a.468.468 0 0 0 .186.155c.093.03.212.056.357.077.144.02.33.031.558.031.196 0 .361-.01.496-.03.134-.011.243-.032.325-.063a.586.586 0 0 0 .217-.155c.062-.062.13-.134.202-.217l5.922-8.092c.29-.393.574-.786.853-1.179.29-.403.553-.811.79-1.224-.03.403-.057.816-.077 1.24-.02.413-.031.821-.031 1.225v8.03c0 .072.02.14.062.202a.453.453 0 0 0 .217.155c.103.03.238.056.403.077.165.02.372.031.62.031s.455-.01.62-.03c.166-.022.295-.047.388-.078a.456.456 0 0 0 .201-.155.356.356 0 0 0 .062-.202v-13.968a.382.382 0 0 0-.062-.217c-.03-.062-.093-.114-.186-.155a.964.964 0 0 0-.356-.078 3.944 3.944 0 0 0-.543-.03c-.217 0-.393.01-.527.03-.134.01-.253.036-.357.078a.734.734 0 0 0-.248.14 2.025 2.025 0 0 0-.186.216l-6 8.201c-.278.362-.542.734-.79 1.117-.238.372-.475.754-.713 1.147.03-.393.057-.786.077-1.178.021-.403.031-.807.031-1.21v-8.077c0-.155-.093-.268-.279-.34-.186-.083-.527-.125-1.023-.125zm17.177 0c-.237 0-.439.01-.604.031-.166.01-.3.036-.403.078a.456.456 0 0 0-.202.155.444.444 0 0 0-.046.201v13.984c0 .072.015.14.046.202a.468.468 0 0 0 .186.155c.093.03.212.056.357.077.145.02.33.031.558.031.196 0 .362-.01.496-.03.134-.011.243-.032.326-.063a.586.586 0 0 0 .217-.155c.062-.062.129-.134.201-.217l5.922-8.092c.29-.393.574-.786.853-1.179.29-.403.553-.811.79-1.224-.03.403-.056.816-.077 1.24-.02.413-.03.821-.03 1.225v8.03c0 .072.02.14.061.202a.454.454 0 0 0 .217.155c.103.03.238.056.403.077.166.02.372.031.62.031s.455-.01.62-.03c.166-.022.295-.047.388-.078a.456.456 0 0 0 .202-.155.356.356 0 0 0 .062-.202v-13.968a.382.382 0 0 0-.062-.217c-.031-.062-.093-.114-.187-.155a.964.964 0 0 0-.356-.078 3.944 3.944 0 0 0-.543-.03c-.217 0-.392.01-.527.03-.134.01-.253.036-.356.078a.734.734 0 0 0-.248.14 2.028 2.028 0 0 0-.186.216l-6 8.201c-.28.362-.543.734-.79 1.117-.238.372-.476.754-.714 1.147.031-.393.057-.786.078-1.178.02-.403.03-.807.03-1.21v-8.077c0-.155-.092-.268-.278-.34-.186-.083-.527-.125-1.024-.125zm-307.5.078a.795.795 0 0 0-.326.062.818.818 0 0 0-.248.17.707.707 0 0 0-.155.28 3.205 3.205 0 0 0-.077.387c-.197 1.767-.414 3.287-.651 4.558-.238 1.271-.502 2.361-.791 3.271-.28.9-.584 1.648-.915 2.248-.33.6-.687 1.132-1.07 1.597h-.992c-.237 0-.398.041-.48.124-.083.082-.124.253-.124.511v6.217c0 .072.015.13.046.17a.42.42 0 0 0 .186.125c.093.03.207.056.341.077.145.02.326.031.543.031.196 0 .362-.01.496-.03.134-.022.243-.047.326-.078.093-.031.155-.073.186-.124a.278.278 0 0 0 .046-.171v-4.682h12.573v4.682c0 .072.016.13.047.17a.42.42 0 0 0 .186.125c.093.03.206.056.34.077.135.02.306.031.512.031.197 0 .367-.01.512-.03.145-.022.258-.047.34-.078.094-.031.156-.073.187-.124a.278.278 0 0 0 .046-.171v-6.217c0-.258-.046-.429-.14-.511-.092-.083-.247-.124-.464-.124h-1.938v-11.659c0-.31-.072-.537-.217-.682-.134-.155-.326-.232-.574-.232h-7.751zm168.811 0a.329.329 0 0 0-.217.077.548.548 0 0 0-.17.217 1.845 1.845 0 0 0-.109.357c-.02.145-.03.31-.03.496 0 .207.01.388.03.543.031.144.067.263.109.356a.586.586 0 0 0 .155.217c.072.042.15.062.232.062h4.186v12.03a.48.48 0 0 0 .047.218.53.53 0 0 0 .201.14c.103.04.238.071.403.092.166.02.372.031.62.031.259 0 .47-.01.636-.03.165-.022.294-.053.387-.094a.529.529 0 0 0 .202-.14.382.382 0 0 0 .062-.216v-12.03h4.186a.41.41 0 0 0 .232-.063.586.586 0 0 0 .155-.217c.052-.093.088-.212.109-.356.02-.145.03-.32.03-.527 0-.187-.015-.352-.046-.497a1.388 1.388 0 0 0-.093-.372.414.414 0 0 0-.17-.217.329.329 0 0 0-.217-.077h-10.93zm110.071 0c-.248 0-.444.077-.59.232-.133.145-.2.372-.2.682V328.8a.48.48 0 0 0 .046.217.529.529 0 0 0 .201.14c.104.04.238.071.404.092.165.02.372.031.62.031.258 0 .47-.01.635-.03.166-.022.295-.053.388-.094a.53.53 0 0 0 .201-.14.382.382 0 0 0 .062-.216v-12.062h5.256c.083 0 .15-.02.201-.062a.456.456 0 0 0 .155-.201c.052-.093.088-.212.109-.357.03-.145.046-.32.046-.527 0-.196-.015-.362-.046-.496a1.037 1.037 0 0 0-.109-.357.453.453 0 0 0-.155-.217.273.273 0 0 0-.201-.077h-7.023zm-30.215.015c-.238 0-.424.078-.558.233-.124.145-.197.372-.217.682a87.24 87.24 0 0 1-.496 4.015 43.632 43.632 0 0 1-.559 3.039c-.196.868-.413 1.602-.65 2.201-.238.59-.492 1.07-.76 1.442-.269.362-.558.625-.868.79-.31.156-.636.233-.977.233a.48.48 0 0 0-.217.047.398.398 0 0 0-.14.186 2.09 2.09 0 0 0-.077.372c-.01.155-.016.356-.016.604 0 .238.01.435.031.59.021.144.052.258.093.34.042.083.093.14.155.171a.624.624 0 0 0 .248.047c.569 0 1.101-.088 1.597-.264.507-.176.972-.46 1.395-.853.435-.403.832-.93 1.194-1.58.362-.652.687-1.453.977-2.404.29-.95.548-2.067.775-3.348a53.85 53.85 0 0 0 .605-4.388H359V328.8c0 .082.021.155.062.217a.53.53 0 0 0 .202.14c.103.04.238.071.403.092a5.3 5.3 0 0 0 .636.031c.248 0 .454-.01.62-.03.165-.022.294-.053.387-.094a.53.53 0 0 0 .202-.14.382.382 0 0 0 .062-.216v-13.426c0-.31-.073-.537-.217-.682-.135-.155-.326-.233-.574-.233h-7.162zm-95.514 1.69c1.23 0 2.155.383 2.775 1.147.63.765.93 1.82.9 3.163h-7.566a5.67 5.67 0 0 1 .295-1.628 4.32 4.32 0 0 1 .744-1.38 3.59 3.59 0 0 1 1.193-.945c.476-.238 1.029-.357 1.66-.357zm35.037 0c1.23 0 2.155.383 2.775 1.147.63.765.93 1.82.9 3.163h-7.566c.02-.568.119-1.111.294-1.628.176-.527.424-.987.744-1.38a3.59 3.59 0 0 1 1.194-.945c.476-.238 1.028-.357 1.659-.357zm-201.848.14c.816 0 1.498.15 2.046.45.548.289.982.687 1.302 1.193a5.17 5.17 0 0 1 .683 1.767c.144.672.217 1.385.217 2.14 0 .806-.083 1.545-.248 2.217-.166.671-.424 1.25-.776 1.736a3.587 3.587 0 0 1-1.348 1.132c-.548.268-1.194.403-1.938.403-.817 0-1.499-.145-2.047-.434a3.672 3.672 0 0 1-1.317-1.194 5.404 5.404 0 0 1-.698-1.767 10.98 10.98 0 0 1-.202-2.155c0-.796.083-1.53.248-2.202.176-.672.44-1.25.791-1.736a3.566 3.566 0 0 1 1.333-1.147c.548-.269 1.2-.403 1.954-.403zm33.3 0c.817 0 1.499.15 2.046.45.548.289.982.687 1.303 1.193a5.17 5.17 0 0 1 .682 1.767c.145.672.217 1.385.217 2.14 0 .806-.083 1.545-.248 2.217-.166.671-.424 1.25-.775 1.736a3.587 3.587 0 0 1-1.35 1.132c-.547.268-1.193.403-1.937.403-.816 0-1.499-.145-2.046-.434a3.672 3.672 0 0 1-1.318-1.194 5.405 5.405 0 0 1-.698-1.767 10.98 10.98 0 0 1-.201-2.155c0-.796.082-1.53.248-2.202.175-.672.439-1.25.79-1.736a3.566 3.566 0 0 1 1.334-1.147c.547-.269 1.199-.403 1.953-.403zm16.743 0c.817 0 1.499.15 2.047.45.547.289.981.687 1.302 1.193a5.17 5.17 0 0 1 .682 1.767c.145.672.217 1.385.217 2.14 0 .806-.083 1.545-.248 2.217-.165.671-.424 1.25-.775 1.736a3.587 3.587 0 0 1-1.349 1.132c-.548.268-1.194.403-1.938.403-.816 0-1.498-.145-2.046-.434a3.672 3.672 0 0 1-1.318-1.194 5.405 5.405 0 0 1-.698-1.767 10.98 10.98 0 0 1-.201-2.155c0-.796.083-1.53.248-2.202.176-.672.44-1.25.79-1.736a3.566 3.566 0 0 1 1.334-1.147c.548-.269 1.199-.403 1.953-.403zm198.624 0c.816 0 1.498.15 2.046.45.548.289.982.687 1.302 1.193a5.17 5.17 0 0 1 .682 1.767c.145.672.218 1.385.218 2.14 0 .806-.083 1.545-.249 2.217-.165.671-.423 1.25-.775 1.736a3.587 3.587 0 0 1-1.348 1.132c-.548.268-1.194.403-1.938.403-.817 0-1.499-.145-2.047-.434a3.672 3.672 0 0 1-1.317-1.194 5.405 5.405 0 0 1-.698-1.767 10.98 10.98 0 0 1-.202-2.155c0-.796.083-1.53.248-2.202.176-.672.44-1.25.791-1.736a3.566 3.566 0 0 1 1.333-1.147c.548-.269 1.2-.403 1.954-.403zm32.37 0c.816 0 1.498.15 2.046.45.548.289.982.687 1.302 1.193a5.17 5.17 0 0 1 .683 1.767c.144.672.217 1.385.217 2.14 0 .806-.083 1.545-.248 2.217-.166.671-.424 1.25-.776 1.736a3.587 3.587 0 0 1-1.348 1.132c-.548.268-1.194.403-1.938.403-.817 0-1.499-.145-2.047-.434a3.672 3.672 0 0 1-1.317-1.194 5.404 5.404 0 0 1-.698-1.767 10.979 10.979 0 0 1-.201-2.155c0-.796.082-1.53.248-2.202.175-.672.439-1.25.79-1.736a3.566 3.566 0 0 1 1.333-1.147c.548-.269 1.2-.403 1.954-.403zm-330.91.062c.661 0 1.214.155 1.659.465.444.31.795.723 1.054 1.24.269.517.455 1.111.558 1.783.114.661.17 1.349.17 2.062 0 .65-.067 1.297-.201 1.938a6.086 6.086 0 0 1-.636 1.736c-.279.517-.65.93-1.116 1.24-.455.31-1.002.465-1.643.465-.693 0-1.354-.227-1.985-.682-.63-.455-1.297-1.11-2-1.969v-5.55c.404-.506.786-.93 1.148-1.271.361-.351.708-.63 1.038-.837a3.64 3.64 0 0 1 .977-.465c.32-.104.646-.155.977-.155zm33.858 0c.662 0 1.215.155 1.659.465.444.31.796.723 1.054 1.24.269.517.455 1.111.558 1.783.114.661.17 1.349.17 2.062 0 .65-.066 1.297-.2 1.938a6.086 6.086 0 0 1-.636 1.736c-.28.517-.651.93-1.116 1.24-.455.31-1.003.465-1.644.465-.692 0-1.354-.227-1.984-.682-.63-.455-1.297-1.11-2-1.969v-5.55c.403-.506.785-.93 1.147-1.271.362-.351.708-.63 1.039-.837a3.64 3.64 0 0 1 .977-.465c.32-.104.645-.155.976-.155zm96.863 0c.661 0 1.214.155 1.658.465.445.31.796.723 1.055 1.24.268.517.454 1.111.558 1.783.113.661.17 1.349.17 2.062 0 .65-.067 1.297-.201 1.938a6.086 6.086 0 0 1-.636 1.736c-.279.517-.651.93-1.116 1.24-.455.31-1.003.465-1.644.465-.692 0-1.353-.227-1.984-.682-.63-.455-1.297-1.11-2-1.969v-5.55c.403-.506.786-.93 1.147-1.271.362-.351.708-.63 1.04-.837a3.64 3.64 0 0 1 .976-.465c.32-.104.646-.155.977-.155zm-65.64.201h4.418v10.465h-7.565c.31-.383.61-.822.9-1.318.289-.506.562-1.158.82-1.953.27-.796.518-1.773.745-2.93.238-1.158.465-2.58.682-4.264zm129.59 5.194c.702 0 1.296.067 1.782.201.486.124.873.31 1.163.558.3.238.511.533.635.884.135.341.202.723.202 1.147 0 .89-.295 1.587-.884 2.093-.589.496-1.514.744-2.775.744-.506 0-.935-.015-1.287-.046a41.78 41.78 0 0 1-1.07-.109v-5.364c.342-.03.693-.057 1.055-.077.362-.021.754-.031 1.178-.031zm-48.184.697h2.186v2.961c-.63.703-1.235 1.225-1.814 1.566a3.55 3.55 0 0 1-1.86.512c-.827 0-1.473-.212-1.938-.636-.455-.434-.682-1.013-.682-1.736 0-.424.077-.796.232-1.116.166-.331.419-.61.76-.838.341-.237.77-.413 1.287-.527.516-.124 1.126-.186 1.829-.186zm48.896 26.092c-.692 0-1.338.067-1.938.201-.6.124-1.136.274-1.612.45a7.445 7.445 0 0 0-1.163.511c-.3.176-.49.305-.573.388a.897.897 0 0 0-.17.233c-.032.072-.063.16-.094.263a1.74 1.74 0 0 0-.062.372c-.01.145-.015.315-.015.512 0 .207.01.377.03.511.021.124.047.228.078.31a.506.506 0 0 0 .124.156.325.325 0 0 0 .17.046c.104 0 .28-.088.528-.264a9.972 9.972 0 0 1 2.45-1.132c.557-.175 1.198-.263 1.922-.263.92 0 1.741.15 2.465.45.723.3 1.338.734 1.844 1.302.507.558.905 1.245 1.194 2.062.29.806.47 1.716.543 2.728h-9.55a.329.329 0 0 0-.217.078.566.566 0 0 0-.17.201 1.14 1.14 0 0 0-.094.342c-.02.134-.03.304-.03.511 0 .186.01.352.03.496.021.135.052.248.093.341a.6.6 0 0 0 .171.186.382.382 0 0 0 .217.062h9.58c-.02 1.21-.165 2.264-.433 3.163-.259.9-.636 1.654-1.132 2.263a4.65 4.65 0 0 1-1.783 1.38c-.703.31-1.504.465-2.403.465-.889 0-1.648-.093-2.279-.279-.63-.186-1.152-.393-1.565-.62a7.445 7.445 0 0 1-.977-.62c-.238-.186-.414-.28-.527-.28-.166 0-.28.084-.341.249-.062.165-.093.403-.093.713 0 .248.005.455.015.62.01.166.026.305.047.419.03.103.067.196.108.279.042.072.135.176.28.31.154.134.418.3.79.496.382.196.816.372 1.302.527.496.145 1.018.258 1.566.341.548.093 1.09.14 1.628.14 1.436 0 2.692-.233 3.767-.698a7.187 7.187 0 0 0 2.728-2.015c.734-.89 1.282-1.98 1.644-3.271.372-1.303.558-2.786.558-4.45 0-1.602-.191-3.033-.574-4.294-.382-1.271-.94-2.341-1.674-3.21a7.114 7.114 0 0 0-2.729-1.984c-1.074-.465-2.3-.697-3.674-.697zm20.526.03c-1.312 0-2.511.238-3.597.714a7.697 7.697 0 0 0-2.775 2.077c-.775.9-1.38 2-1.813 3.302-.424 1.303-.636 2.786-.636 4.45 0 1.622.196 3.059.59 4.31.402 1.24.97 2.284 1.704 3.131a7.204 7.204 0 0 0 2.682 1.923c1.055.434 2.233.65 3.535.65.755 0 1.447-.072 2.077-.216.641-.135 1.205-.3 1.69-.496.496-.207.91-.414 1.24-.62.331-.218.548-.378.652-.481.103-.104.175-.191.217-.264a.883.883 0 0 0 .093-.248c.03-.093.051-.201.062-.325.01-.124.015-.27.015-.434 0-.238-.01-.435-.03-.59a1.313 1.313 0 0 0-.063-.356c-.03-.093-.072-.155-.124-.186a.355.355 0 0 0-.186-.047c-.155 0-.367.099-.635.295-.27.196-.615.418-1.04.667-.413.237-.919.454-1.518.65-.59.197-1.282.295-2.078.295-.94 0-1.783-.165-2.527-.496a5.096 5.096 0 0 1-1.891-1.488c-.507-.662-.9-1.478-1.178-2.45-.27-.981-.403-2.108-.403-3.38 0-1.28.139-2.418.418-3.41.29-1.002.693-1.85 1.21-2.542a5.074 5.074 0 0 1 1.86-1.566c.733-.362 1.545-.543 2.434-.543.816 0 1.514.104 2.093.31.589.197 1.085.419 1.488.667.413.238.75.46 1.007.667.259.196.46.294.605.294.083 0 .15-.02.202-.062a.586.586 0 0 0 .155-.217c.041-.103.072-.227.093-.372.02-.145.03-.32.03-.527 0-.186-.01-.346-.03-.48a1.44 1.44 0 0 0-.062-.342.876.876 0 0 0-.093-.263 1.578 1.578 0 0 0-.28-.31c-.134-.145-.382-.326-.744-.543a6.9 6.9 0 0 0-1.24-.574c-.465-.165-.971-.3-1.52-.403a8.294 8.294 0 0 0-1.689-.17zm-42.493.249c-.083 0-.16.02-.233.062a.456.456 0 0 0-.155.201 1.818 1.818 0 0 0-.108.372 3.67 3.67 0 0 0-.032.512c0 .196.01.367.032.512.03.144.067.263.108.356a.468.468 0 0 0 .155.186c.072.042.15.062.233.062h5.643v17.395c0 .082.02.155.062.217a.454.454 0 0 0 .217.155c.103.03.243.056.418.077.176.031.388.047.636.047.258 0 .47-.016.636-.047.175-.02.315-.046.418-.077a.454.454 0 0 0 .217-.155.382.382 0 0 0 .062-.217v-17.395h5.643c.083 0 .155-.02.217-.062a.427.427 0 0 0 .17-.186c.052-.093.089-.212.11-.356a3.67 3.67 0 0 0 .03-.512c0-.196-.01-.367-.03-.512a1.061 1.061 0 0 0-.11-.372.417.417 0 0 0-.17-.201.382.382 0 0 0-.217-.062H214.84zm-15.767 5.023c-.537 0-1.07.051-1.597.155a9.367 9.367 0 0 0-1.457.372c-.444.145-.837.31-1.178.496-.341.176-.584.33-.729.465a.968.968 0 0 0-.263.434 3.042 3.042 0 0 0-.047.605c0 .155.01.3.031.434.02.124.052.227.093.31a.6.6 0 0 0 .17.186.382.382 0 0 0 .218.062c.124 0 .31-.072.558-.217.258-.155.573-.32.946-.496a8.388 8.388 0 0 1 1.317-.496 5.817 5.817 0 0 1 1.706-.233c.589 0 1.085.072 1.488.217.403.135.728.341.977.62.258.269.444.61.558 1.023.113.414.17.89.17 1.427v1.085h-1.922c-1.085 0-2.062.098-2.93.295-.868.186-1.602.47-2.202.852-.6.383-1.059.863-1.38 1.442-.32.579-.48 1.26-.48 2.046 0 .672.114 1.272.341 1.799.238.527.563.971.977 1.333.423.362.93.636 1.519.822a6.4 6.4 0 0 0 2 .294c.837 0 1.628-.18 2.372-.542a6.854 6.854 0 0 0 2.046-1.52v1.396c0 .124.036.217.109.279a.753.753 0 0 0 .34.14c.166.03.383.046.652.046.279 0 .49-.016.636-.047a.87.87 0 0 0 .34-.14c.083-.061.125-.154.125-.278v-9.41c0-.869-.099-1.629-.295-2.28-.196-.65-.511-1.193-.946-1.627-.434-.445-1.002-.78-1.705-1.008-.703-.228-1.555-.341-2.558-.341zm-20.727.217c-.248 0-.455.01-.62.03-.166.011-.3.042-.403.094a.456.456 0 0 0-.202.155.388.388 0 0 0-.047.201v13.953a.48.48 0 0 0 .047.217.53.53 0 0 0 .202.14c.103.04.237.072.403.093.165.02.372.03.62.03.258 0 .47-.01.635-.03.166-.021.295-.052.388-.093a.53.53 0 0 0 .201-.14.382.382 0 0 0 .062-.217v-6.124h7.116v6.124c0 .083.021.155.062.217a.53.53 0 0 0 .202.14c.093.04.222.072.387.093a5.3 5.3 0 0 0 .636.03c.248 0 .455-.01.62-.03.166-.021.295-.052.388-.093a.53.53 0 0 0 .201-.14.382.382 0 0 0 .062-.217v-13.953c0-.082-.02-.15-.062-.201a.456.456 0 0 0-.201-.155.927.927 0 0 0-.388-.093 5.143 5.143 0 0 0-.62-.031c-.258 0-.47.01-.636.03a.927.927 0 0 0-.387.094.456.456 0 0 0-.202.155.313.313 0 0 0-.062.201v5.674h-7.116v-5.674c0-.082-.02-.15-.062-.201a.456.456 0 0 0-.201-.155.927.927 0 0 0-.388-.093 5.305 5.305 0 0 0-.635-.031zm21.502 8.077h2.186v2.96c-.63.704-1.235 1.226-1.814 1.567a3.55 3.55 0 0 1-1.86.511c-.827 0-1.473-.212-1.938-.635-.455-.434-.682-1.013-.682-1.737 0-.423.078-.795.233-1.116.165-.33.418-.61.76-.837.34-.238.77-.413 1.286-.527.517-.124 1.126-.186 1.83-.186z" font-weight="400" font-size="120" font-family="Calibri" letter-spacing="0" word-spacing="0" text-anchor="middle" fill="#2f3947"/></svg>