<svg xmlns="http://www.w3.org/2000/svg" width="622.684" height="566.006" viewBox="0 0 164.75169 149.75584"><g opacity=".075" fill="#333"><path d="M71.412 148.525c-3.577-.685-6.468-2.135-9.32-4.676-2.793-2.489-4.1-4.45-5.085-7.632-.705-2.278-.848-5.918-.317-8.057 1.9-7.649 9.124-13.13 17.825-13.525 5.783-.262 10.366 1.299 14.504 4.94l2.405 2.116v3.205c0 2.592-.09 3.235-.466 3.364-.256.088-.465.414-.465.724 0 .78-.755.708-1.368-.13-.535-.73-1.735-.955-1.735-.324 0 .203-.358.54-.795.75-.927.444-1.478.223-2.235-.898-.475-.701-.47-.785.063-1.313.454-.449.494-.647.199-.966-.205-.22-.329-.62-.276-.889.062-.31-.15-.546-.577-.645-1.008-.236-2.858-2.736-2.356-3.185.407-.364 1.324-.145 1.333.32.01.453.037.454.407.018.219-.257.76-.549 1.202-.648 3.541-.796-3.43-4.03-8.654-4.015-3.077.009-4.574.322-7.515 1.573-1.637.696-2.18 1.041-1.775 1.128.32.068.67.01.775-.132.106-.14.427-.333.713-.427.595-.196 1.403.475.904.751-.171.095-.238.344-.149.552.09.21.014.462-.168.563-.522.289-.39.652.311.851.38.108.576.34.479.566-.09.211.024.552.254.758.293.262.328.519.117.856-.202.323-.186.605.048.857.269.29.116.672-.668 1.667-.76.966-1.009 1.567-.985 2.386.028.932-.063 1.096-.61 1.096-.64 0-3.001-1.298-3.001-1.65 0-.102-.488-.662-1.084-1.245-1.054-1.03-1.105-1.047-1.85-.61-.422.248-.966.45-1.208.45-.442 0-.552.434-1 3.957l-.204 1.597h1.122c1.2 0 1.348-.23.734-1.132-.329-.48-.3-.627.185-.949.315-.209.783-.308 1.04-.22.256.088.587-.014.735-.227.22-.316.386-.324.896-.04.344.19.82.346 1.057.346.238 0 .59.171.784.38.268.29.238.464-.124.733-.27.2-.4.573-.298.858.098.277-.05.815-.33 1.197-.279.381-.507 1.253-.507 1.939 0 .926-.106 1.208-.415 1.102-.229-.078-.72.13-1.091.462-.528.473-.593.674-.296.924.287.241.415.235.522-.027.098-.238.518-.293 1.34-.176.897.129 1.453.032 2.223-.385.733-.397 1.762-.593 3.593-.682 2.489-.12 2.572-.105 2.75.53.1.359.105.932.009 1.273-1.21 4.281-1.292 4.941-.727 5.821.39.608.452.942.216 1.153-.58.52-1.335-.191-2.581-2.427-.706-1.267-1.375-2.123-1.66-2.123-.737 0-2.28-1.093-2.28-1.615 0-.366-.251-.454-1.163-.404-1.611.088-3.182.381-3.172.593.026.604 2.431 2.954 4.086 3.992 5.36 3.364 11.3 3.856 16.993 1.409 3.192-1.373 6.15-4.016 7.61-6.8.88-1.681 1.068-1.893 1.077-1.22.005.449-.297 1.384-.673 2.08-.376.694-.742 1.992-.814 2.883-.13 1.597-.157 1.639-2.031 3.035-4.625 3.446-10.602 4.765-16.483 3.639zm24.958.214c-4.69-1.369-6.851-5.73-4.685-9.45.647-1.11.67-1.465.67-10.4 0-10.025.118-10.92 1.682-12.756.898-1.053 2.73-1.857 4.231-1.857 1.126 0 2.983.81 3.923 1.712 1.575 1.512 1.643 2.019 1.643 12.276v9.564l.828 1.427c1.905 3.286.515 7.276-3.117 8.948-1.344.618-3.964.89-5.175.536zm4.143-2.993c2.096-.959 2.714-3.957 1.206-5.853-.665-.835-.677-1.026-.677-10.605 0-11.37-.095-11.828-2.56-12.382-.705-.158-1.034-.025-1.937.783l-1.088.974v10.26c0 9.92-.02 10.275-.623 10.763-1.575 1.276-1.443 4.046.263 5.509 1.523 1.306 3.357 1.493 5.416.551zm-4.363-1.42c-1.43-1.195-1.528-2.21-.4-4.1l.948-1.592v-17.971H99.8l.002 9.233v9.233l.765 1.11c1.105 1.606 1.025 2.755-.271 3.916-1.373 1.229-2.811 1.288-4.147.171zm-12.63-3.108c-.306-.301-.812-.62-1.125-.71-.314-.089-.7-.584-.86-1.1-.159-.517-.447-1.103-.64-1.303-.193-.2-.537-.605-.763-.897-.402-.521-.436-.52-1.566.106-1.035.572-1.283.605-2.366.315-.665-.179-1.365-.584-1.554-.9-.408-.683-.133-2.318.55-3.266.446-.62.442-.655-.062-.482-1.146.394-1.891-1.052-.915-1.777.36-.268.387-.409.104-.565-.27-.15-.144-.454.45-1.087.455-.484.827-1.095.827-1.358 0-.263.172-.632.382-.82.301-.27.23-.324-.344-.263-1.048.112-1.566-.706-.878-1.386.292-.289.53-.798.53-1.133 0-1.19 1.964-3.374 3.033-3.374.154 0 .467.531.694 1.18.227.65.787 1.555 1.246 2.013.458.458.918 1.052 1.023 1.32.123.315.513.485 1.112.485 1.048 0 1.351.265.956.837a.58.58 0 0 0 .047.738c.352.38.069 1.02-.348.79-.562-.312-1.334.27-1.885 1.42-.42.875-.71 1.16-1.06 1.04-.265-.092-.696-.008-.957.186-.36.267-.561.275-.833.031-.565-.505-1.397-.377-1.924.296-.714.912-.595 1.056.474.579.562-.251 1.368-.368 1.95-.284.56.081 1.324-.021 1.757-.235 1.301-.645 2.16-.47 3.624.736 1.083.894 1.537 1.1 2.129.967.897-.202.962.157.29 1.595-.277.595-.384 1.335-.267 1.857.346 1.549-1.086 4.998-2.075 4.998-.111 0-.452-.247-.757-.549zm-5.091-14.67c.217-.511.19-.763-.102-.926-.287-.16-.427.01-.497.602-.06.509-.275.825-.561.825-.255 0-.382.12-.28.266.296.43 1.117-.008 1.44-.767zM60.638 54.123c-.801-.138-2.393-.612-3.537-1.054-2.074-.8-2.09-.803-5.41-.94-5.346-.223-6.188-.622-5.069-2.404.552-.878.404-1.56-.422-1.941-.329-.152-1.682-.448-3.008-.657-2.738-.432-3.463-.67-3.463-1.135 0-.379.975-1.16 2.057-1.648 1.23-.556 3.37-.946 5.186-.946h1.703v-7.931c0-9.164-.1-8.674 1.977-9.579 1.67-.727 3.302-1.08 5.929-1.285 5.491-.428 11.12.779 12.18 2.611.25.435.302 1.856.302 8.324v7.8l1.197.299c1.476.37 1.933.66 1.975 1.254.018.254.131.524.251.6.12.074 1.316.137 2.658.139 3.414.004 4.53.44 4.53 1.768 0 1.021-1.74 1.775-4.785 2.073-.744.073-1.212.172-1.04.22.658.188 2.314 1.406 2.612 1.922.604 1.044-.474 1.761-3.5 2.328-2.13.398-10.36.52-12.323.182zm-4.375-5.744c.214-.538.654-1.494.977-2.125.616-1.199.697-1.448.427-1.298-.274.151-3.2-.378-4.474-.81-.662-.224-1.621-.693-2.132-1.042l-.93-.634v1.912c0 2.184.107 2.403 1.61 3.329.785.483 3.555 1.613 4.019 1.64.063.003.29-.434.503-.972zm2.734-5.667c.387-.839.833-2.02.99-2.627l.288-1.103-2.42-.11c-3.147-.144-5.876-.913-7.255-2.044l-.468-.384.003 2.593c.002 1.426.072 2.68.156 2.788.895 1.148 5.042 2.534 7.302 2.44.673-.028.728-.088 1.404-1.553zm1.069-4.488c.367-.112.327-1.521-.074-2.593-.49-1.309-1.203-2.038-2.616-2.677-.693-.313-1.459-.762-1.703-.998-.284-.274-.897-.512-1.693-.659-1.083-.2-2.05-.483-3.484-1.022-.338-.127-.364.068-.364 2.66v2.796l.651.49c.868.654 1.912 1.118 3.372 1.497 1.868.486 5.073.76 5.91.506zm7.482-1.296c-.048-.282-.087-.052-.087.512 0 .563.04.793.087.512a3.689 3.689 0 0 0 0-1.024zm-.007-1.758c-.066-.148-.116-.104-.126.113-.009.196.04.306.11.244.069-.062.076-.222.016-.357zM55.533 29.91c-.167-.148-1.053-.554-1.969-.903-2.513-.956-2.251-1.621.638-1.621.736 0 2.204-.136 3.263-.301 2.484-.39 7.304-.441 8.166-.089l.624.256-1.144.308c-.86.232-1.05.341-.764.44.21.072.584.131.833.132.248 0 .757.167 1.132.372.835.455.814.455 1.087 0 .679-1.136-1.96-2.208-6.434-2.616-4.789-.436-10.56.736-10.795 2.193-.048.3.154.526.799.89.858.486 3.378 1.178 4.356 1.198.449.009.475-.023.208-.26zM19.286 118.38c-.57-.43-1.04-1.11-1.16-1.68-.197-.94-.23-.959-1.981-1.041l-1.78-.084-.094-1.905-.093-1.904h1.92V97.092H58.98v14.674h1.892v3.95h-1.892c-1.827 0-1.892.025-1.892.734 0 1.132-1.865 2.653-3.255 2.653-1.464 0-2.96-1.118-3.233-2.416-.112-.534-.33-.97-.483-.97-.154 0-.264.095-.243.211.26 1.478-1.255 3.175-2.836 3.175-1.952 0-3.508-1.246-3.508-2.808 0-.563-.161-.579-5.99-.579h-5.99v.734c0 1.155-1.866 2.653-3.304 2.653-1.512 0-3.003-1.25-3.003-2.518 0-1.172-.511-1.104-.764.102-.266 1.272-1.77 2.416-3.177 2.416-.672 0-1.403-.263-2.015-.723zm6.744-12.54v-4.797h-2.049v9.594h2.049zm8.356 0v-4.798h-2.207V110.637h2.207zm8.513 0v-4.798h-2.207V110.637h2.207zm8.197 0v-4.798h-2.049V110.637h2.049zM21.143 94.99c0-.223.337-.757.748-1.184.56-.583 1.033-.778 1.89-.778.83 0 1.193-.141 1.326-.516.278-.783 1.557-1.401 2.72-1.314.627.047 1.41-.139 1.967-.467.541-.32 1.546-.565 2.42-.59.822-.025 1.611-.107 1.754-.183.787-.416 2.35-.479 3.302-.132.752.274 1.298.306 1.894.111.862-.28 2.789.192 2.789.685 0 .129.674.166 1.498.081 1.234-.126 1.62-.05 2.193.437.426.36 1.113.59 1.77.59.624 0 1.558.295 2.234.705.638.388 1.377.706 1.64.706 1.065 0 2.614 1.12 2.636 1.905.008.277-3.474.352-16.385.352-14.083 0-16.396-.057-16.396-.407zM142.83 72.075c-2.17-5.944-4.142-14.863-5.228-23.635-.479-3.87-.898-5.588-1.492-6.121-.724-.649-2.33-.757-12.93-.871-7.472-.08-12.61.042-13.424.32-1.76.598-2.086 1.505-2.767 7.68-1.03 9.333-3.599 20.174-6.087 25.688l-1.135 2.514h32.984l.306-1.366c.168-.752.33-4.048.362-7.324.03-3.277.153-5.564.27-5.083 1.144 4.663 2.851 10.282 3.602 11.848l.921 1.925H144.865zm-46.354 3.981c2.412-5.166 4.716-13.89 6.102-23.11.29-1.924.634-3.94.765-4.481l.238-.984h-7.547c-6.21 0-7.683.122-8.314.687-.422.378-.768.95-.768 1.271 0 1.524-1.65 11.808-2.458 15.313-.748 3.25-2.2 7.976-3.726 12.133-.26.707.3.765 7.342.765h7.622zm2.445-38.007c11.04-2.72 13.747-3.248 16.655-3.248 3.311 0 6.96.9 9.068 2.238 1.918 1.217 2.017 1.038.703-1.282-1.495-2.641-4.496-5.092-8.048-6.574-2.335-.974-3.402-1.143-7.142-1.131-3.96.013-5.077.224-11.236 2.12-10.34 3.186-15.974 3.23-20.885.162-.738-.462-1.343-.714-1.343-.56 0 .716 3.143 4.242 5.401 6.059 4.352 3.502 9.08 4.124 16.827 2.215zm-8.568-8.378c.661-.111 3.739-1.004 6.84-1.984 3.1-.98 7.175-2.111 9.056-2.512l3.42-.73-2.891-.777c-1.884-.506-3.683-.693-5.166-.536-2.163.23-3.42.593-13.194 3.815-3.368 1.11-4.694 1.335-7.02 1.191-2.478-.153-2.745-.099-1.976.405 1.924 1.259 7.016 1.784 10.93 1.128zM65.052 108.105c.308-1.132 1.056-2.077 1.966-2.486.478-.215.933-.616 1.011-.892.245-.855 2.112-2.325 3.327-2.62.98-.237 1.177-.4 1.441-1.197.887-2.675 4.484-4.166 7.143-2.96l.971.44.887-.666c2.157-1.62 5.415-1.4 7.197.484.435.46.855.685 1.114.595.673-.233 2.281.362 2.982 1.103.434.46 1.027.743 1.792.857 1.726.257 3.562 1.51 4.528 3.09.454.743 1.165 1.524 1.58 1.736.895.457 1.86 1.776 1.863 2.548l.004.55-18.994.045-18.994.045zM64.35 97.27c1.327-1.036 3.323-1.915 4.752-2.094.966-.12 1.265-.279 1.502-.792.552-1.2 4.377-4.264 4.825-3.866.08.072-.292.537-.827 1.033-1.491 1.382-2.347 3.126-2.342 4.774l.004 1.39-1.014-.459c-1.467-.665-3.886-.597-5.945.167-.9.335-1.696.604-1.772.6-.075-.005.293-.344.817-.753zm32.197-.5c-.005-1.219-1.423-2.734-3.422-3.653-.86-.395-.964-.505-.49-.515.98-.02 3.49.916 4.158 1.549.54.513.72.553 1.442.326.874-.275 4.44.13 4.722.537.078.112-.55.206-1.396.208-1.857.005-2.953.363-4.128 1.352-.853.718-.885.725-.886.196zM82.059 84.864c-1.357-.609-2.108-.666-3.653-.278-.576.145-1.116.203-1.199.13-.297-.266 2.812-1.37 3.87-1.374.86-.004 1.277-.177 2.044-.847.855-.747 3.553-2.044 3.554-1.709 0 .071-.623.646-1.386 1.277-1.033.855-1.466 1.428-1.699 2.248l-.312 1.1zM30.16 86.326c-3.277-.671-6.456-2.325-9.156-4.763-9.729-8.783-6.664-23.706 5.913-28.79 8.736-3.533 19.322-.27 24.191 7.457 4.432 7.032 2.939 16.12-3.576 21.764-1.957 1.696-5.23 3.387-7.927 4.097-1.501.395-7.888.554-9.444.235zm.303-7.051c1.733-.734 3.11-1.88 3.467-2.89.181-.511.725-.734.725-.297 0 .122.524.755 1.163 1.405 1.313 1.335 3.73 2.533 5.056 2.506.807-.016.77-.05-.42-.385-1.619-.455-3.374-1.921-4.159-3.477-.719-1.424-.753-3.607-.077-5 .626-1.294.596-1.37-.297-.741-.914.643-2.206.697-2.854.117-.694-.621-.792-.317-.3.932 1.393 3.533-.726 7.226-4.78 8.33l-.726.198.725.022c.399.012 1.513-.312 2.477-.72zm1.873-4.038c0-.06.072-.277.16-.484.11-.256-.097-.423-.652-.526-2.14-.398-4.142-3.186-3.768-5.246.105-.582.031-.905-.229-.994-.6-.206-.731.073-.731 1.57 0 1.59.447 2.708 1.551 3.88.884.938 3.669 2.304 3.669 1.8zm6.256-.716c1.973-1.042 3.375-3.899 2.887-5.885-.311-1.27-1.024-.758-1.024.736 0 .681-.19 1.645-.421 2.141-.454.972-2.067 2.383-3.04 2.66-.342.097-.599.392-.599.689 0 .6.59.508 2.197-.341zm-19.668-.927c.035-2.524 1.185-4.255 3.678-5.535 2.588-1.329 6.205-.938 8.343.902.896.77 1.39.863 1.39.26 0-.228.381-.733.847-1.122.998-.835.868-1.106-.727-1.523-5.16-1.348-6.695-7.16-2.81-10.636 1.369-1.226 1.199-1.226-.562 0-.659.458-1.446 1.42-2.03 2.481-.802 1.46-.947 2-.919 3.434.02 1.045.224 2.032.529 2.56.273.471.453.887.402.923-.052.037-.838.196-1.747.354-3.897.679-6.91 3.795-6.898 7.133.004.97.243 2.261.419 2.261.035 0 .073-.671.085-1.492zm31.375-2.071c-.434-1.735-1.267-3.009-2.71-4.146-1.365-1.075-2.733-1.56-5.102-1.812l-1.424-.151.604-1.06c1.383-2.426.896-5.9-1.1-7.858l-1.024-1.005.793.988c2.186 2.724 1.672 6.44-1.205 8.706-1.16.913-2.871 1.596-4.002 1.596-.747 0-.577.959.202 1.134.371.083.825.446 1.008.806.398.782.944.835 1.627.16.275-.272 1.171-.753 1.991-1.069 1.204-.463 1.862-.55 3.418-.45 3.974.254 6.544 2.681 6.668 6.297l.045 1.297.25-1.14a5.444 5.444 0 0 0-.039-2.293zm-15.963-7.334c.89.002 1.76.221 2.617.66 1.114.57 1.337.607 1.699.283.361-.323.235-.467-.962-1.095-2.325-1.22-5.342-1.14-7.232.19-.578.407-.68.612-.433.877.262.283.56.231 1.649-.286.858-.409 1.8-.631 2.662-.63zM129.494 97.597c-.035-.058-.064-.404-.064-.767 0-.62.009-.666.137-.746a.567.567 0 0 1 .238-.086c.253 0 .257-.057.242-3.341l-.002-.454h-1.84c-2.013 0-1.98-.006-2.062.329-.023.09-.064.177-.091.192-.028.016-.416.034-.862.041-.738.012-.82.003-.898-.093a.386.386 0 0 1-.086-.196c0-.05-.05-.132-.112-.182-.103-.084-.624-.091-6.233-.091-3.367 0-6.165.015-6.218.033-.054.019-.098.093-.098.165a.384.384 0 0 1-.123.242c-.11.099-.204.11-.95.11-.755 0-.833-.01-.891-.107a.57.57 0 0 1-.064-.247.453.453 0 0 0-.015-.153c-.009-.006-1.758-.025-3.888-.041l-3.872-.03-.53-.17c-1.056-.338-2.018-1.09-2.502-1.957-.474-.849-.46-.726-.498-4.407-.037-3.507-.026-3.391-.322-3.394-.25-.002-.296-.14-.296-.874 0-.47.024-.721.074-.766.055-.05 1.053-.066 4.113-.066 3.59 0 4.05.01 4.136.087.078.069.097.22.096.756 0 .368-.022.7-.048.736-.026.037-.157.099-.291.138l-.244.071-.016 1.72-.016 1.718h1.962c1.08 0 2.006-.015 2.06-.033.053-.019.097-.094.097-.168 0-.075.072-.194.163-.27.153-.127.203-.134.891-.134.833 0 .974.059.974.406 0 .146.03.193.138.218.076.018 1.286.027 2.689.02l2.551-.012.018-.363.018-.363-.356-.116c-.944-.308-1.743-1.023-2.094-1.872-.188-.453-.253-1.294-.138-1.76.285-1.149 1.31-2.11 2.564-2.402.454-.106 1.306-.105 1.773.002 1.286.293 2.304 1.248 2.579 2.419.113.484.114.834.002 1.306-.241 1.019-1.122 1.936-2.21 2.3l-.343.115v.348c0 .241.026.356.084.376.045.016 1.21.031 2.589.035 2.172.006 2.525-.005 2.651-.079.08-.047.146-.134.146-.194s.056-.158.123-.219c.11-.098.205-.11.849-.11.808 0 .88.025.99.338.047.13.12.212.207.233.075.018 1.699.033 3.609.034 3.755.002 3.823.006 4.623.308 1.194.45 2.049 1.295 2.49 2.462l.169.448.018 3.381c.017 3.018.03 3.392.118 3.48.054.053.132.098.172.098.04 0 .119.045.175.1.083.082.102.226.102.787 0 .46-.025.707-.074.752-.056.05-1.06.066-4.147.066-3.963 0-4.074-.003-4.136-.107zm-30.18-12.16V82.52h-.43V88.352h.43zm24.625 1.196l-.01-.179-5.946-.014-5.946-.014v.386h11.912zm8.994-.027v-.207h-6.459l-.034.124c-.085.302-.233.289 3.265.289h3.228zm-21.941-.427c0-.204-.005-.206-.584-.206-.45 0-.461.005-.461.206v.193h1.045zm14.75.004v-.188l-.522-.018-.523-.018v.413h1.045v-.188zm-7.363-1.908a2.581 2.581 0 0 0 1.283-.649c.746-.668.989-1.557.651-2.39-.261-.644-.733-1.103-1.434-1.397-.322-.136-.426-.15-1.034-.15-.858 0-1.2.11-1.764.574-.301.247-.446.42-.607.727-.2.383-.21.434-.21 1.009 0 .564.012.63.19.962.542 1.012 1.722 1.542 2.925 1.314zm-.748-1.825c-.217-.097-.3-.336-.182-.524.051-.08.152-.155.226-.165.088-.011.3-.226.638-.645.278-.346.514-.622.524-.612.01.009-.122.312-.294.673-.222.464-.312.723-.306.882.011.334-.295.531-.606.391zm-2.03-.34c0-.158.153-.211.529-.184.21.016.242.036.26.169l.018.151h-.403c-.389 0-.404-.005-.404-.136zm3.7-.015c.018-.143.038-.152.365-.168.343-.016.346-.015.373.152l.028.167h-.393c-.393 0-.393 0-.374-.151zm-3.053-1.058c-.235-.215-.236-.22-.124-.331l.114-.113.263.23c.213.188.25.25.201.332-.09.15-.19.125-.454-.118zm2.898.12c-.095-.094-.084-.114.164-.332l.264-.232.114.113c.113.111.11.116-.124.331-.131.12-.256.22-.278.22-.022 0-.085-.046-.14-.1zm-1.49-.61c-.014-.013-.026-.169-.026-.345 0-.32 0-.321.184-.321h.184v.357c0 .349-.003.357-.157.345a.527.527 0 0 1-.184-.036zm-18.772.943v-.454h-.43v.908h.43zM110.619 135.17c0-1.314.03-1.381.633-1.381.515 0 .68-.161.887-.864.363-1.237 3.132-11.948 3.407-13.182.321-1.44 1.29-8.329 1.184-8.423-.212-.19-3.853-.58-4.008-.431-.096.092-.029.213.148.27.215.069.322.63.322 1.695v1.593H111.39v-1.598c0-.88.116-1.663.257-1.74.493-.273.252-.526-.643-.676-.786-.132-.9-.238-.9-.825v-.674l3.537-.064 3.537-.064.523-3.769c.345-2.488.433-3.792.257-3.84-.146-.039-1.01-.18-1.92-.314-1.592-.234-2.21-.174-1.682.164.137.088.252.86.255 1.714l.005 1.555h-1.94v-1.612c0-.921.11-1.612.258-1.612.141 0 .257-.149.257-.33 0-.206-.318-.36-.836-.404-.74-.064-.836-.151-.835-.763l.002-.69 9.81-.06 9.809-.061.114.695c.138.841.062.922-.87.922-.476 0-.728.12-.728.346 0 .19.117.345.26.345.155 0 .24.65.211 1.612l-.048 1.612h-1.896l.01-1.555c.005-.855.13-1.626.278-1.714.552-.328-.027-.356-1.902-.092-1.062.15-1.916.37-1.898.492.017.121.241 1.853.497 3.847l.466 3.627h7.109v.665c0 .578-.118.685-.9.816-.54.09-.9.286-.9.486 0 .185.115.335.256.335.147 0 .258.691.258 1.612v1.612H129.658v-1.593c0-1.065.106-1.626.321-1.695.177-.057.238-.184.135-.283-.283-.271-4.058.365-4.058.685 0 .15.29 2.181.644 4.515.401 2.642 1.307 6.76 2.402 10.92 1.738 6.603 1.765 6.678 2.443 6.75.656.07.685.132.685 1.44v1.366H110.62zm14.59-5.855c-2.01-2.461-3.714-4.477-3.785-4.48-.07-.002-1.775 2.011-3.788 4.475l-3.66 4.479h14.888zm-6.42-3.2l1.88-2.263-1.6-1.934c-.88-1.064-1.637-1.902-1.682-1.862-.086.077-2.909 10.886-2.909 11.138 0 .082.547-.519 1.216-1.334.668-.815 2.061-2.5 3.095-3.745zm8.144-.52c-.792-3.029-1.471-5.536-1.51-5.57-.037-.036-.78.812-1.65 1.884l-1.583 1.949 3.02 3.685c1.662 2.026 3.053 3.656 3.092 3.621.039-.035-.577-2.541-1.37-5.57zm-3.563-5.075c1.16-1.442 1.755-2.388 1.7-2.706-.083-.474-3.387-5.19-3.646-5.202-.237-.013-3.41 4.459-3.612 5.092-.174.543.038.914 1.62 2.829 1.001 1.212 1.896 2.203 1.987 2.203.092 0 .97-.997 1.951-2.216zm-3.522-10.145l-.852-1.109-.294 1.612a65.373 65.373 0 0 0-.453 2.878l-.16 1.267 1.306-1.77 1.305-1.77zm4.526 1.996c-.198-1.328-.364-2.62-.369-2.872-.006-.32-.282-.092-.921.757l-.913 1.213 1.203 1.728c.662.95 1.239 1.697 1.282 1.658.043-.039-.084-1.157-.282-2.484zm-7.323-2.184c0-.278-.364-.34-1.865-.316l-1.866.03 1.544.29c2.085.393 2.187.393 2.187-.004zm5.597-1.248l1.094-1.574-1.094-1.632c-.602-.897-1.153-1.635-1.225-1.64-.071-.004-.633.741-1.248 1.656-.87 1.294-1.057 1.742-.841 2.015.153.193.656.892 1.12 1.553.463.661.9 1.201.97 1.2.071-.002.622-.712 1.224-1.578zm5.598 1.149l1.282-.192-1.865-.027c-1.51-.022-1.865.04-1.865.323 0 .248.169.311.582.219.32-.072 1.16-.218 1.866-.323zm-7.96-7.659c-.267-.342-.406-.403-.408-.18-.002.187-.069.754-.15 1.26l-.147.922.556-.742c.516-.687.527-.778.15-1.26zm2.732.505c-.193-.977-.223-1.007-.521-.52-.26.425-.24.648.119 1.266.53.913.676.64.402-.746zm-.991-1.842l.456-.69h-2.117l.456.69c.25.38.522.69.602.69.08 0 .352-.31.603-.69zm-3.69-1.036c0-.28-.379-.34-1.994-.318l-1.994.029 1.673.289c2.273.393 2.315.393 2.315 0zm9.133-.12c.87-.148.721-.18-.964-.2-1.576-.02-1.994.044-1.994.305 0 .34.41.326 2.958-.106zM140.624 106.453c0-.698.016-.734.336-.734.274 0 .362-.086.471-.459.193-.657 1.664-6.349 1.81-7.005.171-.764.686-4.425.63-4.475-.113-.1-2.048-.309-2.13-.23-.05.05-.015.114.079.144.114.037.17.335.17.901v.846h-.956v-.849c0-.467.061-.883.136-.925.262-.144.134-.279-.341-.359-.418-.07-.479-.126-.479-.438v-.358l1.88-.034 1.88-.034.277-2.002c.183-1.323.23-2.015.137-2.04a20.096 20.096 0 0 0-1.02-.168c-.847-.124-1.174-.092-.894.087.073.047.134.457.135.911l.003.826H141.717v-.856c0-.49.059-.857.137-.857.075 0 .137-.079.137-.176 0-.108-.17-.19-.445-.214-.393-.034-.444-.08-.443-.405v-.367l5.213-.032 5.212-.032.06.369c.074.447.034.49-.461.49-.253 0-.387.064-.387.184 0 .1.062.183.138.183.082 0 .127.346.112.857l-.026.856H149.957l.005-.826c.003-.454.07-.864.148-.91.293-.175-.014-.19-1.01-.05-.565.08-1.019.197-1.01.262.01.064.13.984.265 2.044l.248 1.927h3.777v.353c0 .308-.063.364-.478.434-.287.048-.479.152-.479.259 0 .097.062.178.137.178.078 0 .137.367.137.856v.856h-.957v-.846c0-.566.056-.864.17-.9.094-.03.127-.098.072-.151-.15-.144-2.156.194-2.156.364 0 .08.154 1.159.342 2.399.213 1.404.695 3.592 1.276 5.803.924 3.508.938 3.548 1.299 3.586.348.038.364.07.364.765v.726h-11.483zm7.752-3.112c-1.068-1.307-1.973-2.378-2.01-2.38-.039 0-.944 1.069-2.014 2.378l-1.944 2.38h7.91zm-3.411-1.7l.999-1.202-.85-1.028c-.468-.565-.87-1.01-.894-.99-.046.042-1.546 5.785-1.546 5.919 0 .043.29-.276.646-.709.355-.433 1.095-1.328 1.645-1.99zm4.327-.276c-.42-1.61-.781-2.941-.802-2.96-.02-.019-.415.432-.877 1.001l-.841 1.036 1.605 1.958c.883 1.077 1.622 1.943 1.642 1.924.021-.018-.306-1.35-.727-2.96zm-1.893-2.697c.617-.766.932-1.268.903-1.437-.044-.252-1.8-2.758-1.937-2.765-.126-.007-1.812 2.37-1.92 2.706-.092.289.021.486.861 1.503.532.644 1.008 1.171 1.056 1.171.049 0 .516-.53 1.037-1.178zm-1.871-5.39l-.453-.59-.156.857c-.086.471-.195 1.16-.241 1.53l-.085.672.694-.94.693-.94zm2.404 1.06c-.105-.705-.193-1.392-.196-1.525-.003-.17-.15-.05-.49.401l-.484.645.639.918c.352.505.658.902.681.881.023-.02-.044-.614-.15-1.32zm-3.89-1.16c0-.148-.194-.18-.992-.168l-.991.016.82.154c1.108.209 1.162.209 1.162-.002zm2.973-.663l.582-.837-.582-.867c-.32-.477-.613-.869-.65-.871-.039-.002-.337.394-.664.88-.462.687-.561.925-.447 1.07.081.103.35.474.595.826.246.351.478.638.516.637.038 0 .33-.378.65-.838zm2.975.61l.681-.102-.99-.014c-.803-.012-.992.02-.992.171 0 .132.09.166.31.117.17-.039.616-.116.99-.172zm-4.23-4.07c-.142-.181-.216-.214-.217-.095 0 .1-.036.4-.08.67l-.077.49.295-.395c.274-.365.28-.413.08-.67zm1.452.269c-.103-.52-.119-.535-.277-.276-.138.225-.127.344.063.672.281.485.36.34.214-.396zm-.527-.979l.242-.367h-1.124l.242.367c.133.202.277.367.32.367.043 0 .187-.165.32-.367zm-1.96-.55c0-.15-.202-.181-1.06-.17l-1.06.016.89.154c1.207.208 1.23.208 1.23 0zm4.853-.065c.462-.078.383-.094-.513-.106-.837-.01-1.06.024-1.06.163 0 .18.219.173 1.573-.056zM36.86 140.405c0-.699.016-.734.336-.734.274 0 .362-.086.471-.46.193-.656 1.664-6.348 1.81-7.004.171-.764.686-4.425.63-4.475-.113-.1-2.048-.309-2.13-.23-.05.05-.015.114.079.144.114.037.17.335.17.901v.846h-.956v-.849c0-.467.061-.883.136-.925.262-.144.134-.279-.341-.359-.418-.07-.479-.126-.479-.438v-.358l1.88-.034 1.88-.034.277-2.002c.183-1.323.23-2.016.137-2.04a20.096 20.096 0 0 0-1.02-.168c-.847-.124-1.174-.092-.894.087.073.047.134.457.135.911l.003.826H37.953v-.856c0-.49.059-.857.137-.857.075 0 .137-.079.137-.176 0-.109-.17-.19-.445-.214-.393-.034-.444-.08-.443-.405v-.367l5.213-.032 5.212-.032.06.369c.074.447.034.49-.461.49-.253 0-.388.063-.388.183 0 .101.063.184.139.184.082 0 .127.346.112.856l-.026.857H46.193l.005-.826c.003-.454.07-.864.148-.91.293-.175-.014-.19-1.01-.05-.565.08-1.019.197-1.01.262.01.064.13.984.265 2.044l.248 1.927h3.777v.353c0 .307-.063.364-.478.434-.287.048-.479.152-.479.258 0 .098.062.178.137.178.078 0 .137.367.137.857v.856h-.957v-.846c0-.566.056-.864.17-.9.094-.03.126-.098.072-.151-.15-.144-2.156.194-2.156.364 0 .08.154 1.159.342 2.399.213 1.404.695 3.592 1.276 5.802.924 3.509.938 3.549 1.299 3.587.348.037.364.07.364.765v.726H36.86zm7.752-3.112c-1.068-1.307-1.973-2.378-2.01-2.38-.039 0-.944 1.069-2.014 2.378l-1.944 2.38h7.91zm-3.411-1.7l.999-1.202-.85-1.028c-.468-.565-.87-1.01-.894-.99-.046.042-1.546 5.785-1.546 5.919 0 .043.29-.276.646-.709.355-.433 1.095-1.329 1.645-1.99zm4.327-.276c-.42-1.61-.782-2.941-.802-2.96-.02-.019-.415.432-.877 1.001l-.841 1.036 1.605 1.958c.883 1.077 1.622 1.943 1.642 1.924.021-.018-.306-1.35-.727-2.96zm-1.893-2.697c.617-.766.932-1.269.903-1.438-.044-.252-1.8-2.757-1.937-2.764-.126-.007-1.812 2.37-1.92 2.706-.092.289.021.486.861 1.503.532.644 1.008 1.17 1.056 1.17.049 0 .516-.53 1.037-1.177zm-1.871-5.39l-.453-.59-.156.857c-.086.471-.195 1.16-.241 1.53l-.085.672.694-.94.693-.94zm2.404 1.06c-.105-.705-.193-1.392-.196-1.526-.003-.17-.15-.049-.49.402l-.484.645.639.918c.352.505.658.902.681.881.023-.02-.044-.615-.15-1.32zm-3.89-1.16c0-.148-.194-.18-.992-.168l-.991.016.82.154c1.108.209 1.162.209 1.162-.002zm2.973-.663l.582-.837-.582-.867c-.32-.477-.613-.869-.65-.871-.039-.002-.337.393-.664.88-.462.687-.561.925-.447 1.07.081.103.35.474.595.826.246.35.478.638.516.637.038 0 .33-.378.65-.838zm2.975.61l.681-.102-.99-.014c-.803-.012-.992.02-.992.171 0 .132.09.166.31.116.17-.038.616-.115.99-.171zm-4.23-4.07c-.142-.181-.216-.214-.217-.095 0 .1-.036.4-.08.67l-.077.49.295-.395c.274-.365.28-.414.08-.67zm1.452.269c-.103-.52-.119-.535-.277-.277-.138.226-.127.345.063.673.281.485.36.34.214-.396zm-.527-.979l.242-.367H42.04l.242.367c.133.202.277.367.32.367.043 0 .187-.165.32-.367zm-1.96-.55c0-.15-.202-.181-1.06-.17l-1.06.016.89.153c1.207.21 1.23.21 1.23 0zm4.853-.065c.462-.078.383-.094-.513-.106-.837-.01-1.06.024-1.06.163 0 .18.219.173 1.573-.057zM57.534 86.785c0-1.094.026-1.15.527-1.15.43 0 .567-.134.739-.719.302-1.03 2.607-9.947 2.836-10.974.268-1.199 1.073-6.934.985-7.013-.175-.158-3.207-.483-3.336-.359-.08.077-.024.178.123.225.18.057.268.524.268 1.412v1.326h-1.5v-1.331c0-.732.097-1.384.215-1.45.41-.226.21-.437-.536-.562-.654-.11-.75-.197-.75-.686v-.561l2.946-.054 2.945-.053.435-3.137c.287-2.072.36-3.158.214-3.197-.121-.033-.841-.15-1.599-.262-1.325-.195-1.839-.145-1.4.137.114.073.21.715.212 1.427l.004 1.294h-1.614v-1.342c0-.767.091-1.342.214-1.342.118 0 .214-.124.214-.275 0-.17-.265-.299-.696-.336-.616-.053-.696-.126-.695-.635l.002-.575 8.167-.05 8.166-.05.095.578c.115.7.052.768-.724.768-.396 0-.606.1-.606.288 0 .158.097.287.216.287.13 0 .2.542.176 1.342l-.04 1.342H72.158l.01-1.294c.003-.712.108-1.354.231-1.427.46-.274-.022-.297-1.584-.077-.884.124-1.595.309-1.58.41.015.1.201 1.542.414 3.203l.388 3.019H75.956v.554c0 .48-.099.57-.75.68-.449.075-.75.237-.75.404 0 .153.096.279.214.279.123 0 .215.575.215 1.342v1.342h-1.5v-1.326c0-.888.089-1.355.268-1.412.147-.047.197-.153.112-.235-.235-.226-3.378.304-3.378.57 0 .124.241 1.816.536 3.759.334 2.2 1.088 5.629 2 9.091 1.447 5.497 1.47 5.56 2.034 5.62.546.058.57.11.57 1.198v1.138H57.535zm12.147-4.875c-1.674-2.048-3.092-3.726-3.151-3.729-.059-.001-1.478 1.674-3.154 3.725l-3.047 3.73h12.395zm-5.345-2.664l1.565-1.883-1.332-1.61c-.733-.886-1.363-1.584-1.4-1.55-.072.063-2.422 9.062-2.422 9.272 0 .068.455-.432 1.012-1.11.556-.68 1.716-2.082 2.577-3.119zm6.78-.433c-.66-2.521-1.225-4.608-1.256-4.637-.032-.03-.65.676-1.375 1.569l-1.318 1.623 2.515 3.067c1.383 1.687 2.541 3.044 2.574 3.015.032-.029-.48-2.115-1.14-4.637zm-2.966-4.225c.966-1.2 1.461-1.988 1.415-2.252-.069-.395-2.82-4.32-3.035-4.332-.198-.01-2.839 3.713-3.008 4.24-.145.453.032.761 1.35 2.355.833 1.01 1.577 1.835 1.654 1.835.076 0 .807-.83 1.624-1.846zm-2.932-8.445l-.71-.923-.244 1.341a54.43 54.43 0 0 0-.378 2.396l-.133 1.055 1.087-1.473 1.087-1.474zm3.768 1.66c-.165-1.104-.304-2.18-.307-2.39-.006-.266-.236-.077-.767.63l-.76 1.01 1.001 1.44c.551.79 1.032 1.411 1.068 1.38.035-.033-.07-.964-.235-2.07zm-6.097-1.817c0-.231-.303-.283-1.553-.263l-1.553.025 1.285.242c1.736.327 1.82.327 1.82-.004zm4.66-1.039l.91-1.31-.91-1.36c-.502-.746-.96-1.36-1.02-1.364-.06-.004-.527.616-1.04 1.378-.723 1.078-.88 1.45-.7 1.678.128.16.547.742.933 1.293.385.55.75 1 .808.998.059-.001.517-.592 1.018-1.313zm4.66.956l1.068-.16-1.553-.022c-1.257-.018-1.553.033-1.553.269 0 .206.14.26.485.182.267-.06.966-.18 1.553-.269zm-6.626-6.376c-.223-.285-.339-.336-.34-.15-.002.156-.058.628-.125 1.05l-.122.767.462-.617c.43-.573.439-.649.125-1.05zm2.274.42c-.161-.813-.186-.838-.434-.433-.217.354-.2.54.099 1.055.44.76.563.533.335-.621zm-.826-1.533l.38-.575H65.65l.379.575c.208.316.434.575.501.575s.293-.259.501-.575zm-3.071-.863c0-.233-.316-.283-1.66-.264l-1.66.024 1.392.24c1.892.328 1.928.328 1.928 0zm7.603-.1c.725-.123.6-.149-.803-.166-1.311-.016-1.66.037-1.66.254 0 .284.343.271 2.463-.088z"/></g><path d="M74.838 260.984c-.105-.12-.118-.265-.037-.419.17-.325.49-1.026.781-1.715.675-1.595.695-1.622 1.487-1.976.415-.187.81-.34.878-.34.174 0 .245-.303.347-1.479.123-1.432.192-1.496 1.693-1.577l1.232-.067.898-.947c.85-.896 1.405-1.193 1.405-.754 0 .106.055.193.121.193.067 0 .357.347.645.771.289.424.56.771.604.772.043 0 .276-.26.517-.578.332-.438.528-.58.805-.58.687-.003.938-.146 1.23-.699.159-.302.29-.616.29-.697 0-.08.06-.147.135-.147.075 0 .136-.092.136-.205 0-.113.085-.359.188-.547.104-.187.302-.586.442-.886l.253-.546 1.445-.002 1.446-.002.66-.83c.724-.911 1.081-1.035 1.864-.648.214.105.476.192.583.192.325 0 1.27.51 1.27.684 0 .09.072.31.161.49l.162.323.551-.276c.743-.372 1.407-.58 1.608-.506.092.034.38.414.642.843l.475.782.094-.495c.052-.272.098-.733.102-1.025.011-.71.181-.814 1.095-.672 1.13.177 3.326.473 4.605.62 1.403.163 1.567.264 1.32.821-.098.224-.221.819-.274 1.323l-.095.916.758.09c.923.11 1.177.34 1.836 1.67.472.952.481.96 1.087 1.041.336.045.856.153 1.155.242.504.15.55.202.628.73l.23 1.533c.08.53.182 1.392.226 1.914.044.522.142 1.06.218 1.194.076.135.12.547.097.916l-.04.672-18.9.033c-16.222.028-18.922.008-19.06-.151zm35.31-.597c0-.13-.98-1.33-1.181-1.446a.378.378 0 0 1-.178-.29c0-.103-.049-.186-.109-.186s-.279-.255-.486-.566c-.208-.311-.486-.676-.618-.81-.133-.135-.475-.56-.761-.946a13.408 13.408 0 0 0-.666-.847 4.479 4.479 0 0 1-.345-.418c-.224-.307-.827-.359-1.652-.142-.272.072-.975.182-1.563.245-1.184.128-2.68.33-3.92.531a60.92 60.92 0 0 1-1.834.258c-3.39.42-4.342.62-4.346.915 0 .047-.291.256-.646.465-.355.21-.777.49-.939.623a7.537 7.537 0 0 1-.593.434c-.3.194-.897.612-1.151.809-.075.057-.556.39-1.07.74l-.933.637 11.19.033c6.154.018 11.327.036 11.495.04.168.002.305-.032.305-.079zm-17.083-.85c-.328-.125-.163-.552.462-1.195.715-.735.99-.79 2.204-.45.772.218 1.017.513.641.773-.173.12-.35.128-.667.033-.99-.297-1.018-.291-1.72.33-.369.327-.688.59-.71.584a3.259 3.259 0 0 1-.21-.075zm12.526-.586a7.221 7.221 0 0 1-.488-.615 6.807 6.807 0 0 0-.51-.63c-.158-.17-.287-.364-.287-.43 0-.134-1.07-.002-1.29.159-.075.055-.35.14-.612.19-.555.107-1.708.44-2.121.615-.399.168-.787.074-.844-.205-.062-.304.32-.563.99-.672.296-.049.633-.136.748-.194.114-.058.667-.229 1.227-.378.56-.15 1.16-.327 1.331-.393.172-.066.404-.12.516-.12.228 0 .86.625.866.857.003.083.058.17.124.193.288.103 1.116 1.306 1.077 1.564-.058.383-.408.411-.727.06zm6.458.922c0-.271-.054-.524-.12-.563-.065-.038-.16-.52-.208-1.069-.05-.55-.145-1.26-.212-1.578a19.41 19.41 0 0 1-.204-1.164c-.077-.566-.1-.59-.688-.74-.335-.085-.792-.154-1.015-.154-.26 0-.406-.066-.406-.182 0-.1-.048-.202-.107-.225-.094-.038-.585-.863-1.037-1.742-.18-.35-.628-.553-1.223-.553h-.453l-.097 1.104c-.09 1.014-.074 1.128.187 1.392.157.158.285.35.285.429 0 .078.054.16.12.184.163.058 1.103 1.238 1.103 1.384 0 .065.054.137.12.16.163.058 1.102 1.238 1.102 1.384 0 .065.054.136.12.16.162.057 1.103 1.237 1.103 1.381 0 .063.092.147.204.188.112.04.203.159.203.262 0 .333.361.554.803.492.386-.053.42-.098.42-.55zm-26.02.36a4.45 4.45 0 0 1 .479-.353c.166-.106.909-.62 1.651-1.143l1.35-.95-.721-.401a42.645 42.645 0 0 0-1.791-.916c-1.073-.516-1.6-.907-1.98-1.466a18.99 18.99 0 0 0-.624-.832 20.04 20.04 0 0 1-.798-1.102l-.379-.57-.86.86-.86.859H79.355l-.157.497a4.283 4.283 0 0 0-.16 1.062c-.002.982-.087 1.099-1.154 1.598-.79.37-1.025.548-1.153.873-.195.497-.65 1.485-.823 1.79-.07.123-.128.253-.128.29 0 .036 2.266.065 5.036.065 3.844 0 5.078-.038 5.213-.16zm-6.542-1.726c-.047-.118.023-.393.157-.61.134-.219.358-.6.497-.848.14-.247.393-.613.563-.813l.31-.364.744.356c.945.45 1.221.67 1.13.898-.096.236-.69.23-1.181-.013-.497-.246-.58-.242-.68.033a3.556 3.556 0 0 1-.354.61c-.15.213-.344.517-.431.676-.187.34-.63.383-.755.075zm11.76-1.918c.234-.131.426-.284.426-.34 0-.055.092-.1.204-.1.112 0 .203-.05.203-.11s.121-.16.269-.224c.358-.155.215-.31-.676-.729a47.296 47.296 0 0 1-1.834-.936c-.598-.322-1.255-.653-1.46-.737-.206-.083-.374-.192-.374-.241 0-.158-.775-.258-1.29-.167-.369.066-.6.222-.887.596-.214.28-.354.592-.312.696.163.402.821.976 1.47 1.282.374.176 1.286.627 2.027 1.002 1.266.64 1.362.669 1.578.464.126-.12.421-.325.656-.456zm4.977-1.537c.821-.12 1.781-.245 2.133-.28.638-.062.638-.062.73-.635.05-.315.054-.607.011-.648-.043-.04.01-.236.117-.434.113-.207.212-.814.233-1.431l.036-1.072-.596-.836c-.328-.46-.606-.848-.617-.862-.01-.015-.399.145-.862.354-1.116.503-1.506.502-1.613-.006-.045-.213-.135-.386-.2-.386-.066 0-.12-.08-.12-.178 0-.26-.337-.482-1.129-.741l-.705-.23-.44.477-.798.871c-.359.392-.36.393-1.564.338-1.331-.06-1.54.018-1.682.63-.049.207-.144.376-.213.376s-.125.073-.125.161c0 .089-.184.508-.407.933-.463.879-.482.965-.215.965.105 0 .212.043.237.096.025.053.382.256.793.45.41.195 1.236.617 1.833.938.598.322 1.24.654 1.427.738.187.084.37.183.407.22.038.037.252.165.476.286.446.24.584.235 2.852-.094zm1.094-1.894c-.14-.16-.614-.655-1.051-1.1-.693-.708-.77-.836-.599-.998.108-.102.277-.186.376-.186.32 0 2.15 1.927 2.15 2.265 0 .408-.52.42-.876.019zm-7.112-.766c-.274-.26-.194-.403.69-1.232.862-.81 1.155-.935 1.48-.635.1.091.424.306.723.478.914.525 1.014.666.69.974-.225.212-.486.242-.486.055 0-.07-.087-.129-.194-.129a.69.69 0 0 1-.379-.16c-.59-.515-.72-.5-1.484.167-.802.7-.808.702-1.04.482zm10.28 2.09c.271-.069.798-.166 1.171-.218l.68-.092-.612-.094c-.336-.052-.871-.136-1.188-.187-.318-.05-.579-.04-.58.022 0 .062-.038.243-.083.403-.093.328-.064.336.613.165zm4.83-.938c.051-.16.139-.623.196-1.031l.103-.741-.485-.11c-.448-.102-1.927-.3-3.86-.518-.924-.103-.96-.064-1.066 1.173l-.063.735.622.075c.343.041.867.128 1.166.193.299.065 1.002.156 1.562.203.56.047 1.141.132 1.29.19.405.155.436.145.536-.17zm.476-2.971c.107-.265.193-1.14.157-1.597-.008-.095-.205-.16-.485-.16-.26 0-.948-.084-1.529-.186a40.226 40.226 0 0 0-2.036-.296l-.981-.11-.14.379c-.077.209-.14.678-.14 1.042v.662l1.393.162c.766.088 1.728.208 2.14.264 1.335.184 1.489.17 1.621-.16zm-29.77 2.906c-.372-.404-.657-2.135-.392-2.386a.62.62 0 0 0 .15-.395c0-.14.106-.366.237-.503.3-.315.334-1.942.05-2.445-.164-.29-.16-.36.024-.534.261-.248.335-.25.58-.018.536.507.57 2.483.058 3.388-.3.53-.367 1.704-.131 2.29.267.666-.133 1.085-.576.603zm4.24-2.532c0-.11-.054-.202-.12-.202s-.223-.42-.35-.932c-.205-.838-.208-1.005-.03-1.64.11-.39.358-1.048.553-1.464.354-.755.477-1.831.237-2.081-.064-.067-.181-.305-.26-.528-.11-.315-.099-.464.054-.67.185-.25.211-.254.464-.049.147.12.267.308.267.42 0 .112.076.275.17.364.109.103.169.54.167 1.215-.002.91-.058 1.162-.407 1.827-.359.683-.405.903-.402 1.905.003.793.057 1.163.182 1.236.288.17.132.713-.22.76-.205.028-.305-.025-.305-.16zm4.95-2.221c-.561-.533-.637-1.871-.163-2.91.32-.7.37-1.394.177-2.447-.111-.608-.106-.622.211-.58.798.108 1.07 1.958.46 3.132-.383.737-.453 1.902-.138 2.296.353.442-.135.898-.546.509zm23.265-3.465c-.17-.16-.102-.626.14-.951.182-.248.234-.589.233-1.54 0-1.1-.044-1.308-.42-2.06-.787-1.57-.888-2.233-.536-3.517.367-1.333.762-1.769 1.175-1.297.149.17.135.28-.085.666-.21.37-.263.723-.263 1.759 0 1.223.027 1.347.474 2.197.453.86.474.96.468 2.25-.005 1.201-.045 1.416-.35 1.93-.328.554-.63.757-.836.563zm-11.013-.5c-.046-.114.022-.392.152-.617.175-.303.237-.712.237-1.568 0-1.047-.041-1.239-.44-2.004-.405-.775-.442-.95-.44-2.059 0-.998.054-1.314.306-1.79.21-.395.392-.58.576-.58.36 0 .43.493.13.925-.165.24-.23.617-.232 1.375-.003.887.053 1.153.37 1.753.204.39.424.91.487 1.158l.207.817c.113.447-.144 1.658-.482 2.27-.267.487-.734.658-.87.32zm5.399-.894c-.072-.176.223-1.135.504-1.643.203-.365.143-2.06-.096-2.723a9.64 9.64 0 0 0-.552-1.202c-.312-.557-.483-1.125-.676-2.254-.174-1.022.64-3.44 1.159-3.44.385 0 .428.422.108 1.05-.236.461-.286.805-.29 1.974-.004 1.426.066 1.715.682 2.786.108.187.197.429.197.536 0 .107.07.216.155.243.096.03.18.54.221 1.347.068 1.341-.126 2.316-.631 3.16-.228.382-.657.472-.781.166zm-15.807-3.348c-.23-.262-.11-.49.487-.92.44-.318.653-.374 1.575-.414.676-.03 1.135.01 1.255.103.147.115.23.103.371-.055.953-1.073 1.71-1.482 2.743-1.482.458 0 .903.222.903.45 0 .242-.421.437-.835.387-.514-.063-1.297.158-1.608.454-.113.108-.348.47-.521.804-.174.334-.388.607-.476.607-.088 0-.36-.116-.605-.258-.603-.348-1.628-.342-2.264.014-.266.148-.483.322-.483.386 0 .184-.358.134-.542-.076zm-10.027-4.723c-.09-.085-.163-.227-.163-.315 0-.256.566-.766 1.196-1.076.507-.25.735-.28 1.798-.232 1.036.047 1.217.026 1.22-.145.002-.342.983-1.247 1.67-1.541a2.738 2.738 0 0 1 1.29-.242c.578.035.637.069.637.36s-.065.329-.68.392c-1.079.111-1.958.683-2.166 1.41-.258.903-.554 1.083-1.14.694-.194-.129-.606-.21-1.09-.214-.806-.008-1.246.17-1.904.769-.372.338-.443.353-.668.14zm23.552-6.825c-.547-.812-1.78-1.246-2.5-.88-.302.153-.768-.156-.655-.434.31-.766 2.564-.502 3.45.404.314.32.352.329.693.146.198-.107.645-.267.994-.356.548-.14.732-.131 1.352.064.907.285 1.323.627 1.125.924-.203.304-.399.335-.646.1-.293-.277-1.43-.39-2.033-.2-.268.083-.628.292-.8.463-.171.171-.379.312-.461.314-.083.002-.316-.244-.519-.545z" fill="#4d4d4d" stroke="#4d4d4d" stroke-width=".215" transform="matrix(.8705 0 0 .82265 22.16 -72.247)"/><g fill="#4d4d4d" stroke="none" stroke-width="0"><path d="M27.268 71.483c.571-.083 1.18-.43 1.46-.834.33-.477.376-1.22.105-1.749-.169-.33-.554-.691-.903-.846-.484-.215-1.208-.244-1.719-.069-.487.168-1.036.715-1.166 1.162-.1.346-.077.868.052 1.172.292.688.857 1.063 1.79 1.188a1.93 1.93 0 0 0 .38-.024zm-.849-.994c-.285-.146-.524-.518-.522-.814.001-.256.168-.57.39-.738.815-.614 2.068.126 1.734 1.025-.104.28-.439.59-.694.64a3.44 3.44 0 0 0-.214.048c-.122.036-.464-.043-.694-.16zm-2.903-1.315c.656-.104 1.088-.3 1.527-.691.525-.47.778-1.111.723-1.833-.06-.77-.632-1.53-1.416-1.88l-.274-.122.272-.033c.388-.048 1.186-.267 1.519-.417 1.251-.567 2.164-1.632 2.438-2.847.124-.545.09-1.444-.073-1.958-.225-.709-.625-1.3-1.252-1.847l-.431-.376.276.034c.152.019.439.034.637.034.322 0 .368.013.415.114.306.665.464.945.767 1.357 1.301 1.77 3.428 2.8 5.775 2.797.66 0 1.127-.06 1.923-.243 1.036-.238 2.198-.873 3.07-1.677l.459-.423.533.221c.841.35 1.775.597 2.805.746.518.074 2.16.073 2.72-.002 2.29-.307 4.24-1.178 5.792-2.586 1.47-1.333 2.331-2.774 2.77-4.636.141-.602.156-.76.156-1.727 0-1.077-.03-1.325-.265-2.18-.943-3.443-4.12-6.103-8.03-6.727-1.273-.202-2.546-.181-3.911.066l-.536.096-.512-.454c-.593-.524-.711-.612-1.25-.927-2.348-1.372-5.339-1.484-7.83-.293-.66.315-.884.46-1.521.976-1.057.858-1.71 1.767-2.176 3.029l-.102.279-.7-.017c-1.158-.027-2.137.155-3.162.588-.647.273-.986.476-1.584.946-1.28 1.007-2.107 2.457-2.272 3.984-.237 2.191.928 4.408 2.96 5.628l.323.194-.494.035c-2.03.14-3.538 1.192-4.185 2.915-.149.398-.161.49-.161 1.192 0 .837.051 1.063.396 1.733.512.994 1.58 1.855 2.691 2.17.369.105.48.178.273.178-.08 0-.351.092-.602.204-1.147.514-1.673 1.663-1.284 2.809.218.644.936 1.281 1.666 1.478.278.075.916.127 1.137.092zm-1.044-.977c-.332-.131-.69-.481-.826-.805-.23-.551-.101-1.127.344-1.537.404-.372.56-.428 1.186-.428.605 0 .843.08 1.171.388.329.31.472.623.47 1.026-.001.704-.45 1.25-1.176 1.433a2.21 2.21 0 0 1-1.17-.077zm.636-4.475c-.406-.077-.982-.286-1.292-.47-.365-.216-.983-.798-1.179-1.109-.335-.531-.435-.906-.435-1.634 0-.56.02-.712.133-1.008.237-.62.638-1.119 1.283-1.598.515-.381 1.443-.664 2.181-.664.457 0 1.208.157 1.601.335 1.022.463 1.756 1.333 1.992 2.362.116.505.113.685-.02 1.231a2.924 2.924 0 0 1-.927 1.565c-.6.55-1.215.869-1.918.993-.363.063-1.076.062-1.419-.003zm9.936-3.218c-2.082-.435-3.703-1.818-4.352-3.713l-.162-.472-.19.032c-.628.105-1.925-.015-2.665-.248-2.087-.655-3.579-2.285-3.91-4.275-.404-2.41 1.31-4.88 3.945-5.687.842-.257 1.964-.327 2.957-.183.293.043.55.06.57.038.02-.022.095-.264.167-.539.526-2.013 2.068-3.563 4.306-4.326 1.013-.346 2.427-.435 3.567-.226 1.585.292 3.076 1.129 4.035 2.265l.227.27.215-.068c.119-.038.531-.132.917-.21.643-.13.799-.143 1.863-.145 1.358-.002 2.005.09 3.144.444 1.756.546 3.579 1.855 4.64 3.332.622.866 1.12 2.08 1.333 3.25.086.471.075 1.817-.019 2.328-.092.503-.311 1.32-.373 1.394a1.252 1.252 0 0 0-.115.253c-.216.605-.82 1.578-1.353 2.179-2.49 2.81-6.639 3.877-10.331 2.659a13.849 13.849 0 0 1-1.68-.72l-.194-.105-.09.122c-.245.336-.934 1.018-1.283 1.27-1.518 1.096-3.308 1.47-5.17 1.081z"/><path style="line-height:1.25;-inkscape-font-specification:'Comic Sans MS Bold'" d="M29.67 47.367a.883.883 0 0 0-.571.203c-.164.136-.246.29-.246.463 0 .173.019.431.057.774.04.343.058.601.058.774 0 .182.005.456.015.822.01.366.014.64.014.822 0 .17-.006.425-.019.765s-.02.595-.02.765c0 .116-.01.29-.033.524-.02.233-.029.408-.029.523 0 .164.063.304.188.42.142.13.33.194.566.194.464 0 .696-.425.696-1.276 0-.227-.007-.57-.02-1.029-.01-.458-.014-.801-.014-1.03 0-.17.01-.63.029-1.379 1.559 1.805 2.958 3.208 4.199 4.208.283.228.538.342.763.342.406 0 .641-.186.705-.558.055-.311.083-.54.083-.683a297.98 297.98 0 0 1 .038-3.417c0-1.45-.262-2.175-.787-2.175-.47 0-.706.199-.706.597 0 .115.016.274.049.475.035.228.056.384.062.468.033.495.049 1.454.049 2.875 0 .346-.002.565-.005.658-1.424-1.18-2.867-2.703-4.33-4.571-.29-.37-.554-.554-.792-.554zm11.05.156c-1.17 0-2.14.454-2.91 1.362-.685.807-1.028 1.701-1.028 2.681 0 .833.357 1.512 1.072 2.037.67.49 1.482.735 2.435.735 1.173 0 2.123-.46 2.851-1.38.632-.795.947-1.683.947-2.663 0-.926-.28-1.619-.84-2.08-.561-.462-1.403-.692-2.528-.692zm0 1.172c.737 0 1.25.112 1.54.337.304.236.455.657.455 1.263 0 .723-.217 1.37-.652 1.937-.474.623-1.065.934-1.774.934-.608 0-1.112-.144-1.512-.432-.415-.3-.623-.69-.623-1.168 0-.709.24-1.355.72-1.937.512-.623 1.127-.934 1.845-.934zm8.76.6a.643.643 0 0 0-.527.265c-.148.187-.393.413-.735.679-.273.207-.549.415-.826.622l-.773-.89c-.403-.413-.718-.619-.947-.619-.177 0-.33.06-.459.177a.527.527 0 0 0-.188.398c0 .156.083.296.25.42.197.147.407.353.629.618.184.225.366.45.546.675-.415.363-.722.633-.918.808a94.07 94.07 0 0 0-.638.49c-.264.215-.396.407-.396.574 0 .15.066.281.198.394.135.112.29.168.464.168a.682.682 0 0 0 .478-.198c.09-.087.223-.195.397-.325.547-.447.951-.787 1.212-1.02a39.483 39.483 0 0 0 1.435 1.526.674.674 0 0 0 .484.208.705.705 0 0 0 .463-.169.5.5 0 0 0 .203-.393c0-.116-.053-.233-.16-.35L48.2 51.738l.74-.614c.29-.23.526-.416.71-.558.335-.29.502-.53.502-.718 0-.15-.069-.28-.208-.389a.717.717 0 0 0-.463-.164z" font-weight="700" font-size="10.583" font-family="Comic Sans MS" letter-spacing="0" word-spacing="0"/></g><path d="M83.139 228.093a1.235 1.235 0 0 1-.397-.48c-.068-.177-.212-.288-.373-.29-.597-.006-.974-.436-.739-.842.073-.126.08-.25.018-.287-.061-.037-.093-.384-.07-.77l.041-.704-.494-.218c-.643-.283-1.47-1.185-1.762-1.923-.175-.443-.24-1.002-.27-2.283l-.037-1.697.849.01.849.008-.065-.844c-.093-1.219-.108-1.228-1.785-1.151-1.382.064-1.408.06-1.786-.248-.488-.398-.607-.964-.321-1.52.231-.448.428-.568 1.462-.894l.694-.219-.696.055c-.62.048-.74.02-1.088-.264-.464-.38-.602-.875-.398-1.438.197-.545.616-.755 2.563-1.286.885-.242 1.586-.461 1.557-.489-.028-.027-.616.109-1.306.303-1.59.446-1.959.445-2.42-.002-.461-.446-.564-.874-.34-1.412.195-.472.705-.776 1.718-1.024.332-.082 2.978-.827 5.882-1.657l5.278-1.51.455.217c.288.137.539.384.684.673.217.434.218.481.01.982-.122.289-.23.526-.241.526-.012 0-.362.129-.779.286l-.757.287.517.008c.989.016 1.617.89 1.239 1.722-.104.229-.331.501-.504.606-.257.155-5.934 1.828-8.64 2.546-.37.097-.645.203-.613.234.032.03 1.884-.464 4.115-1.098 2.231-.635 4.244-1.153 4.472-1.15.528.006 1.014.375 1.192.908.118.35.103.487-.095.86-.223.42-.347.502-1.487.984-.65.275-1.552 1.127-1.892 1.788-.375.729-.612 1.734-.622 2.646l-.008.628.844.044.844.044.034 1.178c.04 1.347-.15 2.38-.582 3.164-.338.615-1.08 1.285-1.669 1.509l-.396.15.008 1.09c.01 1.198-.145 1.51-.748 1.503-.197-.002-.336.082-.39.238-.22.634-.994.884-1.555.503zm.961-.305c.072-.081.152-.28.178-.444.04-.248.13-.306.55-.352.336-.036.504-.113.506-.232.002-.132-.096-.164-.376-.124-.208.031-.773.051-1.257.046-.484-.005-1.05-.037-1.256-.072-.279-.047-.377-.017-.378.115-.001.12.165.2.5.244.419.053.508.114.541.362.054.405.24.598.578.602.156.002.342-.064.414-.145zm.832-1.585c.26-.038.473-.129.474-.202 0-.092-.528-.139-1.695-.151-1.223-.013-1.697.021-1.698.123-.001.077.153.165.343.194.573.088 2.073.11 2.576.036zm.267-.82c.118-.042.216-.147.217-.234 0-.119-.118-.14-.47-.082a9.01 9.01 0 0 1-1.227.069 9.132 9.132 0 0 1-1.224-.095c-.363-.067-.47-.048-.472.082-.001.093.125.196.28.229.155.033.395.087.532.12.319.078 2.078.01 2.364-.09zm.292-1.322c.844-.268 1.375-.67 1.77-1.34.338-.572.384-.773.446-1.976l.07-1.339-3.99-.042-3.99-.042.041 1.339c.044 1.46.222 1.978.905 2.647.938.92 3.131 1.268 4.748.754zm-2.755-6.144c.012-.967-.194-1.733-.632-2.359-.2-.284-.343-.533-.32-.553.112-.088 3.797-1.106 3.844-1.061.029.028-.132.552-.356 1.164-.313.851-.428 1.4-.49 2.332l-.08 1.22.629.006.628.007.1-1.091c.114-1.248.458-2.29.995-3.01.53-.713 1.445-1.421 2.13-1.648.919-.305 1.252-.765.843-1.162-.31-.3-.71-.24-3.196.485a471.66 471.66 0 0 1-3.978 1.14c-5.664 1.583-5.594 1.555-5.443 2.155.097.382.502.549 1.012.416.59-.153 1.926-.1 2.307.092.46.23.629.635.71 1.694l.069.882.61.007.61.007zm1.31-.506c.056-.682.186-1.498.29-1.812.106-.315.192-.607.194-.65 0-.043-.369.03-.821.165-.64.19-.805.285-.742.428.321.731.446 1.267.494 2.122.048.823.091.983.271.985.184.002.23-.178.315-1.238zm-3.98-3.94c.496-.136.844-.267.774-.29-.07-.023-.524.085-1.007.24-1.102.35-.963.381.233.05zm-.143-.803c1.562-.45 2.6-.744 7.416-2.11 2.779-.787 3.089-.955 2.82-1.529-.247-.53-.097-.56-7.146 1.456-1.04.297-2.63.747-3.531.998-1.68.47-2.082.67-2.086 1.038-.004.295.333.59.677.593.16.002.992-.2 1.85-.446zm4.173-4.033c3.243-.917 5.852-1.717 5.992-1.838.2-.172.225-.275.132-.531-.064-.175-.23-.36-.37-.41-.174-.063-1.329.212-3.593.853-1.835.52-3.932 1.112-4.66 1.315-3.902 1.087-4.162 1.193-4.168 1.692-.002.243.355.538.656.541.147.002 2.852-.728 6.011-1.622zm1.16.501c2.061-.589 3.726-1.092 3.7-1.118-.06-.057-7.783 2.13-7.882 2.233-.103.106.08.058 4.182-1.115zm-8.02-1.334c-.752-.575-.603-1.774.266-2.126.23-.094 2.63-.796 5.335-1.56 2.705-.765 5.244-1.491 5.643-1.613 1.365-.417 2.178-.194 2.47.678.108.321.094.496-.07.873-.234.534-.428.652-1.581.958-.451.12-1.926.535-3.279.922-6.393 1.833-7.685 2.183-8.021 2.179-.2-.003-.542-.143-.762-.311zm1.747-.578c.303-.099.835-.25 1.182-.336.346-.086 1.822-.5 3.278-.919 1.457-.419 3.5-.997 4.54-1.286 2.213-.613 2.625-.895 2.176-1.49-.09-.12-.305-.22-.477-.222-.171-.002-1.528.342-3.015.764s-3.441.975-4.343 1.229c-3.55 1-4.709 1.377-4.783 1.554-.124.296-.092.49.116.691.246.24.626.244 1.326.015zm-1.571-2.192c-.548-.332-.748-.863-.551-1.46.085-.258.29-.55.456-.651.433-.263 6.233-1.89 6.717-1.885.271.003.541.121.813.356.357.31.405.425.399.954-.006.452-.074.662-.274.848-.164.151-1.188.515-2.65.94-4.268 1.243-4.325 1.253-4.91.898zm2.788-1.006c3.771-1.04 4.217-1.194 4.3-1.496.118-.423-.138-.776-.564-.78-.201-.003-.95.169-1.665.38-1.16.344-3.584 1.03-4.168 1.18-.559.145-.776.691-.413 1.043.278.269.406.252 2.51-.327z" fill="#8fb82b" stroke="#8fb82b" stroke-width=".22" transform="matrix(.8705 0 0 .82265 22.16 -72.247)"/><path d="M134.269 189.79c6.158-.377 9.806-1.568 9.806-3.2 0-.154-.263-.536-.585-.847l-.586-.565v-6.843l.586-.566c.364-.351.585-.695.585-.908 0-.195-.251-.63-.585-1.013l-.586-.671v-6.328l.421-.374c.458-.406.75-.865.75-1.178 0-.109-.263-.512-.585-.895l-.586-.696v-6.484l.504-.45c.631-.564.724-.839.522-1.549-.353-1.24-2.516-2.036-7.246-2.666-1.759-.234-9.34-.235-11.197-.002-2.04.257-3.59.559-4.83.941-1.82.562-2.366.992-2.565 2.025-.089.46-.042.566.501 1.124l.6.616v6.445l-.586.696c-.322.383-.585.786-.585.896 0 .312.292.771.75 1.177l.42.374v6.328l-.585.67c-.333.383-.585.819-.585 1.014 0 .213.222.557.585.908l.586.566v6.88l-.504.435c-1.27 1.093-.514 2.264 1.95 3.024 3.003.925 8.887 1.408 13.63 1.117zm-9.587-1.016c-3.12-.47-5.292-1.166-5.745-1.84-.184-.275-.152-.345.394-.856l.594-.557v-3.735c0-3.508-.018-3.756-.29-4.083l-.288-.347.838.32c.89.34 3.008.782 4.936 1.03 1.892.244 7.809.335 10.026.154 3.072-.25 5.787-.752 7.235-1.336.27-.11.272-.1.036.219-.215.29-.245.793-.245 4.055v3.723l.594.557c.55.516.578.578.386.855-.598.86-3.71 1.677-7.933 2.083-1.506.145-9.132-.03-10.538-.242zm2.493-10.627c-3.297-.253-6.915-.985-7.757-1.568-.274-.19-.27-.207.113-.639l.394-.443v-3.436c0-3.164-.022-3.463-.278-3.77l-.277-.335 1.214.385c3.198 1.013 9.227 1.46 14.424 1.068 2.582-.194 5-.591 6.505-1.068l1.215-.385-.278.334c-.255.308-.277.607-.277 3.77v3.437l.386.435c.226.254.332.486.256.558-.249.236-2.04.802-3.423 1.083-3.154.64-8.242.88-12.217.574zm-1.88-9.639c-2.005-.233-3.74-.592-4.933-1.02-1.258-.452-1.267-.462-.823-1.013l.386-.479v-3.501c0-3.284.015-3.496.256-3.395.14.058.816.245 1.5.414 2.19.541 4.43.78 8.05.857 4.818.102 8.462-.22 11.307-.997l1.135-.31v6.932l.365.455c.202.25.366.482.366.516 0 .138-1.598.698-2.85.999-1.302.313-4.3.704-6.224.812-1.748.098-6.729-.06-8.535-.27zm-.262-9.13c-2.121-.27-4.25-.775-5.213-1.237-1.235-.592-1.185-.998.2-1.624 3.794-1.715 14.94-2 20.542-.524 1.76.463 2.75 1.058 2.557 1.536-.335.827-4.412 1.81-8.704 2.1-1.738.118-7.748-.043-9.382-.25zm14.608-1.185c.819-.166 1.175-.36 1.29-.702.238-.712-.735-1.03-3.15-1.028-1.526 0-1.926.046-2.415.275-.807.378-.816.86-.023 1.227.646.3 3.258.438 4.298.228zm-2.99-.646c-.42-.048-.735-.133-.699-.189.194-.297 3.732-.286 3.732.01 0 .203-1.856.312-3.033.178z" fill="#4d4d4d" stroke="#4d4d4d" stroke-width=".29" transform="matrix(.8705 0 0 .82265 22.16 -72.247)"/><path d="M59.845 140.503c-.081-.078-.148-.391-.148-.696 0-.541-.012-.557-.403-.593l-.402-.036-.036-1.163c-.026-.852.008-1.19.124-1.26.088-.052 1.06-.096 2.16-.097l2-.003-.249-.615c-.316-.785-.262-2.028.119-2.732.278-.514 1.205-1.385 1.702-1.6.285-.123.31-.194.31-.921 0-.681-.034-.797-.24-.848-.189-.047-.387-.497-.923-2.095-1.172-3.494-3.543-10.662-3.543-10.713 0-.027-.404-.065-.898-.084l-.897-.034v-2.815h33.555v2.815l-.877.034-.877.034-1.568 4.721c-.863 2.597-1.569 4.787-1.569 4.867 0 .106.3.135 1.146.11l1.145-.033.037-.47c.021-.26.127-.533.24-.615.312-.225 2.192-.196 2.438.038.165.156.195.572.195 2.732 0 1.826-.042 2.588-.149 2.69-.208.197-2.377.19-2.55-.009-.072-.081-.149-.358-.17-.615l-.04-.468-1.951-.032-1.95-.033v1.8l.621.565c.342.31.732.808.867 1.106.33.73.33 2.033 0 2.721l-.238.499 2.378.003c1.307 0 2.449.045 2.537.097.116.07.15.408.123 1.26l-.035 1.162-.459.036-.458.036-.037.668-.037.667h-4.334l-.062-.645c-.06-.627-.072-.646-.464-.681l-.402-.037v.64c0 .475-.05.658-.196.71-.108.04-1.084.072-2.17.072h-1.974l-.12-.3a2.273 2.273 0 0 1-.122-.704c0-.368-.031-.403-.365-.403-.358 0-.366.013-.402.674l-.038.674h-4.333l-.034-.293c-.111-.979-.15-1.055-.523-1.055-.351 0-.36.016-.397.674l-.037.674-2.13.032c-2.029.031-2.136.021-2.264-.204-.074-.13-.118-.435-.099-.677.034-.42.016-.442-.367-.477-.4-.037-.402-.034-.402.488 0 .937.1.897-2.218.897-1.442 0-2.112-.042-2.215-.14-.082-.078-.149-.395-.149-.704 0-.548-.01-.563-.371-.563-.367 0-.372.009-.372.632 0 .469-.05.651-.196.704-.383.14-4.08.079-4.237-.07zm3.579-.651c.008-.049.026-.344.042-.656.016-.312.102-.61.19-.661.22-.13 1.75-.119 2.015.014.166.084.217.26.217.75v.64h2.817l.057-.644c.03-.355.096-.683.145-.73.158-.149 1.764-.181 2.041-.04.22.11.264.24.264.774v.64h1.416c1.561 0 1.605-.021 1.504-.772-.027-.2-.001-.434.055-.522.134-.205 1.55-.293 2.009-.125.315.115.34.173.34.776v.651l1.455-.033 1.455-.033.035-.64c.02-.35.064-.665.098-.697.131-.125 1.617-.143 1.941-.025.315.115.34.174.34.776v.652l1.456-.033 1.455-.033.036-.662c.032-.569.076-.672.31-.732.425-.107 1.4-.084 1.75.042.289.104.318.175.318.766v.652l1.455-.033 1.455-.033.037-.674.037-.674.49-.074c.471-.072.489-.09.489-.528v-.454H88.62c-2.515 0-2.53 0-3.184.322-.56.275-.805.322-1.652.32-.833-.003-1.106-.056-1.676-.325l-.681-.321H68.55l-.677.322c-.481.229-.918.335-1.512.367-.732.039-.937 0-1.659-.32-.822-.365-.826-.365-2.976-.365h-2.153v.469c0 .396.04.469.256.469.565 0 .735.204.735.884v.64h1.424c.783 0 1.43-.04 1.436-.088zm4.09-2.734c2.124-1.027 1.86-3.981-.427-4.794-1.376-.489-3.084.356-3.507 1.734-.244.795-.146 1.463.317 2.154.774 1.156 2.305 1.54 3.617.906zm-2.103-.235c-.93-.353-1.504-1.136-1.504-2.051 0-1.426 1.402-2.505 2.816-2.168.975.233 1.547.796 1.775 1.747.124.52-.142 1.468-.52 1.851-.64.65-1.77.923-2.567.62zm1.407-.747c.805-.32 1.167-1.345.725-2.055-.667-1.069-2.359-.89-2.77.293-.252.72.036 1.34.805 1.732.466.237.702.242 1.24.03zm-1.28-.69c-.55-.554-.127-1.604.647-1.604.51 0 .99.483.99.997 0 .81-1.05 1.2-1.637.608zm.845-.673c0-.06-.083-.11-.185-.11-.192 0-.246.138-.107.27.099.094.292-.012.292-.16zm18.713 2.345c1.132-.547 1.77-2.034 1.34-3.122-.734-1.852-3.184-2.395-4.617-1.024-.575.55-.754.977-.759 1.808-.004.628.057.86.343 1.322.769 1.238 2.34 1.67 3.693 1.016zm-2.306-.305c-.937-.47-1.351-1.17-1.276-2.16.162-2.117 2.95-2.824 4.193-1.061.35.495.38.611.34 1.318-.036.629-.11.856-.389 1.203-.66.82-1.982 1.143-2.868.7zm1.885-.814c1.208-.725.56-2.626-.895-2.626-.46 0-.638.068-.996.38-.532.465-.66 1.022-.383 1.652.344.779 1.474 1.074 2.274.594zm-1.576-.515c-.574-.544-.132-1.642.66-1.642.365 0 .815.308.953.652.139.347-.068.951-.38 1.11-.373.189-.967.131-1.233-.12zm.867-.645a.181.181 0 0 0-.186-.176c-.193 0-.245.138-.103.273.143.135.289.086.289-.097zm-3.366 1.524l-.14-.293H69.518l-.142.293-.14.293H80.74zm-.348-1.732c.003-1.182.876-2.41 2.085-2.932.434-.188.815-.248 1.541-.245l.965.005-.036-.714-.036-.714H65.826l-.018.66-.018.66.69.076c1.87.208 3.223 1.52 3.285 3.181.02.534.062.638.27.667.137.018 2.491.019 5.232.003l4.984-.032.001-.613zm11.39-6.256v-2.038H90.282v4.09l.464.036c.945.075.898.184.898-2.088zm-5.96.16c.132-.403.696-2.105 1.254-3.781 2.045-6.146 2.478-7.469 2.478-7.574 0-.065-5.638-.108-14.116-.108-7.763 0-14.115.044-14.115.097 0 .054.394 1.28.875 2.727.482 1.446 1.32 3.975 1.864 5.62l1.115 3.371.127.381h20.278zm3.794-.146v-.821h-2.6l-.271.704c-.15.387-.275.77-.28.853-.005.116.351.143 1.572.118l1.579-.033zm1.857-12.782v-.704h-32.07l-.038.571c-.02.315-.009.645.027.734.056.137 2.552.157 16.074.132l16.007-.03z" fill="#4d4d4d" stroke="#4d4d4d" stroke-width=".134" transform="matrix(.8705 0 0 .82265 22.16 -72.247)"/><path d="M-.344 217.047c-1.046-.208-2.352-.931-3.029-1.675-.7-.77-3.085-5.316-4.203-8.01-2.697-6.5-3.22-10.16-1.922-13.446.412-1.042 1.048-1.959 2.022-2.91 1.462-1.429 3.102-2.035 5.488-2.03 2.755.009 4.916.813 6.64 2.477.532.513 1.025.935 1.094.936.07 0 .125-.376.123-.838-.004-.989-.47-2.064-1.205-2.785-.437-.43-.485-.553-.322-.84.251-.445.362-.428.94.142.267.264.537.48.6.48.064 0 .16-.252.212-.56.268-1.563 2.107-3.992 3.803-5.023 1.022-.621 2.761-1.236 3.795-1.34.798-.082.803-.079.803.396 0 1.314-.906 3.393-2.103 4.825-.995 1.192-3.112 2.395-4.946 2.811l-.866.197.154.507c.084.279.153.762.153 1.074v.568l.906-.807c2.983-2.656 8.078-3.05 11.144-.86 2.074 1.48 3.504 4.519 3.504 7.448 0 1.04-.521 3.581-1.126 5.495-1.056 3.338-3.924 9.508-5.406 11.627-1.044 1.493-2.466 2.17-4.626 2.201-1.348.02-1.526-.019-2.866-.62-1.9-.85-2.754-.852-4.657-.005-1.468.653-2.766.832-4.104.565zm3.729-1.414c1.422-.63 2.505-.867 3.308-.727.34.059 1.302.393 2.139.742 1.426.595 1.597.63 2.725.55 2.416-.167 3.488-1.157 5.387-4.972 3.515-7.066 4.956-12.313 4.247-15.473-.901-4.019-3.742-6.176-7.719-5.862-2.467.195-3.842.859-5.898 2.85-1.315 1.272-1.545 1.256-3.197-.23-.71-.638-1.33-1.209-1.378-1.268-.048-.06-.476-.292-.95-.517-2.209-1.051-5.08-1.16-7.051-.27-1.183.535-2.56 1.788-3.133 2.851-1.045 1.941-1.31 4.693-.701 7.3.973 4.17 4.66 12.49 6.3 14.219 1.426 1.503 3.66 1.808 5.92.807zm-1.017-10.428c-.895-.79-.618-1.627.846-2.558.567-.36 1.094-.594 1.173-.52.078.074.153.7.166 1.39.023 1.179-.003 1.275-.436 1.628-.562.458-1.271.482-1.749.06zm1.38-.417c.337-.32.388-2.074.054-1.896-1.256.673-1.662 1.334-1.128 1.84.395.374.72.39 1.074.056zm4.462.575c-.468-.273-.685-1.182-.556-2.325.065-.572.168-1.04.228-1.04.176 0 1.413.807 1.922 1.253.523.46.627 1.332.219 1.842-.274.343-1.4.51-1.813.27zm1.256-.546c.162-.117.295-.364.295-.549 0-.328-.634-1.014-1.225-1.325-.25-.131-.299-.086-.314.29-.038.953.052 1.414.316 1.607.344.251.553.246.928-.023zm-.183-16.763c.94-.454 2.607-1.992 3.163-2.921.273-.455.615-1.21.76-1.68l.264-.852-.544.102c-1.894.356-4.314 2.18-5.222 3.933-.432.835-.817 1.818-.817 2.088 0 .164 1.588-.28 2.396-.67z" fill="#8fb82b" stroke="#8fb82b" stroke-width=".554" transform="matrix(.8705 0 0 .82265 22.16 -72.247)"/><path d="M36.763 135.936c-.417-1.87.594-6.63 2.67-12.579 1.12-3.208 1.522-6.284 1.34-10.259l-.14-3.068h4.269l-.092-.972c-.11-1.156.408-2.098 1.43-2.606l.697-.346-.466-.768c-.579-.953-.613-2.729-.07-3.635.218-.364.73-.957 1.138-1.318.664-.588.747-.806.784-2.067.055-1.855.72-2.878 2.6-3.996.761-.454 1.113-.512 3.073-.512 1.72 0 2.277-.072 2.502-.324.16-.177.744-.495 1.3-.706.797-.302 1.202-.342 1.923-.19.774.164 1.04.122 1.746-.275.572-.32 1.198-.468 1.992-.468 3.013 0 4.738 2.902 2.895 4.87-.352.377-.514.802-.47 1.236.133 1.29-1.192 3.091-2.647 3.598-.633.22-.654.28-.559 1.544.055.723-.035 1.658-.199 2.077-.642 1.635-2.652 2.915-4.935 3.142-.901.09-1.213.208-1.213.459 0 .186-.172.545-.382.798l-.383.459h4.188l-.145 3.048c-.087 1.817-.029 3.965.143 5.32.278 2.189 1.115 5.392 1.503 5.754.387.36.85-2.947.842-6.012l-.009-3.151h3.476l-.09-.804c-.079-.685.036-.924.77-1.606.8-.744.837-.837.523-1.313-.717-1.09-.35-2.733.854-3.819.562-.507.688-.81.693-1.667.015-2.332 2.31-4.022 5.047-3.717 1.052.117 1.282.07 1.958-.41.633-.447.964-.529 1.915-.473.76.045 1.299-.036 1.593-.242.263-.182.942-.31 1.656-.31 1.084 0 1.298.081 2.052.772 1 .917 1.12 1.943.349 3.004-.27.373-.49.95-.49 1.285 0 .93-.705 1.967-1.692 2.49-.861.458-.888.508-.808 1.549.152 1.98-1.526 3.758-3.746 3.968-.84.08-1.139.213-1.35.604-.376.692-.379.689.6.689h.871l-.166 2.024c-.203 2.484.215 5.75 1.01 7.884 1.284 3.45 1.637 4.903 1.77 7.294l.136 2.427H63.708v.707c0 1.473 1.125 1.36-13.538 1.36H36.93zm25.733-.44c.165-3.31-.38-5.916-2.345-11.21-.443-1.195-.885-2.567-.982-3.048l-.176-.877-8.768.004-8.768.003-.549 1.805c-.301.993-.932 2.89-1.402 4.217-1.085 3.066-1.613 5.603-1.614 7.765v1.705h12.293c11.537 0 12.294-.023 12.311-.362zm15.47-2.789c-.003-1.643-.382-3.289-1.564-6.787l-1.075-3.183h-12.42l-.526 1.55-.525 1.55.659 2.17c.363 1.193.732 2.866.822 3.719.09.852.206 1.666.259 1.808.074.198 1.739.258 7.234.258h7.137zm-2.795-11.545c-.085-.355-.154-1.146-.154-1.756v-1.111H63.216v1.11c0 .611-.07 1.402-.154 1.757l-.154.646h12.416zm-16.468-2.712c-.085-.597-.156-1.759-.157-2.583l-.002-1.498H41.825v1.624c0 .894-.07 2.056-.156 2.583l-.156.959h17.346zm16.314-1.808v-.827H63.216v1.653h11.801zm-5.04-1.86c.102-.139.305-.139.613 0 .254.114.894.207 1.422.207 1.144 0 1.735-.456 1.935-1.492.138-.713.144-.716 1.28-.634 2.629.19 4.562-2.201 3.354-4.148-.5-.805-.48-.848.421-.901.5-.03 1.062-.277 1.536-.676.626-.526.747-.788.742-1.606-.005-.686.117-1.055.41-1.236.553-.342.804-1.367.465-1.899-.15-.234-.54-.573-.868-.754-.495-.272-.745-.287-1.464-.088-.478.133-.967.39-1.088.57-.186.28-.329.292-.947.076-.988-.343-1.86-.12-2.372.61-.434.617-.754.753-.996.424s-1.873-.466-2.725-.23c-.458.128-1.18.564-1.604.97-.708.678-.765.838-.7 2.001.068 1.213.035 1.295-.82 2.002-1.126.933-1.39 1.921-.793 2.977.236.418.702.91 1.037 1.094l.608.335-1.052.218c-1.294.267-2.098 1.067-1.864 1.852.151.506.246.535 1.739.535.868 0 1.647-.093 1.731-.207zm-11.392-2.583l.082-1.343H41.825V113.543h16.677zm-8.204-2.417c.23-.193.361-.193.59 0 .166.14.96.248 1.806.248 1.817 0 2.321-.349 2.507-1.732l.124-.922 1.506.017c1.623.02 2.624-.299 3.507-1.114 1.36-1.256 1.698-2.976.86-4.359-.254-.417-.402-.809-.329-.87.073-.061.515-.111.981-.111.658 0 1.063-.18 1.803-.803.949-.797 1.103-1.207.972-2.578-.038-.406.153-.776.61-1.175 1.297-1.14.698-3.154-1.066-3.579-.998-.24-1.918-.028-2.69.62-.554.466-.696.498-1.2.27-1.272-.571-3.139-.058-3.439.945-.174.584-.451.626-1.33.204-.337-.162-1.173-.298-1.857-.302-3.033-.018-5.01 2.342-4.231 5.054.156.545.084.67-.596 1.034-2.28 1.219-2.595 3.668-.677 5.28.959.806.962.815.33.815-1.543 0-2.803.972-2.803 2.162 0 1.064.162 1.144 2.313 1.144 1.239 0 2.128-.095 2.31-.248z" fill="#4d4d4d"/><path d="M140.184 229.54c-3.509-1.799-7.196-2.14-12.733-1.182-3.333.577-8.363.708-9.946.258-1.988-.564-12.19-6.671-13.878-8.306-1.135-1.101-2.248-2.687-2.463-3.51-.174-.667.52-1.516 1.23-1.508.538.007 2.15.707 3.238 1.407l.868.559.691-.55c1.082-.863 2.015-1.256 3.899-1.644l1.745-.359.917-1.615.918-1.616-.404-1.212c-.356-1.07-.463-1.196-.91-1.075-2.82.762-4.458.626-7.16-.591-1.606-.724-2.338-1.235-3.87-2.703-1.888-1.808-3.952-4.516-5.104-6.695-.335-.635-.61-1.223-.61-1.306 0-.083 1.078-.088 2.395-.01 4.44.263 8.712 1.196 11.453 2.502 3.583 1.706 5.012 3.921 4.383 6.793-.222 1.01-.21 1.336.07 1.84l.34.614.273-.878c.357-1.143.586-6.2.377-8.313l-.164-1.654-1.191-.4c-2.344-.79-4.273-3.094-5.204-6.22-.721-2.422-.711-10.7.014-11.367.212-.195 3.183 2.834 4.81 4.905 3.21 4.087 4.24 8.232 2.808 11.3-.483 1.032-.488 1.133-.152 2.956.191 1.039.347 2.886.347 4.106 0 2.19.006 2.213.459 1.825.363-.311.456-.674.448-1.749-.019-2.372.557-3.73 2.188-5.153 1.915-1.672 5.146-2.427 9.51-2.223 2.736.129 6.502.698 6.873 1.04.113.104-.251.403-.818.672-2.37 1.128-4.853 2.92-7.007 5.06-2.777 2.759-4.109 3.452-6.63 3.451-1.216 0-1.9-.126-2.668-.489-.966-.456-1.052-.463-1.334-.11-.42.526-1.325 2.663-2.13 5.025-.373 1.095-.857 2.367-1.075 2.826-.376.792-.375.842.018.978.228.078.824.487 1.326.91l.911.767 3.177-.12c1.748-.065 4.636-.337 6.419-.604 2.85-.426 3.466-.454 5.098-.228 3.369.467 6.758 1.753 10.35 3.93 2.031 1.23 4.79 3.19 4.79 3.403 0 .087-.694 1.188-1.543 2.446-.848 1.258-1.926 2.86-2.394 3.56-.468.7-.904 1.259-.968 1.243-.065-.015-.959-.46-1.987-.986zm3.78-3.19l1.91-2.872-.976-.75c-2.762-2.125-7.49-4.498-10.697-5.37-1.906-.517-2.389-.563-4.728-.453-1.433.068-3.605.279-4.825.468-1.471.229-3.765.346-6.8.347-2.717 0-4.878.1-5.314.244-2.522.833 2.045 1.904 7.162 1.68 2.438-.107 2.895-.075 3.01.21.075.184-.009.466-.187.624-.79.703-6.32 1.836-7.737 1.584-1.098-.195-6.466-2.7-9.135-4.263-2.404-1.408-3.003-1.654-3.427-1.406-.387.227.672 1.86 2.108 3.253 1.508 1.462 10.929 7.172 13.15 7.97 1.516.546 5.911.47 9.506-.162 4.259-.75 8.311-.72 10.864.08 1.028.322 2.29.826 2.803 1.119.514.293 1.04.54 1.168.551.129.011 1.094-1.274 2.145-2.853zm-26.559-5.404l1.519-.295-1.519-.028c-2.172-.04-4.399-.418-5.549-.94-.827-.377-.993-.558-.993-1.088 0-1.18 1.087-1.702 3.806-1.828.88-.041.882-.043.383-.428-.601-.464-3.639-.544-4.913-.13-.973.317-2.546 1.23-2.546 1.479 0 .213 4.079 2.264 6.023 3.03 1.55.61 1.76.622 3.79.228zm-4.941-12.54c.405-.133.735-.307.734-.387-.003-.32-.97-1.508-1.687-2.074-.42-.331-.637-.605-.481-.608.155-.003.865.443 1.577.992l1.294.998.034-.611c.063-1.145-.083-2.159-.394-2.73-.889-1.63-3.98-3.322-7.585-4.153-2.014-.464-7.678-1.243-7.85-1.08-.176.167 3.146 4.737 4.349 5.984 2.49 2.581 5.097 3.898 7.731 3.907.848.002 1.873-.104 2.278-.237zm12.52-2.953c.795-.37 1.848-1.233 3.215-2.632 1.247-1.276 2.815-2.584 4.054-3.38l2.02-1.3-1.016-.19c-.56-.104-2.54-.201-4.404-.216-2.661-.022-3.688.059-4.79.373-3.246.929-5.022 2.907-5.022 5.593v.96l.759-.44c1.16-.67 1.572-.523.455.163-1.122.69-1.178.831-.469 1.19 1.54.781 3.357.739 5.198-.12zm-9.92-9.692a45.152 45.152 0 0 0-.903-3.254c-.456-1.37-.501-2.187-.061-1.091.117.29.477 1.125.801 1.856.324.73.714 1.771.867 2.313.25.885.307.942.543.554.458-.752.303-3.817-.268-5.3-.72-1.867-2.406-4.421-4.333-6.564l-1.646-1.831-.205.878c-.295 1.266-.017 6.843.416 8.34.802 2.771 2.315 4.906 3.964 5.592 1.257.522 1.284.473.824-1.493zM33.967 195.848c-.3-.126-.742-.43-.98-.675-.409-.42-.465-.43-.947-.195-1.228.601-2.872.076-3.382-1.08-.51-1.157.064-2.8 1.353-3.867.654-.54.695-.631.627-1.372l-.072-.794-1.031.402c-1.986.773-3.787.374-4.741-1.05-.772-1.153-.877-2.433-.307-3.733.088-.201-.036-.338-.456-.503-1.116-.438-1.579-1.877-1.014-3.156.305-.693 1.263-1.48 1.962-1.613.474-.09.52-.163.52-.827 0-1.554 1.413-2.495 3.187-2.123 1.176.246 2.372 1.385 2.853 2.718.033.092.225.127.425.077.314-.077.355-.208.3-.944-.057-.779-.007-.906.558-1.442 1.094-1.036 2.383-1.13 3.894-.287l.62.347v-2.92h-1.162c-.836 0-1.228-.076-1.4-.273-.304-.346-.22-.476 1.64-2.538.786-.873 2.545-2.822 3.907-4.332l2.477-2.746v-10.46h-1.274v-3.277h9.104v3.276h-1.092v2.933l.613-.647c.338-.356 2.677-2.937 5.198-5.735 2.522-2.798 4.664-5.087 4.762-5.087.098 0 2.532 2.605 5.409 5.789 19.83 21.946 19.798 21.91 19.798 22.471v.54l-1.229.05-1.229.051v5.288l4.689 3.323c2.579 1.828 4.72 3.348 4.759 3.379.101.08-.508.929-.666.927-.073 0-2.044-1.359-4.38-3.018-2.337-1.659-4.283-3.016-4.325-3.016-.042 0-.077 1.911-.077 4.248v4.247l1.357-.082c1.545-.094 1.557-.084 1.557 1.258v.849h2.549v2.092l1.411-.04 1.411-.04.052 1.667.052 1.667H64.496c-23.368 0-26.835.032-27.406.258-.802.318-2.387.325-3.123.016zm2.633-1.132c.427-.216.735-1.059.735-2.007 0-.567-.06-.723-.254-.653-.47.171-1.835-.3-2.431-.841-.326-.295-.592-.491-.592-.436 0 .056-.129.745-.287 1.53-.313 1.566-.208 2.033.535 2.374.503.23 1.866.25 2.294.033zm44.984-1.9v-1.553H38.61v3.104h42.974zm8.376 1.12c0-.415-.044-.43-1.162-.43-1.364 0-1.62-.195-1.658-1.262l-.026-.722-.899-.045c-1.693-.085-1.718-.102-1.718-1.166v-.945H82.858V194.367h7.102zm-58.144-.246c.406-.357 2.06-3.13 2.06-3.451 0-.143-.1-.145-.371-.007-.204.103-.717.164-1.138.135-.696-.047-.846.02-1.617.73-1.004.924-1.287 1.8-.805 2.495.37.537 1.318.586 1.871.098zm5.231-2.876c.256-.093.288-.84.288-6.634v-6.529l-.588-.635c-1-1.078-2.09-1.31-2.917-.623-.748.622-.092 1.503 2.226 2.992.498.32.908.634.91.698.003.064-.876-.11-1.952-.387-2.31-.593-2.775-.617-3.349-.17l-.43.336.547.188c2.415.83 5.382 2.054 5 2.063-.255.006-1.443-.113-2.64-.264-2.918-.367-5.174-.274-6.34.262-1.873.86-2.734 2.26-2.298 3.736.303 1.023.877 1.481 1.98 1.582 1.13.102 2.072-.3 3.469-1.484l.992-.841.44.387.44.386-.379.494c-.747.976-.827 2.629-.139 2.877.4.144 1.036-.229 1.408-.826.41-.658.537-.706 1.1-.42.307.155.35.292.25.797-.253 1.273.873 2.418 1.982 2.015zm44.493-10.372l-.048-9.615H63.465c-9.914 0-19.563.023-21.44.05l-3.415.051v19.128H81.587zm-36.01-.647v-6.122h9.832v12.244H45.53zm4.188 2.414v-2.5h-2.914v5h2.914zm4.37 0v-2.5h-3.096v2.385c0 1.312.055 2.438.122 2.501.066.063.763.115 1.547.115h1.427zm-4.37-5.518v-1.81h-2.914v3.62h2.914zm4.37 0v-1.81h-3.096v3.62h3.096zm10.925 3.104v-6.122h9.833v12.244h-9.833zm4.188 2.414v-2.5H66.288V184.71H69.2zm4.37 0v-2.5H70.477V184.71h3.096zm-4.37-5.518v-1.81H66.288v3.62H69.2zm4.37 0v-1.81H70.477v3.62h3.096zm-47.457 5.006c.81-.585 2.042-1.074 3.062-1.216l.854-.118.123-.928c.15-1.14.032-1.619-.562-2.288-.624-.702-1.547-.986-2.22-.682-.755.341-.758 1.254-.008 2.25.188.25.159.363-.18.683-.317.3-.453.338-.625.175-.122-.115-.525-.21-.897-.21-1.316 0-2.208 1.832-1.213 2.492.565.375.982.336 1.666-.158zm11.221-10.46c0-.305-.045-.33-.273-.15-.15.117-.273.282-.273.365 0 .083.123.151.273.151.157 0 .273-.155.273-.366zm46.252.307c0-.033-.164-.2-.365-.372-.353-.303-.364-.3-.364.06 0 .257.113.371.364.371.2 0 .365-.026.365-.059zm-14.808-2.056c.118-.073.258-.066.311.015.053.081 2.934.165 6.403.185 5.147.03 6.28-.005 6.165-.187-.078-.124-1.544-1.778-3.258-3.675a23852.053 23852.053 0 0 1-16.064-17.804l-2.21-2.455-1.441 1.593c-.792.876-2.253 2.488-3.247 3.582a6896.228 6896.228 0 0 0-13.823 15.338 480.643 480.643 0 0 0-2.956 3.3c-.201.24 1.282.266 14.84.254 8.286-.008 15.162-.073 15.28-.146zm-9.283-3.536l-3.606-.047.055-4.035.055-4.034.548-.738c1.44-1.94 4.623-2.195 6.524-.522.912.803.935.922 1.03 5.227l.092 4.082-.546.057c-.3.031-2.17.035-4.152.01zm-.128-3.489v-2.241h-2.185V164.705h2.185zm3.642-.025v-2.216h-2.367v4.495l1.184-.03 1.183-.032zm-3.642-4.545c0-1.008-.036-1.12-.366-1.12-.545 0-1.62 1.031-1.75 1.68l-.114.561h2.23zm3.642 1.03c0-.05-.112-.342-.25-.647a2.93 2.93 0 0 0-1.616-1.488l-.5-.18v2.406h1.183c.65 0 1.183-.04 1.183-.091zm-16.684.105c1.064-1.178 1.935-2.206 1.935-2.285 0-.079-.942-.143-2.094-.143h-2.094v2.449c0 1.409.067 2.38.16 2.285.087-.09 1.03-1.128 2.093-2.306zm1.902-4.023c-.056-.373-.139-.39-2.107-.437l-2.048-.049v.874h2.107c2.08 0 2.106-.005 2.048-.388zm.002-2.137c-.057-.286-.285-.326-2.11-.37l-2.047-.048v.43c0 .43.005.432 1.957.48 1.077.028 2.027 0 2.112-.061.084-.061.124-.255.089-.431zm1.124-2.045v-.431h-6.556v.862h6.556z" fill="#8fb82b" stroke="#8fb82b" stroke-width=".195" transform="matrix(.8705 0 0 .82265 22.16 -72.247)"/><path d="M37.391 137.02a188.35 188.35 0 0 0-.722-2.804c-.194-.72-.277-1.365-.192-1.484.136-.188.931-.472 4.813-1.72.634-.205 1.245-.313 1.356-.24.199.128.087.43-.572 1.534l-.213.359 1.259.861c.692.474 1.276.838 1.298.807.022-.03.14-1.011.26-2.18.203-1.943.262-2.18.687-2.769.822-1.139 2.278-1.39 3.495-.602.721.466 1.084 1.054 1.113 1.803.012.303-.127 1.76-.308 3.237-.182 1.477-.334 2.795-.34 2.929-.004.133-.076.795-.16 1.47-.197 1.583-.678 2.353-1.727 2.758-1.095.423-1.659.26-3.726-1.074-1.227-.792-1.754-1.192-1.796-1.365-.047-.196-.062-.206-.076-.05-.014.152-.305.01-1.283-.623l-1.265-.818-.407.729c-.383.686-.77.994-1.032.824-.045-.029-.252-.74-.462-1.582zm1.894-.834c.11.005 1.664.959 3.454 2.12 3.529 2.291 3.599 2.321 4.496 1.97.752-.294 1.214-1.319 1.151-2.56-.014-.274-.067-.333-.27-.299-.19.033-1.111-.512-3.744-2.216l-3.491-2.26.125-.291c.068-.16.201-.429.295-.596.158-.282.107-.284-.727-.03-.493.15-1.448.458-2.122.683l-1.224.41.09.434c.051.239.279 1.157.506 2.042l.414 1.607.425-.511c.233-.282.513-.508.622-.503zm9.083.187c.158-.22.296-.558.306-.754.01-.195.151-1.428.313-2.74.312-2.53.247-2.98-.498-3.462-.964-.623-2.162-.353-2.65.599-.123.242-.326 1.434-.45 2.648l-.224 2.209 1.457.951 1.457.95zM25.22 127.78c-.808-.84-.742-2.476.13-3.256.326-.29 1.339-.81 5.457-2.803 1.459-.706 1.467-.726.741-1.626-.395-.49-.425-.955-.063-.983.34-.027 5.67 1.315 5.955 1.5.187.12.201.412.06 1.24l-.465 2.722c-.154.903-.324 1.78-.378 1.951-.152.479-.499.304-1.109-.557l-.538-.76-1.267.595c-.696.327-1.297.638-1.335.69-.037.052.696.59 1.63 1.195 1.975 1.279 2.373 1.678 2.613 2.617.419 1.646-1.089 3.17-2.848 2.88-.58-.097-.98-.33-4.446-2.585-2.094-1.363-3.957-2.632-4.137-2.82zm8.328 4.573c1.14.378 2.256-.292 2.405-1.444.105-.81-.173-1.101-2.478-2.593l-2.083-1.348-.779.366c-2.615 1.23-2.58 1.195-1.888 1.86.64.616 4.215 2.957 4.823 3.159zm-5.77-4.291c.147-.204.412-.423.59-.488s.941-.426 1.697-.802c2.184-1.088 4.578-2.227 4.942-2.35.326-.11.342-.101.636.377.165.27.342.483.392.474.074-.013.805-3.826.776-4.052-.013-.103-4.144-1.144-4.206-1.06-.03.041.08.298.243.571.376.626.306.696-1.586 1.596-.811.386-2.156 1.044-2.99 1.462-.832.417-1.658.813-1.834.878-.772.288-1.284 1.726-.84 2.356.107.151.581.53 1.054.841l.859.567zm17.344-2.329c-1.028-.833-1.922-1.586-1.985-1.672-.226-.31.132-.477 1.12-.521l1.003-.045.04-.583c.022-.321.073-.954.113-1.406.04-.452.037-.846-.008-.875-.045-.029-.708.231-1.474.579-3.036 1.376-3.598 1.467-4.722.762-.778-.487-1.346-1.57-1.055-2.013.032-.05.036-.243.01-.429-.033-.226.092-.535.375-.927.395-.548.61-.668 3.09-1.737a217.765 217.765 0 0 0 3.423-1.5c1.554-.723 2.967-1.204 3.48-1.185.753.027 1.952.894 2.208 1.594.11.301.103 1.777-.018 3.74-.109 1.784-.194 3.376-.188 3.538.01.271.077.29.88.25.954-.047 1.23.05 1.141.404-.047.188-3.466 3.502-4.265 4.134-.252.2-.628-.05-3.168-2.108zm3.974.338a38.934 38.934 0 0 0 1.55-1.452l.482-.5-.635-.028c-.426-.018-.664-.096-.721-.234-.047-.114.018-1.819.146-3.79.127-1.97.189-3.749.137-3.952-.054-.211-.326-.552-.636-.797-.478-.378-.614-.42-1.154-.35-.337.042-.947.232-1.356.42-.74.343-.742.344-.578.624.142.24.14 2.169-.004 3.394a75.23 75.23 0 0 0-.152 2.266c-.134 2.372-.174 2.481-.946 2.554-.33.032-.592.086-.58.12.028.087 3.08 2.552 3.246 2.621.074.031.614-.372 1.2-.896zm-8.542-4.42c.358.017 1.2-.278 2.675-.94 1.184-.531 2.192-1.024 2.24-1.094.11-.16.299-2.932.215-3.143-.153-.384-1.059-.139-3.546.958-2.206.974-2.684 1.236-2.97 1.631-.793 1.1-.034 2.518 1.386 2.588z" fill="#8fb82b" stroke="#8fb82b" stroke-width=".335" transform="matrix(.8705 0 0 .82265 22.16 -72.247)"/><path d="M61.714 269.59c-2.282-.392-4.517-1.96-5.549-3.893-.43-.805-.554-1.178-.442-1.323.16-.208.339-.076.507.373.401 1.075 1.42 2.343 2.5 3.111 2.945 2.098 7.185 1.807 9.757-.669 1.135-1.092 1.813-2.384 2.124-4.045l.052-.275-.372.345c-.379.352-.635.396-.634.109 0-.17 1.152-1.307 1.285-1.269.133.039.971 1.26.971 1.416a.204.204 0 0 1-.127.177c-.123.044-.173.005-.522-.416l-.156-.19-.145.704c-.167.807-.647 1.901-1.159 2.643-.844 1.224-2.344 2.346-3.816 2.855a8.827 8.827 0 0 1-4.274.346zm.921-2.02a1.046 1.046 0 0 1-.48-.27c-.168-.184-.19-.293-.19-.95v-.74l-.252-.053c-.225-.047-.299-.007-.711.394-.253.246-.571.483-.708.528-.369.122-.76-.035-1.202-.483-.648-.656-.626-.969.118-1.689.524-.508.561-.582.393-.787-.08-.098-.288-.134-.876-.154-.713-.024-.789-.042-1.001-.244-.202-.19-.234-.291-.262-.8-.055-1.033.255-1.318 1.436-1.318.695 0 .707-.003.762-.21.048-.18-.01-.274-.4-.653-.56-.546-.671-.742-.605-1.075.057-.286.785-1.038 1.125-1.16.316-.115.682.048 1.18.526.44.42.591.488.87.387.108-.04.133-.188.133-.798 0-.723.009-.758.244-.981.234-.222.278-.232.988-.232.639 0 .77.023.93.166.275.242.346.483.346 1.173 0 .573.014.621.201.702.183.079.243.047.648-.344.841-.812 1.234-.827 1.985-.075.351.352.426.478.426.714 0 .377-.098.537-.638 1.036-.414.383-.443.433-.356.613.09.186.137.198.886.224.773.026.797.033 1.035.286.223.236.244.309.244.846 0 1.045-.206 1.23-1.362 1.23-.682 0-.704.007-.805.216-.099.205-.083.235.32.598.573.519.676.676.676 1.029 0 .251-.066.37-.394.702-.78.789-1.127.799-1.918.056-.44-.413-.546-.476-.731-.432-.212.05-.217.066-.217.727 0 .708-.12 1.07-.4 1.213-.206.104-1.088.155-1.438.082zm1.17-.467c.093-.056.135-.286.166-.913l.042-.838.486-.208.485-.207.603.567c.333.313.677.568.766.568.186 0 .962-.69.962-.857 0-.06-.27-.374-.6-.697l-.602-.587.153-.414c.083-.228.21-.459.282-.513.085-.064.42-.1.953-.1.805 0 .823-.003.903-.202.132-.328.098-.87-.064-1.054-.128-.145-.252-.169-.982-.187l-.835-.021-.184-.356c-.101-.196-.186-.422-.19-.501-.001-.08.26-.399.581-.71.322-.31.585-.611.585-.67 0-.18-.76-.89-.952-.889-.105.002-.41.224-.761.557-.636.602-.657.608-1.286.328l-.303-.135-.042-.845c-.023-.464-.072-.873-.109-.908-.037-.034-.323-.077-.637-.093-.769-.041-.842.054-.842 1.097v.76l-.44.173c-.243.095-.48.173-.525.173-.047 0-.346-.25-.665-.554-.32-.305-.65-.555-.735-.555-.213 0-.896.675-.896.886 0 .105.226.392.584.741l.584.57-.2.466-.2.465-.86.023c-.472.012-.909.061-.969.108-.113.09-.155.969-.058 1.208.041.103.203.126.898.127.467 0 .886.027.932.06.046.031.168.252.272.49l.189.434-.586.558c-.72.687-.744.832-.211 1.297.206.18.451.327.546.327.102 0 .408-.226.751-.554.32-.305.612-.555.65-.555.04 0 .227.072.417.159.19.087.386.158.434.158.055 0 .088.287.088.774 0 1.025.07 1.127.778 1.125.285 0 .574-.035.643-.076zm-1.571-2.212c-.855-.3-1.547-.945-1.86-1.73-.23-.579-.198-1.52.073-2.1.261-.56.924-1.183 1.541-1.45.444-.192.624-.224 1.23-.222.88.003 1.474.232 2.073.8 1.858 1.76.643 4.716-1.987 4.83-.473.02-.737-.011-1.07-.128zm1.863-.455c.585-.188 1.223-.805 1.46-1.413.45-1.148-.078-2.387-1.274-2.986-.511-.256-1.613-.256-2.162 0-1.46.681-1.882 2.364-.916 3.65.206.273.734.625 1.153.766.438.148 1.252.14 1.74-.017zm-1.32-.431c-.937-.206-1.504-.888-1.506-1.813-.004-1.567 1.98-2.386 3.242-1.337.789.656.818 2.005.057 2.656-.513.438-1.192.625-1.793.494zm1.224-.618c.376-.22.64-.696.64-1.154 0-.773-.51-1.309-1.302-1.37-.562-.045-.868.07-1.243.463-.644.675-.427 1.688.455 2.119a1.579 1.579 0 0 0 1.45-.058zm-9.115-1.72c-.238-.375-.412-.73-.388-.79.08-.2.344-.114.53.171.102.155.2.266.22.247.02-.018.11-.322.198-.675.251-.995.64-1.864 1.174-2.62 1.054-1.492 2.656-2.568 4.576-3.074.724-.19.945-.213 2.065-.207 1.107.007 1.342.032 2.006.22 2.347.666 4.084 2.034 5.073 3.996.391.777.452 1.147.194 1.18-.135.017-.21-.08-.395-.514-.863-2.026-2.526-3.467-4.83-4.186-.655-.205-.815-.222-2.048-.226-1.025-.003-1.461.028-1.865.134-2.26.592-3.994 1.95-4.944 3.872-.33.666-.674 1.749-.674 2.118 0 .195.007.193.325-.102.318-.293.585-.354.657-.149.05.142-1.075 1.27-1.274 1.279-.124.006-.28-.17-.6-.675z" fill="#8fb82b" stroke="#8fb82b" stroke-width=".311" transform="matrix(.8705 0 0 .82265 22.16 -72.247)"/><g fill="#8fb82b" stroke="#8fb82b"><path d="M2.211 230.11l.266-.252.491-.002c.765-.004 1.387-.156 2.108-.515.39-.194 1.016-.587 1.289-.809l.08-.065-.074-.336c-.373-1.714-.142-3.063.75-4.399.37-.551.694-.916 1.894-2.134 1.665-1.688 2.366-2.467 3.103-3.449.89-1.183 1.566-2.349 2.04-3.516l.15-.365.02.216c.03.31-.008 2.444-.055 3.163-.303 4.613-1.564 7.863-3.74 9.636a5.22 5.22 0 0 1-1.042.662c-.728.359-1.26.489-2.077.505-.44.01-.537.019-.578.056-.031.028-.043.063-.032.097.014.046.007.051-.048.038-.05-.013-.122.024-.329.17-1.161.82-2.426 1.292-4.005 1.495-.236.03-.44.055-.453.055-.013 0 .096-.113.242-.251zm5.636-1.858c.6-.12 1.257-.38 1.793-.71 2.259-1.389 3.683-4.256 4.182-8.415a28.41 28.41 0 0 0 .19-3.26v-.652l-.131.326a13.61 13.61 0 0 1-2.079 3.559c-.468.58-.836.973-2.203 2.35-1.466 1.476-1.844 1.894-2.215 2.452-.427.645-.666 1.21-.805 1.908-.069.347-.069 1.347 0 1.752.05.297.127.658.143.676.042.046 1.366-1.26 1.842-1.817.942-1.1 2.083-2.708 2.868-4.041.064-.108.121-.197.128-.197.021 0-.28.536-.704 1.25-1.29 2.175-2.542 3.8-3.701 4.807l-.136.117.244-.018c.135-.01.398-.05.584-.087zm3.75-6.15c.015-.03.034-.055.042-.055.007 0 0 .025-.016.055s-.035.054-.042.054c-.008 0 0-.025.015-.054z" stroke-width=".544" transform="matrix(-.91074 -.34987 -.39091 .81512 123.444 -59.077)"/><path d="M2.557 230.308l.029-.212.223-.18c.347-.282.574-.579.77-1.006.107-.23.248-.639.291-.84l.013-.058-.157-.126c-.796-.643-1.185-1.342-1.267-2.276-.034-.386-.02-.67.08-1.664.14-1.377.174-1.988.15-2.704a9.225 9.225 0 0 0-.358-2.347l-.065-.22.088.09c.127.131.89 1.116 1.132 1.46 1.55 2.21 2.165 4.15 1.823 5.752-.05.238-.12.443-.231.683-.2.43-.395.683-.76.99-.198.165-.238.205-.243.236-.004.024.004.045.02.056.024.016.023.02-.007.035-.028.012-.047.056-.088.198-.228.798-.631 1.475-1.275 2.145-.096.1-.18.186-.186.19-.006.006.002-.086.018-.202zm1.885-2.907c.229-.274.433-.633.556-.979.52-1.458.119-3.284-1.176-5.359a16.587 16.587 0 0 0-1.106-1.553l-.239-.296.06.196c.242.794.357 1.56.356 2.38 0 .435-.024.748-.142 1.875-.128 1.208-.146 1.537-.11 1.926.04.45.138.794.33 1.163.096.183.462.638.642.797.131.117.298.253.312.255.036.006.16-1.073.174-1.5a18.284 18.284 0 0 0-.174-2.888.86.86 0 0 1-.014-.137c.01-.008.069.347.137.826.209 1.462.234 2.66.074 3.542l-.018.103.104-.098a3.52 3.52 0 0 0 .234-.253zm-.544-4.17c-.004-.02-.004-.038 0-.04.003-.003.008.01.012.03.004.02.004.038 0 .04-.003.003-.009-.01-.012-.03z" stroke-width=".318" transform="matrix(-.91074 -.34987 -.39091 .81512 123.444 -59.077)"/></g><path d="M109.98 143.99c-1.554 0-2.772.89-3.655 2.674-.882 1.775-1.324 4.193-1.324 7.256 0 3.038.442 5.452 1.324 7.244.883 1.783 2.101 2.675 3.655 2.675 1.557 0 2.777-.892 3.66-2.675.883-1.792 1.324-4.206 1.324-7.244 0-3.063-.443-5.481-1.33-7.256-.887-1.783-2.105-2.675-3.654-2.675zm-21.529.025c-.376 0-.744.047-1.103.14a4.1 4.1 0 0 0-.935.333c-.329.171-.597.333-.805.487a8.49 8.49 0 0 0-.668.524v4.352h.273c.125-.188.28-.418.467-.691.19-.273.407-.53.649-.768.268-.256.554-.465.857-.627.307-.171.64-.256 1-.256.289 0 .579.076.869.23.294.145.564.384.811.717.247.332.459.759.636 1.28.178.52.3 1.164.37 1.932h-4.245v3.635h4.304c-.052.99-.178 1.804-.377 2.444-.195.64-.428 1.152-.7 1.536-.26.375-.555.644-.884.806-.328.154-.638.23-.928.23-.41 0-.766-.08-1.064-.243-.299-.17-.58-.38-.844-.627a5.357 5.357 0 0 1-.61-.704 13.123 13.123 0 0 1-.474-.717h-.24v4.313c.126.103.31.244.552.423.242.17.513.337.811.499.281.153.597.281.948.384.354.11.737.166 1.148.166.77 0 1.467-.222 2.09-.665.628-.453 1.164-1.092 1.61-1.92.446-.828.796-1.89 1.051-3.187.256-1.305.383-2.773.383-4.402 0-1.519-.117-2.867-.35-4.044-.23-1.178-.56-2.18-.993-3.008-.442-.844-.967-1.484-1.577-1.92a3.418 3.418 0 0 0-2.032-.652zm14.344.333c-.744 0-1.3.247-1.668.742-.368.486-.719 1.305-1.052 2.457-.077.273-.175.623-.292 1.05-.112.418-.214.78-.305 1.087a15.81 15.81 0 0 1-.422 1.254c-.134.333-.26.585-.376.756a1.036 1.036 0 0 1-.37.345c-.134.06-.303.098-.506.115v-7.768H95.31v19.056h2.493v-7.692h.61l2.856 7.692h3.056l-3.783-9.829c.142-.153.29-.41.441-.768.151-.367.346-.998.584-1.894.238-.904.454-1.536.65-1.894.198-.358.475-.537.83-.537h.72v-4.134c-.082 0-.21-.005-.383-.014a6.067 6.067 0 0 0-.59-.025zm7.191 3.237c.312 0 .61.116.896.346.29.23.545.601.766 1.113.216.495.391 1.144.525 1.946s.201 1.774.201 2.918c0 1.066-.058 1.996-.175 2.79-.117.784-.296 1.467-.538 2.047-.217.512-.47.892-.76 1.14-.29.238-.595.358-.915.358-.32 0-.625-.12-.915-.359-.29-.239-.543-.61-.76-1.113-.216-.504-.391-1.152-.525-1.945-.13-.803-.195-1.77-.195-2.906 0-1.109.067-2.081.201-2.918.139-.844.316-1.505.532-1.983.234-.512.49-.879.766-1.1.282-.223.58-.334.896-.334z" style="line-height:1.25;-inkscape-font-specification:'sans-serif Bold'" font-weight="700" font-size="10.583" font-family="sans-serif" letter-spacing="0" word-spacing="0" fill="none" stroke="#8fb82b" stroke-width="1.292" transform="matrix(.8705 0 0 .82265 22.16 -72.247)"/><path style="line-height:1.25;-inkscape-font-specification:'sans-serif, Bold';font-variant-ligatures:normal;font-variant-caps:normal;font-variant-numeric:normal;font-feature-settings:normal;text-align:start" d="M23.192 0c-.779 0-1.39.38-1.832 1.14-.442.755-.664 1.786-.664 3.09 0 1.295.222 2.324.664 3.087.443.76 1.053 1.14 1.832 1.14.78 0 1.392-.38 1.835-1.14.442-.763.664-1.792.664-3.086 0-1.305-.223-2.336-.667-3.092C24.579.38 23.968 0 23.192 0zm11.27 0c-.778 0-1.388.38-1.83 1.14-.443.755-.665 1.786-.665 3.09 0 1.295.222 2.324.664 3.087.443.76 1.053 1.14 1.831 1.14.781 0 1.393-.38 1.836-1.14.442-.763.664-1.792.664-3.086 0-1.305-.223-2.336-.668-3.092C35.85.38 35.24 0 34.462 0zm5.662 0c-.779 0-1.39.38-1.832 1.14-.442.755-.664 1.786-.664 3.09 0 1.295.222 2.324.664 3.087.443.76 1.053 1.14 1.832 1.14.781 0 1.393-.38 1.835-1.14.443-.763.664-1.792.664-3.086 0-1.305-.223-2.336-.667-3.092C41.51.38 40.9 0 40.124 0zm65.659 0c-.779 0-1.39.38-1.832 1.14-.443.755-.664 1.786-.664 3.09 0 1.295.221 2.324.664 3.087.442.76 1.053 1.14 1.832 1.14.78 0 1.392-.38 1.835-1.14.442-.763.663-1.792.663-3.086 0-1.305-.222-2.336-.666-3.092C107.17.38 106.559 0 105.783 0zm11.296 0c-.779 0-1.39.38-1.832 1.14-.442.755-.663 1.786-.663 3.09 0 1.295.22 2.324.663 3.087.443.76 1.053 1.14 1.832 1.14.781 0 1.393-.38 1.835-1.14.443-.763.664-1.792.664-3.086 0-1.305-.222-2.336-.667-3.092C118.466.38 117.856 0 117.08 0zm40.33.01c-.19 0-.374.02-.554.06-.18.037-.336.085-.468.143-.165.073-.3.141-.404.207a4.246 4.246 0 0 0-.335.223v1.854h.137l.234-.295c.095-.116.204-.225.325-.327.135-.109.278-.198.43-.267.154-.073.32-.109.5-.109.146 0 .291.033.437.098.147.062.283.164.406.306.124.141.23.323.32.545.088.222.15.496.185.823h-2.128V4.82h2.157c-.026.421-.09.769-.189 1.041-.097.273-.215.49-.351.654a1.14 1.14 0 0 1-.908.442c-.206 0-.384-.035-.533-.104a2.264 2.264 0 0 1-.423-.267c-.11-.09-.213-.19-.306-.3a5.612 5.612 0 0 1-.238-.305h-.12v1.837a4.308 4.308 0 0 0 .684.393 2.636 2.636 0 0 0 1.05.234c.386 0 .736-.094 1.048-.283.315-.193.583-.465.807-.818.223-.352.399-.805.527-1.358a8.384 8.384 0 0 0 .192-1.875c0-.647-.059-1.221-.176-1.723a4.24 4.24 0 0 0-.498-1.281 2.4 2.4 0 0 0-.79-.818 1.925 1.925 0 0 0-1.019-.278zm5.631 0c-.369 0-.71.1-1.021.295-.31.197-.57.475-.781.834-.22.375-.386.824-.501 1.347a8.178 8.178 0 0 0-.173 1.75c0 .691.06 1.3.18 1.827.12.527.291.966.51 1.319.22.353.48.618.784.796.306.178.639.267 1 .267.242 0 .433-.02.572-.06a2.86 2.86 0 0 0 .446-.174c.121-.058.237-.127.347-.207.111-.08.227-.166.349-.257v-1.94h-.13a6.7 6.7 0 0 1-.225.31c-.09.12-.19.233-.296.338-.126.131-.264.235-.413.311a.968.968 0 0 1-.45.115c-.158 0-.318-.042-.481-.126a1.26 1.26 0 0 1-.442-.43c-.13-.197-.239-.466-.325-.808-.085-.341-.128-.767-.128-1.275 0-.487.04-.902.118-1.243.08-.342.184-.616.312-.823.134-.215.28-.368.44-.459a.963.963 0 0 1 .5-.141c.159 0 .307.04.446.12.139.08.268.178.387.294.118.116.221.235.313.355.093.12.17.223.23.31h.144V.687a5.326 5.326 0 0 0-.312-.234 2.335 2.335 0 0 0-.394-.235 2.378 2.378 0 0 0-.456-.147 2.309 2.309 0 0 0-.55-.06zM0 .17v8.118h1.25V1.74h1.844v6.548h1.25V.17zm5.583 0v8.118h1.25V5.643h.777c.354 0 .649-.082.885-.245.239-.164.455-.406.648-.725.14-.237.25-.527.325-.873.076-.349.114-.705.114-1.068 0-.47-.052-.871-.156-1.205A2.121 2.121 0 0 0 8.98.703a1.556 1.556 0 0 0-.563-.398C8.207.215 7.947.17 7.64.17zm4.881 0v8.118h1.19l2.011-5.403v5.403h1.217V.17h-1.33l-1.872 4.89V.17zm5.635 0v8.118h1.25V5.643h.777c.354 0 .649-.082.885-.245.239-.164.455-.406.648-.725.14-.237.249-.527.325-.873.076-.349.114-.705.114-1.068 0-.47-.052-.871-.157-1.205a2.12 2.12 0 0 0-.445-.824 1.556 1.556 0 0 0-.563-.398c-.21-.09-.47-.136-.778-.136zm11.206 0c0 1.261-.068 2.446-.202 3.555a19.3 19.3 0 0 1-.576 2.988h-.368v3.44h1.149V8.26h2.941v1.892h1.149v-3.44h-.478V.169zm15.764 0l1.682 4.03-1.718 4.088h1.38l1.063-2.671 1.045 2.671h1.444l-1.718-4.17L47.94.169h-1.383l-1.037 2.53-1.01-2.53zm5.593 0v8.118h1.25V5.643h.776c.354 0 .65-.082.886-.245.238-.164.454-.406.647-.725.141-.237.25-.527.326-.873.076-.349.113-.705.113-1.068 0-.47-.052-.871-.156-1.205a2.121 2.121 0 0 0-.446-.824 1.556 1.556 0 0 0-.562-.398c-.21-.09-.47-.136-.778-.136zm6.13 0l-1.79 8.118h1.26l.334-1.64h1.796l.335 1.64h1.292L56.23.17zm3.93 0v8.118h1.249V4.711h1.845v3.576h1.25V.17h-1.25V3.14H59.97V.17zm5.583 0v8.118h1.25V4.711H67.4v3.576h1.249V.17h-1.25V3.14h-1.844V.17zm5.583 0v8.118h2.236c.303 0 .561-.049.774-.147.215-.102.42-.285.618-.55.156-.212.279-.482.368-.813.091-.335.136-.7.136-1.096 0-.392-.037-.754-.113-1.085a2.116 2.116 0 0 0-.365-.829 1.272 1.272 0 0 0-.572-.447c-.215-.083-.49-.125-.827-.125h-1.005V.17zm4.594 0v8.118h1.25V.17zm2.486 0v8.118h3.505v-1.57H78.21V4.71h2.099V3.14H78.21V1.738h2.262V.17zm6.348 0v1.57h1.513v6.548h1.25V1.74h1.513V.17zm5.027 0v8.118h3.504v-1.57h-2.261V4.71h2.098V3.14h-2.098V1.738h2.261V.17zm4.05 0l1.683 4.03-1.718 4.088h1.38L94.8 5.616l1.045 2.671h1.445l-1.719-4.17L97.264.169h-1.382l-1.038 2.53L93.835.17zm5.594 0v8.118h1.25V4.711h1.844v3.576h1.25V.17h-1.25V3.14h-1.845V.17zm11.84 0a192.226 192.226 0 0 1-.052 2.764c-.03.952-.077 1.694-.14 2.225-.06.527-.173.912-.338 1.156a.376.376 0 0 1-.157.136.715.715 0 0 1-.27.038.653.653 0 0 1-.087-.005l-.066-.012h-.045v1.816a3.193 3.193 0 0 0 .56.055c.177 0 .346-.051.504-.153.158-.102.29-.238.397-.409.082-.13.164-.3.247-.507.082-.207.16-.474.234-.802.072-.323.136-.734.192-1.232.059-.501.102-1.119.13-1.853l.03-.807.026-.84h1.386v6.548h1.25V.17zm10.701 0v8.118h1.25V1.74h2.244V.17zm4.243 0v8.118h1.19l2.012-5.403v5.403h1.217V.17h-1.332l-1.87 4.89V.17zm5.635 0v8.118h1.191l2.01-5.403v5.403h1.218V.17h-1.331l-1.871 4.89V.17zm7.913 0v8.118h1.25V4.711h1.844v3.576h1.25V.17h-1.25V3.14h-1.845V.17zm6.833 0l-1.79 8.118h1.26l.335-1.64h1.795l.336 1.64h1.292L146.59.17zm5.723 0v1.57h1.513v6.548h1.25V1.74h1.512V.17zM23.195 1.532c.157 0 .306.05.449.147.145.099.273.256.384.474.108.211.196.488.264.83.067.34.1.756.1 1.243 0 .454-.028.85-.087 1.188a3.243 3.243 0 0 1-.27.872c-.109.219-.236.38-.381.486a.786.786 0 0 1-.459.152.787.787 0 0 1-.458-.152 1.253 1.253 0 0 1-.381-.475 3.274 3.274 0 0 1-.264-.829 6.727 6.727 0 0 1-.097-1.237c0-.473.033-.887.1-1.243.07-.36.159-.642.267-.845.118-.219.246-.375.384-.47a.793.793 0 0 1 .45-.14zm11.271 0c.156 0 .306.05.449.147.145.099.273.256.384.474.108.211.196.488.263.83.067.34.101.756.101 1.243 0 .454-.029.85-.087 1.188a3.243 3.243 0 0 1-.27.872c-.11.219-.236.38-.382.486a.786.786 0 0 1-.458.152.787.787 0 0 1-.459-.152 1.253 1.253 0 0 1-.38-.475 3.274 3.274 0 0 1-.264-.829 6.727 6.727 0 0 1-.098-1.237c0-.473.034-.887.1-1.243.07-.36.16-.642.268-.845.117-.219.245-.375.384-.47a.793.793 0 0 1 .45-.14zm5.661 0c.156 0 .306.05.45.147.145.099.273.256.383.474.109.211.197.488.264.83.067.34.1.756.1 1.243 0 .454-.029.85-.087 1.188a3.243 3.243 0 0 1-.27.872c-.109.219-.236.38-.38.486a.787.787 0 0 1-.46.152.787.787 0 0 1-.459-.152 1.253 1.253 0 0 1-.38-.475 3.274 3.274 0 0 1-.264-.829 6.727 6.727 0 0 1-.097-1.237c0-.473.033-.887.1-1.243.07-.36.159-.642.267-.845.117-.219.245-.375.384-.47a.793.793 0 0 1 .45-.14zm65.659 0c.156 0 .306.05.449.147.145.099.273.256.384.474.108.211.196.488.263.83.068.34.101.756.101 1.243 0 .454-.03.85-.088 1.188a3.243 3.243 0 0 1-.27.872c-.108.219-.235.38-.38.486a.787.787 0 0 1-.46.152.787.787 0 0 1-.458-.152 1.253 1.253 0 0 1-.38-.475 3.274 3.274 0 0 1-.264-.829 6.727 6.727 0 0 1-.098-1.237c0-.473.034-.887.101-1.243.07-.36.158-.642.267-.845.117-.219.245-.375.384-.47a.793.793 0 0 1 .449-.14zm11.296 0c.156 0 .306.05.45.147.145.099.273.256.383.474.109.211.197.488.264.83.067.34.1.756.1 1.243 0 .454-.029.85-.087 1.188a3.243 3.243 0 0 1-.27.872c-.108.219-.236.38-.38.486a.787.787 0 0 1-.46.152.786.786 0 0 1-.458-.152 1.253 1.253 0 0 1-.381-.475 3.274 3.274 0 0 1-.264-.829 6.727 6.727 0 0 1-.097-1.237c0-.473.033-.887.1-1.243.07-.36.16-.642.268-.845.117-.219.245-.375.384-.47a.791.791 0 0 1 .448-.14zm-110.25.153h.216c.206 0 .37.005.494.016.124.007.25.055.38.142.098.065.184.181.258.349.074.163.11.36.11.589 0 .232-.018.43-.055.594-.035.16-.092.298-.172.414a.669.669 0 0 1-.349.262c-.136.044-.31.066-.523.066h-.358zm10.516 0h.215c.206 0 .371.005.495.016.123.007.25.055.38.142.098.065.184.181.257.349.074.163.111.36.111.589 0 .232-.018.43-.055.594-.035.16-.093.298-.173.414a.668.668 0 0 1-.348.262 1.756 1.756 0 0 1-.524.066h-.358zm32.563 0h.215c.206 0 .37.005.494.016.124.007.25.055.381.142.098.065.183.181.257.349.074.163.11.36.11.589 0 .232-.018.43-.055.594-.035.16-.092.298-.172.414a.669.669 0 0 1-.348.262 1.756 1.756 0 0 1-.524.066h-.358zm-21.451.054h1.21v4.973h-1.946c.187-.65.345-1.394.475-2.23.133-.84.22-1.754.26-2.743zm27.034.507l.596 2.912h-1.191zm90.36 0l.596 2.912h-1.19zm-74.716 2.46h.787c.18 0 .321.028.423.086a.65.65 0 0 1 .24.235.924.924 0 0 1 .115.332c.017.12.026.248.026.382 0 .15-.017.285-.05.409a.987.987 0 0 1-.133.31.657.657 0 0 1-.253.224.765.765 0 0 1-.368.088h-.787z" font-weight="700" font-size="8.626" font-family="sans-serif" letter-spacing="0" word-spacing="0" fill="#4d4d4d"/><text style="line-height:1.25" x="134.704" y="103.497" font-weight="400" font-size="10.583" font-family="sans-serif" letter-spacing="0" word-spacing="0" stroke-width=".265" transform="translate(-24.56 -58.329)"/></svg>