<svg xmlns="http://www.w3.org/2000/svg" width="32" height="32" viewBox="0 0 8.4666668 8.4666666"><g transform="translate(-263.107 -240.311)"><flowRoot xml:space="preserve" style="line-height:1.25" transform="translate(-83.87 -175.735)" font-style="normal" font-weight="400" font-size="192" font-family="sans-serif" letter-spacing="0" word-spacing="0" fill="#000" fill-opacity="1" stroke="none"><flowRegion font-size="192"><path d="M48.571 157.987h1002.857v384.286H48.571z"/></flowRegion><flowPara/></flowRoot><path d="M265.576 248.538c-.058-.048-.625-.71-1.26-1.47-.886-1.06-1.156-1.408-1.155-1.49 0-.105.82-1.441.986-1.607.076-.076.078-.073.254.255.098.183.388.743.644 1.245.483.948.55 1.056.615.991.021-.021.147-.279.28-.573 1.083-2.402 2.468-4.355 3.68-5.189.199-.137.214-.141.34-.09.324.133 1.604 1.076 1.56 1.148-.013.02-.207.18-.433.354-1.326 1.027-2.867 2.835-4.589 5.385-.354.524-.683.993-.73 1.041l-.086.09z" fill="#92b92b" stroke="#92b92b" stroke-width=".085" stroke-linejoin="round"/></g></svg>