<svg xmlns="http://www.w3.org/2000/svg" width="504" height="395.995" viewBox="0 0 133.34999 104.77357"><path d="M1.282 104.178C.51 103.526 0 102.661 0 102.005c0-.233 3.778-7.98 8.396-17.215l8.396-16.792h99.761l8.399 16.788c4.619 9.233 8.398 16.978 8.398 17.21 0 .697-.722 1.877-1.432 2.343-.614.402-5.704.436-65.3.435l-64.634-.001zm80.825-3.24c-.041-1.17-.39-3.348-1.508-9.392l-.318-1.72-13.468-.069c-7.407-.037-13.57.034-13.696.16-.192.192-.488 1.772-1.397 7.45-.058.363-.24 1.471-.403 2.461-.164.99-.232 1.973-.15 2.185.127.332 2.274.375 15.567.317l15.42-.069zm39.825-12.272c.361-.229-.125-1.317-6.544-14.65l-2.134-4.432-46.626.067-46.626.067-2.587 5.424a3488.714 3488.714 0 0 1-4.48 9.355c-1.512 3.14-1.82 3.978-1.527 4.163.474.3 110.05.306 110.524.007zM13.229 87.434c0-.078.24-.614.535-1.19l.534-1.048h5.01l-.579 1.19-.578 1.19H15.69c-1.353 0-2.46-.063-2.46-.142zm6.88.016c0-.07.19-.606.425-1.19l.426-1.064h2.513c2.288 0 2.496.041 2.325.463-.103.254-.306.79-.45 1.19-.263.724-.278.728-2.752.728-1.368 0-2.488-.057-2.488-.127zm6.878-.105c0-.128.18-.664.4-1.191l.401-.958h2.378c1.308 0 2.377.089 2.376.198 0 .11-.125.645-.277 1.19l-.275.993h-2.501c-1.376 0-2.502-.105-2.502-.232zm6.88-.125c0-.197.13-.733.29-1.191l.29-.833h4.986l-.162.727c-.391 1.758-.208 1.654-2.909 1.654-1.92 0-2.495-.083-2.495-.357zm6.96-.834l.273-1.19h37.155l.16.595c.087.327.16.863.163 1.19l.004.596H40.555zm39.502.772c-.088-.23-.16-.766-.16-1.19v-.772h2.513c1.957 0 2.514.08 2.514.363 0 .2.074.736.165 1.191l.166.827h-2.519c-2.052 0-2.548-.077-2.679-.419zm6.866.088a13.98 13.98 0 0 1-.25-1.19l-.148-.86h4.956l.174.727c.095.4.235.936.31 1.19.125.42-.107.464-2.401.464-1.802 0-2.57-.096-2.641-.33zm6.904.13c-.068-.11-.208-.65-.312-1.2l-.187-1.001 2.467.077 2.468.076.325 1.124.325 1.125h-2.481c-1.365 0-2.537-.09-2.605-.2zm6.616-.99l-.406-1.19h4.988l.4.958c.22.527.4 1.063.4 1.19 0 .128-1.119.233-2.488.233h-2.488zm6.935 0l-.428-1.19h2.471c2.668 0 2.62-.025 3.277 1.702l.259.679h-5.151zm6.97 0l-.578-1.19h5.01l.534 1.047c.294.577.535 1.113.535 1.191 0 .079-1.108.143-2.461.143h-2.46zM63.5 82.881v-1.125h4.762v2.08l-2.381.084-2.382.085v-1.124zm-48.419.868c0-.067.2-.544.446-1.058l.446-.935h3.39c1.865 0 3.391.045 3.391.1 0 .055-.18.531-.4 1.058l-.4.959h-3.437c-1.89 0-3.436-.056-3.436-.124zm8.731-.144c0-.158.182-.639.404-1.068.401-.776.418-.78 2.764-.78h2.361l-.343.991-.343.992-2.421.077c-1.614.05-2.422-.02-2.422-.212zm6.615.043c0-.124.13-.6.29-1.059l.291-.833h2.355c2.549 0 2.668.084 2.049 1.443-.296.648-.397.674-2.646.674-1.286 0-2.339-.102-2.339-.225zm6.615 0c0-.124.13-.6.29-1.059l.29-.833h4.721l-.159.728c-.088.4-.205.876-.261 1.058-.118.382-4.881.485-4.881.106zm6.713-.602c.091-.455.166-.931.166-1.058 0-.128 1.071-.232 2.381-.232 2.342 0 2.381.01 2.381.64 0 1.394-.151 1.477-2.707 1.477H43.59zm6.52.364c.001-.255.075-.731.163-1.059.15-.56.296-.595 2.51-.595 2.309 0 2.35.011 2.35.64 0 1.391-.155 1.477-2.674 1.477-2.066 0-2.353-.057-2.35-.463zm6.61-.596v-1.058H61.794l-.1 1.058-.102 1.059H56.885zm13.23 0v-1.058h4.706l.101 1.058.101 1.059h-4.908zm6.516.463c-.398-1.487-.35-1.52 2.187-1.52 2.52 0 2.674.085 2.674 1.476 0 .629-.041.64-2.35.64-2.215 0-2.36-.035-2.51-.596zm6.625.42c-.097-.098-.177-.574-.177-1.059v-.882h4.697l.165.827c.09.455.165.93.165 1.058 0 .268-4.586.32-4.85.055zm6.567-.42c-.474-1.648-.64-1.52 1.976-1.52 2.339 0 2.413.018 2.664.678.525 1.381.442 1.438-2.106 1.438-2.223 0-2.373-.035-2.534-.596zm6.511-.237c-.16-.459-.29-.935-.29-1.059 0-.124 3.49-.225 7.756-.225h7.756l.446.935c.245.514.446.99.446 1.058 0 .068-3.56.124-7.912.124h-7.911zm17.437-.226l-.54-1.058h4.146l.446.935c.245.514.446.99.446 1.058 0 .068-.89.124-1.98.124h-1.978zm-96.649-3.24l.502-.86 4.813-.073 4.812-.072-.444.932-.445.932h-9.74zm10.924.768c0-.05.187-.468.416-.926l.416-.835h2.23c1.226 0 2.23.111 2.23.247 0 .137-.117.553-.259.927-.25.659-.326.678-2.645.678-1.314 0-2.388-.041-2.388-.091zm6.614-.156c0-.136.117-.553.258-.926.25-.656.336-.679 2.519-.679h2.26l-.173.728c-.096.4-.224.817-.286.926-.162.29-4.578.243-4.578-.05zm6.448-.348c.088-.328.161-.744.163-.926.003-.24.664-.33 2.414-.33 2.088 0 2.388.055 2.249.418-.089.23-.161.647-.161.926 0 .463-.21.507-2.412.507-2.373 0-2.41-.01-2.253-.595zm6.35 0c.088-.328.161-.744.163-.926.003-.24.664-.33 2.414-.33 2.088 0 2.388.055 2.249.418-.089.23-.161.647-.161.926 0 .463-.21.507-2.412.507-2.373 0-2.41-.01-2.253-.595zm6.35 0c.088-.328.161-.744.163-.926.003-.239.632-.33 2.253-.33h2.249v1.851H56.06c-2.373 0-2.41-.01-2.253-.595zm6.35 0c.088-.328.161-.744.163-.926.003-.239.632-.33 2.253-.33h2.249v1.851H62.41c-2.373 0-2.41-.01-2.253-.595zm6.517-.33v-.927h4.498v1.852h-4.498zm6.346.594c-.002-.181-.075-.598-.163-.926-.157-.585-.12-.595 2.253-.595h2.412v1.852h-2.249c-1.62 0-2.25-.092-2.253-.33zm6.256-.264c-.33-1.232-.285-1.257 2.215-1.257 2.17 0 2.38.045 2.38.508 0 .279.073.696.162.926.139.362-.158.418-2.219.418-2.243 0-2.387-.034-2.538-.595zm6.35 0c-.33-1.232-.285-1.257 2.215-1.257 2.17 0 2.38.045 2.38.508 0 .279.073.696.162.926.139.362-.158.418-2.219.418-2.243 0-2.387-.034-2.538-.595zm6.35 0c-.328-1.225-.275-1.257 2.056-1.257h2.224l.29.833c.16.459.29.875.29.926 0 .051-1.057.093-2.35.093-2.214 0-2.36-.034-2.51-.595zm6.253-.33l-.285-.927h4.661l.291.833c.16.459.29.875.29.926 0 .051-1.051.093-2.336.093h-2.337zm6.42-.067c-.624-1.555-.8-1.766-1.693-2.022-.556-.16-.891-.453-.997-.874-.087-.349-.11-.683-.05-.743.134-.134 6.83-.223 6.96-.092.14.14 1.99 4.389 1.99 4.568 0 .085-1.308.155-2.907.155h-2.906zm7.672.212c-.222-.43-.403-.846-.403-.926 0-.08.87-.146 1.935-.146h1.935l.442.926.442.926h-1.974c-1.917 0-1.984-.022-2.377-.78zM18.256 77.31c0-.043.182-.43.404-.86l.404-.78h3.83c2.106 0 3.829.054 3.829.12s-.136.417-.301.78c-.3.657-.33.662-4.234.74-2.163.044-3.932.044-3.932 0zm15.878-.185c.002-.146.076-.533.164-.86.15-.557.301-.595 2.378-.595 1.937 0 2.217.058 2.214.463-.002.254-.093.602-.2.771-.249.39-4.562.599-4.556.221zm78.947.188c-1.716-.07-1.908-.136-2.183-.74-.166-.365-.302-.717-.302-.783 0-.066.83-.12 1.845-.12 1.795 0 1.857.022 2.269.818.232.45.384.837.337.86-.047.023-.932.007-1.966-.035zm-84.996-.85l.277-.793h2.252c1.944 0 2.229.057 2.09.418-.088.23-.16.588-.16.794 0 .296-.5.375-2.368.375H27.81zm12.236.376c.088-.23.16-.588.16-.794 0-.295.484-.375 2.25-.375 2.33 0 2.5.095 2.088 1.169-.13.336-.603.418-2.41.418-1.942 0-2.227-.057-2.088-.418zm6.294-.31c.083-.72.104-.728 2.267-.804l2.183-.077v1.609H46.532zm6.086 0c.083-.723.095-.727 2.354-.803l2.27-.076-.117.804-.118.803H52.617zm6.134.133c.088-.327.161-.685.163-.794.002-.109 1.016-.198 2.253-.198H63.5V77.258h-2.412c-2.372 0-2.41-.01-2.253-.595zm6.252-.198v-.794h4.498V77.258h-4.498zm6.086 0v-.794h4.498V77.258h-4.498zm6.246.375c-.412-1.074-.242-1.17 2.088-1.17 1.237 0 2.25.09 2.253.2.002.108.075.466.163.793.156.583.114.595-2.092.595-1.809 0-2.283-.082-2.412-.418zm6.19.043c0-.206-.073-.564-.161-.794-.139-.361.146-.418 2.088-.418 1.807 0 2.28.082 2.41.418.412 1.074.242 1.17-2.089 1.17-1.765 0-2.249-.081-2.249-.376zm6.078-.303c-.142-.374-.258-.736-.258-.804 0-.07 1.034-.091 2.297-.05 2.256.076 2.3.09 2.49.805l.194.727h-2.232c-2.153 0-2.242-.024-2.49-.678zm6.132-.115l-.277-.794h2.242c2.163 0 2.25.024 2.5.678.142.374.258.73.258.794 0 .064-1 .115-2.223.115h-2.223zm-75.975-2.232c0-.064.116-.42.258-.794.249-.655.335-.679 2.52-.679h2.262l-.41.794c-.404.781-.444.794-2.52.794-1.16 0-2.11-.052-2.11-.115zm6.085-.167c0-.155.123-.512.274-.794.236-.44.569-.512 2.381-.512 1.16 0 2.108.052 2.108.115 0 .064-.116.42-.258.794-.248.65-.346.679-2.382.679-1.326 0-2.123-.106-2.123-.282zm6.06-.446c.19-.71.247-.73 2.359-.804 2.257-.08 2.426.013 2.004 1.113-.129.335-.598.419-2.358.419h-2.198zm5.846.613c0-.064.117-.42.258-.794.248-.652.344-.679 2.41-.679 1.853 0 2.13.058 1.99.419-.087.23-.16.587-.16.794 0 .294-.484.375-2.249.375-1.237 0-2.249-.052-2.249-.115zm6.134-.613c.083-.72.104-.728 2.267-.804l2.183-.077v1.609H43.886zm5.98-.066l.117-.794h2.248c1.94 0 2.225.058 2.086.419-.088.23-.16.587-.16.794 0 .294-.478.375-2.204.375h-2.203zm5.976.199c.088-.328.161-.685.163-.794.002-.11.956-.199 2.12-.199h2.117v1.588h-2.28c-2.235 0-2.277-.012-2.12-.595zm5.987-.199v-.794h4.498v1.588h-4.498zm6.086 0v-.794H72.23v1.588H67.998zm5.82 0v-.794h2.09c1.66 0 2.12.086 2.248.419.412 1.074.242 1.169-2.088 1.169h-2.25zm6.03 0l-.117-.794h4.346l.117.794.116.794h-4.346zm6.038.375c-.408-1.062-.233-1.169 1.927-1.169 2.138 0 2.41.137 2.41 1.213 0 .579-4.114.538-4.337-.044zm5.918-.26c-.142-.373-.258-.73-.258-.794 0-.063 1.012-.115 2.249-.115 1.765 0 2.249.081 2.249.376 0 .206.072.563.16.793.139.36-.137.419-1.99.419-2.067 0-2.162-.027-2.41-.679zm5.994.084c-.088-.328-.161-.685-.163-.794-.002-.11 2.196-.199 4.884-.199h4.888l.41.794.411.794h-5.135c-5.102 0-5.137-.004-5.295-.595zm11.607-.199l-.41-.794h1.997c1.901 0 2.01.033 2.256.68.142.372.258.73.258.793 0 .063-.83.115-1.845.115-1.783 0-1.86-.027-2.256-.794zm-88.177-2.17c.076-.23.754-.37 2.036-.422 1.483-.06 1.898 0 1.81.265-.075.229-.754.369-2.036.421-1.483.06-1.898 0-1.81-.265zm5.4-.079c.116-.303.612-.397 2.1-.397 1.622 0 1.922.067 1.795.397-.117.303-.613.397-2.1.397-1.623 0-1.923-.066-1.796-.397zm5.387 0c0-.317.396-.397 1.984-.397 1.587 0 1.984.08 1.984.397 0 .318-.397.397-1.984.397-1.588 0-1.984-.08-1.984-.397zm5.556.012c0-.333.374-.409 2.006-.409 1.487 0 1.978.086 1.897.331-.07.213-.782.358-2.006.409-1.567.064-1.897.007-1.897-.331zm5.38-.012c0-.317.392-.397 1.94-.397s1.94.08 1.94.397-.392.397-1.94.397-1.94-.08-1.94-.397zm5.468.033c0-.299.458-.408 1.991-.475 1.659-.072 1.98-.02 1.916.31-.11.575-3.907.735-3.907.165zm5.556-.033c0-.315.382-.397 1.852-.397 1.47 0 1.852.082 1.852.397s-.382.397-1.852.397c-1.47 0-1.852-.082-1.852-.397zm5.292 0c0-.317.397-.397 1.984-.397 1.588 0 1.984.08 1.984.397 0 .318-.396.397-1.984.397-1.587 0-1.984-.08-1.984-.397zm5.46 0c-.127-.33.176-.397 1.824-.397 1.58 0 1.976.08 1.976.397 0 .315-.379.397-1.824.397-1.377 0-1.86-.097-1.976-.397zm5.388 0c0-.317.396-.397 1.984-.397 1.587 0 1.984.08 1.984.397 0 .318-.397.397-1.984.397-1.588 0-1.984-.08-1.984-.397zm5.556 0c0-.314.379-.397 1.824-.397 1.377 0 1.86.098 1.976.397.127.331-.176.397-1.824.397-1.58 0-1.976-.08-1.976-.397zm5.468.22c-.465-.464-.017-.617 1.808-.617 1.587 0 1.984.08 1.984.397 0 .314-.377.397-1.808.397-.994 0-1.887-.08-1.984-.176zm5.38-.231c0-.338.33-.395 1.897-.331 1.224.05 1.936.195 2.006.408.081.245-.41.331-1.897.331-1.632 0-2.006-.076-2.006-.408zm5.46.011c-.127-.33.176-.397 1.824-.397 1.58 0 1.976.08 1.976.397 0 .315-.379.397-1.824.397-1.377 0-1.86-.097-1.976-.397zm5.388-.011c0-.338.33-.395 1.897-.331 1.224.05 1.936.195 2.006.408.081.245-.41.331-1.897.331-1.632 0-2.006-.076-2.006-.408zm5.46.011c-.127-.33.173-.397 1.796-.397 1.487 0 1.983.094 2.1.397.127.33-.173.397-1.796.397-1.487 0-1.983-.094-2.1-.397zm5.564.22c-.48-.48-.01-.633 1.72-.562 1.224.05 1.937.195 2.007.408.08.244-.375.331-1.72.331-1.007 0-1.91-.08-2.007-.176zm-91.05-6.797l-.679-.89.07-31.28.069-31.281.742-.638.743-.639h97.025l.688.818.689.818-.07 31.177-.07 31.177-.557.747-.557.747-48.707.067-48.707.067zm95.768-33.64V5.16H20.241l-.069 25.665c-.037 14.115-.011 25.814.059 25.996.1.264 9.54.318 46.502.264l46.376-.066z" fill="#1a1a1a"/></svg>