<svg xmlns="http://www.w3.org/2000/svg" width="504" height="395.995" viewBox="0 0 133.34999 104.77357"><path d="M54.489 104.088a463.866 463.866 0 0 1-5.321-2.55 2638.808 2638.808 0 0 0-13.034-6.297c-1.145-.55-2.304-1.177-2.575-1.392-.51-.404-.63-.63-4.534-8.649a3778.63 3778.63 0 0 0-2.689-5.506c-7.006-14.314-6.659-13.514-6.397-14.76.277-1.32.853-1.939 3.48-3.74a314.33 314.33 0 0 0 3.295-2.322c1.266-.902 2.348-1.612 2.404-1.578.055.034.13-.013.165-.105.054-.142.797-.7 2.498-1.878.498-.344 8.011-5.627 11.261-7.918 1.43-1.007 2.863-1.988 3.186-2.179 1.542-.913 3.066-.986 6.466-.31 12.487 2.479 18.245 3.696 18.825 3.98 1.014.495 1.943 1.524 2.459 2.722.116.271 1.508 4.335 3.092 9.031l4.595 13.612c1.6 4.738 1.714 5.135 1.713 6.002 0 .955-.288 1.848-.773 2.395-.236.266-3.052 2.814-5.217 4.72a549.394 549.394 0 0 1-3.657 3.214c-1.089.95-2.732 2.4-3.65 3.22-.92.822-2.59 2.297-3.713 3.279-1.123.981-2.07 1.815-2.104 1.852-.11.119-2.138 1.902-3.031 2.665-.477.407-1.117.973-1.423 1.257-.972.903-1.489 1.264-2.182 1.523-1.077.403-1.772.34-3.14-.288zm-.103-2.016a.783.783 0 0 0 .226-.506c0-.298-1.494-3.838-6.804-16.118-.897-2.076-2.131-4.944-2.742-6.373-1.747-4.085-2.224-4.812-3.744-5.71-.9-.53-16.858-5.86-17.547-5.86-.341 0-.515.08-.709.326-.5.635-.613.322 2.651 7.346a6899.88 6899.88 0 0 1 6 12.931c.66 1.43 1.358 2.92 1.551 3.314.624 1.272 1.173 1.656 5.09 3.565 1.942.947 3.548 1.722 3.567 1.722.02 0 .863.397 1.875.884 8.09 3.886 9.797 4.68 10.06 4.682.165.001.402-.09.526-.203zm-17.13-9.635c-1.784-.656-3.796-2.938-3.824-4.339-.024-1.181.97-1.483 2.495-.757 2.44 1.16 4.371 4.264 3.176 5.101-.322.226-1.225.223-1.846-.005zm2.118-6.12c-1.912-.577-4.19-3.042-4.19-4.532 0-.842.317-1.088 1.301-1.009 1.01.081 1.838.529 2.98 1.608 1.307 1.237 1.984 2.651 1.651 3.454-.227.549-.9.734-1.742.48zm1.812-6.397c-2.84-.867-5.346-4.865-3.443-5.493 1.697-.56 5.361 2.54 5.361 4.536 0 .592-.168.864-.635 1.027-.48.167-.514.166-1.283-.07zm17.816 21.79c.149-.097.317-.134.373-.083.057.051.067.03.022-.048-.074-.13.28-.465 2.509-2.375.37-.318.899-.779 1.175-1.025.277-.247.953-.831 1.503-1.3a321.71 321.71 0 0 0 3.039-2.645c1.12-.987 2.394-2.1 2.829-2.475.435-.375 1.964-1.702 3.396-2.95l3.286-2.858c4.396-3.814 4.619-4.038 4.93-4.946.262-.766.162-1.402-.548-3.487a8946.454 8946.454 0 0 1-6.417-18.923c-.699-2.076-1.394-4.06-1.545-4.41-.358-.828-.843-1.285-1.453-1.367-.598-.08-.808.06-5.362 3.542a1314.57 1314.57 0 0 1-6.645 5.054c-2.34 1.78-3.267 2.482-3.935 2.984-.408.308-.854.66-.99.782-.244.22-1.572 1.236-6.018 4.603-2.704 2.049-2.906 2.226-3.212 2.821-.478.93-.34 1.632.913 4.615l2.1 5.011 2.257 5.383c.458 1.09 1.53 3.65 2.382 5.693.852 2.041 1.796 4.297 2.099 5.011.302.715.63 1.52.73 1.79.293.798.775 1.535 1.135 1.735.378.21 1.016.151 1.447-.131zm-.055-6.95c-.609-.307-1.194-1.137-1.376-1.952-.292-1.306.283-3.076 1.332-4.096 1.602-1.557 3.716-1.436 4.605.263.276.527.323.773.321 1.67-.002.915-.052 1.156-.383 1.856-.723 1.525-2.01 2.475-3.354 2.475-.434 0-.884-.085-1.145-.217zm-2.85-7.582c-.587-.103-.886-.28-1.339-.796-.416-.474-.765-1.463-.763-2.163.005-1.42.924-3.124 2.081-3.858 1.182-.75 2.429-.735 3.31.038.724.636.97 1.244.965 2.388-.005 1.253-.343 2.165-1.12 3.03-.942 1.048-2.084 1.544-3.134 1.36zm17.015-4.77c-.533-.278-.914-.663-1.217-1.23-.21-.393-.265-.71-.266-1.546-.002-.924.045-1.152.387-1.872.681-1.438 1.8-2.365 3.063-2.539 1.101-.15 2.295.634 2.686 1.765.657 1.903-.518 4.519-2.417 5.382-.622.282-1.731.302-2.236.039zm-20.975-3.162c-.17-.068-.467-.273-.66-.457-1.925-1.823-.661-5.851 2.085-6.65 2.08-.604 3.707 1.16 3.275 3.552-.38 2.107-1.985 3.701-3.71 3.684-.374-.003-.82-.062-.99-.13zm18.18-4.85c-1.133-.595-1.644-2.073-1.276-3.69.745-3.276 4.372-4.597 5.828-2.121.31.529.347.707.347 1.704 0 .993-.042 1.2-.387 1.918-.972 2.022-2.978 2.995-4.513 2.189zm-1.87-7.261c-.706-.13-1.36-.633-1.708-1.313-.259-.508-.309-.778-.307-1.658.002-.915.052-1.157.383-1.856.462-.98.866-1.472 1.61-1.964 2.324-1.54 4.766.256 4.246 3.123-.413 2.276-2.402 4.003-4.224 3.668zM43.554 70.91c.71-.211 1.974-1.074 5.516-3.767 4.2-3.194 5.853-4.448 8.822-6.696 1.565-1.186 3.799-2.88 4.964-3.767 1.165-.886 3.175-2.41 4.466-3.387 1.292-.977 2.44-1.932 2.553-2.123.424-.716.162-1.484-.615-1.809-.23-.095-2.853-.644-5.831-1.218-14.374-2.772-14.1-2.73-15.559-2.35-.401.104-.928.311-1.17.46-.242.148-2.612 1.826-5.266 3.73a2944.658 2944.658 0 0 1-11.898 8.49c-.147.101-.722.518-1.28.927-.557.408-1.107.798-1.222.866-.114.068-.541.38-.948.692-.89.686-1.231.875-1.362.757-.054-.048-.061-.024-.017.054.078.136-.242.354-.452.308-.056-.013-.067.034-.024.104.043.07-.122.244-.367.389-.531.313-.807.798-.807 1.418 0 .776.516 1.129 2.67 1.824a6415.445 6415.445 0 0 1 13.17 4.273c1.667.543 3.258.993 3.535.998.277.006.782-.072 1.122-.173zm-2.31-3.931c-.716-.361-1.06-.962-.933-1.634.11-.587 1.216-1.743 2.05-2.142 2.796-1.337 5.805-.45 5.13 1.513-.193.562-.906 1.329-1.638 1.761-1.368.809-3.534 1.045-4.61.502zm-9.258-3.317c-.774-.156-1.286-.491-1.542-1.01-.326-.664-.12-1.311.669-2.1 1.218-1.22 3.549-1.884 5.096-1.454.575.16 1.274.754 1.379 1.174.446 1.778-3.062 3.9-5.602 3.39zm11.758-3.89c-2.068-.645-1.609-2.777.851-3.956 2.72-1.303 5.584-.501 5.068 1.418-.472 1.75-3.83 3.19-5.92 2.539zm12.96-4.092c-1.488-.458-1.729-1.738-.555-2.946 1.825-1.877 5.613-2.202 6.42-.55.94 1.922-3.12 4.342-5.865 3.496zm-10.94-2.578c-.754-.238-1.031-.42-1.236-.815-.41-.794-.06-1.68 1.008-2.55.775-.631 1.774-1.028 3.013-1.198 1.14-.155 2.182.092 2.74.65.647.647.408 1.778-.556 2.639-1.227 1.096-3.6 1.704-4.968 1.274z" fill="#333945" stroke-width=".109"/><path d="M52.415 26.035l11.429 32.882 32.48-4.21z" fill="#fff" stroke-width=".265"/><path d="M64.747 60.32c-1.088-.183-2.202-1.054-2.752-2.152-.147-.292-2.542-7.365-5.325-15.718-4.244-12.744-5.07-15.32-5.128-16.015-.098-1.162.17-2.386.827-3.779.535-1.135 9.599-18.193 10.066-18.945.152-.243.309-.383.38-.339.079.048.093.026.04-.06-.116-.187.62-.927 1.31-1.32.704-.4 1.787-.73 2.69-.818.39-.039 5.817-.24 12.059-.449C85.156.517 91.881.29 93.859.22c3.837-.136 4.352-.1 5.27.365.573.29 1.32.996 1.649 1.558.234.4 2.26 4.737 4.18 8.948.316.693 1.351 2.938 2.3 4.989a417.5 417.5 0 0 1 1.811 3.947c.048.121.32.713.603 1.316.284.603.935 2.01 1.448 3.125.512 1.116 1.402 3.04 1.976 4.277 1.508 3.244 1.747 3.817 1.895 4.542.243 1.194-.099 2.378-.952 3.298l-1.071 1.151c-.366.392-1.874 2.04-3.351 3.664-4.006 4.399-7.637 8.375-8.271 9.056-.31.332-1.289 1.402-2.178 2.378-.888.977-1.76 1.878-1.936 2.004-.52.37-1.124.534-3.282.887-1.123.184-5.916.975-10.65 1.757-4.734.782-9.224 1.522-9.978 1.642-.754.121-2.086.342-2.96.492-2.35.4-4.974.82-5.041.806-.032-.008-.29-.052-.574-.1zm5.066-2.247c.271-.038 1.48-.213 2.686-.39 3.874-.57 7.38-1.08 10.472-1.524 12.506-1.794 12.42-1.78 13.21-2.243.727-.427 1.407-1.143 7.393-7.784a301.11 301.11 0 0 1 2.358-2.59c1.789-1.918 5.62-6.188 5.737-6.395.323-.567.069-1.098-.59-1.23-.182-.036-1.19.038-2.24.166-1.758.214-12.784 1.5-15.067 1.757-4.965.56-12.148 1.451-12.5 1.551-.823.232-1.907.863-2.602 1.513-.382.357-1.112 1.248-1.623 1.981-.511.734-1.793 2.56-2.848 4.06-3.167 4.5-3.32 4.718-3.984 5.689-.352.514-1.048 1.505-1.548 2.202-1.082 1.51-1.267 1.85-1.267 2.337 0 .413.31.817.689.897.711.152.647.152 1.724.002zm21.304-4.734c-.35-.068-.799-.648-.799-1.033 0-1.448 2.673-3.647 4.921-4.05.937-.167 1.49-.07 1.894.335.612.611.255 1.595-1.014 2.797-1.5 1.42-3.57 2.228-5.002 1.95zm-11.95-7.594c-.706-.43-.74-1.028-.12-2.06.67-1.113 2.612-2.42 4.194-2.823.857-.218 1.33-.206 1.885.045.794.361.787 1.208-.02 2.304-1.357 1.844-4.718 3.278-5.938 2.534zm-14.303 10.47c.33-.232 1.135-1.347 4.273-5.924.454-.664 2.254-3.275 4-5.804 1.744-2.529 3.286-4.812 3.425-5.073.371-.698.44-1.503.213-2.524-.166-.753-1.11-3.4-2.63-7.379a1893.6 1893.6 0 0 1-2.671-7.127c-7.04-18.86-6.262-16.873-6.778-17.326-.64-.563-1.411-.382-1.988.467-.174.256-.75 1.305-1.28 2.33a563.258 563.258 0 0 1-1.484 2.85c-.286.544-1.174 2.246-1.973 3.784-.8 1.538-1.663 3.19-1.918 3.673-1.661 3.137-2.811 5.478-3.017 6.14a5.893 5.893 0 0 0-.247 1.7c-.01 1.04-.007 1.055 1.4 5.1.462 1.326 1.15 3.325 1.532 4.44.38 1.116.972 2.843 1.314 3.838l1.317 3.838a20490.95 20490.95 0 0 0 3.727 10.865c.607 1.773.743 2.024 1.239 2.29.496.267 1.012.214 1.546-.158zm-1.186-7.761c-.95-.49-1.535-1.754-1.625-3.52-.123-2.384.846-4.238 2.213-4.238.835 0 1.498.64 2.005 1.936.258.66.294.91.3 2.066.006 1.133-.03 1.42-.262 2.063-.307.85-.866 1.57-1.393 1.79-.49.204-.68.19-1.238-.097zm6.522-9.07c-1.496-.987-2.032-4.143-1.053-6.2.515-1.081 1.029-1.488 1.894-1.5.743-.01 1.61.939 1.97 2.158.573 1.932.144 4.298-.963 5.319-.417.384-.54.438-1 .438-.333 0-.64-.078-.848-.216zm-12.833-8.29c-.526-.275-.814-.601-1.148-1.306-.828-1.746-.702-4.33.275-5.655.345-.468.992-.87 1.398-.871.377-.001 1.05.337 1.324.664.618.737 1.057 2.143 1.057 3.38 0 2.627-1.465 4.537-2.906 3.787zm5.867-10.474c-1.85-1.078-2.147-5.466-.486-7.175.795-.818 1.658-.772 2.453.13 1.499 1.703 1.394 5.446-.191 6.842-.404.355-.572.431-.942.43a1.958 1.958 0 0 1-.834-.227zm22.51 15.638c1.943-.21 5.185-.554 7.206-.764 9.82-1.022 17.343-1.827 18.02-1.928 1.4-.21 1.916-.688 1.8-1.672-.03-.255-.412-1.253-.849-2.218l-1.59-3.51c-.439-.964-2.091-4.615-3.673-8.113a4480.834 4480.834 0 0 0-3.725-8.224 1806.11 1806.11 0 0 1-1.976-4.355c-1.41-3.117-1.814-3.632-3.115-3.971-.556-.145-1.632-.124-10.951.212l-12.253.44c-5.305.187-6.02.242-6.556.512-.278.14-.607.393-.73.563-.44.606-.35.94 1.857 6.763 2.368 6.251 4.64 12.27 7.363 19.504 2.043 5.43 2.255 5.927 2.742 6.418.841.85 1.434.882 6.43.343zm-1.515-4.102c-1.879-.677-3.236-2.49-3.23-4.314.005-1.108.49-1.903 1.477-2.421.628-.33 1.965-.318 2.798.023 2.301.942 3.675 3.602 2.81 5.438-.309.653-.612.951-1.275 1.252-.638.289-1.81.299-2.58.022zm18.306-2.193c-.67-.173-1.937-.947-2.413-1.475-1.407-1.558-1.645-3.715-.534-4.826.617-.616 1.076-.785 2.14-.785.864 0 1.004.033 1.776.415 1.997.987 3.119 3.165 2.597 5.044-.146.528-.669 1.124-1.244 1.418-.489.251-1.727.362-2.322.209zM90 21.778c-1.87-.524-3.372-2.268-3.492-4.054-.066-.972.088-1.54.569-2.101.854-.998 2.446-1.206 3.919-.511 3.015 1.421 3.823 5.259 1.373 6.519-.562.29-1.626.356-2.369.147zm-12.292-8.174c-2.574-.519-4.508-3.493-3.618-5.562.455-1.057 1.321-1.59 2.576-1.587 2.379.006 4.55 2.177 4.55 4.548 0 .762-.17 1.214-.67 1.785-.623.709-1.756 1.034-2.838.816zm16.832-.688c-2.59-.859-4.158-3.661-3.166-5.653 1.129-2.263 4.88-1.696 6.446.975 1.004 1.713.739 3.584-.628 4.43-.438.27-.66.328-1.368.358-.506.021-1.022-.023-1.284-.11z" fill="#333945" stroke-width=".103"/></svg>