<?xml version="1.0" encoding="UTF-8" standalone="no"?>
<!-- Created with Inkscape (http://www.inkscape.org/) -->

<svg
   xmlns:dc="http://purl.org/dc/elements/1.1/"
   xmlns:cc="http://creativecommons.org/ns#"
   xmlns:rdf="http://www.w3.org/1999/02/22-rdf-syntax-ns#"
   xmlns:svg="http://www.w3.org/2000/svg"
   xmlns="http://www.w3.org/2000/svg"
   xmlns:xlink="http://www.w3.org/1999/xlink"
   xmlns:sodipodi="http://sodipodi.sourceforge.net/DTD/sodipodi-0.dtd"
   xmlns:inkscape="http://www.inkscape.org/namespaces/inkscape"
   width="183.30925mm"
   height="70.01915mm"
   viewBox="0 0 183.30925 70.01915"
   version="1.1"
   id="svg8"
   inkscape:version="0.92.1 r15371"
   sodipodi:docname="Название — копия (2).svg">
  <defs
     id="defs2">
    <inkscape:path-effect
       effect="spiro"
       id="path-effect47"
       is_visible="true" />
    <inkscape:path-effect
       effect="spiro"
       id="path-effect35"
       is_visible="true" />
    <clipPath
       clipPathUnits="userSpaceOnUse"
       id="clipPath35">
      <use
         x="0"
         y="0"
         xlink:href="#g31"
         id="use37"
         width="100%"
         height="100%" />
    </clipPath>
  </defs>
  <sodipodi:namedview
     id="base"
     pagecolor="#ffffff"
     bordercolor="#666666"
     borderopacity="1.0"
     inkscape:pageopacity="0.0"
     inkscape:pageshadow="2"
     inkscape:zoom="0.7"
     inkscape:cx="514.53809"
     inkscape:cy="221.24258"
     inkscape:document-units="mm"
     inkscape:current-layer="layer1"
     showgrid="false"
     inkscape:snap-global="false"
     inkscape:window-width="1366"
     inkscape:window-height="705"
     inkscape:window-x="-8"
     inkscape:window-y="-8"
     inkscape:window-maximized="1"
     inkscape:pagecheckerboard="false"
     fit-margin-top="0"
     fit-margin-left="0"
     fit-margin-right="0"
     fit-margin-bottom="0" />
  <metadata
     id="metadata5">
    <rdf:RDF>
      <cc:Work
         rdf:about="">
        <dc:format>image/svg+xml</dc:format>
        <dc:type
           rdf:resource="http://purl.org/dc/dcmitype/StillImage" />
        <dc:title />
      </cc:Work>
    </rdf:RDF>
  </metadata>
  <g
     inkscape:label="Layer 1"
     inkscape:groupmode="layer"
     id="layer1"
     transform="translate(-16.161806,-185.04535)">
    <flowRoot
       xml:space="preserve"
       id="flowRoot10"
       style="font-style:normal;font-weight:normal;font-size:192px;line-height:1.25;font-family:sans-serif;letter-spacing:0px;word-spacing:0px;fill:#000000;fill-opacity:1;stroke:none"><flowRegion
         id="flowRegion12"
         style="font-size:192px"><rect
           id="rect14"
           width="1002.8571"
           height="384.28571"
           x="48.57143"
           y="157.98653"
           style="font-size:192px" /></flowRegion><flowPara
         id="flowPara16" /></flowRoot>    <path
       inkscape:connector-curvature="0"
       style="font-style:normal;font-variant:normal;font-weight:bold;font-stretch:normal;font-size:47.87103653px;line-height:1.25;font-family:Garamond;-inkscape-font-specification:'Garamond Bold';letter-spacing:0px;word-spacing:0px;opacity:1;fill:#8fb82b;fill-opacity:1;stroke:none;stroke-width:0.2493283;stroke-opacity:1"
       d="m 198.78476,185.04535 c -0.18654,0.73932 -0.26576,1.49992 -0.62011,2.20606 -0.36042,0.63863 -0.81927,1.2139 -1.41336,1.70326 -0.65733,0.54123 -1.07122,1.05373 -2.28151,1.47174 -1.27932,0.4116 -2.27514,0.95918 -3.96772,1.17254 -1.83914,0.24773 -3.41509,0.4827 -5.96346,0.52038 -1.50868,0.0492 -3.46882,-0.10835 -5.32008,-0.2682 -1.36843,-0.22297 -2.91568,-0.39704 -4.58784,-0.5364 -0.98789,-0.0515 -1.99592,-0.0971 -3.09955,-0.11524 -1.11594,-0.0374 -2.23218,0.0481 -3.34812,0.25632 -1.03087,0.13691 -2.08538,0.51565 -3.14916,0.98598 -0.8705,0.45628 -1.55024,0.95051 -2.15749,1.45883 -0.9814,0.75265 -1.58472,1.81183 -2.10788,2.93625 -0.41158,1.08258 -0.75752,2.29269 -0.74414,4.19923 0.055,1.10981 0.0471,2.2146 0.32246,3.34243 0.38208,1.9812 0.56315,1.95303 0.81856,2.66909 -1.38094,1.17126 -2.42246,2.95268 -3.33934,4.4204 l 0.0548,0.0362 c -0.13004,0.26341 -0.25819,0.53238 -0.38034,0.81804 -1.00556,2.39071 -1.50792,5.41174 -1.50792,9.06301 0,3.3615 0.44397,5.95529 1.33222,7.78092 0.88825,1.81116 2.27906,3.1583 4.17288,4.04214 1.89381,0.88384 3.97223,1.32601 6.23476,1.32601 3.43568,0 6.19264,-0.89826 8.27081,-2.69492 2.07816,-1.79666 3.11712,-4.04258 3.11712,-6.73758 0,-2.78192 -1.04752,-5.07113 -3.14244,-6.86779 -2.09493,-1.81115 -4.8519,-2.71663 -8.27081,-2.71663 -1.79327,0 -3.44381,0.34012 -4.95216,1.02112 -1.49159,0.6665 -2.99164,2.18784 -4.49998,4.56406 -0.0556,-6.66339 3.10006,-13.40682 9.84281,-14.41875 2.16854,1.26111 3.6955,1.71188 5.96294,2.24637 -1.54146,-1.06071 -3.25283,-1.96581 -4.36459,-3.41891 l 6.29884,-2.2257 c 1.57844,1.23868 3.52298,1.63808 5.38107,2.23603 -1.19038,-0.95253 -2.56173,-1.65542 -3.54604,-2.89181 l 4.11655,-1.39061 c 1.26495,0.44427 2.50161,0.46797 3.74447,0.58239 -0.79649,-0.37292 -1.62565,-0.60019 -2.38073,-1.1622 2.20107,-0.90555 4.16636,-2.03112 5.57692,-3.6742 -2.95761,1.2968 -5.91524,2.62286 -8.87285,3.4432 0.0767,-0.97071 0.32695,-1.92697 0.52607,-2.88767 -0.72918,1.13856 -1.44086,2.26215 -2.10426,3.34501 -2.02062,0.59886 -4.02679,1.23208 -6.1371,1.61541 0.52428,-1.8176 1.50963,-3.64058 2.48977,-5.46324 -1.88372,1.88685 -3.33781,3.80888 -4.66431,5.74126 -2.24008,0.70002 -4.22529,1.51541 -6.1371,2.36419 -0.67928,-1.57761 -0.43786,-3.07992 -0.14417,-4.57801 0.34566,-0.89336 0.61953,-1.45837 0.85938,-1.86914 0.35832,-0.61365 0.64146,-0.88318 0.97616,-1.38906 0.82849,-0.96283 1.78453,-1.63012 2.77709,-2.21382 1.273,-0.63201 2.5459,-0.96399 3.81889,-1.29966 1.29345,-0.26118 2.57257,-0.41408 3.81941,-0.3328 l 7.14168,0.53795 c 3.24875,0.12386 6.33625,-0.25036 9.07645,-1.28467 3.1715,-1.14186 5.39697,-2.88843 6.46472,-5.37435 -0.43764,2.15701 -0.80085,4.32041 -1.82366,6.42958 -0.70077,1.50964 -1.43246,2.9024 -2.19935,4.16099 -0.59511,0.87762 -1.14928,1.7542 -2.51612,2.65306 -0.58579,0.35087 -1.12541,0.73224 -1.83503,1.00149 -1.11895,0.31465 -2.31197,0.41628 -3.64526,0.11628 1.00162,0.34643 2.00093,0.70982 3.02514,0.86919 1.14104,0.11896 2.01002,-0.0954 2.85202,-0.34261 -0.67663,1.17522 -1.77445,2.21177 -2.94091,3.22564 -1.22174,0.95157 -2.49249,1.90862 -3.97546,2.41432 -1.12688,0.57892 -2.34151,0.80242 -3.59978,1.00459 -1.11417,0.20459 -2.17819,0.22625 -3.22668,0.19224 -1.26811,-0.024 -2.49508,-0.30947 -3.71709,-0.62942 0.33125,0.52065 0.62583,1.03531 1.34049,1.61696 0.6861,0.59963 1.37217,1.07298 2.05827,1.36581 0.66957,0.32127 1.33961,0.48774 2.00918,0.53278 -0.78472,0.52167 -1.79466,0.87147 -3.07526,1.01493 -1.31378,0.22885 -2.52712,0.18639 -3.74447,0.15451 -1.16572,-0.0536 -2.30211,-0.22398 -3.39773,-0.55397 -2.2192,-0.57969 -4.26237,-1.6025 -6.24923,-2.76728 1.27886,1.2852 2.68904,2.37807 4.26537,3.22719 1.11268,0.58069 2.29638,1.13064 3.7114,1.58027 1.12484,0.41344 2.24594,0.59928 3.23236,0.7829 1.42091,0.11545 2.46131,0.12639 3.3228,0.0879 1.87607,-0.0699 3.06209,-0.33373 4.01784,-0.66198 1.70727,-0.6447 3.40885,-1.33492 5.08341,-2.25567 1.20996,-0.63954 2.26298,-1.4378 3.24218,-2.31046 1.14231,-0.97774 2.19514,-2.06981 3.10627,-3.34243 0.84542,-1.03517 1.55176,-2.1458 2.13269,-3.32537 0.77677,-1.84014 1.58456,-3.67825 2.18229,-5.533 0.51775,-1.36682 0.71107,-2.96103 0.94258,-4.52841 0.16919,-1.44459 0.10488,-2.90826 0.0987,-4.36717 -0.0141,-1.43534 -0.33433,-2.77337 -0.66921,-4.10724 z m -31.30403,31.94946 c 1.87705,0 3.26838,0.62307 4.17339,1.86914 0.90501,1.24607 1.35754,3.33996 1.35754,6.28127 0,5.25957 -1.78496,7.88944 -5.35471,7.88944 -1.6927,0 -3.03369,-0.52153 -4.0225,-1.56476 -0.97203,-1.04322 -1.45779,-3.29636 -1.45779,-6.75928 0,-2.72397 0.41076,-4.68748 1.23197,-5.89008 0.83797,-1.2171 2.19504,-1.82573 4.0721,-1.82573 z"
       id="path863" />
    <path
       style="font-style:normal;font-variant:normal;font-weight:bold;font-stretch:normal;font-size:47.87103653px;line-height:1.25;font-family:Garamond;-inkscape-font-specification:'Garamond Bold';letter-spacing:0px;word-spacing:0px;opacity:1;fill:#8fb82b;fill-opacity:1;stroke:none;stroke-width:0.2493283;stroke-opacity:1"
       d="m 29.888099,205.25848 c -4.35745,0 -8.153369,0.44939 -11.387937,1.34772 -1.173159,2.56458 -1.776706,4.70177 -1.810225,6.41149 h 2.287716 c 1.793259,-2.20236 3.502705,-3.67318 5.128368,-4.41213 1.642423,-0.75344 3.418817,-1.13017 5.329391,-1.13017 3.167531,0 5.547471,0.91322 7.139615,2.73885 1.592146,1.81115 2.480601,4.63634 2.664955,8.47597 l -1.835547,0.0651 c -5.245698,0 -8.161724,-0.21026 -8.748303,-0.63045 -0.569822,-0.42018 -1.080735,-1.78175 -1.533241,-4.08553 -0.184354,-0.0145 -0.310201,-0.0217 -0.377238,-0.0217 l -1.407665,0.0217 c -0.06704,1.18811 -0.10077,2.22397 -0.10077,3.10782 l 0.05013,3.08611 0.02532,0.76068 -0.125574,2.60811 -0.02532,1.60817 h 1.784903 l 0.377238,-1.43454 c 0.402225,-1.62279 0.795856,-2.57156 1.181322,-2.84685 0.402228,-0.2753 1.877105,-0.4129 4.424537,-0.4129 l 3.921726,0.0651 c 0.586578,0.029 0.997334,0.0434 1.231966,0.0434 l 1.256771,-0.0217 c 0,4.02799 -1.00574,6.99851 -3.016872,8.91108 -1.994371,1.89809 -4.533373,2.84686 -7.617105,2.84686 -4.307171,0 -7.675727,-1.97794 -10.105843,-5.93349 -0.620098,-0.11591 -1.433046,-0.17363 -2.438611,-0.17363 0.251391,1.76768 0.746216,3.81776 1.48363,6.15052 2.614469,1.36199 6.326317,2.04329 11.136272,2.04329 5.530607,0 9.955242,-1.26056 13.273606,-3.78168 3.335126,-2.52112 5.002797,-6.13634 5.002797,-10.84533 0,-4.21636 -1.474877,-7.69398 -4.424537,-10.43244 -2.949657,-2.75295 -7.198106,-4.12946 -12.745473,-4.12946 z"
       id="path865"
       inkscape:connector-curvature="0" />
    <path
       style="font-style:normal;font-variant:normal;font-weight:bold;font-stretch:normal;font-size:47.87103653px;line-height:1.25;font-family:Garamond;-inkscape-font-specification:'Garamond Bold';letter-spacing:0px;word-spacing:0px;opacity:1;fill:#8fb82b;fill-opacity:1;stroke:none;stroke-width:0.2493283;stroke-opacity:1"
       d="m 113.81528,205.34578 -2.96675,6.84609 -3.34346,7.43262 c -2.29604,5.41896 -3.71202,8.70075 -4.24832,9.8454 -0.5363,1.13015 -0.98883,1.81867 -1.35754,2.06499 -0.35194,0.23182 -1.1815,0.45652 -2.488733,0.67386 -0.95529,0.15938 -1.51706,0.26812 -1.68466,0.32608 l -0.0501,1.47743 c 1.45808,0 2.790503,-0.0866 3.997183,-0.26045 l 1.03094,-0.15245 2.89078,0.17415 c 1.99437,0.1304 3.51103,0.19534 4.55011,0.19534 0.0335,-0.15938 0.0501,-0.32584 0.0501,-0.49971 l -0.0248,-1.08676 c -1.05584,-0.1304 -1.65082,-0.20977 -1.7849,-0.23874 -0.90501,-0.10143 -1.5589,-0.25397 -1.96112,-0.45683 -0.40223,-0.20284 -0.60307,-0.52133 -0.60307,-0.95601 0,-0.28978 0.67854,-2.01416 2.03606,-5.17281 l 5.27926,-12.14913 c 0.77093,1.31852 2.46377,4.97704 5.07824,10.97556 l 1.1312,2.45618 c 1.2402,2.56459 1.86035,3.97718 1.86035,4.23799 0,0.27529 -0.10067,0.45618 -0.30179,0.54311 -0.20111,0.0869 -0.98889,0.28999 -2.36316,0.60875 -1.13964,0.17387 -1.75123,0.2754 -1.83503,0.30438 -0.0503,0.44916 -0.0754,0.93411 -0.0754,1.45572 l 2.86598,-0.0868 c 1.99437,-0.1304 4.03906,-0.19533 6.13399,-0.19533 0.77093,0 1.86022,0.0505 3.26802,0.15193 1.57538,0.10142 2.98331,0.15193 4.22351,0.15193 l 0.0248,-0.45631 c 0,-0.24631 -0.0418,-0.60861 -0.12558,-1.08675 -0.75417,-0.26081 -1.58373,-0.4417 -2.48873,-0.54312 -0.73742,-0.0724 -1.3158,-0.42031 -1.73478,-1.04335 -0.41899,-0.63752 -0.94651,-1.70225 -1.58337,-3.19464 -0.60334,-1.39096 -1.19028,-2.66595 -1.7601,-3.82509 l -0.80408,-1.6738 c -1.35752,-3.08619 -2.4136,-5.35376 -3.16777,-6.80268 l -0.67851,-1.28209 c -2.32956,-4.94082 -3.7541,-7.8531 -4.27364,-8.73694 z"
       id="path867"
       inkscape:connector-curvature="0" />
    <path
       style="font-style:normal;font-variant:normal;font-weight:bold;font-stretch:normal;font-size:47.87103653px;line-height:1.25;font-family:Garamond;-inkscape-font-specification:'Garamond Bold';letter-spacing:0px;word-spacing:0px;opacity:1;fill:#8fb82b;fill-opacity:1;stroke:none;stroke-width:0.2493283;stroke-opacity:1"
       d="m 70.457737,215.51725 c -2.46364,0 -4.99459,1.55019 -7.5923,4.65088 -1.2402,1.4779 -2.19508,2.45604 -2.86547,2.93419 -0.67038,0.47814 -1.63434,0.8693 -2.89131,1.17357 v -2.04329 c 0,-0.28978 0.0589,-1.03602 0.17622,-2.23862 0.0335,-0.31876 0.0501,-0.5651 0.0501,-0.73897 0.0503,-0.62304 0.15096,-0.99976 0.30179,-1.13017 0.15084,-0.1304 0.55303,-0.19533 1.20665,-0.19533 l 1.83505,-0.17364 0.30179,-1.49965 c -0.90502,0.13041 -2.48914,0.19534 -4.751676,0.19534 l -2.01073,-0.0217 -1.307412,0.0217 c -0.988806,0 -2.597576,-0.0649 -4.82658,-0.19534 l 0.326597,1.49965 c 0.80445,0.0869 1.399437,0.13023 1.784903,0.13023 0.787693,0.0145 1.240223,0.14487 1.35754,0.39119 0.117316,0.23183 0.176215,0.86932 0.176215,1.91254 l -0.02532,2.58641 -0.02532,2.28203 -0.02481,0.71727 c -0.01676,4.1584 -0.117438,6.3028 -0.301792,6.4332 -0.150833,0.0724 -0.393964,0.12295 -0.729154,0.15193 l -0.954979,0.0651 c -0.100558,0.029 -0.310473,0.0656 -0.628902,0.10904 -0.33519,0.0435 -0.645266,0.13004 -0.930177,0.26045 -0.01676,0.24631 -0.02481,0.44215 -0.02481,0.58704 0,0.23183 0.03322,0.46374 0.100254,0.69556 0.318428,0 0.662236,-0.007 1.030943,-0.0217 0.26815,-0.0145 0.636612,-0.0217 1.105877,-0.0217 1.726221,-0.13041 2.89102,-0.19586 3.49436,-0.19586 1.055843,0 2.187429,0.0361 3.394113,0.10852 l 2.63964,0.0873 0.1757,-0.0656 c 0.0335,-0.15938 0.0501,-0.27534 0.0501,-0.34779 l -0.0248,-0.39118 v -0.54313 c -0.16759,-0.029 -0.36895,-0.0578 -0.60358,-0.0868 -1.17317,-0.11591 -1.96899,-0.32618 -2.38798,-0.63045 l -0.0253,-0.80409 -0.0253,-0.71727 v -4.97695 c 1.27372,0 2.22913,0.20304 2.86599,0.60874 0.65361,0.39121 1.7263,1.46315 3.21789,3.21634 l 2.43861,2.80345 c 0.88825,0.98527 1.45806,1.64492 1.70946,1.97817 1.5251,-0.10142 2.8238,-0.15244 3.8964,-0.15244 0.95529,0 1.85179,0.0366 2.68976,0.10904 0.6201,0.058 1.03085,0.0868 1.23197,0.0868 0.0168,-0.23182 0.0253,-0.40602 0.0253,-0.52193 l -0.0253,-0.71727 c -1.35752,-0.33325 -2.29579,-0.64452 -2.81534,-0.93431 -0.50278,-0.30427 -1.31572,-1.10823 -2.43861,-2.41225 -2.17872,-2.52112 -3.74572,-4.12955 -4.701,-4.82503 -0.95529,-0.69548 -1.87696,-1.15931 -2.76521,-1.39113 0.41898,-0.33325 1.05575,-0.97075 1.91048,-1.91255 1.02232,-1.13015 1.81814,-1.89082 2.38796,-2.28203 0.56982,-0.39121 1.1316,-0.58653 1.68466,-0.58653 0.3687,0 0.7709,0.22418 1.20665,0.67335 0.67037,0.69548 1.41586,1.04334 2.23707,1.04334 0.75417,0 1.34111,-0.21026 1.7601,-0.63045 0.43574,-0.42018 0.6537,-0.89792 0.6537,-1.43402 0,-0.73895 -0.31864,-1.36923 -0.95549,-1.89084 -0.63686,-0.52161 -1.55853,-0.78238 -2.76521,-0.78238 z"
       id="path869"
       inkscape:connector-curvature="0" />
    <path
       inkscape:connector-curvature="0"
       style="font-style:normal;font-variant:normal;font-weight:bold;font-stretch:normal;font-size:47.87103653px;line-height:1.25;font-family:Garamond;-inkscape-font-specification:'Garamond Bold';letter-spacing:0px;word-spacing:0px;opacity:1;fill:#8fb82b;fill-opacity:1;stroke:none;stroke-width:0.2493283;stroke-opacity:1"
       d="m 86.643288,215.51739 c -1.608899,0 -2.983105,0.15203 -4.122745,0.4563 -1.122879,0.28979 -2.245905,0.78247 -3.368786,1.47794 -0.77094,0.49263 -1.483209,1.10127 -2.13682,1.82573 -0.63686,0.72446 -1.139219,1.57893 -1.507919,2.56419 -0.36871,0.97078 -0.553455,1.9417 -0.553455,2.91248 0,1.91257 0.38559,3.51379 1.15652,4.80333 0.787699,1.28954 2.086393,2.44136 3.896402,3.4556 1.826779,1.01425 4.047654,1.52135 6.662127,1.52135 2.329558,0 4.37425,-0.42775 6.133991,-1.28261 1.759741,-0.85486 3.159114,-2.18035 4.198194,-3.97701 0.687139,-1.18811 1.030428,-2.75273 1.030428,-4.69429 0,-1.02873 -0.267777,-2.12283 -0.804085,-3.28197 -0.519541,-1.17362 -1.315887,-2.20949 -2.388486,-3.10782 -1.960848,-1.78217 -4.692645,-2.67322 -8.195366,-2.67322 z m -0.20102,1.47742 c 1.642431,0 2.966289,0.55092 3.971851,1.6521 1.00557,1.08668 1.508435,2.94868 1.508435,5.58571 0,2.1444 -0.117287,3.68737 -0.351917,4.62917 -0.3687,1.43443 -0.97173,2.49194 -1.809708,3.17293 -0.83797,0.6665 -1.868889,0.99994 -3.092317,0.99994 -1.022332,0 -1.902214,-0.17367 -2.639635,-0.52141 -0.737409,-0.34774 -1.265451,-0.74663 -1.58388,-1.1958 -0.469262,-0.69547 -0.812559,-1.5283 -1.03043,-2.49907 -0.067,-0.2753 -0.176282,-1.31116 -0.32711,-3.10782 0.0335,-2.56459 0.159366,-4.23846 0.377238,-5.02088 0.33519,-1.21709 0.921612,-2.13701 1.759582,-2.76004 0.854728,-0.62304 1.927421,-0.93483 3.217891,-0.93483 z"
       id="path871" />
    <path
       inkscape:connector-curvature="0"
       style="font-style:normal;font-variant:normal;font-weight:bold;font-stretch:normal;font-size:47.87103653px;line-height:1.25;font-family:Garamond;-inkscape-font-specification:'Garamond Bold';letter-spacing:0px;word-spacing:0px;opacity:1;fill:#8fb82b;fill-opacity:1;stroke:none;stroke-width:0.2493283;stroke-opacity:1"
       d="m 145.58853,215.69102 c -2.07817,0 -3.83796,0.20305 -5.27927,0.60875 -1.05584,0.31877 -2.19547,0.87638 -3.41891,1.67328 -1.20668,0.78242 -2.11174,1.59411 -2.71508,2.43448 -0.40223,0.59406 -0.60306,1.30369 -0.60306,2.12958 0,0.31876 0.11728,0.56511 0.35191,0.73898 0.5363,0 1.25662,-0.18811 2.16163,-0.56483 0.23463,-0.10143 0.67911,-0.26118 1.33273,-0.47852 0.67038,-0.23182 1.13096,-0.48539 1.38235,-0.76068 0.10055,-0.10143 0.20979,-0.47094 0.32711,-1.10846 0.16759,-0.88384 0.36843,-1.48475 0.60306,-1.8035 0.31843,-0.43469 0.82986,-0.78977 1.53376,-1.06506 0.70389,-0.2753 1.47455,-0.41289 2.31252,-0.41289 0.83797,0 1.42439,0.21697 1.75958,0.65164 0.55306,0.70997 0.82993,2.0432 0.82993,3.99924 0,0.56508 -0.0252,1.12269 -0.0754,1.67328 l -6.25957,2.17351 c -1.08936,0.4057 -1.72611,0.65203 -1.91048,0.73897 -1.20666,0.57956 -2.08657,1.11554 -2.63963,1.60817 -0.5363,0.47814 -0.93045,0.96362 -1.18184,1.45625 -0.23463,0.49263 -0.35191,0.9781 -0.35191,1.45624 0,1.02873 0.41075,1.86207 1.23196,2.49959 0.82121,0.62303 2.1033,0.93431 3.84628,0.93431 1.89381,0 3.49402,-0.2752 4.80126,-0.82579 1.30723,-0.56508 2.32153,-1.39841 3.04219,-2.49959 0.58658,1.18812 1.2319,2.02145 1.9358,2.49959 0.72065,0.46366 1.57538,0.69556 2.56418,0.69556 0.97204,0 1.78448,-0.23913 2.4381,-0.71727 0.65361,-0.49264 1.18165,-1.38368 1.58388,-2.67322 l -0.0253,-0.10852 c -0.0335,-0.1449 -0.12564,-0.26806 -0.27647,-0.36948 l -0.57826,-0.32608 -0.45217,0.15192 -0.75448,1.02165 c -0.13407,0.0869 -0.29313,0.13022 -0.47748,0.13022 -0.30168,0 -0.55285,-0.10874 -0.75396,-0.32608 -0.18435,-0.23183 -0.27647,-0.65183 -0.27647,-1.26038 v -0.67386 l -0.0506,-2.62982 0.0754,-3.58583 c 0,-2.18787 -0.19279,-3.70198 -0.57826,-4.54235 -0.36871,-0.84037 -1.03868,-1.47065 -2.01073,-1.89084 -0.95529,-0.43468 -2.10348,-0.65216 -3.44423,-0.65216 z m 0.47749,9.21494 c 0.067,0.63752 0.10077,1.27502 0.10077,1.91255 0,1.72421 -0.0755,2.77503 -0.22635,3.15174 -0.15083,0.36223 -0.67031,0.85492 -1.55856,1.47795 -0.65362,0.46365 -1.44995,0.69556 -2.38848,0.69556 -0.56982,0 -1.07218,-0.20306 -1.50792,-0.60875 -0.43575,-0.4057 -0.65371,-0.92002 -0.65371,-1.54305 0,-0.69549 0.16764,-1.28247 0.50282,-1.76062 0.46927,-0.65201 1.29881,-1.29672 2.48873,-1.93425 1.20668,-0.65201 2.28741,-1.11584 3.2427,-1.39113 z"
       id="path873" />
    <g
       id="g31"
       inkscape:label="Clip">
      <g
         id="text1025"
         style="font-style:normal;font-variant:normal;font-weight:normal;font-stretch:normal;font-size:9.03349686px;line-height:1.25;font-family:'Cooper Black';-inkscape-font-specification:'Cooper Black, ';letter-spacing:0px;word-spacing:0px;fill:#1a1a1a;fill-opacity:1;stroke:none;stroke-width:0.22583741;image-rendering:auto"
         transform="scale(1.003101,0.99690859)"
         aria-label="EcoLab" />
    </g>
    <path
       id="path45"
       transform="matrix(0.26458333,0,0,0.26458333,16.161806,185.04535)"
       style="fill:#1a1a1a;stroke:none;stroke-width:0.59716536;stroke-linecap:butt;stroke-linejoin:miter;stroke-opacity:1;stroke-miterlimit:4;stroke-dasharray:none"
       d="m 356.96875,205.56055 c -0.44939,0.0132 -0.88848,0.12754 -1.32422,0.23828 -1.84985,0.46991 -3.72193,0.86987 -5.61914,1.07812 -3.02124,0.33185 -6.07191,0.23828 -9.11133,0.23828 h -20.6289 c -1.99049,-0.52097 -4.14549,-0.39301 -6.06055,0.35938 -0.75236,0.2956 -1.48633,0.69876 -2.00781,1.31641 -0.52819,0.62555 -0.807,1.45596 -0.76172,2.27343 0.037,0.66826 0.28626,1.32032 0.69336,1.85157 0.4071,0.53121 0.96852,0.94082 1.59375,1.17968 0.33568,0.12813 0.68705,0.20737 1.03125,0.31055 0.3442,0.10311 0.68796,0.23334 0.97656,0.44727 0.3841,0.28486 0.64814,0.70049 0.88281,1.11718 1.62058,2.87758 2.22407,6.22868 2.33594,9.5293 0.11199,3.30066 -0.24159,6.59633 -0.41016,9.89453 -0.27787,5.43182 -0.0616,10.94402 -1.32421,16.23438 -0.18857,0.79003 -0.42165,1.59601 -0.92383,2.23437 -0.4535,0.57645 -1.09674,0.97454 -1.76563,1.27539 -0.39539,0.17779 -0.80319,0.32653 -1.18945,0.52344 -0.38626,0.19695 -0.75517,0.4479 -1.01758,0.79297 -0.35825,0.47127 -0.49187,1.08387 -0.48242,1.67578 0.0152,0.95735 0.40374,1.92303 1.125,2.55273 0.42317,0.36957 0.947,0.61287 1.49414,0.74024 0.54714,0.12926 1.11401,0.13672 1.67578,0.13672 h 34.03516 c 2.30067,0 4.60278,0.17154 6.86328,0.59961 0.72941,0.13833 1.46654,0.29119 2.20703,0.23828 0.53696,-0.0384 1.07139,-0.18938 1.52539,-0.47852 0.66841,-0.42591 1.11665,-1.11472 1.52344,-1.79492 1.21187,-2.02639 2.22801,-4.16776 3.05078,-6.38086 0.71418,-1.92098 1.28874,-3.93542 1.24414,-5.98437 -0.0281,-1.28879 -0.32477,-2.61672 -1.12305,-3.62891 -0.6681,-0.84714 -1.69165,-1.42932 -2.76953,-1.47656 -0.85081,-0.0372 -1.70762,0.26012 -2.36719,0.79882 -0.48196,0.39368 -0.85732,0.90425 -1.16796,1.44336 -0.31083,0.53915 -0.56281,1.11068 -0.83985,1.66797 -1.12777,2.26946 -2.73965,4.39294 -4.97656,5.58399 -1.36505,0.72684 -2.90274,1.07419 -4.43945,1.24804 -1.53672,0.17386 -3.08674,0.18141 -4.63086,0.26758 -0.94061,0.0525 -1.88252,0.13193 -2.82422,0.10547 -0.94167,-0.0278 -1.89017,-0.16886 -2.75391,-0.54492 -0.80315,-0.34976 -1.53079,-0.91598 -1.9668,-1.67578 -0.33195,-0.57842 -0.48438,-1.24392 -0.54296,-1.90821 -0.0582,-0.66429 -0.0271,-1.33317 -0.0195,-2 0.0219,-1.62471 -0.083,-3.24797 -0.24023,-4.86523 -0.0714,-0.72242 -0.15081,-1.45054 -0.0898,-2.17383 0.0607,-0.72329 0.27396,-1.45293 0.73242,-2.01562 0.29737,-0.36499 0.68873,-0.64703 1.11914,-0.83789 0.43045,-0.19087 0.89912,-0.29191 1.36914,-0.31836 1.2675,-0.073 2.54837,0.39646 3.50391,1.23242 0.95554,0.83596 1.58396,2.02312 1.79296,3.27539 0.0843,0.50502 0.10423,1.01959 0.19532,1.52344 0.0912,0.50381 0.26273,1.00801 0.60742,1.38672 0.23263,0.25572 0.53793,0.44357 0.86523,0.55468 0.32735,0.11263 0.67642,0.14573 1.02149,0.12305 0.68054,-0.0454 1.33489,-0.31859 1.88867,-0.7168 0.55374,-0.39821 1.01196,-0.91726 1.40234,-1.47656 1.02259,-1.46502 1.58712,-3.21237 1.84375,-4.98047 0.25663,-1.76806 0.21867,-3.56556 0.12305,-5.34961 -0.10957,-2.04196 -0.29391,-4.08188 -0.60156,-6.10351 -0.22012,-1.44605 -0.5265,-2.9374 -1.4043,-4.10742 -0.33301,-0.44387 -0.74649,-0.83316 -1.22656,-1.11133 -0.48004,-0.27829 -1.02908,-0.44436 -1.58399,-0.44531 -0.71149,-10e-4 -1.4129,0.27219 -1.96679,0.71874 -0.49455,0.39878 -0.87398,0.93113 -1.12305,1.51563 -0.41975,0.98612 -0.46574,2.08298 -0.5625,3.15039 -0.0416,0.45895 -0.0938,0.9205 -0.23437,1.35938 -0.14045,0.43891 -0.37513,0.85873 -0.72852,1.15429 -0.3301,0.2761 -0.7467,0.4299 -1.16797,0.51758 -0.42123,0.0877 -0.85157,0.11329 -1.2793,0.16016 -0.73198,0.0801 -1.46127,0.22385 -2.19726,0.20117 -0.36801,-0.0113 -0.73822,-0.0646 -1.08594,-0.18555 -0.34775,-0.12091 -0.67388,-0.31154 -0.93164,-0.57422 -0.37111,-0.37821 -0.58356,-0.8887 -0.6875,-1.4082 -0.10431,-0.5195 -0.10768,-1.05225 -0.11523,-1.58203 -0.0344,-2.51411 -0.14603,-5.0349 0.0801,-7.53906 0.0738,-0.81823 0.19501,-1.66459 0.64258,-2.35352 0.27863,-0.42894 0.67467,-0.77607 1.11914,-1.0293 0.44444,-0.25311 0.93704,-0.41376 1.43946,-0.50976 1.00486,-0.19162 2.03795,-0.12216 3.06054,-0.0957 2.98863,0.0821 6.08265,-0.16747 8.86914,0.91601 1.80601,0.70224 3.39425,1.9568 4.4961,3.55078 0.29877,0.43219 0.56142,0.88906 0.86718,1.31641 0.30569,0.42735 0.65983,0.82956 1.09961,1.11719 0.60994,0.3987 1.35804,0.55159 2.08594,0.51757 1.14977,-0.0538 2.28225,-0.58267 3.00977,-1.47461 0.45777,-0.56118 0.74927,-1.24598 0.91406,-1.95117 0.16479,-0.70522 0.20874,-1.43401 0.21094,-2.1582 0.009,-3.10968 -0.78191,-6.28967 -2.65039,-8.77539 -0.44947,-0.59792 -0.96229,-1.15633 -1.58399,-1.57227 -0.62169,-0.41605 -1.35975,-0.68283 -2.10742,-0.66015 z m 122.97266,0.6914 c -0.97782,0.004 -1.95495,0.0306 -2.92969,0.0664 -3.72268,0.13686 -7.46308,0.41729 -11.07813,1.31641 -1.15891,0.28822 -2.32884,0.65259 -3.28125,1.37304 -0.47618,0.36023 -0.89162,0.80796 -1.17773,1.33203 -0.28607,0.52407 -0.43879,1.12513 -0.39649,1.72071 0.0638,0.89457 0.5722,1.72676 1.28321,2.27343 0.97625,0.75062 2.24748,0.97257 3.37109,1.47657 0.83441,0.37425 1.61526,0.93195 2.08789,1.71484 0.38351,0.63519 0.54443,1.38433 0.58789,2.125 0.0435,0.74071 -0.0248,1.48187 -0.0664,2.22266 -0.18641,3.32111 0.15103,6.64754 0.24023,9.97265 0.0945,3.52362 -0.0906,7.05751 0.20117,10.57032 0.13353,1.60781 0.3677,3.20897 0.38282,4.82226 0.0165,1.61325 -0.19424,3.26029 -0.9043,4.70899 -0.62933,1.28394 -1.65523,2.38486 -2.92969,3.0332 -0.4611,0.23459 -0.95083,0.40837 -1.41601,0.63476 -0.46519,0.22632 -0.91381,0.51234 -1.23243,0.91993 -0.35924,0.45944 -0.52904,1.05158 -0.52148,1.63476 0.006,0.55907 0.1679,1.11523 0.45703,1.59375 0.28917,0.47853 0.70334,0.87852 1.1875,1.15821 0.57619,0.33275 1.2392,0.49352 1.90039,0.56835 0.66115,0.0748 1.3268,0.0703 1.99219,0.0703 h 28.05469 l 8.91015,1.07812 c 0.75421,-0.0175 1.50178,-0.25747 2.12696,-0.67969 0.88543,-0.59792 1.48909,-1.52039 2.04687,-2.43164 1.97473,-3.22616 3.7236,-6.78791 3.69336,-10.57031 -0.0146,-1.72089 -0.42035,-3.46791 -1.36523,-4.90625 -0.38291,-0.58284 -0.85783,-1.11618 -1.45118,-1.48242 -0.59334,-0.36654 -1.3136,-0.55485 -2,-0.43164 -0.64078,0.11505 -1.21305,0.49171 -1.6582,0.9668 -0.44515,0.47504 -0.77636,1.0451 -1.07226,1.625 -0.55246,1.08234 -1.00152,2.21491 -1.55469,3.29687 -0.55314,1.08197 -1.22143,2.12649 -2.13672,2.92578 -0.9634,0.84132 -2.16736,1.37783 -3.41211,1.67188 -1.24479,0.29556 -2.53389,0.35628 -3.8125,0.32226 -1.02958,-0.0262 -2.0674,-0.11359 -3.04883,-0.42578 -0.98147,-0.31223 -1.90968,-0.86481 -2.5293,-1.6875 -0.4106,-0.54516 -0.67493,-1.19224 -0.83593,-1.85547 -0.16101,-0.66323 -0.22355,-1.34533 -0.25,-2.02734 -0.0519,-1.36403 0.002,-2.73069 0.002,-4.0957 v -18.30664 c -0.81785,-2.30673 -0.67084,-4.94011 0.40039,-7.14063 0.44508,-0.91431 1.06513,-1.77598 1.92774,-2.31445 0.51837,-0.32361 1.1045,-0.51832 1.66992,-0.75 0.56541,-0.23184 1.12916,-0.51338 1.54101,-0.96485 0.47705,-0.52286 0.7081,-1.2459 0.68164,-1.95312 -0.0225,-0.58983 -0.21698,-1.16871 -0.52539,-1.67188 -0.30856,-0.5032 -0.72969,-0.93322 -1.20508,-1.2832 -0.95074,-0.69982 -2.09927,-1.07345 -3.24609,-1.35352 -2.84264,-0.69437 -5.77554,-0.87606 -8.70898,-0.86328 z m 97.89843,0.34375 c -0.69573,-0.0418 -1.40772,0.0324 -2.08789,0.1836 -1.36036,0.30232 -2.6384,0.88412 -3.94336,1.37304 -2.53969,0.9515 -5.19409,1.5588 -7.78711,2.35352 -1.32763,0.4069 -2.66477,0.87559 -3.76953,1.7168 -0.55237,0.42058 -1.04114,0.93367 -1.39453,1.53125 -0.35331,0.59758 -0.56666,1.2823 -0.57422,1.97656 -0.007,0.79657 0.27228,1.59903 0.80274,2.19336 0.37553,0.42074 0.86106,0.72774 1.36328,0.98437 0.50226,0.25656 1.0263,0.46978 1.52539,0.73242 0.73005,0.38416 1.42597,0.90287 1.80664,1.63477 0.40188,0.76966 0.41705,1.67587 0.39063,2.54297 -0.0272,0.86714 -0.0703,1.73401 -0.0703,2.60156 v 11.00977 c 0,4.04402 0.0355,8.09326 -0.27929,12.125 -0.16944,2.16865 -0.44941,4.34124 -1.08399,6.42187 -0.11905,0.38997 -0.25219,0.79278 -0.20117,1.19727 0.0336,0.26657 0.14733,0.52039 0.3125,0.73242 0.16528,0.21199 0.38059,0.3824 0.61719,0.50977 0.47308,0.25474 1.02144,0.33461 1.55859,0.35351 0.8324,0.0277 1.67687,-0.089 2.44922,-0.40039 0.40804,-0.1646 0.79302,-0.38246 1.20117,-0.54687 0.40815,-0.16441 0.85178,-0.27482 1.28711,-0.21094 0.34057,0.0499 0.65562,0.20403 0.96289,0.35937 2.42328,1.22627 4.73884,2.69969 7.30469,3.58985 2.41304,0.83731 4.99143,1.13519 7.54492,1.07812 5.2636,-0.11784 10.54184,-1.78439 14.68945,-5.02734 5.57515,-4.35916 8.79856,-11.47039 8.70899,-18.54688 -0.0309,-2.44452 -0.4351,-4.89548 -1.31641,-7.17578 -0.88135,-2.28034 -2.24923,-4.38759 -4.0625,-6.02734 -2.6942,-2.43636 -6.29015,-3.75182 -9.91211,-4.02735 -1.91558,-0.1457 -3.87135,-0.0114 -5.69531,0.5918 -1.82396,0.60318 -3.51345,1.695 -4.66016,3.23633 -0.20477,0.27522 -0.3947,0.5672 -0.65625,0.78906 -0.13069,0.11112 -0.27888,0.20339 -0.4414,0.25781 -0.16271,0.0567 -0.34117,0.0713 -0.50781,0.0312 -0.0847,-0.02 -0.16648,-0.0559 -0.23829,-0.10546 -0.0718,-0.0495 -0.13238,-0.11305 -0.17773,-0.1875 -0.0453,-0.0745 -0.0747,-0.15835 -0.0898,-0.24415 -0.0139,-0.0862 -0.0135,-0.17441 -0.0137,-0.26171 -5.3e-4,-0.2925 -5.3e-4,-0.58442 0,-0.87696 0.009,-5.18906 0.18284,-10.37861 0.52149,-15.55664 h -0.002 c -0.36072,-1.02232 -1.12415,-1.8961 -2.0879,-2.39258 -0.6194,-0.31918 -1.29841,-0.47772 -1.99414,-0.51953 z m -140.92382,15.19727 c -6.48983,-0.12571 -13.12098,1.95348 -17.93946,6.30273 -4.31429,3.89416 -7.0259,9.58478 -7.06445,15.39649 -0.034,5.10792 2.03541,10.24577 5.7793,13.7207 4.1156,3.81997 9.91803,5.42956 15.5332,5.42578 6.24495,-0.006 12.54719,-1.92849 17.45898,-5.78515 2.26806,-1.78084 4.23342,-3.96593 5.64844,-6.47852 1.41506,-2.51263 2.26948,-5.35545 2.33789,-8.23828 0.0786,-3.30924 -0.87873,-6.60167 -2.48828,-9.49414 -1.55652,-2.79715 -3.7336,-5.2589 -6.38086,-7.0586 -3.75401,-2.55212 -8.34623,-3.70295 -12.88476,-3.79101 z m 99.5332,0 c -5.26965,4e-5 -10.57011,1.26242 -15.17188,3.83008 -1.57704,0.87995 -3.08269,1.94105 -4.21289,3.34961 -0.87639,1.09224 -1.52161,2.42968 -1.52539,3.83007 -0.003,1.12305 0.42981,2.25785 1.24414,3.03125 0.84582,0.80334 2.04454,1.17137 3.21094,1.15625 1.56076,-0.0207 3.06328,-0.68403 4.30274,-1.63281 1.23946,-0.94877 2.24179,-2.1709 3.1621,-3.43164 0.69396,-0.95066 1.3687,-1.95106 2.32813,-2.63281 0.63163,-0.44886 1.39173,-0.74899 2.16601,-0.71875 0.60208,0.0222 1.18935,0.24124 1.6836,0.58594 0.49425,0.34454 0.89862,0.81044 1.20703,1.32812 0.53374,0.89613 0.78284,1.93787 0.87695,2.97656 0.096,1.03869 0.0412,2.08456 0.008,3.12696 -0.0128,0.38173 -0.0238,0.7672 -0.10352,1.14062 -0.0796,0.37353 -0.2343,0.73928 -0.5,1.01367 -0.17885,0.18467 -0.40258,0.32065 -0.64258,0.41211 -0.24019,0.0915 -0.49532,0.13918 -0.75195,0.1543 -0.51303,0.0314 -1.02602,-0.0586 -1.53516,-0.12891 -2.83332,-0.39156 -5.75579,-0.20271 -8.48828,0.64258 -2.73252,0.84529 -5.26873,2.35529 -7.24414,4.42383 -1.90197,1.99166 -3.29399,4.58699 -3.37109,7.33984 -0.0485,1.73175 0.42542,3.45764 1.24414,4.98438 0.81108,1.51245 1.96484,2.84627 3.37109,3.83008 2.44335,1.70933 5.52848,2.29522 8.50977,2.23437 3.24442,-0.0664 6.5631,-0.90038 9.10937,-2.91211 0.31654,-0.25009 0.62267,-0.52001 0.97266,-0.7207 0.34983,-0.20069 0.75456,-0.33139 1.15429,-0.27734 0.31586,0.0426 0.60773,0.19944 0.86133,0.39257 0.25346,0.19329 0.47491,0.42384 0.70508,0.64453 1.78443,1.71145 4.19132,2.78159 6.66211,2.87305 2.21015,0.0819 4.41166,-0.60579 6.30078,-1.75586 1.50845,-0.91831 2.82943,-2.1247 3.97266,-3.4707 0.47849,-0.56334 0.931,-1.15789 1.23828,-1.83008 0.30803,-0.67219 0.46419,-1.4317 0.32812,-2.1582 -0.0677,-0.36132 -0.2077,-0.71188 -0.42578,-1.00781 -0.21796,-0.29609 -0.51619,-0.53645 -0.85937,-0.66797 -0.27243,-0.10432 -0.56552,-0.13786 -0.85352,-0.1836 -0.28815,-0.0457 -0.58069,-0.10575 -0.83203,-0.2539 -0.20428,-0.12042 -0.37213,-0.29559 -0.50781,-0.49024 -0.13606,-0.19457 -0.23988,-0.40925 -0.33399,-0.62695 -0.53661,-1.24373 -0.7553,-2.60344 -0.84375,-3.95508 -0.0884,-1.35163 -0.058,-2.70811 -0.0391,-4.0625 l 0.0801,-5.94336 c 0.0305,-2.25536 -0.0932,-4.57527 -1.04297,-6.62109 -0.79321,-1.70865 -2.07425,-3.16443 -3.57226,-4.30664 -3.33241,-2.54094 -7.64922,-3.51172 -11.83985,-3.51172 z m -144.84375,0.041 c -5.81008,0.0121 -11.71323,1.84947 -16.0957,5.66407 -4.26422,3.71164 -6.91117,9.26474 -6.94141,14.91797 -0.0298,5.91473 2.83594,11.75338 7.46484,15.43554 3.95184,3.14355 9.03695,4.70699 14.08594,4.78711 4.3002,0.0682 8.66561,-0.92754 12.32227,-3.1914 1.479,-0.91567 2.8441,-2.0417 3.89257,-3.42969 0.83177,-1.10109 1.46926,-2.40923 1.48438,-3.78906 0.0131,-1.07747 -0.36443,-2.1551 -1.04297,-2.99219 -0.2962,-0.36541 -0.65058,-0.68742 -1.06055,-0.91797 -0.40996,-0.23093 -0.87737,-0.36693 -1.34765,-0.35938 -0.42694,0.008 -0.84253,0.13417 -1.24414,0.2793 -1.20306,0.43453 -2.3406,1.05141 -3.57227,1.39649 -1.09209,0.30765 -2.23924,0.3913 -3.37109,0.31835 -2.60308,-0.16785 -5.16182,-1.20376 -7.0625,-2.99023 -2.29467,-2.15679 -3.53666,-5.34805 -3.45313,-8.49609 0.0443,-1.67214 0.46745,-3.38042 1.48633,-4.70703 0.44285,-0.57661 0.99425,-1.07404 1.63477,-1.41797 0.64047,-0.34413 1.37142,-0.53011 2.09765,-0.4961 0.93472,0.0446 1.83214,0.45521 2.53907,1.06836 0.70689,0.61316 1.23018,1.41892 1.59374,2.28125 0.53999,1.28126 0.75055,2.71469 1.5254,3.86914 0.53726,0.80051 1.3255,1.41972 2.20507,1.81446 0.87954,0.39488 1.84846,0.57056 2.8125,0.57812 1.97545,0.0164 3.96535,-0.69438 5.41797,-2.0332 1.54413,-1.42315 2.4271,-3.52521 2.40821,-5.625 -0.0169,-1.71209 -0.61044,-3.39145 -1.55079,-4.82227 -0.94034,-1.43085 -2.21688,-2.62256 -3.62695,-3.59375 -3.64993,-2.51384 -8.16969,-3.55638 -12.60156,-3.54883 z m 42.09961,9.17383 c 0.80337,0.0479 1.56927,0.40708 2.18945,0.91992 0.62022,0.51285 1.10505,1.17211 1.50391,1.8711 1.20635,2.11404 1.65233,4.56265 2.16797,6.9414 0.54444,2.51165 1.1906,5.06324 0.92187,7.61915 -0.10938,1.0402 -0.3814,2.08712 -0.97656,2.94726 -0.29756,0.43011 -0.67355,0.80698 -1.11719,1.08398 -0.44364,0.27686 -0.95607,0.45194 -1.47851,0.47461 -0.92036,0.0423 -1.81816,-0.38388 -2.4961,-1.00781 -0.67789,-0.62388 -1.15865,-1.43079 -1.55664,-2.26172 -1.09901,-2.29459 -1.62572,-4.81502 -2.16797,-7.30078 -0.47025,-2.1558 -0.96256,-4.33596 -0.88281,-6.54101 0.0438,-1.21516 0.28608,-2.47804 1.04297,-3.42969 0.33846,-0.42554 0.77345,-0.77688 1.26562,-1.00781 0.49217,-0.23131 1.04121,-0.34261 1.58399,-0.3086 z m 151.66797,2.83203 h 0.002 c 0.69223,0.0346 1.37086,0.25316 1.97461,0.59375 0.60427,0.34084 1.13558,0.80108 1.5957,1.32032 1.18356,1.33564 1.88124,3.04879 2.23047,4.79882 0.35074,1.75004 0.36813,3.54772 0.33789,5.33204 -0.0436,2.47717 -0.2227,5.07222 -1.52539,7.17968 -0.47357,0.76615 -1.09402,1.45463 -1.86523,1.91993 -0.77122,0.46534 -1.69853,0.69522 -2.58789,0.55273 -0.78248,-0.12544 -1.50542,-0.53239 -2.07813,-1.08008 -0.57275,-0.54769 -1.00327,-1.23102 -1.33398,-1.95117 -0.88974,-1.9375 -1.06495,-4.1268 -0.99805,-6.25781 0.0669,-2.13101 0.35925,-4.25274 0.35547,-6.38477 0,-0.78198 -0.0439,-1.56753 0.0332,-2.3457 0.0771,-0.77821 0.28282,-1.56193 0.73047,-2.20313 0.34469,-0.49372 0.82653,-0.88777 1.37305,-1.14062 0.54589,-0.25258 1.15509,-0.36388 1.75586,-0.33399 z m -51.61133,11.04883 c 0.32545,0.0189 0.64906,0.0888 0.94726,0.22071 0.2981,0.13183 0.5691,0.32558 0.77735,0.57617 0.32749,0.39409 0.48482,0.90777 0.5332,1.41797 0.0488,0.51019 -0.003,1.02492 -0.0508,1.53515 -0.10647,1.13639 -0.19701,2.2993 -0.66602,3.33985 -0.23452,0.52029 -0.5658,1.0046 -1,1.375 -0.43423,0.37043 -0.9761,0.62381 -1.54492,0.66992 -0.46817,0.0378 -0.94393,-0.0656 -1.36523,-0.27344 -0.42131,-0.20769 -0.78761,-0.51853 -1.08203,-0.88477 -0.69215,-0.86139 -0.96314,-2.00695 -0.92383,-3.11132 0.0444,-1.24366 0.47373,-2.48617 1.28516,-3.42969 0.38362,-0.44614 0.85123,-0.82345 1.38085,-1.08008 0.52967,-0.25625 1.1215,-0.38948 1.70899,-0.35547 z" />
  </g>
</svg>
