<?xml version="1.0" encoding="UTF-8" standalone="no"?>
<!-- Created with Inkscape (http://www.inkscape.org/) -->

<svg
   xmlns:dc="http://purl.org/dc/elements/1.1/"
   xmlns:cc="http://creativecommons.org/ns#"
   xmlns:rdf="http://www.w3.org/1999/02/22-rdf-syntax-ns#"
   xmlns:svg="http://www.w3.org/2000/svg"
   xmlns="http://www.w3.org/2000/svg"
   xmlns:sodipodi="http://sodipodi.sourceforge.net/DTD/sodipodi-0.dtd"
   xmlns:inkscape="http://www.inkscape.org/namespaces/inkscape"
   width="210mm"
   height="148mm"
   viewBox="0 0 210 148"
   version="1.1"
   id="svg8"
   inkscape:version="0.92.1 r15371"
   sodipodi:docname="Название.svg">
  <defs
     id="defs2">
    <inkscape:path-effect
       effect="spiro"
       id="path-effect35"
       is_visible="true" />
  </defs>
  <sodipodi:namedview
     id="base"
     pagecolor="#ffffff"
     bordercolor="#666666"
     borderopacity="1.0"
     inkscape:pageopacity="0.0"
     inkscape:pageshadow="2"
     inkscape:zoom="1.4"
     inkscape:cx="491.11785"
     inkscape:cy="319.2958"
     inkscape:document-units="mm"
     inkscape:current-layer="layer1"
     showgrid="false"
     inkscape:snap-global="false"
     inkscape:window-width="1366"
     inkscape:window-height="705"
     inkscape:window-x="-8"
     inkscape:window-y="-8"
     inkscape:window-maximized="1"
     inkscape:pagecheckerboard="true" />
  <metadata
     id="metadata5">
    <rdf:RDF>
      <cc:Work
         rdf:about="">
        <dc:format>image/svg+xml</dc:format>
        <dc:type
           rdf:resource="http://purl.org/dc/dcmitype/StillImage" />
        <dc:title></dc:title>
      </cc:Work>
    </rdf:RDF>
  </metadata>
  <g
     inkscape:label="Layer 1"
     inkscape:groupmode="layer"
     id="layer1"
     transform="translate(0,-149)">
    <flowRoot
       xml:space="preserve"
       id="flowRoot10"
       style="font-style:normal;font-weight:normal;font-size:192px;line-height:1.25;font-family:sans-serif;letter-spacing:0px;word-spacing:0px;fill:#000000;fill-opacity:1;stroke:none"><flowRegion
         id="flowRegion12"
         style="font-size:192px"><rect
           id="rect14"
           width="1002.8571"
           height="384.28571"
           x="48.57143"
           y="157.98653"
           style="font-size:192px" /></flowRegion><flowPara
         id="flowPara16" /></flowRoot>    <path
       style="font-style:normal;font-variant:normal;font-weight:bold;font-stretch:normal;font-size:47.87103653px;line-height:1.25;font-family:Garamond;-inkscape-font-specification:'Garamond Bold';letter-spacing:0px;word-spacing:0px;opacity:1;fill:#8fb82b;fill-opacity:1;stroke:none;stroke-width:0.94234318;stroke-opacity:1"
       d="M 751.3125 136.23438 C 750.60747 139.02869 750.30803 141.90339 748.96875 144.57227 C 747.60653 146.98599 745.87233 149.16022 743.62695 151.00977 C 741.14252 153.05536 739.57823 154.99239 735.00391 156.57227 C 730.16868 158.12792 726.40493 160.19751 720.00781 161.00391 C 713.05673 161.94021 707.10035 162.82829 697.46875 162.9707 C 691.76665 163.15666 684.35825 162.56119 677.36133 161.95703 C 672.18931 161.11431 666.34146 160.4564 660.02148 159.92969 C 656.28773 159.73504 652.47784 159.56266 648.30664 159.49414 C 644.08891 159.35279 639.87007 159.67596 635.65234 160.46289 C 631.75614 160.98035 627.77059 162.41183 623.75 164.18945 C 620.45992 165.91398 617.89082 167.78192 615.5957 169.70312 C 611.88647 172.54779 609.6062 176.551 607.62891 180.80078 C 606.07333 184.89242 604.76584 189.46605 604.81641 196.67188 C 605.02428 200.86643 604.99443 205.04202 606.03516 209.30469 C 607.47924 216.79269 608.16361 216.68621 609.12891 219.39258 C 603.90961 223.81939 599.97319 230.55232 596.50781 236.09961 L 596.71484 236.23633 C 596.22335 237.23189 595.73901 238.24847 595.27734 239.32812 C 591.4768 248.36388 589.57812 259.78192 589.57812 273.58203 C 589.57812 286.28688 591.25612 296.09018 594.61328 302.99023 C 597.97045 309.83553 603.22706 314.92708 610.38477 318.26758 C 617.54251 321.60808 625.39796 323.2793 633.94922 323.2793 C 646.9345 323.2793 657.35448 319.88428 665.20898 313.09375 C 673.06345 306.30322 676.99023 297.8147 676.99023 287.62891 C 676.99023 277.11453 673.03109 268.4624 665.11328 261.67188 C 657.19544 254.82658 646.77542 251.4043 633.85352 251.4043 C 627.07584 251.4043 620.83757 252.68981 615.13672 255.26367 C 609.49921 257.78273 603.82972 263.53265 598.12891 272.51367 C 597.91876 247.32917 609.84567 221.8422 635.33008 218.01758 C 643.52613 222.78398 649.29734 224.48769 657.86719 226.50781 C 652.0412 222.49883 645.57302 219.07797 641.37109 213.58594 L 665.17773 205.17383 C 671.14349 209.85549 678.49292 211.36503 685.51562 213.625 C 681.01655 210.02489 675.83351 207.36828 672.11328 202.69531 L 687.67188 197.43945 C 692.45279 199.11858 697.1268 199.20817 701.82422 199.64062 C 698.81386 198.23116 695.68002 197.37218 692.82617 195.24805 C 701.14518 191.8255 708.57305 187.57139 713.9043 181.36133 C 702.72593 186.26262 691.54751 191.2745 680.36914 194.375 C 680.65903 190.70617 681.60484 187.09193 682.35742 183.46094 C 679.60147 187.76419 676.91164 192.01082 674.4043 196.10352 C 666.76731 198.36692 659.18496 200.76018 651.20898 202.20898 C 653.19052 195.33932 656.91467 188.44934 660.61914 181.56055 C 653.49957 188.69195 648.00378 195.95628 642.99023 203.25977 C 634.52379 205.90551 627.02066 208.98733 619.79492 212.19531 C 617.22756 206.23269 618.13999 200.55465 619.25 194.89258 C 620.55643 191.5161 621.59153 189.38064 622.49805 187.82812 C 623.85233 185.50882 624.92249 184.49011 626.1875 182.57812 C 629.3188 178.93908 632.93215 176.41705 636.68359 174.21094 C 641.49493 171.82224 646.30589 170.5675 651.11719 169.29883 C 656.00582 168.31169 660.84027 167.73382 665.55273 168.04102 L 692.54492 170.07422 C 704.82366 170.54235 716.49295 169.12795 726.84961 165.21875 C 738.83638 160.90306 747.24761 154.30185 751.2832 144.90625 C 749.62913 153.05873 748.25636 161.23537 744.39062 169.20703 C 741.74205 174.91276 738.97661 180.17672 736.07812 184.93359 C 733.82889 188.25058 731.73437 191.56367 726.56836 194.96094 C 724.35435 196.28706 722.31484 197.72846 719.63281 198.74609 C 715.40371 199.93532 710.89468 200.31941 705.85547 199.18555 C 709.64112 200.49489 713.41803 201.86836 717.28906 202.4707 C 721.60165 202.92032 724.886 202.11016 728.06836 201.17578 C 725.51102 205.61756 721.36179 209.53524 716.95312 213.36719 C 712.33552 216.96367 707.53266 220.58088 701.92773 222.49219 C 697.66866 224.68023 693.07793 225.52496 688.32227 226.28906 C 684.11123 227.06232 680.08975 227.14417 676.12695 227.01562 C 671.3341 226.92492 666.69671 225.84598 662.07812 224.63672 C 663.33006 226.60453 664.44345 228.54968 667.14453 230.74805 C 669.73767 233.01436 672.33069 234.80343 674.92383 235.91016 C 677.45449 237.12441 679.98692 237.7536 682.51758 237.92383 C 679.55171 239.89549 675.73459 241.21759 670.89453 241.75977 C 665.92906 242.62475 661.3432 242.46424 656.74219 242.34375 C 652.33632 242.14117 648.04132 241.49721 643.90039 240.25 C 635.51286 238.05905 627.79064 234.19333 620.28125 229.79102 C 625.11474 234.64846 630.44456 238.77897 636.40234 241.98828 C 640.60775 244.18298 645.08158 246.26155 650.42969 247.96094 C 654.68105 249.52355 658.91828 250.22593 662.64648 250.91992 C 668.01685 251.35627 671.94905 251.39762 675.20508 251.25195 C 682.29574 250.98776 686.77834 249.99063 690.39062 248.75 C 696.8433 246.31334 703.27447 243.70461 709.60352 240.22461 C 714.17659 237.80745 718.15651 234.79043 721.85742 231.49219 C 726.17481 227.79679 730.15402 223.66928 733.59766 218.85938 C 736.79294 214.94692 739.46256 210.74927 741.6582 206.29102 C 744.59403 199.33616 747.64711 192.38898 749.90625 185.37891 C 751.8631 180.21297 752.59375 174.18763 753.46875 168.26367 C 754.10821 162.8038 753.86515 157.2718 753.8418 151.75781 C 753.78851 146.33291 752.57819 141.27581 751.3125 136.23438 z M 632.99805 256.98828 C 640.09241 256.98828 645.35097 259.34318 648.77148 264.05273 C 652.19199 268.76229 653.90234 276.67621 653.90234 287.79297 C 653.90234 307.67166 647.15603 317.61133 633.66406 317.61133 C 627.26646 317.61133 622.19817 315.64018 618.46094 311.69727 C 614.78709 307.75439 612.95117 299.23859 612.95117 286.15039 C 612.95117 275.85507 614.50364 268.43393 617.60742 263.88867 C 620.77455 259.28861 625.90365 256.98828 632.99805 256.98828 z "
       transform="matrix(0.26458333,0,0,0.26458333,0,149)"
       id="path863" />
    <path
       style="font-style:normal;font-variant:normal;font-weight:bold;font-stretch:normal;font-size:47.87103653px;line-height:1.25;font-family:Garamond;-inkscape-font-specification:'Garamond Bold';letter-spacing:0px;word-spacing:0px;opacity:1;fill:#8fb82b;fill-opacity:1;stroke:none;stroke-width:0.2493283;stroke-opacity:1"
       d="m 29.888099,205.25848 c -4.35745,0 -8.153369,0.44939 -11.387937,1.34772 -1.173159,2.56458 -1.776706,4.70177 -1.810225,6.41149 h 2.287716 c 1.793259,-2.20236 3.502705,-3.67318 5.128368,-4.41213 1.642423,-0.75344 3.418817,-1.13017 5.329391,-1.13017 3.167531,0 5.547471,0.91322 7.139615,2.73885 1.592146,1.81115 2.480601,4.63634 2.664955,8.47597 l -1.835547,0.0651 c -5.245698,0 -8.161724,-0.21026 -8.748303,-0.63045 -0.569822,-0.42018 -1.080735,-1.78175 -1.533241,-4.08553 -0.184354,-0.0145 -0.310201,-0.0217 -0.377238,-0.0217 l -1.407665,0.0217 c -0.06704,1.18811 -0.10077,2.22397 -0.10077,3.10782 l 0.05013,3.08611 0.02532,0.76068 -0.125574,2.60811 -0.02532,1.60817 h 1.784903 l 0.377238,-1.43454 c 0.402225,-1.62279 0.795856,-2.57156 1.181322,-2.84685 0.402228,-0.2753 1.877105,-0.4129 4.424537,-0.4129 l 3.921726,0.0651 c 0.586578,0.029 0.997334,0.0434 1.231966,0.0434 l 1.256771,-0.0217 c 0,4.02799 -1.00574,6.99851 -3.016872,8.91108 -1.994371,1.89809 -4.533373,2.84686 -7.617105,2.84686 -4.307171,0 -7.675727,-1.97794 -10.105843,-5.93349 -0.620098,-0.11591 -1.433046,-0.17363 -2.438611,-0.17363 0.251391,1.76768 0.746216,3.81776 1.48363,6.15052 2.614469,1.36199 6.326317,2.04329 11.136272,2.04329 5.530607,0 9.955242,-1.26056 13.273606,-3.78168 3.335126,-2.52112 5.002797,-6.13634 5.002797,-10.84533 0,-4.21636 -1.474877,-7.69398 -4.424537,-10.43244 -2.949657,-2.75295 -7.198106,-4.12946 -12.745473,-4.12946 z"
       id="path865"
       inkscape:connector-curvature="0" />
    <path
       style="font-style:normal;font-variant:normal;font-weight:bold;font-stretch:normal;font-size:47.87103653px;line-height:1.25;font-family:Garamond;-inkscape-font-specification:'Garamond Bold';letter-spacing:0px;word-spacing:0px;opacity:1;fill:#8fb82b;fill-opacity:1;stroke:none;stroke-width:0.2493283;stroke-opacity:1"
       d="m 113.81528,205.34578 -2.96675,6.84609 -3.34346,7.43262 c -2.29604,5.41896 -3.71202,8.70075 -4.24832,9.8454 -0.5363,1.13015 -0.98883,1.81867 -1.35754,2.06499 -0.35194,0.23182 -1.1815,0.45652 -2.488733,0.67386 -0.95529,0.15938 -1.51706,0.26812 -1.68466,0.32608 l -0.0501,1.47743 c 1.45808,0 2.790503,-0.0866 3.997183,-0.26045 l 1.03094,-0.15245 2.89078,0.17415 c 1.99437,0.1304 3.51103,0.19534 4.55011,0.19534 0.0335,-0.15938 0.0501,-0.32584 0.0501,-0.49971 l -0.0248,-1.08676 c -1.05584,-0.1304 -1.65082,-0.20977 -1.7849,-0.23874 -0.90501,-0.10143 -1.5589,-0.25397 -1.96112,-0.45683 -0.40223,-0.20284 -0.60307,-0.52133 -0.60307,-0.95601 0,-0.28978 0.67854,-2.01416 2.03606,-5.17281 l 5.27926,-12.14913 c 0.77093,1.31852 2.46377,4.97704 5.07824,10.97556 l 1.1312,2.45618 c 1.2402,2.56459 1.86035,3.97718 1.86035,4.23799 0,0.27529 -0.10067,0.45618 -0.30179,0.54311 -0.20111,0.0869 -0.98889,0.28999 -2.36316,0.60875 -1.13964,0.17387 -1.75123,0.2754 -1.83503,0.30438 -0.0503,0.44916 -0.0754,0.93411 -0.0754,1.45572 l 2.86598,-0.0868 c 1.99437,-0.1304 4.03906,-0.19533 6.13399,-0.19533 0.77093,0 1.86022,0.0505 3.26802,0.15193 1.57538,0.10142 2.98331,0.15193 4.22351,0.15193 l 0.0248,-0.45631 c 0,-0.24631 -0.0418,-0.60861 -0.12558,-1.08675 -0.75417,-0.26081 -1.58373,-0.4417 -2.48873,-0.54312 -0.73742,-0.0724 -1.3158,-0.42031 -1.73478,-1.04335 -0.41899,-0.63752 -0.94651,-1.70225 -1.58337,-3.19464 -0.60334,-1.39096 -1.19028,-2.66595 -1.7601,-3.82509 l -0.80408,-1.6738 c -1.35752,-3.08619 -2.4136,-5.35376 -3.16777,-6.80268 l -0.67851,-1.28209 c -2.32956,-4.94082 -3.7541,-7.8531 -4.27364,-8.73694 z"
       id="path867"
       inkscape:connector-curvature="0" />
    <path
       style="font-style:normal;font-variant:normal;font-weight:bold;font-stretch:normal;font-size:47.87103653px;line-height:1.25;font-family:Garamond;-inkscape-font-specification:'Garamond Bold';letter-spacing:0px;word-spacing:0px;opacity:1;fill:#8fb82b;fill-opacity:1;stroke:none;stroke-width:0.2493283;stroke-opacity:1"
       d="m 70.457737,215.51725 c -2.46364,0 -4.99459,1.55019 -7.5923,4.65088 -1.2402,1.4779 -2.19508,2.45604 -2.86547,2.93419 -0.67038,0.47814 -1.63434,0.8693 -2.89131,1.17357 v -2.04329 c 0,-0.28978 0.0589,-1.03602 0.17622,-2.23862 0.0335,-0.31876 0.0501,-0.5651 0.0501,-0.73897 0.0503,-0.62304 0.15096,-0.99976 0.30179,-1.13017 0.15084,-0.1304 0.55303,-0.19533 1.20665,-0.19533 l 1.83505,-0.17364 0.30179,-1.49965 c -0.90502,0.13041 -2.48914,0.19534 -4.751676,0.19534 l -2.01073,-0.0217 -1.307412,0.0217 c -0.988806,0 -2.597576,-0.0649 -4.82658,-0.19534 l 0.326597,1.49965 c 0.80445,0.0869 1.399437,0.13023 1.784903,0.13023 0.787693,0.0145 1.240223,0.14487 1.35754,0.39119 0.117316,0.23183 0.176215,0.86932 0.176215,1.91254 l -0.02532,2.58641 -0.02532,2.28203 -0.02481,0.71727 c -0.01676,4.1584 -0.117438,6.3028 -0.301792,6.4332 -0.150833,0.0724 -0.393964,0.12295 -0.729154,0.15193 l -0.954979,0.0651 c -0.100558,0.029 -0.310473,0.0656 -0.628902,0.10904 -0.33519,0.0435 -0.645266,0.13004 -0.930177,0.26045 -0.01676,0.24631 -0.02481,0.44215 -0.02481,0.58704 0,0.23183 0.03322,0.46374 0.100254,0.69556 0.318428,0 0.662236,-0.007 1.030943,-0.0217 0.26815,-0.0145 0.636612,-0.0217 1.105877,-0.0217 1.726221,-0.13041 2.89102,-0.19586 3.49436,-0.19586 1.055843,0 2.187429,0.0361 3.394113,0.10852 l 2.63964,0.0873 0.1757,-0.0656 c 0.0335,-0.15938 0.0501,-0.27534 0.0501,-0.34779 l -0.0248,-0.39118 v -0.54313 c -0.16759,-0.029 -0.36895,-0.0578 -0.60358,-0.0868 -1.17317,-0.11591 -1.96899,-0.32618 -2.38798,-0.63045 l -0.0253,-0.80409 -0.0253,-0.71727 v -4.97695 c 1.27372,0 2.22913,0.20304 2.86599,0.60874 0.65361,0.39121 1.7263,1.46315 3.21789,3.21634 l 2.43861,2.80345 c 0.88825,0.98527 1.45806,1.64492 1.70946,1.97817 1.5251,-0.10142 2.8238,-0.15244 3.8964,-0.15244 0.95529,0 1.85179,0.0366 2.68976,0.10904 0.6201,0.058 1.03085,0.0868 1.23197,0.0868 0.0168,-0.23182 0.0253,-0.40602 0.0253,-0.52193 l -0.0253,-0.71727 c -1.35752,-0.33325 -2.29579,-0.64452 -2.81534,-0.93431 -0.50278,-0.30427 -1.31572,-1.10823 -2.43861,-2.41225 -2.17872,-2.52112 -3.74572,-4.12955 -4.701,-4.82503 -0.95529,-0.69548 -1.87696,-1.15931 -2.76521,-1.39113 0.41898,-0.33325 1.05575,-0.97075 1.91048,-1.91255 1.02232,-1.13015 1.81814,-1.89082 2.38796,-2.28203 0.56982,-0.39121 1.1316,-0.58653 1.68466,-0.58653 0.3687,0 0.7709,0.22418 1.20665,0.67335 0.67037,0.69548 1.41586,1.04334 2.23707,1.04334 0.75417,0 1.34111,-0.21026 1.7601,-0.63045 0.43574,-0.42018 0.6537,-0.89792 0.6537,-1.43402 0,-0.73895 -0.31864,-1.36923 -0.95549,-1.89084 -0.63686,-0.52161 -1.55853,-0.78238 -2.76521,-0.78238 z"
       id="path869"
       inkscape:connector-curvature="0" />
    <path
       style="font-style:normal;font-variant:normal;font-weight:bold;font-stretch:normal;font-size:47.87103653px;line-height:1.25;font-family:Garamond;-inkscape-font-specification:'Garamond Bold';letter-spacing:0px;word-spacing:0px;opacity:1;fill:#8fb82b;fill-opacity:1;stroke:none;stroke-width:0.94234318;stroke-opacity:1"
       d="M 327.4707 251.4043 C 321.38982 251.4043 316.19597 251.97891 311.88867 253.12891 C 307.64472 254.22418 303.40021 256.08626 299.15625 258.71484 C 296.24246 260.57675 293.55042 262.87712 291.08008 265.61523 C 288.67305 268.35335 286.77437 271.58282 285.38086 275.30664 C 283.98731 278.97573 283.28906 282.64536 283.28906 286.31445 C 283.28906 293.54306 284.74641 299.5949 287.66016 304.46875 C 290.63729 309.3426 295.54574 313.69595 302.38672 317.5293 C 309.29108 321.36268 317.68494 323.2793 327.56641 323.2793 C 336.37104 323.2793 344.09901 321.66261 350.75 318.43164 C 357.40099 315.20067 362.68996 310.19092 366.61719 303.40039 C 369.21425 298.9099 370.51172 292.99638 370.51172 285.6582 C 370.51172 281.77009 369.49965 277.63491 367.47266 273.25391 C 365.50904 268.81818 362.49923 264.90308 358.44531 261.50781 C 351.03423 254.77205 340.70933 251.4043 327.4707 251.4043 z M 326.71094 256.98828 C 332.91855 256.98828 337.92211 259.07048 341.72266 263.23242 C 345.52324 267.33956 347.42383 274.37702 347.42383 284.34375 C 347.42383 292.44857 346.98054 298.28028 346.09375 301.83984 C 344.70024 307.26131 342.42107 311.25821 339.25391 313.83203 C 336.08678 316.35109 332.19039 317.61133 327.56641 317.61133 C 323.70248 317.61133 320.37694 316.95492 317.58984 315.64062 C 314.80278 314.32633 312.80703 312.81871 311.60352 311.12109 C 309.82993 308.49251 308.53243 305.34483 307.70898 301.67578 C 307.45576 300.63528 307.04272 296.72021 306.47266 289.92969 C 306.59927 280.23675 307.07499 273.9103 307.89844 270.95312 C 309.1653 266.3531 311.3817 262.87624 314.54883 260.52148 C 317.7793 258.16669 321.83357 256.98828 326.71094 256.98828 z "
       transform="matrix(0.26458333,0,0,0.26458333,0,149)"
       id="path871" />
    <path
       style="font-style:normal;font-variant:normal;font-weight:bold;font-stretch:normal;font-size:47.87103653px;line-height:1.25;font-family:Garamond;-inkscape-font-specification:'Garamond Bold';letter-spacing:0px;word-spacing:0px;opacity:1;fill:#8fb82b;fill-opacity:1;stroke:none;stroke-width:0.94234318;stroke-opacity:1"
       d="M 550.25586 252.06055 C 542.40136 252.06055 535.75021 252.82797 530.30273 254.36133 C 526.31216 255.56613 522.00488 257.67364 517.38086 260.68555 C 512.82018 263.64272 509.39948 266.71052 507.11914 269.88672 C 505.5989 272.13198 504.83984 274.81407 504.83984 277.93555 C 504.83984 279.14031 505.28313 280.07137 506.16992 280.72852 C 508.19688 280.72852 510.91933 280.01757 514.33984 278.59375 C 515.22663 278.21039 516.90658 277.6066 519.37695 276.78516 C 521.91067 275.90899 523.65143 274.95062 524.60156 273.91016 C 524.98159 273.5268 525.39448 272.13023 525.83789 269.7207 C 526.4713 266.38021 527.2304 264.10906 528.11719 262.9043 C 529.3207 261.26141 531.25365 259.91937 533.91406 258.87891 C 536.57443 257.8384 539.48717 257.31836 542.6543 257.31836 C 545.82143 257.31836 548.03783 258.1384 549.30469 259.78125 C 551.39499 262.4646 552.44141 267.50358 552.44141 274.89648 C 552.44141 277.03222 552.34598 279.13973 552.15625 281.2207 L 528.49805 289.43555 C 524.38078 290.9689 521.97414 291.89992 521.27734 292.22852 C 516.7167 294.41898 513.39109 296.44473 511.30078 298.30664 C 509.27382 300.11378 507.78412 301.94864 506.83398 303.81055 C 505.94719 305.67246 505.50391 307.50731 505.50391 309.31445 C 505.50391 313.20257 507.05637 316.35219 510.16016 318.76172 C 513.26394 321.11648 518.10962 322.29297 524.69727 322.29297 C 531.85497 322.29297 537.903 321.25285 542.84375 319.17188 C 547.78446 317.03614 551.61804 313.88655 554.3418 309.72461 C 556.55879 314.21514 558.99779 317.36473 561.6582 319.17188 C 564.38192 320.92429 567.61241 321.80078 571.34961 321.80078 C 575.02346 321.80078 578.09408 320.89699 580.56445 319.08984 C 583.03479 317.2279 585.03054 313.86018 586.55078 308.98633 L 586.45508 308.57617 C 586.32846 308.02852 585.98022 307.56301 585.41016 307.17969 L 583.22461 305.94727 L 581.51562 306.52148 L 578.66406 310.38281 C 578.15734 310.71125 577.55617 310.875 576.85938 310.875 C 575.7192 310.875 574.7699 310.46402 574.00977 309.64258 C 573.31301 308.76637 572.96484 307.17894 572.96484 304.87891 L 572.96484 302.33203 L 572.77344 292.39258 L 573.05859 278.83984 C 573.05859 270.57073 572.32994 264.84811 570.87305 261.67188 C 569.4795 258.49567 566.94733 256.11351 563.27344 254.52539 C 559.66289 252.88251 555.32326 252.06055 550.25586 252.06055 z M 552.06055 286.88867 C 552.31378 289.2982 552.44141 291.70763 552.44141 294.11719 C 552.44141 300.63389 552.15608 304.60551 551.58594 306.0293 C 551.01587 307.39836 549.05248 309.26048 545.69531 311.61523 C 543.22494 313.36761 540.21517 314.24414 536.66797 314.24414 C 534.51432 314.24414 532.61564 313.47668 530.96875 311.94336 C 529.32182 310.41001 528.49805 308.46609 528.49805 306.11133 C 528.49805 303.48274 529.13162 301.26421 530.39844 299.45703 C 532.17206 296.99274 535.30735 294.55605 539.80469 292.14648 C 544.36537 289.68219 548.45 287.92914 552.06055 286.88867 z "
       transform="matrix(0.26458333,0,0,0.26458333,0,149)"
       id="path873" />
    <text
       xml:space="preserve"
       style="font-style:normal;font-variant:normal;font-weight:normal;font-stretch:normal;font-size:9.03349686px;line-height:1.25;font-family:'Cooper Black';-inkscape-font-specification:'Cooper Black, ';letter-spacing:0px;word-spacing:0px;fill:#151515;fill-opacity:1;stroke:none;stroke-width:0.22583741"
       x="97.977516"
       y="255.56963"
       id="text1025"
       transform="scale(1.003101,0.99690859)"><tspan
         sodipodi:role="line"
         id="tspan1023"
         x="97.977516"
         y="255.56963"
         style="font-style:normal;font-variant:normal;font-weight:normal;font-stretch:normal;font-size:21.68039322px;font-family:'Cooper Black';-inkscape-font-specification:'Cooper Black, ';fill:#151515;fill-opacity:1;stroke-width:0.22583741">EcoLab</tspan></text>
  </g>
</svg>
