<svg xmlns="http://www.w3.org/2000/svg" width="405.012" height="446.867" viewBox="0 0 107.15935 118.2336"><g transform="translate(-155.567 -101.054)"><flowRoot xml:space="preserve" style="line-height:1.25" transform="translate(-83.87 -175.735)" font-style="normal" font-weight="400" font-size="192" font-family="sans-serif" letter-spacing="0" word-spacing="0" fill="#000" fill-opacity="1" stroke="none"><flowRegion font-size="192"><path d="M48.571 157.987h1002.857v384.286H48.571z"/></flowRegion><flowPara/></flowRoot><path style="line-height:1.25;-inkscape-font-specification:'Times New Roman, Bold';font-variant-ligatures:normal;font-variant-caps:normal;font-variant-numeric:normal;font-feature-settings:normal;text-align:center" d="M241.91 102.294a.884.884 0 0 0-.661.259c-.17.172-.254.4-.254.683 0 .313.086.829.259 1.55l.287 1.2c.143.596.228 1.103.254 1.522h.242c.048-.588.123-1.095.226-1.521l.292-1.202c.184-.764.276-1.286.276-1.565a.886.886 0 0 0-.265-.662.879.879 0 0 0-.656-.264zm-23.785.137a.466.466 0 0 0-.341.144.529.529 0 0 0-.144.391c0 .312.178.56.535.744.36.184.834.276 1.422.276.58 0 1.038-.092 1.372-.276.335-.183.502-.432.502-.744 0-.169-.048-.3-.143-.391a.473.473 0 0 0-.348-.144c-.29 0-.51.237-.661.711-.059.188-.13.322-.215.403-.085.08-.278.121-.579.121-.224 0-.391-.04-.501-.121-.107-.08-.191-.224-.254-.43-.14-.456-.355-.684-.645-.684zm-45.486.033v2.024h.21c.084-.552.286-.976.606-1.274.227-.213.593-.32 1.097-.32h.54v5.766c0 .375-.02.607-.06.695a.527.527 0 0 1-.227.264c-.132.078-.307.116-.524.116h-.248v.204h3.914v-.204h-.248c-.213 0-.382-.035-.507-.105a.604.604 0 0 1-.248-.253c-.04-.096-.06-.334-.06-.717v-5.766h.556c.349 0 .593.033.733.1.25.12.446.285.59.49.143.203.274.537.391 1.003h.199v-2.023zm9.48 2.167c-.624 0-1.17.255-1.637.766-.463.507-.694 1.19-.694 2.05 0 .702.158 1.29.474 1.764.394.588.972.882 1.737.882.444 0 .836-.117 1.174-.353.338-.238.647-.642.926-1.212l-.188-.121c-.206.32-.399.542-.579.667-.18.121-.38.182-.6.182-.357 0-.662-.153-.915-.458-.331-.397-.513-.937-.546-1.62h2.828c-.03-.842-.238-1.476-.623-1.902-.383-.43-.835-.645-1.356-.645zm5.232 0c-.794 0-1.417.321-1.869.964-.375.533-.562 1.15-.562 1.853 0 .727.206 1.35.617 1.868.412.518.961.777 1.648.777.408 0 .792-.11 1.152-.33.364-.225.667-.564.91-1.02l-.17-.132c-.221.235-.413.395-.574.48a1.091 1.091 0 0 1-.513.126c-.276 0-.514-.08-.716-.237-.268-.217-.48-.546-.634-.987a4.223 4.223 0 0 1-.232-1.395c0-.584.096-1.017.287-1.3.125-.188.275-.281.452-.281.114 0 .213.046.297.138.085.092.138.253.16.484.034.368.12.623.26.767a.732.732 0 0 0 .54.215.67.67 0 0 0 .496-.188.667.667 0 0 0 .193-.501c0-.33-.159-.63-.475-.899-.312-.268-.734-.402-1.267-.402zm20.83 0c-.316 0-.608.086-.876.26-.188.117-.371.308-.551.572v-.678h-2.161v.204c.242.015.406.074.49.177.085.099.127.33.127.694v5.44c0 .353-.036.572-.11.656-.11.122-.28.186-.507.194v.203h2.938v-.203c-.257 0-.43-.022-.518-.067a.425.425 0 0 1-.199-.21c-.04-.095-.06-.275-.06-.54v-1.918c.202.232.395.395.578.49.247.126.511.188.794.188.39 0 .743-.112 1.059-.336.32-.228.562-.557.727-.987.17-.433.253-.91.253-1.433 0-.485-.08-.937-.242-1.355-.162-.423-.399-.754-.711-.993a1.644 1.644 0 0 0-1.031-.358zm5.292 0c-.746 0-1.334.275-1.764.826-.426.548-.64 1.191-.64 1.93 0 .717.21 1.347.63 1.89.418.544 1.015.816 1.79.816.79 0 1.41-.297 1.858-.893.371-.492.557-1.104.557-1.835 0-.507-.101-.974-.303-1.4a2.206 2.206 0 0 0-.877-.987 2.39 2.39 0 0 0-1.251-.347zm17.815 0c-.625 0-1.17.255-1.637.766-.463.507-.694 1.19-.694 2.05 0 .702.157 1.29.473 1.764.394.588.972.882 1.737.882.444 0 .836-.117 1.174-.353.338-.238.647-.642.926-1.212l-.187-.121c-.206.32-.399.542-.579.667-.18.121-.38.182-.601.182-.356 0-.662-.153-.915-.458-.33-.397-.513-.937-.546-1.62h2.828c-.03-.842-.237-1.476-.623-1.902-.382-.43-.834-.645-1.356-.645zm-41.589.154v1.345h.204c.08-.408.191-.676.33-.805.14-.128.39-.193.75-.193h.513v3.754c0 .338-.042.564-.127.678-.08.114-.232.171-.452.171v.204h2.701v-.204c-.22-.004-.373-.059-.457-.165-.081-.107-.122-.335-.122-.684v-3.754h.524c.39 0 .648.076.777.226.129.147.226.405.293.772h.203v-1.345zm8.56 0v.204c.206 0 .353.048.441.143.092.092.138.307.138.645v3.082c0 .36-.04.595-.121.705-.08.11-.234.168-.458.171v.204h2.624v-.204c-.202 0-.336-.051-.402-.154-.066-.103-.1-.324-.1-.662v-3.787h1.478v3.826c0 .276-.026.474-.078.595-.05.122-.19.182-.418.182v.204h2.623v-.204c-.227-.007-.382-.064-.463-.17-.08-.107-.121-.322-.121-.646v-3.07c0-.338.037-.558.11-.661.074-.107.232-.173.474-.199v-.204zm18.433 0v.204c.386 0 .579.257.579.772v3.18c0 .294-.044.5-.132.618-.089.117-.237.176-.447.176v.204h2.624v-.204c-.331-.01-.498-.257-.502-.739l1.477-2.524v2.524c0 .493-.165.74-.496.74v.203h2.624v-.204c-.217 0-.37-.051-.457-.154-.085-.103-.127-.307-.127-.612v-3.28c0-.272.048-.455.143-.55.096-.096.242-.146.44-.15v-.204h-2.623v.204c.173 0 .298.053.375.16.077.107.118.296.121.568l-1.477 2.557v-2.513c0-.302.035-.503.105-.606.073-.103.206-.158.397-.166v-.204zm6.94 0v.204c.198.004.334.027.408.072.077.044.136.136.176.276.04.136.06.34.06.611 0 .9-.13 1.748-.39 2.541-.258.794-.616 1.21-1.075 1.246v1.56h.203c.107-.904.671-1.356 1.693-1.356h1.494c1.058 0 1.63.452 1.714 1.356h.204v-1.56c-.199-.007-.344-.055-.436-.143-.088-.092-.132-.287-.132-.584v-3.336c0-.205.033-.37.1-.496.069-.125.225-.187.468-.187v-.204zm10.28 0v.204c.217 0 .367.053.452.16.084.103.127.316.127.64v3.163c0 .305-.045.513-.133.623-.084.107-.233.16-.446.16v.204h2.624v-.204c-.184 0-.315-.048-.392-.143-.073-.1-.11-.313-.11-.64v-1.51h1.478v1.55c0 .326-.038.532-.111.616-.074.08-.202.124-.386.127v.204h2.618v-.204c-.216-.007-.367-.059-.451-.154-.085-.096-.127-.305-.127-.629v-3.28c0-.246.042-.42.127-.523.088-.107.238-.16.451-.16v-.204h-2.618v.204c.22 0 .359.06.414.182.055.118.083.305.083.562v1.362h-1.478v-1.362c0-.312.037-.512.11-.6.077-.089.208-.136.392-.144v-.204zm-51.875.204a.46.46 0 0 1 .309.1.98.98 0 0 1 .298.5c.066.221.099.628.099 1.22h-1.5v-.194c0-.57.109-1.018.326-1.345.121-.187.277-.28.468-.28zm49.168 0c.13 0 .232.033.309.1a.98.98 0 0 1 .298.5c.066.221.099.628.099 1.22h-1.5v-.194c0-.57.109-1.018.326-1.345.121-.187.277-.28.468-.28zm-17.71.033c.154 0 .279.039.375.116.136.107.239.278.309.513.07.231.104.66.104 1.284 0 1.062-.037 1.768-.11 2.117a.926.926 0 0 1-.287.523.624.624 0 0 1-.413.138.615.615 0 0 1-.452-.204c-.132-.136-.219-.334-.26-.595a7.42 7.42 0 0 1-.076-1.103c0-.742.02-1.32.06-1.736.044-.419.132-.698.265-.838a.647.647 0 0 1 .485-.215zm11.156.11h1.362v3.81c0 .437-.178.655-.535.655h-1.697c.58-.852.87-2.07.87-3.654zm-16.983.172c.236 0 .423.108.563.325.21.327.314.935.314 1.824 0 .867-.095 1.455-.286 1.764-.13.21-.293.314-.491.314-.36 0-.698-.224-1.014-.672v-2.75c.239-.537.543-.805.914-.805zm34.253 2.993a.853.853 0 0 0-.634.264.873.873 0 0 0-.259.634c0 .246.086.457.259.634a.874.874 0 0 0 .634.259.856.856 0 0 0 .628-.26.865.865 0 0 0 .265-.633c0-.25-.088-.461-.265-.634a.847.847 0 0 0-.628-.264z" font-weight="700" font-size="42.667" font-family="Times New Roman" letter-spacing="0" word-spacing="0" text-anchor="middle"/><path style="line-height:1.25;-inkscape-font-specification:'Times New Roman, Bold';font-variant-ligatures:normal;font-variant-caps:normal;font-variant-numeric:normal;font-feature-settings:normal;text-align:center" d="M227.366 193.84a.234.234 0 0 0-.171.07.265.265 0 0 0-.072.197c0 .156.09.28.268.372.18.092.417.137.71.137.291 0 .52-.045.687-.137.167-.092.25-.216.25-.372 0-.085-.023-.15-.071-.196a.237.237 0 0 0-.174-.072c-.145 0-.255.119-.33.356a.476.476 0 0 1-.108.201c-.042.04-.139.06-.29.06-.111 0-.195-.02-.25-.06a.412.412 0 0 1-.127-.215c-.07-.228-.177-.342-.322-.342zm23.294 0a.234.234 0 0 0-.17.07.265.265 0 0 0-.072.197c0 .156.089.28.267.372.18.092.417.137.711.137.29 0 .519-.045.686-.137.167-.092.25-.216.25-.372 0-.085-.023-.15-.07-.196a.237.237 0 0 0-.174-.072c-.145 0-.255.119-.33.356a.476.476 0 0 1-.108.201c-.043.04-.139.06-.29.06-.112 0-.196-.02-.25-.06a.412.412 0 0 1-.127-.215c-.07-.228-.178-.342-.323-.342zm-84.912.016v.102h.119c.17 0 .281.034.33.102.05.068.075.213.075.435v2.456c0 .235-.027.384-.08.447-.053.062-.162.093-.325.093h-.119v.102h1.954v-.102h-.113c-.161 0-.272-.03-.33-.088-.06-.061-.089-.211-.089-.452v-2.853h1.32v2.853c0 .206-.022.347-.066.424-.044.077-.157.116-.339.116h-.118v.102h1.951v-.102h-.088c-.17 0-.285-.03-.347-.088-.063-.061-.094-.211-.094-.452v-2.456c0-.218.028-.363.083-.433.055-.07.17-.104.347-.104h.1v-.102zm5.68 1.083c-.373 0-.666.138-.881.413-.213.274-.32.596-.32.965 0 .358.105.673.314.945.21.272.508.408.896.408.395 0 .705-.148.929-.446.185-.246.278-.552.278-.918 0-.253-.05-.487-.152-.7a1.103 1.103 0 0 0-.438-.494 1.195 1.195 0 0 0-.626-.173zm1.665 0l-.039.805h.105c.078-.406.255-.61.532-.61.13 0 .233.047.309.139a.564.564 0 0 1 .115.374c0 .34-.166.51-.498.51v.174c.38.022.57.193.57.513a.56.56 0 0 1-.146.405.523.523 0 0 1-.391.149c-.219 0-.434-.104-.645-.312l-.085.05c.204.356.535.534.994.534.337 0 .595-.073.775-.218a.672.672 0 0 0 .14-.934c-.086-.127-.289-.23-.609-.311.404-.103.606-.312.606-.626a.55.55 0 0 0-.24-.469c-.157-.115-.362-.173-.614-.173-.149 0-.323.027-.523.082a.798.798 0 0 1-.136.028c-.046 0-.084-.037-.115-.11zm6.681 0a.794.794 0 0 0-.438.13.986.986 0 0 0-.276.286v-.339h-1.08v.102c.121.007.202.037.245.088.042.05.063.166.063.348v2.72c0 .176-.018.285-.055.328-.055.06-.14.093-.253.096v.102h1.468v-.102a.665.665 0 0 1-.258-.033.212.212 0 0 1-.1-.105.795.795 0 0 1-.03-.27v-.959c.1.116.197.198.29.245a.894.894 0 0 0 .926-.074c.16-.114.28-.278.363-.493.085-.217.127-.456.127-.717 0-.242-.04-.468-.121-.678-.081-.211-.2-.377-.356-.496a.821.821 0 0 0-.515-.18zm2.725 0c-.202 0-.396.032-.584.096a.987.987 0 0 0-.438.279.565.565 0 0 0-.157.377c0 .094.039.176.116.246.079.07.176.105.292.105a.366.366 0 0 0 .262-.095.307.307 0 0 0 .102-.231c0-.074-.035-.15-.105-.229-.052-.057-.077-.105-.077-.143 0-.044.024-.083.072-.116a.506.506 0 0 1 .294-.08c.074 0 .14.02.199.058a.28.28 0 0 1 .118.133c.022.05.034.171.034.366v.259c-.568.26-.937.47-1.106.628-.169.157-.254.333-.254.53a.494.494 0 0 0 .513.507c.25 0 .532-.14.847-.417.018.14.068.245.15.315a.528.528 0 0 0 .346.102c.125 0 .236-.03.333-.09.1-.063.195-.163.287-.299l-.083-.066c-.05.068-.098.102-.146.102a.102.102 0 0 1-.064-.022.131.131 0 0 1-.041-.066 1.083 1.083 0 0 1-.014-.223v-1c0-.278-.013-.455-.038-.533a.722.722 0 0 0-.279-.336c-.141-.105-.334-.157-.579-.157zm11.915 0c-.312 0-.585.128-.819.383-.231.254-.347.596-.347 1.025 0 .351.08.645.237.882.197.294.486.441.868.441.223 0 .418-.059.588-.176.169-.12.323-.322.463-.607l-.094-.06c-.103.16-.2.27-.29.333a.527.527 0 0 1-.3.091.576.576 0 0 1-.457-.229c-.166-.198-.257-.468-.273-.81h1.414c-.015-.42-.12-.738-.312-.95-.191-.216-.417-.323-.678-.323zm7.808 0a1.08 1.08 0 0 0-.934.482 1.569 1.569 0 0 0-.281.926c0 .364.103.676.308.935a1 1 0 0 0 .825.388c.204 0 .395-.055.575-.165.182-.112.334-.282.455-.51l-.085-.066a1.18 1.18 0 0 1-.287.24.545.545 0 0 1-.256.063.565.565 0 0 1-.359-.119c-.134-.108-.24-.272-.316-.493a2.112 2.112 0 0 1-.116-.697c0-.292.048-.509.143-.65.063-.094.138-.14.226-.14.057 0 .106.022.149.068.042.046.069.126.08.242.016.184.06.312.13.384a.365.365 0 0 0 .27.107.335.335 0 0 0 .247-.094.333.333 0 0 0 .097-.25c0-.166-.08-.316-.237-.45-.156-.134-.367-.201-.634-.201zm6.57 0a1.08 1.08 0 0 0-.934.482 1.569 1.569 0 0 0-.281.926c0 .364.103.676.309.935.206.259.48.388.824.388.204 0 .396-.055.576-.165.182-.112.333-.282.455-.51l-.086-.066a1.18 1.18 0 0 1-.286.24.545.545 0 0 1-.257.063.565.565 0 0 1-.358-.119c-.134-.108-.24-.272-.317-.493a2.112 2.112 0 0 1-.116-.697c0-.292.048-.509.144-.65.062-.094.137-.14.226-.14.057 0 .106.022.148.068.043.046.07.126.08.242.017.184.06.312.13.384a.367.367 0 0 0 .27.107.335.335 0 0 0 .248-.094.333.333 0 0 0 .097-.25c0-.166-.08-.316-.238-.45-.156-.134-.367-.201-.634-.201zm5.709 0c-.313 0-.586.128-.819.383-.232.254-.347.596-.347 1.025 0 .351.078.645.236.882.197.294.486.441.869.441.222 0 .418-.059.587-.176.169-.12.323-.322.463-.607l-.094-.06c-.103.16-.2.27-.29.333a.526.526 0 0 1-.3.091.577.577 0 0 1-.457-.229c-.166-.198-.257-.468-.273-.81h1.414c-.015-.42-.118-.738-.311-.95-.191-.216-.417-.323-.678-.323zm10.538 0c-.373 0-.666.138-.881.413-.213.274-.32.596-.32.965 0 .358.105.673.314.945.21.272.508.408.896.408.395 0 .705-.148.929-.446.185-.246.278-.552.278-.918 0-.253-.05-.487-.152-.7a1.103 1.103 0 0 0-.438-.494 1.195 1.195 0 0 0-.626-.173zm6.329 0l-.039.805h.105c.077-.406.254-.61.532-.61.13 0 .233.047.308.139a.564.564 0 0 1 .116.374c0 .34-.166.51-.499.51v.174c.38.022.57.193.57.513a.56.56 0 0 1-.146.405.523.523 0 0 1-.39.149c-.22 0-.434-.104-.646-.312l-.085.05c.204.356.535.534.995.534.336 0 .594-.073.774-.218a.672.672 0 0 0 .141-.934c-.086-.127-.29-.23-.61-.311.405-.103.607-.312.607-.626a.55.55 0 0 0-.24-.469c-.158-.115-.363-.173-.614-.173-.15 0-.324.027-.524.082a.798.798 0 0 1-.135.028c-.046 0-.085-.037-.116-.11zm3.508 0a1.79 1.79 0 0 0-.584.096.987.987 0 0 0-.439.279.565.565 0 0 0-.157.377c0 .094.039.176.116.246.079.07.177.105.293.105a.365.365 0 0 0 .261-.095.308.308 0 0 0 .102-.231c0-.074-.035-.15-.105-.229-.051-.057-.077-.105-.077-.143 0-.044.024-.083.072-.116a.508.508 0 0 1 .295-.08c.073 0 .14.02.198.058.059.037.098.081.119.133.022.05.033.171.033.366v.259c-.568.26-.936.47-1.105.628-.17.157-.254.333-.254.53a.494.494 0 0 0 .513.507c.25 0 .531-.14.846-.417.018.14.069.245.152.315a.527.527 0 0 0 .344.102.62.62 0 0 0 .334-.09c.099-.063.194-.163.286-.299l-.083-.066c-.05.068-.098.102-.146.102a.102.102 0 0 1-.063-.022.131.131 0 0 1-.041-.066 1.07 1.07 0 0 1-.014-.223v-1c0-.278-.013-.455-.039-.533a.722.722 0 0 0-.278-.336c-.142-.105-.334-.157-.579-.157zm13.458 0c-.373 0-.667.138-.882.413-.213.274-.32.596-.32.965 0 .358.105.673.314.945.21.272.509.408.896.408.395 0 .705-.148.929-.446.186-.246.279-.552.279-.918 0-.253-.051-.487-.152-.7a1.103 1.103 0 0 0-.439-.494 1.193 1.193 0 0 0-.625-.173zm-72.906.077v.102c.099.002.167.014.204.036.038.022.067.068.088.138.02.068.03.17.03.306 0 .45-.065.874-.196 1.27-.128.397-.308.605-.537.623v.78h.102c.053-.452.335-.678.846-.678h.747c.529 0 .815.226.857.678h.102v-.78c-.1-.004-.172-.028-.218-.072-.044-.046-.066-.143-.066-.292v-1.667a.53.53 0 0 1 .05-.248c.035-.063.113-.094.234-.094v-.102zm8.61 0v.102c.119.01.195.04.228.091.035.051.052.181.052.389v1.535c0 .134-.015.224-.046.27-.03.046-.108.075-.235.088v.102h1.436c.375 0 .67-.058.885-.174.215-.115.323-.29.323-.52 0-.383-.266-.605-.797-.667.393-.1.59-.292.59-.576a.515.515 0 0 0-.284-.477c-.19-.109-.433-.163-.73-.163zm3.464 0v.102c.112.006.191.04.237.102.046.062.069.178.069.347v.75c0 .412-.022.684-.067.819-.044.134-.106.2-.187.2-.042 0-.063-.053-.063-.162 0-.239-.099-.358-.295-.358a.329.329 0 0 0-.254.107.387.387 0 0 0-.096.273.43.43 0 0 0 .132.309c.09.088.209.132.356.132a.625.625 0 0 0 .603-.48c.04-.154.06-.434.06-.84v-1.127h.728v1.943c0 .15-.03.248-.09.292a.39.39 0 0 1-.226.066v.102h1.364v-.102c-.107-.004-.18-.034-.218-.09a.52.52 0 0 1-.058-.28v-1.656c0-.227.092-.343.276-.347v-.102zm3.966 0c-.353 0-.599.016-.739.047a.668.668 0 0 0-.36.215.595.595 0 0 0-.155.413c0 .316.195.535.584.656l-.298.802c-.084.226-.227.34-.427.342v.102h1.02l.438-1.163c.06.004.102.005.13.005l.113-.005v.598c0 .3-.091.454-.273.463v.102h1.315v-.102c-.1-.007-.17-.045-.21-.113-.04-.07-.06-.2-.06-.391v-1.47c0-.174.023-.284.069-.33a.278.278 0 0 1 .2-.069v-.102zm4.266 0v.102c.105.006.179.036.22.091.043.053.064.144.064.27v1.646c0 .132-.022.226-.066.28-.042.054-.115.082-.218.086v.102h.772v-.102c-.118-.006-.196-.035-.237-.088-.04-.054-.06-.14-.06-.26v-1.664l.87 2.114h.14l.9-2.144v1.65c0 .142-.024.242-.07.301-.046.059-.125.09-.24.091v.102h1.36v-.102c-.107-.006-.18-.036-.221-.09-.039-.056-.058-.156-.058-.301v-1.602c0-.14.02-.236.063-.289.043-.055.114-.085.215-.09v-.103h-1.05l-.653 1.599-.653-1.599zm9.018 0v.102a.463.463 0 0 1 .215.138c.06.066.153.243.278.532l.833 1.91-.08.215c-.1.275-.186.452-.26.529-.049.053-.096.08-.14.08a.074.074 0 0 1-.063-.03c-.015-.02-.023-.066-.025-.135-.002-.123-.031-.214-.088-.273a.288.288 0 0 0-.22-.089.321.321 0 0 0-.243.105.376.376 0 0 0-.097.265c0 .123.047.228.14.314.096.088.22.132.373.132.191 0 .35-.077.477-.231.09-.11.228-.405.413-.882l.736-1.91c.125-.325.214-.516.267-.57a.32.32 0 0 1 .207-.1v-.102h-.862v.102c.114.004.192.026.236.066.046.04.07.095.07.163 0 .108-.055.301-.163.579l-.3.78-.442-1.01c-.092-.205-.137-.343-.137-.413 0-.044.018-.081.055-.113.036-.03.1-.048.19-.052v-.102zm5.305 0v.102c.103 0 .177.024.221.072.046.046.069.153.069.322v1.54c0 .18-.02.299-.06.354-.041.055-.118.083-.23.085v.102h1.312v-.102c-.1 0-.168-.026-.2-.077-.034-.051-.05-.162-.05-.33v-1.894h.738v1.912a.824.824 0 0 1-.039.298c-.025.06-.095.091-.209.091v.102h1.312v-.102c-.114-.004-.19-.032-.231-.085-.04-.054-.061-.161-.061-.323v-1.535c0-.17.018-.28.055-.33.037-.054.116-.087.237-.1v-.102zm5.758 0v.102c.118.006.195.037.232.094.038.057.058.161.058.314v1.596a.63.63 0 0 1-.05.264c-.031.07-.111.105-.24.105v.102h4.374v-.102c-.097 0-.17-.024-.22-.072-.048-.048-.072-.147-.072-.297v-1.574c0-.178.02-.293.06-.345.041-.053.118-.081.232-.085v-.102h-1.301v.102c.097.017.16.053.19.11.031.057.047.164.047.32v1.612c0 .11-.016.182-.05.215-.03.031-.093.047-.187.047h-.262c-.097 0-.162-.016-.193-.05s-.046-.109-.046-.223v-1.601c0-.158.015-.266.046-.322.033-.057.098-.093.193-.108v-.102h-1.254v.102c.098.017.162.054.193.113.033.059.05.17.05.336v1.582c0 .113-.018.186-.053.22-.033.035-.096.053-.19.053h-.28c-.085 0-.143-.018-.172-.055-.03-.039-.044-.111-.044-.218v-1.623c0-.144.017-.244.05-.3.035-.058.097-.093.187-.108v-.102zm4.76 0v.102c.108 0 .184.027.226.08.042.052.063.158.063.32v1.582c0 .152-.022.256-.066.31-.042.054-.117.081-.223.081v.102h1.312v-.102c-.092 0-.157-.024-.196-.072-.037-.05-.055-.156-.055-.32v-.755h.739v.775c0 .164-.019.266-.056.309-.036.04-.1.061-.192.063v.102h1.308v-.102c-.108-.004-.183-.03-.225-.077-.043-.048-.064-.152-.064-.314v-1.64c0-.123.021-.21.064-.262.044-.053.119-.08.225-.08v-.102h-1.308v.102c.11 0 .179.03.206.091a.705.705 0 0 1 .042.281v.68h-.739v-.68c0-.156.018-.256.055-.3.038-.044.104-.068.196-.072v-.102zm6.074 0v.102c.193 0 .29.129.29.386v1.59c0 .147-.022.25-.067.309-.044.058-.118.088-.223.088v.102h1.312v-.102c-.165-.006-.249-.129-.25-.37l.738-1.261v1.262c0 .246-.083.37-.248.37v.1h1.312v-.1c-.109 0-.185-.027-.229-.078-.042-.051-.063-.153-.063-.306v-1.64c0-.136.024-.228.071-.275.048-.048.121-.073.22-.075v-.102h-1.311v.102c.086 0 .148.027.187.08.039.054.06.148.061.284l-.739 1.279v-1.257c0-.15.018-.252.053-.303.037-.052.103-.08.198-.083v-.102zm9.76 0v.102c.117.006.194.037.23.094.04.057.059.161.059.314v1.593a.636.636 0 0 1-.05.267c-.031.07-.111.105-.24.105v.102h3.369c.306 0 .528.058.664.173.137.116.217.284.237.505h.104v-.78c-.105 0-.18-.027-.226-.08-.044-.053-.066-.158-.066-.314v-1.549c0-.178.02-.293.06-.345.041-.053.118-.081.232-.085v-.102h-1.3v.102c.097.017.16.053.19.11s.047.164.047.32v1.612c0 .11-.017.182-.05.215-.031.031-.094.047-.187.047h-.262c-.098 0-.162-.016-.193-.05s-.047-.109-.047-.223v-1.601c0-.158.016-.266.047-.323.033-.057.097-.092.193-.107v-.102h-1.254v.102c.097.016.161.054.193.113.033.059.05.17.05.336v1.582c0 .112-.018.186-.053.22-.033.035-.097.053-.19.053h-.281c-.085 0-.142-.018-.171-.055-.03-.039-.044-.111-.044-.218v-1.623c0-.144.016-.244.05-.3.034-.058.096-.093.186-.108v-.102zm4.76 0v.102c.192 0 .289.129.289.386v1.59c0 .147-.022.25-.067.309-.044.058-.118.088-.223.088v.102h1.312v-.102c-.165-.006-.249-.129-.25-.37l.738-1.261v1.262c0 .246-.083.37-.248.37v.1h1.312v-.1c-.109 0-.185-.027-.229-.078-.042-.051-.063-.153-.063-.306v-1.64c0-.136.024-.228.071-.275.048-.048.121-.073.22-.075v-.102h-1.311v.102c.086 0 .148.027.187.08.039.054.06.148.061.284l-.739 1.279v-1.257c0-.15.018-.252.053-.303.036-.052.103-.08.198-.083v-.102zm3.16 0v.673h.103c.04-.204.095-.339.165-.403s.194-.096.375-.096h.256v1.877c0 .169-.021.282-.064.339-.04.057-.115.085-.226.085v.102h1.35v-.102c-.11-.002-.185-.03-.228-.083-.04-.053-.06-.167-.06-.341v-1.877h.261c.195 0 .325.037.389.113.064.073.113.202.146.386h.102v-.673zm5.614 0v.102c.193 0 .29.129.29.386v1.59c0 .147-.022.25-.066.309-.045.058-.119.088-.224.088v.102h1.312v-.102c-.165-.006-.248-.129-.25-.37l.738-1.261v1.262c0 .246-.083.37-.248.37v.1h1.312v-.1c-.108 0-.185-.027-.229-.078-.042-.051-.063-.153-.063-.306v-1.64c0-.136.024-.228.071-.275.048-.048.122-.073.221-.075v-.102h-1.312v.102c.086 0 .15.027.188.08.038.054.058.148.06.284l-.738 1.279v-1.257c0-.15.017-.252.052-.303.037-.052.103-.08.198-.083v-.102zm-55.57.102a.23.23 0 0 1 .154.05.49.49 0 0 1 .149.25c.033.11.05.314.05.61h-.75v-.097c0-.285.054-.509.162-.672.061-.094.139-.14.235-.14zm20.086 0c.065 0 .116.017.154.05a.49.49 0 0 1 .149.25c.033.11.05.314.05.61h-.75v-.097c0-.285.054-.509.163-.672.06-.094.139-.14.234-.14zm-43.02.017c.078 0 .14.019.188.057.068.054.12.14.154.257.035.116.052.33.052.642 0 .531-.018.884-.054 1.058a.462.462 0 0 1-.144.262.312.312 0 0 1-.207.07.307.307 0 0 1-.226-.103.533.533 0 0 1-.13-.298 3.708 3.708 0 0 1-.037-.55c0-.372.01-.661.03-.869.022-.21.066-.35.132-.419a.324.324 0 0 1 .243-.107zm53.612 0c.077 0 .14.019.187.057.068.054.12.14.154.257.035.116.053.33.053.642 0 .531-.018.884-.055 1.058a.462.462 0 0 1-.144.262.312.312 0 0 1-.207.07.307.307 0 0 1-.225-.103.533.533 0 0 1-.13-.298 3.708 3.708 0 0 1-.038-.55c0-.372.01-.661.03-.869.022-.21.066-.35.132-.419a.324.324 0 0 1 .243-.107zm23.294 0c.077 0 .14.019.188.057.068.054.119.14.154.257.034.116.052.33.052.642 0 .531-.018.884-.055 1.058a.462.462 0 0 1-.143.262.312.312 0 0 1-.207.07.308.308 0 0 1-.226-.103.533.533 0 0 1-.13-.298 3.705 3.705 0 0 1-.038-.55c0-.372.01-.661.03-.869.022-.21.066-.35.133-.419a.323.323 0 0 1 .242-.107zm-72.407.055h.68v1.904c0 .219-.089.328-.267.328h-.85c.291-.426.437-1.035.437-1.827zm9.19 0c.438.006.657.168.657.488 0 .312-.219.475-.656.488zm6.373 0c.073 0 .164.012.273.038v1.034a1.847 1.847 0 0 1-.089.003c-.218 0-.382-.052-.493-.155a.554.554 0 0 1-.165-.422c0-.143.04-.261.118-.355.081-.096.2-.143.356-.143zm-11.983.085a.32.32 0 0 1 .28.163c.106.163.158.467.158.912 0 .434-.048.728-.144.882-.064.105-.145.157-.245.157-.18 0-.35-.112-.507-.336v-1.375c.12-.269.272-.403.458-.403zm3.109.874v.862c-.122.103-.228.155-.32.155a.25.25 0 0 1-.193-.074.316.316 0 0 1-.091-.224.51.51 0 0 1 .107-.3 1.61 1.61 0 0 1 .497-.419zm52.376 0v.862c-.122.103-.228.155-.32.155a.25.25 0 0 1-.193-.074.316.316 0 0 1-.09-.224.51.51 0 0 1 .107-.3 1.61 1.61 0 0 1 .496-.419zm-49.874.19c.277 0 .476.04.595.121.121.08.182.21.182.386a.56.56 0 0 1-.162.414.537.537 0 0 1-.395.162c-.092 0-.151-.017-.179-.052-.028-.037-.041-.098-.041-.185zm4.005 4.487a.811.811 0 0 1-.34.082c-.034 0-.093-.003-.176-.008a2.785 2.785 0 0 0-.17-.005c-.414 0-.725.08-.932.24-.206.16-.368.42-.486.783-.117.36-.176.753-.176 1.18 0 .55.108.96.323 1.229.215.266.512.4.89.4.39 0 .687-.134.893-.4.208-.269.311-.59.311-.962 0-.416-.117-.747-.352-.995a1.136 1.136 0 0 0-.86-.375c-.421 0-.75.225-.987.675.027-.393.13-.675.309-.846a.86.86 0 0 1 .617-.259c.042 0 .102.003.18.008.085.007.148.011.187.011.26 0 .465-.092.612-.275.148-.184.232-.345.25-.483zm36.754 0a.811.811 0 0 1-.339.082c-.034 0-.093-.003-.176-.008a2.801 2.801 0 0 0-.17-.005c-.414 0-.725.08-.932.24-.206.16-.368.42-.485.783-.118.36-.177.753-.177 1.18 0 .55.108.96.323 1.229.214.266.511.4.89.4.39 0 .687-.134.893-.4.207-.269.311-.59.311-.962 0-.416-.117-.747-.352-.995a1.136 1.136 0 0 0-.86-.375c-.421 0-.75.225-.987.675.028-.393.13-.675.309-.846a.861.861 0 0 1 .617-.259c.042 0 .102.003.179.008.086.007.149.011.188.011.26 0 .464-.092.611-.275.15-.184.233-.345.251-.483zm11.138 0a.442.442 0 0 0-.33.13.467.467 0 0 0-.128.341c0 .156.043.415.13.775l.143.6c.072.298.114.552.127.761h.121a5.02 5.02 0 0 1 .113-.76l.146-.601c.092-.383.138-.644.138-.783a.443.443 0 0 0-.132-.331.44.44 0 0 0-.328-.132zm-23.336.069a.234.234 0 0 0-.17.071.265.265 0 0 0-.073.196c0 .156.09.28.268.372.18.092.417.138.711.138.29 0 .52-.046.686-.138.168-.092.251-.216.251-.372a.26.26 0 0 0-.072-.196.236.236 0 0 0-.173-.071c-.146 0-.256.119-.331.356a.473.473 0 0 1-.108.2c-.042.041-.138.061-.289.061-.112 0-.195-.02-.25-.06a.412.412 0 0 1-.127-.215c-.07-.228-.178-.342-.323-.342zm-28.374 1.1c-.202 0-.397.031-.584.096a.987.987 0 0 0-.438.278.567.567 0 0 0-.157.378.32.32 0 0 0 .115.245c.08.07.177.105.293.105a.365.365 0 0 0 .261-.094.308.308 0 0 0 .103-.231c0-.074-.036-.15-.105-.229-.052-.057-.077-.105-.077-.143 0-.044.023-.083.071-.116a.508.508 0 0 1 .295-.08c.074 0 .14.02.198.058.06.037.099.08.119.132.022.05.033.172.033.367v.259c-.568.26-.936.47-1.105.628-.169.157-.254.333-.254.53a.494.494 0 0 0 .513.506c.25 0 .532-.138.846-.416.018.14.07.245.152.315a.526.526 0 0 0 .344.101.62.62 0 0 0 .334-.09c.099-.063.194-.162.286-.298l-.083-.066c-.05.068-.098.102-.145.102a.099.099 0 0 1-.064-.022.131.131 0 0 1-.041-.066 1.07 1.07 0 0 1-.014-.223v-1c0-.278-.013-.456-.038-.533a.72.72 0 0 0-.279-.336c-.141-.105-.334-.157-.579-.157zm5.488 0c-.373 0-.667.138-.882.413-.213.274-.32.595-.32.964 0 .359.105.674.314.946.21.272.508.408.896.408.395 0 .705-.149.929-.447.185-.246.278-.552.278-.917 0-.254-.05-.488-.152-.7a1.101 1.101 0 0 0-.438-.494 1.193 1.193 0 0 0-.625-.173zm3.318 0a.793.793 0 0 0-.438.129.986.986 0 0 0-.276.287v-.34h-1.08v.102c.121.007.203.037.245.089.043.05.063.165.063.347v2.72c0 .177-.018.286-.055.329-.055.06-.14.092-.253.096v.102h1.469v-.102a.668.668 0 0 1-.26-.033.21.21 0 0 1-.099-.105.802.802 0 0 1-.03-.27v-.96c.101.117.198.198.29.246a.864.864 0 0 0 .396.094.893.893 0 0 0 .53-.168c.16-.114.28-.279.363-.494.085-.217.127-.456.127-.716 0-.243-.04-.469-.121-.678-.081-.212-.2-.377-.356-.497a.821.821 0 0 0-.515-.178zm2.726 0c-.202 0-.397.031-.585.096a.987.987 0 0 0-.438.278.567.567 0 0 0-.157.378.32.32 0 0 0 .116.245c.079.07.176.105.292.105a.366.366 0 0 0 .262-.094.307.307 0 0 0 .102-.231c0-.074-.035-.15-.105-.229-.051-.057-.077-.105-.077-.143 0-.044.024-.083.072-.116a.508.508 0 0 1 .295-.08c.073 0 .14.02.198.058.059.037.098.08.118.132.022.05.034.172.034.367v.259c-.568.26-.937.47-1.106.628-.169.157-.253.333-.253.53a.493.493 0 0 0 .513.506c.25 0 .531-.138.846-.416.018.14.068.245.15.315a.528.528 0 0 0 .346.101c.125 0 .236-.03.333-.09.1-.063.195-.162.287-.298l-.083-.066c-.05.068-.098.102-.146.102a.097.097 0 0 1-.063-.022.131.131 0 0 1-.042-.066 1.07 1.07 0 0 1-.013-.223v-1c0-.278-.013-.456-.04-.533a.72.72 0 0 0-.277-.336c-.142-.105-.335-.157-.579-.157zm5.3 0c-.373 0-.667.138-.882.413-.213.274-.32.595-.32.964 0 .359.105.674.314.946.21.272.508.408.896.408.395 0 .705-.149.929-.447.185-.246.278-.552.278-.917 0-.254-.05-.488-.152-.7a1.101 1.101 0 0 0-.438-.494 1.193 1.193 0 0 0-.625-.173zm3.318 0a.793.793 0 0 0-.438.129.986.986 0 0 0-.276.287v-.34h-1.08v.102c.121.007.203.037.245.089.043.05.063.165.063.347v2.72c0 .177-.018.286-.055.329-.055.06-.14.092-.253.096v.102h1.469v-.102a.668.668 0 0 1-.26-.033.21.21 0 0 1-.099-.105.802.802 0 0 1-.03-.27v-.96c.101.117.198.198.29.246a.864.864 0 0 0 .397.094.893.893 0 0 0 .529-.168c.16-.114.28-.279.363-.494.085-.217.127-.456.127-.716 0-.243-.04-.469-.121-.678-.081-.212-.2-.377-.356-.497a.821.821 0 0 0-.515-.178zm5.898 0c-.373 0-.667.138-.882.413-.213.274-.32.595-.32.964 0 .359.105.674.315.946.209.272.507.408.895.408.395 0 .705-.149.93-.447.185-.246.277-.552.277-.917 0-.254-.05-.488-.151-.7a1.101 1.101 0 0 0-.438-.494 1.195 1.195 0 0 0-.626-.173zm7.982 0a.793.793 0 0 0-.438.129.987.987 0 0 0-.276.287v-.34h-1.08v.102c.12.007.202.037.244.089.043.05.064.165.064.347v2.72c0 .177-.018.286-.055.329-.055.06-.14.092-.253.096v.102h1.468v-.102a.665.665 0 0 1-.259-.033.21.21 0 0 1-.099-.105.798.798 0 0 1-.03-.27v-.96c.1.117.197.198.289.246a.864.864 0 0 0 .397.094.893.893 0 0 0 .529-.168c.16-.114.281-.279.364-.494.084-.217.127-.456.127-.716 0-.243-.04-.469-.121-.678-.081-.212-.2-.377-.356-.497a.821.821 0 0 0-.515-.178zm2.725 0c-.202 0-.396.031-.584.096a.987.987 0 0 0-.438.278.567.567 0 0 0-.157.378.32.32 0 0 0 .116.245c.079.07.176.105.292.105a.366.366 0 0 0 .262-.094.307.307 0 0 0 .101-.231c0-.074-.035-.15-.104-.229-.052-.057-.077-.105-.077-.143 0-.044.024-.083.071-.116a.507.507 0 0 1 .295-.08c.073 0 .14.02.198.058a.28.28 0 0 1 .12.132c.021.05.032.172.032.367v.259c-.567.26-.936.47-1.105.628-.17.157-.254.333-.254.53a.494.494 0 0 0 .513.506c.25 0 .532-.138.846-.416.019.14.069.245.152.315a.528.528 0 0 0 .344.101c.125 0 .236-.03.334-.09.099-.063.195-.162.286-.298l-.082-.066c-.05.068-.099.102-.146.102a.099.099 0 0 1-.064-.022.131.131 0 0 1-.041-.066 1.083 1.083 0 0 1-.014-.223v-1c0-.278-.013-.456-.039-.533a.721.721 0 0 0-.278-.336c-.142-.105-.335-.157-.579-.157zm5.488 0c-.373 0-.667.138-.882.413-.214.274-.32.595-.32.964 0 .359.105.674.314.946.21.272.508.408.896.408.395 0 .704-.149.929-.447.185-.246.278-.552.278-.917 0-.254-.05-.488-.151-.7a1.101 1.101 0 0 0-.439-.494 1.195 1.195 0 0 0-.625-.173zm-46.203.077v.101c.112.006.191.04.237.103.046.062.069.178.069.347v.75c0 .411-.022.684-.066.818-.044.134-.107.201-.188.201-.042 0-.063-.054-.063-.162 0-.24-.098-.358-.295-.358a.33.33 0 0 0-.254.107.387.387 0 0 0-.096.273c0 .116.044.218.132.308.09.089.209.133.356.133a.623.623 0 0 0 .604-.48c.04-.154.06-.435.06-.84v-1.128h.728v1.943c0 .151-.03.248-.091.292a.39.39 0 0 1-.226.066v.103h1.364v-.103c-.106-.004-.18-.034-.218-.09a.518.518 0 0 1-.058-.278v-1.657c0-.228.092-.344.276-.347v-.102zm16.787 0v.672h.102c.04-.204.096-.338.166-.402s.194-.097.374-.097h.257v1.877c0 .17-.022.282-.064.34-.04.056-.116.085-.226.085v.102h1.35v-.102c-.11-.002-.186-.03-.228-.083-.04-.053-.061-.167-.061-.342v-1.877h.262c.195 0 .324.038.389.114.064.073.113.201.146.385h.102v-.672zm8.756 0v.101c.108 0 .184.027.226.08.043.052.063.159.063.32v1.582c0 .153-.022.257-.066.312-.042.053-.116.08-.223.08v.102h1.312v-.103c-.092 0-.157-.023-.196-.07-.037-.05-.055-.157-.055-.32v-.756h.739v.774c0 .164-.019.267-.055.31-.037.04-.101.06-.193.063v.102h1.309v-.102c-.109-.004-.184-.03-.226-.077-.042-.048-.064-.153-.064-.315v-1.64c0-.122.022-.21.064-.261.044-.054.12-.08.226-.08v-.102h-1.31v.102c.111 0 .18.03.207.09a.705.705 0 0 1 .042.282v.68h-.739v-.68c0-.157.018-.257.055-.3.039-.045.104-.069.196-.072v-.102zm6.075 0v.101c.192 0 .289.13.289.387v1.59c0 .147-.022.25-.066.309-.044.058-.119.088-.223.088v.102h1.312v-.102c-.166-.006-.25-.129-.252-.37l.74-1.262v1.263c0 .246-.083.369-.249.369v.102h1.312v-.102c-.108 0-.184-.026-.228-.077-.043-.052-.064-.154-.064-.306v-1.64c0-.136.024-.228.072-.276.048-.048.12-.073.22-.074v-.102h-1.312v.102c.087 0 .149.026.187.08.039.053.06.147.061.283l-.739 1.28v-1.257c0-.151.018-.252.053-.304.037-.051.103-.079.199-.082v-.102zm16.026 0v.672h.102c.04-.204.096-.338.166-.402s.194-.097.374-.097h.257v1.877c0 .17-.022.282-.064.34-.04.056-.116.085-.226.085v.102h1.35v-.102c-.11-.002-.186-.03-.228-.083-.04-.053-.06-.167-.06-.342v-1.877h.261c.195 0 .324.038.389.114.064.073.113.201.146.385h.102v-.672zm2.891 0v.101c.103.017.174.053.213.108.04.055.06.153.06.292v1.557c0 .151-.02.255-.058.312-.037.055-.108.09-.215.104v.103h1.398c.396 0 .696-.064.898-.19.202-.127.303-.297.303-.51 0-.226-.114-.403-.342-.53-.227-.128-.566-.192-1.014-.192h-.198v-.615c0-.156.017-.264.052-.323.037-.06.11-.099.22-.116v-.101zm2.66 0v.101c.103.01.175.043.215.1.04.057.06.149.06.276v1.617c0 .136-.022.232-.066.287-.042.055-.112.086-.209.093v.103h1.326v-.103c-.103-.007-.176-.04-.218-.099a.515.515 0 0 1-.061-.28v-1.618c0-.237.093-.363.279-.376v-.101zm-46.487.115c.163 0 .27.081.322.243.052.16.078.382.078.667 0 .452-.01.765-.03.94-.019.175-.061.301-.127.38a.295.295 0 0 1-.237.119c-.155 0-.26-.075-.317-.224-.057-.15-.086-.462-.086-.937 0-.426.027-.73.08-.912.055-.184.16-.276.317-.276zm36.755 0c.164 0 .271.081.323.243.051.16.077.382.077.667 0 .452-.01.765-.03.94-.02.175-.061.301-.127.38a.295.295 0 0 1-.238.119c-.154 0-.26-.075-.316-.224-.057-.15-.086-.462-.086-.937 0-.426.027-.73.08-.912.055-.184.161-.276.317-.276zm-34.004.003c.077 0 .14.02.187.058.068.054.12.14.154.257.035.115.053.33.053.642 0 .531-.019.884-.055 1.058a.464.464 0 0 1-.143.262.312.312 0 0 1-.207.069.308.308 0 0 1-.227-.102.533.533 0 0 1-.129-.297 3.713 3.713 0 0 1-.039-.552c0-.371.01-.66.031-.868.022-.21.066-.35.132-.42a.323.323 0 0 1 .243-.107zm11.344 0c.077 0 .14.02.187.058.068.054.12.14.154.257.035.115.053.33.053.642 0 .531-.019.884-.055 1.058a.464.464 0 0 1-.143.262.312.312 0 0 1-.207.069.308.308 0 0 1-.227-.102.533.533 0 0 1-.129-.297 3.713 3.713 0 0 1-.039-.552c0-.371.01-.66.031-.868.022-.21.066-.35.132-.42a.323.323 0 0 1 .243-.107zm9.216 0c.077 0 .14.02.187.058.068.054.12.14.155.257.035.115.052.33.052.642 0 .531-.018.884-.055 1.058a.464.464 0 0 1-.144.262.312.312 0 0 1-.206.069.307.307 0 0 1-.226-.102.533.533 0 0 1-.13-.297 3.715 3.715 0 0 1-.038-.552c0-.371.01-.66.03-.868.022-.21.066-.35.132-.42a.324.324 0 0 1 .243-.107zm16.195 0c.077 0 .14.02.187.058.068.054.12.14.155.257.035.115.052.33.052.642 0 .531-.019.884-.055 1.058a.463.463 0 0 1-.144.262.312.312 0 0 1-.206.069.307.307 0 0 1-.226-.102.533.533 0 0 1-.13-.297 3.713 3.713 0 0 1-.039-.552c0-.371.01-.66.03-.868.023-.21.067-.35.133-.42a.323.323 0 0 1 .243-.107zm-33.704.141a.32.32 0 0 1 .28.163c.105.163.158.467.158.912 0 .434-.048.728-.143.882-.065.105-.147.157-.246.157-.18 0-.349-.112-.507-.336v-1.375c.12-.269.272-.403.458-.403zm11.344 0a.32.32 0 0 1 .28.163c.106.163.158.467.158.912 0 .434-.048.728-.143.882-.065.105-.147.157-.246.157-.18 0-.349-.112-.507-.336v-1.375c.12-.269.272-.403.458-.403zm13.88 0a.32.32 0 0 1 .28.163c.105.163.158.467.158.912 0 .434-.048.728-.144.882-.064.105-.146.157-.245.157-.18 0-.35-.112-.507-.336v-1.375c.119-.269.272-.403.457-.403zm-33.647.874v.862c-.121.103-.228.155-.32.155a.25.25 0 0 1-.193-.075.316.316 0 0 1-.09-.223.51.51 0 0 1 .107-.3 1.61 1.61 0 0 1 .496-.42zm11.531 0v.862c-.12.103-.228.155-.32.155a.25.25 0 0 1-.192-.075.316.316 0 0 1-.091-.223.51.51 0 0 1 .107-.3 1.61 1.61 0 0 1 .497-.42zm25.224 0v.862c-.121.103-.228.155-.32.155a.25.25 0 0 1-.192-.075.316.316 0 0 1-.091-.223.51.51 0 0 1 .107-.3 1.61 1.61 0 0 1 .496-.42zm10.738.196c.496 0 .744.177.744.531a.52.52 0 0 1-.532.546.258.258 0 0 1-.151-.044c-.04-.03-.061-.106-.061-.231zm4.095.427a.427.427 0 0 0-.317.132.437.437 0 0 0-.129.317c0 .123.043.229.13.317.087.086.193.13.316.13a.428.428 0 0 0 .315-.13.432.432 0 0 0 .132-.317.427.427 0 0 0-.132-.317.423.423 0 0 0-.315-.132z" font-weight="700" font-size="21.333" font-family="Times New Roman" letter-spacing="0" word-spacing="0" text-anchor="middle"/><path d="M191.217 181.961c-1.08-.21-1.892-.822-2.504-1.891l-.49-.857-.003-24.618c-.004-26.91-.072-25.489 1.29-26.634 1.12-.943 3.733-1.408 4.364-.777.16.16.263.94.263 1.99 0 1.617.04 1.768.64 2.368l.642.641h13.077c8.55 0 13.223-.078 13.498-.226.738-.394 1.084-1.398 1.084-3.138 0-1.83.064-1.905 1.608-1.888 1.09.011 2.413.451 3.042 1.01.25.223.636.8.858 1.282.383.834.403 2.07.408 25.292.005 23.398-.013 24.455-.407 25.345-.617 1.397-1.5 1.912-3.618 2.115-2.256.216-32.628.203-33.752-.014zm34.98-2.809l.499-.5V136.8l-.5-.5-.5-.5h-34.229l-.535.623-.535.622.02 5.383c-.243 8.01.005 16.28.002 23.023-.01 13.557-.018 13.466 1.09 14.031.427.218 4.148.266 17.365.224l16.822-.054.5-.5zm-30.925-4.048l.07-.495h12.936c12.79 0 12.936.004 12.936.438 0 .433-.165.44-13.006.496l-13.007.056zm0-6.578l.07-.495h12.936c12.79 0 12.936.004 12.936.439 0 .433-.165.439-13.006.495l-13.007.057zm.035-6.428c-.073-.19-.04-.438.073-.551.126-.126 5.226-.184 13.02-.15 12.65.056 12.814.062 12.814.495s-.165.44-12.887.495c-11.56.051-12.901.021-13.02-.289zm0-6.577c-.073-.19-.04-.438.073-.552.126-.125 5.226-.184 13.02-.15 12.65.056 12.814.063 12.814.496 0 .432-.165.439-12.887.495-11.56.05-12.901.02-13.02-.29zm.073-6.38c-.081-.082-.148-.33-.148-.552 0-.388.5-.402 12.991-.347 12.826.056 12.991.062 12.991.495s-.165.44-12.843.495c-7.063.031-12.91-.01-12.99-.091zm0-6.578c-.081-.082-.148-.33-.148-.552 0-.388.5-.401 12.991-.347 12.826.056 12.991.062 12.991.495s-.165.44-12.843.495c-7.063.031-12.91-.01-12.99-.091zm-5.696 8.535c2.467-126.257 1.233-63.129 0 0zm6.097-19.338c-1.235-.515-1.772-2.52-1.221-4.564.323-1.202.81-1.456 3.042-1.59l1.821-.11.526-1.296c1.254-3.092 4.507-4.953 8.658-4.953 4.186 0 7.57 1.983 8.738 5.121l.42 1.128 1.505.056c3.063.113 3.37.407 3.37 3.236 0 1.87-.038 2.039-.566 2.535l-.566.531-12.644.045c-6.955.024-12.842-.038-13.083-.139zm13.458-6.617c1.394-.486 1.695-2.344.528-3.262-.813-.64-1.726-.566-2.492.2-1.196 1.195-.686 2.547 1.244 3.297.013.004.336-.101.72-.235z" fill="#333945"/><path d="M218.946 183.52c-.263-.22-2.836-3.224-5.717-6.673-4.015-4.805-5.24-6.383-5.238-6.754.002-.475 3.72-6.535 4.472-7.288.345-.345.358-.333 1.155 1.157.444.828 1.757 3.37 2.918 5.648 2.19 4.3 2.495 4.79 2.792 4.493.095-.095.666-1.265 1.268-2.598 4.915-10.894 11.197-19.753 16.69-23.536.904-.623.974-.641 1.54-.409 1.472.605 7.28 4.88 7.077 5.209-.056.092-.938.814-1.96 1.604-6.015 4.66-13.005 12.86-20.815 24.423-1.606 2.377-3.096 4.503-3.312 4.724l-.391.402z" fill="#92b92b" stroke="#92b92b" stroke-width=".385" stroke-linejoin="round"/><path fill="#fff" d="M197.6 101.836h42.333v11.113H197.6z"/><path style="line-height:1.25;-inkscape-font-specification:'Times New Roman, Bold';font-variant-ligatures:normal;font-variant-caps:normal;font-variant-numeric:normal;font-feature-settings:normal;text-align:center" d="M218.126 102.428a.466.466 0 0 0-.342.144.528.528 0 0 0-.143.391c0 .312.178.56.535.744.36.184.834.276 1.422.276.58 0 1.038-.092 1.372-.276.335-.184.502-.432.502-.744 0-.169-.048-.3-.143-.391a.473.473 0 0 0-.347-.144c-.29 0-.511.237-.662.711-.059.188-.13.322-.215.403-.084.08-.277.121-.579.121-.224 0-.391-.04-.501-.121-.107-.081-.192-.224-.254-.43-.14-.456-.355-.684-.645-.684zm-9.944 2.2c-.316 0-.608.086-.876.259-.187.118-.371.308-.551.573v-.678h-2.161v.204c.243.015.406.073.49.176.085.1.127.331.127.695v5.44c0 .353-.037.572-.11.656-.11.121-.28.186-.507.193v.204h2.938v-.204c-.257 0-.43-.022-.519-.066a.425.425 0 0 1-.198-.21c-.04-.095-.06-.275-.06-.54v-1.918c.202.232.395.395.578.49.247.126.511.188.794.188.39 0 .742-.112 1.058-.336.32-.228.563-.557.728-.987.169-.433.254-.91.254-1.433 0-.485-.081-.937-.243-1.356-.162-.422-.399-.753-.711-.992a1.643 1.643 0 0 0-1.03-.358zm5.292 0c-.746 0-1.334.275-1.764.826-.426.548-.64 1.191-.64 1.93 0 .717.21 1.346.629 1.89.419.544 1.016.816 1.792.816.79 0 1.409-.297 1.857-.893.371-.492.557-1.104.557-1.835 0-.507-.101-.974-.303-1.4a2.206 2.206 0 0 0-.877-.987 2.388 2.388 0 0 0-1.25-.347zm17.815 0c-.625 0-1.17.255-1.637.766-.463.507-.695 1.19-.695 2.05 0 .702.159 1.29.475 1.764.393.588.972.882 1.736.882.445 0 .836-.117 1.174-.353.338-.239.647-.642.926-1.212l-.187-.121c-.206.32-.4.542-.58.667-.18.121-.38.182-.6.182-.357 0-.661-.153-.915-.458-.33-.397-.512-.937-.546-1.62h2.828c-.03-.842-.237-1.476-.623-1.903-.382-.43-.834-.644-1.356-.644zm-33.028.154v.204c.205 0 .352.048.44.143.092.092.138.307.138.645v3.082c0 .36-.04.595-.121.705-.08.11-.233.167-.457.171v.204h2.623v-.204c-.202 0-.336-.051-.402-.154-.067-.103-.1-.324-.1-.662v-3.787h1.478v3.826c0 .276-.026.474-.077.595-.052.122-.191.182-.42.182v.204h2.624v-.204c-.228-.007-.382-.064-.463-.17-.08-.107-.12-.322-.12-.646v-3.07c0-.338.036-.558.11-.661.073-.107.23-.173.473-.199v-.204zm18.432 0v.204c.386 0 .579.257.579.772v3.18c0 .294-.044.5-.133.617-.088.118-.237.177-.446.177v.204h2.624v-.204c-.331-.01-.498-.257-.502-.739l1.477-2.524v2.524c0 .493-.165.74-.496.74v.203h2.624v-.204c-.217 0-.37-.051-.458-.154-.084-.103-.126-.307-.126-.612v-3.28c0-.272.047-.455.143-.551.095-.095.243-.145.441-.149v-.204h-2.624v.204c.173 0 .298.053.375.16.078.106.118.296.121.568l-1.477 2.557v-2.513c0-.302.035-.504.105-.606.073-.103.206-.158.397-.166v-.204zm6.94 0v.204c.198.004.334.027.408.071.077.045.136.137.176.276.04.136.06.34.06.612 0 .9-.13 1.747-.39 2.541-.258.794-.616 1.21-1.075 1.246v1.56h.204c.106-.904.67-1.356 1.692-1.356h1.493c1.059 0 1.63.452 1.715 1.356h.204v-1.56c-.199-.007-.344-.055-.436-.144-.088-.091-.132-.286-.132-.583v-3.336c0-.205.033-.37.099-.496.07-.125.226-.187.469-.187v-.204zm10.28 0v.204c.217 0 .367.053.452.16.084.103.127.316.127.64v3.163c0 .305-.044.513-.132.623-.085.107-.234.16-.447.16v.204h2.624v-.204c-.184 0-.314-.048-.391-.144-.074-.099-.111-.312-.111-.639v-1.51h1.477v1.549c0 .327-.036.533-.11.617-.073.08-.202.123-.386.127v.204h2.619v-.204c-.217-.007-.368-.059-.452-.154-.085-.096-.127-.305-.127-.629v-3.28c0-.246.042-.42.127-.523.088-.107.239-.16.452-.16v-.204h-2.619v.204c.22 0 .359.06.414.182.055.118.082.305.082.562v1.361h-1.477v-1.36c0-.313.037-.513.11-.602.078-.088.208-.135.392-.143v-.204zm-2.707.204a.46.46 0 0 1 .31.1c.135.113.235.28.297.5.066.221.1.628.1 1.22h-1.5v-.194c0-.57.108-1.018.325-1.345.121-.187.277-.28.468-.28zm-17.71.033a.58.58 0 0 1 .375.116c.136.107.239.277.308.513.07.231.105.66.105 1.284 0 1.062-.037 1.767-.11 2.116a.925.925 0 0 1-.287.524.624.624 0 0 1-.413.138.616.616 0 0 1-.452-.204c-.132-.136-.219-.335-.259-.595a7.418 7.418 0 0 1-.078-1.103c0-.742.021-1.32.061-1.736.045-.419.133-.698.265-.838a.646.646 0 0 1 .485-.215zm11.157.11h1.36v3.81c0 .437-.177.655-.533.655h-1.699c.581-.852.872-2.07.872-3.654zm-16.983.171c.235 0 .422.109.562.325.21.327.314.936.314 1.825 0 .867-.096 1.455-.287 1.764-.128.21-.292.314-.49.314-.36 0-.698-.224-1.014-.672v-2.751c.238-.537.544-.805.915-.805z" font-weight="700" font-size="42.667" font-family="Times New Roman" letter-spacing="0" word-spacing="0" text-anchor="middle" fill="#92b92b"/></g></svg>