<svg xmlns="http://www.w3.org/2000/svg" width="405.012" height="446.867" viewBox="0 0 107.15935 118.2336"><g transform="translate(-155.567 -101.054)"><flowRoot xml:space="preserve" style="line-height:1.25" transform="translate(-83.87 -175.735)" font-style="normal" font-weight="400" font-size="192" font-family="sans-serif" letter-spacing="0" word-spacing="0" fill="#000" fill-opacity="1" stroke="none"><flowRegion font-size="192"><path d="M48.571 157.987h1002.857v384.286H48.571z"/></flowRegion><flowPara/></flowRoot><path style="line-height:1.25;-inkscape-font-specification:'Times New Roman, Bold';font-variant-ligatures:normal;font-variant-caps:normal;font-variant-numeric:normal;font-feature-settings:normal;text-align:center" d="M248.883 102.144a.884.884 0 0 0-.662.26c-.169.172-.253.4-.253.683 0 .312.086.828.26 1.548l.286 1.202c.143.595.227 1.102.253 1.521h.243c.048-.588.123-1.095.226-1.521l.292-1.202c.184-.764.276-1.286.276-1.565a.886.886 0 0 0-.265-.661.88.88 0 0 0-.656-.265zm-23.785.138a.468.468 0 0 0-.342.143.528.528 0 0 0-.143.391c0 .313.179.56.535.745.36.183.834.275 1.422.275.58 0 1.038-.092 1.373-.275.334-.184.5-.432.5-.745 0-.169-.047-.299-.142-.39a.473.473 0 0 0-.348-.144c-.29 0-.51.237-.661.71-.059.188-.13.322-.215.403-.084.081-.277.122-.579.122-.224 0-.391-.04-.502-.122-.106-.08-.19-.224-.253-.43-.14-.455-.354-.683-.645-.683zm-59.818.033v2.023h.21c.084-.551.287-.976.606-1.273.228-.214.593-.32 1.097-.32h.54v5.766c0 .375-.02.606-.06.694a.527.527 0 0 1-.226.265c-.133.077-.307.116-.524.116h-.248v.203h3.914v-.203h-.249c-.213 0-.382-.036-.506-.105a.604.604 0 0 1-.249-.254c-.04-.096-.06-.334-.06-.716v-5.766h.557c.349 0 .593.033.732.099a1.5 1.5 0 0 1 .59.49c.144.203.274.537.392 1.004h.198v-2.023zm9.481 2.166c-.624 0-1.17.256-1.637.766-.463.507-.694 1.191-.694 2.05 0 .703.158 1.29.474 1.765.393.588.972.882 1.736.882.445 0 .836-.118 1.174-.353.338-.24.647-.643.926-1.213l-.188-.121c-.205.32-.398.542-.578.667a1.05 1.05 0 0 1-.6.182c-.357 0-.662-.153-.916-.458-.33-.397-.513-.937-.546-1.62h2.828c-.03-.842-.237-1.476-.623-1.902-.382-.43-.834-.645-1.356-.645zm5.231 0c-.794 0-1.417.322-1.869.965-.374.533-.562 1.15-.562 1.852 0 .727.206 1.35.618 1.868.411.519.96.778 1.648.778.408 0 .792-.11 1.152-.331.364-.224.667-.564.91-1.02l-.171-.132c-.221.235-.412.395-.574.48a1.091 1.091 0 0 1-.512.126 1.13 1.13 0 0 1-.717-.237c-.268-.217-.48-.545-.634-.986a4.223 4.223 0 0 1-.232-1.395c0-.584.096-1.018.287-1.3.125-.188.276-.282.452-.282.114 0 .214.046.298.138.085.092.138.253.16.485.033.367.119.623.259.766a.733.733 0 0 0 .54.215.67.67 0 0 0 .496-.188.666.666 0 0 0 .193-.5c0-.332-.158-.631-.474-.9-.312-.268-.735-.402-1.268-.402zm19.794 0c-.625 0-1.17.256-1.637.766-.463.507-.694 1.191-.694 2.05 0 .703.158 1.29.474 1.765.393.588.972.882 1.736.882.445 0 .836-.118 1.174-.353.338-.24.647-.643.926-1.213l-.187-.121c-.206.32-.399.542-.579.667-.18.121-.38.182-.601.182-.356 0-.661-.153-.915-.458-.33-.397-.512-.937-.545-1.62h2.827c-.029-.842-.237-1.476-.623-1.902-.382-.43-.834-.645-1.356-.645zm15.368 0c-.316 0-.608.087-.876.26-.188.117-.372.308-.552.572v-.678h-2.16v.205c.242.014.406.073.49.176.085.099.127.33.127.694v5.44c0 .354-.037.572-.11.657-.11.12-.28.186-.507.193v.203h2.938V112c-.258 0-.43-.022-.518-.066a.425.425 0 0 1-.199-.21c-.04-.096-.06-.275-.06-.54v-1.918c.202.231.394.395.578.49.246.125.511.188.794.188.39 0 .742-.113 1.058-.337.32-.228.563-.556.728-.986.169-.434.254-.911.254-1.433 0-.485-.081-.937-.243-1.356-.161-.423-.398-.754-.71-.992a1.644 1.644 0 0 0-1.032-.359zm5.292 0c-.746 0-1.334.276-1.764.827-.426.547-.64 1.19-.64 1.93 0 .716.21 1.346.629 1.89.419.544 1.016.816 1.791.816.79 0 1.41-.298 1.858-.893.371-.493.557-1.105.557-1.836 0-.507-.101-.973-.304-1.4a2.206 2.206 0 0 0-.876-.987 2.388 2.388 0 0 0-1.251-.347zm17.815 0c-.624 0-1.17.256-1.637.766-.463.507-.694 1.191-.694 2.05 0 .703.158 1.29.474 1.765.393.588.972.882 1.736.882.445 0 .836-.118 1.174-.353.338-.24.647-.643.926-1.213l-.188-.121c-.205.32-.398.542-.578.667a1.05 1.05 0 0 1-.6.182c-.357 0-.662-.153-.916-.458-.33-.397-.513-.937-.546-1.62h2.828c-.03-.842-.237-1.476-.623-1.902-.382-.43-.834-.645-1.356-.645zm-55.92.154v1.346h.203c.081-.408.191-.677.331-.805.14-.13.39-.193.75-.193h.513v3.754c0 .338-.043.564-.128.678-.08.113-.23.17-.451.17v.204h2.7v-.203c-.22-.004-.372-.06-.457-.166-.08-.106-.121-.334-.121-.683v-3.754h.524c.39 0 .648.075.777.226.128.147.226.404.292.772h.204v-1.346zm8.56 0v.205c.217 0 .367.053.452.16.084.102.127.315.127.639v3.164c0 .305-.044.512-.133.622-.084.107-.233.16-.446.16v.204h2.624v-.203c-.184 0-.314-.049-.392-.144-.073-.1-.11-.312-.11-.64v-1.51h1.477v1.55c0 .326-.036.532-.11.616-.073.081-.202.124-.386.128v.203h2.619v-.203c-.217-.008-.368-.06-.453-.155-.084-.095-.126-.305-.126-.628v-3.28c0-.246.042-.42.126-.524.089-.106.24-.16.453-.16v-.204h-2.619v.205c.22 0 .358.06.414.182.055.117.082.305.082.562v1.36h-1.477v-1.36c0-.313.037-.513.11-.601.078-.088.208-.136.392-.143v-.205zm14.331 0v.205c.206 0 .353.047.441.143.092.092.138.307.138.645v3.081c0 .36-.04.595-.121.706-.081.11-.233.167-.458.17v.204h2.624v-.203c-.202 0-.336-.052-.402-.155-.066-.103-.1-.323-.1-.661v-3.787h1.478v3.825c0 .276-.026.474-.077.596-.052.12-.192.182-.42.182v.203h2.625v-.203c-.228-.008-.382-.065-.463-.171-.081-.107-.122-.322-.122-.645v-3.07c0-.339.037-.56.11-.662.074-.107.232-.173.475-.198v-.205zm18.433 0v.205c.386 0 .579.257.579.771v3.18c0 .295-.044.5-.133.618-.088.117-.237.177-.446.177v.203h2.624v-.203c-.33-.011-.498-.258-.502-.74l1.478-2.524v2.525c0 .492-.166.739-.496.739v.203h2.623v-.203c-.217 0-.369-.052-.457-.155-.085-.103-.127-.307-.127-.612v-3.28c0-.272.048-.455.143-.55.096-.096.243-.146.441-.15v-.204h-2.623v.205c.172 0 .297.053.374.16.077.106.118.295.122.567l-1.478 2.558v-2.514c0-.301.035-.503.105-.606.074-.103.206-.158.397-.165v-.205zm6.94 0v.205c.198.003.334.027.408.07.077.045.136.137.176.277.04.136.06.34.06.612 0 .9-.13 1.747-.39 2.54-.258.794-.616 1.21-1.076 1.247v1.56h.204c.107-.905.671-1.357 1.693-1.357h1.493c1.059 0 1.63.452 1.715 1.356h.204v-1.56c-.199-.007-.344-.055-.436-.143-.088-.092-.132-.286-.132-.584v-3.335c0-.206.033-.371.1-.496.07-.125.225-.187.468-.187v-.205zm10.28 0v.205c.217 0 .368.053.452.16.085.102.127.315.127.639v3.164c0 .305-.044.512-.133.622-.084.107-.233.16-.446.16v.204h2.624v-.203c-.184 0-.314-.049-.392-.144-.073-.1-.11-.312-.11-.64v-1.51h1.477v1.55c0 .326-.036.532-.11.616-.073.081-.202.124-.386.128v.203h2.619v-.203c-.217-.008-.368-.06-.453-.155-.084-.095-.126-.305-.126-.628v-3.28c0-.246.042-.42.126-.524.089-.106.24-.16.453-.16v-.204h-2.619v.205c.22 0 .358.06.414.182.055.117.082.305.082.562v1.36h-1.477v-1.36c0-.313.037-.513.11-.601.078-.088.208-.136.392-.143v-.205zm-66.206.205c.128 0 .231.033.308.099a.98.98 0 0 1 .298.501c.066.22.1.627.1 1.219h-1.5v-.194c0-.57.108-1.017.325-1.344.121-.188.278-.281.469-.281zm25.025 0c.128 0 .231.033.309.099a.98.98 0 0 1 .297.501c.066.22.1.627.1 1.219h-1.5v-.194c0-.57.109-1.017.325-1.344.122-.188.277-.281.469-.281zm38.475 0c.128 0 .231.033.308.099a.98.98 0 0 1 .298.501c.066.22.1.627.1 1.219h-1.5v-.194c0-.57.108-1.017.325-1.344.121-.188.278-.281.469-.281zm-17.71.033c.153 0 .278.038.374.115.136.107.238.278.308.513.07.232.105.66.105 1.284 0 1.062-.036 1.768-.11 2.117a.926.926 0 0 1-.287.523.624.624 0 0 1-.413.138.615.615 0 0 1-.452-.204c-.133-.136-.219-.334-.26-.595a7.414 7.414 0 0 1-.076-1.102c0-.743.02-1.321.06-1.737.044-.419.133-.698.265-.837a.647.647 0 0 1 .485-.215zm11.156.11h1.361v3.809c0 .437-.178.656-.535.656h-1.697c.58-.853.87-2.071.87-3.655zm-16.983.17c.235 0 .422.109.562.326.21.327.314.935.314 1.825 0 .867-.096 1.455-.287 1.763-.128.21-.292.314-.49.314-.36 0-.699-.224-1.015-.672v-2.75c.24-.537.544-.805.916-.805zm34.252 2.994a.853.853 0 0 0-.634.264.873.873 0 0 0-.259.634c0 .246.087.458.26.634a.874.874 0 0 0 .633.259.856.856 0 0 0 .629-.259.865.865 0 0 0 .264-.634c0-.25-.088-.46-.264-.634a.847.847 0 0 0-.629-.264z" font-weight="700" font-size="42.667" font-family="Times New Roman" letter-spacing="0" word-spacing="0" text-anchor="middle"/><path style="line-height:1.25;-inkscape-font-specification:'Times New Roman, Bold';font-variant-ligatures:normal;font-variant-caps:normal;font-variant-numeric:normal;font-feature-settings:normal;text-align:center" d="M246.383 193.62a.81.81 0 0 1-.34.083c-.034 0-.093-.002-.175-.008a3.165 3.165 0 0 0-.171-.006c-.414 0-.725.08-.932.24-.206.16-.367.421-.485.783-.117.36-.177.754-.177 1.18 0 .551.108.96.323 1.229.215.266.512.4.89.4.39 0 .687-.134.893-.4.208-.268.312-.589.312-.962 0-.415-.118-.747-.353-.995a1.137 1.137 0 0 0-.86-.375c-.42 0-.75.225-.987.676.028-.394.13-.676.309-.846a.862.862 0 0 1 .618-.26c.042 0 .101.003.178.008.087.008.15.012.188.012.26 0 .465-.092.612-.276.149-.184.232-.344.25-.482zm-81.575.086v.102c.241.002.398.036.47.102.073.064.11.202.11.414 0 .876-.1 1.576-.296 2.1-.195.521-.519.827-.972.917v1.194h.101c.037-.351.171-.621.403-.81.233-.188.542-.282.926-.282h1.017c.371 0 .663.101.876.304.214.202.33.464.353.788h.102v-1.194a.815.815 0 0 1-.339-.057.3.3 0 0 1-.157-.155 1.04 1.04 0 0 1-.036-.33V194.3c0-.2.032-.33.094-.39.062-.061.209-.095.438-.103v-.102zm.819.243h.94v2.973c0 .136-.016.218-.05.243-.03.024-.137.036-.317.036h-1.331a1.86 1.86 0 0 0 .419-.615c.105-.244.187-.58.248-1.006.06-.426.091-.863.091-1.312zm3.779.84c-.373 0-.668.138-.882.414-.214.273-.32.595-.32.964 0 .359.105.674.314.946.21.271.508.408.896.408.395 0 .704-.15.929-.447.185-.246.278-.552.278-.917 0-.254-.05-.488-.151-.7a1.103 1.103 0 0 0-.439-.494 1.195 1.195 0 0 0-.625-.174zm13.648 0c-.312 0-.585.128-.819.384-.231.253-.347.595-.347 1.025 0 .35.079.644.237.881.196.294.486.442.868.442.222 0 .418-.06.587-.177.169-.12.323-.321.463-.606l-.094-.06c-.102.16-.199.27-.289.333-.09.06-.19.09-.3.09a.577.577 0 0 1-.458-.228c-.165-.199-.256-.469-.273-.81h1.414c-.015-.421-.118-.738-.311-.951-.191-.215-.417-.323-.678-.323zm5.776 0c-.373 0-.666.138-.881.414-.213.273-.32.595-.32.964 0 .359.105.674.314.946.21.271.508.408.896.408.395 0 .705-.15.929-.447.185-.246.278-.552.278-.917 0-.254-.05-.488-.152-.7a1.103 1.103 0 0 0-.438-.494 1.195 1.195 0 0 0-.626-.174zm4.258 0a1.08 1.08 0 0 0-.934.483 1.569 1.569 0 0 0-.281.926c0 .364.103.675.309.934.206.26.48.389.824.389.204 0 .396-.055.576-.166.182-.112.333-.282.455-.51l-.086-.066a1.18 1.18 0 0 1-.286.24.546.546 0 0 1-.257.064.564.564 0 0 1-.358-.12c-.134-.108-.24-.272-.317-.492a2.113 2.113 0 0 1-.116-.698c0-.292.048-.509.144-.65.062-.094.137-.14.226-.14.057 0 .106.022.148.068.043.046.07.127.08.243.017.183.06.311.13.383a.367.367 0 0 0 .27.107.336.336 0 0 0 .248-.094.333.333 0 0 0 .097-.25c0-.166-.08-.315-.238-.45-.156-.133-.367-.2-.634-.2zm16.832 0c-.373 0-.667.138-.882.414-.213.273-.32.595-.32.964 0 .359.105.674.315.946.21.271.508.408.895.408.395 0 .705-.15.929-.447.185-.246.278-.552.278-.917 0-.254-.05-.488-.151-.7a1.103 1.103 0 0 0-.438-.494 1.195 1.195 0 0 0-.626-.174zm15.07 0c-.373 0-.667.138-.882.414-.213.273-.32.595-.32.964 0 .359.105.674.315.946.209.271.508.408.896.408.395 0 .704-.15.928-.447.186-.246.279-.552.279-.917 0-.254-.051-.488-.152-.7a1.103 1.103 0 0 0-.438-.494 1.193 1.193 0 0 0-.626-.174zm5.248 0c-.373 0-.667.138-.882.414-.213.273-.32.595-.32.964 0 .359.105.674.314.946.21.271.508.408.896.408.395 0 .705-.15.929-.447.186-.246.278-.552.278-.917 0-.254-.05-.488-.151-.7a1.103 1.103 0 0 0-.439-.494 1.195 1.195 0 0 0-.625-.174zm4.233 0c-.373 0-.667.138-.882.414-.213.273-.32.595-.32.964 0 .359.105.674.315.946.21.271.507.408.895.408.395 0 .705-.15.93-.447.185-.246.277-.552.277-.917 0-.254-.05-.488-.151-.7a1.103 1.103 0 0 0-.438-.494 1.195 1.195 0 0 0-.626-.174zm13.582 0c-.373 0-.667.138-.882.414-.213.273-.32.595-.32.964 0 .359.105.674.315.946.21.271.508.408.895.408.395 0 .705-.15.929-.447.185-.246.278-.552.278-.917 0-.254-.05-.488-.151-.7a1.103 1.103 0 0 0-.438-.494 1.195 1.195 0 0 0-.626-.174zm-40.11.033a.55.55 0 0 0-.41.155c-.1.1-.197.285-.295.551-.07.19-.143.318-.22.386-.076.066-.216.099-.422.099v-.634c0-.167.017-.276.05-.328.035-.051.102-.079.2-.083v-.101h-1.31v.101c.11 0 .185.033.225.097.042.063.064.18.064.35v1.521c0 .18-.027.293-.08.337a.329.329 0 0 1-.21.068v.102h1.312v-.102c-.09-.005-.154-.038-.193-.099-.039-.062-.058-.174-.058-.336v-.716h.165l.767 1.253h.992v-.102c-.141-.01-.276-.12-.405-.33l-.246-.395c-.136-.222-.246-.364-.33-.426-.083-.063-.217-.112-.403-.15a.723.723 0 0 0 .152-.176 3.93 3.93 0 0 0 .16-.389c.095-.251.19-.377.283-.377.063 0 .095.075.097.223.004.214.11.32.317.32a.31.31 0 0 0 .245-.108.388.388 0 0 0 .097-.264.383.383 0 0 0-.163-.323.61.61 0 0 0-.38-.124zm44.131 0a.549.549 0 0 0-.41.155c-.1.1-.198.285-.295.551-.07.19-.144.318-.221.386-.075.066-.216.099-.422.099v-.634c0-.167.017-.276.05-.328.035-.051.102-.079.201-.083v-.101h-1.312v.101c.11 0 .186.033.226.097.042.063.064.18.064.35v1.521c0 .18-.027.293-.08.337a.329.329 0 0 1-.21.068v.102h1.312v-.102c-.09-.005-.154-.038-.193-.099-.038-.062-.058-.174-.058-.336v-.716h.166l.766 1.253h.992v-.102c-.141-.01-.276-.12-.405-.33l-.245-.395c-.136-.222-.247-.364-.331-.426-.083-.063-.217-.112-.402-.15a.72.72 0 0 0 .151-.176 3.93 3.93 0 0 0 .16-.389c.095-.251.19-.377.284-.377.063 0 .094.075.096.223.004.214.11.32.318.32a.31.31 0 0 0 .244-.108.388.388 0 0 0 .097-.264.383.383 0 0 0-.163-.323.61.61 0 0 0-.38-.124zm-81.059.045v.101c.103 0 .176.025.22.072.046.046.07.154.07.323v1.54c0 .18-.02.298-.061.353-.04.055-.117.084-.229.085v.102h1.312v-.102c-.101 0-.168-.025-.201-.077-.033-.051-.05-.161-.05-.33v-1.894h.739v1.913a.828.828 0 0 1-.039.298c-.025.06-.095.09-.21.09v.102h1.313v-.102c-.114-.003-.191-.032-.232-.085-.04-.053-.06-.16-.06-.322v-1.536c0-.169.018-.279.055-.33.036-.054.115-.087.237-.1v-.101zm3.106 0v.101a.463.463 0 0 1 .215.138c.06.067.154.244.279.532l.832 1.91-.08.215c-.1.276-.185.452-.259.53-.05.053-.096.08-.14.08a.074.074 0 0 1-.064-.031c-.015-.02-.023-.065-.025-.135-.002-.123-.031-.214-.088-.273a.287.287 0 0 0-.22-.088.322.322 0 0 0-.243.105.375.375 0 0 0-.096.264c0 .123.047.228.14.314.096.089.22.133.372.133.191 0 .35-.077.477-.232.09-.11.228-.404.413-.882l.736-1.91c.125-.325.214-.515.268-.57a.32.32 0 0 1 .206-.1v-.101h-.863v.101c.114.004.194.026.238.067.046.04.068.094.068.162 0 .109-.053.302-.162.58l-.3.779-.441-1.009c-.092-.206-.138-.343-.138-.413 0-.044.018-.082.055-.113.037-.032.1-.049.19-.053v-.101zm2.982 0v.101c.118.006.195.037.232.094.038.057.058.162.058.314v1.593a.636.636 0 0 1-.05.268c-.031.07-.111.104-.24.104v.102h3.368c.307 0 .529.058.665.174.137.116.216.284.236.504h.105v-.78c-.104 0-.18-.026-.226-.08-.044-.053-.066-.158-.066-.314v-1.549c0-.178.02-.293.06-.344.041-.054.118-.082.232-.086v-.101h-1.3v.101c.097.017.16.054.19.11.03.058.046.164.046.32v1.613c0 .11-.016.182-.05.215-.03.03-.093.047-.186.047h-.262c-.098 0-.162-.017-.193-.05-.031-.035-.047-.11-.047-.223v-1.602c0-.158.016-.265.047-.322.033-.057.097-.093.193-.108v-.101h-1.255v.101c.098.017.162.055.194.114.033.058.05.17.05.336V197c0 .112-.019.185-.053.22s-.097.053-.19.053h-.282c-.084 0-.14-.019-.17-.056-.03-.038-.045-.11-.045-.217v-1.624c0-.143.017-.243.05-.3.035-.057.097-.093.187-.108v-.101zm7.262 0v.101c.109 0 .185.027.227.08.042.052.063.158.063.32v1.582c0 .153-.022.256-.066.311-.043.054-.117.08-.224.08v.102h1.312v-.102c-.091 0-.157-.024-.195-.071-.037-.05-.055-.156-.055-.32v-.755h.738v.774c0 .164-.018.267-.055.309-.037.04-.1.062-.193.063v.102h1.31v-.102c-.11-.003-.184-.029-.227-.077-.042-.047-.063-.152-.063-.314v-1.64c0-.123.021-.21.063-.261.045-.054.12-.08.226-.08v-.102h-1.309v.101c.11 0 .18.03.207.091a.705.705 0 0 1 .041.282v.68h-.738v-.68c0-.157.018-.257.055-.3.038-.045.104-.069.195-.073v-.101zm10.485 0v.101c.112.006.19.04.237.102.046.063.068.178.068.348v.75c0 .41-.022.684-.066.818-.044.134-.106.2-.187.2-.042 0-.063-.053-.063-.161 0-.24-.099-.359-.295-.359a.329.329 0 0 0-.254.108.387.387 0 0 0-.096.272.43.43 0 0 0 .132.31c.09.088.209.132.356.132a.625.625 0 0 0 .603-.48c.04-.154.06-.435.06-.84v-1.128h.728v1.943c0 .151-.03.248-.09.292a.391.391 0 0 1-.227.066v.102h1.365v-.102c-.107-.003-.18-.034-.218-.09a.52.52 0 0 1-.058-.279v-1.656c0-.228.092-.344.276-.348v-.101zm2.668 0v.101c.193 0 .289.13.289.386v1.59c0 .148-.022.25-.066.31-.044.058-.119.087-.223.087v.102h1.312v-.102c-.166-.005-.25-.128-.251-.369l.738-1.262v1.262c0 .246-.082.37-.248.37v.101h1.312v-.102c-.108 0-.184-.025-.228-.077-.043-.051-.064-.153-.064-.305v-1.64c0-.137.024-.228.072-.276.048-.048.12-.073.22-.075v-.101h-1.312v.101c.087 0 .149.027.188.08.038.054.059.148.06.284l-.738 1.28v-1.258c0-.15.017-.251.052-.303.037-.051.103-.079.199-.083v-.101zm3.255 0v.101c.117.006.194.037.231.094.039.057.058.162.058.314v1.596a.63.63 0 0 1-.05.265c-.03.07-.11.104-.24.104v.102h4.375v-.102c-.098 0-.171-.024-.221-.071-.048-.048-.072-.147-.072-.298v-1.574c0-.178.02-.293.061-.344.04-.054.118-.082.232-.086v-.101h-1.302v.101c.098.017.161.054.19.11.032.058.048.164.048.32v1.613c0 .11-.017.182-.05.215-.031.03-.094.047-.188.047h-.261c-.097 0-.162-.017-.193-.05-.032-.035-.047-.11-.047-.223v-1.602c0-.158.015-.265.047-.322.033-.057.097-.093.193-.108v-.101h-1.254v.101c.097.017.161.055.192.114.034.058.05.17.05.336V197c0 .112-.017.185-.052.22-.033.035-.097.053-.19.053h-.281c-.085 0-.142-.019-.171-.056-.03-.038-.044-.11-.044-.217v-1.624c0-.143.016-.243.05-.3.034-.057.097-.093.187-.108v-.101zm10.654 0v.101c.105.006.179.036.221.091.042.054.064.144.064.27v1.646c0 .132-.022.226-.067.281-.042.053-.115.082-.218.085v.102h.772v-.102c-.117-.005-.196-.035-.237-.088-.04-.053-.06-.14-.06-.259v-1.664l.87 2.113h.141l.899-2.144v1.651c0 .142-.024.242-.07.3-.045.06-.125.09-.24.091v.102h1.36v-.102c-.107-.005-.18-.035-.22-.09-.04-.056-.059-.156-.059-.3v-1.602c0-.14.022-.236.064-.29.042-.055.114-.085.215-.09v-.102h-1.05l-.653 1.598-.654-1.598zm5.259 0v.101c.105.006.178.036.22.091.043.054.064.144.064.27v1.646c0 .132-.022.226-.066.281-.042.053-.115.082-.218.085v.102h.772v-.102c-.118-.005-.197-.035-.237-.088-.04-.053-.06-.14-.06-.259v-1.664l.87 2.113h.14l.9-2.144v1.651c0 .142-.024.242-.07.3-.046.06-.126.09-.24.091v.102h1.36v-.102c-.107-.005-.18-.035-.221-.09-.039-.056-.058-.156-.058-.3v-1.602c0-.14.021-.236.063-.29.043-.055.114-.085.215-.09v-.102h-1.05l-.653 1.598-.653-1.598zm3.84 0v.101c.108 0 .183.027.225.08.043.052.064.158.064.32v1.582c0 .153-.022.256-.066.311-.043.054-.117.08-.223.08v.102h1.311v-.102c-.092 0-.157-.024-.195-.071-.037-.05-.056-.156-.056-.32v-.755h.739v.774c0 .164-.018.267-.055.309-.037.04-.101.062-.193.063v.102h1.31v-.102c-.11-.003-.185-.029-.227-.077-.042-.047-.063-.152-.063-.314v-1.64c0-.123.02-.21.063-.261.044-.054.12-.08.226-.08v-.102h-1.31v.101c.111 0 .18.03.208.091a.705.705 0 0 1 .04.282v.68h-.738v-.68c0-.157.019-.257.056-.3.038-.045.103-.069.195-.073v-.101zm6.08 0v.101c.111.01.186.04.225.091.04.05.061.14.061.27v1.638c0 .145-.021.242-.064.292-.042.048-.116.075-.223.082v.102h1.378v-.102c-.128-.003-.214-.032-.256-.085-.042-.053-.063-.144-.063-.273v-1.943h.51c.207 0 .348.031.421.094.074.06.132.196.174.405h.102v-.672zm9.477 0v.101c.118.006.195.037.232.094.038.057.058.162.058.314v1.596a.63.63 0 0 1-.05.265c-.031.07-.111.104-.24.104v.102h4.374v-.102c-.097 0-.17-.024-.22-.071-.048-.048-.072-.147-.072-.298v-1.574c0-.178.02-.293.06-.344.041-.054.118-.082.232-.086v-.101h-1.3v.101c.097.017.16.054.19.11.03.058.047.164.047.32v1.613c0 .11-.017.182-.05.215-.031.03-.094.047-.188.047h-.262c-.097 0-.161-.017-.192-.05-.032-.035-.047-.11-.047-.223v-1.602c0-.158.015-.265.047-.322.033-.057.097-.093.192-.108v-.101h-1.253v.101c.097.017.161.055.192.114.034.058.05.17.05.336V197c0 .112-.017.185-.052.22-.033.035-.097.053-.19.053h-.281c-.085 0-.142-.019-.171-.056-.03-.038-.044-.11-.044-.217v-1.624c0-.143.016-.243.05-.3.034-.057.096-.093.186-.108v-.101zm4.76 0v.101c.193 0 .29.13.29.386v1.59c0 .148-.023.25-.067.31-.044.058-.118.087-.223.087v.102h1.312v-.102c-.165-.005-.25-.128-.251-.369l.739-1.262v1.262c0 .246-.083.37-.248.37v.101h1.312v-.102c-.109 0-.185-.025-.229-.077-.042-.051-.063-.153-.063-.305v-1.64c0-.137.024-.228.071-.276.048-.048.121-.073.22-.075v-.101h-1.311v.101c.086 0 .148.027.187.08.039.054.06.148.061.284l-.739 1.28v-1.258c0-.15.018-.251.053-.303.037-.051.103-.079.198-.083v-.101zm-57.83.101c.064 0 .115.017.154.05a.49.49 0 0 1 .148.25c.033.111.05.314.05.61h-.75v-.097c0-.284.055-.508.163-.672.06-.094.139-.14.235-.14zm62.3.014c.164 0 .272.081.323.243.052.16.077.382.077.667 0 .452-.01.765-.03.94-.019.174-.06.3-.127.38a.296.296 0 0 1-.237.119c-.155 0-.26-.075-.317-.224-.057-.15-.085-.463-.085-.937 0-.426.026-.73.08-.912.054-.184.16-.276.317-.276zm-75.897.003c.078 0 .14.02.188.058.068.053.12.139.155.256.034.116.052.33.052.643 0 .53-.019.883-.056 1.058a.462.462 0 0 1-.143.261.312.312 0 0 1-.206.07.307.307 0 0 1-.226-.103.533.533 0 0 1-.13-.297 3.703 3.703 0 0 1-.039-.551c0-.371.01-.66.03-.868.023-.21.067-.35.133-.42a.323.323 0 0 1 .242-.107zm19.426 0c.077 0 .139.02.187.058.068.053.12.139.154.256.035.116.052.33.052.643 0 .53-.018.883-.054 1.058a.462.462 0 0 1-.144.261.312.312 0 0 1-.207.07.307.307 0 0 1-.226-.103.533.533 0 0 1-.13-.297 3.706 3.706 0 0 1-.037-.551c0-.371.01-.66.03-.868.022-.21.066-.35.132-.42a.324.324 0 0 1 .243-.107zm21.089 0c.077 0 .14.02.187.058.068.053.12.139.155.256.035.116.052.33.052.643 0 .53-.018.883-.055 1.058a.462.462 0 0 1-.143.261.312.312 0 0 1-.207.07.307.307 0 0 1-.226-.103.533.533 0 0 1-.13-.297 3.703 3.703 0 0 1-.038-.551c0-.371.01-.66.03-.868.022-.21.066-.35.132-.42a.323.323 0 0 1 .243-.107zm15.07 0c.077 0 .14.02.188.058.068.053.119.139.154.256.035.116.052.33.052.643 0 .53-.018.883-.055 1.058a.462.462 0 0 1-.143.261.312.312 0 0 1-.207.07.309.309 0 0 1-.226-.103.532.532 0 0 1-.13-.297 3.703 3.703 0 0 1-.038-.551c0-.371.01-.66.03-.868.023-.21.067-.35.133-.42a.323.323 0 0 1 .242-.107zm5.248 0c.077 0 .14.02.187.058.068.053.12.139.155.256.034.116.052.33.052.643 0 .53-.018.883-.055 1.058a.462.462 0 0 1-.144.261.312.312 0 0 1-.206.07.307.307 0 0 1-.226-.103.533.533 0 0 1-.13-.297 3.706 3.706 0 0 1-.038-.551c0-.371.01-.66.03-.868.022-.21.066-.35.132-.42a.324.324 0 0 1 .243-.107zm4.233 0c.077 0 .14.02.187.058.068.053.12.139.155.256.035.116.052.33.052.643 0 .53-.018.883-.055 1.058a.462.462 0 0 1-.143.261.312.312 0 0 1-.207.07.307.307 0 0 1-.226-.103.533.533 0 0 1-.13-.297 3.706 3.706 0 0 1-.038-.551c0-.371.01-.66.03-.868.022-.21.066-.35.132-.42a.324.324 0 0 1 .243-.107zm13.582 0c.077 0 .14.02.187.058.068.053.12.139.155.256.035.116.052.33.052.643 0 .53-.018.883-.055 1.058a.462.462 0 0 1-.143.261.312.312 0 0 1-.207.07.307.307 0 0 1-.226-.103.533.533 0 0 1-.13-.297 3.703 3.703 0 0 1-.038-.551c0-.371.01-.66.03-.868.022-.21.066-.35.133-.42a.323.323 0 0 1 .242-.107zm5.363 1.61a.443.443 0 0 0-.325.135.448.448 0 0 0-.132.325.449.449 0 0 0 .457.458.448.448 0 0 0 .325-.133.444.444 0 0 0 .136-.325.443.443 0 0 0-.136-.325.437.437 0 0 0-.325-.135zm-18.322 4.081a.81.81 0 0 1-.339.083c-.035 0-.094-.003-.176-.008a3.107 3.107 0 0 0-.171-.006c-.414 0-.724.08-.932.24-.206.16-.367.42-.485.783-.117.36-.176.753-.176 1.18 0 .55.107.96.322 1.229.215.266.512.4.89.4.39 0 .688-.134.893-.4.208-.268.312-.59.312-.962 0-.416-.118-.747-.353-.995a1.136 1.136 0 0 0-.86-.375c-.42 0-.75.225-.986.675.027-.393.13-.675.308-.846a.861.861 0 0 1 .618-.259c.042 0 .101.003.178.008.087.008.15.011.188.011.26 0 .465-.091.612-.275.149-.184.232-.345.25-.483zm-66.206.07a.233.233 0 0 0-.171.07.265.265 0 0 0-.072.197c0 .156.09.28.267.372.18.092.418.138.712.138.29 0 .519-.046.686-.138.167-.092.25-.216.25-.372 0-.085-.024-.15-.071-.196a.236.236 0 0 0-.174-.072c-.145 0-.255.119-.33.356a.473.473 0 0 1-.108.201c-.042.04-.139.06-.29.06-.112 0-.195-.02-.25-.06a.412.412 0 0 1-.127-.215c-.07-.228-.177-.342-.322-.342zm-13.332.016v.102h.12c.17 0 .28.034.33.102.05.068.074.213.074.435v2.456c0 .235-.027.384-.08.446-.053.063-.161.094-.325.094h-.119v.102h1.955v-.102h-.114c-.161 0-.272-.03-.33-.088-.06-.06-.089-.211-.089-.452v-2.853h1.32v2.853c0 .206-.021.347-.065.424-.045.077-.158.116-.34.116h-.118v.102h1.951v-.102h-.088c-.169 0-.285-.03-.347-.088-.063-.06-.094-.211-.094-.452V201.4c0-.218.028-.363.083-.432.055-.07.17-.105.347-.105h.1v-.102zm5.659 1.083c-.313 0-.585.128-.819.383-.231.254-.347.595-.347 1.025 0 .351.079.645.237.882.196.294.486.441.868.441.222 0 .418-.058.587-.176.169-.12.323-.322.463-.607l-.094-.06c-.103.16-.199.27-.29.333a.525.525 0 0 1-.3.091.577.577 0 0 1-.457-.228c-.166-.199-.256-.469-.273-.81h1.414c-.015-.421-.118-.738-.311-.951-.191-.215-.417-.323-.678-.323zm3.02 0a.793.793 0 0 0-.438.13.985.985 0 0 0-.275.286v-.339h-1.081v.102c.121.007.203.037.246.088.042.05.063.166.063.348v2.72c0 .176-.018.286-.055.328-.055.06-.14.092-.254.096v.102h1.47v-.102a.67.67 0 0 1-.26-.033.211.211 0 0 1-.1-.104.802.802 0 0 1-.03-.27v-.96c.102.116.198.198.29.246a.865.865 0 0 0 .397.093.893.893 0 0 0 .529-.168c.16-.114.281-.278.364-.493.084-.217.126-.456.126-.717 0-.243-.04-.469-.121-.678-.08-.211-.2-.377-.356-.496a.821.821 0 0 0-.515-.179zm2.624 0c-.312 0-.585.128-.819.383-.231.254-.347.595-.347 1.025 0 .351.08.645.237.882.197.294.486.441.868.441.223 0 .418-.058.587-.176.17-.12.324-.322.463-.607l-.093-.06c-.103.16-.2.27-.29.333a.527.527 0 0 1-.3.091.576.576 0 0 1-.458-.228c-.165-.199-.256-.469-.272-.81h1.413c-.014-.421-.118-.738-.311-.951-.191-.215-.417-.323-.678-.323zm14.64 0c-.312 0-.585.128-.818.383-.232.254-.348.595-.348 1.025 0 .351.08.645.238.882.196.294.486.441.868.441.222 0 .418-.058.587-.176.169-.12.323-.322.463-.607l-.094-.06c-.103.16-.2.27-.29.333a.525.525 0 0 1-.3.091.576.576 0 0 1-.457-.228c-.165-.199-.256-.469-.273-.81h1.414c-.015-.421-.119-.738-.312-.951-.19-.215-.417-.323-.678-.323zm13.927 0c-.203 0-.397.032-.584.096a.987.987 0 0 0-.439.279.567.567 0 0 0-.157.378.32.32 0 0 0 .116.244c.08.07.176.105.292.105a.366.366 0 0 0 .262-.093.307.307 0 0 0 .102-.232c0-.073-.035-.15-.105-.229-.051-.057-.077-.104-.077-.143 0-.044.024-.082.072-.116a.507.507 0 0 1 .294-.08c.074 0 .14.02.199.058a.28.28 0 0 1 .119.133c.022.05.033.171.033.366v.26c-.568.26-.937.47-1.106.628-.169.156-.253.332-.253.529a.494.494 0 0 0 .512.507c.25 0 .533-.139.847-.416.018.14.068.244.151.314a.528.528 0 0 0 .345.102c.125 0 .236-.03.333-.091.1-.063.195-.162.287-.298l-.083-.066c-.05.068-.098.102-.146.102a.099.099 0 0 1-.064-.022.133.133 0 0 1-.04-.066 1.069 1.069 0 0 1-.014-.223v-1c0-.278-.013-.456-.04-.533a.72.72 0 0 0-.278-.336c-.141-.105-.334-.157-.578-.157zm9.048 0c-.373 0-.667.138-.882.414-.213.273-.32.594-.32.964 0 .358.105.674.314.945.21.272.509.408.896.408.395 0 .705-.149.929-.446.186-.246.279-.552.279-.918 0-.254-.051-.487-.152-.7a1.102 1.102 0 0 0-.439-.493 1.193 1.193 0 0 0-.625-.174zm2.8 0c-.312 0-.585.128-.819.383-.231.254-.347.595-.347 1.025 0 .351.08.645.237.882.197.294.486.441.869.441.222 0 .418-.058.587-.176.169-.12.323-.322.463-.607l-.094-.06c-.103.16-.2.27-.29.333a.527.527 0 0 1-.3.091.576.576 0 0 1-.457-.228c-.166-.199-.257-.469-.273-.81h1.414c-.015-.421-.12-.738-.312-.951-.191-.215-.417-.323-.678-.323zm7.761 0c-.312 0-.585.128-.818.383-.232.254-.348.595-.348 1.025 0 .351.08.645.238.882.196.294.486.441.868.441.222 0 .418-.058.587-.176.169-.12.323-.322.463-.607l-.094-.06c-.103.16-.2.27-.29.333a.525.525 0 0 1-.3.091.576.576 0 0 1-.457-.228c-.166-.199-.256-.469-.273-.81h1.414c-.015-.421-.119-.738-.312-.951-.19-.215-.417-.323-.678-.323zm7.265 0a1.09 1.09 0 0 0-.813.333c-.215.223-.342.522-.383.9h-.44v-.679c0-.237.091-.362.275-.375v-.102h-1.323v.102c.103.01.174.042.215.1.04.056.06.148.06.275v1.618c0 .136-.022.231-.066.286-.042.055-.112.087-.21.094v.102h1.324v-.102c-.101-.007-.173-.04-.215-.1a.515.515 0 0 1-.06-.28v-.766h.44c.011.391.126.71.345.956.22.246.508.37.862.37.366 0 .658-.13.877-.39.22-.258.33-.584.33-.975 0-.399-.113-.726-.339-.981a1.115 1.115 0 0 0-.879-.386zm8.897 0c-.373 0-.667.138-.882.414-.213.273-.32.594-.32.964 0 .358.105.674.314.945.21.272.509.408.896.408.395 0 .705-.149.929-.446.186-.246.278-.552.278-.918 0-.254-.05-.487-.151-.7a1.102 1.102 0 0 0-.439-.493 1.193 1.193 0 0 0-.625-.174zm6.14 0a.793.793 0 0 0-.438.13.985.985 0 0 0-.275.286v-.339h-1.081v.102c.121.007.203.037.246.088.042.05.063.166.063.348v2.72c0 .176-.018.286-.055.328-.055.06-.14.092-.254.096v.102h1.47v-.102a.666.666 0 0 1-.26-.033.211.211 0 0 1-.099-.104.798.798 0 0 1-.03-.27v-.96c.1.116.197.198.289.246a.865.865 0 0 0 .397.093.893.893 0 0 0 .529-.168c.16-.114.281-.278.364-.493.084-.217.126-.456.126-.717 0-.243-.04-.469-.12-.678-.081-.211-.2-.377-.356-.496a.822.822 0 0 0-.516-.179zm2.726 0c-.202 0-.397.032-.584.096a.987.987 0 0 0-.438.279.567.567 0 0 0-.158.378.32.32 0 0 0 .116.244c.08.07.177.105.293.105a.365.365 0 0 0 .261-.093.308.308 0 0 0 .102-.232c0-.073-.035-.15-.104-.229-.052-.057-.077-.104-.077-.143 0-.044.023-.082.07-.116a.508.508 0 0 1 .296-.08c.073 0 .14.02.198.058.06.037.099.081.119.133.022.05.033.171.033.366v.26c-.568.26-.936.47-1.105.628-.17.156-.254.332-.254.529a.494.494 0 0 0 .513.507c.25 0 .532-.139.846-.416.018.14.069.244.152.314a.527.527 0 0 0 .344.102c.125 0 .236-.03.334-.091.099-.063.194-.162.286-.298l-.083-.066c-.05.068-.098.102-.145.102a.099.099 0 0 1-.064-.022.133.133 0 0 1-.041-.066 1.055 1.055 0 0 1-.014-.223v-1c0-.278-.013-.456-.038-.533a.72.72 0 0 0-.279-.336c-.142-.105-.334-.157-.579-.157zm11.386 0c-.313 0-.586.128-.819.383-.232.254-.347.595-.347 1.025 0 .351.079.645.237.882.197.294.486.441.868.441.222 0 .418-.058.587-.176.17-.12.323-.322.463-.607l-.094-.06c-.103.16-.2.27-.29.333a.525.525 0 0 1-.3.091.576.576 0 0 1-.457-.228c-.165-.199-.256-.469-.273-.81h1.414c-.015-.421-.119-.738-.311-.951-.192-.215-.418-.323-.678-.323zm2.615 0c-.397 0-.708.16-.934.482a1.569 1.569 0 0 0-.282.926c0 .364.104.676.31.935.205.259.48.388.823.388.204 0 .396-.055.576-.165.182-.112.334-.282.455-.51l-.085-.066a1.18 1.18 0 0 1-.287.24.546.546 0 0 1-.256.063.564.564 0 0 1-.358-.118c-.134-.109-.24-.273-.318-.494a2.11 2.11 0 0 1-.115-.697c0-.292.048-.51.143-.65.063-.094.138-.141.226-.141.057 0 .107.023.149.069.042.046.069.127.08.242.017.184.06.312.13.383a.367.367 0 0 0 .27.108.335.335 0 0 0 .248-.094.334.334 0 0 0 .096-.25c0-.166-.079-.316-.237-.45-.156-.134-.368-.2-.634-.2zm8.075.033a.55.55 0 0 0-.41.154c-.1.101-.198.285-.295.552-.07.189-.144.318-.22.386-.076.066-.217.099-.422.099v-.634c0-.167.016-.277.05-.328.034-.052.101-.08.2-.083v-.102h-1.311v.102c.11 0 .185.032.226.097.042.062.063.179.063.35v1.52c0 .18-.027.293-.08.337a.329.329 0 0 1-.21.069v.102h1.312v-.102c-.09-.006-.154-.039-.192-.1-.04-.062-.058-.174-.058-.335v-.717h.165l.766 1.254h.993v-.102c-.142-.011-.277-.121-.406-.33l-.245-.395c-.136-.222-.246-.365-.33-.427-.083-.062-.218-.112-.403-.149a.722.722 0 0 0 .152-.176 3.93 3.93 0 0 0 .16-.389c.095-.251.19-.377.283-.377.062 0 .095.074.097.223.003.213.109.32.316.32a.31.31 0 0 0 .246-.108.388.388 0 0 0 .096-.264.383.383 0 0 0-.162-.323.61.61 0 0 0-.38-.124zm-93.968.044v.102c.193 0 .29.129.29.386V204c0 .147-.023.25-.067.309-.044.059-.118.088-.223.088v.102h1.312v-.102c-.165-.006-.25-.128-.251-.37l.739-1.262v1.263c0 .246-.083.369-.248.369v.102h1.311v-.102c-.108 0-.184-.026-.228-.077-.042-.052-.064-.154-.064-.306v-1.64c0-.136.024-.228.072-.276.048-.047.121-.072.22-.074v-.102h-1.311v.102c.086 0 .148.027.187.08.038.053.059.148.06.284l-.738 1.279v-1.257c0-.15.018-.252.053-.303.036-.052.102-.08.198-.083v-.102zm3.47 0v.102c.1.002.167.014.204.036.038.022.068.068.088.138.02.068.03.17.03.305 0 .45-.065.874-.195 1.271-.129.397-.308.605-.538.623v.78h.102c.053-.452.336-.678.846-.678h.747c.53 0 .815.226.857.678h.102v-.78c-.099-.004-.171-.027-.217-.071-.044-.046-.066-.144-.066-.293v-1.667c0-.103.016-.186.05-.248.034-.063.112-.094.233-.094v-.102zm2.638 0v.102c.192 0 .289.129.289.386V204c0 .147-.022.25-.066.309-.044.059-.119.088-.223.088v.102h1.311v-.102c-.165-.006-.249-.128-.25-.37l.738-1.262v1.263c0 .246-.083.369-.248.369v.102h1.312v-.102c-.108 0-.185-.026-.229-.077-.042-.052-.063-.154-.063-.306v-1.64c0-.136.024-.228.071-.276.048-.047.122-.072.221-.074v-.102h-1.312v.102c.086 0 .149.027.187.08.04.053.06.148.06.284l-.738 1.279v-1.257c0-.15.018-.252.053-.303.036-.052.103-.08.198-.083v-.102zm3.16 0v.672h.102c.04-.204.096-.337.166-.402.07-.064.195-.096.375-.096h.256v1.877c0 .169-.021.282-.063.339-.04.057-.116.085-.226.085v.102h1.35v-.102c-.11-.002-.186-.03-.229-.083-.04-.053-.06-.167-.06-.341v-1.877h.262c.195 0 .324.038.388.113.065.073.113.202.146.385h.102v-.672zm6.791 0v.102c.12.01.196.04.23.09.034.052.052.182.052.39v1.535c0 .134-.016.224-.047.27-.03.046-.108.075-.235.088v.102h1.436c.375 0 .67-.058.885-.173.215-.116.323-.29.323-.521 0-.382-.266-.605-.797-.667.394-.1.59-.292.59-.577a.515.515 0 0 0-.284-.476c-.189-.109-.433-.163-.73-.163zm4.463 0v.102c.112.01.187.04.225.09.04.05.061.14.061.271v1.637c0 .145-.02.243-.063.292-.042.048-.117.076-.223.083v.102h1.378v-.102c-.129-.004-.214-.032-.256-.085-.043-.054-.064-.145-.064-.273v-1.943h.51c.208 0 .348.03.422.093.073.06.131.196.173.405h.102v-.672zm2.772 0v.102c.112.005.191.04.237.102.046.063.069.178.069.347v.75c0 .411-.022.684-.066.818-.044.134-.106.202-.187.202-.042 0-.064-.054-.064-.163 0-.239-.098-.358-.295-.358a.329.329 0 0 0-.253.107.387.387 0 0 0-.097.273c0 .116.044.219.133.309.09.088.208.132.355.132a.625.625 0 0 0 .604-.48c.04-.154.06-.434.06-.84v-1.127h.728v1.943c0 .15-.03.248-.091.292a.391.391 0 0 1-.226.066v.102h1.364v-.102c-.106-.004-.179-.034-.217-.091a.518.518 0 0 1-.058-.278v-1.657c0-.228.092-.343.275-.347v-.102zm5.498 0v.102c.12.01.196.04.23.09.034.052.052.182.052.39v1.535c0 .134-.016.224-.047.27-.03.046-.108.075-.235.088v.102h1.437c.374 0 .67-.058.884-.173.215-.116.323-.29.323-.521 0-.382-.266-.605-.797-.667.394-.1.59-.292.59-.577a.515.515 0 0 0-.284-.476c-.189-.109-.433-.163-.73-.163zm3.046 0v.102c.109 0 .184.027.226.08.042.051.064.158.064.32v1.582c0 .152-.022.256-.066.311-.043.054-.117.08-.224.08v.102h1.312v-.102c-.092 0-.157-.024-.195-.071-.037-.05-.056-.157-.056-.32v-.755h.739v.774c0 .163-.018.267-.055.309-.037.04-.102.061-.193.063v.102h1.31v-.102c-.11-.004-.185-.03-.227-.077-.043-.048-.063-.153-.063-.314v-1.64c0-.123.02-.21.063-.262.044-.053.12-.08.226-.08v-.102h-1.31v.102c.11 0 .18.03.207.09a.705.705 0 0 1 .042.282v.681h-.739v-.681c0-.156.019-.256.056-.3.038-.044.103-.068.195-.072v-.102zm9.997 0v.102c.104.005.177.036.22.09.042.054.063.144.063.271v1.646c0 .132-.022.226-.066.28-.042.054-.115.082-.217.086v.102h.771v-.102c-.117-.006-.197-.035-.237-.088-.04-.053-.06-.14-.06-.26v-1.664l.87 2.114h.14l.9-2.144v1.65c0 .142-.023.242-.07.3-.045.06-.125.09-.24.092v.102h1.36v-.102c-.107-.006-.18-.036-.221-.091-.039-.055-.058-.155-.058-.3v-1.602c0-.14.021-.236.064-.29.042-.054.113-.085.214-.09v-.102h-1.05l-.653 1.598-.653-1.598zm6.341 0v.102c.109 0 .184.027.226.08.042.051.064.158.064.32v1.582c0 .152-.022.256-.066.311-.043.054-.117.08-.224.08v.102h1.312v-.102c-.092 0-.157-.024-.195-.071-.037-.05-.056-.157-.056-.32v-.755h.739v.774c0 .163-.018.267-.055.309-.037.04-.101.061-.193.063v.102h1.31v-.102c-.11-.004-.185-.03-.227-.077-.042-.048-.063-.153-.063-.314v-1.64c0-.123.02-.21.063-.262.044-.053.12-.08.226-.08v-.102h-1.31v.102c.11 0 .18.03.207.09a.705.705 0 0 1 .042.282v.681h-.739v-.681c0-.156.019-.256.056-.3.038-.044.103-.068.195-.072v-.102zm8.974 0v.102c.193 0 .29.129.29.386V204c0 .147-.023.25-.067.309-.044.059-.118.088-.223.088v.102h1.312v-.102c-.165-.006-.25-.128-.251-.37l.739-1.262v1.263c0 .246-.083.369-.248.369v.102h1.311v-.102c-.108 0-.184-.026-.228-.077-.042-.052-.064-.154-.064-.306v-1.64c0-.136.024-.228.072-.276.048-.047.121-.072.22-.074v-.102h-1.311v.102c.086 0 .148.027.187.08.038.053.059.148.06.284l-.738 1.279v-1.257c0-.15.018-.252.053-.303.036-.052.102-.08.198-.083v-.102zm16.038 0v.672h.102c.04-.204.095-.337.165-.402.07-.064.194-.096.375-.096h.256v1.877c0 .169-.021.282-.063.339-.04.057-.116.085-.227.085v.102h1.351v-.102c-.11-.002-.186-.03-.229-.083-.04-.053-.06-.167-.06-.341v-1.877h.261c.195 0 .325.038.389.113.064.073.113.202.146.385h.102v-.672zm2.869 0v.102c.193 0 .29.129.29.386V204c0 .147-.023.25-.067.309-.044.059-.118.088-.223.088v.102h1.311v-.102c-.165-.006-.248-.128-.25-.37l.738-1.262v1.263c0 .246-.083.369-.248.369v.102h1.312v-.102c-.108 0-.185-.026-.229-.077-.042-.052-.063-.154-.063-.306v-1.64c0-.136.024-.228.072-.276.047-.047.121-.072.22-.074v-.102h-1.312v.102c.086 0 .15.027.188.08.038.053.058.148.06.284l-.738 1.279v-1.257c0-.15.017-.252.052-.303.037-.052.103-.08.198-.083v-.102zm3.16 0v.672h.103c.04-.204.095-.337.165-.402.07-.064.195-.096.375-.096h.256v1.877c0 .169-.02.282-.063.339-.04.057-.116.085-.226.085v.102h1.35v-.102c-.11-.002-.186-.03-.229-.083-.04-.053-.06-.167-.06-.341v-1.877h.262c.195 0 .324.038.389.113.064.073.112.202.145.385h.103v-.672zm7.96 0v.102c.103.016.174.052.212.107.04.056.061.153.061.293v1.557c0 .15-.019.255-.057.312-.037.055-.109.09-.215.104v.102h1.397c.397 0 .696-.063.898-.19.202-.127.303-.297.303-.51 0-.226-.113-.402-.341-.53-.228-.128-.566-.192-1.015-.192h-.198v-.615c0-.156.017-.264.052-.322.037-.061.11-.1.22-.116v-.102zm-94.175.102c.065 0 .116.016.154.05.068.056.118.14.15.25.032.11.049.314.049.61h-.75v-.097c0-.285.054-.509.163-.673.06-.093.139-.14.234-.14zm5.645 0a.23.23 0 0 1 .154.05c.068.056.118.14.149.25.033.11.05.314.05.61h-.75v-.097c0-.285.054-.509.162-.673.061-.093.139-.14.235-.14zm14.64 0a.23.23 0 0 1 .154.05c.068.056.118.14.15.25.032.11.049.314.049.61h-.75v-.097c0-.285.054-.509.163-.673.06-.093.138-.14.234-.14zm25.775 0a.23.23 0 0 1 .154.05c.068.056.118.14.149.25.033.11.05.314.05.61h-.75v-.097c0-.285.054-.509.163-.673.06-.093.138-.14.234-.14zm7.76 0a.23.23 0 0 1 .155.05c.068.056.118.14.15.25.032.11.049.314.049.61h-.75v-.097c0-.285.054-.509.163-.673.06-.093.138-.14.234-.14zm36.414 0a.23.23 0 0 1 .155.05c.068.056.117.14.149.25.033.11.05.314.05.61h-.75v-.097c0-.285.054-.509.162-.673.06-.093.139-.14.234-.14zm-29.09.014c.129 0 .226.061.292.184.066.123.1.42.1.89 0 .512-.028.851-.084 1.02-.053.167-.158.251-.316.251-.153 0-.258-.078-.314-.234-.057-.156-.086-.475-.086-.956 0-.472.032-.783.096-.932.065-.149.169-.223.312-.223zm11.708 0c.163 0 .27.08.322.242.052.16.077.383.077.667 0 .452-.01.766-.03.94-.019.175-.06.302-.127.38a.295.295 0 0 1-.237.119c-.154 0-.26-.074-.317-.223-.057-.15-.085-.463-.085-.937 0-.426.026-.73.08-.913.055-.183.16-.275.317-.275zm-29.54.002c.077 0 .14.02.188.058.068.054.119.14.154.257.034.115.052.33.052.642 0 .531-.018.884-.055 1.058a.463.463 0 0 1-.143.262.312.312 0 0 1-.207.07.308.308 0 0 1-.226-.103.532.532 0 0 1-.13-.297 3.71 3.71 0 0 1-.038-.552c0-.37.01-.66.03-.868.022-.21.066-.35.133-.419a.323.323 0 0 1 .242-.108zm26.723 0c.077 0 .14.02.187.058.068.054.12.14.154.257.035.115.053.33.053.642 0 .531-.018.884-.055 1.058a.463.463 0 0 1-.143.262.312.312 0 0 1-.207.07.308.308 0 0 1-.226-.103.532.532 0 0 1-.13-.297 3.71 3.71 0 0 1-.038-.552c0-.37.01-.66.03-.868.022-.21.066-.35.133-.419a.323.323 0 0 1 .242-.108zm-59.057.056h.68V204c0 .219-.089.328-.267.328h-.849c.29-.426.436-1.035.436-1.827zm13.17 0c.438.005.657.168.657.488 0 .312-.219.475-.656.487zm12.734 0c.437.005.656.168.656.488 0 .312-.219.475-.656.487zm-34.076.085a.32.32 0 0 1 .281.163c.105.163.157.467.157.912 0 .434-.047.728-.143.882-.064.105-.146.157-.245.157-.18 0-.35-.112-.507-.336v-1.375c.119-.269.271-.403.457-.403zm73.102 0a.32.32 0 0 1 .281.163c.105.163.157.467.157.912 0 .434-.047.728-.143.882-.064.105-.146.157-.245.157-.18 0-.35-.112-.507-.336v-1.375c.119-.269.271-.403.457-.403zm-41.528.874v.862c-.122.103-.228.155-.32.155a.25.25 0 0 1-.193-.075.316.316 0 0 1-.09-.223.51.51 0 0 1 .107-.3 1.61 1.61 0 0 1 .496-.42zm44.637 0v.862c-.121.103-.228.155-.32.155a.25.25 0 0 1-.193-.075.316.316 0 0 1-.09-.223.51.51 0 0 1 .107-.3 1.61 1.61 0 0 1 .496-.42zm-54.868.19c.277 0 .476.04.595.122.121.08.182.209.182.385a.56.56 0 0 1-.162.413.537.537 0 0 1-.395.163c-.091 0-.151-.017-.179-.052-.027-.037-.041-.099-.041-.185zm12.733 0c.277 0 .476.04.595.122.121.08.182.209.182.385a.56.56 0 0 1-.162.413.537.537 0 0 1-.394.163c-.092 0-.152-.017-.18-.052-.027-.037-.041-.099-.041-.185zm58.338.006c.496 0 .744.177.744.532a.52.52 0 0 1-.532.545.26.26 0 0 1-.152-.044c-.04-.03-.06-.106-.06-.231zm-95.046 5.65a.794.794 0 0 0-.438.13.984.984 0 0 0-.276.286v-.34h-1.08v.103c.121.007.203.036.245.088.042.05.063.165.063.347v2.72c0 .177-.018.286-.055.328-.055.061-.14.093-.253.097v.102h1.468v-.102a.666.666 0 0 1-.258-.033.212.212 0 0 1-.1-.105.798.798 0 0 1-.03-.27v-.96c.1.116.197.198.29.246a.864.864 0 0 0 .396.094.893.893 0 0 0 .53-.168c.16-.114.28-.279.363-.494.085-.217.127-.455.127-.716 0-.243-.04-.469-.121-.678-.081-.211-.2-.377-.356-.496a.822.822 0 0 0-.515-.18zm2.624 0c-.313 0-.586.127-.819.382-.231.254-.347.596-.347 1.026 0 .35.079.645.237.882.197.294.486.44.868.44.223 0 .418-.058.587-.176.17-.119.324-.32.463-.606l-.094-.06c-.103.16-.2.27-.29.333a.525.525 0 0 1-.3.091.576.576 0 0 1-.457-.229c-.165-.198-.256-.468-.273-.81h1.414c-.014-.42-.118-.738-.311-.951-.191-.215-.417-.322-.678-.322zm5.777 0c-.373 0-.668.137-.883.413-.213.274-.32.595-.32.965 0 .358.105.673.315.945.21.272.508.408.896.408.395 0 .704-.15.928-.447.186-.246.279-.552.279-.918 0-.253-.05-.486-.152-.7a1.103 1.103 0 0 0-.438-.493 1.193 1.193 0 0 0-.625-.173zm5.591 0c-.202 0-.397.032-.584.096a.986.986 0 0 0-.438.278.567.567 0 0 0-.157.378c0 .094.038.176.115.245.08.07.177.105.293.105a.365.365 0 0 0 .261-.094.308.308 0 0 0 .103-.231c0-.074-.035-.15-.105-.23-.052-.056-.077-.104-.077-.142 0-.044.023-.083.071-.116a.508.508 0 0 1 .295-.08c.074 0 .14.02.199.058.058.036.098.08.118.132.022.05.033.172.033.367v.259c-.568.26-.936.47-1.105.628-.169.156-.253.333-.253.53a.494.494 0 0 0 .512.506c.25 0 .532-.138.846-.416.018.14.07.245.152.315a.526.526 0 0 0 .344.101c.125 0 .237-.03.334-.09.1-.063.194-.162.286-.298l-.082-.066c-.05.068-.098.102-.146.102a.1.1 0 0 1-.064-.022.133.133 0 0 1-.041-.066 1.055 1.055 0 0 1-.014-.224v-1c0-.278-.012-.455-.038-.532a.722.722 0 0 0-.279-.336c-.141-.105-.334-.157-.579-.157zm5.877 0c-.203 0-.397.032-.585.096a.986.986 0 0 0-.438.278.567.567 0 0 0-.157.378c0 .094.038.176.116.245.079.07.176.105.292.105a.366.366 0 0 0 .262-.094.307.307 0 0 0 .101-.231c0-.074-.034-.15-.104-.23-.051-.056-.078-.104-.078-.142 0-.044.025-.083.072-.116a.508.508 0 0 1 .295-.08c.074 0 .14.02.199.058.059.036.098.08.118.132.022.05.033.172.033.367v.259c-.568.26-.936.47-1.105.628-.17.156-.253.333-.253.53a.493.493 0 0 0 .512.506c.25 0 .532-.138.846-.416.019.14.069.245.152.315a.528.528 0 0 0 .344.101c.125 0 .236-.03.334-.09.099-.063.195-.162.286-.298l-.082-.066c-.05.068-.099.102-.146.102a.098.098 0 0 1-.064-.022.133.133 0 0 1-.04-.066 1.055 1.055 0 0 1-.015-.224v-1c0-.278-.013-.455-.039-.532a.72.72 0 0 0-.278-.336c-.141-.105-.334-.157-.578-.157zm5.354 0c-.312 0-.585.127-.818.382-.232.254-.347.596-.347 1.026 0 .35.079.645.237.882.196.294.486.44.868.44.222 0 .418-.058.587-.176.169-.119.323-.32.463-.606l-.094-.06c-.103.16-.199.27-.289.333a.527.527 0 0 1-.3.091.576.576 0 0 1-.458-.229c-.165-.198-.256-.468-.273-.81h1.414c-.015-.42-.119-.738-.312-.951-.19-.215-.417-.322-.678-.322zm7.177 0c-.325 0-.596.11-.813.333-.215.222-.342.522-.383.899h-.441v-.678c0-.238.092-.362.276-.375v-.102h-1.323v.102c.103.009.175.042.215.1.04.056.06.148.06.275v1.618c0 .135-.022.23-.066.286-.042.055-.112.086-.209.094v.102h1.323v-.102c-.101-.008-.173-.04-.215-.1a.515.515 0 0 1-.061-.28v-.767h.441c.011.392.126.71.345.957.22.246.508.369.863.369.365 0 .657-.13.876-.389.22-.259.33-.584.33-.976 0-.398-.112-.725-.338-.98a1.117 1.117 0 0 0-.88-.386zm17.97 0c-.373 0-.667.137-.882.413-.213.274-.32.595-.32.965 0 .358.105.673.314.945.21.272.509.408.896.408.395 0 .705-.15.929-.447.186-.246.279-.552.279-.918 0-.253-.051-.486-.152-.7a1.103 1.103 0 0 0-.439-.493 1.193 1.193 0 0 0-.625-.173zm8.29 0c-.373 0-.667.137-.882.413-.213.274-.32.595-.32.965 0 .358.105.673.315.945.21.272.508.408.895.408.395 0 .705-.15.93-.447.185-.246.277-.552.277-.918 0-.253-.05-.486-.15-.7a1.103 1.103 0 0 0-.44-.493 1.195 1.195 0 0 0-.625-.173zm3.319 0a.794.794 0 0 0-.439.13.984.984 0 0 0-.275.286v-.34h-1.08v.103c.12.007.202.036.244.088.043.05.064.165.064.347v2.72c0 .177-.019.286-.055.328-.055.061-.14.093-.254.097v.102h1.47v-.102a.666.666 0 0 1-.26-.033.212.212 0 0 1-.099-.105.798.798 0 0 1-.03-.27v-.96c.1.116.197.198.289.246a.864.864 0 0 0 .397.094.893.893 0 0 0 .529-.168c.16-.114.281-.279.364-.494.084-.217.127-.455.127-.716 0-.243-.04-.469-.122-.678-.08-.211-.199-.377-.355-.496a.822.822 0 0 0-.515-.18zm5.898 0c-.373 0-.668.137-.883.413-.213.274-.319.595-.319.965 0 .358.105.673.314.945.21.272.508.408.896.408.395 0 .704-.15.928-.447.186-.246.279-.552.279-.918 0-.253-.05-.486-.151-.7a1.103 1.103 0 0 0-.439-.493 1.195 1.195 0 0 0-.625-.173zm5.247 0c-.373 0-.667.137-.882.413-.213.274-.32.595-.32.965 0 .358.105.673.314.945.21.272.509.408.897.408.395 0 .704-.15.928-.447.186-.246.279-.552.279-.918 0-.253-.051-.486-.152-.7a1.103 1.103 0 0 0-.438-.493 1.193 1.193 0 0 0-.626-.173zm7.089 0c-.373 0-.667.137-.882.413-.214.274-.32.595-.32.965 0 .358.105.673.314.945.21.272.508.408.896.408.395 0 .704-.15.929-.447.185-.246.278-.552.278-.918 0-.253-.05-.486-.151-.7a1.103 1.103 0 0 0-.438-.493 1.195 1.195 0 0 0-.626-.173zm8.756 0c-.397 0-.709.16-.935.482a1.569 1.569 0 0 0-.28.926c0 .364.102.675.308.934a1 1 0 0 0 .824.389c.204 0 .396-.055.576-.166a1.29 1.29 0 0 0 .455-.51l-.086-.065a1.18 1.18 0 0 1-.286.24.545.545 0 0 1-.256.062.565.565 0 0 1-.359-.118c-.134-.108-.24-.273-.317-.493a2.11 2.11 0 0 1-.116-.698c0-.292.048-.509.144-.65.062-.094.138-.14.226-.14.057 0 .107.023.149.069.042.045.068.126.08.242.016.184.06.311.13.383a.367.367 0 0 0 .27.107.335.335 0 0 0 .247-.093.333.333 0 0 0 .097-.25c0-.166-.08-.316-.237-.45-.156-.135-.368-.201-.634-.201zm5.721 0c-.202 0-.397.032-.584.096a.986.986 0 0 0-.438.278.567.567 0 0 0-.157.378c0 .094.038.176.115.245.08.07.177.105.293.105a.365.365 0 0 0 .261-.094.308.308 0 0 0 .103-.231c0-.074-.035-.15-.105-.23-.052-.056-.077-.104-.077-.142 0-.044.023-.083.071-.116a.508.508 0 0 1 .295-.08c.074 0 .14.02.199.058.058.036.098.08.118.132.022.05.033.172.033.367v.259c-.568.26-.936.47-1.105.628-.169.156-.254.333-.254.53a.494.494 0 0 0 .513.506c.25 0 .532-.138.846-.416.018.14.07.245.152.315a.526.526 0 0 0 .344.101c.125 0 .237-.03.334-.09.1-.063.194-.162.286-.298l-.082-.066c-.05.068-.098.102-.146.102a.1.1 0 0 1-.064-.022.133.133 0 0 1-.041-.066 1.055 1.055 0 0 1-.014-.224v-1c0-.278-.013-.455-.038-.532a.722.722 0 0 0-.279-.336c-.141-.105-.334-.157-.579-.157zm-2.044.033a.55.55 0 0 0-.411.154c-.1.101-.198.285-.295.551-.07.19-.143.318-.22.386-.076.066-.216.1-.422.1v-.635c0-.167.016-.276.05-.327.034-.052.101-.08.2-.083v-.102h-1.312v.102c.11 0 .186.032.227.096.042.062.063.18.063.35v1.522c0 .18-.027.292-.08.336a.33.33 0 0 1-.21.069v.102h1.312v-.102c-.09-.006-.154-.039-.192-.1-.039-.062-.058-.174-.058-.336v-.717h.165l.766 1.255h.992v-.102c-.141-.011-.276-.121-.405-.33l-.245-.395c-.136-.222-.246-.365-.33-.428-.083-.062-.218-.112-.403-.148a.719.719 0 0 0 .151-.177c.03-.053.083-.182.16-.388.096-.252.19-.378.284-.378.063 0 .095.074.097.223.003.213.109.32.317.32a.31.31 0 0 0 .245-.107.388.388 0 0 0 .096-.265.382.382 0 0 0-.162-.322.61.61 0 0 0-.38-.124zm7.397 0a.549.549 0 0 0-.41.154c-.1.101-.198.285-.296.551-.07.19-.143.318-.22.386-.076.066-.216.1-.422.1v-.635c0-.167.016-.276.05-.327.034-.052.102-.08.201-.083v-.102h-1.312v.102c.11 0 .185.032.226.096.042.062.063.18.063.35v1.522c0 .18-.027.292-.08.336a.329.329 0 0 1-.21.069v.102h1.313v-.102c-.09-.006-.155-.039-.193-.1-.039-.062-.058-.174-.058-.336v-.717h.165l.767 1.255h.992v-.102c-.142-.011-.277-.121-.405-.33l-.246-.395c-.136-.222-.246-.365-.33-.428-.083-.062-.217-.112-.403-.148a.719.719 0 0 0 .152-.177 3.93 3.93 0 0 0 .16-.388c.095-.252.19-.378.284-.378.062 0 .094.074.096.223.003.213.11.32.317.32a.31.31 0 0 0 .245-.107.388.388 0 0 0 .097-.265.383.383 0 0 0-.163-.322.61.61 0 0 0-.38-.124zm-105.004.044v.102c.103 0 .176.023.22.071.046.046.07.154.07.323v1.54c0 .18-.021.298-.061.353-.04.055-.117.084-.229.086v.102h1.312v-.102c-.101 0-.168-.026-.201-.078-.033-.051-.05-.161-.05-.33v-1.894h.738v1.913a.828.828 0 0 1-.038.298c-.025.06-.096.09-.21.09v.103h1.313v-.102c-.114-.004-.192-.033-.232-.086-.04-.053-.06-.16-.06-.322v-1.535c0-.17.018-.28.054-.33.037-.054.116-.087.238-.1v-.102zm8.897 0v.102c.103 0 .176.023.22.071.046.046.07.154.07.323v1.54c0 .18-.021.298-.062.353-.04.055-.116.084-.228.086v.102h1.311v-.102c-.1 0-.168-.026-.2-.078-.034-.051-.05-.161-.05-.33v-1.894h.738v1.913a.828.828 0 0 1-.038.298c-.026.06-.096.09-.21.09v.103h1.312v-.102c-.114-.004-.191-.033-.231-.086-.04-.053-.06-.16-.06-.322v-1.535c0-.17.017-.28.054-.33.037-.054.116-.087.237-.1v-.102zm6.126 0v.102a.45.45 0 0 1 .204.036c.039.022.068.068.088.137.02.068.031.17.031.306 0 .45-.065.874-.196 1.27-.129.398-.308.605-.537.624v.78h.101c.054-.452.336-.678.847-.678h.747c.529 0 .815.226.857.678h.102v-.78c-.1-.004-.172-.028-.218-.072-.044-.046-.066-.143-.066-.292v-1.668c0-.102.017-.185.05-.248.035-.062.112-.093.234-.093v-.102zm5.468 0v.102c.12.009.196.04.23.09.034.052.051.182.051.39v1.534c0 .134-.015.225-.047.27-.029.046-.107.076-.234.089v.102h1.436c.375 0 .67-.058.885-.174.215-.116.323-.29.323-.52 0-.383-.266-.606-.797-.668.393-.1.59-.29.59-.576a.516.516 0 0 0-.284-.477c-.19-.108-.433-.162-.73-.162zm5.634 0v.672h.102c.04-.204.095-.338.165-.402s.195-.097.375-.097h.256v1.877c0 .17-.021.282-.063.34-.04.056-.116.085-.226.085v.102h1.35v-.102c-.11-.002-.186-.03-.228-.083-.04-.053-.061-.167-.061-.342v-1.877h.262c.195 0 .324.038.388.113.065.074.114.203.147.386h.101v-.672zm5.867 0v.102c.113.005.192.04.238.102.046.062.068.178.068.347v.75c0 .411-.022.684-.066.818-.044.134-.106.201-.187.201-.043 0-.063-.054-.063-.162 0-.24-.099-.359-.295-.359a.33.33 0 0 0-.254.108.387.387 0 0 0-.096.273c0 .116.044.218.132.308.09.088.209.133.356.133a.623.623 0 0 0 .603-.48c.04-.154.06-.434.06-.84v-1.128h.728v1.943c0 .15-.03.249-.09.293a.391.391 0 0 1-.227.066v.102h1.365v-.102c-.107-.004-.18-.034-.218-.091a.52.52 0 0 1-.058-.279v-1.656c0-.228.092-.343.276-.347v-.102zm8.608 0v.102c.099.002.167.013.204.036.038.022.067.068.088.137.02.068.03.17.03.306 0 .45-.065.874-.196 1.27-.128.398-.307.605-.537.624v.78h.102c.053-.452.335-.678.846-.678h.747c.529 0 .815.226.857.678h.102v-.78c-.1-.004-.172-.028-.218-.072-.044-.046-.066-.143-.066-.292v-1.668c0-.102.017-.185.05-.248.035-.062.113-.093.234-.093v-.102zm3.133 0v.102c.112.005.192.04.238.102.045.062.068.178.068.347v.75c0 .411-.022.684-.066.818-.044.134-.107.201-.187.201-.043 0-.063-.054-.063-.162 0-.24-.099-.359-.296-.359a.33.33 0 0 0-.253.108.387.387 0 0 0-.096.273c0 .116.044.218.132.308.09.088.208.133.355.133a.623.623 0 0 0 .604-.48c.04-.154.06-.434.06-.84v-1.128h.728v1.943c0 .15-.03.249-.09.293a.391.391 0 0 1-.227.066v.102h1.365v-.102c-.107-.004-.18-.034-.219-.091a.52.52 0 0 1-.057-.279v-1.656c0-.228.092-.343.276-.347v-.102zm3.967 0c-.353 0-.6.015-.74.047a.666.666 0 0 0-.36.215.595.595 0 0 0-.155.413c0 .316.195.534.585.656l-.298.802c-.084.226-.227.34-.427.342v.102h1.02l.438-1.164c.058.004.102.006.13.006l.112-.006v.599c0 .3-.09.454-.272.463v.102h1.314v-.102c-.099-.008-.17-.045-.21-.113-.04-.07-.06-.2-.06-.392v-1.469c0-.174.023-.284.069-.33a.28.28 0 0 1 .201-.07v-.101zm3.166 0v.102c.103 0 .176.023.22.071.046.046.07.154.07.323v1.54c0 .18-.02.298-.061.353-.04.055-.117.084-.229.086v.102h1.312v-.102c-.101 0-.168-.026-.201-.078-.033-.051-.05-.161-.05-.33v-1.894h.739v1.913a.828.828 0 0 1-.039.298c-.025.06-.095.09-.21.09v.103h1.313v-.102c-.114-.004-.191-.033-.232-.086-.04-.053-.06-.16-.06-.322v-1.535c0-.17.018-.28.054-.33.037-.054.116-.087.238-.1v-.102zm5.94 0v.102c.119.009.195.04.228.09.035.052.053.182.053.39v1.534c0 .134-.016.225-.047.27-.03.046-.108.076-.235.089v.102h1.437c.374 0 .67-.058.884-.174.215-.116.323-.29.323-.52 0-.383-.266-.606-.797-.668.393-.1.59-.29.59-.576a.516.516 0 0 0-.284-.477c-.19-.108-.433-.162-.73-.162zm2.81 0v.672h.102c.04-.204.096-.338.166-.402s.195-.097.375-.097h.256v1.877c0 .17-.021.282-.063.34-.04.056-.116.085-.226.085v.102h1.35v-.102c-.11-.002-.186-.03-.229-.083-.04-.053-.06-.167-.06-.342v-1.877h.262c.195 0 .324.038.388.113.065.074.113.203.146.386h.102v-.672zm8.757 0v.102c.108 0 .183.026.226.08.042.05.063.158.063.32v1.581c0 .153-.022.257-.066.312-.042.053-.117.08-.223.08v.102h1.312v-.102c-.092 0-.158-.024-.196-.072-.037-.05-.055-.156-.055-.32v-.755h.739v.775c0 .163-.019.266-.056.308-.036.04-.1.062-.192.064v.102h1.308v-.102c-.108-.004-.183-.03-.225-.078-.043-.047-.064-.152-.064-.314v-1.64c0-.123.021-.21.064-.262.044-.053.119-.08.225-.08v-.101h-1.308v.102c.11 0 .179.03.206.09a.705.705 0 0 1 .042.282v.68h-.74v-.68c0-.156.02-.257.056-.3.038-.045.104-.068.196-.072v-.102zm6.08 0v.102c.112.009.187.04.226.09.04.05.06.14.06.27v1.638c0 .145-.021.243-.063.292-.043.048-.117.075-.224.083v.102h1.379v-.102c-.129-.004-.214-.033-.257-.086-.042-.053-.063-.144-.063-.273v-1.943h.51c.207 0 .348.032.421.094.074.06.132.196.174.405h.102v-.672zm6.87 0v.102c.1.002.168.013.204.036.039.022.069.068.089.137.02.068.03.17.03.306 0 .45-.065.874-.196 1.27-.128.398-.307.605-.537.624v.78h.102c.053-.452.335-.678.846-.678h.747c.53 0 .815.226.857.678h.102v-.78c-.1-.004-.172-.028-.218-.072-.044-.046-.066-.143-.066-.292v-1.668c0-.102.016-.185.05-.248.034-.062.113-.093.234-.093v-.102zm5.46 0v.102c.103 0 .176.023.22.071.047.046.07.154.07.323v1.54c0 .18-.02.298-.061.353-.04.055-.116.084-.229.086v.102h1.312v-.102c-.101 0-.168-.026-.201-.078-.033-.051-.05-.161-.05-.33v-1.894h.739v1.913a.828.828 0 0 1-.038.298c-.026.06-.096.09-.21.09v.103h1.312v-.102c-.114-.004-.191-.033-.232-.086-.04-.053-.06-.16-.06-.322v-1.535c0-.17.018-.28.055-.33.036-.054.116-.087.237-.1v-.102zm3.106 0v.102a.462.462 0 0 1 .215.137c.06.066.154.244.279.533l.832 1.91-.08.215c-.1.275-.185.452-.259.529-.05.053-.096.08-.14.08a.074.074 0 0 1-.064-.03c-.015-.02-.023-.066-.025-.136-.002-.123-.031-.214-.088-.273a.287.287 0 0 0-.22-.088.322.322 0 0 0-.243.105.375.375 0 0 0-.096.264c0 .123.047.228.14.314.096.089.22.133.372.133.192 0 .35-.078.477-.232.09-.11.228-.404.413-.881l.736-1.91c.125-.326.215-.516.268-.57a.32.32 0 0 1 .207-.1v-.102h-.863v.102c.113.004.193.026.237.066.046.04.068.094.068.162 0 .109-.053.302-.162.58l-.3.78-.441-1.01c-.092-.205-.138-.343-.138-.413 0-.044.018-.082.055-.113.037-.031.1-.048.19-.052v-.102zm-82.346.102a.23.23 0 0 1 .155.05.49.49 0 0 1 .149.25c.033.11.05.314.05.61h-.75v-.097c0-.285.054-.509.162-.673.06-.093.139-.14.234-.14zm22.6 0a.23.23 0 0 1 .154.05.49.49 0 0 1 .15.25c.032.11.049.314.049.61h-.75v-.097c0-.285.054-.509.163-.673.06-.093.138-.14.234-.14zm7.235.013c.128 0 .226.062.292.185.066.123.1.42.1.89 0 .511-.028.851-.083 1.02-.054.167-.16.25-.318.25-.152 0-.257-.077-.314-.233-.057-.156-.085-.475-.085-.957 0-.472.032-.783.097-.931.064-.15.167-.224.31-.224zm-24.006.003c.078 0 .14.02.188.058.068.054.12.139.154.257.035.115.053.33.053.641 0 .531-.019.884-.056 1.059a.463.463 0 0 1-.143.262.312.312 0 0 1-.206.068.308.308 0 0 1-.227-.101.532.532 0 0 1-.129-.298 3.71 3.71 0 0 1-.039-.551c0-.372.01-.66.03-.869.023-.209.067-.348.133-.418a.323.323 0 0 1 .242-.108zm41.97 0c.077 0 .14.02.188.058.068.054.119.139.154.257.034.115.052.33.052.641 0 .531-.018.884-.055 1.059a.463.463 0 0 1-.143.262.312.312 0 0 1-.207.068.308.308 0 0 1-.226-.101.532.532 0 0 1-.13-.298 3.71 3.71 0 0 1-.038-.551c0-.372.01-.66.03-.869.022-.209.066-.348.133-.418a.323.323 0 0 1 .242-.108zm8.29 0c.078 0 .14.02.187.058.068.054.12.139.155.257.035.115.052.33.052.641 0 .531-.018.884-.055 1.059a.464.464 0 0 1-.143.262.312.312 0 0 1-.207.068.307.307 0 0 1-.226-.101.533.533 0 0 1-.13-.298 3.713 3.713 0 0 1-.038-.551c0-.372.01-.66.03-.869.022-.209.066-.348.133-.418a.324.324 0 0 1 .242-.108zm9.216 0c.078 0 .14.02.188.058.068.054.12.139.154.257.035.115.053.33.053.641 0 .531-.019.884-.056 1.059a.463.463 0 0 1-.143.262.312.312 0 0 1-.206.068.307.307 0 0 1-.226-.101.533.533 0 0 1-.13-.298 3.71 3.71 0 0 1-.039-.551c0-.372.01-.66.03-.869.023-.209.067-.348.133-.418a.323.323 0 0 1 .242-.108zm5.248 0c.077 0 .14.02.188.058.068.054.119.139.154.257.035.115.052.33.052.641 0 .531-.018.884-.055 1.059a.463.463 0 0 1-.143.262.312.312 0 0 1-.207.068.308.308 0 0 1-.226-.101.532.532 0 0 1-.13-.298 3.71 3.71 0 0 1-.038-.551c0-.372.01-.66.03-.869.023-.209.067-.348.133-.418a.323.323 0 0 1 .242-.108zm7.089 0c.077 0 .14.02.187.058.068.054.12.139.155.257.035.115.052.33.052.641 0 .531-.019.884-.055 1.059a.463.463 0 0 1-.144.262.312.312 0 0 1-.206.068.307.307 0 0 1-.226-.101.533.533 0 0 1-.13-.298 3.71 3.71 0 0 1-.039-.551c0-.372.01-.66.03-.869.023-.209.067-.348.133-.418a.323.323 0 0 1 .243-.108zm-69.652.055h.681v1.905c0 .219-.09.328-.268.328h-.848c.29-.427.435-1.036.435-1.828zm6.05 0c.437.006.656.168.656.488 0 .312-.219.475-.656.488zm19.527 0h.68v1.905c0 .219-.089.328-.267.328h-.849c.29-.427.436-1.036.436-1.828zm6.623 0c.073 0 .164.013.272.039v1.033a1.953 1.953 0 0 1-.088.003c-.219 0-.383-.051-.493-.154a.554.554 0 0 1-.166-.422c0-.143.04-.261.12-.355.08-.096.198-.144.355-.144zm10.164 0c.437.006.656.168.656.488 0 .312-.219.475-.656.488zm23.936 0h.68v1.905c0 .219-.088.328-.266.328h-.85c.291-.427.436-1.036.436-1.828zm-77.128.086a.32.32 0 0 1 .28.162c.106.164.158.468.158.913 0 .433-.048.727-.144.881-.064.105-.145.158-.245.158-.18 0-.35-.112-.507-.336v-1.376c.12-.268.272-.402.458-.402zm61.978 0a.32.32 0 0 1 .282.162c.104.164.157.468.157.913 0 .433-.049.727-.144.881-.064.105-.146.158-.245.158-.18 0-.35-.112-.507-.336v-1.376c.119-.268.272-.402.457-.402zm-47.603.873v.863c-.121.103-.227.154-.32.154a.25.25 0 0 1-.193-.074.316.316 0 0 1-.09-.223.51.51 0 0 1 .107-.3 1.61 1.61 0 0 1 .496-.42zm5.876 0v.863c-.121.103-.228.154-.32.154a.25.25 0 0 1-.192-.074.316.316 0 0 1-.091-.223.51.51 0 0 1 .107-.3 1.61 1.61 0 0 1 .496-.42zm74.822 0v.863c-.121.103-.227.154-.32.154a.25.25 0 0 1-.193-.074.316.316 0 0 1-.09-.223.51.51 0 0 1 .107-.3 1.61 1.61 0 0 1 .496-.42zm-78.195.19c.277 0 .476.041.595.122.121.08.182.21.182.386a.56.56 0 0 1-.163.413.536.536 0 0 1-.394.163c-.091 0-.151-.018-.179-.053-.027-.036-.041-.098-.041-.184zm36.314 0c.277 0 .476.041.595.122.121.08.182.21.182.386a.56.56 0 0 1-.163.413.536.536 0 0 1-.393.163c-.092 0-.152-.018-.18-.053-.027-.036-.041-.098-.041-.184zm-14.82 5.656l-.038.805h.105c.077-.406.254-.61.531-.61.13 0 .234.047.309.139a.564.564 0 0 1 .116.374c0 .34-.166.51-.499.51v.174c.38.022.57.193.57.513a.56.56 0 0 1-.146.405.523.523 0 0 1-.39.149c-.22 0-.434-.104-.646-.312l-.085.05c.204.356.535.535.995.535.336 0 .594-.073.774-.219a.672.672 0 0 0 .14-.934c-.085-.127-.289-.23-.608-.31.404-.104.606-.313.606-.627a.55.55 0 0 0-.24-.468c-.158-.116-.363-.174-.614-.174-.15 0-.324.027-.524.083a.802.802 0 0 1-.135.028c-.046 0-.085-.038-.116-.111zm3.509 0c-.202 0-.397.032-.585.097a.987.987 0 0 0-.438.278.565.565 0 0 0-.157.377c0 .094.039.176.116.246.079.07.177.105.292.105a.365.365 0 0 0 .262-.094.308.308 0 0 0 .102-.232c0-.073-.035-.15-.105-.228-.051-.057-.077-.105-.077-.144 0-.044.024-.083.072-.116a.508.508 0 0 1 .295-.08c.073 0 .14.02.198.059.059.036.098.08.118.132.022.05.034.172.034.366v.26c-.568.26-.936.47-1.105.628-.17.156-.254.332-.254.529a.494.494 0 0 0 .513.507c.25 0 .531-.139.846-.416.018.14.069.244.151.314a.527.527 0 0 0 .345.102c.125 0 .236-.03.333-.09.1-.063.195-.162.287-.298l-.083-.067c-.05.068-.098.102-.146.102a.1.1 0 0 1-.063-.022.133.133 0 0 1-.042-.066 1.055 1.055 0 0 1-.014-.223v-1c0-.278-.012-.455-.038-.533a.722.722 0 0 0-.278-.336c-.142-.105-.335-.157-.58-.157zm13.513 0c-.313 0-.585.128-.819.383-.231.254-.347.596-.347 1.026 0 .35.08.644.237.881.197.294.486.442.868.442.223 0 .418-.06.587-.177.17-.12.324-.322.463-.606l-.093-.06c-.103.159-.2.27-.29.333-.09.06-.19.09-.3.09a.576.576 0 0 1-.458-.228c-.165-.199-.256-.469-.272-.81h1.413c-.014-.422-.118-.738-.311-.952-.191-.215-.417-.322-.678-.322zm-11.98.077v.102c.117.006.194.037.23.094.04.057.058.161.058.314v1.593a.636.636 0 0 1-.05.267c-.03.07-.11.105-.239.105v.102h3.368c.307 0 .528.058.664.174.138.115.217.284.238.504h.104v-.78c-.105 0-.18-.027-.226-.08-.044-.053-.066-.158-.066-.314v-1.549c0-.178.02-.293.06-.344.04-.054.118-.082.232-.086v-.102h-1.3v.102c.097.017.16.053.19.11s.047.164.047.32v1.613c0 .11-.017.181-.05.214-.031.032-.094.048-.188.048h-.262c-.097 0-.161-.017-.192-.05-.032-.035-.047-.11-.047-.223v-1.602c0-.158.015-.265.047-.322.033-.057.097-.093.192-.108v-.102h-1.253v.102c.097.017.161.055.192.113.033.06.05.171.05.336v1.583c0 .112-.017.185-.052.22-.033.035-.097.053-.19.053h-.281c-.085 0-.142-.019-.172-.056-.029-.038-.043-.11-.043-.217v-1.624c0-.143.016-.243.05-.3.034-.057.096-.093.186-.108v-.102zm4.759 0v.102c.193 0 .29.129.29.386v1.59c0 .147-.023.25-.067.309-.044.059-.118.088-.223.088v.102h1.312v-.102c-.165-.005-.25-.129-.251-.37l.739-1.261v1.262c0 .246-.083.37-.248.37v.101h1.311v-.102c-.108 0-.184-.025-.228-.077-.042-.051-.064-.153-.064-.306v-1.64c0-.136.024-.228.072-.275.048-.048.121-.073.22-.075v-.102h-1.311v.102c.086 0 .148.027.187.08.039.054.06.148.06.284l-.738 1.279v-1.257c0-.15.018-.252.053-.303.036-.052.103-.08.198-.083v-.102zm3.161 0v.673h.102c.04-.204.096-.338.166-.403.07-.064.194-.096.374-.096h.257v1.877c0 .169-.022.282-.064.339-.04.057-.115.085-.226.085v.102h1.35v-.102c-.11-.002-.186-.03-.228-.082-.04-.054-.06-.167-.06-.342v-1.877h.261c.195 0 .325.037.389.113.064.073.113.202.146.386h.102v-.673zm4.018.102a.23.23 0 0 1 .155.05.49.49 0 0 1 .149.25c.033.11.05.314.05.61h-.75v-.097c0-.285.054-.509.162-.672.061-.094.139-.14.234-.14zm-13.344 1.031v.863c-.122.103-.228.154-.32.154a.25.25 0 0 1-.193-.074.316.316 0 0 1-.091-.223.51.51 0 0 1 .107-.301 1.61 1.61 0 0 1 .497-.419zm15.21.596a.443.443 0 0 0-.325.134.448.448 0 0 0-.132.325.449.449 0 0 0 .457.458.448.448 0 0 0 .326-.132.444.444 0 0 0 .135-.326.443.443 0 0 0-.135-.325.437.437 0 0 0-.326-.134z" font-weight="700" font-size="21.333" font-family="Times New Roman" letter-spacing="0" word-spacing="0" text-anchor="middle"/><path d="M208.422 119.217c-4.15 0-7.404 1.861-8.658 4.953l-.526 1.296-1.82.11c-2.233.134-2.72.388-3.043 1.59-.55 2.044-.014 4.049 1.221 4.564.241.1 6.129.163 13.083.139l12.644-.045.566-.531c.528-.497.566-.665.566-2.535 0-2.829-.306-3.123-3.37-3.237l-1.505-.055-.42-1.128c-1.167-3.138-4.551-5.121-8.738-5.121zm.056 2.202c.373.009.748.152 1.104.432 1.167.918.867 2.776-.528 3.262-.383.134-.707.239-.719.235-1.93-.75-2.44-2.102-1.245-3.298.43-.43.908-.642 1.388-.63zm-15.855 5.445c-1.052-.004-2.528.418-3.298 1.067-1.362 1.145-1.293-.276-1.289 26.634l.003 24.618.49.856c.61 1.07 1.422 1.683 2.503 1.892 1.124.217 31.496.23 33.752.014 2.119-.202 3.001-.718 3.62-2.115.393-.89.41-1.947.405-25.345-.004-23.222-.024-24.458-.407-25.292-.222-.482-.608-1.06-.858-1.282-.63-.56-1.953-.999-3.043-1.01-1.544-.017-1.607.057-1.607 1.888 0 1.74-.347 2.743-1.084 3.138-.276.148-4.95.226-13.499.226h-13.077l-.64-.64c-.6-.6-.642-.752-.642-2.369 0-1.05-.103-1.83-.263-1.99-.197-.197-.588-.288-1.066-.29zm-1.34 8.907h34.229l.5.499.5.5V178.623l-.5.5h-.001l-.5.499-16.821.054c-13.217.042-16.939-.006-17.366-.224-1.107-.565-1.1-.474-1.09-14.031.003-6.743-.245-15.012-.002-23.024l-.02-5.382.535-.622zm9.456 5.84c-5.41-.001-5.691.08-5.691.37 0 .222.066.47.148.552.081.081 5.927.122 12.99.091 12.679-.056 12.844-.062 12.844-.495s-.165-.44-12.991-.495a1926.29 1926.29 0 0 0-7.3-.023zm0 6.577c-5.41 0-5.691.08-5.691.37 0 .223.066.471.148.553.081.081 5.927.122 12.99.091 12.679-.056 12.844-.062 12.844-.495s-.165-.44-12.991-.495c-3.123-.014-5.496-.023-7.3-.024zm2.172 6.593c-4.73.007-7.621.064-7.715.158-.114.114-.147.362-.074.552.12.31 1.46.34 13.02.288 12.723-.055 12.888-.062 12.888-.495s-.165-.439-12.814-.495c-1.949-.008-3.73-.011-5.305-.008zm0 6.577c-4.73.008-7.621.064-7.715.159-.114.113-.147.362-.074.551.12.31 1.46.34 13.02.29 12.723-.056 12.888-.063 12.888-.496s-.165-.439-12.814-.495c-1.949-.008-3.73-.011-5.305-.009zm-7.753 6.643l-.07.496-.071.495 13.006-.057c12.842-.056 13.007-.062 13.007-.495 0-.435-.146-.439-12.936-.439zm0 6.578l-.07.495-.071.495 13.006-.056c12.842-.056 13.007-.062 13.007-.495 0-.435-.146-.44-12.936-.44z" fill="#333945"/><path d="M212.364 185.263c-.248-.28-.446-.528-.44-.55l.088-.423c.073-.353.07-.387-.032-.462-.147-.107-.382-.058-.932.192l-.445.203-.15-.136c-.453-.411-1.115-1.297-1.553-2.077l-.214-.38.308-.597c.17-.329.308-.65.308-.715 0-.065-.117-.381-.261-.703-.4-.895-.492-1.21-.398-1.362.37-.595 2.847-3.623 5.04-6.16 2.803-3.243 3.123-3.622 3.123-3.694 0-.024-.227-.452-.504-.95-2.307-4.15-4.48-9.034-5.16-11.597l-.145-.545.397-.535c.218-.295.643-.79.944-1.1l.547-.565.4.32c.22.177.441.384.491.46.066.1.148.14.297.14.265 0 .468-.258.57-.721.185-.843.379-1.149.856-1.348.282-.118.485-.118.714 0 .39.203.68.561 1.447 1.792 1.977 3.176 5.143 7.875 5.273 7.828.027-.01.77-.801 1.653-1.759 4.568-4.955 9.595-9.935 10.027-9.935.052 0 .179.06.283.134.291.205 1.19 1.062 1.373 1.309l.164.22-.119.232a1.15 1.15 0 0 0-.118.308c0 .1.777.739.897.738.052 0 .232-.038.402-.083l.308-.082.517.763c.285.42.517.795.517.835 0 .117-.215.508-.45.815-.175.23-.21.318-.18.458.037.162-.067.282-1.607 1.87-3.266 3.368-6.31 6.782-8.808 9.882-.248.307-.45.565-.45.573 0 .033 2.592 3.406 3.627 4.72 1.294 1.642 2.682 3.314 3.303 3.978l.437.466-.069.284c-.17.703-.531 1.375-.944 1.76-.127.118-.515.445-.862.727-.824.668-.793.626-.693.958l.082.274-.44.455c-.419.432-.972.821-1.17.822-.05 0-.37-.202-.712-.45-.381-.275-.65-.431-.697-.404-.041.024-.212.201-.379.394-.554.636-1.396 1.301-1.648 1.301-.22 0-.445-.178-.968-.771-1.086-1.23-1.844-2.236-3.41-4.529a75.161 75.161 0 0 0-1.214-1.73l-.427-.577-.237.337c-.13.185-1.024 1.363-1.986 2.618a275.046 275.046 0 0 0-3.566 4.787l-1.818 2.506-.369-.004-.368-.004z" fill="#fecfcf"/><path d="M212.377 185.257l-.48-.526.112-.36c.225-.723.048-.768-1.16-.295l-.285.11-.247-.237c-.29-.28-.743-.881-1.182-1.571-.48-.754-.477-.725-.16-1.27.39-.67.394-.768.071-1.515a14.587 14.587 0 0 1-.371-.94l-.103-.315 1.247-1.602c.686-.881 2.464-3.01 3.952-4.731a401.525 401.525 0 0 0 2.891-3.365l.186-.237-.54-.96c-1.986-3.54-4.137-8.274-4.976-10.956-.367-1.172-.37-1.133.11-1.766.223-.295.637-.777.919-1.072l.513-.535.36.291c.199.16.444.377.545.48.363.372.73.094.9-.684.174-.792.432-1.143.942-1.28.604-.162 1.03.207 1.941 1.685a153.003 153.003 0 0 0 4.807 7.278l.544.765 1.663-1.801c3.93-4.257 8.471-8.825 9.679-9.736l.33-.25.218.116c.12.064.522.414.895.778.71.693.779.82.586 1.076a.44.44 0 0 0-.088.213c0 .102.314.424.66.675.201.146.222.149.48.07.15-.046.317-.083.373-.084.102 0 1.128 1.416 1.128 1.557 0 .114-.179.433-.433.775-.188.252-.232.356-.206.487.03.152-.094.298-1.384 1.63-3.021 3.12-6.21 6.664-8.322 9.25a85.67 85.67 0 0 0-1.09 1.349c-.07.101.066.3 1.371 2.005 2.749 3.587 4.538 5.8 5.488 6.786l.441.459-.098.382c-.127.491-.383 1.028-.661 1.385-.121.156-.535.538-.92.85-.983.797-.975.786-.895 1.132l.065.283-.445.456c-.417.428-.955.809-1.142.808-.046 0-.29-.155-.544-.345a10.6 10.6 0 0 0-.64-.45l-.177-.104-.742.735c-.863.856-1.246 1.089-1.546.94-.218-.107-.921-.876-1.727-1.886-.698-.875-1.197-1.565-2.365-3.272-.693-1.013-1.545-2.213-1.672-2.356-.023-.025-.16.124-.305.33-.145.207-1.05 1.402-2.012 2.657a270.177 270.177 0 0 0-3.543 4.757l-1.794 2.476h-.681z" fill="#feafaf"/><path d="M212.395 185.267l-.47-.515.068-.28c.037-.154.084-.337.104-.407a.233.233 0 0 0-.067-.229c-.133-.133-.445-.084-.975.154-.214.096-.438.159-.497.14-.186-.06-.7-.672-1.225-1.462-.633-.953-.658-1.015-.506-1.276.265-.456.475-.931.475-1.072 0-.083-.097-.367-.215-.63a13.843 13.843 0 0 1-.364-.913l-.15-.433 1.229-1.578c.675-.869 2.467-3.014 3.981-4.768a373.78 373.78 0 0 0 2.912-3.396l.159-.207-.389-.686c-2.273-4.014-4.798-9.672-5.332-11.949l-.108-.457.42-.566c.23-.31.648-.805.927-1.098l.508-.532.437.385c.752.66.681.622.926.506.238-.113.343-.32.46-.902.086-.424.297-.816.528-.98.251-.18.652-.27.863-.197.432.15.69.467 1.711 2.098 1.518 2.423 4.258 6.527 5.008 7.498l.104.136 1.371-1.486c3.812-4.132 8.745-9.108 9.951-10.037l.346-.266.209.113c.293.158 1.582 1.42 1.582 1.548 0 .059-.053.21-.117.337-.14.275-.13.294.403.717l.376.297.314-.083c.173-.046.347-.084.386-.085.039 0 .304.34.588.758.597.874.594.827.117 1.508-.21.302-.27.433-.245.553.028.14-.134.328-1.42 1.657-3.25 3.357-6.35 6.818-8.648 9.653l-.82 1.014.163.217c2.918 3.872 5.784 7.456 6.755 8.447l.476.486-.1.384c-.234.913-.61 1.436-1.62 2.261-.95.776-.95.778-.861 1.11l.072.273-.506.506c-.29.29-.627.564-.79.642-.33.158-.263.184-1.12-.43-.266-.19-.498-.345-.517-.345-.02 0-.351.318-.738.708-.745.75-1.22 1.075-1.468 1-.19-.056-.56-.424-1.27-1.258-.9-1.057-1.553-1.94-2.976-4.022-1.033-1.513-1.634-2.323-1.683-2.268-.022.026-.198.263-.391.527a241.7 241.7 0 0 1-1.916 2.522 259.696 259.696 0 0 0-3.426 4.606l-1.86 2.565-.335.001-.335.001-.47-.515z" fill="#fe9090"/><path d="M212.395 185.264l-.475-.52.102-.386c.137-.521.076-.646-.29-.596-.143.02-.45.121-.683.225l-.424.19-.21-.16c-.365-.278-1.54-1.942-1.634-2.312-.027-.104.04-.29.242-.667.162-.302.28-.601.28-.71 0-.104-.11-.432-.244-.73-.199-.44-.477-1.161-.477-1.235 0-.01.564-.742 1.252-1.627.69-.885 2.435-2.973 3.88-4.64 1.444-1.668 2.742-3.183 2.884-3.367l.26-.335-.42-.746c-2.301-4.089-4.781-9.665-5.333-11.989-.074-.316-.074-.32.135-.633.257-.387.719-.946 1.231-1.49l.387-.409.182.13c.1.072.353.29.562.485.376.351.381.354.593.284.255-.084.408-.347.505-.868.132-.718.439-1.108.963-1.226.2-.045.313-.039.463.024.45.188.665.447 1.56 1.884 1.403 2.254 4.779 7.312 5.185 7.77.025.028.7-.661 1.503-1.53a206.663 206.663 0 0 1 6.755-7.009c2.02-1.993 2.85-2.766 3.281-3.053l.226-.15.241.168c.4.277 1.5 1.38 1.499 1.505a.802.802 0 0 1-.119.308c-.065.107-.102.235-.083.285.03.079.643.597.84.71.038.022.2 0 .36-.048.161-.05.326-.09.368-.09.04 0 .307.35.592.777l.517.776-.127.264c-.07.144-.223.375-.34.512-.204.238-.238.336-.196.562.012.064-.517.653-1.455 1.621-3.183 3.282-6.412 6.897-8.751 9.795-.376.465-.653.86-.63.898.023.036.663.878 1.423 1.87 2.725 3.559 4.539 5.8 5.419 6.698l.501.511-.123.444c-.27.972-.538 1.33-1.742 2.321-.427.351-.776.664-.776.695 0 .031.03.175.066.32l.067.265-.472.474c-.274.276-.607.543-.795.638l-.324.164-.277-.196c-.808-.574-1.018-.715-1.07-.715-.031 0-.266.23-.521.51-.702.771-1.41 1.28-1.666 1.198-.465-.148-2.176-2.25-3.954-4.86-.868-1.273-1.91-2.73-1.951-2.73-.013 0-.11.127-.218.284-.108.157-1.034 1.382-2.06 2.722a268.905 268.905 0 0 0-3.604 4.845l-1.74 2.41-.333.001-.332.002z" fill="#fe6f6f"/><path d="M212.45 185.316a9.208 9.208 0 0 1-.467-.537c-.024-.04.003-.247.06-.46.089-.334.092-.402.02-.49-.117-.14-.508-.08-1.024.159-.388.178-.408.181-.557.084-.325-.213-1.607-1.994-1.7-2.362-.025-.099.047-.297.242-.668.164-.31.278-.606.278-.72 0-.106-.097-.414-.217-.683-.12-.27-.279-.67-.355-.89l-.138-.402 1.196-1.543c.659-.85 2.437-2.978 3.96-4.74 1.52-1.757 2.843-3.302 2.94-3.433l.174-.238-.633-1.135c-.835-1.499-2.39-4.617-3.05-6.118-1.29-2.933-2.237-5.612-2.083-5.899.117-.22.805-1.077 1.271-1.585l.486-.53.346.27c.19.15.428.366.53.48.205.232.3.253.55.123.206-.106.352-.397.434-.865.128-.727.559-1.197 1.116-1.218.525-.021.853.324 1.894 1.99 1.063 1.7 2.133 3.355 2.913 4.502 1.035 1.524 2.25 3.242 2.288 3.237.02-.002.643-.668 1.386-1.48 3.712-4.054 8.902-9.278 10.041-10.105.136-.098.273-.152.342-.134.179.047 1.462 1.238 1.59 1.475.112.208.112.212-.017.431-.165.28-.13.348.38.748l.392.309.366-.095c.201-.052.377-.084.39-.07.014.013.252.355.529.76.57.832.57.827.177 1.372l-.294.407a.258.258 0 0 0-.038.27c.049.131-.07.27-1.335 1.572-3.183 3.277-6.657 7.166-9.032 10.113-.31.384-.48.644-.452.69.025.042.612.818 1.305 1.726 2.612 3.421 4.833 6.165 5.64 6.968l.395.394-.091.356c-.134.52-.48 1.203-.764 1.513-.137.148-.596.553-1.021.9-.837.682-.809.635-.67 1.125.079.275-1.295 1.466-1.58 1.369a1.622 1.622 0 0 1-.31-.196c-.322-.247-.948-.663-.998-.663-.025 0-.33.293-.679.652-.378.388-.784.74-1.006.872-.355.211-.38.218-.57.138-.11-.045-.416-.323-.681-.617-1.114-1.234-1.96-2.359-3.721-4.947a54.95 54.95 0 0 0-1.012-1.437l-.42-.566-.124.17c-.068.095-.94 1.24-1.94 2.548a287.613 287.613 0 0 0-3.692 4.97l-1.875 2.592-.33.002-.33.002-.425-.463z" fill="#fe4e4e"/><path d="M212.514 185.38c-.627-.698-.59-.614-.471-1.06.086-.323.09-.405.025-.484-.122-.146-.407-.112-.957.115l-.504.207-.169-.133c-.4-.316-1.676-2.143-1.676-2.402 0-.065.098-.278.218-.475.12-.197.253-.478.298-.626.078-.26.074-.281-.163-.82a16.069 16.069 0 0 1-.382-.95l-.138-.397 1.217-1.569c.67-.863 2.391-2.926 3.826-4.586 1.436-1.659 2.754-3.19 2.93-3.401l.32-.385-.108-.185c-2.192-3.773-4.742-9.362-5.533-12.127l-.214-.748.196-.289c.282-.413.762-1.003 1.21-1.489.378-.408.393-.417.544-.336.085.046.337.255.558.465.421.398.56.449.791.288.18-.127.286-.347.37-.777.16-.808.51-1.222 1.082-1.277.58-.056.843.219 2.045 2.147 1.715 2.751 4.986 7.597 5.098 7.552.025-.01.743-.774 1.595-1.699 3.907-4.235 8.708-9.06 9.835-9.882.215-.157.243-.163.396-.084.221.114 1.298 1.109 1.484 1.37l.149.208-.13.253c-.07.14-.115.288-.098.331.016.043.221.233.455.422l.426.344.364-.102c.2-.057.377-.09.393-.074.016.016.254.362.53.77.598.885.606.78-.135 1.79-.052.07-.06.15-.024.248.049.131-.086.287-1.55 1.795-3.168 3.263-6.275 6.741-8.693 9.733-.337.417-.612.775-.612.796 0 .048 2.677 3.544 3.86 5.04 1.175 1.486 2.268 2.8 2.943 3.538l.538.588-.074.343c-.098.45-.421 1.12-.693 1.436-.12.14-.57.54-.999.89-.43.351-.796.677-.814.724-.018.048-.005.198.03.335.063.248.062.25-.27.629-.371.423-.978.86-1.194.86-.078 0-.396-.185-.72-.42-.32-.23-.611-.42-.649-.419-.1.001-.153.05-.572.528-.41.468-.902.877-1.298 1.078-.334.17-.489.092-1.054-.533-1.018-1.127-2.004-2.43-3.448-4.556-.726-1.068-1.688-2.4-1.734-2.4-.014 0-.129.14-.255.314s-.932 1.23-1.79 2.35a287.706 287.706 0 0 0-3.577 4.802l-2.015 2.768-.326.015-.327.015z" fill="#fe2e2e"/><path d="M212.631 185.467c-.164-.173-.385-.41-.49-.526l-.192-.21.1-.377c.123-.455.074-.574-.247-.601-.151-.013-.375.048-.713.194l-.493.213-.32-.314c-.316-.31-1.407-1.876-1.48-2.122-.025-.086.061-.314.27-.716.355-.682.355-.686.002-1.465-.363-.8-.458-1.138-.365-1.29.37-.595 2.848-3.623 5.04-6.158 2.765-3.199 3.123-3.622 3.123-3.694 0-.023-.199-.397-.442-.83-2.28-4.06-4.526-9.084-5.233-11.708l-.144-.535.22-.306c.382-.528.893-1.133 1.266-1.499l.36-.353.351.284c.193.156.413.362.49.458.168.21.404.23.628.054.166-.13.293-.438.399-.961.125-.623.502-1.016 1.021-1.066.252-.024.328-.003.553.153.388.269.45.35 1.337 1.769 1.982 3.171 5.093 7.79 5.248 7.79.025 0 .747-.763 1.603-1.693 3.142-3.414 5.523-5.864 7.817-8.046 1.536-1.46 2.123-1.968 2.276-1.968.051 0 .22.093.373.206.297.217 1.387 1.317 1.387 1.397a.996.996 0 0 1-.12.245c-.066.108-.12.233-.12.278 0 .084.282.36.676.659l.225.171.374-.094c.287-.072.384-.077.416-.022.023.04.246.368.496.73s.454.717.454.788c0 .127-.314.64-.554.905-.087.096-.107.176-.078.309.037.168-.038.257-1.324 1.58-2.989 3.077-6.131 6.57-8.385 9.324-.62.757-1.12 1.412-1.111 1.454.02.092 2.051 2.756 3.584 4.702 1.324 1.681 2.755 3.403 3.333 4.012l.418.44-.1.386c-.23.875-.582 1.382-1.437 2.073-.34.275-.732.604-.87.73l-.251.23.085.281.084.281-.314.328c-.381.398-.427.439-.746.666-.435.31-.512.297-1.172-.18-.321-.233-.623-.423-.67-.423-.047 0-.42.332-.827.737-1.077 1.071-1.323 1.146-1.87.564-1.07-1.14-2.037-2.402-3.65-4.764-.726-1.062-1.59-2.28-1.73-2.435-.022-.025-.159.124-.304.33-.145.207-1.05 1.402-2.012 2.657a273.179 273.179 0 0 0-3.566 4.787l-1.818 2.506h-.28c-.262 0-.303-.022-.58-.315z" fill="#fe0000"/><path fill="#fff" d="M190.145 101.054h56.688v13.096h-56.688z"/><path style="line-height:1.25;-inkscape-font-specification:'Times New Roman, Bold';font-variant-ligatures:normal;font-variant-caps:normal;font-variant-numeric:normal;font-feature-settings:normal;text-align:center" d="M225.103 102.284a.466.466 0 0 0-.341.143.528.528 0 0 0-.144.391c0 .313.179.56.535.745.36.183.834.275 1.422.275.58 0 1.038-.092 1.373-.275.334-.184.501-.432.501-.745 0-.169-.048-.299-.143-.39a.473.473 0 0 0-.348-.144c-.29 0-.51.237-.661.71-.059.188-.13.322-.215.403-.084.081-.277.122-.579.122-.224 0-.39-.04-.501-.122-.107-.08-.191-.224-.254-.43-.14-.455-.354-.683-.645-.683zm-25.311 2.199c-.625 0-1.17.256-1.637.766-.463.507-.695 1.191-.695 2.05 0 .703.158 1.29.474 1.765.393.588.972.882 1.736.882.445 0 .836-.118 1.174-.353.338-.24.647-.643.926-1.213l-.187-.121c-.206.32-.399.542-.579.667-.18.121-.38.182-.6.182-.357 0-.662-.153-.916-.458-.33-.397-.512-.937-.545-1.62h2.827c-.029-.842-.236-1.476-.622-1.902-.382-.43-.834-.645-1.356-.645zm15.367 0c-.316 0-.608.087-.876.26-.188.117-.371.308-.551.572v-.678h-2.161v.205c.242.014.406.073.49.176.085.099.127.33.127.694v5.44c0 .354-.036.572-.11.657-.11.12-.28.186-.507.193v.203h2.938v-.203c-.257 0-.43-.022-.518-.066a.425.425 0 0 1-.199-.21c-.04-.096-.06-.276-.06-.54v-1.918c.202.231.395.395.579.49.246.125.51.188.793.188.39 0 .743-.113 1.059-.337.32-.228.562-.556.727-.986.17-.434.254-.911.254-1.433 0-.485-.081-.937-.243-1.356-.161-.423-.398-.754-.71-.992a1.644 1.644 0 0 0-1.032-.36zm5.292 0c-.746 0-1.334.276-1.764.827-.426.547-.639 1.19-.639 1.93 0 .716.21 1.346.628 1.89.42.544 1.016.816 1.791.816.79 0 1.41-.298 1.858-.893.371-.493.557-1.105.557-1.836 0-.507-.1-.973-.303-1.4a2.206 2.206 0 0 0-.876-.987 2.39 2.39 0 0 0-1.252-.347zm17.815 0c-.624 0-1.17.256-1.637.766-.463.507-.694 1.191-.694 2.05 0 .703.158 1.29.474 1.765.393.588.972.882 1.736.882.445 0 .836-.118 1.174-.353.338-.24.647-.643.926-1.213l-.187-.121c-.206.32-.399.542-.579.667-.18.121-.38.182-.6.182-.357 0-.662-.153-.916-.458-.33-.397-.513-.937-.546-1.62h2.828c-.03-.842-.237-1.476-.623-1.902-.382-.43-.834-.645-1.356-.645zm-47.36.154v.205c.217 0 .368.053.452.16.085.102.127.315.127.639v3.164c0 .305-.044.512-.133.622-.084.107-.233.16-.446.16v.204h2.624v-.203c-.184 0-.314-.049-.392-.144-.073-.1-.11-.312-.11-.64v-1.51h1.477v1.55c0 .326-.036.532-.11.616-.073.081-.202.124-.386.128v.203h2.619v-.203c-.217-.007-.368-.06-.453-.155-.084-.095-.126-.305-.126-.628v-3.28c0-.246.042-.42.126-.524.089-.106.24-.16.453-.16v-.204h-2.619v.205c.22 0 .358.06.414.182.055.117.082.305.082.562v1.36h-1.477v-1.36c0-.313.037-.513.11-.601.078-.088.208-.136.392-.143v-.205zm14.331 0v.205c.206 0 .354.047.442.143.092.092.137.307.137.645v3.081c0 .36-.04.595-.12.706-.082.11-.234.167-.459.17v.204h2.625v-.203c-.203 0-.337-.052-.403-.155-.066-.103-.1-.323-.1-.661v-3.787h1.478v3.825c0 .276-.026.474-.077.596-.052.12-.191.182-.419.182v.203h2.624v-.203c-.228-.007-.382-.065-.463-.171-.081-.107-.122-.322-.122-.645v-3.07c0-.339.037-.56.11-.662.074-.107.232-.173.475-.198v-.205zm18.433 0v.205c.386 0 .58.257.58.771v3.18c0 .295-.045.5-.133.618-.088.117-.237.177-.447.177v.203h2.624v-.203c-.33-.011-.498-.258-.502-.74l1.478-2.524v2.525c0 .492-.166.739-.496.739v.203h2.623v-.203c-.217 0-.369-.052-.457-.155-.085-.103-.127-.307-.127-.612v-3.28c0-.272.048-.455.143-.55.096-.096.243-.146.441-.15v-.204h-2.623v.205c.172 0 .297.053.374.16.077.106.118.295.122.567l-1.478 2.558v-2.514c0-.301.035-.503.105-.606.074-.103.206-.158.397-.165v-.205zm6.94 0v.205c.198.004.334.027.408.07.077.045.136.137.176.277.04.136.061.34.061.612 0 .9-.13 1.747-.391 2.54-.257.794-.616 1.21-1.075 1.247v1.56h.203c.107-.905.671-1.357 1.693-1.357h1.494c1.058 0 1.63.452 1.714 1.356h.204v-1.56c-.198-.006-.344-.055-.436-.143-.088-.092-.132-.286-.132-.584v-3.335c0-.206.033-.371.1-.496.07-.125.226-.187.468-.187v-.205zm10.28 0v.205c.217 0 .368.053.452.16.085.102.127.315.127.639v3.164c0 .305-.044.512-.133.622-.084.107-.233.16-.446.16v.204h2.624v-.203c-.184 0-.314-.049-.392-.144-.073-.1-.11-.312-.11-.64v-1.51h1.478v1.55c0 .326-.037.532-.11.616-.074.081-.203.124-.386.128v.203h2.618v-.203c-.217-.007-.368-.06-.452-.155-.085-.095-.127-.305-.127-.628v-3.28c0-.246.042-.42.127-.524.088-.106.238-.16.452-.16v-.204h-2.618v.205c.22 0 .358.06.413.182.055.117.083.305.083.562v1.36h-1.478v-1.36c0-.313.037-.513.11-.601.078-.088.208-.136.392-.143v-.205zm-41.181.205c.129 0 .231.033.309.099a.98.98 0 0 1 .297.501c.066.22.1.627.1 1.219h-1.5v-.194c0-.57.109-1.017.325-1.344.122-.188.278-.281.469-.281zm38.475 0c.128 0 .231.033.308.099a.98.98 0 0 1 .298.501c.066.22.1.627.1 1.219h-1.5v-.194c0-.57.108-1.017.325-1.344.121-.188.278-.281.469-.281zm-17.71.033c.153 0 .278.038.374.115.136.107.239.278.309.513.07.232.104.66.104 1.284 0 1.062-.036 1.768-.11 2.117a.926.926 0 0 1-.287.523.624.624 0 0 1-.413.138.615.615 0 0 1-.452-.204c-.132-.136-.219-.334-.26-.595a7.42 7.42 0 0 1-.076-1.102c0-.743.02-1.321.06-1.737.044-.419.133-.698.265-.837a.647.647 0 0 1 .485-.215zm11.156.11h1.361v3.809c0 .437-.178.656-.535.656h-1.697c.58-.853.87-2.071.87-3.655zm-16.983.17c.235 0 .422.11.562.326.21.327.314.935.314 1.825 0 .867-.095 1.455-.286 1.763-.129.21-.293.314-.491.314-.36 0-.698-.224-1.014-.672v-2.75c.239-.537.543-.805.915-.805z" font-weight="700" font-size="42.667" font-family="Times New Roman" letter-spacing="0" word-spacing="0" text-anchor="middle" fill="#fe0000"/></g></svg>