<svg xmlns="http://www.w3.org/2000/svg" width="229.291" height="233.724" viewBox="0 0 60.666691 61.83936"><path d="M28.42 61.707h-.41l.136-.463.136-.463.176-.992.176-.992h.735v1.176l.412-.588.412-.588h1.249l.419.16.418.16v1.532l-.529.529-.53.53H29.678l-.241-.727-.242-.725-.182.725-.182.726zm2.086-.53h.344l.318-.317.317-.317v-.921l-.276-.171-.276-.17-.385.319-.385.32v1.258zm-.343-2.92h-.133l-.872-1.491-.871-1.491.24-.24.24-.24.56.876.562.877.004-8.136.004-8.136-.198-.002-.199-.002-5.688 1.629-5.689 1.629-2.91 2.88-2.91 2.88 1.124-.175 1.124-.176v.565l-.207.129-.208.128-1.609.182-1.608.182.421-1.617.422-1.618h.715l-.178.86-.177.86 2.824-2.801 2.823-2.801-3.156-5.666-3.157-5.665-3.28-.067-3.282-.067.876.566.877.567-.24.24-.24.24-1.491-.872-1.491-.872-.005-.132-.005-.133 1.388-.793 1.39-.794h.793l.33-.214.331-.214v-.481l-.44.168-.44.17.191-.31.191-.31H7.936v1.032l-.463.27-.463.27.422.008.422.008.438-.484.438-.484v-.386l-.264.163-.265.164v-.56H9.228l.174.28.174.282-.44.485-.438.485.347.139.347.139-1.72.029-1.72.03-.513.388-.514.388h6.479l4.88-4.001 4.882-4.002v-.338l-4.527-4.494-4.526-4.495.173.992.172.992h-.716l-.41-1.713-.41-1.713.101-.102.101-.1 1.714.41 1.713.41v.716l-.992-.173-.992-.174 3.833 3.866 3.833 3.865h.706l-.085-.723-.085-.722.49-.096.489-.095-.174.884-.174.884.538-.661.539-.662.006-.198.006-.198h.823l-.1.86-.098.86-.644.02-.643.021-.655.045-.656.046.67.669.67.67 4.02-.843 4.021-.842-.004-7.434-.004-7.434-.561.876-.561.877-.24-.24-.24-.24.872-1.491.871-1.491h.265l.872 1.49.871 1.492-.24.24-.24.24-.56-.877-.562-.876-.004 7.485-.004 7.484 1.944 2.744 1.944 2.745 6.589-6.615 6.589-6.615-.86.177-.86.178v-.715l1.618-.422 1.617-.421-.182 1.609-.182 1.608-.128.208-.128.207h-.566l.175-1.124.176-1.125-6.778 6.77-6.777 6.768.852 2.028.851 2.03 9.555-.005 9.554-.004-.876-.56-.876-.562.24-.24.24-.24 1.49.872 1.492.871v.265l-1.491.872-1.492.871-.24-.24-.24-.24.877-.56.876-.562-9.542-.004-9.543-.004-.449 1.918-.449 1.919.003.399.003.399 6.367 6.347 6.367 6.348-.185-1.026-.185-1.026.36.12.359.12.37 1.514.369 1.514-.151.151-.152.152-1.514-.37-1.514-.37-.12-.359-.12-.359 1.026.184 1.027.185-6.4-6.415-6.398-6.414-2.26 1.702-2.262 1.702v8.334l-.002 8.334.561-.876.561-.876.24.24.24.24-.871 1.49-.872 1.492h-.132zm-8.72-16.366l2.502-.747 2.976-.865 2.977-.866V31.81h-.137l-5.41 5.414-5.408 5.414zm2.274-4.827l5.393-5.387-4.236-.073-4.236-.073-4.191.073-4.19.073 2.8 5.027 2.802 5.027.233.36.232.361zm7.883 1.08l1.174-.843.824-.696.825-.695-1.998-1.978-1.998-1.977V38.986zm3.08-3.097l.172-.195.404-1.654.404-1.653h-4.821l1.834 1.849 1.835 1.849zm-13.64-4.032h8.454l-3.821-3.828-3.821-3.828-.41.348-.408.348-3.836 3.12-3.837 3.12-.387.36-.387.36zm11.992 0h2.458l-.189-.595-.188-.595-.481-1.125-.482-1.124h-.166l-1.705 1.72-1.704 1.72zM29.84 26.22l.072-4.275-.138-.139-.139-.138-3.592.748-3.592.748 3.658 3.665 3.658 3.665zm2.296 2.426l1.708-1.693-.876-1.21-.877-1.21-.831-1.164-.832-1.164v8.134zM6.195 54.563h-.41l.136-.463.136-.463.176-.992.176-.992h.735v1.176l.412-.588.412-.588h1.249l.419.16.418.161v1.266h1.323v.565l-.728-.084-.727-.084-.463.463-.463.463H7.452l-.241-.725-.242-.726-.182.726-.182.725zm2.086-.529h.344l.318-.317.317-.318v-.921l-.276-.17-.276-.171-.385.32-.385.319v1.258zm4.122.53h-.761v-.83l.529.168.529.168v-.83h-.794v-.529H12.965v-.565l-.53.168-.529.168v-.508l.419-.16.418-.161h.987l-.031 1.124-.031 1.125-.252.33-.252.331zm34.538 0h-.41l.136-.464.136-.463.176-.992.176-.992h.735v1.176l.411-.588.412-.588h1.25l.418.16.419.161v1.266h1.323v.565l-.728-.084-.727-.084-.463.463-.463.463h-1.544l-.242-.725-.241-.726-.183.726-.182.725zm2.086-.53h.344l.318-.317.317-.318v-.921l-.276-.17-.276-.171-.385.32-.386.319v1.258zm4.003.53h-.907v-.24l.286-1.335.287-1.336H54.52l.162.423.163.424-.332.205-.33.205.292.18.293.182v.46l-.416.416-.416.415zm.298-.577l.41-.085.053-.243.052-.242-.298-.1-.298-.099-.164.427-.164.428zm.235-1.276h.412v-.529h-.498l-.163.265-.164.264zm-40.168-7.144h-1.316l.575-.612.575-.612v-.346l-.44.169-.44.168.175-.284.176-.284 1.323-.01 1.323-.01V44.933l-.318.317-.317.318h-1.316zm-.034-.264h.397v-.513l-.397.153-.396.152v.208zm1.191-.265l.257-.397v-.793l-.257.397-.256.396v.794zm12.364-.793h-1.29l.417-.416.415-.416v-.491h-.56l.163-.265.164-.265h.99l-.228.794-.227.794h.426l.159-.794.158-.794H28.84v1.218l-.318.317-.317.318zm1.13-.53l.256-.396v-.794l-.256.397-.257.397v.793zm6.807-3.752l-.722.083v-.53l.258-.678.258-.679h1.065l-.068.86-.069.86zm-.06-.216h.132v-.265h-.265v.265zm.264-1.059h.133v-.264h-.265v.264zM.761 32.603H0v-.83l.53.168.528.168v-.829H.265v-.529h1.058v-.565l-.53.168-.528.168v-.508l.418-.16.419-.162h.987l-.032 1.125-.031 1.124-.252.331-.251.33zm58.09 0h-.907v-.239l.286-1.336.287-1.336H60.342l.162.424.163.424-.332.204-.331.205.293.181.293.181v.46l-.416.416-.416.416zm.298-.576l.41-.086.052-.242.053-.243-.299-.1-.298-.098-.164.427-.164.427zm.234-1.276h.413v-.529h-.498l-.164.264-.163.265zM32.46 18.824l-1.54.02.415-.415.416-.416v-.491h-.56l.163-.265.164-.264h.99l-.228.793-.227.794h.41l.438-.484.437-.484v-.386l-.264.163-.265.164v-.56H33.835l.174.28.174.282-.439.485-.439.485.347.139.347.139-1.54.02zM8.047 10.642h-.62l-.274-.511-.274-.512.237-.624.237-.623.41-.34.41-.34.59.086.588.086.123.373.123.373-.466-.179-.467-.179-.363.302-.364.301v1.258h.756l.397-.397.397-.396h.87l.396.396.397.397h.492V9.32h-.794v-.53h1.058v-.564l-.529.168-.53.167v-.508l.42-.16.418-.16h.987l-.031 1.124-.032 1.124-.251.33-.252.331H10.583V9.85H9.325l-.33.397-.329.396zm40.216 0h-.62l-.273-.511-.274-.512.237-.624.237-.623.41-.34.41-.34.589.086.589.086.123.373.123.373-.467-.179-.466-.179-.363.302-.364.301v1.258h.756l.397-.397.397-.396H50.8v.529h-1.258l-.33.397-.329.396zm3.444 0H50.8v-.239l.287-1.335.286-1.336H53.198l.162.424.163.423-.331.205-.332.205.293.18.293.182v.46l-.416.416-.416.415zm.299-.576l.41-.085.052-.243.052-.242-.298-.1-.298-.099-.164.427-.164.428zm.234-1.276h.412v-.529h-.498l-.163.265-.164.264zM30.272 2.97h-.62l-.274-.512-.274-.512.237-.624.237-.623.41-.34.41-.34.59.086.588.087.123.372.123.373-.466-.179-.467-.179-.363.302-.364.301v1.316l.708-.178.708-.177-.343.413-.344.414z" fill="#cfcfcf"/><path d="M28.488 61.707h-.352l.264-1.455.263-1.455h.741l-.168.529-.167.529h.3l.529-.53.53-.528h1.258l.326.393.326.394-.162.646-.162.646-.43.43-.43.43-.688-.08-.688-.081-.294-.594-.295-.594-.175.175-.174.175v.97zm2.018-.53h.344l.318-.317.317-.317v-1.217h-1.001l-.16.418-.162.419V61.178zm-.344-3.174h-.137l-.277-.463-.278-.463-.601-.992-.602-.993h.58l.525.86.524.86v-8.268l.002-8.268h-.577l-5.599 1.63-5.598 1.629-2.91 2.898-2.91 2.898 1.124-.165 1.124-.165v.493l-.728.144-.727.145-.992.17-.993.171v-.492l.408-1.37.407-1.372h.508v.136l-.264.923-.265.923 2.932-2.932 2.932-2.932-3.156-5.665-3.157-5.666-3.413-.07-3.414-.07.86.529.86.53v.566l-1.125-.686-1.124-.685-.397-.256-.397-.255.397-.255.397-.256 1.124-.685 1.125-.686v.567l-.86.524-.86.524 3.44-.007L11.51 31l4.935-4.054 4.936-4.054-4.764-4.735-4.763-4.734.137.529.138.529.17.595.172.596h-.544l-.26-.993-.26-.992-.186-.766-.185-.766.766.186.766.185.992.26.992.26v.545l-.53-.15-.528-.15-.596-.16-.595-.158 3.966 3.995 3.965 3.995h.606l.139-.529.138-.53h-.511l.164-.264.163-.264h.63v1.852h-1.046l.683.682.682.683 3.817-.815 3.817-.815h.382l-.001-7.607-.001-7.606-.524.86-.525.86h-.567l.686-1.125.686-1.125.255-.396.255-.397.256.397.255.396.686 1.125.686 1.124h-.567l-.525-.86-.524-.86-.001 7.637-.001 7.637 1.938 2.73 1.938 2.73 6.725-6.728 6.725-6.73-.922.265-.922.265h-.136v-.509l1.371-.407 1.371-.407h.492l-.17.992-.172.992-.144.728-.144.728h-.494l.165-1.125.165-1.124-6.797 6.768-6.798 6.769.852 2.029.851 2.028h9.687l9.687-.002-.86-.524-.86-.524v-.567l1.125.686 1.124.685.397.256.397.255-.397.255-.397.256-1.124.685-1.125.686v-.567l.86-.524.86-.525h-9.67l-9.669-.002-.542 2.226-.542 2.226 6.6 6.572 6.598 6.571-.137-.529-.137-.53-.17-.594-.172-.596h.545l.26.993.26.992.185.766.185.765-.766-.185-.766-.185-.992-.26-.992-.26v-.545l.463.13.463.129.662.179.661.179-6.482-6.511-6.483-6.51-.286.109-.287.11-2.027 1.546-2.028 1.547v16.933l.525-.86.524-.86h.58l-.602.993-.601.992-.278.463-.277.463zm-5.83-16.944l5.38-1.568.1-.1.1-.1-.073-3.744-.073-3.744-5.407 5.412-5.407 5.413zm-.615-3.995l5.393-5.387-4.236-.073-4.237-.073-4.19.073-4.19.073 2.8 5.027 2.802 5.027.233.36.232.361zm7.04 1.728l.332-.192 1.674-1.318 1.674-1.318-1.932-1.945-1.932-1.945h-.146v6.91zm3.898-3.543h.142l.417-1.852.417-1.852H30.838l1.838 1.852 1.838 1.852zm-13.558-4.234h8.397l-3.821-3.828-3.822-3.828-.408.346-.409.347-4.167 3.388L12.7 30.83v.186zm11.935 0h2.458l-.189-.595-.188-.595-.481-1.125-.482-1.124h-.166l-1.705 1.72-1.704 1.72zm-3.204-.529h.07v-8.953l-.86.222-.86.222-2.867.59-2.868.59 3.658 3.664 3.658 3.665zm2.302-1.835l1.703-1.688-1.226-1.744-1.226-1.744-.477-.631-.477-.631v8.126zM6.263 54.563H5.91l.264-1.455.263-1.455h.741l-.168.53-.167.528h.3l.529-.529.53-.53H9.46l.326.394.326.394-.162.646-.162.647-.43.43-.43.429-.688-.08-.688-.081-.294-.594-.295-.593-.175.174-.174.175v.97zm2.018-.529h.344l.318-.317.317-.318v-1.217H8.26l-.16.419-.162.418V54.034zm4.132.525l-.419.004-.176-.176-.176-.177v-.35l.568.02.569.022.115-.33.115-.332h-.838v-.529h.794v-.586l-.42.161-.418.161.11-.331.11-.33h1.279l-.091 1.19-.092 1.19-.305.195-.306.194-.419.004zm34.596.004h-.352l.264-1.455.263-1.455h.741l-.168.529-.168.53h.3l.53-.53.529-.53h1.258l.327.394.326.394-.162.646-.162.647-.43.43-.43.429-.688-.08-.688-.081-.295-.594-.294-.593-.175.174-.175.175v.97zm2.018-.529h.344l.318-.317.317-.318v-1.217h-1.001l-.161.419-.16.418V54.034zm4.035.53h-.849l.264-1.456.264-1.455h1.732l.163.264.164.265-.207.33-.208.331.079.48.079.478-.317.381-.316.381zm.265-.57l.472-.092.118-.356.119-.356-.472.091-.471.092-.119.356-.118.356zm.251-1.283h.397v-.529h-.794v.529zM10.7 53.77h-.677l.163-.265.164-.265H11.377v.53zm40.746 0h-.677l.163-.265.164-.265H52.123v.53zM13.03 45.563l-.596.004v-.355l.453-.5.452-.5-.386-.244-.386-.245.595-.004.595-.004v.729l-.41.34-.408.34.343.218.343.217zm1.387.004h-.412l-.144-.376-.144-.376.294-.55.294-.55h.744l.15.243.15.242-.26.684-.26.683zm.134-.396l.265-.164v-1.058l-.265.163-.265.164v1.058zm11.774-.932l-.53-.003.354-.224.354-.224-.09-.607-.088-.607.313-.107.313-.107-.048.94-.049.942-.53-.003zm1.586.005H27.5l-.144-.376-.145-.376.295-.55.294-.55h.744l.15.243.15.242-.26.684-.26.683zm.134-.397l.264-.163V42.625l-.264.164-.265.164v1.058zm6.923-3.836h-.485l-.17-.17-.168-.168.184-.294.184-.294.007-.397.007-.397.632-.09.633-.089-.166.619-.166.618-.004.331-.004.33zm-.044-.265h.265v-.529h-.53v.529zm.176-.882l.177-.176-.177-.176-.176-.177v.706zM.771 32.6l-.418.004-.177-.177L0 32.25v-.351l.569.021.568.021.115-.33.115-.331H.529v-.53h.794v-.585l-.42.16-.418.161.11-.33.11-.332h1.28l-.092 1.191-.091 1.19-.306.195-.305.194-.42.004zm58.111.004h-.848l.264-1.456.263-1.455h1.733l.163.265.164.264-.208.331-.207.33.079.48.079.478-.317.381-.316.382zm.266-.57l.472-.092.118-.356.119-.356-.472.091-.471.092-.119.356-.118.356zm.251-1.283h.397v-.529h-.794v.529zm-52.19-.533l-.594.004v-.355l.452-.5.453-.5-.387-.244-.386-.245.595-.004.595-.004v.729l-.409.34-.41.34.344.217.343.218zm1.415-.017l-.769.021.398-.463.398-.463.216-.375.216-.376-.507.193-.506.193.313-.316.313-.315.443.17.443.17-.418.64-.42.638.325.131.324.132-.769.02zm14.231-9.057l-.233.074-.376-.238-.376-.238.448-.684.448-.684h.456l-.067.849-.067.848zm-.381-.447h.28v-.529h-.233l-.164.265-.163.264zm9.144-1.857l-.53-.003.354-.224.354-.224-.09-.607-.088-.608.313-.106.313-.107-.049.94-.048.942-.53-.003zm1.612-.016l-.768.021.397-.463.398-.463.216-.375.216-.376-.507.193-.506.193.313-.316.313-.315.443.17.444.17-.42.64-.418.638.324.131.324.132-.769.02zM8.172 10.588l-.651.078-.189-.188-.188-.189V8.908l.422-.603.423-.603.702.08.702.082-.133.26-.132.26-.446-.075-.447-.076-.301.564-.302.564.156.406.156.406.541-.141.541-.142-.102.31-.101.31zm3.13.05l-.47.004-.153-.397-.152-.397H9.229l.164-.264.163-.265h.837l.321.44.322.44.435-.167.435-.167v-.546h-.794V8.79h.794v-.586l-.419.161-.419.16.11-.33.11-.331h1.28l-.092 1.19-.091 1.191-.306.195-.305.194zm37.086-.05l-.65.078-.189-.188-.189-.189V8.908l.423-.603.422-.603.702.08.702.082-.132.26-.132.26-.447-.075-.446-.076-.302.564-.301.564.156.406.156.406.54-.141.542-.142-.102.31-.102.31zm3.35.054h-.848l.264-1.455.264-1.455h1.732l.164.264.163.265-.207.33-.208.331.08.48.078.478-.316.381-.317.381zm.266-.57l.472-.091.118-.356.119-.356-.472.091-.471.092-.119.356-.118.356zm.251-1.282h.397v-.529h-.794v.529zm-2.132 1.058h-.677l.163-.264.164-.265H50.8v.529zM30.397 2.915l-.651.079-.189-.189-.188-.189V1.235l.422-.603.423-.603.702.08.702.082-.133.26-.132.26-.446-.075L30.46.56l-.301.564-.302.564.156.406.156.406.541-.141.541-.142-.102.31-.101.31z" fill="#fda6a6"/><path d="M28.488 61.707h-.352l.264-1.455.263-1.455h.741l-.168.529-.167.529h.3l.529-.53.53-.528h1.258l.326.393.326.394-.162.646-.162.646-.43.43-.43.43-.688-.08-.688-.081-.294-.594-.295-.594-.175.175-.174.175v.97zm2.018-.53h.344l.318-.317.317-.317v-1.217h-1.001l-.16.418-.162.419V61.178zm-.344-3.174h-.137l-.277-.463-.278-.463-.601-.992-.602-.993h.58l.525.86.524.86v-8.388l.002-8.387-1.257.38-1.257.38-4.669 1.362-4.67 1.361-2.87 2.907-2.872 2.906 1.124-.166 1.125-.166v.493l-.728.144-.727.145-.992.17-.993.171v-.492l.408-1.37.407-1.372h.508v.136l-.264.923-.265.923 2.953-2.953 2.952-2.952-3.15-5.708-3.152-5.708-3.44-.002-3.439-.002.86.524.86.525v.567l-1.125-.686-1.124-.686-.397-.255-.397-.255.397-.256.397-.255 1.124-.686L6.35 29.4v.567l-.86.524-.86.524 3.452.001 3.451.001 4.883-3.992 4.883-3.992.056-.055.057-.055-4.779-4.75-4.779-4.75.137.529.138.529.17.595.172.595h-.544l-.26-.992-.26-.992-.186-.766-.185-.766.766.185.766.186.992.26.992.26v.544l-.53-.15-.528-.15-.596-.158-.595-.159 3.965 3.995 3.966 3.995h.606l.139-.53.138-.528h-.511l.164-.265.163-.264h.63v1.852h-1.046l.71.709.708.709 2.196-.464 2.195-.464 1.786-.399 1.786-.398-.001-7.586-.001-7.586-.524.86-.525.86h-.567l.686-1.124.686-1.125.255-.397.255-.396.256.396.255.397.686 1.125.685 1.124h-.566l-.525-.86-.524-.86v15.346l1.833 2.606 1.833 2.606.096.096.096.096 6.733-6.737 6.733-6.736-.922.264-.922.265h-.136v-.509l1.37-.407 1.372-.407h.492l-.171.992-.17.992-.145.728-.144.727h-.494l.165-1.124.165-1.125-6.822 6.793-6.821 6.793.814 1.939.814 1.938 9.749.067 9.748.067-.86-.526-.86-.526v-.567l1.124.685 1.125.686.397.255.397.256-.397.255-.397.256-1.125.685-1.124.686v-.567l.86-.524.86-.525h-9.69l-9.692-.002-.552 2.183-.553 2.183 6.63 6.615 6.631 6.614-.136-.529-.137-.53-.17-.594-.172-.596h.544l.26.992.26.993.186.765.185.766-.766-.185-.766-.185-.992-.26-.992-.26v-.545l.463.13.463.128.661.18.662.179-6.48-6.508-6.48-6.508h-.382L32.553 38.2l-2.126 1.628.001 8.492.001 8.492.524-.86.525-.86h.58l-.602.993-.601.992-.278.463-.277.463zm-11.11-15.35l.13-.002 5.233-1.547 5.232-1.547.133-.133.133-.133-.074-3.744-.073-3.744-5.422 5.427-5.421 5.427.13-.003zm-.795-.26h.136l5.42-5.424 5.419-5.424h-17.1l.753 1.389.755 1.389 2.24 4.035 2.24 4.034zm12.397-3.484l.227-.088 1.745-1.323 1.746-1.323.012-.14.012-.138-1.985-1.971-1.984-1.971v7.042zm4.58-5.317l.463-1.915.01-.066.012-.066h-4.881l1.967 1.98 1.968 1.982.462-1.915zm-14.288-2.577h8.548l-3.815-3.822-3.815-3.822-.283.174-.282.173-4.45 3.649-4.45 3.648zm12.172 0h2.543l-.699-1.715-.698-1.716-.14-.004-.14-.004-1.705 1.72-1.704 1.72zm-3.28-4.928l.073-4.407-.084-.084-.084-.084-1.576.356-1.576.356-2.087.453-2.087.453 3.674 3.682 3.675 3.682zm2.296 2.56l1.707-1.692-.172-.285-.172-.285-1.302-1.852-1.303-1.852-.233-.251-.232-.252v8.16zM6.263 54.563H5.91l.264-1.455.263-1.455h.741l-.168.53-.167.528h.3l.529-.529.53-.53H9.46l.326.394.326.394-.162.646-.162.647-.43.43-.43.429-.688-.08-.688-.081-.294-.594-.295-.593-.175.174-.174.175v.97zm2.018-.529h.344l.318-.317.317-.318v-1.217H8.26l-.16.419-.161.418V54.034zm4.132.525l-.419.004-.176-.176-.176-.177v-.35l.568.02.569.022.115-.33.115-.332h-.838v-.529h.794v-.586l-.42.161-.418.161.11-.331.11-.33h1.279l-.091 1.19-.092 1.19-.305.195-.306.194-.419.004zm34.596.004h-.352l.264-1.455.263-1.455h.741l-.168.529-.168.53h.3l.53-.53.529-.53h1.258l.327.394.326.394-.162.646-.162.647-.43.43-.43.429-.688-.08-.688-.081-.295-.594-.294-.593-.175.174-.175.175v.97zm2.018-.529h.344l.318-.317.317-.318v-1.217h-1.001l-.161.419-.16.418V54.034zm4.035.53h-.849l.264-1.456.264-1.455h1.732l.163.264.164.265-.207.33-.208.331.079.48.079.478-.317.381-.316.381zm.265-.57l.472-.092.118-.356.119-.356-.472.091-.471.092-.119.356-.118.356zm.251-1.283h.397v-.529h-.794v.529zM10.7 53.77h-.677l.163-.265.164-.265H11.377v.53zm40.746 0h-.677l.163-.265.164-.265H52.123v.53zM13.03 45.563l-.596.004v-.355l.453-.5.452-.5-.386-.244-.386-.245.595-.004.595-.004v.729l-.41.34-.408.34.343.218.343.217zm1.387.004h-.412l-.144-.376-.144-.376.294-.55.294-.55h.744l.15.243.15.242-.26.684-.26.683zm.134-.396l.265-.164v-1.058l-.265.163-.265.164v1.058zm11.774-.932l-.53-.003.354-.224.354-.224-.09-.607-.088-.607.313-.107.313-.107-.048.94-.049.942-.53-.003zm1.586.005H27.5l-.144-.376-.145-.376.295-.55.294-.55h.744l.15.243.15.242-.26.684-.26.683zm.134-.397l.264-.163V42.625l-.264.164-.265.164v1.058zm6.923-3.836h-.485l-.17-.17-.168-.168.184-.294.184-.294.007-.397.007-.397.632-.09.633-.089-.166.619-.166.618-.004.331-.004.33zm-.044-.265h.265v-.529h-.53v.529zm.176-.882l.177-.176-.177-.176-.176-.177v.706zM.771 32.6l-.418.004-.177-.177L0 32.25v-.351l.569.021.568.021.115-.33.115-.331H.529v-.53h.794v-.585l-.42.16-.418.161.11-.33.11-.332h1.28l-.092 1.191-.091 1.19-.306.195-.305.194-.42.004zm58.111.004h-.848l.264-1.456.263-1.455h1.733l.163.265.164.264-.208.331-.207.33.079.48.079.478-.317.381-.316.382zm.266-.57l.472-.092.118-.356.119-.356-.472.091-.471.092-.119.356-.118.356zm.251-1.283h.397v-.529h-.794v.529zm-52.19-.533l-.594.004v-.355l.452-.5.453-.5-.387-.244-.386-.245.595-.004.596-.004v.729l-.41.34-.41.34.344.217.343.218zm1.415-.017l-.769.021.398-.463.398-.463.216-.375.216-.376-.507.193-.506.193.313-.316.313-.315.443.17.443.17-.418.64-.419.638.324.131.324.132-.769.02zm14.231-9.057l-.233.074-.376-.238-.376-.238.448-.684.448-.684h.456l-.067.849-.067.848zm-.381-.447h.28v-.529h-.233l-.164.265-.163.264zm9.144-1.857l-.53-.003.354-.224.354-.224-.09-.607-.088-.608.313-.106.313-.107-.049.94-.048.942-.53-.003zm1.612-.016l-.768.021.397-.463.398-.463.216-.375.216-.376-.507.193-.506.193.313-.316.313-.315.443.17.444.17-.42.64-.418.638.324.131.324.132-.769.02zM8.172 10.588l-.651.078-.189-.188-.188-.189V8.908l.422-.603.423-.603.702.08.702.082-.133.26-.132.26-.446-.075-.447-.076-.301.564-.302.564.156.406.156.406.541-.141.541-.142-.102.31-.101.31zm3.13.05l-.47.004-.153-.397-.152-.397H9.229l.164-.264.163-.265h.837l.321.44.322.44.435-.167.435-.167v-.546h-.793V8.79h.793v-.586l-.419.161-.419.16.11-.33.11-.331h1.28l-.092 1.19-.091 1.191-.306.195-.305.194zm37.086-.05l-.65.078-.189-.188-.189-.189V8.908l.423-.603.422-.603.702.08.702.082-.132.26-.132.26-.447-.075-.446-.076-.302.564-.301.564.156.406.156.406.54-.141.542-.142-.102.31-.102.31zm3.35.054h-.848l.264-1.455.264-1.455h1.732l.164.264.163.265-.207.33-.208.331.08.48.078.478-.316.381-.317.381zm.266-.57l.472-.091.118-.356.119-.356-.472.091-.471.092-.119.356-.118.356zm.251-1.282h.397v-.529h-.794v.529zm-2.132 1.058h-.677l.163-.264.164-.265H50.8v.529zM30.397 2.915l-.651.079-.189-.189-.188-.189V1.235l.422-.603.423-.603.702.08.702.082-.133.26-.132.26-.446-.075L30.46.56l-.301.564-.302.564.156.406.156.406.541-.141.541-.142-.102.31-.101.31z" fill="#fc6262"/><path d="M28.488 61.707h-.352l.264-1.455.263-1.455h.741l-.168.529-.167.529h.3l.529-.53.53-.528h1.258l.326.393.326.394-.162.646-.162.646-.43.43-.43.43-.688-.08-.688-.081-.294-.594-.295-.594-.175.175-.174.175v.97zm2.018-.53h.344l.318-.317.317-.317v-1.217h-1.001l-.16.418-.162.419V61.178zm-.344-3.174h-.137l-.277-.463-.278-.463-.601-.992-.602-.993h.58l.525.86.524.86v-8.4l.002-8.4h-.14l-5.804 1.707-5.804 1.708-2.923 2.952-2.924 2.952 1.125-.165 1.124-.165v.493l-.728.144-.727.145-.992.17-.993.171v-.492l.408-1.37.407-1.372h.508v.136l-.263.919-.264.919 2.967-2.905 2.967-2.905.056-.003.056-.003-3.187-5.751-3.188-5.752-3.474.001-3.475.001.86.525.86.524v.567l-1.125-.686-1.124-.686-.397-.255-.397-.255.397-.256.397-.255 1.124-.686L6.35 29.4v.567l-.86.524-.86.524 3.51.001 3.51.001 4.428-3.613 4.427-3.613.46-.427.462-.427-4.787-4.757-4.786-4.758.137.53.138.529.17.595.172.595h-.544l-.26-.992-.26-.992-.186-.766-.185-.766.766.185.766.186.992.26.992.26v.544l-.53-.15-.528-.15-.596-.158-.595-.159 3.965 3.995 3.966 3.995h.606l.139-.53.138-.528h-.511l.164-.265.163-.265h.636l-.003.86-.003.86-.444.133-.443.132.597.69.598.692 3.947-.836 3.947-.835.067-7.661.068-7.66-.527.86-.527.86h-.566l.685-1.125.686-1.125.255-.397.256-.397.255.397.255.397.686 1.125.686 1.124h-.567l-.525-.86-.524-.86v7.73l-.002 7.73 1.89 2.682 1.89 2.68 6.71-6.704 6.708-6.705v-.1l-.858.247-.858.246h-.136v-.509l1.371-.407 1.371-.407h.492l-.17.992-.172.992-.144.728-.144.727h-.493l.165-1.124.165-1.125-6.833 6.747-6.833 6.747h-.094l.83 2.048.832 2.047 9.79.002 9.789.002-.86-.524-.86-.524v-.567l1.125.685 1.124.686.397.255.397.256-.397.255-.397.256-1.124.685-1.125.686v-.567l.86-.526.86-.526-9.78.067-9.779.067-.48 2.108-.481 2.11 6.647 6.622 6.647 6.622-.136-.529-.137-.53-.17-.594-.172-.596h.545l.26.992.26.993.185.766.185.765-.766-.185-.766-.185-.992-.26-.992-.26v-.545l.463.13.463.129.662.179.661.179-6.593-6.621-6.594-6.621-2.138 1.673-2.137 1.674-.068 8.56-.067 8.56.526-.86.527-.86h.58l-.602.992-.601.992-.278.463-.277.463zM18.653 42.922h.132v-.265h-.264v.265zm4.964-5.77l5.492-5.475-8.377-.07-8.377-.07-.112.112-.112.112 2.996 5.433 2.997 5.432zm-4.467 5.505h.227l5.062-1.478L29.5 39.7l.206-.196.206-.196-.074-3.752-.073-3.753-5.422 5.427-5.421 5.427zM32.41 37.72l1.985-1.528v-.294l-1.985-1.971-1.984-1.971v7.291zm2.673-3.189l.292-1.001.183-.992.184-.992h-4.906l1.978 1.993 1.978 1.994zm-14.17-3.515H29.5l-3.874-3.874-3.875-3.874-4.459 3.647-4.459 3.647-.251.227-.251.227zm12.229 0h2.568l-.553-1.389-.554-1.389-.132-.33-.133-.331h-.355l-1.705 1.72-1.704 1.72zm-3.305-4.928l.073-4.407-.116-.116-.116-.117-3.264.698-3.264.698-.382.129-.382.129 3.69 3.696 3.689 3.697zm2.332 2.52l1.742-1.743-1.742-2.471-1.743-2.471v8.427zM6.263 54.563H5.91l.264-1.455.263-1.455h.741l-.168.53-.167.528h.3l.529-.529.53-.53H9.46l.326.394.326.394-.162.646-.162.647-.43.43-.43.429-.688-.08-.688-.081-.294-.594-.295-.593-.175.174-.174.175v.97zm2.018-.529h.344l.318-.317.317-.318v-1.217H8.26l-.16.419-.162.418V54.034zm4.132.525l-.419.004-.176-.176-.176-.177v-.35l.568.02.569.022.115-.33.115-.332h-.838v-.529h.794v-.586l-.42.161-.418.161.11-.331.11-.33h1.279l-.091 1.19-.092 1.19-.305.195-.306.194-.419.004zm34.596.004h-.352l.264-1.455.263-1.455h.741l-.168.529-.168.53h.3l.53-.53.529-.53h1.258l.327.394.326.394-.162.646-.162.647-.43.43-.43.429-.688-.08-.688-.081-.295-.594-.294-.593-.175.174-.175.175v.97zm2.018-.529h.344l.318-.317.317-.318v-1.217h-1.001l-.161.419-.16.418V54.034zm4.035.53h-.849l.264-1.456.264-1.455h1.732l.163.264.164.265-.207.33-.208.331.079.48.079.478-.317.381-.316.381zm.265-.57l.472-.092.118-.356.119-.356-.472.091-.471.092-.119.356-.118.356zm.251-1.283h.397v-.529h-.794v.529zM10.7 53.77h-.677l.163-.265.164-.265H11.377v.53zm40.746 0h-.677l.163-.265.164-.265H52.123v.53zM13.03 45.563l-.596.004v-.355l.453-.5.452-.5-.386-.244-.386-.245.595-.004.595-.004v.729l-.41.34-.408.34.343.218.343.217zm1.387.004h-.412l-.144-.376-.144-.376.294-.55.294-.55h.744l.15.243.15.242-.26.684-.26.683zm.134-.396l.265-.164v-1.058l-.265.163-.265.164v1.058zm11.774-.932l-.53-.003.354-.224.354-.224-.09-.607-.088-.607.313-.107.313-.107-.048.94-.049.942-.53-.003zm1.586.005H27.5l-.144-.376-.145-.376.295-.55.294-.55h.744l.15.243.15.242-.26.684-.26.683zm.134-.397l.264-.163V42.625l-.264.164-.265.164v1.058zm6.923-3.836h-.485l-.17-.17-.168-.168.184-.294.184-.294.007-.397.007-.397.632-.09.633-.089-.166.619-.166.618-.004.331-.004.33zm-.044-.265h.265v-.529h-.53v.529zm.176-.882l.177-.176-.177-.176-.176-.177v.706zM.771 32.6l-.418.004-.177-.177L0 32.25v-.351l.569.021.568.021.115-.33.115-.331H.529v-.53h.794v-.585l-.42.16-.418.161.11-.33.11-.332h1.28l-.092 1.191-.091 1.19-.306.195-.305.194-.42.004zm58.111.004h-.848l.264-1.456.263-1.455h1.733l.163.265.164.264-.208.331-.207.33.079.48.079.478-.317.381-.316.382zm.266-.57l.472-.092.118-.356.119-.356-.472.091-.471.092-.119.356-.118.356zm.251-1.283h.397v-.529h-.794v.529zm-52.19-.533l-.594.004v-.355l.452-.5.453-.5-.387-.244-.386-.245.595-.004.595-.004v.729l-.409.34-.41.34.344.217.343.218zm1.415-.017l-.769.021.398-.463.398-.463.216-.375.216-.376-.507.193-.506.193.313-.316.313-.315.443.17.443.17-.418.64-.42.638.325.131.324.132-.769.02zm14.231-9.057l-.233.074-.376-.238-.376-.238.448-.684.448-.684h.456l-.067.849-.067.848zm-.381-.447h.28v-.529h-.233l-.164.265-.163.264zm9.144-1.857l-.53-.003.354-.224.354-.224-.09-.607-.088-.608.313-.106.313-.107-.049.94-.048.942-.53-.003zm1.612-.016l-.768.021.397-.463.398-.463.216-.375.216-.376-.507.193-.506.193.313-.316.313-.315.443.17.444.17-.42.64-.418.638.324.131.324.132-.769.02zM8.172 10.588l-.651.078-.189-.188-.188-.189V8.908l.422-.603.423-.603.702.08.702.082-.133.26-.132.26-.446-.075-.447-.076-.301.564-.302.564.156.406.156.406.541-.141.541-.142-.102.31-.101.31zm3.13.05l-.47.004-.153-.397-.152-.397H9.229l.164-.264.163-.265h.837l.321.44.322.44.435-.167.435-.167v-.546h-.794V8.79h.794v-.586l-.419.161-.419.16.11-.33.11-.331h1.28l-.092 1.19-.091 1.191-.306.195-.305.194zm37.086-.05l-.65.078-.189-.188-.189-.189V8.908l.423-.603.422-.603.702.08.702.082-.132.26-.132.26-.447-.075-.446-.076-.302.564-.301.564.156.406.156.406.54-.141.542-.142-.102.31-.102.31zm3.35.054h-.848l.264-1.455.264-1.455h1.732l.164.264.163.265-.207.33-.208.331.08.48.078.478-.316.381-.317.381zm.266-.57l.472-.091.118-.356.119-.356-.472.091-.471.092-.119.356-.118.356zm.251-1.282h.397v-.529h-.794v.529zm-2.132 1.058h-.677l.163-.264.164-.265H50.8v.529zM30.397 2.915l-.651.079-.189-.189-.188-.189V1.235l.422-.603.423-.603.702.08.702.082-.133.26-.132.26-.446-.075L30.46.56l-.301.564-.302.564.156.406.156.406.541-.141.541-.142-.102.31-.101.31z" fill="#8e8e8e"/><path d="M28.538 61.597l-.3.187.182-1.03.183-1.031.136-.463.136-.463h.444l-.138.529-.139.529h.509l.48-.53.478-.528h1.222l.274.511.274.512-.237.624-.237.623-.41.34-.41.34-.61-.086-.61-.086-.084-.596-.085-.595h-.757V61.411zm2.16-.42h.504l.294-.549.295-.55-.145-.376-.144-.376h-1.088l-.26.683-.26.684.15.243.15.242zm-.535-3.439h-.215l-.71-1.211-.71-1.211.136-.137.137-.136.482.885.483.884.07-8.308.07-8.309-.088-.087-.088-.088-5.935 1.737-5.936 1.736-2.91 2.823-2.91 2.823 2.964-3.042 2.965-3.043-3.194-5.755-3.195-5.754H4.763v.251l.818.423.818.423-.136.136-.136.136-1.211-.71-1.212-.71v-.428l1.212-.71 1.211-.71.136.136.136.136-.884.483-.885.482 3.5.074 3.502.074 4.436-3.621 4.437-3.62.524-.491.524-.49-4.757-4.827-4.757-4.826 4.894 4.807 4.895 4.806 3.969-.85 3.969-.85.073-3.906.073-3.907-.073-3.754-.073-3.754-.483.884-.482.885-.137-.136-.136-.137.71-1.211.71-1.211h.429l.71 1.211.71 1.211-.136.137-.137.136-.482-.885-.483-.884-.07 7.724-.07 7.724 1.876 2.66 1.875 2.661h.354l6.75-6.68 6.748-6.681-6.792 6.88-6.791 6.878.838 2.048.839 2.048 9.723.003 9.724.003v-.251l-.819-.424-.818-.423.136-.136.136-.136 1.212.71 1.21.71v.428l-1.21.71-1.212.71-.136-.136-.136-.136.884-.482.885-.483-9.64-.07-9.642-.069-.183.202-.183.202-.455 2.088-.455 2.088 6.575 6.643 6.575 6.643-6.653-6.585-6.653-6.584-2.277 1.778-2.277 1.778V56.68h.251l.423-.818.424-.819.136.137.136.136-.71 1.211-.71 1.211zM20.34 42.366l1.753-.496 3.836-1.134 3.837-1.133.071-4.095.072-4.096-5.76 5.689-5.76 5.688 5.553-5.622 5.554-5.622H12.171v.3l2.96 5.34 2.962 5.34.247.168.248.169zm12.212-4.758l2.139-1.655-2.066-2.138-2.066-2.138 1.991 1.918 1.99 1.918H34.883l.419-1.838.418-1.838v-.312l-2.58.076-2.58.076-.073 3.793-.074 3.793zm-11.508-6.655l8.722-.07.072-4.696.072-4.697h-.461l-3.017.659-3.016.658-.642.152-.641.152 3.816 3.886 3.817 3.886-3.84-3.77-3.84-3.77h-.428l-4.413 3.609-4.413 3.61-.255.23-.255.23zm11.966.062h2.701l-.537-1.361-.536-1.362-.263-.49-.262-.49h-.128l-1.838 1.851-1.838 1.852zm-.863-2.116l1.72-1.705V26.8l-1.72-2.44-1.72-2.438V30.603zM6.313 54.454l-.3.186.182-1.03.183-1.031.136-.463.136-.463h.444l-.138.53-.139.528h.509l.48-.529.478-.53h1.222l.274.513.274.512-.237.623-.237.624-.41.34-.41.34-.61-.086-.61-.087-.084-.595-.084-.596h-.757v1.028zm2.16-.42h.504l.294-.55.295-.55-.145-.376-.144-.376H8.189l-.26.684-.26.683.15.243.15.242zm3.974.53h-.453l-.176-.177-.176-.176v-.368l.661.126.662.127v-.856h-.794v-.467l.595-.197.595-.196-.599-.118-.599-.118.152-.245.152-.246h.996l.163.265.164.264-.208.33-.207.332.078.478.08.48-.317.38-.316.381zm34.612-.11l-.301.186.183-1.03.183-1.031.136-.463.136-.463h.444l-.138.53-.139.528h.509l.479-.529.479-.53h1.222l.274.513.274.512-.237.623-.237.624-.41.34-.41.34-.61-.086-.61-.087-.084-.595-.085-.596h-.756v1.028zm2.16-.42h.504l.294-.55.295-.55-.145-.376-.144-.376h-1.088l-.26.684-.26.683.15.243.15.242zm3.9.53h-.79l.175-.993.176-.992.141-.478.141-.479.705.082.705.081.057 1.042.058 1.042-.289.347-.288.347zm.327-.53h.529v-.794h-1.058v.794zm.117-1.323h.38l.164-.264.164-.265h-1.09v.529zM10.7 53.77h-.381v-.53h1.089l-.163.265-.164.265zm40.746 0h-.381v-.53h1.089l-.163.265-.164.265zm-2.432-3.471l-.198-.032-1.588-.487-1.587-.487 1.323.056 1.322.055-.057-1.323-.058-1.323.512 1.72.51 1.72.01.066.009.066-.199-.031zm-37.058-.401l-.877.16.155-.488.155-.489.386-1.161.385-1.162-.132.957-.132.956.152.399.153.398 1.242-.093 1.241-.092-.926.227-.926.227zm1.075-4.351l-.596.02v-.472l.427-.164.427-.164-.137-.526-.138-.526h.392l.177.178.177.177-.39.597-.392.596.324.132.324.13-.595.022zm1.455-.028l-.463.087v-.551l.397.152.397.153v-1.38h-.491l-.11.33-.112.331.029-.393.028-.394.479-.092.478-.092-.084.88-.085.88zm11.84-1.296l-.53-.02.332-.134.33-.133V42.393h.437l-.02.925-.02.925-.529-.02zm1.654-.027l-.463.087v-.551l.397.152.396.153v-1.38h-.49l-.111.33-.111.332.029-.394.028-.394.478-.092.479-.092-.085.88-.084.88zm6.825-4.225l-.48.093.187-.754.186-.754.223-.228.222-.229.265.164.264.163-.194.727-.194.726zm.12-.224h.265v-.53h-.53v.53zm.117-.794h.116l.164-.265.163-.264h-.56v.529zM.805 32.603H.353l-.177-.176L0 32.25v-.367l.661.126.662.126v-.855H.529v-.467l.595-.197.596-.197-.6-.118-.599-.117.152-.246.152-.246h.996l.163.265.164.265-.208.33-.207.331.079.479.079.479-.317.38-.316.382zm58.135 0h-.79l.175-.992.176-.992.141-.479.14-.478.706.081.705.082.057 1.041.058 1.042-.289.348-.288.347zm.327-.53h.529v-.793h-1.058v.794zm.116-1.322h.382l.163-.265.164-.264h-1.09v.529zM7.21 30.2l-.595.02v-.472l.426-.164.427-.164-.137-.525-.138-.526h.392l.177.177.177.177-.39.597-.392.597.324.13.324.132-.595.02zm1.409.002l-.774.018.635-.675.634-.675-.39-.247-.39-.247.463-.004.463-.004v.729l-.422.35-.423.352.489.192.489.192-.774.019zm12.329-8.978h-.375l.271-.33.272-.331.128-.661.128-.662-.025.992-.024.992h-.375zm1.914-.16l-.288.111-.37-.229-.371-.229.367-.341.367-.342-.186.33-.187.331h.593l-.082-.57-.083-.571.264-.09.265-.092v1.582zm8.756-2.242l-.53-.02.331-.134.331-.133v-1.544h.437l-.02.925-.02.926-.53-.02zm1.607.003l-.773.018.634-.675.635-.676-.39-.246-.39-.247.463-.004.463-.004v.729l-.423.35-.422.351.488.193.489.192zm-21.157-3.157h-.099l-.308-1.257-.308-1.256-.141-.474-.142-.473.749.183.749.183 1.058.333 1.058.332-1.323-.042-1.322-.042.064 1.256.064 1.257zm36.47-1.587l-.363 1.72.088-1.242.087-1.242-.398-.153-.398-.152-.957.134-.956.135 1.576-.516 1.576-.515.054.056.053.055zM8.29 10.589l-.532.079-.331-.4-.331-.398.177-.807.177-.807.49-.262.49-.262h.829v.529h-.993l-.319.384-.319.384.096.476.097.476.594-.022.594-.022-.094.286-.094.287zm3.098.053h-.453l-.176-.176-.177-.177v-.367l.662.126.661.127v-.856h-.793v-.467l.595-.197.595-.197-.6-.117-.598-.118.151-.246.152-.245h.996l.164.264.163.265-.207.33-.208.331.08.48.078.478-.316.381-.317.381zm37.118-.053l-.531.079-.331-.4-.331-.398.177-.807.177-.807.49-.262.49-.262h.829v.529h-.993l-.32.384-.318.384.096.476.096.476.595-.022.594-.022-.094.286-.094.287zm3.29.053h-.791l.176-.992.175-.992.141-.479.141-.478.705.081.705.082.057 1.042.058 1.041-.289.348-.288.347zm.326-.53h.53V9.32h-1.06v.794zm.117-1.322h.38l.164-.265.164-.264h-1.09v.529zM9.906 9.848h-.381V9.32h1.09l-.164.265-.163.264zm40.217 0h-.381V9.32h1.089l-.163.265-.164.264zM30.516 2.916l-.532.079-.331-.4-.331-.398.177-.807.177-.807.49-.262.49-.262h.829v.529h-.993l-.319.384-.319.384.096.476.097.476.594-.022.594-.022-.094.286-.094.287z" fill="#676767"/><path d="M28.651 61.112l-.29.727.15-.926.151-.926.198-.661.199-.662.022.596.023.595h.577l.46-.57.461-.568.706.177.707.177v1.578l-.53.529-.529.53h-1.048l-.166-.662-.166-.662h-.634l-.29.728zm1.876.066h.629l.319-.384.319-.384-.091-.473-.091-.473-.473-.09-.473-.092-.384.319-.384.319v1.258zm-24.1-7.21l-.291.728.15-.926.151-.927.198-.661.199-.661.022.595.023.595h.577l.46-.569.461-.569.706.177.707.178v1.577l-.53.53-.529.528H7.683l-.166-.661-.166-.662h-.634zm1.875.066h.629l.319-.384.319-.384-.091-.473-.091-.473-.473-.09-.473-.092-.384.32-.384.318v1.259zm4.101.53h-.497v-.53H12.965v-.794h-.794v-.529H13.23v-.529l-.596-.004-.595-.004.396-.257.397-.256.317-.004.317-.004-.032 1.124-.03 1.125-.253.33-.251.331h-.497zm34.77-.596l-.291.728.15-.927.15-.926.2-.661.198-.661.022.595.023.595h.577l.46-.569.461-.569.706.177.706.177v1.578l-.529.53-.529.528H48.43l-.166-.661-.166-.662h-.634l-.29.728zm1.875.066h.629l.319-.384.319-.384-.091-.473-.091-.473-.473-.09-.473-.092-.384.32-.384.318v1.259zm3.982.53h-.642v-.24l.29-1.35.289-1.352.7.082.7.081.064.53.064.528-.15-.33-.15-.331h-.983l-.163.265-.164.264h.984l.318.318.317.317v.386l-.416.415-.415.416zm.351-.579l.726-.083v-.529l-.561-.08-.562-.08-.164.428-.165.428zm-42.665-.216h-.397v-.529h.794v.529zm40.745 0h-.396v-.529h.793v.529zm-38.496-8.243h-.662l.33-.134.332-.133.33.133.331.134zm1.455.041h-.132v-.264h.264v.264zm12.149-1.343l-.508-.021.348-.14.347-.138.16.16.16.16-.507-.021zm1.345.02h-.133v-.264h.265v.264zm-14.685-.264h-.353l.177-.177.176-.176.177.176.176.177zm1.455 0h-.132v-.265h.265v.265zm3.837-.668l-.397.116-3.377-6.123-3.376-6.122.222-.15.221-.15 4.936-4.048 4.937-4.048 4.279-.916 4.28-.915.054.068.055.07 2.032 2.87 2.033 2.87.91 2.2.911 2.2-.563 2.47-.564 2.47-2.477 1.919-2.477 1.918h-.4l-5.421 1.593-5.421 1.593zm.234-.5l.427-.123 5.16-1.499 5.159-1.498.53-.278.528-.277 2.05-1.58 2.05-1.58.393-1.322.392-1.321.148-1.226.148-1.225-.888-1.984-.887-1.985-1.92-2.712-1.921-2.712h-.652l-3.657.8-3.657.799-.327.193-.328.193-4.666 3.821-4.666 3.821v.718l3.078 5.55 3.079 5.55zm9.423-.155h-.132v-.265h.264v.265zm6.747-2.646h-.353l.177-.176.176-.177.176.177.177.176zm.412-.53h-.116l-.189-.305-.189-.305.306.189.305.189v.233zm-.147-1.057h-.353l.176-.177.177-.176.176.176.176.177zM.76 32.603H.265v-.529h1.058v-.794H.529v-.529H1.588v-.529l-.596-.004-.595-.004.397-.257.397-.256.316-.004.317-.004-.031 1.124-.032 1.125-.251.33-.252.331H.761zm58.09 0h-.643v-.239l.29-1.35.29-1.352.7.081.7.082.064.529.064.53-.15-.332-.15-.33h-.983l-.163.264-.164.265h.984l.317.317.318.318v.385l-.416.416-.416.416zm.351-.578l.726-.084v-.529l-.562-.08-.561-.08-.164.428-.165.429zM7.144 30.18h-.662l.331-.134.33-.133.331.133.331.134zm1.455.042h-.397v-.513l.397.152.397.153v.208zm.61-1.184l-.148.148-.18-.474-.181-.475.329.327.328.326zm-1.8-.404h-.353l.176-.176.176-.177.177.177.176.176zm13.603-7.429l-.507-.02.347-.14.348-.139.16.16.16.16zm1.478-.286h-.662l.33-.133.332-.133.33.133.331.133zm-1.163-.823l-.16.16.02-.507.021-.508.14.348.138.347zm1.56-.458h-.133v-.264h.265v.264zm8.973-.814l-.507-.021.347-.14.348-.138.16.16.16.16zm1.345.02h-.397v-.512l.397.152.397.153v.208zm.61-1.183l-.148.148-.18-.474-.18-.475.328.327.329.326zM8.064 10.643h-.371l-.274-.512-.274-.512.237-.624.237-.623.42-.35.422-.35.466.204.467.203-.53.12-.529.12-.33.268-.331.268v1.258h1.089l-.163.265-.164.265zm3.282 0h-.497v-.53h1.058V9.32h-.793v-.53h1.058v-.529l-.595-.004-.596-.004.397-.256.397-.257.317-.004.316-.004-.03 1.125-.032 1.124-.252.331-.252.33zm36.935 0h-.372l-.274-.512-.274-.512.237-.624.237-.623.422-.35.42-.35.467.204.466.203-.529.12-.529.12-.33.268-.331.268v1.258h1.089l-.163.265-.164.265zm3.427 0h-.642v-.239l.29-1.351.29-1.351.7.081.7.081.063.53.064.529-.15-.331-.15-.33h-.983l-.163.264-.164.264h.984l.318.318.317.317v.386l-.416.416-.415.416zm.351-.578l.726-.084v-.529l-.561-.08-.562-.08-.164.428-.165.428zM9.922 9.849h-.397V9.32h.794v.529zm40.217 0h-.397V9.32h.793v.529zm-19.85-6.88h-.372l-.274-.511-.274-.512.237-.624.237-.623.42-.35.422-.349.466.203.467.203-.53.12-.529.12-.33.268-.331.268V2.44h1.089l-.163.265-.164.265z" fill="#fd0b0b"/><path d="M28.651 61.112l-.29.727.15-.926.151-.926.198-.661.199-.662.022.596.023.595h.577l.46-.57.461-.568.706.177.707.177v1.578l-.53.529-.529.53h-1.048l-.166-.662-.166-.662h-.634l-.29.728zm1.876.066h.629l.319-.384.319-.384-.091-.473-.091-.473-.473-.09-.473-.092-.384.319-.384.319v1.258zm-24.1-7.21l-.291.728.15-.926.151-.927.198-.661.199-.661.022.595.023.595h.577l.46-.569.461-.569.706.177.707.178v1.577l-.53.53-.529.528H7.683l-.166-.661-.166-.662h-.634zm1.875.066h.629l.319-.384.319-.384-.091-.473-.091-.473-.473-.09-.473-.092-.384.32-.384.318v1.259zm4.101.53h-.497v-.53H12.965v-.794h-.794v-.529H13.23v-.529l-.596-.004-.595-.004.396-.257.397-.256.317-.004.317-.004-.032 1.124-.03 1.125-.253.33-.251.331h-.497zm34.77-.596l-.291.728.15-.927.15-.926.2-.661.198-.661.022.595.023.595h.577l.46-.569.461-.569.706.177.706.177v1.578l-.529.53-.529.528H48.43l-.166-.661-.166-.662h-.634l-.29.728zm1.875.066h.629l.319-.384.319-.384-.091-.473-.091-.473-.473-.09-.473-.092-.384.32-.384.318v1.259zm3.982.53h-.642v-.24l.29-1.35.289-1.352.7.082.7.081.064.53.064.528-.15-.33-.15-.331h-.983l-.163.265-.164.264h.984l.318.318.317.317v.386l-.416.415-.415.416zm.351-.579l.726-.083v-.529l-.561-.08-.562-.08-.164.428-.165.428zm-42.665-.216h-.397v-.529h.794v.529zm40.745 0h-.396v-.529h.793v.529zm-38.496-8.243h-.662l.33-.134.332-.133.33.133.331.134zm1.455.041h-.132v-.264h.264v.264zm12.149-1.343l-.508-.021.348-.14.347-.138.16.16.16.16-.507-.021zm1.345.02h-.133v-.264h.265v.264zm-14.685-.264h-.353l.177-.177.176-.176.177.176.176.177zm1.455 0h-.132v-.265h.265v.265zm13.494-1.323h-.132v-.265h.264v.265zm6.747-2.646h-.353l.177-.176.176-.177.176.177.177.176zm.412-.53h-.116l-.189-.305-.189-.305.306.189.305.189v.233zm-.147-1.057h-.353l.176-.177.177-.176.176.176.176.177zM.76 32.603H.265v-.529h1.058v-.794H.529v-.529H1.588v-.529l-.596-.004-.595-.004.397-.257.397-.256.316-.004.317-.004-.031 1.124-.032 1.125-.251.33-.252.331H.761zm58.09 0h-.643v-.239l.29-1.35.29-1.352.7.081.7.082.064.529.064.53-.15-.332-.15-.33h-.983l-.163.264-.164.265h.984l.317.317.318.318v.385l-.416.416-.416.416zm.351-.578l.726-.084v-.529l-.562-.08-.561-.08-.164.428-.165.429zM7.144 30.18h-.662l.331-.134.33-.133.331.133.331.134zm1.455.042h-.397v-.513l.397.152.397.153v.208zm.61-1.184l-.148.148-.18-.474-.181-.475.329.327.328.326zm-1.8-.404h-.353l.176-.176.176-.177.177.177.176.176zm13.603-7.429l-.507-.02.347-.14.348-.139.16.16.16.16zm1.478-.286h-.662l.33-.133.332-.133.33.133.331.133zm-1.163-.823l-.16.16.02-.507.021-.508.14.348.138.347zm1.56-.458h-.133v-.264h.265v.264zm8.973-.814l-.507-.021.347-.14.348-.138.16.16.16.16zm1.345.02h-.397v-.512l.397.152.397.153v.208zm.61-1.183l-.148.148-.18-.474-.18-.475.328.327.329.326zM8.064 10.643h-.371l-.274-.512-.274-.512.237-.624.237-.623.42-.35.422-.35.466.204.467.203-.53.12-.529.12-.33.268-.331.268v1.258h1.089l-.163.265-.164.265zm3.282 0h-.497v-.53h1.058V9.32h-.793v-.53h1.058v-.529l-.595-.004-.596-.004.397-.256.397-.257.317-.004.316-.004-.03 1.125-.032 1.124-.252.331-.252.33zm36.935 0h-.372l-.274-.512-.274-.512.237-.624.237-.623.422-.35.42-.35.467.204.466.203-.529.12-.529.12-.33.268-.331.268v1.258h1.089l-.163.265-.164.265zm3.427 0h-.642v-.239l.29-1.351.29-1.351.7.081.7.081.063.53.064.529-.15-.331-.15-.33h-.983l-.163.264-.164.264h.984l.318.318.317.317v.386l-.416.416-.415.416zm.351-.578l.726-.084v-.529l-.561-.08-.562-.08-.164.428-.165.428zM9.922 9.849h-.397V9.32h.794v.529zm40.217 0h-.397V9.32h.793v.529zm-19.85-6.88h-.372l-.274-.511-.274-.512.237-.624.237-.623.42-.35.422-.349.466.203.467.203-.53.12-.529.12-.33.268-.331.268V2.44h1.089l-.163.265-.164.265z" fill="#080808"/></svg>