<svg xmlns="http://www.w3.org/2000/svg" width="229.291" height="233.724" viewBox="0 0 60.666695 61.839379"><path d="M28.42 61.707h-.41l.136-.463.136-.463.176-.992.176-.992h.735v1.176l.412-.588.412-.588h1.249l.419.16.418.16v1.532l-.529.529-.53.53H29.678l-.241-.726-.242-.726-.182.726-.182.725zm2.086-.53h.344l.318-.317.317-.317v-.921l-.276-.171-.276-.17-.385.319-.385.32v1.258zm-.343-2.92h-.133l-.872-1.491-.871-1.491.24-.24.24-.24.56.876.562.877.004-7.715.004-7.715-3.506-.832-3.505-.832-.291-.095-.291-.094-5 5.013-5.002 5.014 1.125-.176 1.124-.176v.565l-.207.128-.208.129-1.609.182-1.608.182.421-1.618.422-1.618h.715l-.177.86-.177.86 5.039-5.027 5.038-5.027.541-3.204.541-3.205v-.602l-9.194.004-9.194.004.876.56.877.562-.24.24-.24.24-1.491-.872-1.491-.872v-.264l1.49-.872 1.492-.872.24.24.24.24-.877.562-.876.56 9.284.005 9.283.004 1.565-1.438 1.564-1.437-7.238-7.228-7.238-7.228.172.993.172.992h-.716l-.41-1.714-.41-1.713.101-.101.102-.101 1.713.41 1.713.41v.716l-.992-.172-.992-.173 7.004 7.034 7.004 7.034.165-.193.166-.192 1.496-7.318 1.495-7.319-.004-3.133-.004-3.132-.561.876-.561.876-.24-.24-.24-.24.871-1.49.872-1.492h.265l.872 1.491.871 1.491-.24.24-.24.24-.56-.876-.562-.876-.004 3.206-.004 3.206 1.732 7.103 1.733 7.103.065.066.066.065L40.759 20l6.735-6.761-.86.177-.86.177v-.715l1.617-.421 1.618-.422-.182 1.609-.182 1.609-.128.207-.129.208h-.565l.176-1.125.175-1.124-7.02 7.01-7.022 7.009.003.796.003.795.164.992.164.993 10.483-.004 10.482-.004-.876-.561-.876-.562.24-.24.24-.24 1.49.872 1.492.872v.264l-1.491.872-1.492.872-.24-.24-.24-.24.877-.561.876-.561-10.482-.004-10.483-.004-.164.992-.164.992-.003.663-.003.664 7.028 7.01 7.029 7.009-.185-1.026-.185-1.027.36.12.358.12.37 1.514.37 1.515-.152.15-.151.152-1.514-.37-1.515-.369-.12-.36-.12-.359 1.027.185 1.026.185-6.877-6.896-6.877-6.896-.135.007-.134.007-1.653 2.793-1.654 2.792.004 7.718.004 7.717.561-.876.561-.876.24.24.24.24-.871 1.49-.872 1.492h-.133zm-.728-18.012l.463.03v-8.59l-3.43 3.422-3.431 3.423.143.145.143.146 2.825.697 2.824.697zm1.216-.908l.223-.252 1.252-2.093 1.252-2.094-1.475-1.475-1.476-1.476v7.64zm-4.6-4.617l3.064-3.043-2.42-.077-2.42-.076-.106.105-.105.106-.395 2.352-.395 2.352-.143.662-.144.661zm7.342-.794h.21V31.545H30.845l1.169 1.19 1.168 1.19zm-6.405-2.91h2.506l-1.253-1.254-1.253-1.253-1.254 1.253-1.253 1.253zm5.103 0h1.511v-2.351l-.22-.136-.22-.136-1.291 1.311-1.292 1.311zm-2.252-3.942l.074-3.435-.074-3.654-.073-3.654-1.188 5.879-1.187 5.879 1.187 1.21 1.188 1.211zm2.049 1.814l1.46-1.461-1.433-5.813-1.434-5.812-.027 7.273-.027 7.273zM6.195 54.563h-.41l.136-.463.136-.463.176-.992.176-.992h.735v1.176l.412-.588.412-.588h1.249l.419.16.418.161v1.266h1.323v.565l-.728-.084-.727-.084-.463.463-.463.463H7.452l-.241-.725-.242-.726-.182.726-.182.725zm2.086-.529h.344l.318-.317.317-.318v-.921l-.276-.17-.276-.171-.385.32-.385.32v1.258zm4.122.53h-.761v-.83l.529.168.529.168v-.83h-.794v-.529H12.965v-.565l-.53.168-.529.168v-.508l.419-.16.418-.161h.987l-.031 1.124-.031 1.125-.252.33-.252.331zm34.538 0h-.41l.136-.464.136-.463.176-.992.176-.992h.735v1.176l.411-.588.412-.588h1.25l.418.16.419.161v1.266h1.323v.565l-.728-.084-.727-.084-.463.463-.463.463h-1.544l-.242-.725-.241-.726-.183.726-.182.725zm2.086-.53h.344l.318-.317.317-.318v-.921l-.276-.17-.276-.171-.385.32-.386.32v1.258zm4.003.53h-.907v-.24l.286-1.335.287-1.336H54.52l.162.424.163.423-.332.205-.33.205.292.18.293.182v.46l-.416.416-.416.415zm.298-.577l.41-.085.053-.243.052-.242-.298-.1-.298-.099-.164.427-.164.428zm.235-1.276h.412v-.529h-.498l-.163.265-.164.264zm-26.586-7.408h-1.35l.416-.416.415-.416v-.491h-.56l.163-.265.164-.264h.99l-.227.794-.228.793h1.286v-.529h-.529V43.45l.727.032.728.03-.463.121-.463.121v.447l.312.104.312.104-.171.447-.172.447zm-9.408-3.969h-1.203l.416-.416.416-.415v-.492h-.56l.163-.264.164-.265h.99l-.228.794-.228.794h.739l.3-.563.302-.563-.358-.227-.358-.227.728-.004.727-.004v.291l-.404.78-.403.781zM.761 32.603H0v-.829l.53.167.528.168v-.829H.265v-.529h1.058v-.565l-.53.168-.528.168v-.508l.418-.16.419-.161h.987l-.032 1.124-.031 1.124-.252.331-.251.33zm58.09 0h-.907v-.239l.286-1.336.287-1.335H60.342l.162.423.163.424-.332.204-.331.205.293.181.293.181v.46l-.416.416-.416.416zm.298-.576l.41-.086.052-.242.053-.243-.299-.099-.298-.1-.164.428-.164.427zm.234-1.276h.413v-.529h-.498l-.164.264-.163.265zM8.047 10.643h-.62l-.274-.512-.274-.512.237-.624.237-.623.41-.34.41-.34.59.086.588.086.123.373.123.373-.466-.179-.467-.179-.363.302-.364.301v1.258h.756l.397-.397.397-.396h.87l.396.396.397.397h.492V9.32h-.794v-.53h1.058v-.564l-.529.168-.53.167v-.508l.42-.16.418-.16h.987l-.031 1.124-.032 1.124-.251.33-.252.332H10.583v-.794H9.325l-.33.397-.329.397zm40.216 0h-.62l-.273-.512-.274-.512.237-.624.237-.623.41-.34.41-.34.589.086.589.086.123.373.123.373-.467-.179-.466-.179-.363.302-.364.301v1.258h.756l.397-.397.397-.396H50.8v.529h-1.258l-.33.397-.329.397zm3.444 0H50.8v-.239l.287-1.336.286-1.336H53.198l.162.424.163.423-.331.205-.332.205.293.18.293.182v.46l-.416.416-.416.416zm.299-.577l.41-.085.052-.243.052-.242-.298-.1-.298-.099-.164.427-.164.428zm.234-1.276h.412v-.529h-.498l-.163.265-.164.264zm-20.06 1.588h-1.316l.575-.612.576-.613v-.346l-.44.169-.441.169.176-.284.175-.284 1.323-.01 1.323-.01v1.186l-.317.317-.318.318zm.165-.265h.697l.146-.237.146-.236-.34-.131-.34-.13-.503.367-.502.367zm1.169-.882l.176-.176-.176-.176-.176-.177v.706zM30.272 2.97h-.62l-.274-.512-.274-.512.237-.624.237-.623.41-.34.41-.34.59.086.588.087.123.372.123.373-.466-.179-.467-.179-.363.302-.363.301v1.316l.707-.178.708-.177-.343.413-.344.414z" fill="#cfcfcf"/><path d="M28.488 61.707h-.352l.264-1.455.263-1.455h.741l-.168.529-.167.529h.3l.529-.53.53-.528h1.258l.326.393.326.394-.162.646-.162.646-.43.43-.43.43-.688-.08-.688-.081-.294-.594-.295-.594-.175.175-.174.175v.97zm2.018-.53h.344l.318-.317.317-.317v-1.217h-1.001l-.16.418-.161.419V61.178zm-.343-3.174h-.138l-.277-.463-.278-.463-.601-.992-.602-.992h.58l.525.86.524.86v-7.84l.002-7.838-3.77-.949-3.77-.948-5.028 5.046-5.027 5.047 1.125-.165L14.552 49v.493l-.728.144-.727.145-.992.17-.992.171v-.492l.407-1.37.407-1.372h.508v.136l-.265.924-.264.924 5.147-5.159 5.148-5.159.541-3.204.541-3.205v-.602h-9.326l-9.327.002.86.524.86.524v.567l-1.125-.686-1.124-.685-.397-.256-.397-.255.397-.255.397-.256 1.124-.685 1.125-.686v.567l-.86.524-.86.524 9.534.001 9.534.001 1.441-1.46 1.442-1.459-7.363-7.338-7.362-7.338.136.53.137.529.17.595.172.595h-.544l-.26-.992-.26-.992-.186-.766-.185-.766.766.185.766.186.992.26.992.26v.544l-.53-.15-.528-.15-.596-.158-.595-.158 7.136 7.164 7.136 7.164.172-.193.172-.193 1.49-7.276 1.49-7.276-.002-3.307-.002-3.307-.524.86-.525.86h-.566l.685-1.125.686-1.125.255-.397.256-.396.255.396.255.397.686 1.125.686 1.124h-.567l-.525-.86-.524-.86v3.355l-.002 3.353 1.725 7.08 1.724 7.08.074.073.073.074 6.865-6.87 6.865-6.868-.922.264-.922.265h-.136v-.509l1.371-.407 1.37-.407h.493l-.17.992-.172.992-.144.728-.144.727h-.494l.166-1.124.165-1.125-7.041 7.01-7.042 7.01v1.922l.166.826.165.827h10.616l10.617-.002-.86-.524-.86-.524v-.567l1.125.685 1.124.686.397.255.397.256-.397.255-.397.255-1.124.686-1.125.686v-.567l.86-.524.86-.525H45.079l-10.615-.002-.164.992-.164.993-.003.663-.003.663 7.17 7.142 7.17 7.142-.138-.53-.137-.528-.171-.596-.171-.595h.544l.26.992.26.992.186.766.185.766-.766-.185-.766-.185-.992-.26-.992-.26v-.545l.463.13.463.128.661.18.662.178-7.01-7.037-7.01-7.037-.134.01-.134.01-1.653 2.757-1.654 2.757.001 7.883.001 7.883.524-.86.525-.86h.58l-.602.992-.601.992-.278.463-.277.463zm-.331-17.488l.066.025v-8.855l-3.43 3.422-3.431 3.423.142.145.142.146 3.222.835 3.223.834.066.025zm.819-1.178l.223-.252 1.252-2.093 1.252-2.094-1.475-1.475-1.476-1.476v7.64zm-4.6-4.617l3.064-3.043-2.42-.077-2.42-.076-.106.105-.105.106-.395 2.352-.395 2.352-.143.662-.144.661zm7.342-.794h.21V31.545H30.845l1.169 1.19 1.168 1.19zm-6.405-2.91h2.506l-1.253-1.254-1.253-1.253-1.254 1.253-1.253 1.253zm5.103 0h1.511v-2.351l-.22-.136-.22-.136-1.291 1.311-1.292 1.311zm-2.252-3.95l.074-3.427-.074-3.654-.073-3.654-1.202 5.88-1.201 5.88 1.201 1.201 1.202 1.203zm2.054 1.816l1.467-1.466-1.437-5.807-1.437-5.807-.03 7.273-.029 7.273zM6.263 54.563H5.91l.264-1.455.263-1.455h.741l-.168.53-.167.528h.3l.529-.529.53-.53H9.46l.326.394.326.394-.162.646-.162.647-.43.43-.43.43-.688-.081-.688-.08-.294-.595-.295-.593-.175.174-.174.175v.97zm2.018-.529h.344l.318-.317.317-.318v-1.217H8.26l-.16.419-.161.418V54.034zm4.132.525l-.419.004-.176-.176-.176-.176v-.351l.568.02.569.022.115-.33.115-.332h-.838v-.529h.794v-.586l-.42.161-.418.161.11-.33.11-.332h1.279l-.091 1.19-.092 1.191-.305.195-.306.194-.419.004zm34.596.004h-.352l.264-1.455.263-1.455h.741l-.168.529-.168.53h.3l.53-.53.529-.53h1.258l.327.394.326.394-.162.646-.162.647-.43.43-.43.429-.688-.08-.688-.081-.295-.594-.294-.593-.175.174-.175.175v.97zm2.018-.529h.344l.318-.317.317-.318v-1.217h-1.001l-.161.419-.16.418V54.034zm4.035.53h-.849l.264-1.456.264-1.455h1.732l.163.264.164.265-.207.33-.208.332.079.478.079.48-.317.38-.316.381zm.265-.57l.472-.092.118-.356.119-.356-.472.091-.471.092-.119.356-.118.356zm.251-1.283h.397v-.529h-.794v.529zM10.7 53.77h-.677l.163-.265.164-.265H11.377v.53zm40.746 0h-.677l.163-.265.164-.265H52.123v.53zm-25.12-8.472l-.53-.003.354-.224.354-.225-.089-.607-.089-.607.313-.107.313-.107-.048.941-.049.941-.529-.003zm1.453-.079l-.66.05.464-.135.463-.135v-.446l-.312-.104-.313-.104.172-.447.172-.447h.911l-.513.388-.514.389.482.008.483.008-.088.463-.089.463-.659.049zm-10.713-3.89l-.53-.003.354-.224.354-.224-.09-.607-.088-.608.313-.106.313-.107-.049.94-.048.942-.53-.003zm1.412.005h-.222l.008-.199.008-.198.396-.523.395-.523-.47-.186-.47-.186.75-.019.75-.018-.097.198-.097.199-.365.727-.364.728h-.222zM.772 32.599l-.42.004-.176-.177L0 32.25v-.351l.569.021.568.021.115-.33.115-.331H.529v-.53h.794v-.585l-.42.16-.418.161.11-.33.11-.332h1.28l-.092 1.191-.091 1.19-.306.195-.305.194-.42.004zm58.11.004h-.848l.264-1.456.263-1.455h1.733l.163.265.164.264-.208.331-.207.33.079.48.079.478-.317.381-.316.382zm.266-.57l.472-.092.118-.356.119-.356-.472.092-.471.09-.119.357-.118.356zm.251-1.282h.397v-.53h-.794v.53zM8.172 10.588l-.651.078-.189-.188-.188-.189V8.908l.422-.603.423-.603.702.08.702.082-.133.26-.132.26-.446-.075-.447-.076-.301.564-.302.564.156.406.156.406.541-.141.541-.142-.102.31-.101.31zm3.13.05l-.47.004-.153-.397-.152-.397H9.229l.164-.264.163-.265h.837l.321.44.322.44.435-.167.435-.167v-.546h-.793V8.79h.793v-.586l-.419.161-.419.16.11-.33.11-.331h1.28l-.092 1.19-.091 1.191-.306.195-.305.194zm37.086-.05l-.65.078-.189-.188-.189-.189V8.908l.423-.603.422-.603.702.08.702.082-.132.26-.132.26-.447-.075-.446-.076-.302.564-.301.564.156.406.156.406.54-.141.542-.142-.102.31-.102.31zm3.35.054h-.848l.264-1.455.264-1.455h1.732l.164.264.163.265-.207.33-.208.331.08.48.078.478-.316.381-.317.381zm.266-.57l.472-.091.118-.356.119-.356-.472.091-.471.092-.119.356-.118.356zm.251-1.282h.397v-.529h-.794v.529zm-20.439 1.584l-.595.004v-.356l.452-.5.453-.5-.387-.244-.386-.244.595-.004.596-.004v.729l-.41.34-.409.34.343.217.343.218zm1.197-.013l-.602-.017.662-.288.661-.288-.463-.112-.463-.111v-.772l.415-.159.415-.159.256.257.257.257-.268.704-.268.705-.602-.017zm.309-1.042h.28V8.79h-.233l-.164.265-.163.264zm16.8.53h-.676l.163-.265.164-.265H50.8v.529zM30.398 2.914l-.651.079-.189-.189-.188-.188V1.235l.422-.603.423-.603.702.081.702.081-.133.26-.132.26-.446-.075L30.46.56l-.301.564-.302.564.156.406.156.406.541-.141.541-.142-.102.31-.101.31z" fill="#fda9a9"/><path d="M28.488 61.707h-.352l.264-1.455.263-1.455h.741l-.168.529-.167.529h.3l.529-.53.53-.528h1.258l.326.393.326.394-.162.646-.162.646-.43.43-.43.43-.688-.08-.688-.081-.294-.594-.295-.594-.175.175-.174.175v.97zm2.018-.53h.344l.318-.317.317-.317v-1.217h-1.001l-.16.418-.161.419V61.178zm-.343-3.174h-.138l-.277-.463-.278-.463-.601-.992-.602-.992h.58l.525.86.524.86V48.95l.002-7.861-.992-.26-.992-.26-2.76-.693-2.761-.693-5.045 5.073-5.045 5.074 1.124-.165L14.552 49v.493l-.728.144-.727.145-.992.17-.993.171v-.492l.408-1.37.407-1.372h.508v.136l-.265.924-.265.924 5.177-5.177 5.176-5.176.61-3.488.61-3.488h-9.424l-9.424.002.86.524.86.524v.567l-1.125-.686-1.124-.685-.397-.256-.397-.255.397-.255.397-.256 1.124-.685 1.125-.686v.567l-.86.524-.86.524 9.534.001 9.534.001 1.441-1.46 1.442-1.459-7.363-7.338-7.362-7.338.136.53.137.529.17.595.172.595h-.544l-.26-.992-.26-.992-.186-.766-.185-.766.766.185.766.186.992.26.992.26v.544l-.53-.15-.528-.15-.596-.158-.595-.158 7.27 7.298 7.27 7.297 1.517-7.338 1.516-7.338.01-3.572.01-3.571-.524.86-.524.86h-.567l.685-1.125.686-1.125.255-.397.256-.396.255.396.255.397.686 1.125.686 1.124h-.567l-.525-.86-.524-.86V9.23l-.002 3.481 1.588 6.573 1.588 6.573.198.466.198.466 6.877-6.882 6.877-6.882-.922.264-.922.265h-.136v-.509l1.371-.407 1.371-.407h.492l-.17.992-.172.992-.144.728-.144.727h-.493l.165-1.124.165-1.125-7.041 7.01-7.041 7.01v3.575h10.781l10.782-.002-.86-.524-.86-.524v-.567l1.125.685 1.124.686.397.255.397.256-.397.255-.397.256-1.124.685-1.125.686v-.567l.86-.524.86-.525H44.913l-10.781-.001v3.311l7.169 7.141 7.17 7.142-.138-.529-.137-.529-.17-.595-.172-.596h.545l.26.993.26.992.185.766.185.766-.766-.186-.765-.185-.993-.26-.992-.26v-.545l.463.13.463.129.662.179.661.179-7.01-7.038-7.009-7.037h-.273l-1.651 2.715-1.652 2.714.001 7.935.001 7.935.525-.86.524-.86h.58l-.602.993-.601.992-.278.463-.277.463zm-.464-17.49l.199.027v-8.855l-3.44 3.431-3.44 3.432v.294l3.242.822 3.241.822zm2.217-3.112l1.487-2.478-1.488-1.488-1.488-1.488.001 3.966.001 3.966 1.487-2.478zm-5.849-2.686l3.048-3.038-2.42-.077-2.42-.076-.134.133-.132.132-.483 2.59-.484 2.59-.012.392-.011.393zm7.459-.525h.076v-2.645h-2.759l1.304 1.323 1.303 1.322zm-6.538-3.175h2.506l-1.253-1.253-1.253-1.253-1.254 1.253-1.253 1.253zm5.102 0h1.512v-2.91h-.15l-1.437 1.455-1.438 1.455zm-2.268-.529h.076l-.022-7.342-.022-7.342-1.28 6.085-1.279 6.086 1.225 1.256 1.226 1.257h.076zm2.1-1.633l1.495-1.495-1.465-5.91-1.465-5.91-.03 7.405-.03 7.405zm-25.66 25.71h-.351l.264-1.455.263-1.455h.741l-.168.53-.167.528h.3l.529-.529.53-.53H9.46l.326.394.326.394-.162.646-.162.647-.43.43-.43.43-.688-.081-.688-.08-.294-.595-.295-.593-.175.174-.174.175v.97zm2.02-.529h.343l.318-.317.317-.318v-1.217H8.26l-.16.419-.161.418V54.034zm4.131.525l-.419.004-.176-.176-.176-.176v-.351l.568.02.569.022.115-.33.115-.332h-.838v-.529h.794v-.586l-.42.161-.418.161.11-.33.11-.332h1.279l-.091 1.19-.092 1.191-.305.195-.306.194-.419.004zm34.596.004h-.352l.264-1.455.263-1.455h.741l-.168.529-.168.53h.3l.53-.53.529-.53h1.258l.327.394.326.394-.162.646-.162.647-.43.43-.43.429-.688-.08-.688-.081-.295-.594-.294-.593-.175.174-.175.175v.97zm2.018-.529h.344l.318-.317.317-.318v-1.217h-1.001l-.161.419-.16.418V54.034zm4.035.53h-.849l.264-1.456.264-1.455h1.732l.163.264.164.265-.207.33-.208.332.079.478.079.48-.317.38-.316.381zm.265-.57l.472-.092.118-.356.119-.356-.472.091-.471.092-.119.356-.118.356zm.251-1.283h.397v-.529h-.794v.529zM10.7 53.77h-.677l.163-.265.164-.265H11.377v.53zm40.746 0h-.677l.163-.265.164-.265H52.123v.53zm-25.12-8.472l-.53-.003.354-.224.354-.225-.089-.607-.089-.607.313-.107.313-.107-.048.941-.049.941-.529-.003zm1.453-.079l-.66.05.464-.135.463-.135v-.446l-.312-.104-.313-.104.172-.447.172-.447h.911l-.513.388-.514.389.482.008.483.008-.088.463-.089.463-.659.049zm-10.713-3.89l-.53-.003.354-.224.354-.224-.09-.607-.088-.608.313-.106.313-.107-.049.94-.048.942-.53-.003zm1.412.005h-.222l.008-.199.008-.198.396-.523.395-.523-.47-.186-.47-.186.75-.019.75-.018-.097.198-.097.199-.365.727-.364.728h-.222zM.772 32.599l-.42.004-.176-.177L0 32.25v-.351l.569.021.568.021.115-.33.115-.331H.529v-.53h.794v-.585l-.42.16-.418.161.11-.33.11-.332h1.28l-.092 1.191-.091 1.19-.306.195-.305.194-.42.004zm58.11.004h-.848l.264-1.456.263-1.455h1.733l.163.265.164.264-.208.331-.207.33.079.48.079.478-.317.381-.316.382zm.266-.57l.472-.092.118-.356.119-.356-.472.092-.471.09-.119.357-.118.356zm.251-1.282h.397v-.53h-.794v.53zM8.172 10.588l-.651.078-.189-.188-.188-.189V8.908l.422-.603.423-.603.702.08.702.082-.133.26-.132.26-.446-.075-.447-.076-.301.564-.302.564.156.406.156.406.541-.141.541-.142-.102.31-.101.31zm3.13.05l-.47.004-.153-.397-.152-.397H9.229l.164-.264.163-.265h.837l.321.44.322.44.435-.167.435-.167v-.546h-.793V8.79h.793v-.586l-.419.161-.419.16.11-.33.11-.331h1.28l-.092 1.19-.091 1.191-.306.195-.305.194zm37.086-.05l-.65.078-.189-.188-.189-.189V8.908l.423-.603.422-.603.702.08.702.082-.132.26-.132.26-.447-.075-.446-.076-.302.564-.301.564.156.406.156.406.54-.141.542-.142-.102.31-.102.31zm3.35.054h-.848l.264-1.455.264-1.455h1.732l.164.264.163.265-.207.33-.208.331.08.48.078.478-.316.381-.317.381zm.266-.57l.472-.091.118-.356.119-.356-.472.091-.471.092-.119.356-.118.356zm.251-1.282h.397v-.529h-.794v.529zm-20.439 1.584l-.595.004v-.356l.452-.5.453-.5-.387-.244-.386-.244.595-.004.596-.004v.729l-.41.34-.409.34.343.217.343.218zm1.197-.013l-.602-.017.662-.288.661-.288-.463-.112-.463-.111v-.772l.415-.159.415-.159.256.257.257.257-.268.704-.268.705-.602-.017zm.309-1.042h.28V8.79h-.233l-.164.265-.163.264zm16.8.53h-.676l.163-.265.164-.265H50.8v.529zM30.398 2.914l-.651.079-.189-.189-.188-.188V1.235l.422-.603.423-.603.702.081.702.081-.133.26-.132.26-.446-.075L30.46.56l-.301.564-.302.564.156.406.156.406.541-.141.541-.142-.102.31-.101.31z" fill="#fd6666"/><path d="M28.488 61.707h-.352l.264-1.455.263-1.455h.741l-.168.529-.167.529h.3l.529-.53.53-.528h1.258l.326.393.326.394-.162.646-.162.646-.43.43-.43.43-.688-.08-.688-.081-.294-.594-.295-.594-.175.175-.174.175v.97zm2.018-.53h.344l.318-.317.317-.317v-1.217h-1.001l-.16.418-.161.419V61.178zm-.343-3.174h-.138l-.277-.463-.278-.463-.601-.992-.602-.992h.58l.527.86.527.86-.068-7.924-.067-7.923-3.666-.912-3.665-.912-5.066 5.094-5.066 5.095 1.125-.165L14.552 49v.493l-.728.144-.727.145-.992.17-.993.171v-.492l.408-1.37.407-1.372h.508v.136l-.264.922-.264.921 5.257-5.252 5.258-5.253.452-2.814.452-2.815.14-.595.14-.595h-9.488l-9.488.002.86.524.86.524v.567l-1.124-.686-1.125-.685-.397-.256-.397-.255.397-.255.397-.256 1.125-.685 1.124-.686v.567l-.86.524-.86.524 9.534.001 9.534.001 1.442-1.46 1.44-1.459-7.362-7.338-7.362-7.338.136.53.137.529.17.595.172.595h-.544l-.26-.992-.26-.992-.186-.766-.185-.766.766.185.766.186.992.26.992.26v.544l-.53-.15-.528-.15-.596-.158-.595-.158 7.264 7.292 7.264 7.291.054-.056.053-.056 1.48-7.15 1.48-7.15-.001-3.698-.001-3.697-.524.86-.525.86h-.567l.686-1.125.686-1.125.255-.396.256-.397.255.397.255.396.686 1.125.686 1.124h-.567l-.525-.86-.524-.86-.007 3.572-.007 3.572 1.66 6.945 1.66 6.945h.269l6.875-6.878 6.875-6.88-.922.265-.922.265h-.136v-.509l1.37-.407 1.372-.407h.492l-.171.992-.17.992-.145.728-.144.727h-.494l.166-1.124.165-1.125-7.098 7.012-7.097 7.011-.071.017-.07.017.164 1.769.166 1.77 10.743-.002h10.744l-.86-.525-.86-.524v-.567l1.124.685 1.125.686.397.255.397.256-.397.255-.397.256-1.125.685-1.124.686v-.567l.86-.524.86-.525h-10.75l-10.748-.002-.14 1.522-.138 1.521 7.275 7.276 7.275 7.276-.136-.529-.137-.53-.171-.594-.171-.596h.544l.26.992.26.993.186.765.185.766-.766-.185-.766-.185-.992-.26-.992-.26v-.545l.463.13.463.128.661.18.662.178-7.127-7.154-7.128-7.155-1.67 2.78-1.67 2.782v7.986l.002 7.986.524-.86.524-.86h.58l-.601.992-.602.993-.277.463-.278.463zm-.596-17.488l.33.025v-8.856l-3.575 3.568-3.576 3.569 3.245.835 3.245.834.331.025zm1.029-.849l.169-.169 1.396-2.322 1.396-2.323h-.1l-1.515-1.446-1.515-1.446v7.875zM25.97 34.81l3.133-3.125v-.14h-5.211l-.528 3.195-.528 3.196zm7.515-.692l.048-.06.183-1.257.182-1.256H30.844l1.297 1.316 1.297 1.317zm-6.498-3.103h2.506l-1.253-1.253-1.253-1.253-1.254 1.253-1.253 1.253zm5.243 0h1.654l-.177-1.389-.178-1.389-.045-.06-.046-.059-1.43 1.449-1.432 1.448zm-2.392-4.222l.073-3.715-.073-3.77-.073-3.77-1.26 6.205-1.26 6.206 1.26 1.28 1.26 1.279zm2.06 2.097l1.471-1.446-.163-1.059-.164-1.058-1.29-5.16-1.29-5.159-.018 7.664-.018 7.664L31.9 28.89zM6.263 54.563H5.91l.264-1.455.263-1.455h.741l-.168.53-.167.528h.3l.529-.529.53-.53H9.46l.326.394.326.394-.162.646-.162.647-.43.43-.43.43-.688-.081-.688-.08-.294-.595-.295-.593-.175.174-.174.175v.97zm2.018-.529h.344l.318-.317.317-.318v-1.217H8.26l-.16.419-.161.418V54.034zm4.132.525l-.419.004-.176-.176-.176-.176v-.351l.568.02.569.022.115-.33.115-.332h-.838v-.529h.794v-.586l-.42.161-.418.161.11-.33.11-.332h1.279l-.091 1.19-.092 1.191-.305.195-.306.194-.419.004zm34.596.004h-.352l.264-1.455.263-1.455h.741l-.168.529-.168.53h.3l.53-.53.529-.53h1.258l.327.394.326.394-.162.646-.162.647-.43.43-.43.429-.688-.08-.688-.081-.295-.594-.294-.593-.175.174-.175.175v.97zm2.018-.529h.344l.318-.317.317-.318v-1.217h-1.001l-.161.419-.16.418V54.034zm4.035.53h-.849l.264-1.456.264-1.455h1.732l.163.264.164.265-.207.33-.208.332.079.478.079.48-.317.38-.316.381zm.265-.57l.472-.092.118-.356.119-.356-.472.091-.471.092-.119.356-.118.356zm.251-1.283h.397v-.529h-.794v.529zM10.7 53.77h-.677l.163-.265.164-.265H11.377v.53zm40.746 0h-.677l.163-.265.164-.265H52.123v.53zm-25.12-8.472l-.53-.003.354-.224.354-.225-.089-.607-.089-.607.313-.107.313-.107-.048.941-.049.941-.529-.003zm1.453-.079l-.66.05.464-.135.463-.135v-.446l-.312-.104-.313-.104.172-.447.172-.447h.911l-.513.388-.514.389.482.008.483.008-.088.463-.089.463-.659.049zm-10.713-3.89l-.53-.003.354-.224.354-.224-.09-.607-.088-.608.313-.106.313-.107-.049.94-.048.942-.53-.003zm1.412.005h-.222l.008-.199.008-.198.396-.523.395-.523-.47-.186-.47-.186.75-.019.75-.018-.097.198-.097.199-.365.727-.364.728h-.222zM.772 32.599l-.42.004-.176-.177L0 32.25v-.351l.569.021.568.021.115-.33.115-.331H.529v-.53h.794v-.585l-.42.16-.418.161.11-.33.11-.332h1.28l-.092 1.191-.091 1.19-.306.195-.305.194-.42.004zm58.11.004h-.848l.264-1.456.263-1.455h1.733l.163.265.164.264-.208.331-.207.33.079.48.079.478-.317.381-.316.382zm.266-.57l.472-.092.118-.356.119-.356-.472.092-.471.09-.119.357-.118.356zm.251-1.282h.397v-.53h-.794v.53zM8.172 10.588l-.651.078-.189-.188-.188-.189V8.908l.422-.603.423-.603.702.08.702.082-.133.26-.132.26-.446-.075-.447-.076-.301.564-.302.564.156.406.156.406.541-.141.541-.142-.102.31-.101.31zm3.13.05l-.47.004-.153-.397-.152-.397H9.229l.164-.264.163-.265h.837l.321.44.322.44.435-.167.435-.167v-.546h-.793V8.79h.793v-.586l-.419.161-.419.16.11-.33.11-.331h1.28l-.092 1.19-.091 1.191-.306.195-.305.194zm37.086-.05l-.65.078-.189-.188-.189-.189V8.908l.423-.603.422-.603.702.08.702.082-.132.26-.132.26-.447-.075-.446-.076-.302.564-.301.564.156.406.156.406.54-.141.542-.142-.102.31-.102.31zm3.35.054h-.848l.264-1.455.264-1.455h1.732l.164.264.163.265-.207.33-.208.331.08.48.078.478-.316.381-.317.381zm.266-.57l.472-.091.118-.356.119-.356-.472.091-.471.092-.119.356-.118.356zm.251-1.282h.397v-.529h-.794v.529zm-20.439 1.584l-.595.004v-.356l.452-.5.453-.5-.387-.244-.386-.244.595-.004.596-.004v.729l-.41.34-.409.34.343.217.343.218zm1.197-.013l-.602-.017.662-.288.661-.288-.463-.112-.463-.111v-.772l.415-.159.415-.159.256.257.257.257-.268.704-.268.705-.602-.017zm.309-1.042h.28V8.79h-.233l-.164.265-.163.264zm16.8.53h-.676l.163-.265.164-.265H50.8v.529zM30.398 2.914l-.651.079-.189-.189-.188-.188V1.235l.422-.603.423-.603.702.081.702.081-.133.26-.132.26-.446-.075L30.46.56l-.301.564-.302.564.156.406.156.406.541-.141.541-.142-.102.31-.101.31z" fill="#8d8d8d"/><path d="M28.538 61.597l-.3.187.182-1.03.183-1.031.136-.463.136-.463h.444l-.138.529-.139.529h.509l.48-.53.478-.528h1.222l.274.512.274.511-.237.624-.237.623-.41.34-.41.34-.61-.086-.61-.086-.084-.596-.084-.595h-.757V61.411zm2.16-.42h.504l.294-.549.295-.55-.145-.376-.144-.376h-1.088l-.26.684-.26.683.15.243.15.242zm-.535-3.439h-.215l-.71-1.211-.71-1.211.136-.137.137-.136.482.885.483.884.07-7.67.07-7.67-.105-.272-.105-.274-3.744-.91-3.744-.908-5.085 5.015-5.084 5.016 5.14-5.21 5.142-5.21.61-3.503.61-3.502-.088-.088-.088-.088-9.368.07-9.367.069.885.483.884.482-.136.136-.136.136-1.211-.71-1.212-.71v-.428l1.212-.71 1.211-.71.136.136.136.136-.884.483-.885.482 9.514.07 9.514.07 1.536-1.52 1.536-1.52-7.346-7.413-7.345-7.414 7.332 7.264 7.332 7.264.117-.12.118-.12 1.488-7.187 1.487-7.187-.074-3.661-.073-3.661-.483.884-.482.885-.137-.136-.136-.136.71-1.212.71-1.211h.429l.71 1.211.71 1.212-.136.136-.137.136-.482-.885-.483-.884-.073 3.619-.074 3.619 1.609 6.7 1.609 6.7.13.383.13.383 7.066-6.998 7.066-6.998-7.075 7.144-7.074 7.144.167 1.786.168 1.786h21.354v-.251l-.818-.424-.818-.423.136-.136.136-.136 1.211.71 1.212.71v.428l-1.212.71-1.211.71-.136-.136-.136-.136.884-.482.885-.483-10.69-.07-10.691-.068-.055.069-.055.069-.157 1.587-.157 1.588 7.196 7.276 7.196 7.276-7.198-7.132-7.197-7.132-.099.12-.099.121-1.635 2.73-1.635 2.731.07 7.985.07 7.985.483-.884.482-.885.137.137.136.136-.71 1.211-.71 1.211zm-.596-17.223l.33.025-.002-4.564-.003-4.564-3.636 3.679-3.635 3.678 3.307.861 3.308.86.33.025zm1.022-.842l.176-.176 1.402-2.322 1.401-2.323-1.504-1.587-1.505-1.587 1.383 1.306 1.383 1.307.105-.117.104-.116.185-1.27.184-1.27-1.672.08-1.672.079-.073 4.086-.073 4.086zm-7.587-1.778h.157l3.167-3.175 3.167-3.175h-5.6l-.525 3.175-.524 3.175zm4.07-6.88h2.578l.128-.334.129-.334-.07-7.405-.071-7.405-1.281 6.317-1.28 6.316 1.28 1.357 1.28 1.356-1.332-1.257-1.332-1.257-1.304 1.323-1.303 1.323zm5.02 0h1.793l-.177-1.389-.178-1.389-.106-.12-.106-.12-1.509 1.51-1.508 1.508zm-.19-1.86l1.475-1.447-.164-1.19-.164-1.191-1.293-5.16-1.293-5.159-.018 7.796-.018 7.796 1.475-1.446zM6.313 54.453l-.3.186.182-1.03.183-1.031.136-.463.136-.463h.444l-.138.53-.139.528h.509l.48-.529.478-.53h1.222l.274.513.274.512-.237.623-.237.624-.41.34-.41.34-.61-.086-.61-.087-.084-.595-.084-.596h-.757v1.028zm2.16-.42h.504l.294-.55.295-.55-.145-.376-.144-.376H8.189l-.26.684-.26.683.15.243.15.242zm3.974.53h-.453l-.176-.177-.176-.176v-.368l.661.126.662.127v-.856h-.794v-.467l.595-.197.595-.196-.599-.118-.599-.118.152-.245.152-.246h.996l.163.265.164.264-.208.33-.207.332.079.478.078.48-.316.38-.316.381zm34.612-.11l-.301.186.183-1.03.183-1.031.136-.463.136-.463h.444l-.138.53-.139.528h.509l.479-.529.479-.53h1.222l.274.513.274.512-.237.623-.237.624-.41.34-.41.34-.61-.086-.61-.087-.084-.595-.085-.596h-.757v1.028zm2.16-.42h.504l.294-.55.295-.55-.145-.376-.144-.376h-1.088l-.26.684-.26.683.15.243.15.242zm3.9.53h-.79l.175-.993.176-.992.141-.478.141-.479.705.082.705.081.057 1.042.058 1.042-.289.347-.288.347zm.327-.53h.529v-.794h-1.058v.794zm.117-1.323h.38l.164-.264.164-.265h-1.09v.529zM10.7 53.77h-.381v-.53h1.089l-.163.265-.164.265zm40.746 0h-.381v-.53h1.089l-.163.265-.164.265zm-2.432-3.471l-.198-.032-1.588-.487-1.587-.487 1.323.056 1.322.055-.057-1.323-.058-1.323.512 1.72.51 1.72.01.066.009.066-.199-.031zm-37.058-.401l-.877.16.155-.488.155-.489.386-1.161.385-1.162-.132.957-.132.956.152.399.153.398 1.242-.093 1.241-.092-.926.227-.926.227zm14.37-4.617l-.53-.02.332-.133.33-.134V43.451h.437l-.02.925-.02.925-.529-.02zm1.103.005l-.31-.017.662-.288.662-.288-.463-.111-.463-.112v-.509l.529.284.529.283v.454l-.419.16-.418.161-.31-.017zm.727-1.591l-.507-.021.347-.14.347-.138.16.16.16.16-.507-.021zm-11.09-2.382l-.53-.02.331-.134.33-.133v-1.544h.437l-.02.925-.02.926-.528-.02zm1.579-.376l-.445.53.425-.719.425-.718v-.244l-.463-.121-.463-.121.737-.031.737-.03-.255.462-.254.463zM.805 32.603H.353l-.177-.176L0 32.25v-.367l.661.126.662.127v-.856H.529v-.467l.595-.197.596-.197-.6-.117-.599-.118.152-.246.152-.245h.996l.163.264.164.265-.208.33-.207.331.079.479.079.479-.317.38-.316.382zm58.135 0h-.79l.175-.992.176-.992.141-.479.14-.478.706.081.705.082.057 1.042.058 1.041-.289.348-.288.347zm.327-.53h.529v-.793H58.737v.794zm.116-1.322h.382l.163-.265.164-.264h-1.09v.529zM12.068 15.67h-.099l-.308-1.257-.308-1.257-.141-.473-.142-.474.749.184.749.183 1.058.332 1.058.333-1.323-.043-1.322-.042.064 1.257.064 1.257zm36.47-1.588l-.363 1.72.088-1.242.087-1.241-.398-.153-.398-.153-.957.135-.956.134 1.576-.515 1.576-.515.054.055.053.055zM8.29 10.59l-.531.079-.331-.399-.331-.399.177-.806.177-.807.49-.263.49-.262h.829v.529h-.993l-.319.384-.319.385.096.475.097.476.594-.022.594-.022-.094.287-.094.286zm3.099.054h-.453l-.176-.177-.177-.176v-.368l.662.127.661.126V9.32h-.793v-.468l.595-.197.595-.196-.6-.118-.598-.118.151-.245.152-.246h.996l.164.265.163.264-.207.331-.208.33.08.48.078.478-.316.381-.317.382zm37.118-.054l-.531.079-.331-.399-.331-.399.177-.806.177-.807.49-.263.49-.262h.829v.529h-.993l-.32.384-.318.385.096.475.096.476.595-.022.594-.022-.094.287-.094.286zm3.29.054h-.791l.176-.993.175-.992.141-.478.141-.479.705.082.705.081.057 1.042.058 1.042-.289.347-.288.347zm.326-.53h.53V9.32h-1.06v.793zm.117-1.323h.38l.164-.264.164-.265h-1.09v.529zm-20.424 1.567l-.595.021v-.473l.427-.163.427-.164-.138-.526-.137-.526h.391l.177.177.178.178-.391.596-.391.597.324.131.323.131-.595.021zm1.006.004l-.41-.017.66-.288.662-.288-.478-.114-.478-.115.084-.437.085-.438.46-.089.46-.088v1.256l-.318.317-.317.318-.41-.017zm.516-1.042h.264V8.79h-.529v.529zm-23.432.53h-.381v-.53h1.09l-.164.265-.163.265zm40.217 0h-.381v-.53h1.089l-.163.265-.164.265zM30.515 2.916l-.531.079-.331-.399-.331-.399.177-.806.177-.807.49-.263.49-.262h.829v.529h-.993l-.319.384-.319.385.096.475.097.476.594-.022.594-.022-.094.287-.094.286z" fill="#676767"/><path d="M28.651 61.112l-.29.727.15-.926.151-.926.198-.661.199-.662.022.596.023.595h.577l.46-.569.461-.57.707.178.706.177v1.578l-.53.529-.529.53h-1.048l-.166-.662-.166-.662h-.634l-.29.728zm1.876.066h.629l.319-.384.319-.384-.091-.473-.091-.473-.473-.09-.473-.092-.384.319-.384.319v1.258zm-24.1-7.21l-.291.728.15-.926.151-.926.198-.662.199-.661.022.595.023.595h.577l.46-.569.461-.569.706.177.707.178v1.577l-.53.53-.529.528H7.683l-.166-.661-.166-.662h-.634zm1.875.066h.629l.319-.384.319-.384-.091-.473-.091-.473-.473-.09-.473-.092-.384.32-.384.318v1.258zm4.101.53h-.497v-.53H12.965v-.794h-.794v-.529H13.23v-.529l-.596-.004-.595-.004.396-.256.397-.257.317-.004.317-.004-.032 1.125-.03 1.124-.253.33-.251.331h-.497zm34.77-.596l-.291.728.15-.927.15-.926.2-.661.198-.661.022.595.023.595h.577l.46-.569.461-.569.706.177.706.177v1.578l-.529.53-.529.528H48.43l-.166-.661-.166-.662h-.634l-.29.728zm1.875.066h.629l.319-.384.319-.384-.091-.473-.091-.473-.473-.09-.473-.092-.384.32-.384.318v1.259zm3.982.53h-.643v-.24l.29-1.35.29-1.352.7.082.7.081.064.53.064.528-.15-.33-.15-.331h-.983l-.163.265-.164.264h.984l.318.318.317.317v.386l-.416.415-.415.416zm.351-.579l.726-.083v-.529l-.561-.08-.562-.08-.164.428-.165.428zm-42.665-.216h-.397v-.529h.794v.529zm40.745 0h-.396v-.529h.793v.529zM26.57 45.282l-.508-.021.348-.139.347-.139.16.16.16.16-.507-.021zm1.212.02h-.353l.177-.176.176-.176.177.176.176.177zm.265-.793h-.353l.176-.176.177-.177.176.177.177.176zm.11-.815l-.507-.02.347-.14.347-.138.16.16.16.16-.507-.022zm-10.848-2.38l-.507-.022.347-.139.348-.139.16.16.16.16-.508-.02zm1.08.02h-.132v-.265h.265v.265zm11.649-.29l-.271-.025-3.705-.94-3.704-.939-.05-.033-.049-.033.68-3.963.679-3.963 1.685-1.76 1.686-1.76v-.436l1.44-7.018 1.441-7.018.1-.662.1-.661.155.397.155.397 1.63 6.835 1.628 6.836.257 1.499.257 1.498-.028 2.117-.03 2.117-.066.7-.066.701L32.134 38l-1.826 3.07-.271-.026zm-.404-.54l.397.02.415-.587.415-.587 1.41-2.351 1.41-2.351-.006-3.205-.007-3.206-.302-1.323-.303-1.323-1.37-5.673-1.371-5.674-.312.779-.311.779-1.247 6.218-1.247 6.217-1.67 1.72-1.669 1.72-.409 2.513-.41 2.514-.15 1.068-.151 1.068 3.245.823 3.246.823.397.019zm-10.715.036h-.133v-.264h.265v.264zm-.022-.814l-.507-.021.347-.14.347-.138.16.16.16.16-.507-.021zM.76 32.603H.265v-.529h1.058v-.794H.529v-.529H1.588v-.529l-.596-.004-.595-.004.397-.257.397-.256.316-.004.317-.004-.031 1.124-.032 1.125-.251.33-.252.331H.761zm58.09 0h-.643v-.239l.29-1.35.29-1.352.7.081.7.082.064.529.064.529-.15-.33-.15-.331h-.983l-.163.264-.164.265h.984l.317.317.318.318v.385l-.416.416-.416.416zm.351-.578l.726-.084v-.529l-.561-.08-.562-.08-.164.428-.165.429zM8.063 10.643h-.371l-.274-.512-.274-.512.237-.624.237-.623.42-.35.422-.35.466.204.467.203-.53.12-.529.12-.33.268-.331.268v1.258h1.089l-.163.265-.164.265zm3.282 0h-.497v-.53h1.058V9.32h-.793v-.53h1.058v-.529l-.595-.004-.596-.004.397-.256.397-.257.317-.004.316-.004-.03 1.125-.032 1.124-.252.331-.252.33zm36.935 0h-.372l-.274-.512-.274-.512.237-.624.237-.623.422-.35.42-.35.467.204.466.203-.529.12-.529.12-.33.268-.331.268v1.258h1.089l-.163.265-.164.265zm3.427 0h-.642v-.239l.29-1.351.29-1.351.7.081.7.081.063.53.064.529-.15-.331-.15-.33h-.983l-.163.264-.164.264h.984l.318.318.317.317v.386l-.416.416-.415.416zm.351-.578l.726-.084v-.529l-.561-.08-.562-.08-.164.428-.165.428zm-20.308.271h-.661l.33-.133.331-.134.33.134.331.133zm1.323.042h-.353l.177-.176.176-.177.176.177.177.176zm-23.151-.53h-.397V9.32h.794v.529zm40.217 0h-.397V9.32h.793v.529zm-16.691-.285l-.507-.02.347-.14.347-.139.16.16.16.16zm-1.433-.773h-.353l.176-.176.177-.176.176.176.176.176zm1.455 0h-.132v-.264h.264v.264zm-3.182-5.82h-.371l-.274-.512-.274-.512.237-.624.237-.623.42-.35.422-.349.466.203.467.203-.53.12-.529.12-.33.268-.331.268V2.44h1.089l-.163.265-.164.265z" fill="#fc0e0e"/><path d="M28.651 61.112l-.29.727.15-.926.151-.926.198-.661.199-.662.022.596.023.595h.577l.46-.569.461-.57.707.178.706.177v1.578l-.53.529-.529.53h-1.048l-.166-.662-.166-.662h-.634l-.29.728zm1.876.066h.629l.319-.384.319-.384-.091-.473-.091-.473-.473-.09-.473-.092-.384.319-.384.319v1.258zm-24.1-7.21l-.291.728.15-.926.151-.926.198-.662.199-.661.022.595.023.595h.577l.46-.569.461-.569.706.177.707.178v1.577l-.53.53-.529.528H7.683l-.166-.661-.166-.662h-.634zm1.875.066h.629l.319-.384.319-.384-.091-.473-.091-.473-.473-.09-.473-.092-.384.32-.384.318v1.258zm4.101.53h-.497v-.53H12.965v-.794h-.794v-.529H13.23v-.529l-.596-.004-.595-.004.396-.256.397-.257.317-.004.317-.004-.032 1.125-.03 1.124-.253.33-.251.331h-.497zm34.77-.596l-.291.728.15-.927.15-.926.2-.661.198-.661.022.595.023.595h.577l.46-.569.461-.569.706.177.706.177v1.578l-.529.53-.529.528H48.43l-.166-.661-.166-.662h-.634l-.29.728zm1.875.066h.629l.319-.384.319-.384-.091-.473-.091-.473-.473-.09-.473-.092-.384.32-.384.318v1.259zm3.982.53h-.643v-.24l.29-1.35.29-1.352.7.082.7.081.064.53.064.528-.15-.33-.15-.331h-.983l-.163.265-.164.264h.984l.318.318.317.317v.386l-.416.415-.415.416zm.351-.579l.726-.083v-.529l-.561-.08-.562-.08-.164.428-.165.428zm-42.665-.216h-.397v-.529h.794v.529zm40.745 0h-.396v-.529h.793v.529zM26.57 45.282l-.508-.021.348-.139.347-.139.16.16.16.16-.507-.021zm1.212.02h-.353l.177-.176.176-.176.177.176.176.177zm.265-.793h-.353l.176-.176.177-.177.176.177.177.176zm.11-.815l-.507-.02.347-.14.347-.138.16.16.16.16-.507-.022zm-10.848-2.38l-.507-.022.347-.139.348-.139.16.16.16.16-.508-.02zm1.08.02h-.132v-.265h.265v.265zm.53-.794h-.133v-.264h.265v.264zm-.022-.814l-.507-.021.347-.14.347-.138.16.16.16.16-.507-.021zM.76 32.603H.265v-.529h1.058v-.794H.529v-.529H1.588v-.529l-.596-.004-.595-.004.397-.257.397-.256.316-.004.317-.004-.031 1.124-.032 1.125-.251.33-.252.331H.761zm58.09 0h-.643v-.239l.29-1.35.29-1.352.7.081.7.082.064.529.064.529-.15-.33-.15-.331h-.983l-.163.264-.164.265h.984l.317.317.318.318v.385l-.416.416-.416.416zm.351-.578l.726-.084v-.529l-.561-.08-.562-.08-.164.428-.165.429zM8.063 10.643h-.371l-.274-.512-.274-.512.237-.624.237-.623.42-.35.422-.35.466.204.467.203-.53.12-.529.12-.33.268-.331.268v1.258h1.089l-.163.265-.164.265zm3.282 0h-.497v-.53h1.058V9.32h-.793v-.53h1.058v-.529l-.595-.004-.596-.004.397-.256.397-.257.317-.004.316-.004-.03 1.125-.032 1.124-.252.331-.252.33zm36.935 0h-.372l-.274-.512-.274-.512.237-.624.237-.623.422-.35.42-.35.467.204.466.203-.529.12-.529.12-.33.268-.331.268v1.258h1.089l-.163.265-.164.265zm3.427 0h-.642v-.239l.29-1.351.29-1.351.7.081.7.081.063.53.064.529-.15-.331-.15-.33h-.983l-.163.264-.164.264h.984l.318.318.317.317v.386l-.416.416-.415.416zm.351-.578l.726-.084v-.529l-.561-.08-.562-.08-.164.428-.165.428zm-20.308.271h-.661l.33-.133.331-.134.33.134.331.133zm1.323.042h-.353l.177-.176.176-.177.176.177.177.176zm-23.151-.53h-.397V9.32h.794v.529zm40.217 0h-.397V9.32h.793v.529zm-16.691-.285l-.507-.02.347-.14.347-.139.16.16.16.16zm-1.433-.773h-.353l.176-.176.177-.176.176.176.176.176zm1.455 0h-.132v-.264h.264v.264zm-3.182-5.82h-.371l-.274-.512-.274-.512.237-.624.237-.623.42-.35.422-.349.466.203.467.203-.53.12-.529.12-.33.268-.331.268V2.44h1.089l-.163.265-.164.265z" fill="#060606"/></svg>