<svg xmlns="http://www.w3.org/2000/svg" width="229.292" height="233.724" viewBox="0 0 60.666722 61.839539"><path d="M28.42 61.707h-.41l.136-.463.136-.463.176-.992.176-.992h.735v1.176l.412-.588.412-.588h1.249l.419.16.418.161V60.649l-.529.53-.53.528H29.678l-.241-.725-.242-.726-.182.726-.182.725zm2.087-.529h.343l.318-.317.317-.318v-.921l-.276-.17-.276-.172-.385.32-.385.32v1.259zm-.344-2.92h-.133l-.871-1.492-.872-1.49.24-.24.24-.24.56.875.562.877.004-9.856.004-9.856h-.198l-.199-.001-3.09.707-3.09.707-5.509 5.521-5.509 5.522 1.125-.176 1.124-.176v.565l-.207.129-.208.128-1.609.182-1.608.182.421-1.618.422-1.617h.715l-.178.86-.178.86 4.132-4.102 4.132-4.1-1.396-.156-1.395-.155.35-.043.35-.044-.086-.722-.085-.723.46-.09.46-.09-.162.813-.163.812h.799l.138-.529.138-.529h-.511l.164-.264.163-.265h.823l-.116.794-.117.793h.592l1.118-1.139 1.118-1.139-3.29-3.094-3.29-3.094-5.776.004-5.777.004.876.561.877.561-.24.24-.24.24-1.491-.872-1.491-.871v-.265l1.49-.872 1.492-.871.24.24.24.24-.877.56-.876.562 5.717.004 5.717.004.192-6.392.193-6.391-2.3-2.274-2.3-2.273.173.992.172.992h-.716l-.41-1.713-.41-1.714.101-.1.102-.102 1.713.41 1.713.41v.716l-.992-.175-.992-.175 1.44 1.48 1.441 1.48.478-.431.477-.433v-.478l-.264.164-.265.163v-.5h2.646V15.686l-.444.17-.443.17.51.2.51.2-1.45.018-1.45.019.68.678.677.678 5.854-.546 5.853-.546h1.08l-.004-5.357-.004-5.358-.561.876-.561.876-.24-.24-.24-.24.871-1.49.872-1.492h.265l.872 1.491.871 1.491-.24.24-.24.24-.56-.876-.562-.876-.004 5.38-.004 5.379 2.677 3.748 2.677 3.749.175.193.175.193 5.68-5.707 5.682-5.708-.86.178-.86.177v-.714l1.617-.422 1.618-.421-.182 1.608-.182 1.609-.128.207-.129.208h-.565l.175-1.124.176-1.125-5.877 5.868-5.876 5.868 1.188 2.863 1.188 2.864 8.317.064 8.317.063-.876-.563-.877-.563.24-.24.24-.24 1.491.871 1.491.872v.265l-1.49.871-1.492.872-.24-.24-.24-.24.877-.56.876-.562h-8.334l-8.335.002-1.701 2.26-1.702 2.262 6.414 6.398 6.415 6.4-.185-1.027-.184-1.026.36.12.358.12.37 1.514.37 1.514-.152.151-.151.152-1.514-.37-1.515-.37-.12-.359-.12-.359 1.027.184 1.026.185-6.482-6.443-6.482-6.442-2.183.096-2.183.096.004 9.968.004 9.968.561-.876.561-.877.24.24.24.24-.871 1.492-.872 1.49h-.133zM26.98 36.692l2.698-.608.121-.121.121-.121-.078-2.023-.077-2.023-2.742 2.752-2.741 2.752zm-3.46.408h.169l2.768-2.778 2.769-2.778-5.816.012-5.816.012 2.878 2.766 2.879 2.766zm8.692-1.256L34 35.708l.059-.046.058-.045-1.844-1.83-1.845-1.831v4.026zm3.275-1.13l.695-.824.843-1.173.842-1.173H30.837l1.978 1.998 1.978 1.997zm-12.14-3.7h6.149l-5.951-5.957-5.951-5.959-.17 1.527-.17 1.526-.028 4.432-.029 4.432zm10.99 0h3.77l-.422-.992-.422-.992-.668-1.653-.669-1.654h-.086l-2.636 2.646-2.636 2.646zm-4.508-.529h.068V17.378l-5.887.51-5.887.51-.12.101-.12.101 5.938 5.943 5.94 5.943zm3.11-2.645l2.514-2.503v-.318l-2.513-3.53-2.514-3.529v12.383zM16.695 16.19l.422.008.48-.531.48-.531-.144-.144-.144-.144-.758.666-.758.667zm-10.5 38.373h-.409l.136-.464.136-.463.176-.992.176-.992h.735v1.176l.412-.588.412-.588h1.249l.419.16.418.161v1.267h1.323v.564l-.727-.084-.728-.083-.463.463-.463.463H7.452l-.241-.726-.242-.726-.182.726-.182.726zm2.088-.53h.343l.318-.317.317-.318v-.92l-.276-.172-.276-.17-.385.32-.385.32v1.258zm4.121.53h-.761v-.83l.529.168.529.168v-.829h-.794v-.53H12.965v-.564l-.53.168-.529.168v-.509l.419-.16.418-.16h.987l-.031 1.124-.031 1.124-.252.33-.252.332zm34.538 0h-.41l.136-.464.136-.463.176-.992.176-.992h.735v1.176l.412-.588.411-.588h1.25l.419.16.418.161v1.267h1.323v.564l-.728-.084-.727-.083-.463.463-.463.463h-1.544l-.242-.726-.241-.726-.183.726-.182.726zm2.086-.53h.344l.318-.317.317-.318v-.92l-.276-.172-.276-.17-.385.32-.386.32v1.258zm4.003.53h-.907v-.239l.286-1.336.287-1.336H54.521l.162.424.163.423-.331.205-.332.205.293.18.293.182v.46l-.416.416-.416.416zm.298-.577l.41-.085.053-.243.052-.242-.298-.1-.298-.099-.164.427-.164.428zm.235-1.276h.412v-.529h-.498l-.163.265-.164.264zm-18.71-12.748l-.722.084v-.53l.258-.679.258-.679h1.065l-.068.86-.068.86zm-.06-.216h.132v-.265h-.265v.265zm.264-1.058h.133v-.265h-.265v.265zm5.66-4.763h-1.332l.416-.416.416-.416v-.491h-.56l.163-.264.163-.265h.991l-.228.794-.228.793h.426l.16-.793.158-.794h1.088l.144.376.145.376-.295.55-.294.55zm.924-.265h.101l.139-.529.138-.529h-.48v1.058zM.761 32.603H0v-.829l.53.168.528.168v-.83H.265v-.529h1.058v-.565l-.53.168-.528.168v-.508l.418-.16.419-.161h.987l-.032 1.124-.03 1.125-.253.33-.251.331zm58.09 0h-.907v-.238l.286-1.336.287-1.336H60.342l.162.423.163.424-.332.205-.331.204.293.181.293.181v.46l-.416.416-.416.416zm.298-.576l.41-.085.052-.243.053-.242-.298-.1-.299-.1-.164.428-.164.427zm.234-1.276h.413v-.529h-.498l-.164.264-.163.265zm-46.513-.533l-1.36-.004.353-.224.353-.224-.089-.626-.088-.625.46-.091.46-.092-.095.747-.096.746.127-.397.127-.397.268-.33.269-.331h1.094l-.484.354-.485.355.43.164.43.165-.157.407-.156.407-1.36-.004zm.8-.349l.177-.176-.177-.177-.176-.176v.705zm24.96-4.15l-.662-.003.353-.224.354-.225-.09-.625-.088-.625.445-.089.446-.088-.049.94-.048.941-.662-.003zm1.678-.046l-.57.081-.16-.257-.159-.258.26-.683.26-.684h1.105l-.083.86-.083.86zm.069-.55l.16-.16-.14-.347-.139-.347-.02.507-.021.507.16-.16zM32.12 14.611h-1.203l.416-.415.416-.416v-.492h-.56l.163-.264.164-.265h.99l-.228.794-.227.794h.738l.3-.563.302-.563-.358-.227-.358-.227.728-.004.727-.004v.291l-.403.78-.404.782zM8.047 10.643h-.62l-.274-.512-.274-.512.237-.624.237-.623.41-.34.41-.34.59.086.588.087.123.373.123.372-.466-.179-.467-.179-.363.302-.364.301v1.259h.756l.397-.397.397-.397h.87l.396.397.397.397h.492V9.32h-.794V8.79h1.058v-.565l-.529.168-.53.168v-.508l.42-.161.418-.16h.987l-.031 1.124-.032 1.124-.251.331-.252.33H10.583V9.85H9.325l-.33.397-.329.397zm40.216 0h-.62l-.273-.512-.274-.512.237-.624.237-.623.41-.34.41-.34.589.086.589.087.123.373.123.372-.467-.179-.466-.179-.364.302-.363.301v1.259h.756l.397-.397.397-.397H50.8v.529h-1.258l-.33.397-.329.397zm3.444 0H50.8v-.239l.286-1.336.287-1.336H53.198l.162.424.163.423-.331.205-.332.205.293.181.293.181v.46l-.416.416-.416.416zm.299-.576l.41-.086.052-.242.052-.243-.298-.1-.298-.099-.164.428-.164.427zm.234-1.276h.412v-.53h-.498l-.163.265-.164.265zM30.272 2.97h-.62l-.274-.512-.274-.512.237-.623.237-.624.41-.34.41-.34.59.086.588.087.123.372.123.373-.466-.179-.467-.179-.363.302-.364.301v1.316l.708-.178.708-.177-.343.413-.344.414z" fill="#cfcfcf"/><path d="M28.488 61.707h-.352l.264-1.455.264-1.455h.74l-.167.529-.168.53h.3l.529-.53.53-.53h1.258l.326.394.326.394-.162.646-.162.647-.43.43-.43.429-.688-.08-.688-.081-.294-.594-.295-.594-.175.175-.174.175v.97zm2.019-.529h.343l.318-.317.317-.318v-1.217h-1.001l-.16.419-.161.418V61.178zm-.344-3.175h-.138l-.277-.463-.278-.463-.601-.992-.602-.992h.58l.525.86.524.86.001-9.989v-9.988l-.198-.004-.198-.004-3.084.704-3.083.704-5.515 5.548-5.516 5.547 1.125-.165L14.552 49v.494l-.728.144-.727.144-.992.171-.993.17v-.491l.408-1.371.407-1.371h.508v.136l-.264.921-.264.922 5.574-5.554 5.574-5.553-3.26-3.104-3.259-3.103-5.953-.004-5.953-.004.86.524.86.524v.567l-1.124-.685L4.1 31.79l-.397-.256-.397-.255.397-.255.397-.256 1.125-.685 1.124-.686v.567l-.86.524-.86.525h5.851l5.851.001.195-6.388.194-6.388-2.433-2.41-2.433-2.408.137.529.137.529.17.595.172.596h-.544l-.26-.993-.26-.992-.186-.766-.185-.766.766.186.766.185.992.26.992.26v.545l-.53-.15-.528-.15-.596-.161-.595-.16 1.581 1.617 1.582 1.618.248-.083.248-.082.42-.634.419-.634-.53.2-.528.202.313-.316.313-.315.443.17.443.17-.418.64-.42.638.325.131.324.132-.656.02-.655.021.686.687.687.687 5.813-.555 5.813-.554h1.144l-.001-5.49-.001-5.49-.524.86-.525.86h-.567l.686-1.125.686-1.124.255-.397.255-.397.256.397.255.397.686 1.124.686 1.125h-.567l-.525-.86-.524-.86-.001 5.522-.001 5.521 2.818 3.962 2.818 3.961 5.78-5.777 5.782-5.776v-.1l-.858.246-.858.246h-.136v-.509l1.371-.407 1.371-.407h.492l-.17.992-.172.993-.144.727-.144.728h-.493l.165-1.125.165-1.124-5.895 5.865-5.894 5.866 1.17 2.866 1.17 2.865 8.465.068 8.465.067-.86-.526-.86-.527v-.567l1.125.686 1.124.686.397.255.397.255-.397.256-.397.255-1.124.686-1.125.685v-.567l.86-.524.86-.524H38.762l-1.547 2.028-1.547 2.027-.11.287-.109.286 6.51 6.482 6.511 6.483-.137-.53-.137-.529-.17-.595-.172-.595h.545l.26.992.26.992.185.766.185.766-.766-.185-.766-.186-.992-.26-.992-.26v-.544l.463.129.463.129.662.179.661.178-6.615-6.584-6.614-6.583-2.183.096-2.183.096.001 10.1.001 10.1.525-.86.524-.86h.58l-.602.993-.601.992-.278.463-.277.463zm-5.408-20.782l.513-.122 2.215-.516 2.215-.516.112-.112.111-.112-.078-2.023-.077-2.023-2.762 2.772-2.762 2.773zm-1.296-.12h.23l2.77-2.778 2.768-2.778H17.374l.11.075.11.075 2.818 2.703 2.816 2.703zm8.754-1.256L34 35.708l.059-.046.058-.045-1.844-1.83-1.845-1.831v4.026zm2.616-.331h.05l1.302-1.654 1.301-1.654.193-.33.192-.331h-7.03l1.971 1.984 1.972 1.985zm-11.548-4.498h6.216l-5.94-5.944-5.938-5.943-.117.117-.118.118-.159 5.826-.16 5.826h6.216zm11.05 0h3.761l-.498-1.257-.498-1.257-.623-1.399-.622-1.398-2.64 2.655-2.642 2.656zm-4.494-7.049l.07-6.524-.07-.046-.071-.046-5.821.526-5.821.526-.12.098-.12.1 5.94 5.945 5.942 5.945zm3.104 3.874l2.513-2.503v-.404l-2.417-3.375-2.417-3.376-.096-.11-.097-.11v12.38zM6.263 54.564H5.91l.264-1.456.264-1.455h.74l-.168.53-.167.528h.3l.529-.529.53-.529H9.46l.326.394.326.393-.162.646-.162.647-.43.43-.43.43-.688-.081-.688-.08-.294-.595-.295-.593-.175.175-.174.174v.971zm2.019-.53h.343l.318-.317.317-.318v-1.217H8.26l-.16.419-.161.418V54.034zm4.131.525l-.419.004-.176-.176-.176-.176v-.351l.568.021.569.021.115-.33.115-.331h-.838v-.53h.794v-.585l-.42.16-.418.161.11-.33.11-.332h1.28l-.092 1.19-.092 1.192-.305.194-.306.194-.419.004zm34.596.004h-.352l.264-1.455.263-1.455h.741l-.168.53-.168.528h.3l.53-.529.529-.529h1.259l.326.393.326.394-.162.646-.162.647-.43.43-.43.43-.688-.081-.688-.08-.295-.595-.294-.593-.175.175-.175.174v.97zm2.018-.529h.344l.318-.317.317-.318v-1.217h-1.001l-.161.419-.16.418V54.034zm4.035.53h-.849l.264-1.456.264-1.455h1.732l.164.265.163.264-.207.33-.208.332.079.478.079.48-.316.38-.317.381zm.265-.57l.472-.092.118-.356.119-.356-.472.091-.471.092-.119.356-.118.356zm.251-1.283h.397v-.529h-.794v.529zM10.7 53.77h-.677l.164-.265.163-.264H11.377v.529zm40.746 0h-.677l.163-.265.164-.264H52.123v.529zM18.389 40.25l-.794.017.353-.224.354-.224-.09-.608-.088-.607.366-.124.365-.125-.12.821-.12.821.283.118.284.118-.793.017zm1.356.024h-.495l.313-.376.313-.378-.082-.455-.083-.455.313-.11.313-.11-.048.941-.049.941-.495.001zm15.224-.264h-.485l-.17-.169-.168-.169.184-.294.184-.294.007-.397.007-.396.632-.09.633-.09-.166.62-.166.618-.004.33-.004.331zm-.044-.264h.265v-.529h-.53v.529zm.176-.882l.177-.177-.177-.176-.176-.176v.705zm4.983-4.944l-.529-.003.354-.224.353-.224-.089-.608-.089-.607.313-.107.314-.107-.049.941-.048.941-.53-.003zm1.653-.044l-.464.088-.151-.396-.152-.395.294-.55.294-.55h.809l-.083.858-.083.857zm.067-.348l.265-.163V32.339h-.529v1.354zM.772 32.6l-.42.004-.176-.176L0 32.25v-.35l.569.02.568.022.115-.331.115-.33H.529v-.53h.794v-.586l-.42.16-.418.162.11-.331.11-.331h1.28l-.092 1.19-.091 1.191-.306.195-.305.194-.42.004zm58.11.004h-.848l.264-1.455.263-1.455h1.733l.163.264.164.265-.208.33-.207.331.079.479.079.479-.317.38-.316.382zm.266-.57l.472-.091.118-.356.119-.356-.472.091-.471.091-.119.356-.118.356zm.251-1.282h.397v-.529h-.794v.529zm-46.57-.596l-1.32.065.354-.227.353-.227-.089-.608-.088-.607.365-.124.366-.125-.121.828-.122.827h.386l.277-.794.276-.793.61.017.608.016-.661.288-.662.289.479.114.478.114-.085.44-.084.442-1.32.065zm.781-.198h.117l.164-.264.163-.265h-.56v.529zm25.02-4.237l-.662-.004.284-.195.283-.194.171-.463.171-.463h-.544l.164-.265.163-.264h.631v1.852l-.662-.004zm1.401.004h-.343V24.709l.16-.419.16-.418h1.002v1.217l-.317.317-.318.318zm.155-.265h.234l.152-.584.153-.583-.136-.136-.137-.137-.246.39-.246.389-.004.33-.004.331zm-22.393-9l-.595.004v-.355l.452-.5.453-.5-.386-.244-.387-.245.596-.004.595-.004v.729l-.41.34-.409.34.343.218.344.217zm13.825-1.853l-.53-.003.354-.224.354-.224-.09-.607-.088-.607.313-.107.313-.107-.049.94-.048.942-.53-.003zm1.412.005h-.222l.008-.198.008-.199.396-.523.395-.523-.47-.186-.47-.186.75-.018.75-.019-.097.198-.097.199-.365.727-.364.728h-.222zM8.172 10.588l-.651.079-.189-.189-.188-.188V8.908l.422-.603.423-.603.702.081.702.081-.133.26-.132.26-.446-.075-.447-.075-.301.563-.302.564.156.406.156.406.541-.141.541-.142-.102.31-.101.31zm3.13.05l-.47.004-.153-.397-.152-.396H9.229l.164-.265.163-.265h.837l.321.44.322.44.435-.167.435-.167V9.32h-.793V8.79h.793v-.586l-.419.161-.419.161.11-.33.11-.332h1.28l-.092 1.19-.091 1.191-.306.195-.305.194zm37.086-.05l-.65.079-.189-.189-.189-.188V8.908l.423-.603.422-.603.702.081.702.081-.132.26-.132.26-.447-.075-.446-.075-.302.563-.301.564.156.406.156.406.54-.141.542-.142-.102.31-.102.31zm3.35.054h-.848l.264-1.455.264-1.455h1.732l.164.265.163.264-.207.33-.208.332.079.478.079.48-.317.38-.316.381zm.266-.57l.472-.091.118-.356.119-.356-.472.091-.471.092-.119.356-.118.356zm.251-1.282h.397v-.529h-.794v.529zM50.123 9.85h-.677l.163-.265.164-.265H50.8v.53zM30.397 2.915l-.651.079-.189-.189-.188-.188V1.236l.422-.604.423-.603.702.081.702.081-.133.26-.132.26-.446-.075-.447-.075-.301.563-.302.564.156.406.156.406.541-.141.541-.142-.102.31-.101.31z" fill="#fda8a8"/><path d="M28.488 61.707h-.352l.264-1.455.264-1.455h.74l-.167.529-.168.53h.3l.529-.53.53-.53h1.258l.326.394.326.394-.162.646-.162.647-.43.43-.43.429-.688-.08-.688-.081-.294-.594-.295-.594-.175.175-.174.175v.97zm2.019-.529h.343l.318-.317.317-.318v-1.217h-1.001l-.16.419-.161.418V61.178zm-.344-3.175h-.138l-.277-.463-.278-.463-.601-.992-.602-.992h.58l.525.86.524.86.001-10.085.001-10.084-3.241.765-3.241.766-5.557 5.578-5.556 5.578 1.125-.165 1.124-.165v.493l-.727.145-.728.144-.992.17-.992.171v-.492l.407-1.37.407-1.371h.508v.135l-.264.922-.264.922 5.574-5.554 5.575-5.554-3.232-3.108-3.232-3.11-5.981.002H4.63l.859.525.86.524v.567l-1.125-.685-1.124-.686-.397-.256-.397-.255.397-.255.397-.256 1.124-.685 1.125-.686v.567l-.86.524-.86.525h5.846l5.846.001.172-3.373.173-3.373V21.22l.002-3.048-2.409-2.376-2.408-2.375.138.529.139.529.17.595.172.596h-.545l-.26-.993-.26-.992-.185-.766-.185-.766.766.186.765.185.993.26.992.26v.545l-.53-.15-.528-.15-.596-.161-.595-.16 1.581 1.617 1.581 1.618.249-.083.248-.082.42-.634.419-.634-.53.2-.529.202.313-.316.313-.315.444.17.443.17-.419.64-.418.638.324.131.323.132-.655.02-.655.021.702.703.703.703 5.112-.45 5.112-.451 1.257-.154 1.257-.154-.001-5.456-.001-5.456-.525.86-.524.86h-.567l.686-1.125.686-1.124.255-.397.255-.397.256.397.255.397.686 1.124.685 1.125h-.567l-.524-.86-.524-.86v5.556l.001 5.556 2.53 3.572 2.53 3.572.319.327.318.327 5.813-5.817 5.812-5.817-.922.265-.921.264h-.136v-.509l1.37-.407 1.372-.407h.492l-.171.992-.17.992-.145.728-.144.728h-.494l.166-1.125.165-1.124-5.85 5.818-5.852 5.819v.48l1.112 2.739 1.111 2.739 8.48-.001 8.48-.001-.86-.525-.86-.524v-.567l1.124.686 1.125.685.397.256.397.255-.397.255-.397.256-1.125.685-1.124.686v-.567l.86-.524.86-.524-8.492-.001-8.492-.001-1.629 2.126-1.628 2.126v.381l6.508 6.481 6.508 6.48-.137-.529-.137-.529-.171-.595-.171-.596h.544l.26.993.26.992.186.766.185.766-.766-.186-.766-.185-.992-.26-.992-.26v-.545l.463.13.463.129.661.178.662.179-6.626-6.65-6.626-6.651-2.172.18-2.171.182.001 10.082.001 10.082.524-.86.525-.86h.58l-.602.993-.601.992-.278.463-.277.463zm-6.743-20.65l.005.013 2.902-2.91 2.901-2.911H17.345l3.036 2.897 3.035 2.897.005.013zm1.319-.075l.529-.14 2.116-.447 2.117-.447.21-.192.21-.192-.077-2.031-.078-2.032-2.778 2.811-2.779 2.811zm6.416-1.255l.727-.02 1.134-.178 1.134-.18-1.861-1.844-1.862-1.845v4.087l.728-.02zm3.763-.522l.14-.012 1.322-1.745 1.323-1.746.088-.227.089-.226h-7.042l1.97 1.984 1.972 1.985.138-.013zm-11.665-4.485h6.244l-5.944-5.948-5.943-5.948-.176.193-.176.193-.124 5.755-.124 5.755zm11.11 0h3.794l-.145-.377-.145-.377-.847-2.07-.848-2.071-.17-.194-.17-.195-2.63 2.642-2.633 2.642zm-4.526-7.049l.07-6.524-.074-.074-.074-.075-5.288.502-5.289.501-.791.01-.792.008 6.083 6.088 6.084 6.088zm3.21 3.768l2.619-2.61-2.387-3.338-2.387-3.34-.232-.25-.233-.252v12.4zM6.262 54.564H5.91l.264-1.456.264-1.455h.74l-.168.53-.167.528h.3l.529-.529.53-.529H9.46l.326.394.326.393-.162.646-.162.647-.43.43-.43.43-.688-.081-.688-.08-.294-.594-.295-.594-.175.175-.174.174v.971zm2.019-.53h.343l.318-.317.317-.318v-1.217H8.26l-.16.419-.161.418V54.034zm4.131.525l-.419.004-.176-.176-.176-.176v-.351l.568.021.569.021.115-.33.115-.331h-.838v-.53h.794v-.585l-.42.16-.418.161.11-.33.11-.332h1.28l-.092 1.191-.092 1.19-.305.195-.306.194-.419.004zm34.596.004h-.352l.264-1.455.263-1.455h.741l-.168.53-.168.528h.3l.53-.529.529-.529h1.259l.326.393.326.394-.162.646-.162.647-.43.43-.43.43-.688-.081-.688-.08-.295-.595-.294-.593-.175.175-.175.174v.97zm2.018-.529h.344l.318-.317.317-.318v-1.217h-1.001l-.161.419-.16.418V54.034zm4.035.53h-.849l.264-1.456.264-1.455h1.732l.164.265.163.264-.207.331-.208.33.079.48.079.478-.316.381-.317.381zm.265-.57l.472-.092.118-.356.119-.356-.472.091-.471.092-.119.356-.118.356zm.251-1.283h.397v-.529h-.794v.529zM10.7 53.77h-.677l.164-.265.163-.264H11.377v.529zm40.746 0h-.677l.163-.265.164-.264H52.123v.529zM18.389 40.25l-.794.017.353-.224.354-.224-.09-.608-.088-.607.366-.124.365-.125-.12.821-.12.821.283.118.284.118-.793.017zm1.356.024h-.495l.313-.376.313-.378-.082-.455-.083-.455.313-.11.313-.11-.048.941-.049.941-.495.001zm15.224-.264h-.485l-.17-.169-.168-.169.184-.294.184-.294.007-.396.007-.397.632-.09.633-.09-.166.62-.166.618-.004.33-.004.331zm-.044-.264h.265v-.529h-.53v.529zm.176-.882l.177-.176-.177-.177-.176-.176v.705zm4.983-4.944l-.529-.003.354-.224.353-.224-.089-.608-.089-.607.313-.107.314-.107-.049.941-.048.942-.53-.003zm1.653-.044l-.464.088-.151-.396-.152-.395.294-.55.294-.55h.809l-.083.858-.083.857zm.067-.348l.265-.163V32.339h-.529v1.354zM.772 32.6l-.42.004-.176-.176L0 32.25v-.35l.569.02.568.022.115-.331.115-.33H.529v-.53h.794v-.586l-.42.161-.418.16.11-.33.11-.331h1.28l-.092 1.19-.091 1.191-.306.195-.305.194-.42.004zm58.11.004h-.848l.264-1.455.263-1.455h1.733l.163.264.164.265-.208.33-.207.331.079.48.079.478-.317.381-.316.381zm.266-.57l.472-.091.118-.356.119-.356-.472.091-.471.091-.119.356-.118.356zm.251-1.282h.397v-.529h-.794v.529zm-46.57-.596l-1.32.066.354-.228.353-.227-.089-.608-.088-.607.365-.124.366-.125-.121.828-.122.827h.386l.277-.794.276-.793.61.017.608.016-.661.288-.662.289.479.114.478.114-.085.44-.084.442-1.32.065zm.781-.198h.117l.164-.264.163-.265h-.56v.529zm25.02-4.237l-.662-.004.284-.195.283-.194.171-.463.171-.463h-.544l.164-.265.163-.264h.631v1.852l-.662-.004zm1.401.004h-.343V24.709l.16-.419.16-.418h1.002v1.217l-.317.317-.318.318zm.155-.265h.234l.152-.583.153-.584-.136-.136-.137-.137-.246.39-.246.389-.004.33-.004.331zm-22.393-9l-.595.004v-.355l.452-.5.453-.5-.386-.244-.387-.245.596-.004.595-.004v.729l-.41.34-.409.34.343.218.344.217zm13.825-1.853l-.53-.003.354-.224.354-.224-.09-.607-.088-.607.313-.107.313-.107-.049.94-.048.942-.53-.003zm1.412.005h-.222l.008-.198.008-.199.396-.523.395-.523-.47-.186-.47-.186.75-.018.75-.019-.097.198-.097.199-.365.727-.364.728h-.222zM8.172 10.588l-.651.079-.189-.189-.188-.188V8.908l.422-.603.423-.603.702.081.702.081-.133.26-.132.26-.446-.075-.447-.075-.301.563-.302.564.156.406.156.406.541-.141.541-.142-.102.31-.101.31zm3.13.05l-.47.004-.153-.397-.152-.396H9.229l.164-.265.163-.265h.837l.321.44.322.44.435-.167.435-.167V9.32h-.793V8.79h.793v-.586l-.419.161-.419.161.11-.33.11-.332h1.28l-.092 1.19-.091 1.191-.306.195-.305.194zm37.086-.05l-.65.079-.189-.189-.189-.188V8.908l.423-.603.422-.603.702.081.702.081-.132.26-.132.26-.447-.075-.446-.075-.302.563-.301.564.156.406.156.406.54-.141.542-.142-.102.31-.102.31zm3.35.054h-.848l.264-1.455.264-1.455h1.732l.164.265.163.264-.207.33-.208.332.079.478.079.48-.317.38-.316.381zm.266-.57l.472-.091.118-.356.119-.356-.472.091-.471.092-.119.356-.118.356zm.251-1.282h.397v-.529h-.794v.529zM50.123 9.85h-.677l.163-.265.164-.265H50.8v.53zM30.397 2.915l-.651.079-.189-.189-.188-.188V1.236l.422-.604.423-.603.702.081.702.081-.133.26-.132.26-.446-.075-.447-.075-.301.563-.302.564.156.406.156.406.541-.141.541-.142-.102.31-.101.31z" fill="#fc6464"/><path d="M28.488 61.707h-.352l.264-1.455.264-1.455h.74l-.167.529-.168.53h.3l.529-.53.53-.53h1.258l.326.394.326.394-.162.646-.162.647-.43.43-.43.429-.688-.08-.688-.081-.294-.594-.295-.594-.175.175-.174.175v.97zm2.019-.529h.343l.318-.317.317-.318v-1.217h-1.001l-.16.419-.161.418V61.178zm-.344-3.175h-.138l-.277-.463-.278-.463-.601-.992-.602-.992h.58l.525.86.524.86.001-10.139.001-10.138-.463.136-.463.135-2.336.544-2.336.544h-.918L20.03 34.72l-3.351-3.175h-6.024l-6.025.002.86.524.86.524v.567l-1.124-.685L4.1 31.79l-.397-.256-.397-.255.397-.255.397-.256 1.124-.685 1.125-.686v.567l-.86.524-.86.524 5.895.001 5.896.001.102-.33.102-.331.108-6.085.107-6.086-2.497-2.381-2.498-2.381.142.529.142.529.17.595.172.596h-.544l-.26-.993-.26-.992-.186-.766-.185-.766.766.186.766.185.992.26.992.26v.545l-.53-.15-.528-.15-.596-.161-.595-.16 1.581 1.617 1.582 1.618.248-.083.248-.083.42-.633.419-.634-.53.2-.528.202.313-.316.313-.315.443.17.443.17-.431.659-.432.659.337.026.337.027-.576.172-.576.172.612.707.612.708 5.785-.523 5.784-.522.596-.124.595-.124-.001-5.485-.001-5.485-.524.86-.525.86h-.567l.686-1.125.686-1.124.255-.397.255-.397.256.397.255.397.686 1.124.685 1.125h-.566l-.525-.86-.524-.86-.001 5.64-.001 5.638 2.712 3.813 2.712 3.813.134.007.135.007 5.816-5.82 5.817-5.82-.922.263-.922.265h-.136v-.509l1.371-.407 1.37-.407h.493l-.17.992-.172.992-.144.728-.144.727h-.494l.166-1.124.165-1.124-5.957 5.924-5.957 5.925 1.165 2.78 1.164 2.779v.186h8.533l8.533-.002-.86-.524-.86-.524v-.567l1.125.685 1.124.686.397.256.397.255-.397.255-.397.256-1.124.685-1.125.686v-.567l.86-.526.86-.527-8.56.067-8.56.068-1.673 2.138-1.674 2.138 6.621 6.593 6.621 6.593-.137-.529-.137-.53-.17-.594-.172-.596h.544l.26.992.26.993.186.766.185.765-.766-.185-.766-.185-.992-.26-.992-.26v-.545l.463.13.463.129.662.179.661.179-6.613-6.64-6.612-6.641-1.59.004-1.59.004-.594.16-.596.16.001 10.089.001 10.089.524-.86.525-.86h.58l-.602.992-.601.993-.278.463-.277.463zM23.945 37.63h.132v-.264h-.264v.264zm-.525-.272l.005.007 2.902-2.91 2.901-2.91-5.949.01-5.948.012 3.042 2.892 3.043 2.891.005.007zm1.12.01l.199.001 2.58-.574 2.579-.575V31.687l-2.778 2.769-2.778 2.768v.142l.198.002zm7.872-1.325h1.984v-.146l-1.984-1.971-1.985-1.971v4.088zm2.515-.53h.147l1.527-1.984 1.528-1.984h-7.292l1.971 1.984 1.972 1.985zM23.21 31.017h6.277l-6.079-6.152-6.079-6.152-.162 3.043-.163 3.043-.036 3.109-.036 3.109zm11.124 0H38.1v-.348l-.992-2.468-.992-2.468-.138-.004-.137-.004-2.636 2.646-2.636 2.645zm-4.498-7.049l.07-6.524-.126-.127-.127-.126-4.839.436-4.839.436-1.154.161-1.154.162 6.049 6.053 6.049 6.053zm3.224 3.753l2.634-2.624-1.234-1.736-1.235-1.737-1.4-1.958-1.399-1.958v12.637zM6.263 54.564H5.91l.264-1.456.264-1.455h.74l-.168.53-.167.528h.3l.529-.529.53-.529H9.46l.326.394.326.393-.162.646-.162.647-.43.43-.43.43-.688-.081-.688-.08-.294-.595-.295-.593-.175.175-.174.174v.971zm2.019-.53h.343l.318-.317.317-.318v-1.217H8.26l-.16.419-.161.418V54.034zm4.131.525l-.419.004-.176-.176-.176-.176v-.351l.568.021.569.021.115-.33.115-.331h-.838v-.53h.794v-.585l-.42.16-.418.161.11-.33.11-.332h1.28l-.092 1.19-.092 1.192-.305.194-.306.194-.419.004zm34.596.004h-.352l.264-1.455.263-1.455h.741l-.168.53-.168.528h.3l.53-.529.529-.529h1.259l.326.393.326.394-.162.646-.162.647-.43.43-.43.43-.688-.081-.688-.08-.295-.595-.294-.593-.175.175-.175.174v.97zm2.018-.529h.344l.318-.317.317-.318v-1.217h-1.001l-.161.419-.16.418V54.034zm4.035.53h-.849l.264-1.456.264-1.455h1.732l.164.265.163.264-.207.33-.208.332.079.478.079.48-.316.38-.317.381zm.265-.57l.472-.092.118-.356.119-.356-.472.091-.471.092-.119.356-.118.356zm.251-1.283h.397v-.529h-.794v.529zM10.7 53.77h-.677l.164-.265.163-.264H11.377v.529zm40.746 0h-.677l.163-.265.164-.264H52.123v.529zm-39.341-3.816l-.992.17v-.492l.407-1.37.407-1.371h.508v.135l-.264.922-.264.922 5.546-5.542 5.546-5.541.196.196.196.196-5.544 5.577-5.544 5.576 1.125-.165L14.552 49v.493l-.727.145-.728.144zm6.284-9.703l-.794.017.353-.224.354-.224-.09-.608-.088-.607.366-.124.365-.125-.12.821-.12.821.283.118.284.118-.793.017zm1.356.024h-.495l.313-.376.313-.378-.082-.455-.083-.455.313-.11.313-.11-.048.941-.049.941-.495.001zm15.224-.264h-.485l-.17-.169-.168-.169.184-.294.184-.294.007-.397.007-.396.632-.09.633-.09-.166.62-.166.618-.004.33-.004.331zm-.044-.264h.265v-.529h-.53v.529zm.176-.882l.177-.177-.177-.176-.176-.176v.705zm4.983-4.944l-.529-.003.354-.224.353-.224-.089-.608-.089-.607.313-.107.314-.107-.049.941-.048.941-.53-.003zm1.653-.044l-.464.088-.151-.396-.152-.395.294-.55.294-.55h.809l-.083.858-.083.857zm.067-.348l.265-.163V32.339h-.529v1.354zM.772 32.6l-.42.004-.176-.176L0 32.25v-.35l.569.02.568.022.115-.331.115-.33H.529v-.53h.794v-.586l-.42.16-.418.162.11-.331.11-.331h1.28l-.092 1.19-.091 1.191-.306.195-.305.194-.42.004zm58.11.004h-.848l.264-1.455.263-1.455h1.733l.163.264.164.265-.208.33-.207.331.079.479.079.479-.317.38-.316.382zm.266-.57l.472-.091.118-.356.119-.356-.472.091-.471.091-.119.356-.118.356zm.251-1.282h.397v-.529h-.794v.529zm-46.57-.596l-1.32.065.354-.227.353-.227-.089-.608-.088-.607.365-.124.366-.125-.121.828-.122.827h.386l.277-.794.276-.793.61.017.608.016-.661.288-.662.289.479.114.478.114-.085.44-.084.442-1.32.065zm.781-.198h.117l.164-.264.163-.265h-.56v.529zm25.02-4.237l-.662-.004.284-.195.283-.194.171-.463.171-.463h-.544l.164-.265.163-.264h.631v1.852l-.662-.004zm1.401.004h-.343V24.709l.16-.419.16-.418h1.002v1.217l-.317.317-.318.318zm.155-.265h.234l.152-.584.153-.583-.136-.136-.137-.137-.246.39-.246.389-.004.33-.004.331zm-22.393-9l-.595.004v-.355l.452-.5.453-.5-.386-.244-.387-.245.596-.004.595-.004v.729l-.41.34-.409.34.343.218.344.217zm13.825-1.853l-.53-.003.354-.224.354-.224-.09-.607-.088-.607.313-.107.313-.107-.049.94-.048.942-.53-.003zm1.412.005h-.222l.008-.198.008-.199.396-.523.395-.523-.47-.186-.47-.186.75-.018.75-.019-.097.198-.097.199-.365.727-.364.728h-.222zM8.172 10.588l-.651.079-.189-.189-.188-.188V8.908l.422-.603.423-.603.702.081.702.081-.133.26-.132.26-.446-.075-.447-.075-.301.563-.302.564.156.406.156.406.541-.141.541-.142-.102.31-.101.31zm3.13.05l-.47.004-.153-.397-.152-.396H9.229l.164-.265.163-.265h.837l.321.44.322.44.435-.167.435-.167V9.32h-.793V8.79h.793v-.586l-.419.161-.419.161.11-.33.11-.332h1.28l-.092 1.19-.091 1.191-.306.195-.305.194zm37.086-.05l-.65.079-.189-.189-.189-.188V8.908l.423-.603.422-.603.702.081.702.081-.132.26-.132.26-.447-.075-.446-.075-.302.563-.301.564.156.406.156.406.54-.141.542-.142-.102.31-.102.31zm3.35.054h-.848l.264-1.455.264-1.455h1.732l.164.265.163.264-.207.33-.208.332.079.478.079.48-.317.38-.316.381zm.266-.57l.472-.091.118-.356.119-.356-.472.091-.471.092-.119.356-.118.356zm.251-1.282h.397v-.529h-.794v.529zM50.123 9.85h-.677l.163-.265.164-.265H50.8v.53zM30.397 2.915l-.651.079-.189-.189-.188-.188V1.236l.422-.604.423-.603.702.081.702.081-.133.26-.132.26-.446-.075-.447-.075-.301.563-.302.564.156.406.156.406.541-.141.541-.142-.102.31-.101.31z" fill="#8e8e8e"/><path d="M28.538 61.598l-.3.186.182-1.03.183-1.031.136-.463.136-.463h.444l-.138.529-.139.53h.509l.48-.53.478-.53h1.222l.274.513.274.512-.237.623-.237.624-.41.34-.41.34-.61-.087-.61-.086-.084-.595-.084-.596h-.757V61.411zm2.16-.42h.504l.295-.55.294-.55-.145-.376-.144-.376h-1.088l-.26.684-.26.683.15.243.15.242zm-.535-3.44h-.215l-.71-1.21-.71-1.212.136-.136.137-.137.482.885.483.884.07-10.028.068-10.03-.075-.074-.075-.075-2.73.645-2.729.645h-.875l-5.69 5.622-5.691 5.623 5.613-5.689 5.613-5.688-3.295-3.11-3.295-3.108H4.763v.251l.818.423.818.423-.136.136-.136.136-1.211-.71-1.212-.71v-.428l1.212-.71 1.211-.71.136.136.136.136-.884.483-.885.482 5.682.072 5.682.072.297-.114.296-.114.157-6.308.157-6.308-2.43-2.512-2.432-2.512 1.733 1.659 1.734 1.659.64-.682.641-.682-.39-.247-.39-.246.464-.004.463-.004v.729l-.423.35-.423.35.49.193.488.193-.789.018-.789.019.79.78.788.78 6.273-.593 6.272-.592.15-.15.148-.148-.071-5.397-.072-5.396-.483.885-.482.884-.136-.136-.136-.136.71-1.212.71-1.21h.428l.71 1.21.71 1.212-.136.136-.136.136-.483-.884-.482-.885-.072 5.632-.071 5.632 2.717 3.82 2.717 3.82.263.008.262.007 5.823-5.755 5.823-5.755-5.897 5.966-5.897 5.965 1.235 2.964 1.235 2.965H55.563v-.251l-.819-.423-.818-.424.136-.136.136-.136 1.212.71 1.211.71v.429l-1.211.71-1.212.71-.136-.137-.136-.136.818-.423.819-.423v-.251h-16.89l-1.778 2.277-1.778 2.277 6.585 6.652 6.585 6.653-6.646-6.578-6.647-6.578-2.13.097-2.13.097-.157.156-.156.157.07 10.029.069 10.028.482-.884.483-.884.136.136.136.136-.71 1.211-.71 1.212zm-4.2-20.652l2.215-.5.86-.17.86-.168v-4.827l-3.109 3.038-3.109 3.039 2.906-2.977 2.906-2.976H17.463v.224l3.142 2.91 3.141 2.909zm6.438-1.043h1.995v-.385l-1.918-1.99-1.919-1.991 2.138 2.066 2.138 2.066 1.655-2.14 1.655-2.139-3.793.074-3.793.073-.076 2.183-.077 2.183zm-9.051-5.089l6.416-.07.07-6.814.07-6.813H28.708l-5.392.52-5.392.519-.152.152-.152.152 6.073 6.142 6.074 6.141-6.242-6.173-6.241-6.173-.174 4.189-.174 4.189v2.055l-.002 2.055zm10.852.062H38.1l-.002-.199-.002-.198-1.011-2.446-1.011-2.446-.125-.125-.125-.125-2.76 2.77-2.76 2.769zm-1.089-3.087l2.686-2.686-2.686-3.774-2.686-3.774v12.92zm-26.8 26.525l-.3.186.182-1.03.183-1.03.136-.464.136-.463h.444l-.138.53-.139.528h.509l.48-.529.478-.529h1.222l.274.512.274.512-.237.623-.237.624-.41.34-.41.34-.61-.086-.61-.087-.084-.595-.084-.595h-.757V54.268zm2.16-.42h.504l.295-.55.294-.55-.145-.376-.144-.376H8.19l-.26.684-.26.684.15.242.15.242zm3.974.53h-.453l-.176-.177-.176-.176v-.368l.661.127.662.126v-.855h-.794v-.468l.595-.197.596-.196-.6-.118-.599-.118.152-.245.152-.246h.996l.163.265.164.264-.208.33-.207.332.079.478.078.48-.316.38-.316.381zm34.612-.11l-.3.186.182-1.03.183-1.03.136-.464.136-.463h.444l-.138.53-.139.528h.509l.48-.529.478-.529h1.222l.274.512.274.512-.237.623-.237.624-.41.34-.41.34-.61-.086-.61-.087-.084-.595-.085-.595h-.757V54.268zm2.16-.42h.504l.294-.55.295-.55-.145-.376-.144-.376h-1.088l-.26.684-.26.684.15.242.15.242zm3.9.53h-.79l.175-.993.176-.992.141-.478.141-.479.705.082.705.081.057 1.042.058 1.042-.289.347-.288.347zm.327-.53h.529v-.793h-1.058v.793zm.117-1.323h.38l.164-.264.164-.265h-1.09v.529zM10.7 53.77h-.381v-.529h1.089l-.163.264-.164.265zm40.746 0h-.381v-.529h1.089l-.163.264-.164.265zm-2.432-3.471l-.198-.031-1.588-.487-1.587-.487 1.323.055 1.323.055-.058-1.323-.058-1.323.512 1.72.51 1.72.01.066.009.066-.198-.031zm-37.058-.401l-.877.161.155-.489.155-.489.386-1.161.385-1.162-.132.957-.132.957.152.398.153.398 1.242-.093 1.241-.092-.926.227-.926.227zm6.168-9.627l-.53-.004.343-.217.342-.216.233-.772.233-.77-.046.99-.046.992-.529-.004zm1.588-.016l-.53-.02.331-.134.33-.134V38.424h.398v1.852l-.53-.02zm15.093-.284l-.48.093.187-.754.186-.754.223-.228.223-.228.264.163.264.163-.194.727-.194.726zm.12-.224h.265v-.529h-.53v.529zm.117-.794h.116l.164-.265.163-.264h-.56v.529zm5.042-5.049l-.529-.02.331-.133.33-.134V32.074h.437l-.02.925-.02.925-.528-.02zm1.447.022h-.168l-.176-.176-.177-.177.004-.286.004-.287.231.365.231.364.295-.182.294-.181V32.339h-.485l-.155.33-.154.331.088-.397.088-.397.441-.085.441-.086v1.256l-.317.318-.318.317h-.167zM.805 32.603H.353l-.177-.176L0 32.25v-.367l.661.126.662.127v-.856H.529v-.467l.596-.197.595-.197-.6-.117-.599-.118.152-.246.152-.245h.996l.163.264.164.265-.208.33-.207.331.079.48.079.478-.317.381-.316.381zm58.135 0h-.79l.175-.992.176-.992.141-.479.141-.478.705.081.705.082.057 1.042.058 1.041-.289.348-.288.347zm.327-.53h.529v-.793h-1.058v.794zm.116-1.322h.382l.163-.265.164-.264h-1.09v.529zm-47.344-.534l-.53-.004.342-.217.342-.217.233-.77.234-.772-.046.992-.046.991-.53-.004zm1.65-.045l-.46.089v-1.256l.318-.318.317-.317h.525l-.514.388-.513.389.482.008.482.008-.088.46-.089.46-.46.088zm.07-.215h.264v-.529h-.529v.529zm24.916-4.233H38.3l.271-.33.272-.332.128-.661.128-.661-.024.992-.025.992h-.375zm1.591 0h-.226l-.176-.176-.176-.177v-.905l.408-.339.408-.339.299.3.299.299-.305.668-.304.669zm-.067-.265h.247l.174-.549.174-.549-.139-.139-.138-.139-.283.175-.282.174V25.46zm-22.406-9.016l-.595.02v-.472l.427-.164.427-.164-.138-.526-.137-.526h.391l.177.178.178.177-.391.597-.391.596.324.132.324.13-.596.022zm-5.725-.773h-.099l-.308-1.257-.308-1.257-.141-.473-.142-.474.749.184.749.183 1.058.332 1.058.333-1.322-.042-1.323-.043.064 1.257.064 1.257zm36.47-1.588l-.363 1.72.088-1.242.087-1.241-.398-.153-.398-.153-.957.135-.956.134 1.576-.515 1.576-.515.054.055.053.055zm-16.92.508l-.53-.02.331-.134.331-.133v-1.544h.437l-.02.926-.02.925-.53-.02zm1.579-.375l-.444.529.424-.719.425-.718v-.244l-.463-.121-.463-.121.737-.031.737-.03-.255.462-.254.463zM8.29 10.589l-.532.08-.331-.4-.331-.398.177-.807.177-.807.49-.262.49-.263h.829v.529h-.993l-.319.385-.319.384.097.475.096.476.594-.022.594-.021-.094.286-.094.286zm3.098.054h-.453l-.176-.177-.177-.176v-.368l.662.127.661.126V9.32h-.793v-.468l.595-.196.595-.197-.599-.118-.6-.117.153-.246.151-.246h.996l.164.265.163.264-.207.331-.208.33.08.48.078.478-.316.382-.316.38zm37.118-.054l-.531.08-.331-.4-.331-.398.177-.807.177-.807.49-.262.49-.263h.829v.529h-.993l-.32.385-.318.384.096.475.096.476.595-.022.594-.021-.094.286-.094.286zm3.29.054h-.791l.176-.993.175-.992.141-.478.141-.478.705.081.705.082.057 1.041.058 1.042-.288.347-.289.348zm.326-.53h.53V9.32h-1.06v.794zm.117-1.322h.38l.164-.265.164-.265h-1.09v.53zM9.906 9.849h-.38V9.32h1.089l-.164.264-.163.265zm40.217 0h-.381V9.32h1.089l-.163.264-.164.265zM30.516 2.916l-.532.08-.331-.4-.331-.398.177-.807.177-.807.49-.262.49-.263h.829v.53h-.993l-.319.384-.319.384.096.476.097.475.594-.022.594-.021-.094.286-.094.286z" fill="#676767"/><path d="M28.651 61.112l-.29.728.15-.926.151-.927.198-.661.199-.661.023.595.022.595h.577l.46-.569.461-.569.707.177.706.178v1.577l-.53.53-.529.528h-1.048l-.166-.661-.166-.662h-.634l-.29.728zm1.876.066h.63l.318-.384.319-.384-.091-.473-.091-.473-.473-.09-.473-.092-.384.32-.384.318v1.259zm-24.1-7.21l-.291.728.15-.926.151-.926.198-.662.199-.661.022.595.023.595h.577l.46-.569.461-.569.707.177.706.178v1.578l-.53.528-.529.53H7.683l-.166-.662-.166-.661h-.634zm1.875.066h.63l.318-.384.319-.384-.091-.473-.091-.472-.473-.091-.473-.091-.384.318-.384.32v1.258zm4.101.53h-.497v-.53H12.965v-.794h-.794v-.529H13.23v-.529l-.596-.004-.595-.004.396-.256.397-.257.317-.004.317-.004-.032 1.125-.03 1.124-.253.33-.251.332h-.497zm34.77-.596l-.291.728.15-.926.15-.926.2-.662.198-.661.022.595.023.595h.577l.46-.569.461-.569.706.177.706.178v1.578l-.529.528-.529.53H48.43l-.166-.662-.166-.662h-.634l-.29.728zm1.875.066h.629l.319-.384.319-.384-.091-.473-.091-.473-.473-.09-.473-.092-.384.32-.384.318v1.258zm3.982.53h-.642v-.24l.29-1.35.29-1.351.7.081.7.081.063.53.064.529-.15-.331-.15-.33h-.983l-.163.264-.164.264h.984l.318.318.317.317v.386l-.416.416-.415.415zm.351-.579l.726-.083v-.529l-.561-.08-.562-.08-.164.428-.165.428zm-42.665-.215h-.397v-.53h.794v.53zm40.746 0h-.397v-.53h.793v.53zM18.367 40.255l-.508-.02.348-.14.347-.139.16.16.16.16-.507-.021zm1.322 0l-.507-.02.348-.14.347-.139.16.16.16.16-.508-.021zm15.236-.244h-.353l.177-.176.176-.177.176.177.177.176zm.413-.529h-.117l-.189-.305-.189-.306.306.189.305.189v.233zm-16.64-.617l-.177.176v-.705l.176.176.177.176zm16.492-.441h-.353l.176-.177.177-.176.176.176.176.177zm-11.352-.53h-.456l-3.408-3.228-3.407-3.228.055-3.717.056-3.717.163-2.977.164-2.976.03-.008.03-.008 6.612-.635 6.61-.636.026.048.025.048 2.948 4.137 2.948 4.137 1.311 3.095 1.312 3.095-1.9 2.45-1.9 2.451-2.513.15-2.514.151-2.867.684-2.868.684zm.409-.412l.492-.114 2.867-.663 2.868-.662h3.614l.403-.155.402-.154 1.604-2.073 1.603-2.073-.002-.485-.002-.484-1.038-2.514-1.038-2.514-2.946-4.167-2.945-4.167h-1.422l-5.548.535-5.548.534-.187.193-.187.193-.19 6.145-.19 6.146.37.444.368.444 3.08 2.852 3.08 2.852zm16.08-3.577l-.507-.02.347-.14.347-.139.16.16.16.16-.507-.021zm1.213.02h-.353l.176-.176.177-.176.176.176.176.177zM.76 32.604H.265v-.529h1.058v-.794H.529v-.529H1.588v-.529l-.596-.004-.595-.004.397-.257.397-.256.316-.004.317-.004-.031 1.124-.032 1.125-.251.33-.252.331H.761zm58.09 0h-.643v-.239l.29-1.35.29-1.352.7.082.7.08.064.53.064.53-.15-.332-.15-.33h-.983l-.163.264-.164.265h.984l.317.317.318.318v.385l-.416.416-.416.416zm.351-.578l.726-.084v-.529l-.561-.08-.562-.08-.164.428-.165.429zm-17.265.313h-.133v-.264h.265v.264zM12.28 30.201l-.507-.021.347-.139.348-.139.16.16.16.16-.508-.021zm1.345.02h-.132v-.264h.264v.265zm-.022-.814l-.507-.02.347-.14.347-.139.16.16.16.16-.507-.02zm-.992-.596l-.177.176v-.706l.177.177.176.176zm1.41-.177h-.352l.177-.176.176-.177.176.177.177.176zm24.717-2.931l-.507-.021.348-.139.347-.139.16.16.16.16zm1.478.02h-.353l.176-.176.177-.176.176.176.176.177zm-1.163-1.13l-.16.16.02-.506.022-.508.139.348.138.347-.16.16zm1.427-.457h-.353l.177-.176.176-.176.177.176.176.176zm-24.21-7.673h-.396v-.512l.397.152.397.152v.208zm1.456-.041h-.661l.33-.134.331-.133.33.133.332.134zm-.845-1.142l-.148.148-.18-.475-.181-.474.329.326.328.327zm1.11-.404h-.353l.176-.177.177-.176.176.176.176.177zm13.868-.286l-.507-.02.347-.14.348-.138.16.16.16.16zm1.08.021h-.132v-.264h.265v.264zm.53-.793h-.133v-.265h.265v.265zm-.022-.815l-.507-.021.347-.139.347-.139.16.16.16.16-.507-.021zm-25.384-2.36h-.372l-.274-.512-.274-.512.237-.624.237-.623.42-.35.422-.35.466.204.467.203-.53.12-.529.12-.33.268-.331.268v1.258h1.09l-.164.265-.164.265zm3.28 0h-.496v-.53h1.058V9.32h-.793v-.53h1.058v-.529l-.595-.004-.596-.004.397-.256.397-.257.317-.004.316-.004-.03 1.125-.032 1.124-.252.331-.252.33zm36.936 0h-.372l-.274-.512-.274-.512.237-.624.237-.623.422-.35.42-.35.467.204.466.203-.529.12-.529.12-.33.268-.331.268v1.258h1.089l-.163.265-.164.265zm3.427 0h-.642v-.239l.29-1.351.29-1.351.7.081.7.081.063.53.064.529-.15-.331-.15-.33h-.982l-.164.264-.164.264h.984l.318.318.317.317v.386l-.416.416-.415.416zm.351-.578l.726-.084v-.529l-.561-.08-.562-.08-.164.428-.165.428zM9.922 9.849h-.397V9.32h.794v.529zm40.217 0h-.397V9.32h.793v.529zm-19.85-6.88h-.372l-.274-.511-.274-.512.237-.624.237-.623.42-.35.422-.349.466.203.467.203-.53.12-.529.12-.33.268-.331.268V2.44h1.09l-.164.265-.164.265z" fill="#fd0c0c"/><path d="M28.651 61.112l-.29.728.15-.926.151-.927.198-.661.199-.661.023.595.022.595h.577l.46-.569.461-.569.707.177.706.178v1.577l-.53.53-.529.528h-1.048l-.166-.661-.166-.662h-.634l-.29.728zm1.876.066h.63l.318-.384.319-.384-.091-.473-.091-.473-.473-.09-.473-.092-.384.32-.384.318v1.259zm-24.1-7.21l-.291.728.15-.926.151-.926.198-.662.199-.661.022.595.023.595h.577l.46-.569.461-.569.707.177.706.178v1.578l-.53.528-.529.53H7.683l-.166-.662-.166-.661h-.634zm1.875.066h.63l.318-.384.319-.384-.091-.473-.091-.472-.473-.091-.473-.091-.384.318-.384.32v1.258zm4.101.53h-.497v-.53H12.965v-.794h-.794v-.529H13.23v-.529l-.596-.004-.595-.004.396-.256.397-.257.317-.004.317-.004-.032 1.125-.03 1.124-.253.33-.251.332h-.497zm34.77-.596l-.291.728.15-.926.15-.926.2-.662.198-.661.022.595.023.595h.577l.46-.569.461-.569.706.177.706.178v1.578l-.529.528-.529.53H48.43l-.166-.662-.166-.662h-.634l-.29.728zm1.875.066h.629l.319-.384.319-.384-.091-.473-.091-.473-.473-.09-.473-.092-.384.32-.384.318v1.258zm3.982.53h-.642v-.24l.29-1.35.29-1.351.7.081.7.081.063.53.064.529-.15-.331-.15-.33h-.983l-.163.264-.164.264h.984l.318.318.317.317v.386l-.416.416-.415.415zm.351-.579l.726-.083v-.529l-.561-.08-.562-.08-.164.428-.165.428zm-42.665-.215h-.397v-.53h.794v.53zm40.746 0h-.397v-.53h.793v.53zM18.367 40.255l-.508-.02.348-.14.347-.139.16.16.16.16-.507-.021zm1.322 0l-.507-.02.348-.14.347-.139.16.16.16.16-.508-.021zm15.236-.244h-.353l.177-.176.176-.177.176.177.177.176zm.413-.529h-.117l-.189-.305-.189-.306.306.189.305.189v.233zm-16.64-.617l-.177.176v-.705l.176.176.177.176zm16.492-.441h-.353l.176-.177.177-.176.176.176.176.177zm5.137-4.519l-.507-.02.347-.14.347-.139.16.16.16.16-.507-.021zm1.213.02h-.353l.176-.176.177-.176.176.176.176.177zM.76 32.604H.265v-.529h1.058v-.794H.529v-.529H1.588v-.529l-.596-.004-.595-.004.397-.257.397-.256.316-.004.317-.004-.031 1.124-.032 1.125-.251.33-.252.331H.761zm58.09 0h-.643v-.239l.29-1.35.29-1.352.7.082.7.08.064.53.064.53-.15-.332-.15-.33h-.983l-.163.264-.164.265h.984l.317.317.318.318v.385l-.416.416-.416.416zm.351-.578l.726-.084v-.529l-.561-.08-.562-.08-.164.428-.165.429zm-17.265.313h-.133v-.264h.265v.264zM12.28 30.201l-.507-.021.347-.139.348-.139.16.16.16.16-.508-.021zm1.345.02h-.132v-.264h.264v.265zm-.022-.814l-.507-.02.347-.14.347-.139.16.16.16.16-.507-.02zm-.992-.596l-.177.176v-.706l.177.177.176.176zm1.41-.177h-.352l.177-.176.176-.177.176.177.177.176zm24.717-2.931l-.507-.021.348-.139.347-.139.16.16.16.16zm1.478.02h-.353l.176-.176.177-.176.176.176.176.177zm-1.163-1.13l-.16.16.02-.506.022-.508.139.348.138.347-.16.16zm1.427-.457h-.353l.177-.176.176-.176.177.176.176.176zm-24.21-7.673h-.396v-.512l.397.152.397.152v.208zm1.456-.041h-.661l.33-.134.331-.133.33.133.332.134zm-.845-1.142l-.148.148-.18-.475-.181-.474.329.326.328.327zm1.11-.404h-.353l.176-.177.177-.176.176.176.176.177zm13.868-.286l-.507-.02.347-.14.348-.138.16.16.16.16zm1.08.021h-.132v-.264h.265v.264zm.53-.793h-.133v-.265h.265v.265zm-.022-.815l-.507-.021.347-.139.347-.139.16.16.16.16-.507-.021zm-25.384-2.36h-.372l-.274-.512-.274-.512.237-.624.237-.623.42-.35.422-.35.466.204.467.203-.53.12-.529.12-.33.268-.331.268v1.258h1.09l-.164.265-.164.265zm3.28 0h-.496v-.53h1.058V9.32h-.793v-.53h1.058v-.529l-.595-.004-.596-.004.397-.256.397-.257.317-.004.316-.004-.03 1.125-.032 1.124-.252.331-.252.33zm36.936 0h-.372l-.274-.512-.274-.512.237-.624.237-.623.422-.35.42-.35.467.204.466.203-.529.12-.529.12-.33.268-.331.268v1.258h1.089l-.163.265-.164.265zm3.427 0h-.642v-.239l.29-1.351.29-1.351.7.081.7.081.063.53.064.529-.15-.331-.15-.33h-.982l-.164.264-.164.264h.984l.318.318.317.317v.386l-.416.416-.415.416zm.351-.578l.726-.084v-.529l-.561-.08-.562-.08-.164.428-.165.428zM9.922 9.849h-.397V9.32h.794v.529zm40.217 0h-.397V9.32h.793v.529zm-19.85-6.88h-.372l-.274-.511-.274-.512.237-.624.237-.623.42-.35.422-.349.466.203.467.203-.53.12-.529.12-.33.268-.331.268V2.44h1.09l-.164.265-.164.265z" fill="#080808"/></svg>