<svg xmlns="http://www.w3.org/2000/svg" width="229.292" height="233.724" viewBox="0 0 60.666729 61.83939"><path d="M28.42 61.707h-.41l.136-.463.136-.463.176-.992.176-.992h.735v1.176l.412-.588.412-.588h1.249l.419.16.418.16v1.532l-.529.529-.53.53H29.678l-.241-.726-.242-.726-.182.726-.182.725zm2.087-.53h.343l.318-.317.317-.317v-.921l-.276-.171-.276-.17-.385.319-.385.32v1.258zm-.344-2.92h-.133l-.871-1.491-.872-1.491.24-.24.24-.24.56.876.562.877.004-11.047.004-11.046h-.29l-3.043 1.984-3.043 1.985h-.376l-5.421 5.434-5.422 5.433 1.125-.176 1.124-.176v.566l-.207.128-.208.129-1.609.182-1.608.182.421-1.618.422-1.618h.715l-.178.86-.178.86 4-3.969 4-3.968-1.396-.156-1.396-.155.35-.043.35-.043-.085-.723-.086-.722.46-.09.46-.09-.162.812-.162.813h.53l.363-.44.364-.44-.333-.112-.332-.112.15-.242.149-.242H20.372v.62l-.438.484-.438.484h1.033l1.029-1.054 1.029-1.053-.116-.111-.115-.111-5.463-3.201-5.464-3.201-3.268.004-3.267.004.876.56.877.562-.24.24-.24.24-1.491-.872-1.491-.872-.005-.132-.005-.132 1.388-.794 1.39-.794h.793l.33-.214.331-.214v-.481l-.44.169-.44.169.191-.31.191-.31H7.936v1.033l-.463.27-.463.27.86.007.86.008v-.485l-.33-.133-.331-.134.33-.02.331-.022v-.56l-.264.164-.265.163v-.56H9.228l.124.2.123.2-.138.726-.14.726-1.622.008-1.623.008-.513.388-.514.389h6.54l5.71-2.936 5.71-2.935.193-.181.193-.182-5.579-5.548-5.579-5.549.173.993.172.992h-.716l-.41-1.714-.41-1.713.101-.101.101-.101 1.714.41 1.713.41v.716l-.992-.173-.992-.172 4.868 4.9 4.869 4.899.371-.143.372-.142-.08-.689-.081-.689.489-.095.49-.096-.18.818-.18.819h.774l.138-.53.139-.529h-.511l.163-.264.164-.265h.78l-.063.926-.063.926H22.39l.741.775.742.774 3.012-2.006 3.012-2.006-.004-7.301-.004-7.301-.561.876-.561.876-.24-.24-.24-.24.871-1.49.872-1.492h.265l.871 1.491.872 1.491-.24.24-.24.24-.561-.876-.561-.876-.002 7.276-.002 7.276 3.46 1.431 3.46 1.431 5.071-5.093 5.07-5.093-.86.177-.86.177v-.715l1.618-.421 1.618-.421-.182 1.608-.182 1.609-.129.207-.128.208h-.565l.176-1.125.176-1.124-5.145 5.132-5.144 5.132 4.274 3.656 4.275 3.656 4.498.005 4.498.005-.877-.561-.876-.561.24-.24.24-.24 1.491.871 1.491.872v.265l-1.49.871-1.492.872-.24-.24-.24-.24.876-.561.877-.561-4.34-.004-4.341-.004-6.441 1.374-6.442 1.375v.298l7.16 7.141 7.161 7.142-.185-1.026-.184-1.026.359.12.36.12.369 1.513.37 1.515-.152.151-.151.151-1.515-.37-1.514-.369-.12-.359-.12-.36 1.027.185 1.026.184-7.408-7.421-7.409-7.422-1.257-.171-1.256-.171.004 11.214.004 11.215.56-.876.562-.877.24.24.24.24-.872 1.491-.872 1.491h-.132zm-4.03-23.614l2.981-2.966-3.957-.073-3.957-.073-4.099.073-4.098.073 5.074 2.966 5.074 2.967zm.06 1.17l.927-.578 1.381-.853 1.382-.853.008-.86.007-.86h-.144l-2.243 2.292-2.243 2.29zm5.623-2.188l.199.036v-.165l-.794-.76-.794-.761V33.36l.595.114.596.115zm1.428.036h.328l4.314-.931 4.315-.932.265-.106.264-.106-5.94-.02-5.941-.021 1.033 1.058 1.034 1.058h.328zM21.298 31.01l8.2.006-2.8-2.8-2.802-2.801-3.68 1.855-3.68 1.856-1.72.94-1.719.938 8.2.006zm16.607.006h7.339v-.18l-2.05-1.717-2.051-1.717-1.872-1.616-1.872-1.616-3.416 3.423-3.416 3.423zm-8.063-2.771l.077-2.256-.077-2.25-.076-2.252-2.58 1.726-2.58 1.726v.38l2.58 2.59 2.58 2.59zm3.751-1.056l3.166-3.158-.068-.069-.07-.068-3.096-1.31-3.098-1.31v9.073zM6.195 54.563h-.41l.136-.463.136-.463.176-.992.176-.992h.735v1.176l.412-.588.412-.588h1.249l.419.16.418.161v1.266h1.323v.565l-.727-.084-.728-.084-.463.463-.463.463H7.453l-.242-.725-.242-.726-.182.726-.182.725zm2.087-.529h.344l.317-.317.318-.318v-.921l-.277-.17-.276-.171-.385.32-.385.319v1.258zm4.121.53h-.761v-.83l.529.168.53.168v-.83h-.795v-.529H12.965v-.565l-.53.168-.529.168v-.508l.419-.16.418-.161h.987l-.03 1.124-.032 1.125-.252.33-.252.331zm34.538 0h-.41l.136-.464.136-.463.176-.992.176-.992h.735v1.176l.412-.588.411-.588h1.25l.419.16.418.161v1.266h1.323v.565l-.728-.084-.727-.084-.463.463-.463.463h-1.544l-.242-.725-.241-.726-.182.726-.183.725zm2.086-.53h.344l.318-.317.317-.318v-.921l-.276-.17-.276-.171-.385.32-.386.319v1.258zm4.003.53h-.907v-.24l.287-1.335.286-1.336H54.521l.162.423.163.424-.331.205-.332.205.293.18.293.182v.46l-.416.416-.416.415zm.299-.577l.41-.085.052-.243.052-.242-.298-.1-.298-.1-.164.428-.164.428zm.234-1.276h.412v-.529h-.498l-.163.265-.164.264zm-5.2-18.785h-1.36l.576-.613.575-.612v-.346l-.44.169-.44.169.177-.288.178-.287h2.411l.136.354.136.354-.295.55-.294.55zm-.077-.265h.397v-.512l-.397.152-.396.152v.208zm1.028 0h.101l.139-.529.138-.53h-.48v1.06zM.761 32.603H0v-.83l.53.168.528.168v-.829H.265v-.529h1.058v-.565l-.53.168-.528.168v-.508l.418-.16.419-.162h.987l-.032 1.125-.03 1.124-.253.331-.251.33zm58.09 0h-.907v-.239l.286-1.336.287-1.336H60.342l.162.424.163.424-.332.204-.331.205.293.181.293.181v.46l-.416.416-.416.416zm.298-.576l.41-.086.052-.242.053-.243-.298-.1-.299-.098-.164.427-.164.427zm.234-1.276h.413v-.529h-.498l-.164.264-.163.265zm-18.555-6.615h-1.443l.416-.416.416-.415v-.492h-.56l.163-.264.163-.265h.991l-.228.794-.228.794h1.286v-.485l-.33-.134-.331-.133.33-.021.331-.021v-.56l-.264.163-.265.164v-.56H42.302l.124.2.123.199-.139.726-.138.726zm-8.466-5.82h-1.444l.416-.416.416-.416v-.492h-.56l.163-.264.164-.265h.99l-.228.794-.227.794h1.286v-.485l-.331-.134-.33-.133.33-.021.33-.021v-.56l-.264.163-.265.164v-.56H33.835l.124.2.124.2-.14.725-.138.726zM8.047 10.641h-.62l-.274-.511-.274-.512.237-.624.237-.623.41-.34.41-.34.59.086.588.086.123.373.123.373-.466-.179-.467-.179-.363.302-.363.301v1.258h.755l.397-.396.397-.397h.87l.396.397.397.396h.492V9.32h-.794v-.53h1.058v-.564l-.529.168-.529.168v-.509l.418-.16.419-.16h.987l-.031 1.124-.032 1.124-.251.33-.252.332H10.583v-.794H9.325l-.33.397-.328.397zm40.216 0h-.62l-.273-.511-.274-.512.237-.624.237-.623.41-.34.41-.34.589.086.589.086.123.373.123.373-.467-.179-.466-.179-.363.302-.364.301v1.258h.756l.397-.396.397-.397H50.8v.529h-1.259l-.328.397-.33.397zm3.444 0H50.8v-.239l.287-1.335.286-1.336H53.198l.162.424.163.423-.331.205-.332.205.293.18.293.182v.46l-.416.416-.416.415zm.299-.576l.41-.085.052-.243.052-.242-.298-.1-.298-.099-.164.427-.164.428zm.234-1.276h.412v-.529h-.498l-.163.265-.164.264zM30.272 2.97h-.62l-.274-.512-.274-.512.237-.624.237-.623.41-.34.41-.34.59.086.588.086.123.373.123.373-.466-.179-.467-.179-.363.302-.363.301v1.316l.707-.178.708-.177-.343.413-.344.414z" fill="#cfcfcf"/><path d="M28.488 61.707h-.352l.264-1.455.264-1.455h.74l-.167.529-.168.529h.3l.529-.53.53-.528h1.258l.326.393.326.394-.162.646-.162.646-.43.43-.43.43-.688-.08-.688-.081-.294-.594-.295-.594-.175.175-.174.175v.97zm2.018-.53h.344l.318-.317.317-.317v-1.217h-1.001l-.16.418-.161.419V61.178zm-.343-3.174h-.138l-.277-.463-.278-.463-.601-.992-.602-.992h.58l.525.86.524.86.001-11.201.001-11.201-.247.088-.247.088-2.984 1.852-2.985 1.852-5.566 5.518-5.566 5.518 1.125-.163L14.552 49v.493l-.728.144-.727.145-.992.17-.993.171v-.492l.408-1.37.407-1.372h.508v.136l-.264.92-.264.921 4.107-4.097 4.107-4.097-1.396-.156-1.395-.155.35-.043.35-.043-.086-.705-.085-.704.366-.123.366-.123-.122.827-.121.828h.62l.493-.545.494-.546-.386-.244-.387-.244.448-.004.447-.004.174.28.174.282-.435.48-.434.48.374.143.375.144 1.157-1.18 1.158-1.18-.396-.254-.396-.254-5.21-3.043-5.21-3.042H8.02l-3.389.002.86.524.86.524v.567l-1.125-.685-1.124-.686-.397-.256-.397-.255.397-.255.397-.256 1.124-.685 1.125-.686v.567l-.86.524-.86.525h3.418l3.417.001 5.71-2.935 5.711-2.935.193-.182.193-.18-5.709-5.682-5.709-5.68.138.529.137.529.17.595.172.596h-.544l-.26-.993-.26-.992-.186-.766-.185-.766.766.186.766.185.992.26.992.26v.545l-.53-.15-.528-.15-.596-.159-.595-.158 5 5.03 5.002 5.029.33-.127.331-.127.134-.511.134-.511h-.511l.163-.265.164-.264h.63v1.852h-1.29l.742.774.742.775 3.012-2.006 3.012-2.006-.001-7.434-.001-7.433-.524.86-.525.86h-.567l.686-1.125.686-1.124.255-.397.255-.397.256.397.255.397.686 1.124.685 1.125h-.566l-.525-.86-.524-.86-.001 7.418-.001 7.42L33.895 22l3.468 1.416 5.196-5.197 5.197-5.197-.924.265-.923.265h-.136v-.509l1.37-.407 1.372-.407h.492l-.171.992-.17.992-.145.728-.144.728h-.494l.166-1.125.166-1.124-5.178 5.144-5.177 5.145.98.834.98.834 3.307 2.816 3.307 2.816 4.63.002 4.63.002-.86-.525-.859-.524v-.567l1.124.686 1.125.686.397.255.397.255-.397.256-.397.255-1.125.686-1.124.685v-.567l.86-.524.86-.524-4.63.01-4.63.01-6.412 1.385-6.41 1.385 7.428 7.401 7.43 7.402-.138-.53-.137-.529-.171-.595-.171-.595h.544l.26.992.26.992.186.766.185.766-.766-.185-.766-.186-.992-.26-.992-.26v-.544l.463.129.463.129.661.178.662.179-7.54-7.563-7.541-7.563-1.257-.171-1.257-.171.001 11.347.001 11.347.524-.86.525-.86h.58l-.602.992-.601.992-.278.463-.277.463zm-4.03-23.357l2.981-2.97-3.957-.072-3.957-.073-4.127.073-4.127.073 5.103 2.969 5.102 2.969zm1.31.424l2.439-1.541.008-.86.008-.86h-.144l-2.375 2.402-2.376 2.4zm4.373-1.445l.199.036v-.165l-.794-.76-.794-.761V33.36l.595.114.596.115zm1.51.025l.408-.01 4.63-1.026 4.63-1.026-6.072-.021-6.073-.022 1.033 1.058 1.034 1.058.41-.01zm-12.029-2.64l8.201.005-2.8-2.8-2.802-2.801-3.68 1.855-3.68 1.856-1.72.94-1.72.938 8.201.006zm16.608.005h7.339v-.197l-3.236-2.745-3.236-2.746-.686-.58-.686-.58-3.417 3.424-3.416 3.424zm-8.063-2.775l.077-2.252-.077-2.248-.076-2.25-2.7 1.8-2.701 1.799 2.7 2.701 2.7 2.702zm3.756-1.057l3.17-3.163-.372-.208-.372-.209-2.799-1.172-2.798-1.172v9.087zM6.263 54.563H5.91l.264-1.455.264-1.455h.74l-.168.53-.167.528h.3l.529-.529.53-.53H9.46l.326.394.326.394-.162.646-.162.647-.43.43-.43.43-.688-.081-.688-.08-.294-.595-.295-.593-.175.174-.174.175v.97zm2.018-.529h.344l.318-.317.317-.318v-1.217H8.26l-.16.419-.161.418V54.034zm4.132.525l-.419.004-.176-.176-.176-.176v-.351l.568.02.569.022.115-.33.115-.332h-.838v-.529h.794v-.586l-.42.161-.418.161.11-.331.11-.33h1.28l-.092 1.19-.092 1.19-.305.195-.306.194-.419.004zm34.596.004h-.352l.264-1.455.263-1.455h.741l-.168.529-.168.53h.3l.53-.53.529-.53h1.259l.326.394.326.394-.162.646-.162.647-.43.43-.43.429-.688-.08-.688-.081-.295-.594-.294-.593-.175.174-.175.175v.97zm2.018-.529h.344l.318-.317.317-.318v-1.217h-1.001l-.161.419-.16.418V54.034zm4.035.53h-.849l.264-1.456.264-1.455h1.732l.163.264.164.265-.207.33-.208.331.079.48.079.478-.316.381-.317.381zm.265-.57l.472-.092.118-.356.119-.356-.472.091-.471.092-.119.356-.118.356zm.251-1.283h.397v-.529h-.794v.529zM10.7 53.77h-.677l.163-.265.164-.265H11.377v.53zm40.746 0h-.677l.163-.265.164-.265H52.123v.53zm-3.49-19.848l-.596.004v-.355l.453-.5.452-.5-.386-.245-.386-.244.595-.004.595-.004v.729l-.409.34-.41.34.344.217.343.218zm1.454-.045l-.464.088-.152-.396-.151-.396.294-.55.294-.55h.809l-.083.858-.083.858zm.067-.348l.265-.164V32.338h-.53v1.354zm-48.705-.93l-.42.004-.176-.177L0 32.25v-.351l.569.021.568.021.115-.33.115-.331H.529v-.529h.794v-.586l-.42.16-.418.161.11-.33.11-.331h1.28l-.092 1.19-.091 1.19-.306.195-.305.195-.42.004zm58.11.004h-.848l.264-1.455.263-1.456h1.733l.163.265.164.265-.208.33-.207.331.079.479.079.479-.317.38-.316.382zm.266-.57l.472-.092.118-.356.119-.356-.472.092-.471.091-.119.356-.118.356zm.251-1.282h.397v-.529h-.794v.529zm-52.19-.533l-.594.004v-.356l.452-.5.453-.5-.387-.244-.386-.244.595-.004.595-.004v.728l-.409.34-.41.34.344.218.343.218zm1.252-.08l-.656.049.463-.134.463-.135v-.49h-.63l.514-.419.513-.418-.477.15-.476.152.161-.262.162-.261h.756l-.069.86-.069.86zm31.623-6.007l-.529-.003.354-.224.353-.224-.089-.607-.089-.608.313-.107.313-.106-.048.94-.049.942-.529-.003zm1.45-.078l-.656.049.463-.135.463-.134v-.491h-.63l.513-.418.514-.419-.477.151-.476.151.161-.261.162-.262h.756l-.069.86-.069.86zm-17.026-.976h-.496l.313-.377.313-.377-.082-.455-.082-.455.313-.11.313-.11-.048.941-.049.941-.495.001zm7.11-4.767l-.53-.003.354-.224.354-.224-.09-.607-.088-.607.313-.107.313-.107-.049.94-.048.942-.53-.003zm1.45-.078l-.657.049.463-.135.463-.134v-.49h-.63l.514-.419.513-.418-.476.15-.477.151.162-.261.161-.262h.756l-.069.86-.068.86zM8.171 10.588l-.651.079-.189-.189-.188-.188V8.909l.422-.604.423-.603.702.081.702.081-.133.26-.132.26-.446-.075-.447-.075-.301.563-.302.564.156.406.156.406.541-.141.541-.142-.102.31-.101.31zm3.13.05l-.47.004-.153-.397-.152-.396H9.229l.164-.265.163-.265h.837l.321.44.322.44.435-.167.435-.167V9.32h-.794V8.79h.794v-.586l-.419.161-.419.161.11-.33.11-.332h1.28l-.092 1.19-.091 1.191-.306.195-.305.194zm37.086-.05l-.65.079-.189-.189-.189-.188V8.909l.423-.604.422-.603.702.081.702.081-.132.26-.132.26-.447-.075-.446-.075-.302.563-.301.564.156.406.156.406.54-.141.542-.142-.102.31-.102.31zm3.35.054h-.848l.264-1.455.264-1.455h1.732l.164.265.163.264-.207.33-.208.332.079.478.079.48-.317.38-.316.381zm.266-.57l.472-.091.118-.356.119-.356-.472.091-.471.092-.119.356-.118.356zm.251-1.282h.397v-.529h-.794v.529zM50.123 9.85h-.677l.163-.265.164-.265H50.8v.53zM30.397 2.915l-.651.079-.189-.189-.188-.188V1.236l.422-.604.423-.603.702.081.702.081-.133.26-.132.26-.446-.075-.447-.075-.301.563-.302.564.156.406.156.406.541-.141.541-.142-.102.31-.101.31z" fill="#fda3a3"/><path d="M28.488 61.707h-.352l.264-1.455.264-1.455h.74l-.167.529-.168.529h.3l.529-.53.53-.528h1.258l.326.393.326.394-.162.646-.162.646-.43.43-.43.43-.688-.08-.688-.081-.294-.594-.295-.594-.175.175-.174.175v.97zm2.018-.53h.344l.318-.317.317-.317v-1.217h-1.001l-.16.418-.161.419V61.178zm-.343-3.174h-.138l-.277-.463-.278-.463-.601-.992-.602-.992h.58l.525.86.524.86.001-11.302.001-11.3-3.541 2.272-3.542 2.272-5.256 5.288-5.256 5.29 1.125-.167 1.124-.165v.493l-.728.144-.727.145-.992.17-.993.171v-.492l.408-1.37.407-1.372h.508v.136l-.264.92-.264.921 4.107-4.097 4.107-4.097-1.396-.156-1.395-.155.35-.043.35-.043-.086-.705-.085-.704.366-.123.366-.123-.122.827-.121.828h.62l.493-.545.494-.546-.386-.244-.387-.244.448-.004.447-.004.174.28.174.282-.44.485-.438.485.347.128.347.129 1.244-1.203 1.244-1.204-5.607-3.263-5.607-3.263H8.072l-3.442.002.86.524.86.524v.567l-1.125-.685-1.124-.686-.397-.256-.397-.255.397-.255.397-.256 1.124-.685 1.125-.686v.567l-.86.524-.86.525h3.432l3.432.001 5.891-2.976 5.891-2.977.004-.134.004-.135-5.714-5.686-5.715-5.686.138.529.137.529.17.595.172.596h-.544l-.26-.993-.26-.992-.186-.766-.185-.766.766.186.766.185.992.26.992.26v.545l-.53-.15-.528-.15-.596-.159-.595-.158 5 5.03 5.002 5.029.33-.127.331-.127.134-.511.134-.511h-.511l.163-.265.164-.264h.635l-.003.86-.003.86-.614.132-.615.132.756.723.756.722 2.968-1.982 2.967-1.983-.001-7.471-.001-7.471-.524.86-.525.86h-.567l.686-1.125.686-1.124.255-.397.256-.397.255.397.255.397.686 1.124.686 1.125h-.567l-.525-.86-.524-.86v7.439l-.002 7.44 3.297 1.357 3.297 1.359h.422l5.155-5.16 5.154-5.159-.922.265-.921.264h-.136v-.509l1.37-.407 1.372-.407h.492l-.17.992-.172.992-.144.728-.144.728h-.494l.166-1.125.166-1.124-5.187 5.153-5.186 5.153.328.306.327.306 3.926 3.338 3.927 3.338h4.672l4.673-.002-.86-.524-.86-.524v-.567l1.125.686 1.124.685.397.256.397.255-.397.255-.397.256-1.124.685-1.125.686v-.567l.86-.524.86-.524-4.63-.004-4.63-.004-6.432 1.375-6.43 1.375 7.345 7.348 7.345 7.349.073-.073.074-.074-.256-.89-.255-.892.127-.128.128-.127.15.15.152.151.394 1.51.394 1.509-.12.12-.12.119-1.509-.394-1.509-.395-.15-.15-.151-.15.127-.129.128-.127.891.255.891.256.074-.074.073-.073-7.504-7.5-7.504-7.501-1.217-.185-1.217-.185.001 11.401.001 11.402.524-.86.525-.86h.58l-.602.992-.601.992-.278.463-.277.463zm-7.14-20.395l.137.022 3.034-3.043 3.034-3.042H12.876l.183.182.182.183 4.823 2.838 4.822 2.839.137.021zm2.395-1.202l.415-.231 2.033-1.303 2.032-1.303v-1.76h-.143l-2.376 2.414-2.376 2.414zm12.23-3.554l4.553-.983.53-.131.528-.132-6.206-.03-6.207-.031 1.124 1.145 1.125 1.146zm-6.047.805l.513.004-.777-.814-.778-.815-.089.586-.09.586.355.225.354.224.512.004zm-10.439-2.65l8.33.008-2.769-2.778-2.769-2.778h-.283l-5.42 2.77L12.833 31zm16.88.008h7.474l-3.645-3.109-3.646-3.109-.407-.32-.408-.32-3.422 3.429-3.42 3.429zm-8.204-4.927l.073-4.409-.113-.113-.113-.113L27 23.24l-2.684 1.787 2.725 2.735 2.725 2.734zm3.76 1.095l3.17-3.162-.194-.181-.194-.181L34 22.678l-2.381-.981-.596-.23-.595-.229v9.107zM6.263 54.563H5.91l.264-1.455.264-1.456h.74l-.168.53-.167.529h.3l.529-.53.53-.529H9.46l.326.394.326.393-.162.647-.162.646-.43.43-.43.43-.688-.08-.688-.081-.294-.594-.295-.594-.175.175-.174.175v.97zm2.018-.53h.344l.318-.317.317-.317v-1.217H8.26l-.16.418-.161.419V54.034zm4.132.526l-.419.004-.176-.177-.176-.176v-.351l.568.021.569.021.115-.33.115-.331h-.838v-.529h.794v-.586l-.42.16-.418.161.11-.33.11-.331h1.28l-.092 1.19-.092 1.19-.305.195-.306.195-.419.004zm34.596.004h-.352l.264-1.455.263-1.456h.741l-.168.53-.168.529h.3l.53-.53.529-.529h1.259l.326.394.326.393-.162.647-.162.646-.43.43-.43.43-.688-.081-.688-.08-.295-.594-.294-.594-.175.175-.175.175v.97zm2.018-.53h.344l.318-.317.317-.317v-1.217h-1.001l-.161.418-.16.419V54.034zm4.035.53h-.849l.264-1.455.264-1.456h1.732l.164.265.163.265-.207.33-.208.331.079.479.079.479-.316.38-.317.382zm.265-.57l.472-.092.118-.356.119-.356-.472.092-.471.091-.119.356-.118.356zm.251-1.282h.397v-.529h-.794v.529zM10.7 53.769h-.677l.163-.265.164-.264H11.377v.529zm40.746 0h-.677l.163-.265.164-.264H52.123v.529zm-3.49-19.848l-.596.004v-.355l.453-.5.452-.5-.386-.244-.386-.245.595-.004.595-.004v.729l-.409.34-.41.34.344.218.343.217zm1.454-.044l-.464.087-.152-.395-.151-.396.294-.55.294-.55h.809l-.083.858-.083.858zm.067-.349l.265-.163V32.338h-.53v1.354zm-48.705-.93l-.42.004-.176-.176L0 32.25v-.351l.569.02.568.022.115-.33.115-.332H.529v-.529h.794v-.586l-.42.161-.418.161.11-.33.11-.332h1.28l-.092 1.19-.091 1.191-.306.195-.305.194-.42.004zm58.11.004h-.848l.264-1.455.263-1.455h1.733l.163.265.164.264-.208.33-.207.332.079.478.079.48-.317.38-.316.381zm.266-.57l.472-.091.118-.356.119-.356-.472.091-.471.092-.119.356-.118.356zm.251-1.282h.397v-.529h-.794v.529zm-52.19-.533l-.594.004v-.355l.452-.5.453-.5-.387-.245-.386-.244.595-.004.596-.004v.729l-.41.34-.41.34.344.217.343.218zm1.252-.08l-.656.05.463-.135.463-.134v-.491h-.63l.514-.418.513-.419-.477.151-.476.151.161-.261.162-.262h.756l-.069.86-.069.86zm31.623-6.007l-.529-.003.354-.224.353-.224-.089-.607-.089-.607.313-.107.313-.107-.048.941-.049.941-.529-.003zm1.45-.078l-.656.05.463-.135.463-.135v-.49h-.63l.513-.419.514-.418-.477.15-.476.152.161-.262.162-.261h.756l-.069.86-.069.86zm-17.026-.976l-.496.001.313-.377.313-.377-.082-.456-.082-.455.313-.11.313-.11-.048.942-.049.94-.495.002zm7.11-4.766l-.53-.003.354-.224.354-.225-.09-.607-.088-.607.313-.107.313-.107-.049.941-.048.941-.53-.003zm1.45-.079l-.657.05.463-.135.464-.135v-.49h-.631l.514-.418.513-.419-.476.151-.477.15.162-.26.161-.262h.756l-.069.86-.068.86zM8.171 10.588l-.651.078-.189-.188-.188-.189V8.908l.422-.604.423-.603.702.081.702.082-.133.26-.132.26-.446-.075-.447-.076-.301.564-.302.563.156.407.156.406.541-.142.541-.141-.102.31-.101.31zm3.13.05l-.47.004-.153-.397-.152-.397H9.229l.164-.265.163-.264h.837l.321.44.322.44.435-.167.435-.167v-.546h-.793V8.79h.793v-.586l-.419.16-.419.162.11-.331.11-.331h1.28l-.092 1.19-.091 1.19-.306.195-.305.195zm37.086-.05l-.65.078-.189-.188-.189-.189V8.908l.423-.604.422-.603.702.081.702.082-.132.26-.132.26-.447-.075-.446-.076-.302.564-.301.563.156.407.156.406.54-.142.542-.141-.102.31-.102.31zm3.35.054h-.848l.264-1.455.264-1.456h1.732l.164.265.163.265-.207.33-.208.331.079.479.079.479-.317.38-.316.382zm.266-.57l.472-.092.118-.356.119-.356-.472.092-.471.091-.119.356-.118.356zm.251-1.282h.397V8.26h-.794v.529zm-2.132 1.058h-.677l.163-.264.164-.265H50.8v.529zM30.397 2.915l-.651.078-.189-.188-.188-.189V1.235l.422-.603.423-.604.702.082.702.08-.133.261-.132.26-.446-.075L30.46.56l-.301.564-.302.563.156.407.156.406.541-.142.541-.141-.102.31-.101.31z" fill="#fd5f5f"/><path d="M28.488 61.707h-.352l.264-1.455.264-1.455h.74l-.167.529-.168.529h.3l.529-.53.53-.528h1.258l.326.393.326.394-.162.646-.162.646-.43.43-.43.43-.688-.08-.688-.081-.294-.594-.295-.594-.175.175-.174.175v.97zm2.018-.53h.344l.318-.317.317-.317v-1.217h-1.001l-.16.418-.161.419V61.178zm-.343-3.174h-.138l-.277-.463-.278-.463-.601-.992-.602-.992h.58l.525.86.524.86.001-11.327.001-11.327-.33.194-.331.194-2.956 1.916-2.955 1.915-.087-.043-.088-.044-5.424 5.522-5.424 5.522 1.125-.167 1.124-.167v.493l-.728.145-.727.144-.992.17-.993.171v-.492l.408-1.37.407-1.372h.508v.136l-.264.92-.264.921 4.107-4.097 4.107-4.097-1.396-.156-1.395-.155.35-.043.35-.043-.086-.705-.085-.704.366-.123.366-.123-.122.827-.121.828h.62l.493-.545.494-.546-.386-.244-.387-.244.448-.004.447-.004.174.28.174.282-.434.48-.435.48.374.143.373.143 1.224-1.243 1.225-1.243-5.519-3.233-5.518-3.233H8.172l-3.542.002.86.524.86.524v.567l-1.125-.685-1.124-.686-.397-.256-.397-.255.397-.255.397-.256 1.124-.685 1.125-.686v.567l-.86.524-.86.525h3.527l3.527.001 5.8-2.932 5.8-2.933v-.357l-5.715-5.686-5.715-5.686.138.529.137.529.17.595.172.596h-.544l-.26-.993-.26-.992-.186-.766-.185-.766.766.186.766.185.992.26.992.26v.545l-.53-.15-.528-.15-.596-.159-.595-.158 5.001 5.03 5 5.029.332-.127.33-.127.134-.511.134-.511h-.511l.163-.265.164-.264h.63v1.852H22.367l.82.819.818.819 2.94-1.944 2.94-1.943.006-7.54.005-7.541-.524.86-.525.86h-.567l.686-1.125.686-1.124.255-.397.255-.397.256.397.255.397.686 1.124.686 1.125h-.567l-.525-.86-.524-.86-.001 7.48-.001 7.482.595.233.596.234 2.81 1.184 2.812 1.185 5.256-5.26 5.256-5.262-.922.265-.921.264h-.136v-.509l1.37-.407 1.372-.407h.492l-.17.992-.172.992-.144.728-.144.728h-.494l.17-1.059.169-1.058h-.205l-5.113 5.118-5.113 5.117 4.239 3.614 4.238 3.613h4.713l4.714-.002-.86-.524-.86-.524v-.567l1.125.686 1.124.685.397.256.397.255-.397.255-.397.256-1.124.685-1.125.686v-.567l.86-.524.86-.524h-9.79l-6.208 1.335-6.21 1.335-.008.053-.01.053 7.502 7.408 7.502 7.408-.139-.529-.138-.529-.17-.595-.172-.596h.544l.26.993.26.992.186.766.185.766-.766-.186-.766-.185-.992-.26-.992-.26v-.545l.463.13.463.129.661.178.662.179-7.673-7.669-7.673-7.668-1.124-.165-1.125-.165.001 11.446.001 11.446.524-.86.525-.86h.58l-.602.993-.601.992-.278.463-.277.463zm-7.14-20.376l.137.003 3.034-3.043 3.034-3.043H12.612l.11.107.11.108 5.027 2.932 5.027 2.932.137.003zm1.186-.262h.133v-.264h-.265v.264zm1.323-.926l.794-.488 1.786-1.184 1.786-1.183v-1.775h-.143l-2.508 2.559-2.508 2.559zm6.857-2.555l.243.042-.113-.066-.113-.066-.99-.912-.989-.912v1.658l.86.106.86.107zm1.327-.098l.548-.126 4.365-.93 4.366-.932.264-.106.265-.106-6.339-.02-6.339-.021 1.162 1.183 1.161 1.184.547-.126zm-12.497-2.77h8.255l-2.764-2.85-2.765-2.848-5.49 2.718-5.49 2.717v.262zm16.872 0h7.523l-.251-.235-.251-.235-3.785-3.205-3.784-3.205h-.112l-3.432 3.44-3.432 3.44zm-8.264-.53h.071v-9.272L27.087 23.1l-2.812 1.887 2.74 2.75 2.741 2.75zm3.775-3.307l3.175-3.167v-.276l-2.844-1.154-2.844-1.154-.331-.13-.33-.129v9.177zM6.262 54.563h-.351l.264-1.455.264-1.455h.74l-.168.53-.167.528h.3l.529-.529.53-.529H9.46l.326.393.326.394-.162.646-.162.647-.43.43-.43.43-.688-.081-.688-.08-.294-.595-.295-.593-.175.174-.174.175v.97zm2.02-.529h.343l.318-.317.317-.318v-1.217H8.26l-.16.419-.161.418V54.034zm4.131.525l-.419.004-.176-.176-.176-.176v-.351l.568.02.569.022.115-.33.115-.332h-.838v-.529h.794v-.586l-.42.161-.418.161.11-.33.11-.332h1.28l-.092 1.19-.092 1.191-.305.195-.306.194-.419.004zm34.596.004h-.352l.264-1.455.263-1.455h.741l-.168.53-.168.528h.3l.53-.529.529-.53h1.259l.326.394.326.394-.162.646-.162.647-.43.43-.43.43-.688-.081-.688-.08-.295-.595-.294-.593-.175.174-.175.175v.97zm2.018-.529h.344l.318-.317.317-.318v-1.217h-1.001l-.161.419-.16.418V54.034zm4.035.53h-.849l.264-1.456.264-1.455h1.732l.163.264.164.265-.207.33-.208.332.079.478.079.48-.316.38-.317.381zm.265-.57l.472-.092.118-.356.119-.356-.472.091-.471.092-.119.356-.118.356zm.251-1.283h.397v-.529h-.794v.529zM10.7 53.77h-.677l.163-.265.164-.265H11.377v.53zm40.746 0h-.677l.163-.265.164-.265H52.123v.53zm-3.49-19.848l-.596.004v-.355l.453-.5.452-.5-.386-.245-.386-.244.595-.004.595-.004v.729l-.409.34-.41.34.344.217.343.218zm1.454-.045l-.464.088-.152-.396-.151-.396.294-.55.294-.55h.809l-.083.859-.083.857zm.067-.348l.265-.164V32.338h-.53v1.354zm-48.705-.93l-.42.004-.176-.177L0 32.25V31.9l.569.021.568.021.115-.33.115-.331H.529v-.529h.794v-.586l-.42.16-.418.162.11-.331.11-.331h1.28l-.092 1.19-.091 1.191-.306.194-.305.195-.42.004zm58.11.004h-.848l.264-1.455.263-1.456h1.733l.163.265.164.265-.208.33-.207.331.079.479.079.479-.317.38-.316.382zm.266-.57l.472-.092.118-.356.119-.356-.472.092-.471.091-.119.356-.118.356zm.251-1.282h.397v-.529h-.794v.529zm-52.19-.533l-.594.004v-.356l.452-.5.453-.5-.387-.244-.386-.244.595-.004.595-.004v.729l-.409.34-.41.34.344.217.343.218zm1.252-.08l-.656.05.463-.135.463-.135v-.49h-.63l.514-.419.513-.418-.477.15-.476.152.161-.262.162-.261h.756l-.069.86-.069.86zm31.623-6.007l-.529-.003.354-.224.353-.224-.089-.607-.089-.608.313-.106.313-.107-.048.94-.049.942-.529-.003zm1.45-.078l-.656.049.463-.135.463-.134v-.491h-.63l.513-.418.514-.418-.477.15-.476.151.161-.261.162-.262h.756l-.069.86-.069.86zm-17.026-.976h-.496l.313-.377.313-.377-.082-.455-.082-.455.313-.11.313-.11-.048.941-.049.941-.495.001zm7.11-4.767l-.53-.003.354-.224.354-.224-.09-.607-.088-.607.313-.107.313-.107-.049.94-.048.942-.53-.003zm1.45-.078l-.657.049.463-.135.463-.134v-.49h-.63l.514-.419.513-.418-.476.15-.477.151.162-.261.161-.262h.756l-.069.86-.068.86zM8.171 10.588l-.651.079-.189-.189-.188-.188V8.909l.422-.604.423-.603.702.081.702.081-.133.26-.132.26-.446-.075-.447-.075-.301.563-.302.564.156.406.156.406.541-.141.541-.142-.102.31-.101.31zm3.13.05l-.47.004-.153-.397-.152-.396H9.229l.164-.265.163-.265h.837l.321.44.322.44.435-.167.435-.167V9.32h-.794V8.79h.794v-.586l-.419.161-.419.161.11-.33.11-.332h1.28l-.092 1.19-.091 1.191-.306.195-.305.194zm37.086-.05l-.65.079-.189-.189-.189-.188V8.909l.423-.604.422-.603.702.081.702.081-.132.26-.132.26-.447-.075-.446-.075-.302.563-.301.564.156.406.156.406.54-.141.542-.142-.102.31-.102.31zm3.35.054h-.848l.264-1.455.264-1.455h1.732l.164.265.163.264-.207.33-.208.332.079.478.079.48-.317.38-.316.381zm.266-.57l.472-.091.118-.356.119-.356-.472.091-.471.092-.119.356-.118.356zm.251-1.282h.397v-.529h-.794v.529zM50.123 9.85h-.677l.163-.265.164-.264H50.8v.529zM30.397 2.916l-.651.078-.189-.189-.188-.188V1.236l.422-.604.423-.603.702.081.702.081-.133.26-.132.26-.446-.075-.447-.075-.301.563-.302.564.156.406.156.406.541-.141.541-.142-.102.31-.101.31z" fill="#8d8d8d"/><path d="M28.538 61.597l-.3.187.182-1.03.183-1.031.136-.463.136-.463h.444l-.138.529-.139.529h.509l.48-.53.478-.528h1.222l.274.512.274.511-.237.624-.237.623-.41.34-.41.34-.61-.086-.61-.086-.084-.596-.084-.595h-.757V61.411zm2.16-.42h.504l.295-.549.294-.55-.145-.376-.144-.376h-1.088l-.26.684-.26.683.15.243.15.242zm-.535-3.439h-.215l-.71-1.211-.71-1.211.137-.137.136-.136.482.885.483.884.071-5.772.071-5.773-.07-5.539-.072-5.538-3.241 2.106-3.242 2.106v-.37l-5.622 5.554-5.622 5.553 5.424-5.496 5.423-5.497-.396-.256-.397-.256-5.205-3.053-5.205-3.052-3.527.074-3.526.074.885.482.884.483-.136.136-.136.136-1.211-.71-1.212-.71v-.428l1.212-.71 1.211-.71.136.136.136.136-.884.483-.885.482 3.494.074 3.493.074 4.841-2.42 4.841-2.42 1.149-.67 1.149-.67-5.78-5.847-5.778-5.848 5.855 5.787 5.856 5.787.26-.098.262-.099 2.808-1.852 2.809-1.852.005-7.475.005-7.474h-.251l-.424.818-.423.819-.136-.137-.136-.136.71-1.211.71-1.211h.428l.71 1.211.71 1.211-.136.136-.136.137-.423-.819-.423-.818h-.251v14.83l.595.233.595.233 2.892 1.22 2.892 1.218 5.31-5.226 5.31-5.226-5.093 5.159-5.093 5.159v.346l4.223 3.6 4.224 3.602 4.706-.073 4.706-.072-.884-.482-.884-.483.136-.136.136-.136 1.211.71 1.212.71v.428l-1.212.71-1.211.71-.136-.136-.136-.136.884-.483.884-.482-4.853-.072-4.854-.073-6.19 1.33-6.192 1.328h-.397l7.54 7.607 7.538 7.607-7.57-7.502-7.569-7.501-1.272-.238-1.271-.238-.092.092-.091.091.069 11.352.069 11.352.483-.884.482-.885.136.136.136.137-.71 1.21-.71 1.212zm-6.99-20.111l.287.003.198-.199.199-.198h.456l2.793-1.812 2.792-1.812v-2.188l-2.977 2.906-2.976 2.906 2.773-2.844 2.774-2.845h-16.88l.11.107.11.108 5.027 2.932 5.027 2.932.287.003zm9.982-3.872l1.008-.061 4.68-1.009 4.681-1.008-6.212-.071-6.212-.071-.337.129-.336.129v1.835l.86.094.86.095zm-.692-.094h-.08l-.912-.992-.912-.992.993.912.992.911v.161zm-11.098-2.708l8.4-.07.073-4.839.072-4.838-2.784 1.868-2.784 1.868v.376l2.71 2.782 2.71 2.783-2.886-2.823-2.887-2.824-5.512 2.759-5.512 2.758v.27zm16.593.062h7.656l-.251-.234-.251-.235-3.785-3.205-3.784-3.205h-.377l-3.432 3.44-3.432 3.44zm-4.228-3.7l3.302-3.294-.193-.172-.194-.173-2.766-1.122-2.767-1.122-.342-.131-.343-.132v9.442zM6.313 54.455l-.3.186.182-1.03.183-1.031.136-.463.136-.463h.444l-.138.529-.139.53h.509l.48-.53.478-.53h1.222l.274.513.274.512-.237.623-.237.624-.41.34-.41.34-.61-.087-.61-.086-.084-.595-.085-.596h-.756V54.267zm2.16-.42h.504l.295-.55.294-.55-.145-.376-.144-.376H8.19l-.26.684-.26.683.15.243.15.242zm3.974.53h-.453l-.176-.177-.176-.176v-.368l.661.126.662.127v-.856h-.794v-.467l.595-.197.595-.197-.599-.117-.599-.118.152-.245.152-.246h.996l.163.264.164.265-.208.33-.207.331.079.48.078.478-.316.381-.316.381zm34.612-.11l-.3.186.182-1.03.183-1.031.136-.463.136-.463h.444l-.138.529-.139.53h.509l.48-.53.478-.53h1.222l.274.513.274.512-.237.623-.237.624-.41.34-.41.34-.61-.087-.61-.086-.084-.595-.085-.596h-.757V54.267zm2.16-.42h.504l.294-.55.295-.55-.145-.376-.144-.376h-1.088l-.26.684-.26.683.15.243.15.242zm3.9.53h-.79l.175-.993.176-.992.141-.479.141-.478.705.082.705.081.057 1.042.058 1.042-.289.347-.288.347zm.327-.53h.529v-.794h-1.058v.794zm.117-1.323h.38l.164-.264.164-.265h-1.09v.529zM10.7 53.77h-.381v-.53h1.089l-.163.265-.164.265zm40.746 0h-.381v-.53h1.089l-.163.265-.164.265zm-2.432-3.471l-.198-.032-1.588-.487-1.587-.487 1.323.056 1.323.055-.058-1.323-.058-1.323.512 1.72.511 1.72.009.066.009.066-.198-.031zm-37.058-.401l-.877.16.155-.488.155-.489.386-1.161.385-1.162-.132.957-.132.956.152.399.153.398 1.242-.093 1.241-.092-.926.227-.926.227zm5.903-9.362l-.529-.004.342-.217.342-.217.233-.771.233-.772-.045.992-.046.992-.53-.004zm1.786-.017l-.595.021v-.464l.409-.34.409-.339-.136-.354-.136-.355h.424l.177.178.178.177-.391.597-.391.596.324.131.324.132-.596.02zm28.31-6.614l-.595.02v-.472l.427-.164.427-.163-.137-.526-.138-.526h.392l.177.177.177.177-.39.597-.392.597.324.13.324.132-.595.02zm1.249.02h-.168l-.176-.176-.177-.176.004-.287.004-.286.231.364.231.365.294-.182.295-.182V32.338h-.485l-.155.331-.154.33.088-.396.088-.397.441-.086.441-.085v1.256l-.317.317-.318.318h-.167zM.805 32.604H.353l-.177-.177L0 32.25v-.367l.662.126.661.126v-.855H.529v-.467l.596-.197.595-.197-.6-.118-.599-.117.152-.246.152-.246h.996l.163.265.164.265-.208.33-.207.331.079.479.079.479-.317.38-.316.382zm58.135 0h-.79l.175-.992.176-.993.141-.478.141-.478.705.081.705.082.057 1.041.058 1.042-.289.347-.288.348zm.327-.53h.529v-.793h-1.058v.794zm.116-1.322h.382l.163-.265.164-.264h-1.09v.529zM7.21 30.2l-.595.02v-.472l.427-.164.426-.164-.137-.525-.138-.526h.392l.177.177.177.177-.39.597-.392.597.324.13.324.132-.595.02zm1.25-.048l-.655.063.655-.275.655-.276-.354-.219-.354-.219.36-.144.361-.144-.397-.28-.397-.281.46-.004.46-.004-.069.86-.069.86-.655.063zm31.624-6.038l-.529-.02.331-.134.33-.133v-1.544h.437l-.02.925-.02.926-.528-.02zm1.45-.048l-.656.064.655-.276.655-.275-.354-.22-.354-.218.36-.144.361-.144-.397-.281-.397-.28.46-.005.46-.004-.069.86-.069.86-.655.064zm-18.47-.99h-.375l.272-.33.272-.33.128-.662.128-.662-.025.993-.024.992h-.375zm1.41-.02l-.53-.02.332-.134.33-.134V21.226h.397v1.852l-.529-.021zm7.144-4.763l-.53-.02.331-.134.331-.133v-1.544h.437l-.02.926-.02.925-.53-.02zm1.45-.047l-.656.063.655-.275.655-.276-.355-.219-.354-.219.36-.144.361-.144-.396-.28-.397-.282.46-.004.46-.004-.07.86-.068.86-.656.064zm-21-2.577h-.099l-.308-1.257-.308-1.257-.141-.473-.142-.474.749.184.749.183 1.058.332 1.058.333-1.323-.043-1.322-.042.064 1.257.064 1.256zm36.47-1.588l-.363 1.72.088-1.242.087-1.241-.398-.153-.398-.153-.957.135-.956.134 1.576-.515 1.576-.515.054.055.053.055zM8.29 10.589l-.532.079-.331-.399-.331-.399.177-.806.177-.807.49-.263.49-.262h.829v.529h-.993l-.319.384-.319.385.096.475.097.476.594-.022.594-.022-.094.287-.094.286zm3.098.053h-.453l-.176-.176-.177-.176v-.368l.662.127.661.126V9.32h-.793v-.468l.595-.197.595-.196-.6-.118-.598-.118.152-.245.151-.246h.996l.164.265.163.264-.207.331-.208.33.08.48.078.478-.316.381-.317.381zm37.118-.053l-.531.079-.331-.399-.331-.399.177-.806.177-.807.49-.263.49-.262h.829v.529h-.993l-.32.384-.318.385.096.475.096.476.595-.022.594-.022-.094.287-.094.286zm3.29.053h-.791l.176-.992.175-.992.141-.478.141-.479.705.082.705.081.057 1.042.058 1.042-.288.347-.289.347zm.326-.529h.53V9.32h-1.06v.793zm.117-1.323h.38l.164-.264.164-.265h-1.09v.529zM9.906 9.85h-.381V9.32h1.09l-.164.264-.163.265zm40.217 0h-.381V9.32h1.089l-.163.264-.164.265zM30.516 2.916l-.532.08-.331-.4-.331-.399.177-.806.177-.807.49-.262.49-.263h.829v.529h-.993l-.319.384-.319.385.096.475.097.476.594-.022.594-.022-.094.287-.094.286z" fill="#676767"/><path d="M28.651 61.112l-.29.727.15-.926.151-.926.198-.661.199-.662.023.596.022.595h.577l.46-.569.461-.57.707.178.706.177v1.578l-.53.529-.529.53h-1.048l-.166-.662-.166-.662h-.634l-.29.728zm1.876.066h.63l.318-.384.319-.384-.091-.473-.091-.473-.473-.09-.473-.092-.384.32-.384.318v1.258zm-24.1-7.21l-.29.728.15-.926.15-.926.198-.662.199-.661.022.595.023.595h.577l.46-.569.461-.569.707.177.706.178v1.578l-.53.528-.529.53H7.683l-.166-.662-.166-.662h-.634zm1.875.066h.63l.318-.384.319-.384-.091-.473-.091-.473-.473-.09-.473-.092-.384.32-.384.318v1.258zm4.101.53h-.497v-.53H12.965v-.794h-.794v-.529H13.23v-.529l-.596-.004-.595-.004.396-.256.397-.257.317-.004.317-.004-.032 1.125-.03 1.124-.252.33-.252.332h-.497zm34.77-.596l-.291.728.15-.926.15-.926.2-.662.198-.661.022.595.023.595h.577l.46-.569.461-.569.706.177.706.178v1.577l-.529.53-.529.528H48.43l-.166-.661-.166-.662h-.634l-.29.728zm1.875.066h.629l.319-.384.319-.384-.091-.473-.091-.473-.473-.09-.473-.092-.384.32-.384.318v1.258zm3.982.53h-.642v-.24l.29-1.35.29-1.351.7.08.7.082.063.53.064.529-.15-.331-.15-.33h-.983l-.163.264-.164.264h.984l.318.318.317.317v.386l-.416.416-.415.415zm.351-.579l.726-.083v-.529l-.561-.08-.562-.08-.164.428-.165.428zm-42.665-.215h-.397v-.53h.794v.53zm40.746 0h-.397v-.53h.793v.53zm-33.36-13.25l-.507-.021.347-.14.347-.138.16.16.16.16-.507-.022zm1.323 0l-.507-.021.347-.14.347-.138.16.16.16.16-.507-.022zm.551-1.038h-.132v-.265h.264v.265zm-1.543-.353l-.177.177V38.6l.177.176.176.177zm1.41-.176h-.352l.176-.177.177-.176.176.176.177.177zm6.451-2.505l-2.942 1.913-5.977-3.474-5.978-3.475-.007-.132-.007-.132 5.986-3.015 5.986-3.015 3.184-2.104 3.185-2.104.316-.121.317-.122 3.683 1.536 3.684 1.536 4.528 3.837 4.528 3.836-.437.084-.437.083-6.191 1.315-6.191 1.314-.16.1-.16.098-1.385-.251-1.383-.252-.6.316-.599.316-2.942 1.913zm-2.992 1.179l.416.003 3.191-2.087 3.191-2.087 1.152.21 1.152.211.95-.094.951-.095 5.535-1.225 5.534-1.226.118-.117.117-.118-.381-.344-.381-.344-3.476-2.953-3.476-2.952-1.287-.642-1.286-.642-2.367-.95-2.366-.95h-.727l-3.09 2.086-3.092 2.085-5.637 2.83-5.638 2.83.093.279.093.278 5.148 3.005 5.147 3.005zm24.588-3.743h-.662l.33-.133.332-.134.33.134.331.133zm1.323.042h-.353l.176-.177.177-.176.176.176.176.177zM.76 32.603H.265v-.529h1.058v-.794H.529v-.529H1.588v-.529l-.596-.004-.595-.004.397-.257.397-.256.316-.004.317-.004-.031 1.124-.032 1.125-.251.33-.252.331H.761zm58.09 0h-.643v-.239l.29-1.35.29-1.352.7.081.7.082.064.529.064.53-.15-.332-.15-.33h-.983l-.163.264-.164.265h.984l.317.317.318.318v.385l-.416.416-.416.416zm.351-.578l.726-.084v-.529l-.561-.08-.562-.08-.164.428-.165.429zm-11.048.313h-.353l.177-.176.176-.176.177.176.176.176zm1.455 0h-.132v-.264h.265v.264zM7.144 30.18h-.662l.331-.134.33-.133.332.133.33.134zm1.323.042h-.353l.176-.177.177-.176.176.176.176.177zm.264-.794H8.38l.176-.176.176-.177.177.177.176.176zm.413-.53h-.117l-.189-.305-.188-.305.305.189.305.188v.234zm-1.736-.264h-.352l.176-.176.176-.177.177.177.176.176zm32.919-4.519l-.507-.02.347-.14.347-.138.16.16.16.16zm1.213.021h-.353l.176-.176.177-.177.176.177.176.176zm.264-.793h-.353l.177-.177.176-.176.177.176.176.177zm-18.675-.286l-.507-.02.347-.14.347-.139.16.16.16.16zm1.323 0l-.507-.02.347-.14.347-.139.16.16.16.16zm17.765-.244H42.1l-.189-.305-.189-.306.306.19.305.188v.233zm-18.774-.865l-.16.16.021-.507.021-.507.14.347.138.347zm8.417-3.653l-.507-.021.347-.14.348-.138.16.16.16.16zm1.213.02h-.353l.177-.176.176-.176.176.176.177.176zm.265-.793h-.353l.176-.177.177-.176.176.176.176.177zm.412-.53h-.117l-.188-.305-.19-.305.306.188.306.19v.233zm-25.686-6.35h-.372l-.274-.511-.274-.512.237-.624.237-.623.42-.35.422-.35.466.204.467.203-.53.12-.529.12-.33.268-.331.268v1.258h1.09l-.164.265-.164.265zm3.28 0h-.496v-.529h1.058V9.32h-.793v-.53h1.058v-.529l-.595-.004-.596-.004.397-.256.397-.257.317-.004.316-.004-.03 1.125-.032 1.124-.252.331-.251.33zm36.936 0h-.372l-.274-.511-.274-.512.237-.624.238-.623.42-.35.422-.35.466.204.466.203-.529.12-.529.12-.33.268-.331.268v1.258h1.089l-.163.265-.164.265zm3.427 0h-.642v-.238l.29-1.351.29-1.351.7.081.7.081.063.53.064.529-.15-.331-.15-.33h-.982l-.164.264-.164.264h.984l.318.318.317.317v.386l-.416.416-.415.416zm.351-.577l.726-.084v-.529l-.561-.08-.562-.08-.164.428-.165.428zM9.922 9.849h-.397V9.32h.794v.529zm40.217 0h-.397V9.32h.793v.529zm-19.85-6.88h-.372l-.274-.511-.274-.512.237-.624.237-.623.42-.35.422-.349.466.203.467.203-.53.12-.529.12-.33.268-.331.268V2.44h1.09l-.164.265-.164.265z" fill="#fc0b0b"/><path d="M28.651 61.112l-.29.727.15-.926.151-.926.198-.661.199-.662.023.596.022.595h.577l.46-.569.461-.57.707.178.706.177v1.578l-.53.529-.529.53h-1.048l-.166-.662-.166-.662h-.634l-.29.728zm1.876.066h.63l.318-.384.319-.384-.091-.473-.091-.473-.473-.09-.473-.092-.384.32-.384.318v1.258zm-24.1-7.21l-.29.728.15-.926.15-.926.198-.662.199-.661.022.595.023.595h.577l.46-.569.461-.569.707.177.706.178v1.578l-.53.528-.529.53H7.683l-.166-.662-.166-.662h-.634zm1.875.066h.63l.318-.384.319-.384-.091-.473-.091-.473-.473-.09-.473-.092-.384.32-.384.318v1.258zm4.101.53h-.497v-.53H12.965v-.794h-.794v-.529H13.23v-.529l-.596-.004-.595-.004.396-.256.397-.257.317-.004.317-.004-.032 1.125-.03 1.124-.252.33-.252.332h-.497zm34.77-.596l-.291.728.15-.926.15-.926.2-.662.198-.661.022.595.023.595h.577l.46-.569.461-.569.706.177.706.178v1.577l-.529.53-.529.528H48.43l-.166-.661-.166-.662h-.634l-.29.728zm1.875.066h.629l.319-.384.319-.384-.091-.473-.091-.473-.473-.09-.473-.092-.384.32-.384.318v1.258zm3.982.53h-.642v-.24l.29-1.35.29-1.351.7.08.7.082.063.53.064.529-.15-.331-.15-.33h-.983l-.163.264-.164.264h.984l.318.318.317.317v.386l-.416.416-.415.415zm.351-.579l.726-.083v-.529l-.561-.08-.562-.08-.164.428-.165.428zm-42.665-.215h-.397v-.53h.794v.53zm40.746 0h-.397v-.53h.793v.53zm-33.36-13.25l-.507-.021.347-.14.347-.138.16.16.16.16-.507-.022zm1.323 0l-.507-.021.347-.14.347-.138.16.16.16.16-.507-.022zm.551-1.038h-.132v-.265h.264v.265zm-1.543-.353l-.177.177V38.6l.177.176.176.177zm1.41-.176h-.352l.176-.177.177-.176.176.176.177.177zm28.047-5.069h-.662l.33-.133.332-.134.33.134.331.133zm1.323.042h-.353l.176-.177.177-.176.176.176.176.177zM.76 32.603H.265v-.529h1.058v-.794H.529v-.529H1.588v-.529l-.596-.004-.595-.004.397-.257.397-.256.316-.004.317-.004-.031 1.124-.032 1.125-.251.33-.252.331H.761zm58.09 0h-.643v-.239l.29-1.35.29-1.352.7.081.7.082.064.529.064.53-.15-.332-.15-.33h-.983l-.163.264-.164.265h.984l.317.317.318.318v.385l-.416.416-.416.416zm.351-.578l.726-.084v-.529l-.561-.08-.562-.08-.164.428-.165.429zm-11.048.313h-.353l.177-.176.176-.176.177.176.176.176zm1.455 0h-.132v-.264h.265v.264zM7.144 30.18h-.662l.331-.134.33-.133.332.133.33.134zm1.323.042h-.353l.176-.177.177-.176.176.176.176.177zm.264-.794H8.38l.176-.176.176-.177.177.177.176.176zm.413-.53h-.117l-.189-.305-.188-.305.305.189.305.188v.234zm-1.736-.264h-.352l.176-.176.176-.177.177.177.176.176zm32.919-4.519l-.507-.02.347-.14.347-.138.16.16.16.16zm1.213.021h-.353l.176-.176.177-.177.176.177.176.176zm.264-.793h-.353l.177-.177.176-.176.177.176.176.177zm-18.675-.286l-.507-.02.347-.14.347-.139.16.16.16.16zm1.323 0l-.507-.02.347-.14.347-.139.16.16.16.16zm17.765-.244H42.1l-.189-.305-.189-.306.306.19.305.188v.233zm-18.774-.865l-.16.16.021-.507.021-.507.14.347.138.347zm8.417-3.653l-.507-.021.347-.14.348-.138.16.16.16.16zm1.213.02h-.353l.177-.176.176-.176.176.176.177.176zm.265-.793h-.353l.176-.177.177-.176.176.176.176.177zm.412-.53h-.117l-.188-.305-.19-.305.306.188.306.19v.233zm-25.686-6.35h-.372l-.274-.511-.274-.512.237-.624.237-.623.42-.35.422-.35.466.204.467.203-.53.12-.529.12-.33.268-.331.268v1.258h1.09l-.164.265-.164.265zm3.28 0h-.496v-.529h1.058V9.32h-.793v-.53h1.058v-.529l-.595-.004-.596-.004.397-.256.397-.257.317-.004.316-.004-.03 1.125-.032 1.124-.252.331-.251.33zm36.936 0h-.372l-.274-.511-.274-.512.237-.624.238-.623.42-.35.422-.35.466.204.466.203-.529.12-.529.12-.33.268-.331.268v1.258h1.089l-.163.265-.164.265zm3.427 0h-.642v-.238l.29-1.351.29-1.351.7.081.7.081.063.53.064.529-.15-.331-.15-.33h-.982l-.164.264-.164.264h.984l.318.318.317.317v.386l-.416.416-.415.416zm.351-.577l.726-.084v-.529l-.561-.08-.562-.08-.164.428-.165.428zM9.922 9.849h-.397V9.32h.794v.529zm40.217 0h-.397V9.32h.793v.529zm-19.85-6.88h-.372l-.274-.511-.274-.512.237-.624.237-.623.42-.35.422-.349.466.203.467.203-.53.12-.529.12-.33.268-.331.268V2.44h1.09l-.164.265-.164.265z" fill="#080808"/></svg>