<svg xmlns="http://www.w3.org/2000/svg" width="510.517" height="129.609" viewBox="0 0 135.07433 34.292252"><defs><filter id="a" x="-.074" width="1.148" y="-.191" height="1.382" color-interpolation-filters="sRGB"><feGaussianBlur stdDeviation=".436"/></filter></defs><g transform="translate(-8.518 -91.863)"><path d="M39.534 113.56c-.593.025-.631.185-.631.588 0 1.156-1.047 3.343-1.556 3.252-.257-.046-.747-.672-1.089-1.39-.342-.72-.784-1.375-.983-1.458-.633-.264-2.715.523-3.772 1.425-.562.48-1.183.872-1.38.872-.453 0-1.798 1.249-1.798 1.668 0 .173-.278.61-.618.972-.616.656-.616.662.134 3.091.473 1.535.645 2.46.45 3.139a17.808 17.273 0 0 0 13.361-12.054c-.112-.01-.228-.021-.338-.028-.868-.058-1.424-.092-1.78-.077z" fill="#5f7189"/><path d="M16.844 112.184c-1.665-1.649-4.306-5.723-4.082-6.298.346-.889 1.721-.908 2.379-.032.273.363.953 1.154 1.511 1.757.796.861 1.01 1.508.993 3.012-.012 1.054-.084 1.948-.16 1.988-.075.04-.363-.152-.64-.427z" fill="#606f82"/><ellipse cx="15.179" cy="108.014" rx="2.145" ry="1.98" fill="#8fb82b" stroke="#fefefe" stroke-width=".757" stroke-linejoin="round"/><path transform="matrix(.85925 0 0 .85925 33.473 -21.872)" opacity=".639" fill="#666" filter="url(#a)" d="M-17.229 160.374h14.098v5.479h-14.098z"/><g fill="#fff"><path opacity=".639" d="M17.428 115.19h12.75v4.954h-12.75z"/><path d="M28.133 116.514a.494.494 0 0 0-.467.287c-.1.19-.15.486-.15.887 0 .397.05.692.148.883a.494.494 0 0 0 .47.288c.21 0 .365-.094.465-.283.1-.19.151-.487.151-.891 0-.393-.05-.686-.148-.88a.49.49 0 0 0-.469-.291zm-1.305.003a.759.759 0 0 0-.388.097.76.76 0 0 0-.271.266c-.075.12-.129.258-.163.412-.034.154-.05.331-.05.531 0 .195.018.361.054.5.038.137.091.248.16.332a.552.552 0 0 0 .19.153.549.549 0 0 0 .24.051c.173 0 .319-.072.438-.216a.853.853 0 0 0 .18-.561.96.96 0 0 0-.054-.342.569.569 0 0 0-.337-.34.664.664 0 0 0-.2-.026.585.585 0 0 0-.226.04.86.86 0 0 0-.198.117c.017-.23.077-.414.179-.55a.487.487 0 0 1 .41-.203c.047 0 .093.006.138.02a.37.37 0 0 1 .102.043h.012v-.289a.456.456 0 0 0-.097-.027.736.736 0 0 0-.119-.007zm-1.85.035a.365.365 0 0 1-.037.157.272.272 0 0 1-.086.096.355.355 0 0 1-.13.047.942.942 0 0 1-.162.015v.206h.371v1.51h-.371v.23h.965v-.23h-.364v-2.03zm-5.475.007l-.65 2.253h.241l.175-.628h.771l.175.628h.253l-.65-2.253zm8.63.205c.076 0 .138.02.186.059.049.039.087.098.115.175.029.079.048.175.057.288.01.113.016.246.016.4 0 .154-.005.288-.016.398-.01.11-.028.206-.056.288a.375.375 0 0 1-.115.178.29.29 0 0 1-.187.06.287.287 0 0 1-.192-.063.4.4 0 0 1-.112-.18 1.175 1.175 0 0 1-.056-.284 4.92 4.92 0 0 1-.013-.395c0-.143.005-.275.014-.395.01-.12.03-.217.056-.292a.395.395 0 0 1 .117-.178.29.29 0 0 1 .186-.06zm-8.478.057l.312 1.106h-.626zm2 .566v.242h1.42v-.242zm4.916.234a.66.66 0 0 1 .14.016c.045.01.085.03.122.063.05.045.086.099.108.16a.69.69 0 0 1 .033.233c0 .168-.033.296-.099.386a.322.322 0 0 1-.273.133.326.326 0 0 1-.14-.03.372.372 0 0 1-.119-.098.58.58 0 0 1-.107-.218 2.073 2.073 0 0 1-.034-.52.752.752 0 0 1 .18-.094.575.575 0 0 1 .189-.03zm-4.917.401v.242h1.42v-.242z" style="line-height:1.25" font-weight="400" font-size="7.761" font-family="sans-serif" letter-spacing="0" word-spacing="0"/><path opacity=".629" d="M17.428 115.19h12.75v4.954h-12.75z"/></g><path opacity=".639" fill="#fff" stroke="#090909" stroke-width=".27041859" stroke-linecap="round" stroke-linejoin="round" d="M17.428 115.19h12.75v4.954h-12.75z"/><path style="line-height:1.25" d="M28.133 116.514a.494.494 0 0 0-.467.287c-.1.19-.15.486-.15.887 0 .397.05.692.148.883a.494.494 0 0 0 .47.288c.21 0 .365-.094.465-.283.1-.19.151-.487.151-.891 0-.393-.05-.686-.148-.88a.49.49 0 0 0-.469-.291zm-1.305.003a.759.759 0 0 0-.388.097.76.76 0 0 0-.271.266c-.075.12-.129.258-.163.412-.034.154-.05.331-.05.531 0 .195.018.361.054.5.038.137.091.248.16.332a.552.552 0 0 0 .19.153.549.549 0 0 0 .24.051c.173 0 .319-.072.438-.216a.853.853 0 0 0 .18-.561.96.96 0 0 0-.054-.342.569.569 0 0 0-.337-.34.664.664 0 0 0-.2-.026.585.585 0 0 0-.226.04.86.86 0 0 0-.198.117c.017-.23.077-.414.179-.55a.487.487 0 0 1 .41-.203c.047 0 .093.006.138.02a.37.37 0 0 1 .102.043h.012v-.289a.456.456 0 0 0-.097-.027.736.736 0 0 0-.119-.007zm-1.85.035a.365.365 0 0 1-.037.157.272.272 0 0 1-.086.096.355.355 0 0 1-.13.047.942.942 0 0 1-.162.015v.206h.371v1.51h-.371v.23h.965v-.23h-.364v-2.03zm-5.475.007l-.65 2.253h.241l.175-.628h.771l.175.628h.253l-.65-2.253zm8.63.205c.076 0 .138.02.186.059.049.039.087.098.115.175.029.079.048.175.057.288.01.113.016.246.016.4 0 .154-.005.288-.016.398-.01.11-.028.206-.056.288a.375.375 0 0 1-.115.178.29.29 0 0 1-.187.06.287.287 0 0 1-.192-.063.4.4 0 0 1-.112-.18 1.175 1.175 0 0 1-.056-.284 4.92 4.92 0 0 1-.013-.395c0-.143.005-.275.014-.395.01-.12.03-.217.056-.292a.395.395 0 0 1 .117-.178.29.29 0 0 1 .186-.06zm-8.478.057l.312 1.106h-.626zm2 .566v.242h1.42v-.242zm4.916.234a.66.66 0 0 1 .14.016c.045.01.085.03.122.063.05.045.086.099.108.16a.69.69 0 0 1 .033.233c0 .168-.033.296-.099.386a.322.322 0 0 1-.273.133.326.326 0 0 1-.14-.03.372.372 0 0 1-.119-.098.58.58 0 0 1-.107-.218 2.073 2.073 0 0 1-.034-.52.752.752 0 0 1 .18-.094.575.575 0 0 1 .189-.03zm-4.917.401v.242h1.42v-.242z" font-weight="400" font-size="7.761" font-family="sans-serif" letter-spacing="0" word-spacing="0" fill="#646464"/><path opacity=".629" fill="none" d="M17.428 115.19h12.75v4.954h-12.75z"/><path d="M16.602 101.426c-.12 0-.22.028-.301.084a.563.563 0 0 0-.188.223 2.501 2.501 0 0 0-.14.423c-.04.161-.083.27-.127.327a.27.27 0 0 1-.145.103 2.066 2.066 0 0 1-.338.016v-.752c0-.127.02-.212.061-.257.042-.046.125-.068.25-.068h.042v-.07h-1.312v.07h.054c.127 0 .21.025.245.076.036.05.054.15.054.297v1.685c0 .133-.023.22-.069.26-.044.04-.14.061-.284.064v.069h1.312v-.07c-.135 0-.228-.016-.279-.05-.05-.033-.074-.11-.074-.232v-.853c.085.004.142.018.169.041a.773.773 0 0 1 .132.197l.518.967h.844v-.07a.394.394 0 0 1-.2-.047.423.423 0 0 1-.142-.153l-.256-.457a6.224 6.224 0 0 0-.223-.39.5.5 0 0 0-.117-.127.501.501 0 0 0-.183-.078.547.547 0 0 0 .138-.2c.032-.08.07-.201.115-.36.046-.164.089-.278.128-.34.04-.064.088-.096.143-.096.052 0 .081.041.086.123.011.163.087.245.228.245a.256.256 0 0 0 .18-.066.236.236 0 0 0 .073-.183c0-.099-.036-.182-.108-.249a.398.398 0 0 0-.286-.102zm1.431.76c-.136 0-.268.022-.394.065a.664.664 0 0 0-.295.188.383.383 0 0 0-.106.254c0 .064.026.119.078.166.053.047.119.07.197.07a.246.246 0 0 0 .176-.063.207.207 0 0 0 .07-.156c0-.05-.024-.101-.072-.154-.034-.039-.052-.07-.052-.097 0-.03.017-.056.049-.078a.343.343 0 0 1 .199-.054c.05 0 .094.013.133.04.04.024.067.054.08.088a.805.805 0 0 1 .023.248v.174c-.383.176-.632.317-.746.424a.476.476 0 0 0-.17.357.334.334 0 0 0 .345.342c.168 0 .359-.094.57-.28a.32.32 0 0 0 .103.21.356.356 0 0 0 .232.07c.084 0 .16-.02.225-.062a.683.683 0 0 0 .193-.2l-.056-.045c-.033.046-.066.07-.098.07a.066.066 0 0 1-.043-.016.09.09 0 0 1-.028-.044.715.715 0 0 1-.009-.15v-.675c0-.188-.009-.307-.026-.36a.486.486 0 0 0-.188-.226.642.642 0 0 0-.39-.106zm14.857 0a.536.536 0 0 0-.295.087.664.664 0 0 0-.186.194v-.229h-.728v.069c.081.005.137.025.165.06.029.033.043.11.043.233v1.835c0 .118-.013.192-.038.22-.037.041-.094.063-.17.066v.069h.99v-.07a.446.446 0 0 1-.175-.021.143.143 0 0 1-.066-.071.538.538 0 0 1-.02-.182v-.647a.704.704 0 0 0 .194.165.603.603 0 0 0 .624-.05.706.706 0 0 0 .246-.332 1.32 1.32 0 0 0 .085-.484c0-.163-.027-.316-.081-.457a.744.744 0 0 0-.24-.334.554.554 0 0 0-.348-.121zm1.838 0c-.136 0-.268.022-.394.065a.664.664 0 0 0-.295.188.382.382 0 0 0-.106.254c0 .064.026.119.078.166.053.047.119.07.197.07a.246.246 0 0 0 .176-.063.207.207 0 0 0 .07-.156c0-.05-.024-.101-.071-.154-.035-.039-.053-.07-.053-.097 0-.03.017-.056.049-.078a.343.343 0 0 1 .199-.054c.05 0 .094.013.133.04.04.024.067.054.08.088a.805.805 0 0 1 .023.248v.174c-.383.176-.632.317-.746.424a.476.476 0 0 0-.17.357.334.334 0 0 0 .345.342c.169 0 .359-.094.57-.28a.32.32 0 0 0 .103.21.356.356 0 0 0 .232.07c.085 0 .16-.02.225-.062a.683.683 0 0 0 .193-.2l-.056-.045c-.033.046-.066.07-.098.07a.066.066 0 0 1-.043-.016.09.09 0 0 1-.028-.044.715.715 0 0 1-.009-.15v-.675c0-.188-.009-.307-.026-.36a.485.485 0 0 0-.187-.226.643.643 0 0 0-.391-.106zm-15.292.052v.069c.076.004.129.026.16.069.03.042.047.12.047.234v.505c0 .278-.015.462-.045.552-.03.09-.072.136-.127.136-.028 0-.042-.037-.042-.11 0-.16-.067-.241-.2-.241a.222.222 0 0 0-.17.072.261.261 0 0 0-.065.184c0 .078.03.148.09.208s.14.09.239.09a.42.42 0 0 0 .407-.324c.027-.104.04-.293.04-.567v-.76h.491v1.31c0 .102-.02.168-.061.197a.265.265 0 0 1-.153.045v.069h.92v-.07c-.072-.001-.12-.022-.146-.06a.352.352 0 0 1-.04-.188v-1.117c0-.154.062-.232.186-.234v-.069zm1.799 0v.069c.13 0 .195.086.195.26v1.072c0 .1-.015.169-.045.208-.03.04-.08.06-.15.06v.069h.884v-.07c-.111-.003-.167-.086-.168-.248l.498-.851v.85c0 .167-.057.25-.168.25v.069h.885v-.07c-.073 0-.125-.017-.154-.051-.029-.035-.043-.104-.043-.207v-1.105c0-.092.016-.154.048-.186.032-.033.082-.05.149-.05v-.069h-.885v.069c.058 0 .1.017.127.053.026.036.04.1.04.192l-.497.862v-.847c0-.102.011-.17.035-.204.024-.035.069-.054.133-.056v-.069zm2.193 0v.069c.073 0 .124.017.152.053.029.035.043.107.043.216v1.067c0 .103-.015.173-.044.21-.029.036-.08.054-.151.054v.069h.884v-.07c-.061 0-.106-.015-.132-.047-.024-.034-.037-.106-.037-.216v-.51h.498v.523c0 .11-.012.18-.037.208-.025.027-.068.041-.13.043v.069h.883v-.07c-.073-.001-.124-.019-.153-.051-.028-.032-.042-.103-.042-.212v-1.106c0-.083.014-.142.042-.176.03-.036.081-.054.153-.054v-.069h-.883v.069c.074 0 .12.02.14.061.018.04.027.103.027.19v.459h-.498v-.46c0-.105.013-.172.037-.202.026-.03.07-.046.132-.048v-.069zm2.192 0v.069c.13 0 .196.086.196.26v1.072c0 .1-.015.169-.045.208-.03.04-.08.06-.15.06v.069h.884v-.07c-.111-.003-.168-.086-.169-.248l.498-.851v.85c0 .167-.056.25-.167.25v.069h.884v-.07c-.073 0-.124-.017-.154-.051-.028-.035-.043-.104-.043-.207v-1.105c0-.092.016-.154.049-.186.032-.033.081-.05.148-.05v-.069h-.884v.069c.058 0 .1.017.126.053.026.036.04.1.041.192l-.498.862v-.847c0-.102.012-.17.036-.204.024-.035.069-.054.133-.056v-.069zm2.194 0v.069c.073 0 .123.017.152.053.028.035.043.107.043.216v1.067c0 .103-.015.173-.045.21-.029.036-.079.054-.15.054v.069h.884v-.07c-.062 0-.106-.015-.132-.047-.025-.034-.037-.106-.037-.216v-.51h.498v.523c0 .11-.013.18-.037.208-.025.027-.068.041-.13.043v.069h.882v-.07c-.073-.001-.124-.019-.152-.051-.029-.032-.043-.103-.043-.212v-1.106c0-.083.014-.142.043-.176.03-.036.08-.054.152-.054v-.069h-.882v.069c.074 0 .12.02.14.061.018.04.027.103.027.19v.459h-.498v-.46c0-.105.012-.172.037-.202.026-.03.07-.046.132-.048v-.069zm2.196 0v.069c.076.006.126.026.152.061.027.033.041.094.041.182v1.104c0 .098-.014.164-.043.197-.028.032-.078.05-.15.055v.07h.93v-.07c-.088-.002-.145-.02-.174-.057-.028-.036-.042-.097-.042-.184v-1.31h.343c.14 0 .235.02.284.063.05.04.09.132.118.273h.068v-.453zm5.896 0v.069a.308.308 0 0 1 .138.024c.026.015.046.046.06.093.013.046.02.114.02.206 0 .304-.044.59-.132.857-.087.267-.208.407-.362.42v.526h.068c.036-.305.226-.457.57-.457h.504c.357 0 .55.152.578.457h.07v-.526c-.068-.002-.117-.019-.148-.048-.03-.031-.044-.097-.044-.198v-1.124c0-.07.01-.125.033-.167.024-.042.076-.063.158-.063v-.069zm.344.117h.459v1.284c0 .148-.06.221-.18.221h-.572c.195-.287.293-.698.293-1.232zm-3.533.058c.08 0 .143.036.19.11.07.11.106.315.106.614 0 .293-.032.49-.097.595-.043.07-.098.106-.165.106-.122 0-.235-.076-.342-.227v-.927c.08-.181.183-.271.308-.271zm-14.598.589v.581c-.082.07-.154.105-.216.105a.168.168 0 0 1-.13-.05.212.212 0 0 1-.061-.151c0-.068.024-.136.072-.203.073-.1.185-.194.335-.282zm16.695 0v.581c-.082.07-.154.105-.216.105a.168.168 0 0 1-.13-.05.212.212 0 0 1-.061-.151c0-.068.024-.136.072-.203.073-.1.185-.194.335-.282z" style="line-height:1.25;-inkscape-font-specification:'Times New Roman, Bold';font-variant-ligatures:normal;font-variant-caps:normal;font-variant-numeric:normal;font-feature-settings:normal;text-align:start" font-weight="700" font-size="4.708" font-family="Times New Roman" letter-spacing="0" word-spacing="0"/><g><path d="M14.972 114.183c0-.144-.004-.335-.01-.426l-.01-.165-.133-.004-.134-.004-.004-.236c-.002-.129 0-.256.004-.283l.009-.047h.278v.573h.28v.556l.209.01c.115.005.63.007 1.143.005l.934-.005.004-.283.004-.283h.294v-.868h.279v-2h-.28v-.131c0-.08-.006-.135-.016-.142a.711.711 0 0 0-.24-.015l-.038.01v.852h-.279v-1.148l-.29.004-.29.004-.005.422-.004.42-.064.006a1.151 1.151 0 0 1-.14 0l-.075-.005v-1.129h-.573v1.128l-.075.01a.604.604 0 0 1-.14 0l-.064-.01V108.445h.279v1.129l.287.01.286.011v.277h.853v.084c0 .047.005.11.01.14l.009.055h.555v.114c0 .187-.005.18.156.18h.138v.28h.275l.007.547c.004.302.004.751 0 1l-.006.452h-.061c-.033 0-.095.005-.138.01l-.077.01v.848h-.28v.239c0 .131-.004.323-.01.426l-.009.188h-2.848v-.261zm-.577-1.449l-.004-.283-.143-.004-.143-.004-.004-.283-.004-.282-.136-.004-.136-.005v-.274l.046-.01a.948.948 0 0 1 .14-.009h.093v.294h.294v.574h.28v.574h-.279zm-.802-1.154l-.063-.005.004-.422.004-.422h.853l.004.134.005.133-.113.01c-.063.005-.192.01-.288.01h-.174v.555l-.046.009a.555.555 0 0 1-.186-.002zm1.085-.143v-.14h-.28v-.277l.14-.01.14-.01v-2.556h.294v3.132h-.294zm.294-3.147v-.14h.555l.01.055c.004.03.008.093.008.14v.084h-.573z"/><path d="M15.278 114.13c-.01-.012-.02-.139-.02-.283v-.262h-.265l-.008-.29-.009-.29-.14-.009-.142-.009v-.561h-.265l-.009-.275-.008-.275-.141-.009-.141-.009v-.294h-.297v-.53l.282-.01.282-.01v.283h.267v.297h.327v-3.149h.534l.008 1.285.008 1.285h.297l.008-.572.008-.572h.532l.008.572.008.572h.268l.008-.424.008-.423h.563v1.129h.296l.008-.423c.009-.46.013-.47.189-.426.062.016.072.035.072.151v.134h.297v1.99h-.297v.862h-.13c-.16 0-.167.015-.167.329v.235h-1.11c-.61 0-1.118-.009-1.129-.02z" fill="#fff"/></g><ellipse ry="16.313" rx="16.818" cy="109.009" cx="26.17" fill="none" stroke="#5f7189" stroke-width="1.667" stroke-linecap="round" stroke-linejoin="round"/></g><path style="line-height:1.25;-inkscape-font-specification:'Times New Roman, Normal';font-variant-ligatures:normal;font-variant-caps:normal;font-variant-numeric:normal;font-feature-settings:normal;text-align:center" d="M98.36.437l-.743.312.041.09a.5.5 0 0 1 .198-.046c.074 0 .125.032.154.096.03.064.045.215.045.45v.683c-.14-.176-.306-.265-.5-.265-.26 0-.471.134-.633.4a1.714 1.714 0 0 0-.243.912c0 .38.085.703.254.968.169.264.381.397.637.397.185 0 .347-.081.485-.243v.78c0 .222-.028.36-.083.41-.053.054-.172.08-.355.08v.103h1.358V5.46c-.176 0-.292-.01-.347-.033a.192.192 0 0 1-.116-.107c-.02-.05-.03-.166-.03-.35v-.78c.143.162.306.243.488.243.246 0 .455-.132.628-.395.173-.264.26-.578.26-.942 0-.371-.086-.687-.257-.948-.169-.26-.372-.392-.61-.392-.172 0-.342.077-.51.232V.437zm3.627 0l-.744.312.042.09a.5.5 0 0 1 .198-.046c.074 0 .125.032.155.096.029.064.044.215.044.45v.683c-.14-.176-.306-.265-.5-.265-.26 0-.472.134-.633.4a1.713 1.713 0 0 0-.243.912c0 .38.085.703.254.968.17.264.381.397.637.397a.62.62 0 0 0 .485-.243v.78c0 .222-.028.36-.083.41-.053.054-.172.08-.356.08v.103h1.36V5.46c-.177 0-.293-.01-.348-.033a.192.192 0 0 1-.116-.107c-.02-.05-.03-.166-.03-.35v-.78c.143.162.306.243.488.243.246 0 .455-.132.628-.395.173-.264.259-.578.259-.942 0-.371-.085-.687-.256-.948-.17-.26-.372-.392-.61-.392-.172 0-.342.077-.51.232V.437zm24.747.097l-1.314 3.075c-.114.27-.218.45-.311.538-.046.044-.148.08-.304.107v.103h1.177v-.103c-.18-.013-.297-.04-.353-.082-.053-.044-.08-.095-.08-.152 0-.071.031-.18.094-.325l.254-.59h1.447l.225.537c.074.175.11.303.11.384a.19.19 0 0 1-.08.154c-.05.042-.15.067-.3.074v.103h1.475v-.103a.593.593 0 0 1-.358-.124c-.085-.075-.18-.238-.284-.488L126.83.534zm-79.9.085v.102c.196.008.325.022.388.044.064.022.12.077.165.163.046.086.069.221.069.405 0 .307-.036.7-.108 1.18-.071.478-.2.88-.386 1.21-.185.328-.426.506-.722.531v1.178h.094c.039-.265.156-.51.35-.736.197-.226.504-.34.92-.34h.954c.217 0 .403.028.557.083a.907.907 0 0 1 .416.334c.123.167.212.387.267.659h.094V4.254c-.251 0-.4-.047-.446-.14-.046-.096-.07-.344-.07-.744V1.3c0-.246.033-.403.097-.469.065-.066.213-.102.444-.11V.62zm.897.204h1.12v2.844c0 .237-.025.378-.075.422-.048.042-.195.064-.441.064h-1.383c.216-.252.39-.597.518-1.037.128-.439.215-1.203.261-2.293zm78.901.568l.635 1.51h-1.285zm-59.74.364c-.334 0-.613.121-.835.364-.22.24-.33.576-.33 1.008 0 .399.107.717.322.954.216.235.476.353.78.353a.9.9 0 0 0 .696-.309c.186-.208.298-.438.337-.69l-.085-.054c-.083.22-.186.376-.31.468a.701.701 0 0 1-.43.136c-.247 0-.463-.107-.647-.32-.184-.213-.275-.508-.273-.882h1.745c0-.313-.091-.562-.273-.747a.93.93 0 0 0-.697-.281zm5.302 0c-.334 0-.612.121-.835.364-.22.24-.33.576-.33 1.008 0 .399.107.717.322.954.217.235.477.353.78.353a.9.9 0 0 0 .698-.309c.185-.208.297-.438.335-.69l-.085-.054c-.083.22-.185.376-.308.468a.701.701 0 0 1-.43.136c-.248 0-.465-.107-.648-.32-.184-.213-.275-.508-.273-.882h1.744c0-.313-.09-.562-.272-.747a.93.93 0 0 0-.698-.281zm5.325 0c-.334 0-.613.121-.835.364-.22.24-.33.576-.33 1.008 0 .399.107.717.322.954.217.235.476.353.78.353a.9.9 0 0 0 .697-.309c.186-.208.298-.438.336-.69l-.085-.054c-.083.22-.186.376-.309.468a.701.701 0 0 1-.43.136c-.248 0-.464-.107-.648-.32-.183-.213-.274-.508-.272-.882h1.744c0-.313-.09-.562-.273-.747a.93.93 0 0 0-.697-.281zm36.645 0c-.334 0-.613.121-.835.364-.22.24-.33.576-.33 1.008 0 .399.107.717.322.954.216.235.476.353.78.353a.9.9 0 0 0 .697-.309c.186-.208.297-.438.336-.69l-.085-.054c-.083.22-.186.376-.309.468a.701.701 0 0 1-.43.136c-.248 0-.464-.107-.648-.32-.184-.213-.274-.508-.273-.882h1.745c0-.313-.091-.562-.273-.747a.93.93 0 0 0-.697-.281zm-55.902.002a1.156 1.156 0 0 0-1.05.673 1.527 1.527 0 0 0-.17.689c0 .318.094.604.284.86.224.303.526.455.906.455.233 0 .445-.059.634-.177.191-.117.34-.292.45-.524a1.61 1.61 0 0 0 .162-.686c0-.321-.099-.606-.295-.854a1.119 1.119 0 0 0-.92-.436zm6.116 0a.73.73 0 0 0-.416.136c-.13.088-.26.243-.391.465v-.59h-.105l-.777.315.033.088a.498.498 0 0 1 .168-.039.22.22 0 0 1 .13.034.185.185 0 0 1 .071.099c.015.044.022.147.022.31v2.388c0 .184-.01.297-.03.341a.192.192 0 0 1-.08.1.5.5 0 0 1-.26.057h-.068v.103h1.323V5.46c-.138 0-.233-.013-.287-.04a.242.242 0 0 1-.11-.114c-.02-.045-.03-.155-.03-.328V4.21a.826.826 0 0 0 .248.166c.099.038.217.058.353.058a.992.992 0 0 0 .777-.35c.25-.285.375-.645.375-1.08 0-.39-.104-.706-.312-.949a.798.798 0 0 0-.634-.298zm28.192 0a1.156 1.156 0 0 0-1.05.673c-.114.228-.17.457-.17.689 0 .318.094.604.283.86.224.303.527.455.907.455.233 0 .444-.059.634-.177.19-.117.34-.292.45-.524.108-.231.161-.46.161-.686 0-.321-.098-.606-.294-.854a1.12 1.12 0 0 0-.921-.436zm2.571 0a1.49 1.49 0 0 0-.426.08.948.948 0 0 1-.199.047.175.175 0 0 1-.116-.052h-.105v.785h.105a.866.866 0 0 1 .204-.485.547.547 0 0 1 .43-.195c.185 0 .341.089.466.267.125.176.205.416.24.72h-.819v.178h.838v.135c0 .366-.073.63-.218.789a.707.707 0 0 1-.543.237c-.314 0-.575-.148-.783-.444l-.093.055c.255.373.566.56.932.56.36 0 .653-.135.881-.403.228-.27.342-.593.342-.97 0-.386-.117-.7-.35-.94-.234-.242-.495-.364-.786-.364zm26.927 0c-.292 0-.518.066-.68.199-.162.132-.243.277-.243.435 0 .083.021.148.064.196.044.048.1.072.167.072.07 0 .127-.023.169-.07.044-.045.066-.11.066-.195l-.006-.16c0-.08.035-.152.105-.215a.391.391 0 0 1 .276-.093c.152 0 .268.047.347.14.08.094.121.266.121.518v.1c-.433.157-.744.292-.931.402-.186.11-.316.228-.392.353a.599.599 0 0 0-.082.32.66.66 0 0 0 .168.47c.114.12.258.18.432.18a.747.747 0 0 0 .318-.069c.066-.031.228-.147.487-.347.002.15.03.257.083.32a.268.268 0 0 0 .215.093c.187 0 .384-.138.59-.413v-.155c-.11.11-.185.177-.224.201a.15.15 0 0 1-.077.02.114.114 0 0 1-.074-.028c-.02-.018-.035-.054-.044-.107a4 4 0 0 1-.014-.444v-.857c0-.244-.016-.406-.05-.485a.52.52 0 0 0-.24-.268 1.181 1.181 0 0 0-.55-.113zm-31.102.045a.565.565 0 0 0-.265.066.525.525 0 0 0-.195.165 2.084 2.084 0 0 0-.177.394c-.077.206-.165.34-.264.405a.572.572 0 0 1-.4.089v-.497c0-.216.015-.34.044-.372a.453.453 0 0 1 .097-.082c.037-.022.131-.033.283-.033v-.105h-1.261v.105c.13 0 .216.014.258.044.043.027.074.06.094.096.02.035.03.15.03.347v1.34c0 .208-.022.342-.068.402-.046.06-.15.088-.314.088v.103h1.261v-.103a.823.823 0 0 1-.278-.033.203.203 0 0 1-.115-.107c-.02-.052-.03-.168-.03-.35v-.675c.047-.004.082-.006.104-.006.063 0 .11.02.146.06a.875.875 0 0 1 .121.18c.188.353.397.697.629 1.034h.744v-.103a.47.47 0 0 1-.317-.107c-.072-.068-.18-.23-.326-.485-.181-.32-.306-.514-.374-.582a.449.449 0 0 0-.185-.126c.083-.081.139-.145.168-.193.03-.05.076-.158.138-.326.055-.145.125-.217.21-.217.04 0 .099.014.176.041.06.022.111.033.152.033a.232.232 0 0 0 .176-.066.236.236 0 0 0 .063-.165.23.23 0 0 0-.088-.188.365.365 0 0 0-.237-.071zm-40.514.03v.105c.17.012.276.05.317.113.042.062.063.237.063.523v.557c0 .347-.02.59-.058.73-.037.138-.096.207-.179.207-.037 0-.09-.035-.163-.105a.255.255 0 0 0-.179-.08c-.06 0-.11.022-.149.064a.24.24 0 0 0-.054.163c0 .194.117.292.352.292a.593.593 0 0 0 .361-.116.582.582 0 0 0 .213-.361c.036-.164.054-.447.054-.849V2.011h.841v1.753c0 .185-.016.307-.047.364a.207.207 0 0 1-.13.105 1.291 1.291 0 0 1-.292.021v.103h1.307v-.103c-.129 0-.215-.013-.26-.041a.297.297 0 0 1-.093-.1c-.02-.038-.03-.154-.03-.35V2.425c0-.202.012-.32.036-.358a.287.287 0 0 1 .096-.09c.042-.026.126-.04.25-.04v-.104zm3.734 0c-.365 0-.624.063-.777.19a.561.561 0 0 0-.226.444c0 .303.211.528.634.675l-.59.832c-.097.138-.164.22-.2.246-.036.024-.1.035-.191.035v.103h.628l.805-1.141.088.002.113-.002v.548c0 .215-.026.35-.077.408-.052.055-.153.082-.306.082v.103h1.221v-.103a.523.523 0 0 1-.256-.05.219.219 0 0 1-.105-.123 1.42 1.42 0 0 1-.022-.317v-1.34c0-.167.008-.274.024-.322a.223.223 0 0 1 .105-.118.532.532 0 0 1 .254-.047v-.105zm5.614 0v.105c.13 0 .217.014.26.044.042.027.073.06.093.096.02.035.03.15.03.347v1.34c0 .208-.023.342-.068.402-.046.06-.151.088-.315.088v.103h1.221v-.103c-.128 0-.215-.013-.259-.041a.297.297 0 0 1-.093-.1c-.02-.038-.031-.154-.031-.35V2.012h1.091v1.753c0 .215-.025.35-.077.408-.051.055-.153.082-.305.082v.103h1.22v-.103c-.128 0-.215-.013-.259-.041a.297.297 0 0 1-.093-.1c-.02-.038-.03-.154-.03-.35V2.425c0-.202.011-.32.035-.358a.28.28 0 0 1 .1-.09c.042-.026.125-.04.248-.04v-.104zm8.663 0v.105c.285.009.427.171.427.487 0 .322-.047.65-.14.982-.095.332-.203.556-.326.67a.626.626 0 0 1-.41.178v.802h.102a.916.916 0 0 1 .137-.421.548.548 0 0 1 .287-.226c.114-.035.272-.052.474-.052h.65c.234 0 .41.022.53.068.119.046.212.125.278.238a.823.823 0 0 1 .113.393h.105v-.802c-.166-.005-.271-.037-.317-.096-.044-.06-.066-.222-.066-.485V2.424c0-.202.011-.32.035-.358a.287.287 0 0 1 .097-.09c.042-.026.126-.04.25-.04v-.104zm5.294 0v.105c.171.012.276.05.317.113.042.062.063.237.063.523v.557c0 .347-.019.59-.057.73-.037.138-.097.207-.18.207-.036 0-.09-.035-.162-.105a.255.255 0 0 0-.18-.08c-.06 0-.11.022-.148.064a.24.24 0 0 0-.055.163c0 .194.117.292.353.292a.593.593 0 0 0 .36-.116.581.581 0 0 0 .213-.361c.036-.164.055-.447.055-.849V2.011h.84v1.753c0 .185-.015.307-.046.364a.208.208 0 0 1-.13.105c-.053.014-.15.021-.292.021v.103h1.306v-.103c-.128 0-.214-.013-.259-.041a.299.299 0 0 1-.094-.1c-.02-.038-.03-.154-.03-.35V2.425c0-.202.012-.32.036-.358a.287.287 0 0 1 .097-.09c.042-.026.125-.04.25-.04v-.104zm5.016 0v.105c.122 0 .209.015.262.047a.198.198 0 0 1 .1.124c.014.051.021.157.021.316v1.34c0 .208-.023.342-.068.402-.046.06-.151.088-.315.088v.103h1.221v-.103a.543.543 0 0 1-.262-.046.22.22 0 0 1-.102-.127 1.626 1.626 0 0 1-.019-.317v-.626h1.091v.626c0 .215-.025.35-.077.408-.051.055-.153.082-.305.082v.103h1.22v-.103a.543.543 0 0 1-.261-.046.22.22 0 0 1-.103-.127 1.626 1.626 0 0 1-.019-.317v-1.34c0-.176.01-.288.028-.336a.203.203 0 0 1 .104-.113.608.608 0 0 1 .251-.038v-.105h-1.22v.105c.128 0 .217.017.267.052a.21.21 0 0 1 .096.124c.013.048.02.152.02.311v.535H79.61v-.535c0-.176.01-.288.027-.336a.203.203 0 0 1 .105-.113.608.608 0 0 1 .251-.038v-.105zm3.02 0v.105c.131 0 .217.014.26.044.042.027.074.06.094.096.02.035.03.15.03.347v1.34c0 .208-.023.342-.069.402-.046.06-.15.088-.314.088v.103h1.166v-.103c-.134-.002-.222-.032-.262-.09-.04-.06-.063-.167-.066-.323l1.09-1.265v1.188c0 .215-.025.35-.076.408-.052.055-.153.082-.306.082v.103h1.221v-.103c-.128 0-.215-.013-.26-.041a.297.297 0 0 1-.093-.1c-.02-.038-.03-.154-.03-.35V2.425c0-.202.012-.32.036-.358a.28.28 0 0 1 .1-.09c.041-.026.124-.04.247-.04v-.104h-1.174v.105c.121.001.207.03.256.085.05.055.076.153.08.295l-1.091 1.262V2.424c0-.202.012-.32.036-.358a.28.28 0 0 1 .099-.09c.042-.026.125-.04.248-.04v-.104zm4.242 0c-.365 0-.624.063-.777.19a.561.561 0 0 0-.226.444c0 .303.211.528.634.675l-.59.832c-.097.138-.164.22-.2.246-.036.024-.099.035-.19.035v.103h.628l.804-1.141.089.002.112-.002v.548c0 .215-.025.35-.077.408-.051.055-.153.082-.306.082v.103h1.221v-.103a.523.523 0 0 1-.256-.05.219.219 0 0 1-.105-.123 1.418 1.418 0 0 1-.022-.317v-1.34c0-.167.008-.274.025-.322a.223.223 0 0 1 .105-.118.532.532 0 0 1 .253-.047v-.105zm17.818 0v.105c.13 0 .217.014.26.044.042.027.073.06.093.096.02.035.03.15.03.347v1.34c0 .208-.022.342-.068.402-.046.06-.151.088-.315.088v.103h1.166v-.103c-.134-.002-.221-.032-.262-.09-.04-.06-.062-.167-.066-.323l1.092-1.265v1.188c0 .215-.026.35-.077.408-.052.055-.154.082-.306.082v.103h1.22v-.103c-.128 0-.215-.013-.259-.041a.297.297 0 0 1-.093-.1c-.02-.038-.03-.154-.03-.35V2.425c0-.202.012-.32.035-.358a.28.28 0 0 1 .1-.09c.042-.026.125-.04.248-.04v-.104h-1.174v.105c.12.001.206.03.256.085.05.055.076.153.08.295l-1.092 1.262V2.424c0-.202.012-.32.036-.358a.28.28 0 0 1 .1-.09c.042-.026.124-.04.248-.04v-.104zm3.021 0v.105c.13 0 .217.014.26.044.042.027.073.06.093.096.02.035.03.15.03.347v1.34c0 .208-.023.342-.069.402-.046.06-.15.088-.314.088v.103h1.72c.354 0 .599.062.733.187a.693.693 0 0 1 .212.512h.102v-.802c-.17-.007-.277-.038-.32-.093-.042-.055-.063-.201-.063-.438V2.424c0-.202.012-.32.036-.358a.28.28 0 0 1 .1-.09c.041-.026.124-.04.247-.04v-.104h-1.22v.105a.6.6 0 0 1 .247.038.19.19 0 0 1 .108.113c.018.05.028.162.028.336v1.403c0 .171-.013.272-.037.303-.023.032-.12.047-.292.047h-.446c-.154 0-.246-.014-.275-.044-.028-.029-.042-.124-.042-.284V2.424c0-.202.012-.32.036-.358a.28.28 0 0 1 .099-.09c.042-.026.125-.04.248-.04v-.104zm3.021 0v.105c.13 0 .217.014.259.044.042.027.073.06.093.096.02.035.03.15.03.347v1.34c0 .208-.022.342-.068.402-.046.06-.15.088-.314.088v.103h1.166v-.103c-.134-.002-.222-.032-.262-.09-.04-.06-.063-.167-.066-.323l1.091-1.265v1.188c0 .215-.025.35-.077.408-.051.055-.153.082-.306.082v.103h1.22v-.103c-.128 0-.214-.013-.258-.041a.297.297 0 0 1-.094-.1c-.02-.038-.03-.154-.03-.35V2.425c0-.202.012-.32.035-.358a.28.28 0 0 1 .1-.09c.042-.026.125-.04.248-.04v-.104h-1.174v.105c.12.001.206.03.256.085.05.055.076.153.08.295l-1.091 1.262V2.424c0-.202.011-.32.035-.358a.28.28 0 0 1 .1-.09c.042-.026.124-.04.248-.04v-.104zm5.523 0v.105c.121 0 .208.015.262.047a.198.198 0 0 1 .099.124c.015.051.022.157.022.316v1.34c0 .208-.023.342-.069.402-.046.06-.15.088-.314.088v.103h1.22v-.103a.543.543 0 0 1-.26-.046.22.22 0 0 1-.103-.127 1.626 1.626 0 0 1-.02-.317v-.626h1.092v.626c0 .215-.025.35-.077.408-.051.055-.153.082-.306.082v.103h1.22v-.103a.543.543 0 0 1-.26-.046.22.22 0 0 1-.103-.127 1.626 1.626 0 0 1-.019-.317v-1.34c0-.176.009-.288.027-.336a.203.203 0 0 1 .105-.113.608.608 0 0 1 .25-.038v-.105h-1.22v.105c.129 0 .218.017.267.052a.21.21 0 0 1 .097.124c.013.048.02.152.02.311v.535h-1.092v-.535c0-.176.009-.288.027-.336a.203.203 0 0 1 .105-.113.608.608 0 0 1 .25-.038v-.105zm3.031 0l-.104.683h.124a.994.994 0 0 1 .132-.336.349.349 0 0 1 .166-.137c.057-.02.164-.031.322-.031h.226v1.753c0 .217-.025.352-.077.405-.05.053-.163.082-.339.085v.103h1.373v-.103a1.664 1.664 0 0 1-.353-.033.184.184 0 0 1-.114-.099c-.022-.051-.033-.17-.033-.358V2.01h.221c.16 0 .273.012.34.036a.37.37 0 0 1 .175.149.792.792 0 0 1 .11.32h.125l-.11-.684zm-60.272.105c.202 0 .368.088.499.264.193.257.29.61.29 1.059 0 .358-.059.61-.174.758a.537.537 0 0 1-.441.22c-.239 0-.432-.133-.579-.4a1.96 1.96 0 0 1-.218-.95c0-.228.03-.415.09-.56a.603.603 0 0 1 .238-.303.576.576 0 0 1 .295-.088zm34.308 0c.202 0 .368.088.498.264.193.257.29.61.29 1.059 0 .358-.058.61-.174.758a.537.537 0 0 1-.44.22c-.24 0-.432-.133-.58-.4-.145-.266-.217-.583-.217-.95 0-.228.03-.415.09-.56a.602.602 0 0 1 .238-.303.576.576 0 0 1 .295-.088zm5.173.005c.162 0 .294.109.397.325v1.728c-.121.168-.254.251-.397.251-.156 0-.279-.09-.367-.273-.086-.184-.13-.454-.13-.81 0-.404.044-.708.13-.912.088-.206.21-.309.367-.309zm1.232 0c.318 0 .476.4.476 1.202 0 .378-.045.657-.137.835-.09.178-.206.267-.347.267a.418.418 0 0 1-.227-.077.446.446 0 0 1-.173-.22V2.165c.138-.15.274-.224.408-.224zm2.395 0c.161 0 .294.109.397.325v1.728c-.122.168-.254.251-.397.251-.157 0-.279-.09-.367-.273-.086-.184-.13-.454-.13-.81 0-.404.044-.708.13-.912.088-.206.21-.309.367-.309zm1.232 0c.317 0 .477.4.477 1.202 0 .378-.047.657-.138.835-.09.178-.206.267-.348.267a.416.416 0 0 1-.225-.077.446.446 0 0 1-.174-.22V2.165c.138-.15.273-.224.408-.224zm-35.78.009a.545.545 0 0 1 .49.33c.03.066.05.18.059.342h-1.169c.02-.211.09-.376.21-.494a.571.571 0 0 1 .41-.178zm5.303 0a.545.545 0 0 1 .49.33c.03.066.05.18.059.342h-1.17c.021-.211.091-.376.21-.494a.57.57 0 0 1 .41-.178zm5.325 0a.545.545 0 0 1 .49.33c.03.066.05.18.058.342h-1.168c.02-.211.09-.376.21-.494a.57.57 0 0 1 .41-.178zm36.644 0a.545.545 0 0 1 .49.33c.03.066.05.18.06.342h-1.17c.02-.211.09-.376.21-.494a.57.57 0 0 1 .41-.178zm-59.743.06a.75.75 0 0 1 .204.03v.993a.755.755 0 0 1-.562-.155.498.498 0 0 1-.196-.402c0-.127.046-.236.138-.328.092-.092.23-.138.416-.138zm14.806 0h.777v1.808c0 .182-.013.288-.038.317-.026.028-.124.041-.293.041h-.937c.327-.44.49-1.112.49-2.015zm17.044 0a.75.75 0 0 1 .203.03v.993a.755.755 0 0 1-.562-.155.498.498 0 0 1-.195-.402c0-.127.045-.236.137-.328.092-.092.231-.138.417-.138zm-21.956.146c.162 0 .302.072.42.215.168.208.253.504.253.89 0 .34-.074.604-.223.791a.543.543 0 0 1-.447.215.59.59 0 0 1-.38-.121.518.518 0 0 1-.188-.281 2.017 2.017 0 0 1-.024-.402V2.52c.152-.165.262-.264.328-.298a.57.57 0 0 1 .261-.066zm58.294.695v.962c-.227.183-.411.275-.551.275a.36.36 0 0 1-.273-.13.477.477 0 0 1-.118-.33.49.49 0 0 1 .093-.29.93.93 0 0 1 .312-.253c.08-.046.26-.124.537-.234zm7.045.953c-.1 0-.184.033-.254.097a.307.307 0 0 0-.102.231c0 .094.027.167.08.22a.29.29 0 0 0 .215.08.232.232 0 0 0 .105-.024.405.405 0 0 1 .132-.055c.013 0 .026.008.039.024a.152.152 0 0 1 .025.089.654.654 0 0 1-.157.416.89.89 0 0 1-.439.292v.121c.285-.094.493-.222.623-.385a.815.815 0 0 0 .199-.527.598.598 0 0 0-.144-.42.42.42 0 0 0-.322-.159zM82.761 8.81c-.334 0-.613.121-.835.364-.22.24-.33.577-.33 1.009 0 .398.107.717.322.954.217.235.477.352.78.352a.9.9 0 0 0 .697-.308 1.32 1.32 0 0 0 .336-.69l-.085-.055c-.083.22-.185.377-.309.47a.701.701 0 0 1-.43.134c-.248 0-.464-.107-.648-.32-.183-.213-.274-.507-.272-.882h1.744c0-.312-.09-.561-.273-.747a.93.93 0 0 0-.697-.28zm21.861 0c-.334 0-.612.121-.835.364-.22.24-.33.577-.33 1.009 0 .398.107.717.322.954.217.235.477.352.78.352a.9.9 0 0 0 .698-.308 1.32 1.32 0 0 0 .335-.69l-.085-.055c-.083.22-.185.377-.308.47a.701.701 0 0 1-.43.134c-.248 0-.465-.107-.648-.32-.184-.213-.275-.507-.273-.882h1.744c0-.312-.09-.561-.272-.747a.93.93 0 0 0-.698-.28zm-34.98.003c-.292 0-.519.066-.68.199-.162.132-.243.277-.243.435 0 .082.021.148.063.196a.22.22 0 0 0 .169.071c.07 0 .125-.023.168-.069.044-.046.066-.11.066-.195l-.006-.16c0-.081.035-.153.105-.215a.391.391 0 0 1 .275-.094c.153 0 .269.047.348.14.08.094.121.267.121.519v.1c-.433.157-.744.291-.932.401-.185.11-.315.228-.39.353a.6.6 0 0 0-.083.32.66.66 0 0 0 .168.471c.113.12.258.18.433.18a.744.744 0 0 0 .316-.07c.066-.03.23-.147.488-.347.002.15.03.258.083.32a.268.268 0 0 0 .215.094c.187 0 .384-.138.59-.414v-.154c-.11.11-.185.177-.224.201a.15.15 0 0 1-.077.02.113.113 0 0 1-.074-.028c-.02-.018-.035-.054-.044-.108a3.957 3.957 0 0 1-.014-.443v-.858c0-.244-.017-.405-.05-.484a.52.52 0 0 0-.24-.268 1.182 1.182 0 0 0-.55-.113zm2.966 0a.728.728 0 0 0-.416.135c-.13.088-.261.243-.392.466v-.59h-.104l-.777.314.033.089a.499.499 0 0 1 .168-.04c.055 0 .098.012.13.034a.184.184 0 0 1 .07.1c.015.043.023.147.023.31v2.387c0 .184-.01.298-.03.342a.19.19 0 0 1-.08.1.502.502 0 0 1-.26.057h-.068v.102h1.323v-.102c-.138 0-.234-.013-.287-.041a.243.243 0 0 1-.11-.113c-.02-.046-.03-.156-.03-.328v-.77a.826.826 0 0 0 .247.166c.1.039.217.058.353.058a.992.992 0 0 0 .777-.35c.25-.285.375-.645.375-1.08 0-.39-.103-.706-.311-.948a.8.8 0 0 0-.634-.298zm2.359 0c-.292 0-.519.066-.68.199-.162.132-.243.277-.243.435 0 .082.02.148.063.196a.22.22 0 0 0 .168.071c.07 0 .126-.023.168-.069.044-.046.067-.11.067-.195l-.006-.16c0-.081.035-.153.105-.215a.391.391 0 0 1 .275-.094c.153 0 .268.047.347.14.081.094.122.267.122.519v.1c-.434.157-.744.291-.932.401-.185.11-.316.228-.391.353a.6.6 0 0 0-.083.32.66.66 0 0 0 .168.471c.114.12.259.18.433.18a.744.744 0 0 0 .317-.07c.066-.03.229-.147.488-.347.002.15.03.258.083.32a.268.268 0 0 0 .215.094c.187 0 .383-.138.59-.414v-.154c-.111.11-.185.177-.224.201a.15.15 0 0 1-.077.02.113.113 0 0 1-.074-.028c-.02-.018-.035-.054-.044-.108a3.957 3.957 0 0 1-.014-.443v-.858c0-.244-.017-.405-.05-.484a.52.52 0 0 0-.24-.268 1.182 1.182 0 0 0-.551-.113zm10.605 0a.728.728 0 0 0-.416.135c-.13.088-.26.243-.391.466v-.59h-.105l-.777.314.033.089a.499.499 0 0 1 .168-.04c.055 0 .099.012.13.034a.184.184 0 0 1 .071.1c.015.043.022.147.022.31v2.387c0 .184-.01.298-.03.342a.19.19 0 0 1-.08.1.502.502 0 0 1-.26.057h-.068v.102h1.323v-.102c-.138 0-.233-.013-.287-.041a.243.243 0 0 1-.11-.113c-.02-.046-.03-.156-.03-.328v-.77a.826.826 0 0 0 .248.166c.099.039.217.058.353.058a.992.992 0 0 0 .777-.35c.25-.285.375-.645.375-1.08 0-.39-.104-.706-.311-.948a.8.8 0 0 0-.635-.298zm5.248 0c-.11 0-.253.025-.427.075-.105.029-.173.044-.204.044a.161.161 0 0 1-.11-.044h-.116v.79h.1c.106-.468.323-.703.65-.703.141 0 .254.046.339.136a.44.44 0 0 1 .129.314c0 .136-.05.264-.152.383-.099.118-.26.176-.482.176v.16c.473.022.708.216.708.582 0 .167-.05.303-.149.407a.5.5 0 0 1-.38.158c-.27 0-.555-.117-.857-.35l-.071.072c.18.172.346.295.498.369.155.071.333.107.535.107.309 0 .544-.073.705-.22a.68.68 0 0 0 .243-.513c0-.367-.252-.604-.755-.708.432-.129.648-.336.648-.62a.518.518 0 0 0-.246-.447 1.039 1.039 0 0 0-.606-.168zm6.67 0c-.315 0-.583.111-.808.334-.222.222-.357.51-.405.865h-.634V9.48c0-.191.01-.306.03-.344a.255.255 0 0 1 .097-.103c.044-.027.13-.041.256-.041v-.104h-1.22v.104c.167.002.272.029.316.08.044.052.066.187.066.408v1.34c0 .18-.013.298-.038.355-.026.057-.058.093-.096.107a1.131 1.131 0 0 1-.249.028v.102h1.221v-.102c-.13 0-.217-.015-.261-.044a.259.259 0 0 1-.094-.102c-.019-.04-.028-.155-.028-.345v-.628h.626c.01.355.122.66.339.915.219.255.501.383.848.383.226 0 .435-.056.626-.168.193-.114.345-.288.455-.523.112-.236.168-.467.168-.695 0-.345-.113-.647-.339-.904a1.112 1.112 0 0 0-.876-.386zm11.843 0a1.156 1.156 0 0 0-1.05.673 1.527 1.527 0 0 0-.171.688c0 .318.094.605.283.86.224.303.527.455.907.455.234 0 .445-.059.634-.176.191-.118.341-.292.45-.524a1.61 1.61 0 0 0 .162-.686c0-.321-.098-.607-.295-.855a1.118 1.118 0 0 0-.92-.435zm-30.819.044a.565.565 0 0 0-.265.066.525.525 0 0 0-.195.166c-.046.068-.105.2-.177.394-.077.206-.165.34-.264.405a.571.571 0 0 1-.4.088V9.48c0-.217.015-.341.044-.372a.453.453 0 0 1 .097-.083c.037-.022.131-.033.284-.033v-.104h-1.262v.104c.13 0 .216.015.258.044.043.028.074.06.094.097.02.034.03.15.03.347v1.34c0 .207-.022.341-.068.402-.046.059-.15.088-.314.088v.102h1.262v-.102a.823.823 0 0 1-.279-.033.203.203 0 0 1-.115-.107c-.02-.052-.03-.169-.03-.35v-.676a1.56 1.56 0 0 1 .104-.005c.063 0 .111.02.146.06a.875.875 0 0 1 .121.18c.188.352.397.697.629 1.033h.744v-.102a.47.47 0 0 1-.317-.107c-.072-.068-.18-.23-.325-.486-.182-.32-.307-.513-.375-.58a.45.45 0 0 0-.185-.128c.083-.08.139-.145.168-.193.03-.05.076-.158.138-.325.055-.145.125-.218.21-.218.04 0 .099.014.176.041.06.023.111.034.152.034a.232.232 0 0 0 .176-.067.236.236 0 0 0 .064-.165.23.23 0 0 0-.089-.187.365.365 0 0 0-.237-.072zm-12.763.03v.102c.112 0 .204.026.278.077.075.05.181.174.317.372l.48.695-.53.703c-.165.218-.283.355-.352.408a.372.372 0 0 1-.174.069v.099h.824v-.1a.312.312 0 0 1-.187-.057.162.162 0 0 1-.06-.122c0-.03.061-.13.186-.297l.405-.54.37.54c.118.17.176.277.176.32a.12.12 0 0 1-.052.102.3.3 0 0 1-.193.055v.099h1.19v-.1a.503.503 0 0 1-.256-.074c-.066-.046-.176-.18-.33-.402l-.629-.904.345-.46c.156-.21.279-.346.369-.408a.465.465 0 0 1 .234-.075v-.101h-.854v.101c.07 0 .12.014.151.042a.12.12 0 0 1 .047.096c0 .048-.066.163-.198.345l-.207.286-.18-.286a6.295 6.295 0 0 0-.09-.138c-.064-.092-.096-.16-.096-.204 0-.042.014-.076.044-.102.031-.026.084-.039.16-.039v-.101zm13.303 0l-.104.684h.124a.99.99 0 0 1 .132-.336.35.35 0 0 1 .165-.138c.057-.02.165-.03.323-.03h.226v1.752c0 .217-.026.352-.077.405-.05.054-.163.083-.34.086v.102h1.373v-.102a1.664 1.664 0 0 1-.353-.033.183.183 0 0 1-.113-.1c-.022-.05-.033-.17-.033-.358V9.066h.22c.16 0 .273.013.34.037a.372.372 0 0 1 .176.148.79.79 0 0 1 .11.32h.124l-.11-.683zm7.783 0v.105c.13 0 .217.015.26.044.042.028.073.06.093.097.02.034.03.15.03.347v1.34c0 .207-.022.341-.068.402-.046.059-.151.088-.315.088v.102h1.166v-.102c-.134-.002-.221-.032-.262-.09-.04-.06-.062-.167-.066-.323l1.092-1.265v1.187c0 .215-.026.352-.077.409-.052.055-.154.082-.306.082v.102h1.22v-.102c-.128 0-.215-.014-.259-.041a.297.297 0 0 1-.093-.1c-.02-.038-.03-.155-.03-.35V9.48c0-.201.012-.32.035-.357a.28.28 0 0 1 .1-.091c.042-.026.125-.039.248-.039v-.104H88.43v.104c.12.002.206.03.256.086.05.055.076.153.08.294l-1.092 1.263V9.48c0-.202.012-.322.036-.358a.28.28 0 0 1 .1-.091c.042-.026.124-.039.248-.039v-.104zm5.033 0v.102a.62.62 0 0 1 .204.077c.03.022.067.066.113.13.06.085.105.156.132.213l.907 1.904-.18.438c-.065.164-.131.274-.198.33-.064.058-.124.086-.179.086a.59.59 0 0 1-.137-.041.741.741 0 0 0-.248-.06.304.304 0 0 0-.21.068.249.249 0 0 0-.075.188c0 .08.036.152.105.214.07.063.16.094.268.094.148 0 .303-.062.463-.187.161-.125.292-.31.391-.554l1.028-2.52c.046-.115.077-.186.094-.212a.457.457 0 0 1 .121-.124.392.392 0 0 1 .157-.044v-.101h-.821v.101c.079 0 .134.007.165.02a.139.139 0 0 1 .07.047c.012.016.018.04.018.074a.579.579 0 0 1-.046.223l-.566 1.395-.614-1.273a.757.757 0 0 1-.091-.298c0-.053.02-.097.06-.132.043-.037.105-.056.188-.056h.058v-.101zm7.16 0v.105c.131 0 .217.015.26.044.042.028.073.06.093.097.02.034.03.15.03.347v1.34c0 .214-.025.35-.077.408-.051.055-.153.082-.305.082v.102h3.078c.34 0 .573.06.7.18.129.119.2.292.212.52h.102v-.802a.605.605 0 0 1-.267-.05.204.204 0 0 1-.097-.132 3.045 3.045 0 0 1-.02-.458V9.48c0-.202.013-.322.037-.358a.286.286 0 0 1 .096-.091c.042-.026.126-.039.251-.039v-.104h-1.22v.104c.13 0 .216.015.258.044.042.028.074.06.094.097.02.034.03.15.03.347v1.353c0 .191-.008.306-.025.345-.016.037-.113.055-.29.055h-.33c-.161 0-.258-.015-.29-.044-.03-.031-.046-.126-.046-.284V9.48c0-.166.007-.272.022-.32a.218.218 0 0 1 .094-.118.423.423 0 0 1 .22-.05v-.104h-1.174v.104c.129 0 .214.014.256.041.045.028.077.061.097.1.02.036.03.152.03.347v1.337c0 .183-.006.292-.02.325a.115.115 0 0 1-.07.072.867.867 0 0 1-.232.019h-.298c-.178 0-.283-.017-.314-.05-.031-.033-.047-.136-.047-.311V9.48c0-.202.012-.322.036-.358a.28.28 0 0 1 .1-.091c.041-.026.124-.039.247-.039v-.104zm6.805 0v.105a.839.839 0 0 1 .287.036.192.192 0 0 1 .107.11c.02.05.03.164.03.342v1.34c0 .218-.025.354-.076.408-.052.051-.168.079-.348.082v.102h1.262v-.102c-.128 0-.215-.014-.259-.041a.297.297 0 0 1-.093-.1c-.02-.038-.03-.155-.03-.35V9.066h.534c.228 0 .377.03.447.086.071.055.142.197.212.424h.12l-.1-.688zm-8.433.105c.239 0 .43.125.573.375.143.25.215.566.215.948 0 .652-.204.979-.612.979-.239 0-.432-.133-.579-.397-.145-.267-.217-.584-.217-.951 0-.325.057-.565.173-.72a.538.538 0 0 1 .447-.234zm11.845 0c.202 0 .369.088.5.265.192.257.289.61.289 1.058 0 .358-.058.611-.174.758a.539.539 0 0 1-.441.22c-.24 0-.432-.133-.58-.4-.144-.266-.217-.583-.217-.95 0-.228.03-.414.091-.56a.604.604 0 0 1 .237-.303.574.574 0 0 1 .295-.088zm-26.64.014c.099 0 .194.03.284.088.092.06.16.14.207.243.03.066.048.18.058.341h-1.17c.02-.211.091-.375.21-.493a.57.57 0 0 1 .41-.179zm21.86 0c.1 0 .195.03.285.088.092.06.16.14.207.243.03.066.049.18.058.341h-1.17c.021-.211.091-.375.21-.493a.57.57 0 0 1 .41-.179zm-32.077.207c.162 0 .301.071.419.215.169.207.254.504.254.89 0 .34-.075.603-.224.79a.543.543 0 0 1-.446.216.59.59 0 0 1-.38-.121.518.518 0 0 1-.188-.281 2.024 2.024 0 0 1-.025-.403v-.943c.153-.165.262-.264.328-.297a.571.571 0 0 1 .262-.066zm12.965 0c.162 0 .3.071.418.215.17.207.254.504.254.89 0 .34-.074.603-.223.79a.543.543 0 0 1-.447.216.59.59 0 0 1-.38-.121.518.518 0 0 1-.187-.281 2.024 2.024 0 0 1-.025-.403v-.943c.152-.165.262-.264.328-.297a.571.571 0 0 1 .262-.066zm-15.327.694v.962c-.228.184-.412.276-.551.276a.36.36 0 0 1-.273-.13.477.477 0 0 1-.118-.33.49.49 0 0 1 .093-.29.93.93 0 0 1 .312-.254c.08-.046.26-.124.537-.234zm5.325 0v.962c-.228.184-.412.276-.551.276a.36.36 0 0 1-.273-.13.477.477 0 0 1-.119-.33.49.49 0 0 1 .094-.29.93.93 0 0 1 .311-.254c.081-.046.26-.124.538-.234zm30.984 4.641l-.745.312.042.09a.5.5 0 0 1 .198-.046c.074 0 .125.032.155.096.03.065.044.214.044.45v.683c-.14-.176-.306-.264-.5-.264-.26 0-.471.133-.633.399a1.715 1.715 0 0 0-.242.913c0 .38.084.702.253.967.17.265.381.397.637.397a.62.62 0 0 0 .485-.243v.78c0 .223-.028.36-.083.41-.053.054-.172.08-.356.08v.103h1.36v-.102c-.177 0-.293-.011-.348-.033a.192.192 0 0 1-.116-.108c-.02-.05-.03-.166-.03-.35v-.78c.143.162.306.243.488.243.246 0 .455-.132.628-.394.173-.265.26-.58.26-.943 0-.371-.086-.687-.257-.948-.17-.261-.372-.391-.609-.391-.173 0-.343.077-.51.231v-1.552zm-52.592 1.318c-.334 0-.612.121-.835.364-.22.24-.33.577-.33 1.009 0 .398.107.716.322.953.217.235.477.353.78.353a.9.9 0 0 0 .697-.31c.186-.207.298-.436.336-.688l-.085-.055c-.083.22-.186.377-.309.468a.701.701 0 0 1-.43.135c-.248 0-.464-.106-.647-.319-.184-.213-.275-.507-.273-.882h1.744c0-.313-.09-.561-.272-.747a.93.93 0 0 0-.698-.281zm9.095 0c-.334 0-.612.121-.835.364-.22.24-.33.577-.33 1.009 0 .398.107.716.322.953.217.235.477.353.78.353a.9.9 0 0 0 .697-.31c.186-.207.298-.436.336-.688l-.085-.055c-.082.22-.186.377-.309.468a.701.701 0 0 1-.43.135c-.248 0-.464-.106-.647-.319-.184-.213-.275-.507-.273-.882h1.744c0-.313-.09-.561-.272-.747a.93.93 0 0 0-.698-.281zm2.812.003a.73.73 0 0 0-.417.134c-.13.089-.26.244-.391.467v-.59h-.105l-.777.314.033.088a.501.501 0 0 1 .168-.039.22.22 0 0 1 .13.033.185.185 0 0 1 .071.1c.015.044.023.148.023.311v2.387c0 .184-.01.298-.03.342a.192.192 0 0 1-.08.099.5.5 0 0 1-.26.058h-.069v.102h1.323v-.102c-.137 0-.233-.014-.286-.042a.243.243 0 0 1-.11-.113c-.02-.046-.031-.155-.031-.327v-.77a.826.826 0 0 0 .248.166c.1.039.217.058.353.058a.993.993 0 0 0 .777-.35c.25-.285.375-.645.375-1.08 0-.39-.104-.706-.312-.949a.798.798 0 0 0-.633-.297zm2.359 0c-.292 0-.52.066-.68.198-.163.132-.244.278-.244.436 0 .082.022.147.064.195.044.048.1.072.168.072.07 0 .126-.023.168-.069.044-.046.066-.111.066-.196l-.005-.16c0-.08.035-.152.105-.214a.391.391 0 0 1 .275-.094c.153 0 .268.046.347.14.081.094.122.267.122.518v.1c-.434.158-.745.292-.932.402-.186.11-.316.228-.391.353a.6.6 0 0 0-.083.32.66.66 0 0 0 .168.47c.114.12.258.18.433.18a.747.747 0 0 0 .317-.07c.066-.03.229-.146.488-.346.002.15.03.257.082.32a.268.268 0 0 0 .215.093c.188 0 .384-.138.59-.413v-.154c-.11.11-.185.177-.223.2a.15.15 0 0 1-.077.02.113.113 0 0 1-.075-.028c-.02-.018-.035-.054-.044-.107a4.013 4.013 0 0 1-.014-.444v-.857c0-.244-.016-.406-.05-.485a.52.52 0 0 0-.239-.267 1.181 1.181 0 0 0-.551-.113zm8.059 0a.73.73 0 0 0-.417.134c-.13.089-.26.244-.391.467v-.59h-.105l-.777.314.033.088a.501.501 0 0 1 .168-.039.22.22 0 0 1 .13.033.185.185 0 0 1 .071.1c.015.044.023.148.023.311v2.387c0 .184-.01.298-.03.342a.192.192 0 0 1-.081.099.5.5 0 0 1-.259.058h-.069v.102h1.323v-.102c-.137 0-.233-.014-.286-.042a.243.243 0 0 1-.11-.113c-.02-.046-.031-.155-.031-.327v-.77a.826.826 0 0 0 .248.166c.1.039.217.058.353.058a.993.993 0 0 0 .777-.35c.25-.285.375-.645.375-1.08 0-.39-.104-.706-.312-.949a.798.798 0 0 0-.633-.297zm9.81 0c-.313 0-.582.11-.806.333-.223.222-.358.51-.405.865h-.634v-.531c0-.191.01-.306.03-.345a.254.254 0 0 1 .096-.102c.044-.027.13-.041.256-.041v-.105h-1.22v.105c.167.002.273.028.317.08.044.05.066.187.066.408v1.34c0 .18-.013.298-.039.355-.026.057-.057.093-.096.107a1.143 1.143 0 0 1-.248.028v.101h1.22v-.101c-.13 0-.217-.015-.261-.044a.26.26 0 0 1-.094-.103c-.018-.04-.027-.155-.027-.344v-.628h.625c.01.354.123.66.34.914.218.256.5.384.848.384.226 0 .435-.056.626-.169.193-.113.344-.288.454-.523.113-.235.168-.467.168-.695 0-.345-.113-.646-.339-.903a1.113 1.113 0 0 0-.876-.386zm4.223 0c-.33 0-.614.124-.851.372-.235.248-.353.57-.353.967 0 .41.107.735.32.976.213.24.463.36.75.36.24 0 .46-.089.658-.267.198-.18.332-.436.4-.769l-.08-.038c-.096.222-.194.375-.295.46a.724.724 0 0 1-.485.185c-.252 0-.452-.115-.601-.345a1.46 1.46 0 0 1-.22-.8c0-.295.074-.533.223-.713a.547.547 0 0 1 .443-.204c.114 0 .203.028.268.083.064.057.101.14.11.248.011.108.032.182.063.22.055.07.137.105.246.105a.26.26 0 0 0 .187-.063.227.227 0 0 0 .07-.171c0-.142-.08-.278-.24-.408a.928.928 0 0 0-.613-.198zm5.325 0a.728.728 0 0 0-.416.134c-.13.089-.261.244-.392.467v-.59h-.104l-.777.314.033.088a.499.499 0 0 1 .168-.039c.055 0 .098.011.13.033a.184.184 0 0 1 .07.1c.016.044.023.148.023.311v2.387c0 .184-.01.298-.03.342a.19.19 0 0 1-.08.099.502.502 0 0 1-.26.058h-.068v.102h1.323v-.102c-.138 0-.234-.014-.287-.042a.243.243 0 0 1-.11-.113c-.02-.046-.03-.155-.03-.327v-.77a.826.826 0 0 0 .248.166c.099.039.216.058.352.058a.993.993 0 0 0 .778-.35c.25-.285.374-.645.374-1.08 0-.39-.103-.706-.31-.949a.8.8 0 0 0-.635-.297zm2.36 0c-.293 0-.52.066-.681.198-.162.132-.243.278-.243.436 0 .082.021.147.063.195a.22.22 0 0 0 .169.072c.07 0 .125-.023.168-.069.044-.046.066-.111.066-.196l-.006-.16c0-.08.035-.152.105-.214a.391.391 0 0 1 .276-.094c.152 0 .268.046.347.14.08.094.121.267.121.518v.1c-.433.158-.744.292-.932.402-.185.11-.315.228-.39.353a.6.6 0 0 0-.083.32.66.66 0 0 0 .168.47c.113.12.258.18.433.18a.745.745 0 0 0 .316-.07c.067-.03.23-.146.488-.346.002.15.03.257.083.32a.268.268 0 0 0 .215.093c.187 0 .384-.138.59-.413v-.154c-.11.11-.185.177-.224.2a.15.15 0 0 1-.077.02.113.113 0 0 1-.074-.028c-.02-.018-.035-.054-.044-.107a3.957 3.957 0 0 1-.014-.444v-.857c0-.244-.017-.406-.05-.485a.52.52 0 0 0-.24-.267 1.181 1.181 0 0 0-.55-.113zm17.186 0c-.292 0-.519.066-.68.198-.162.132-.243.278-.243.436 0 .082.021.147.063.195.044.048.1.072.168.072.07 0 .127-.023.169-.069.044-.046.066-.111.066-.196l-.006-.16c0-.08.035-.152.105-.214a.391.391 0 0 1 .276-.094c.152 0 .268.046.347.14.08.094.121.267.121.518v.1c-.433.158-.744.292-.931.402-.186.11-.316.228-.392.353a.6.6 0 0 0-.082.32.66.66 0 0 0 .168.47c.114.12.258.18.432.18a.747.747 0 0 0 .317-.07c.067-.03.23-.146.488-.346.002.15.03.257.083.32a.268.268 0 0 0 .215.093c.187 0 .384-.138.59-.413v-.154c-.11.11-.185.177-.224.2a.15.15 0 0 1-.077.02.113.113 0 0 1-.074-.028c-.02-.018-.035-.054-.045-.107a4.013 4.013 0 0 1-.013-.444v-.857c0-.244-.017-.406-.05-.485a.52.52 0 0 0-.24-.267 1.181 1.181 0 0 0-.55-.113zm10.131 0c-.314 0-.583.11-.807.333-.222.222-.357.51-.405.865h-.634v-.531c0-.191.01-.306.03-.345a.254.254 0 0 1 .097-.102c.044-.027.13-.041.256-.041v-.105h-1.22v.105c.167.002.272.028.316.08.044.05.066.187.066.408v1.34c0 .18-.013.298-.038.355-.026.057-.058.093-.097.107a1.143 1.143 0 0 1-.248.028v.101h1.22v-.101c-.13 0-.216-.015-.26-.044a.26.26 0 0 1-.095-.103c-.018-.04-.027-.155-.027-.344v-.628h.626c.009.354.122.66.339.914.218.256.501.384.848.384.226 0 .435-.056.626-.169.193-.113.345-.288.455-.523.112-.235.168-.467.168-.695 0-.345-.113-.646-.34-.903a1.113 1.113 0 0 0-.876-.386zm-11.743.044a.565.565 0 0 0-.265.066.527.527 0 0 0-.195.165c-.046.068-.105.2-.177.394-.077.206-.165.341-.264.405a.571.571 0 0 1-.4.089v-.496c0-.217.015-.341.044-.372a.453.453 0 0 1 .097-.083c.037-.022.131-.033.284-.033v-.105h-1.263v.105c.13 0 .217.014.26.044.042.027.073.06.093.096.02.035.03.151.03.348v1.34c0 .207-.023.34-.069.401-.046.059-.15.089-.314.089v.101h1.263v-.101a.827.827 0 0 1-.279-.033.203.203 0 0 1-.116-.108c-.02-.051-.03-.168-.03-.35V17.2c.048-.004.083-.006.105-.006.062 0 .111.02.146.061a.869.869 0 0 1 .121.179c.188.353.397.697.629 1.033h.744v-.101a.47.47 0 0 1-.317-.108c-.072-.068-.18-.23-.325-.485-.182-.32-.307-.514-.375-.581a.45.45 0 0 0-.185-.127c.083-.08.139-.146.168-.193.03-.05.075-.158.138-.325.055-.146.125-.218.21-.218.04 0 .099.014.176.041.06.022.11.033.151.033a.234.234 0 0 0 .177-.066.235.235 0 0 0 .063-.165.23.23 0 0 0-.088-.188.365.365 0 0 0-.237-.071zm-63.324.03l-.104.684h.124a.994.994 0 0 1 .132-.337.35.35 0 0 1 .165-.138c.057-.02.165-.03.323-.03h.226v1.753c0 .217-.026.352-.077.405-.05.054-.163.082-.34.086v.101h1.373v-.101a1.664 1.664 0 0 1-.353-.033.184.184 0 0 1-.113-.1c-.022-.051-.033-.17-.033-.358v-1.753h.22c.16 0 .274.012.34.036a.37.37 0 0 1 .176.149.792.792 0 0 1 .11.32h.125l-.111-.684zm4.961 0v.105c.13 0 .217.014.26.044.042.027.073.06.093.096.02.035.03.151.03.348v1.34c0 .207-.023.34-.069.401-.046.059-.15.089-.314.089v.101h.965v-.101a.6.6 0 0 1-.248-.04.201.201 0 0 1-.108-.112 1.275 1.275 0 0 1-.027-.339v-1.519l.91 2.111h.096l.893-2.11v1.518c0 .215-.026.351-.077.408-.052.055-.153.083-.304.083v.101h1.221v-.101a.62.62 0 0 1-.25-.04.201.201 0 0 1-.108-.112 1.409 1.409 0 0 1-.025-.339v-1.34c0-.201.012-.321.036-.358a.287.287 0 0 1 .097-.09c.042-.027.125-.04.25-.04v-.104h-.851l-.788 1.866-.794-1.866zm3.572 0v.105c.13 0 .217.014.26.044.042.027.073.06.093.096.02.035.03.151.03.348v1.34c0 .207-.023.34-.069.401-.046.059-.15.089-.314.089v.101h1.221v-.101c-.129 0-.215-.014-.259-.042a.299.299 0 0 1-.094-.099c-.02-.039-.03-.155-.03-.35v-1.753h1.092v1.753c0 .215-.026.351-.078.408-.051.055-.153.083-.306.083v.101h1.221v-.101c-.128 0-.215-.014-.259-.042a.299.299 0 0 1-.094-.099c-.02-.039-.03-.155-.03-.35v-1.34c0-.201.012-.321.036-.358a.28.28 0 0 1 .1-.09c.041-.027.124-.04.247-.04v-.104zm10.716 0l-.105.684h.124a.994.994 0 0 1 .133-.337.35.35 0 0 1 .165-.138c.057-.02.164-.03.322-.03h.226v1.753c0 .217-.025.352-.077.405-.05.054-.162.082-.339.086v.101h1.373v-.101a1.664 1.664 0 0 1-.353-.033.184.184 0 0 1-.113-.1c-.022-.051-.033-.17-.033-.358v-1.753h.22c.16 0 .273.012.34.036a.37.37 0 0 1 .175.149.792.792 0 0 1 .111.32h.124l-.11-.684zm2.287 0v.102a.622.622 0 0 1 .204.077.62.62 0 0 1 .113.13c.06.084.105.155.132.212l.907 1.904-.179.438c-.066.164-.132.274-.198.331-.065.057-.124.086-.18.086a.59.59 0 0 1-.137-.041.745.745 0 0 0-.248-.061.303.303 0 0 0-.21.069.248.248 0 0 0-.074.187c0 .08.035.152.104.215.07.062.16.094.268.094.149 0 .303-.063.463-.188.162-.125.292-.31.391-.554l1.028-2.519c.046-.116.078-.186.094-.212a.456.456 0 0 1 .121-.124.391.391 0 0 1 .157-.044v-.102h-.82v.102c.078 0 .133.007.164.02a.138.138 0 0 1 .07.046.12.12 0 0 1 .019.074.58.58 0 0 1-.047.224l-.565 1.394-.615-1.273a.757.757 0 0 1-.09-.298c0-.053.02-.097.06-.132.042-.037.104-.055.187-.055h.058v-.102zm5.76 0v.105c.122 0 .209.015.262.046a.198.198 0 0 1 .1.124c.014.052.022.158.022.318v1.34c0 .207-.023.34-.07.401-.045.059-.15.089-.313.089v.101h1.22v-.101a.542.542 0 0 1-.261-.047.22.22 0 0 1-.103-.127 1.626 1.626 0 0 1-.019-.317v-.626h1.092v.626c0 .215-.026.351-.077.408-.052.055-.154.083-.306.083v.101h1.22v-.101a.542.542 0 0 1-.261-.047.22.22 0 0 1-.102-.127 1.626 1.626 0 0 1-.02-.317v-1.34c0-.176.01-.288.028-.336a.203.203 0 0 1 .105-.113.61.61 0 0 1 .25-.038v-.105h-1.22v.105c.128 0 .217.017.267.052a.21.21 0 0 1 .097.124c.013.048.019.152.019.312v.534h-1.092v-.534c0-.177.01-.289.028-.337a.203.203 0 0 1 .105-.113.61.61 0 0 1 .25-.038v-.105zm2.928 0v.102a.618.618 0 0 1 .203.077.62.62 0 0 1 .113.13c.061.084.105.155.133.212l.907 1.904-.18.438c-.066.164-.132.274-.198.331-.064.057-.124.086-.18.086a.59.59 0 0 1-.137-.041.745.745 0 0 0-.248-.061.304.304 0 0 0-.21.069.248.248 0 0 0-.074.187c0 .08.035.152.105.215.07.062.159.094.267.094.149 0 .303-.063.463-.188.162-.125.292-.31.392-.554l1.027-2.519c.046-.116.077-.186.094-.212a.457.457 0 0 1 .121-.124.391.391 0 0 1 .158-.044v-.102h-.822v.102c.08 0 .135.007.166.02a.138.138 0 0 1 .069.046c.012.016.019.041.019.074a.579.579 0 0 1-.047.224l-.565 1.394-.615-1.273a.757.757 0 0 1-.09-.298c0-.053.02-.097.06-.132.042-.037.105-.055.187-.055h.058v-.102zm11.084 0l-.104.684h.124a.994.994 0 0 1 .132-.337.35.35 0 0 1 .166-.138c.056-.02.164-.03.322-.03h.226v1.753c0 .217-.026.352-.077.405-.05.054-.163.082-.34.086v.101h1.373v-.101a1.664 1.664 0 0 1-.353-.033.184.184 0 0 1-.113-.1c-.022-.051-.033-.17-.033-.358v-1.753h.22c.16 0 .274.012.34.036a.37.37 0 0 1 .176.149.792.792 0 0 1 .11.32h.125l-.11-.684zm7.718 0l-.105.684h.124a.994.994 0 0 1 .132-.337.35.35 0 0 1 .165-.138c.057-.02.165-.03.323-.03h.226v1.753c0 .217-.026.352-.077.405-.05.054-.163.082-.34.086v.101h1.373v-.101a1.664 1.664 0 0 1-.353-.033.183.183 0 0 1-.112-.1c-.022-.051-.033-.17-.033-.358v-1.753h.22c.16 0 .273.012.339.036a.372.372 0 0 1 .176.149.792.792 0 0 1 .11.32h.124l-.11-.684zm2.458 0v.105c.13 0 .216.014.259.044.042.027.074.06.094.096.02.035.03.151.03.348v1.34c0 .207-.023.34-.069.401-.046.059-.15.089-.314.089v.101h1.166v-.101c-.134-.002-.222-.033-.262-.091-.04-.06-.063-.167-.066-.323l1.09-1.265v1.188c0 .215-.025.351-.076.408-.052.055-.153.083-.306.083v.101h1.221v-.101c-.128 0-.215-.014-.26-.042a.297.297 0 0 1-.093-.099c-.02-.039-.03-.155-.03-.35v-1.34c0-.201.012-.321.036-.358a.28.28 0 0 1 .1-.09c.041-.027.124-.04.247-.04v-.104h-1.174v.105c.121.002.207.03.256.085.05.055.076.154.08.295l-1.091 1.262v-1.154c0-.202.012-.322.036-.359a.28.28 0 0 1 .099-.09c.042-.027.125-.04.248-.04v-.104zm6.68 0v.105c.131 0 .217.014.26.044.042.027.073.06.094.096.02.035.03.151.03.348v1.34c0 .207-.023.34-.07.401-.045.059-.15.089-.313.089v.101h1.165v-.101c-.134-.002-.221-.033-.262-.091-.04-.06-.062-.167-.066-.323l1.092-1.265v1.188c0 .215-.026.351-.077.408-.052.055-.154.083-.306.083v.101h1.22v-.101c-.128 0-.214-.014-.259-.042a.297.297 0 0 1-.093-.099c-.02-.039-.03-.155-.03-.35v-1.34c0-.201.012-.321.036-.358a.28.28 0 0 1 .099-.09c.042-.027.125-.04.248-.04v-.104h-1.174v.105c.121.002.206.03.256.085.05.055.076.154.08.295l-1.092 1.262v-1.154c0-.202.013-.322.036-.359a.28.28 0 0 1 .1-.09c.042-.027.125-.04.248-.04v-.104zm8.18 0v.105c.13 0 .218.014.26.044.042.027.073.06.093.096.02.035.03.151.03.348v1.34c0 .207-.022.34-.068.401-.046.059-.151.089-.315.089v.101h1.72c.355 0 .6.063.734.188a.693.693 0 0 1 .212.513h.102v-.802c-.171-.008-.278-.039-.32-.094-.042-.055-.063-.201-.063-.438v-1.298c0-.202.012-.322.035-.359a.28.28 0 0 1 .1-.09c.042-.027.125-.04.248-.04v-.104h-1.221v.105c.112 0 .194.012.248.038.053.024.089.062.107.113.018.05.028.162.028.337v1.402c0 .171-.012.272-.036.304-.024.03-.121.047-.292.047h-.447c-.154 0-.246-.015-.275-.045-.028-.03-.041-.124-.041-.284v-1.424c0-.202.011-.322.035-.359a.28.28 0 0 1 .1-.09c.042-.027.124-.04.248-.04v-.104zm3.021 0v.105c.13 0 .217.014.26.044.042.027.073.06.093.096.02.035.03.151.03.348v1.34c0 .207-.022.34-.068.401-.046.059-.151.089-.315.089v.101h1.166v-.101c-.134-.002-.221-.033-.262-.091-.04-.06-.062-.167-.066-.323l1.092-1.265v1.188c0 .215-.026.351-.077.408-.052.055-.154.083-.306.083v.101h1.22v-.101c-.128 0-.215-.014-.259-.042a.297.297 0 0 1-.093-.099c-.02-.039-.03-.155-.03-.35v-1.34c0-.201.011-.321.035-.358a.28.28 0 0 1 .1-.09c.041-.027.124-.04.247-.04v-.104h-1.174v.105c.121.002.207.03.256.085.05.055.077.154.08.295l-1.09 1.262v-1.154c0-.202.01-.322.035-.359a.28.28 0 0 1 .099-.09c.042-.027.125-.04.248-.04v-.104zm-33.61.105c.239 0 .43.125.573.375.144.25.215.566.215.948 0 .652-.204.978-.612.978-.239 0-.431-.132-.578-.397-.146-.266-.218-.583-.218-.95 0-.326.058-.566.174-.72a.537.537 0 0 1 .446-.234zm39.225 0c.238 0 .43.125.573.375.143.25.215.566.215.948 0 .652-.204.978-.612.978-.24 0-.432-.132-.579-.397-.145-.266-.218-.583-.218-.95 0-.326.058-.566.174-.72a.537.537 0 0 1 .447-.234zm-19.384.005c.161 0 .294.109.397.326v1.728c-.122.167-.254.25-.397.25-.156 0-.278-.09-.367-.273-.086-.183-.13-.453-.13-.81 0-.404.044-.708.13-.912.089-.206.21-.309.367-.309zm1.232 0c.318 0 .477.401.477 1.202 0 .379-.046.657-.138.835-.09.178-.206.267-.348.267a.416.416 0 0 1-.225-.077.446.446 0 0 1-.174-.22v-1.784c.138-.149.274-.223.408-.223zm-53.275.008c.1 0 .194.03.284.089.091.059.16.14.206.242.03.066.049.18.058.342h-1.168c.02-.211.09-.376.21-.493a.572.572 0 0 1 .41-.18zm9.095 0c.1 0 .194.03.284.089.092.059.16.14.206.242.03.066.05.18.058.342h-1.168c.02-.211.09-.376.21-.493a.572.572 0 0 1 .41-.18zm2.748.207c.161 0 .301.072.419.215.169.208.253.505.253.89 0 .34-.074.604-.223.792a.543.543 0 0 1-.446.215.59.59 0 0 1-.38-.122.518.518 0 0 1-.188-.281 2.024 2.024 0 0 1-.025-.403v-.942c.153-.166.262-.265.328-.298a.57.57 0 0 1 .262-.066zm10.418 0c.161 0 .301.072.419.215.169.208.253.505.253.89 0 .34-.074.604-.223.792a.543.543 0 0 1-.446.215.59.59 0 0 1-.38-.122.518.518 0 0 1-.188-.281 2.024 2.024 0 0 1-.025-.403v-.942c.152-.166.262-.265.328-.298a.57.57 0 0 1 .262-.066zm19.359 0c.161 0 .3.072.418.215.17.208.254.505.254.89 0 .34-.074.604-.223.792a.543.543 0 0 1-.447.215.59.59 0 0 1-.38-.122.518.518 0 0 1-.188-.281 2.024 2.024 0 0 1-.025-.403v-.942c.153-.166.262-.265.329-.298a.571.571 0 0 1 .262-.066zm-26.814.695v.962c-.228.184-.412.275-.552.275a.36.36 0 0 1-.272-.13.477.477 0 0 1-.119-.33.49.49 0 0 1 .094-.29.929.929 0 0 1 .311-.253c.081-.046.26-.124.538-.234zm29.776 0v.962c-.228.184-.412.275-.551.275a.36.36 0 0 1-.273-.13.477.477 0 0 1-.118-.33.49.49 0 0 1 .093-.29.929.929 0 0 1 .312-.253c.08-.046.26-.124.537-.234zm17.187 0v.962c-.228.184-.411.275-.551.275a.36.36 0 0 1-.273-.13.477.477 0 0 1-.118-.33.49.49 0 0 1 .093-.29.929.929 0 0 1 .312-.253c.08-.046.26-.124.537-.234zm-58.445 4.641l-.744.311.041.091a.5.5 0 0 1 .198-.046c.074 0 .126.032.155.096.03.064.044.214.044.45v.683c-.14-.177-.306-.265-.499-.265-.26 0-.472.134-.634.4a1.713 1.713 0 0 0-.242.912c0 .38.084.703.253.967.169.265.381.397.637.397.185 0 .347-.08.485-.242v.78c0 .222-.028.36-.083.41-.053.054-.172.08-.355.08v.102h1.358v-.102c-.176 0-.292-.01-.347-.033a.192.192 0 0 1-.116-.107c-.02-.05-.03-.167-.03-.35v-.78c.144.162.306.242.488.242.246 0 .456-.131.628-.394.173-.265.26-.579.26-.943 0-.37-.086-.686-.257-.947-.17-.261-.372-.392-.61-.392-.172 0-.342.077-.509.231v-1.55zM73.92 22.87c-.202 0-.397.032-.585.096a.987.987 0 0 0-.438.279.567.567 0 0 0-.157.378.32.32 0 0 0 .116.245c.079.07.176.104.292.104a.366.366 0 0 0 .262-.093.307.307 0 0 0 .102-.232c0-.073-.035-.15-.105-.229-.051-.056-.077-.104-.077-.143 0-.044.024-.082.072-.115a.508.508 0 0 1 .295-.08c.073 0 .14.019.198.057.059.037.098.081.118.133.022.05.034.171.034.366v.26c-.568.26-.937.47-1.106.628-.169.156-.253.332-.253.529a.493.493 0 0 0 .513.507c.25 0 .531-.139.846-.416.018.14.068.244.15.314a.528.528 0 0 0 .346.102c.125 0 .236-.03.333-.091.1-.062.195-.162.287-.298l-.083-.066c-.05.068-.098.102-.146.102a.097.097 0 0 1-.063-.022.132.132 0 0 1-.042-.066 1.055 1.055 0 0 1-.014-.223v-1c0-.278-.013-.456-.038-.533a.72.72 0 0 0-.278-.336c-.142-.104-.335-.157-.58-.157zm5.774 0c-.313 0-.585.128-.819.383-.231.254-.347.595-.347 1.025 0 .351.08.645.237.883.197.293.486.44.868.44.223 0 .418-.058.587-.176.17-.12.324-.322.463-.607l-.094-.06c-.103.16-.2.27-.29.333a.525.525 0 0 1-.3.091.576.576 0 0 1-.457-.228c-.165-.199-.256-.469-.273-.81h1.414c-.014-.421-.118-.738-.311-.951-.191-.215-.417-.323-.678-.323zm11.31 0c-.312 0-.585.128-.818.383-.231.254-.347.595-.347 1.025 0 .351.079.645.237.883.197.293.486.44.868.44.223 0 .418-.058.587-.176.17-.12.324-.322.463-.607l-.094-.06c-.103.16-.2.27-.29.333a.525.525 0 0 1-.3.091.576.576 0 0 1-.457-.228c-.165-.199-.256-.469-.273-.81h1.414c-.014-.421-.118-.738-.311-.951-.191-.215-.417-.323-.678-.323zm10.44 0a.793.793 0 0 0-.437.13.986.986 0 0 0-.276.286v-.339h-1.08v.102c.12.007.202.037.245.088.042.05.063.166.063.348v2.72c0 .176-.018.286-.055.328-.055.06-.14.092-.253.096v.102h1.468v-.102a.666.666 0 0 1-.259-.033.211.211 0 0 1-.099-.104.798.798 0 0 1-.03-.27v-.96c.1.116.197.198.29.246a.864.864 0 0 0 .396.093.893.893 0 0 0 .53-.168c.159-.114.28-.278.363-.493.084-.217.127-.456.127-.717 0-.242-.04-.468-.121-.678-.081-.211-.2-.377-.356-.496a.821.821 0 0 0-.515-.179zm2.671 0c-.396 0-.708.16-.934.482a1.569 1.569 0 0 0-.28.926c0 .364.102.676.308.935a1 1 0 0 0 .824.388c.204 0 .395-.055.575-.165.182-.112.334-.282.455-.51l-.085-.066a1.18 1.18 0 0 1-.287.24.546.546 0 0 1-.256.063.564.564 0 0 1-.358-.118c-.134-.109-.24-.273-.317-.494a2.11 2.11 0 0 1-.116-.697c0-.292.048-.509.143-.65.063-.094.138-.141.226-.141.057 0 .107.023.149.069.042.046.07.127.08.243.017.183.06.31.13.382a.365.365 0 0 0 .27.108.335.335 0 0 0 .248-.094.334.334 0 0 0 .096-.25c0-.166-.079-.316-.237-.45-.156-.134-.367-.2-.634-.2zm2.478 0c-.373 0-.667.138-.882.414-.213.273-.32.595-.32.964 0 .358.105.674.315.946.209.272.507.407.895.407.395 0 .705-.149.93-.446.185-.246.277-.552.277-.918 0-.254-.05-.487-.151-.7a1.102 1.102 0 0 0-.438-.493 1.195 1.195 0 0 0-.626-.174zm3.319 0a.793.793 0 0 0-.439.13.986.986 0 0 0-.276.286v-.339h-1.08v.102c.122.007.203.037.245.088.043.05.064.166.064.348v2.72c0 .176-.019.286-.055.328-.056.06-.14.092-.254.096v.102h1.469v-.102a.666.666 0 0 1-.259-.033.211.211 0 0 1-.1-.104.798.798 0 0 1-.03-.27v-.96c.101.116.198.198.29.246a.864.864 0 0 0 .397.093.893.893 0 0 0 .529-.168c.16-.114.28-.278.364-.493.084-.217.127-.456.127-.717 0-.242-.04-.468-.122-.678-.08-.211-.2-.377-.355-.496a.821.821 0 0 0-.515-.179zm7.388 0c-.202 0-.396.032-.584.096a.987.987 0 0 0-.438.279.567.567 0 0 0-.157.378.32.32 0 0 0 .116.245c.079.07.176.104.292.104a.366.366 0 0 0 .262-.093.307.307 0 0 0 .101-.232c0-.073-.035-.15-.104-.229-.052-.056-.077-.104-.077-.143 0-.044.024-.082.071-.115a.507.507 0 0 1 .295-.08c.073 0 .14.019.198.057a.28.28 0 0 1 .12.133c.021.05.032.171.032.366v.26c-.567.26-.936.47-1.105.628-.17.156-.254.332-.254.529a.494.494 0 0 0 .513.507c.25 0 .532-.139.846-.416.019.14.07.244.152.314a.528.528 0 0 0 .344.102c.125 0 .236-.03.334-.091.099-.062.195-.162.287-.298l-.083-.066c-.05.068-.099.102-.146.102a.099.099 0 0 1-.064-.022.132.132 0 0 1-.041-.066 1.069 1.069 0 0 1-.014-.223v-1c0-.278-.013-.456-.038-.533a.72.72 0 0 0-.279-.336c-.141-.104-.334-.157-.579-.157zm6.58 0c-.374 0-.668.138-.883.414-.213.273-.32.595-.32.964 0 .358.105.674.315.946.21.272.508.407.895.407.395 0 .705-.149.929-.446.186-.246.279-.552.279-.918 0-.254-.05-.487-.152-.7a1.102 1.102 0 0 0-.438-.493 1.195 1.195 0 0 0-.626-.174zm3.317 0a.793.793 0 0 0-.438.13.985.985 0 0 0-.275.286v-.339h-1.08v.102c.12.007.202.037.245.088.042.05.063.166.063.348v2.72c0 .176-.018.286-.055.328-.055.06-.14.092-.254.096v.102h1.47v-.102a.666.666 0 0 1-.26-.033.211.211 0 0 1-.099-.104.798.798 0 0 1-.03-.27v-.96c.1.116.197.198.289.246a.865.865 0 0 0 .397.093.893.893 0 0 0 .53-.168c.159-.114.28-.278.363-.493.084-.217.126-.456.126-.717 0-.242-.04-.468-.12-.678-.081-.211-.2-.377-.356-.496a.822.822 0 0 0-.516-.179zm2.646 0c-.373 0-.667.138-.881.414-.214.273-.32.595-.32.964 0 .358.104.674.314.946.21.272.508.407.895.407.395 0 .705-.149.93-.446.185-.246.278-.552.278-.918 0-.254-.05-.487-.152-.7a1.102 1.102 0 0 0-.438-.493 1.195 1.195 0 0 0-.626-.174zm-33.704.033a.55.55 0 0 0-.41.154c-.1.101-.198.285-.295.552-.07.189-.144.318-.22.386-.076.066-.217.099-.422.099v-.634c0-.167.016-.277.05-.328.034-.052.1-.08.2-.083v-.102h-1.311v.102c.11 0 .185.032.225.097.043.062.064.179.064.35v1.52c0 .18-.027.293-.08.337a.329.329 0 0 1-.21.069v.102h1.312v-.102c-.09-.006-.154-.039-.193-.1-.038-.062-.057-.173-.057-.335v-.717h.165l.766 1.254h.992v-.102c-.141-.011-.276-.121-.405-.33l-.245-.395c-.136-.222-.246-.364-.33-.427-.084-.062-.218-.112-.403-.149a.722.722 0 0 0 .151-.176c.03-.053.083-.183.16-.389.096-.251.19-.377.284-.377.062 0 .095.074.096.223.004.213.11.32.317.32a.31.31 0 0 0 .246-.108.388.388 0 0 0 .096-.264.383.383 0 0 0-.162-.323.61.61 0 0 0-.38-.124zm-36.11.02c-.334 0-.612.12-.835.363-.22.24-.33.577-.33 1.009 0 .399.107.716.322.953.217.236.477.353.78.353a.9.9 0 0 0 .697-.308c.185-.208.298-.438.336-.69l-.085-.054c-.083.22-.186.376-.309.468a.701.701 0 0 1-.43.135c-.248 0-.464-.106-.647-.32-.184-.213-.275-.507-.273-.882h1.744c0-.312-.09-.56-.273-.746a.93.93 0 0 0-.697-.282zm-17.749.002c-.292 0-.519.066-.68.198-.162.133-.243.278-.243.436 0 .083.02.148.063.196.044.048.1.071.168.071.07 0 .126-.023.169-.068.044-.046.066-.112.066-.196l-.006-.16c0-.08.035-.152.105-.215a.391.391 0 0 1 .275-.093c.153 0 .269.046.348.14.08.094.121.266.121.518v.1c-.434.157-.744.291-.932.402-.185.11-.316.228-.39.353a.599.599 0 0 0-.084.319.66.66 0 0 0 .168.471c.114.12.258.18.433.18a.747.747 0 0 0 .317-.07c.066-.03.229-.146.488-.346.002.15.03.256.083.319a.268.268 0 0 0 .215.094c.187 0 .384-.138.59-.413v-.155c-.111.11-.185.177-.224.201a.15.15 0 0 1-.077.02.114.114 0 0 1-.074-.028c-.02-.019-.036-.054-.045-.108a4 4 0 0 1-.013-.443v-.857c0-.245-.017-.407-.05-.486a.52.52 0 0 0-.24-.267 1.181 1.181 0 0 0-.551-.113zm8.59 0a1.156 1.156 0 0 0-1.05.673 1.527 1.527 0 0 0-.17.689c0 .318.095.604.284.86.224.303.526.454.906.454.234 0 .445-.058.634-.176.191-.117.34-.292.45-.524a1.61 1.61 0 0 0 .162-.686c0-.322-.098-.606-.295-.854a1.119 1.119 0 0 0-.92-.436zm2.952 0c-.33 0-.614.124-.851.372-.235.248-.353.57-.353.968 0 .41.107.734.32.975.213.24.463.361.75.361.24 0 .46-.089.658-.267.198-.18.332-.436.4-.769l-.08-.038c-.096.222-.194.375-.295.46a.724.724 0 0 1-.485.184c-.252 0-.452-.115-.601-.344a1.458 1.458 0 0 1-.22-.8c0-.295.074-.533.223-.713a.547.547 0 0 1 .443-.204c.114 0 .203.028.268.083.064.057.101.14.11.248.011.108.032.181.063.22.055.07.137.105.246.105a.26.26 0 0 0 .187-.064.225.225 0 0 0 .07-.17c0-.142-.08-.278-.24-.409a.928.928 0 0 0-.613-.198zm9.018 0a.73.73 0 0 0-.416.135c-.13.089-.26.244-.391.466v-.59h-.105l-.777.315.033.087a.498.498 0 0 1 .168-.038.22.22 0 0 1 .13.033.185.185 0 0 1 .071.1c.015.044.022.147.022.31v2.388c0 .183-.01.297-.03.341a.192.192 0 0 1-.08.1.5.5 0 0 1-.259.057h-.069v.103h1.323v-.103c-.138 0-.233-.014-.287-.041a.242.242 0 0 1-.11-.113c-.02-.046-.03-.155-.03-.328v-.769a.826.826 0 0 0 .248.165c.1.04.217.058.353.058a.992.992 0 0 0 .777-.35c.25-.284.375-.645.375-1.08 0-.39-.104-.706-.312-.948a.798.798 0 0 0-.634-.298zm6.535.022v.102c.108 0 .184.027.226.08.042.052.063.158.063.32v1.582c0 .152-.022.256-.066.311-.042.054-.116.08-.223.08v.102h1.312v-.102c-.092 0-.157-.023-.196-.071-.037-.05-.055-.157-.055-.32v-.755h.739v.774c0 .164-.019.267-.055.309-.037.04-.101.061-.193.063v.102h1.309v-.102c-.109-.004-.184-.03-.226-.077-.042-.048-.064-.152-.064-.314v-1.64c0-.123.022-.21.064-.262.044-.053.12-.08.226-.08v-.102h-1.31v.102c.111 0 .18.03.208.091a.705.705 0 0 1 .04.281v.681h-.738v-.68c0-.157.018-.257.055-.301.039-.044.104-.068.196-.072v-.102zm6.083 0v.102c.12.01.195.04.228.091.035.051.053.181.053.389v1.535c0 .134-.016.224-.047.27-.03.046-.107.075-.234.088v.102h1.435c.375 0 .67-.057.885-.173.215-.116.323-.29.323-.521 0-.382-.266-.605-.797-.667.393-.1.59-.292.59-.576a.515.515 0 0 0-.284-.477c-.19-.108-.432-.163-.73-.163zm5.688 0v.102c.1.002.167.014.204.036.039.022.068.068.088.138.02.068.03.17.03.306 0 .45-.065.873-.195 1.27-.129.397-.308.605-.537.623v.78h.101c.054-.452.336-.678.847-.678h.747c.529 0 .815.226.857.678h.102v-.78c-.1-.004-.172-.027-.218-.071-.044-.046-.066-.144-.066-.293V23.39c0-.103.016-.185.05-.248.034-.062.112-.094.234-.094v-.102zm2.638 0v.102c.193 0 .29.129.29.386v1.59c0 .147-.023.25-.067.31-.044.058-.118.087-.223.087v.102h1.311v-.102c-.165-.005-.248-.128-.25-.369l.738-1.262v1.262c0 .246-.082.37-.248.37v.101h1.312v-.102c-.108 0-.185-.025-.229-.077-.042-.051-.063-.153-.063-.306v-1.64c0-.136.024-.228.072-.276.047-.047.121-.072.22-.074v-.102h-1.312v.102c.087 0 .15.027.188.08.038.053.058.148.06.284l-.738 1.279v-1.257c0-.15.017-.252.052-.303.037-.052.103-.08.198-.083v-.102zm3.161 0v.673h.102c.04-.204.095-.338.165-.402.07-.065.195-.097.375-.097h.257v1.877c0 .169-.022.282-.064.339-.04.057-.116.085-.226.085v.102h1.35v-.102c-.11-.002-.186-.03-.228-.083-.04-.053-.06-.167-.06-.341V23.12h.261c.195 0 .324.038.389.113.064.074.112.202.145.386h.103v-.673zm9.812 0v.102a.463.463 0 0 1 .215.138c.06.066.153.243.278.532l.832 1.91-.08.215c-.1.275-.185.452-.259.529-.05.053-.096.08-.14.08a.074.074 0 0 1-.064-.03c-.015-.02-.023-.066-.025-.135-.001-.123-.03-.214-.087-.273a.288.288 0 0 0-.221-.089.321.321 0 0 0-.243.105.376.376 0 0 0-.096.265c0 .123.047.228.14.314.096.088.22.132.372.132.192 0 .35-.077.477-.231.09-.11.228-.405.414-.882l.736-1.91c.125-.325.214-.516.267-.57a.32.32 0 0 1 .207-.1v-.102h-.863v.102c.114.004.193.026.237.066.046.04.07.095.07.163 0 .108-.055.301-.164.579l-.3.78-.441-1.01c-.092-.205-.138-.343-.138-.413 0-.044.018-.081.055-.112.037-.031.1-.05.19-.053v-.102zm15.999 0v.102c.108 0 .183.027.226.08.042.052.063.158.063.32v1.582c0 .152-.022.256-.066.311-.042.054-.117.08-.223.08v.102h1.311v-.102c-.092 0-.156-.023-.195-.071-.037-.05-.055-.157-.055-.32v-.755h.738v.774c0 .164-.018.267-.055.309-.036.04-.101.061-.193.063v.102h1.31v-.102c-.109-.004-.184-.03-.227-.077-.042-.048-.063-.152-.063-.314v-1.64c0-.123.021-.21.063-.262.044-.053.12-.08.227-.08v-.102h-1.31v.102c.11 0 .18.03.207.091a.705.705 0 0 1 .041.281v.681h-.738v-.68c0-.157.018-.257.055-.301.039-.044.103-.068.195-.072v-.102zm7.49 0v.102c.113.01.188.04.227.091.04.05.06.14.06.27v1.637c0 .146-.02.243-.063.292-.042.048-.117.076-.223.083v.102h1.377v-.102c-.128-.004-.214-.032-.256-.085-.042-.053-.063-.144-.063-.273V23.12h.51c.207 0 .348.031.421.093.074.061.132.196.174.406h.102v-.673zm11.259 0v.102c.1.002.167.014.204.036.039.022.068.068.089.138.02.068.03.17.03.306 0 .45-.065.873-.196 1.27-.128.397-.308.605-.537.623v.78h.102c.053-.452.335-.678.845-.678h.748c.529 0 .814.226.857.678h.102v-.78c-.1-.004-.172-.027-.218-.071-.044-.046-.066-.144-.066-.293V23.39c0-.103.016-.185.05-.248.034-.062.113-.094.234-.094v-.102zm-87.95.052l-.104.684h.125a.994.994 0 0 1 .132-.336.349.349 0 0 1 .165-.138c.057-.02.165-.03.323-.03h.225v1.753c0 .216-.025.352-.077.405-.05.053-.162.081-.339.085v.102h1.373v-.102a1.664 1.664 0 0 1-.353-.033.184.184 0 0 1-.113-.1c-.022-.05-.033-.17-.033-.357v-1.753h.22c.16 0 .273.012.34.035a.37.37 0 0 1 .176.15.792.792 0 0 1 .11.32h.124l-.11-.685zm2.46 0v.105c.13 0 .216.015.259.044.042.028.073.06.093.097.02.035.03.15.03.347v1.34c0 .207-.022.342-.068.402-.046.059-.15.088-.314.088v.102h.964v-.102a.601.601 0 0 1-.248-.038.202.202 0 0 1-.108-.113 1.275 1.275 0 0 1-.027-.34v-1.518l.91 2.111h.096l.893-2.111v1.519c0 .215-.026.35-.077.407-.052.056-.153.083-.303.083v.102h1.22v-.102a.621.621 0 0 1-.25-.038.202.202 0 0 1-.108-.113 1.409 1.409 0 0 1-.025-.34v-1.339c0-.202.012-.321.036-.358a.287.287 0 0 1 .097-.09c.042-.027.125-.04.25-.04v-.105h-.851l-.788 1.867-.794-1.867zm18.087 0v.105c.13 0 .218.015.26.044.042.028.073.06.093.097.02.035.03.15.03.347v1.34c0 .207-.022.342-.068.402-.046.059-.151.088-.315.088v.102h1.213c.344 0 .606-.064.788-.193a.606.606 0 0 0 .276-.518c0-.463-.375-.694-1.124-.694l-.314.005v-.532c0-.215.013-.339.041-.372a.29.29 0 0 1 .104-.083c.043-.022.155-.033.337-.033v-.105zm2.272 0v.105a.882.882 0 0 1 .295.036c.051.02.087.056.107.108.02.051.03.166.03.344v1.34c0 .18-.014.298-.044.355-.03.057-.066.093-.11.108a1.413 1.413 0 0 1-.278.027v.102h1.27v-.102a.624.624 0 0 1-.25-.038.2.2 0 0 1-.105-.116 1.393 1.393 0 0 1-.025-.336v-1.34c0-.178.009-.292.027-.341a.204.204 0 0 1 .108-.111.622.622 0 0 1 .245-.036v-.105zm13.278.05a.23.23 0 0 1 .155.05c.068.057.117.14.149.25.033.111.05.314.05.61h-.75v-.097c0-.284.054-.509.162-.672.06-.094.139-.14.234-.14zm11.311 0a.23.23 0 0 1 .155.05c.068.057.117.14.149.25.033.111.05.314.05.61h-.75v-.097c0-.284.054-.509.162-.672.06-.094.139-.14.234-.14zm15.641.017c.077 0 .14.019.187.057.068.054.12.14.155.257.035.116.052.33.052.642 0 .531-.018.884-.055 1.058a.464.464 0 0 1-.143.262.312.312 0 0 1-.207.07.307.307 0 0 1-.226-.103.533.533 0 0 1-.13-.297 3.713 3.713 0 0 1-.038-.552c0-.37.01-.66.03-.868.022-.21.066-.35.132-.419a.324.324 0 0 1 .243-.107zm17.286 0c.077 0 .14.019.188.057.068.054.12.14.154.257.035.116.052.33.052.642 0 .531-.018.884-.055 1.058a.463.463 0 0 1-.143.262.312.312 0 0 1-.207.07.307.307 0 0 1-.226-.103.532.532 0 0 1-.13-.297 3.71 3.71 0 0 1-.038-.552c0-.37.01-.66.03-.868.022-.21.066-.35.133-.419a.323.323 0 0 1 .242-.107zm5.964 0c.078 0 .14.019.188.057.068.054.12.14.154.257.035.116.052.33.052.642 0 .531-.018.884-.055 1.058a.464.464 0 0 1-.143.262.312.312 0 0 1-.207.07.307.307 0 0 1-.226-.103.533.533 0 0 1-.13-.297 3.713 3.713 0 0 1-.038-.552c0-.37.01-.66.03-.868.022-.21.066-.35.133-.419a.324.324 0 0 1 .242-.107zm-79.069.038c.203 0 .369.089.5.265.192.257.288.61.288 1.058 0 .359-.057.611-.173.758a.537.537 0 0 1-.441.22c-.239 0-.432-.133-.579-.399a1.96 1.96 0 0 1-.218-.95c0-.229.03-.415.091-.56a.603.603 0 0 1 .237-.303.576.576 0 0 1 .295-.089zm5.427.006c.162 0 .294.108.397.325v1.728c-.121.167-.254.25-.397.25-.156 0-.278-.09-.366-.272-.087-.184-.13-.454-.13-.81 0-.405.043-.708.13-.912.088-.206.21-.309.366-.309zm1.232 0c.318 0 .477.4.477 1.202 0 .378-.046.656-.138.835-.09.178-.206.267-.347.267a.416.416 0 0 1-.226-.077.446.446 0 0 1-.174-.22v-1.784c.138-.149.274-.223.408-.223zm2.43.008c.1 0 .194.03.284.088.092.059.161.14.207.243.03.066.049.18.058.342h-1.168c.02-.212.09-.376.209-.494a.571.571 0 0 1 .41-.179zm16.675.003c.438.005.656.168.656.488 0 .312-.218.475-.656.488zm5.107 0h.681v1.904c0 .219-.09.328-.268.328h-.848c.29-.426.435-1.035.435-1.827zm50.36 0h.68v1.904c0 .219-.09.328-.268.328h-.849c.29-.426.436-1.035.436-1.827zm-30.827.085a.32.32 0 0 1 .28.163c.105.164.158.467.158.912 0 .434-.048.728-.144.882-.064.105-.146.157-.245.157-.18 0-.35-.112-.507-.336v-1.375c.12-.268.272-.403.458-.403zm8.466 0a.32.32 0 0 1 .281.163c.105.164.157.467.157.912 0 .434-.048.728-.143.882-.065.105-.146.157-.245.157-.18 0-.35-.112-.508-.336v-1.375c.12-.268.273-.403.458-.403zm17.286 0a.32.32 0 0 1 .281.163c.105.164.157.467.157.912 0 .434-.047.728-.143.882-.064.105-.146.157-.245.157-.18 0-.35-.112-.507-.336v-1.375c.12-.268.271-.403.457-.403zm-64.319.12c.162 0 .302.07.42.214.169.208.253.504.253.89 0 .34-.074.604-.223.791a.543.543 0 0 1-.446.215.59.59 0 0 1-.38-.121.518.518 0 0 1-.188-.281 2.017 2.017 0 0 1-.025-.403v-.942c.152-.165.262-.265.328-.298a.57.57 0 0 1 .261-.066zm-19.956.694v.961c-.228.184-.412.276-.551.276a.36.36 0 0 1-.273-.13.477.477 0 0 1-.119-.33.49.49 0 0 1 .094-.29.93.93 0 0 1 .312-.253c.08-.046.26-.124.537-.234zm31.38.06v.863c-.12.102-.227.154-.32.154a.25.25 0 0 1-.192-.074.316.316 0 0 1-.091-.224.51.51 0 0 1 .107-.3 1.61 1.61 0 0 1 .497-.419zm43.381 0v.863c-.12.102-.228.154-.32.154a.25.25 0 0 1-.192-.074.316.316 0 0 1-.091-.224.51.51 0 0 1 .107-.3 1.61 1.61 0 0 1 .496-.419zm-40.878.19c.278 0 .476.04.596.122.12.08.181.209.181.385a.56.56 0 0 1-.557.576c-.092 0-.15-.017-.178-.052-.028-.037-.042-.098-.042-.185zm-11.432.03c.49 0 .736.177.736.53a.461.461 0 0 1-.174.369.663.663 0 0 1-.446.146 1.14 1.14 0 0 1-.292-.039v-1.003c.075-.002.134-.002.176-.002zm69.492.673c-.1 0-.184.032-.254.097a.307.307 0 0 0-.102.231c0 .094.026.167.08.22a.29.29 0 0 0 .215.08.232.232 0 0 0 .105-.024.405.405 0 0 1 .132-.056c.013 0 .026.009.039.025a.152.152 0 0 1 .025.089.654.654 0 0 1-.158.415.89.89 0 0 1-.438.293v.12c.285-.093.492-.221.623-.385a.815.815 0 0 0 .198-.526.598.598 0 0 0-.143-.42.42.42 0 0 0-.322-.159zm-10.352 3.712a.32.32 0 0 1-.169.11 3.881 3.881 0 0 1-.51.025c-.39.004-.663.041-.818.113-.154.072-.29.185-.408.342-.117.156-.23.392-.336.708-.106.314-.16.653-.16 1.017 0 .469.103.866.309 1.193.206.325.505.488.898.488.386 0 .692-.142.918-.427.226-.287.339-.605.339-.954 0-.338-.112-.638-.336-.9a1.075 1.075 0 0 0-.86-.395c-.501 0-.858.266-1.07.797.011-.252.049-.485.111-.698.064-.213.153-.385.267-.515.114-.133.224-.215.328-.248.107-.035.298-.056.573-.064a2.77 2.77 0 0 0 .532-.05c.1-.027.192-.08.279-.157.086-.077.16-.205.22-.385zm-9.073.168c-.056 0-.101.02-.138.06a.222.222 0 0 0-.053.155c0 .16.075.295.224.405.15.11.378.165.68.165.232 0 .44-.06.626-.182.186-.12.279-.252.279-.394a.197.197 0 0 0-.058-.146.187.187 0 0 0-.14-.06c-.113 0-.207.095-.285.286a.682.682 0 0 1-.165.267c-.059.05-.146.075-.262.075a.498.498 0 0 1-.204-.047c-.068-.033-.129-.114-.182-.243-.094-.227-.201-.341-.322-.341zm-67.408 1.15c-.335 0-.613.12-.835.363-.22.24-.331.577-.331 1.009 0 .398.107.716.322.953.217.235.477.353.78.353a.9.9 0 0 0 .697-.308c.186-.208.298-.438.337-.69l-.086-.055c-.082.22-.185.377-.309.469a.701.701 0 0 1-.43.135c-.248 0-.463-.107-.647-.32-.184-.213-.275-.507-.273-.882h1.745c0-.312-.091-.561-.273-.747a.93.93 0 0 0-.697-.28zm27.649 0c-.335 0-.613.12-.835.363-.22.24-.331.577-.331 1.009 0 .398.107.716.322.953.217.235.477.353.78.353a.9.9 0 0 0 .697-.308c.186-.208.298-.438.337-.69l-.086-.055c-.082.22-.185.377-.309.469a.701.701 0 0 1-.43.135c-.248 0-.463-.107-.647-.32-.184-.213-.275-.507-.273-.882h1.745c0-.312-.091-.561-.273-.747a.93.93 0 0 0-.697-.28zm22.401 0c-.334 0-.613.12-.835.363-.22.24-.33.577-.33 1.009 0 .398.107.716.322.953.216.235.476.353.78.353a.9.9 0 0 0 .697-.308c.186-.208.297-.438.336-.69l-.085-.055c-.083.22-.186.377-.309.469a.701.701 0 0 1-.43.135c-.248 0-.464-.107-.648-.32-.184-.213-.275-.507-.273-.882h1.745c0-.312-.091-.561-.273-.747a.93.93 0 0 0-.697-.28zm8.07 0c-.335 0-.613.12-.835.363-.22.24-.331.577-.331 1.009 0 .398.107.716.322.953.217.235.477.353.78.353a.9.9 0 0 0 .698-.308c.185-.208.297-.438.336-.69l-.086-.055c-.082.22-.185.377-.308.469a.701.701 0 0 1-.43.135c-.248 0-.464-.107-.648-.32-.184-.213-.275-.507-.273-.882h1.745c0-.312-.091-.561-.273-.747a.93.93 0 0 0-.697-.28zm22.776 0c-.334 0-.613.12-.835.363-.22.24-.33.577-.33 1.009 0 .398.107.716.322.953.217.235.476.353.78.353a.9.9 0 0 0 .697-.308c.185-.208.298-.438.336-.69l-.085-.055c-.083.22-.186.377-.31.469a.701.701 0 0 1-.43.135c-.247 0-.463-.107-.647-.32-.183-.213-.274-.507-.273-.882h1.745c0-.312-.09-.561-.273-.747a.93.93 0 0 0-.697-.28zm-76.674.002a.728.728 0 0 0-.416.135c-.13.088-.261.244-.391.466v-.59h-.105l-.778.314.034.088a.496.496 0 0 1 .167-.038c.056 0 .099.011.13.033a.185.185 0 0 1 .072.1c.015.043.022.147.022.31v2.387c0 .184-.01.298-.03.342a.192.192 0 0 1-.08.1.5.5 0 0 1-.26.057h-.069v.102h1.323v-.102c-.137 0-.233-.014-.286-.041a.243.243 0 0 1-.11-.113c-.02-.046-.03-.155-.03-.328v-.77a.826.826 0 0 0 .248.166.97.97 0 0 0 .352.058.992.992 0 0 0 .777-.35c.25-.284.375-.645.375-1.08 0-.39-.104-.706-.311-.949a.8.8 0 0 0-.634-.297zm2.36 0c-.293 0-.52.066-.682.198-.161.133-.242.278-.242.436 0 .083.021.148.063.196.044.048.1.071.168.071.07 0 .126-.023.168-.069.044-.046.066-.111.066-.196l-.005-.16c0-.08.035-.152.105-.214a.392.392 0 0 1 .276-.094c.152 0 .268.047.347.14.08.095.12.267.12.519v.099c-.433.158-.743.292-.93.402-.186.11-.317.228-.392.353a.599.599 0 0 0-.083.32c0 .195.057.352.169.471.114.12.258.18.432.18a.745.745 0 0 0 .317-.07c.066-.03.229-.146.488-.347.002.151.03.257.082.32a.268.268 0 0 0 .215.094c.188 0 .385-.138.59-.414v-.154c-.11.11-.184.177-.223.2a.152.152 0 0 1-.077.02.114.114 0 0 1-.075-.027c-.02-.019-.034-.055-.043-.108a3.945 3.945 0 0 1-.014-.443v-.858c0-.244-.017-.406-.05-.485a.52.52 0 0 0-.24-.267 1.18 1.18 0 0 0-.55-.113zm2.678 0c-.33 0-.614.124-.851.372-.236.248-.353.57-.353.967 0 .41.106.735.32.976.213.24.462.361.749.361.24 0 .46-.089.659-.267.198-.18.331-.436.4-.769l-.08-.039c-.096.223-.194.376-.296.46a.725.725 0 0 1-.485.185c-.251 0-.451-.115-.6-.344a1.458 1.458 0 0 1-.22-.8c0-.295.074-.533.222-.714a.547.547 0 0 1 .444-.203c.114 0 .203.027.267.083.065.056.101.14.11.248.012.108.033.181.064.22.055.07.137.105.246.105a.26.26 0 0 0 .187-.064c.046-.044.069-.1.069-.17 0-.142-.08-.278-.24-.409a.928.928 0 0 0-.612-.198zm5.537 0a1.156 1.156 0 0 0-1.05.673c-.114.228-.17.457-.17.689 0 .317.094.604.283.86.224.303.526.454.907.454.233 0 .444-.058.633-.176.191-.118.342-.293.45-.524.108-.232.162-.46.162-.686 0-.322-.098-.606-.294-.855a1.12 1.12 0 0 0-.921-.435zm5.377 0c-.292 0-.52.066-.68.198-.163.133-.243.278-.243.436 0 .083.021.148.063.196.044.048.1.071.168.071.07 0 .126-.023.168-.069.044-.046.066-.111.066-.196l-.005-.16c0-.08.035-.152.105-.214a.392.392 0 0 1 .276-.094c.152 0 .268.047.347.14.08.095.12.267.12.519v.099c-.433.158-.743.292-.93.402-.186.11-.317.228-.392.353a.599.599 0 0 0-.083.32c0 .195.057.352.169.471.114.12.258.18.432.18a.745.745 0 0 0 .317-.07c.066-.03.229-.146.488-.347.002.151.03.257.082.32a.268.268 0 0 0 .215.094c.188 0 .385-.138.59-.414v-.154c-.11.11-.184.177-.223.2a.152.152 0 0 1-.077.02.114.114 0 0 1-.075-.027c-.02-.019-.034-.055-.044-.108a3.945 3.945 0 0 1-.013-.443v-.858c0-.244-.017-.406-.05-.485a.52.52 0 0 0-.24-.267 1.18 1.18 0 0 0-.55-.113zm4.818 0c-.293 0-.52.066-.681.198-.162.133-.242.278-.242.436 0 .083.02.148.063.196a.22.22 0 0 0 .168.071c.07 0 .126-.023.168-.069.044-.046.066-.111.066-.196l-.005-.16c0-.08.035-.152.104-.214a.391.391 0 0 1 .276-.094c.152 0 .268.047.347.14.081.095.122.267.122.519v.099c-.434.158-.745.292-.932.402-.186.11-.316.228-.391.353a.599.599 0 0 0-.083.32.66.66 0 0 0 .168.471c.114.12.258.18.433.18a.745.745 0 0 0 .317-.07c.066-.03.228-.146.488-.347.001.151.029.257.082.32a.268.268 0 0 0 .215.094c.188 0 .384-.138.59-.414v-.154c-.11.11-.185.177-.223.2a.15.15 0 0 1-.077.02.114.114 0 0 1-.075-.027c-.02-.019-.035-.055-.044-.108a3.945 3.945 0 0 1-.014-.443v-.858c0-.244-.016-.406-.05-.485a.52.52 0 0 0-.24-.267 1.181 1.181 0 0 0-.55-.113zm7.717 0c-.33 0-.615.124-.852.372-.235.248-.353.57-.353.967 0 .41.107.735.32.976.213.24.463.361.75.361.24 0 .46-.089.658-.267.199-.18.332-.436.4-.769l-.08-.039c-.095.223-.194.376-.295.46a.725.725 0 0 1-.485.185c-.252 0-.452-.115-.6-.344a1.458 1.458 0 0 1-.221-.8c0-.295.074-.533.223-.714a.547.547 0 0 1 .444-.203c.114 0 .203.027.267.083.064.056.101.14.11.248.011.108.033.181.064.22.055.07.137.105.245.105a.26.26 0 0 0 .187-.064c.046-.044.07-.1.07-.17 0-.142-.08-.278-.24-.409a.928.928 0 0 0-.612-.198zm9.536 0c-.331 0-.615.124-.852.372-.235.248-.353.57-.353.967 0 .41.107.735.32.976.213.24.463.361.75.361.24 0 .46-.089.658-.267.199-.18.332-.436.4-.769l-.08-.039c-.095.223-.194.376-.295.46a.724.724 0 0 1-.485.185c-.251 0-.452-.115-.6-.344a1.458 1.458 0 0 1-.221-.8c0-.295.074-.533.223-.714a.547.547 0 0 1 .444-.203c.114 0 .203.027.267.083.064.056.101.14.11.248.012.108.032.181.064.22.055.07.137.105.245.105a.26.26 0 0 0 .188-.064.225.225 0 0 0 .068-.17c0-.142-.08-.278-.24-.409a.928.928 0 0 0-.611-.198zm2.502 0c-.33 0-.614.124-.851.372-.235.248-.353.57-.353.967 0 .41.107.735.32.976.213.24.462.361.749.361.24 0 .46-.089.659-.267.198-.18.331-.436.4-.769l-.08-.039c-.096.223-.194.376-.295.46a.725.725 0 0 1-.486.185c-.251 0-.451-.115-.6-.344a1.458 1.458 0 0 1-.22-.8c0-.295.074-.533.223-.714a.547.547 0 0 1 .443-.203c.114 0 .203.027.268.083.064.056.1.14.11.248.01.108.032.181.063.22.055.07.137.105.246.105a.26.26 0 0 0 .187-.064c.046-.044.07-.1.07-.17 0-.142-.08-.278-.24-.409a.928.928 0 0 0-.613-.198zm27.707 0a1.156 1.156 0 0 0-1.05.673 1.527 1.527 0 0 0-.17.689c0 .317.094.604.283.86.224.303.526.454.907.454.233 0 .445-.058.634-.176.19-.118.34-.293.449-.524a1.61 1.61 0 0 0 .163-.686c0-.322-.099-.606-.295-.855a1.119 1.119 0 0 0-.92-.435zm11.835.044a.565.565 0 0 0-.265.066.527.527 0 0 0-.196.166 2.092 2.092 0 0 0-.176.394c-.077.205-.165.34-.265.405a.572.572 0 0 1-.399.088v-.496c0-.217.015-.34.044-.372a.453.453 0 0 1 .097-.083c.036-.022.13-.033.283-.033v-.105h-1.262v.105c.13 0 .217.015.26.044.041.028.073.06.093.097.02.035.03.15.03.347v1.34c0 .207-.023.341-.069.402-.046.059-.15.088-.314.088v.102h1.262v-.102a.827.827 0 0 1-.278-.033.203.203 0 0 1-.116-.108c-.02-.051-.03-.168-.03-.35v-.675c.048-.004.082-.005.104-.005.063 0 .112.02.147.06a.875.875 0 0 1 .121.18c.187.352.397.697.628 1.033h.745v-.102a.47.47 0 0 1-.318-.108c-.071-.068-.18-.229-.325-.484-.182-.32-.306-.514-.374-.582a.45.45 0 0 0-.185-.127c.082-.08.139-.145.168-.193.03-.05.075-.158.138-.325.055-.145.125-.218.21-.218.04 0 .098.014.176.042.06.022.11.033.151.033a.234.234 0 0 0 .177-.066.235.235 0 0 0 .063-.166.23.23 0 0 0-.088-.187.365.365 0 0 0-.237-.072zm-90.496.03v.105a.847.847 0 0 1 .287.036c.051.022.087.059.107.11.02.05.03.164.03.342v1.34c0 .218-.025.354-.077.407-.051.052-.167.08-.347.083v.102h1.262v-.102c-.128 0-.215-.014-.259-.041a.297.297 0 0 1-.094-.1c-.02-.038-.03-.155-.03-.35v-1.752h.535c.228 0 .376.028.446.085.072.055.143.197.213.425h.12l-.101-.69zm2.475 0v.105c.285.01.427.172.427.488 0 .322-.047.649-.14.981-.094.333-.202.556-.326.67a.626.626 0 0 1-.41.179v.802h.101a.917.917 0 0 1 .138-.422.548.548 0 0 1 .287-.226c.114-.035.272-.052.474-.052h.65c.234 0 .41.023.53.069a.54.54 0 0 1 .278.237.824.824 0 0 1 .113.394h.105V32.5c-.165-.006-.271-.037-.317-.096-.044-.06-.066-.223-.066-.486v-1.248c0-.202.012-.321.036-.358a.286.286 0 0 1 .096-.091c.042-.026.126-.039.251-.039v-.105zm14.224 0v.105c.13 0 .217.015.26.044.041.028.072.06.093.097.02.035.03.15.03.347v1.34c0 .207-.023.341-.069.402-.046.059-.15.088-.314.088v.102h1.22v-.102c-.128 0-.214-.014-.258-.041a.297.297 0 0 1-.094-.1c-.02-.038-.03-.155-.03-.35v-1.752h1.091v1.752c0 .215-.025.351-.077.408-.051.055-.153.083-.306.083v.102h1.22v-.102c-.128 0-.214-.014-.258-.041a.297.297 0 0 1-.094-.1c-.02-.038-.03-.155-.03-.35v-1.339c0-.202.012-.321.036-.358a.28.28 0 0 1 .099-.091c.042-.026.125-.039.248-.039v-.105zm6.074 0v.105c.171.013.277.05.317.113.043.063.064.237.064.524v.556c0 .348-.02.591-.058.731-.037.138-.096.207-.18.207-.036 0-.09-.035-.162-.105a.255.255 0 0 0-.18-.08c-.06 0-.11.021-.148.063a.24.24 0 0 0-.055.163c0 .195.117.292.353.292a.593.593 0 0 0 .36-.116.582.582 0 0 0 .213-.36c.037-.164.055-.447.055-.85v-1.063h.84v1.752c0 .186-.015.307-.046.364a.207.207 0 0 1-.13.105 1.29 1.29 0 0 1-.292.022v.102H66.6v-.102c-.128 0-.214-.014-.258-.042a.297.297 0 0 1-.094-.099c-.02-.038-.03-.155-.03-.35v-1.339c0-.202.011-.321.035-.358a.287.287 0 0 1 .097-.091c.042-.026.125-.039.25-.039v-.105zm4.975 0v.105a.847.847 0 0 1 .287.036c.051.022.087.059.107.11.02.05.03.164.03.342v1.34c0 .218-.025.354-.077.407-.051.052-.167.08-.347.083v.102h1.263v-.102c-.13 0-.216-.014-.26-.041a.297.297 0 0 1-.093-.1c-.02-.038-.03-.155-.03-.35v-1.752h.534c.228 0 .377.028.446.085.072.055.143.197.213.425h.12l-.101-.69zm7.373 0l-.105.684h.124a.994.994 0 0 1 .132-.336.349.349 0 0 1 .166-.138c.057-.02.164-.03.322-.03h.226v1.752c0 .217-.026.352-.077.406-.05.053-.163.081-.34.085v.102h1.373v-.102a1.664 1.664 0 0 1-.353-.033.183.183 0 0 1-.112-.1c-.022-.05-.033-.17-.033-.358v-1.752h.22c.16 0 .273.011.339.035a.372.372 0 0 1 .177.15.792.792 0 0 1 .11.319h.124l-.11-.684zm6.247 0c-.365 0-.624.064-.777.19a.561.561 0 0 0-.226.444c0 .303.212.529.634.676l-.59.832c-.097.138-.164.22-.2.245-.036.024-.099.036-.19.036v.102h.628l.804-1.14.089.002.113-.003v.548c0 .215-.026.351-.078.408-.051.055-.153.083-.306.083v.102h1.221v-.102a.523.523 0 0 1-.256-.05.219.219 0 0 1-.105-.124 1.429 1.429 0 0 1-.022-.317v-1.339c0-.167.009-.275.025-.322a.222.222 0 0 1 .105-.119.532.532 0 0 1 .253-.047v-.105zm2.793 0v.105c.13 0 .216.015.258.044.043.028.074.06.094.097.02.035.03.15.03.347v1.34c0 .207-.022.341-.068.402-.046.059-.15.088-.314.088v.102h1.165v-.102c-.134-.002-.221-.032-.262-.091-.04-.059-.062-.166-.066-.323l1.092-1.265v1.188c0 .215-.026.351-.077.408-.052.055-.154.083-.306.083v.102h1.22v-.102c-.128 0-.215-.014-.259-.041a.297.297 0 0 1-.093-.1c-.02-.038-.03-.155-.03-.35v-1.339c0-.202.012-.321.036-.358a.28.28 0 0 1 .099-.091c.042-.026.125-.039.248-.039v-.105h-1.174v.105c.121.002.206.03.256.085.05.056.076.154.08.295l-1.092 1.263v-1.155c0-.202.012-.321.036-.358a.28.28 0 0 1 .1-.091c.042-.026.125-.039.248-.039v-.105zm8.334 0v.105c.17.013.276.05.317.113.042.063.063.237.063.524v.556c0 .348-.019.591-.058.731-.036.138-.096.207-.179.207-.037 0-.09-.035-.162-.105a.255.255 0 0 0-.18-.08c-.06 0-.11.021-.148.063a.24.24 0 0 0-.056.163c0 .195.118.292.353.292a.593.593 0 0 0 .362-.116.581.581 0 0 0 .211-.36c.037-.164.056-.447.056-.85v-1.063h.84v1.752c0 .186-.015.307-.047.364a.208.208 0 0 1-.13.105c-.053.015-.15.022-.291.022v.102h1.306v-.102c-.128 0-.215-.014-.259-.042a.299.299 0 0 1-.094-.099c-.02-.038-.03-.155-.03-.35v-1.339c0-.202.012-.321.036-.358a.287.287 0 0 1 .097-.091c.042-.026.125-.039.25-.039v-.105zm5.333 0v.105c.285.01.427.172.427.488 0 .322-.047.649-.14.981-.094.333-.203.556-.326.67a.625.625 0 0 1-.41.179v.802h.102a.917.917 0 0 1 .138-.422.547.547 0 0 1 .286-.226c.114-.035.272-.052.474-.052h.65c.234 0 .41.023.53.069.119.046.212.125.278.237a.824.824 0 0 1 .113.394h.105V32.5c-.166-.006-.271-.037-.317-.096-.044-.06-.066-.223-.066-.486v-1.248c0-.202.012-.321.035-.358a.287.287 0 0 1 .097-.091c.042-.026.126-.039.25-.039v-.105zm2.39 0v.103a.623.623 0 0 1 .204.077c.029.022.066.065.112.13.06.084.105.154.133.211l.906 1.905-.179.438c-.066.164-.132.274-.198.33-.065.058-.124.086-.18.086a.591.591 0 0 1-.137-.041.741.741 0 0 0-.248-.06.303.303 0 0 0-.21.068.249.249 0 0 0-.074.188c0 .08.035.152.105.215.07.062.159.093.267.093.149 0 .303-.062.463-.187.162-.125.292-.31.391-.554l1.028-2.52c.046-.115.078-.186.094-.211a.456.456 0 0 1 .121-.125.392.392 0 0 1 .157-.043v-.103h-.82v.103c.078 0 .133.006.165.019a.14.14 0 0 1 .068.047.12.12 0 0 1 .02.074.58.58 0 0 1-.047.223l-.565 1.395-.615-1.274a.757.757 0 0 1-.09-.297c0-.054.02-.098.06-.133.042-.036.105-.054.187-.054h.058v-.103zm5.363 0v.105c.13 0 .217.015.259.044.042.028.073.06.093.097.02.035.03.15.03.347v1.34c0 .207-.022.341-.068.402-.046.059-.15.088-.314.088v.102h.964v-.102a.601.601 0 0 1-.248-.038.202.202 0 0 1-.107-.114 1.274 1.274 0 0 1-.028-.339v-1.518l.91 2.111h.096l.893-2.111v1.518c0 .215-.026.351-.077.408-.052.055-.152.083-.303.083v.102h1.22v-.102a.621.621 0 0 1-.25-.038.202.202 0 0 1-.107-.114 1.409 1.409 0 0 1-.025-.339v-1.339c0-.202.012-.321.035-.358a.287.287 0 0 1 .097-.091c.042-.026.126-.039.25-.039v-.105h-.851l-.788 1.866-.794-1.866zm3.569 0v.105c.13 0 .217.015.26.044.041.028.072.06.093.097.02.035.03.15.03.347v1.34c0 .207-.023.341-.07.402-.045.059-.15.088-.313.088v.102h1.213c.343 0 .606-.064.788-.193a.606.606 0 0 0 .276-.518c0-.463-.375-.694-1.125-.694l-.314.005v-.532c0-.215.014-.339.041-.372a.29.29 0 0 1 .105-.083c.042-.022.154-.033.336-.033v-.105zm2.27 0v.105a.882.882 0 0 1 .296.036c.051.02.087.056.107.107.02.052.03.167.03.345v1.34c0 .18-.014.298-.044.355-.029.057-.065.093-.11.107a1.413 1.413 0 0 1-.278.028v.102h1.27v-.102a.624.624 0 0 1-.25-.038.2.2 0 0 1-.105-.116 1.393 1.393 0 0 1-.025-.337v-1.339c0-.178.01-.292.028-.342a.204.204 0 0 1 .107-.11.622.622 0 0 1 .246-.036v-.105zm1.525 0v.105c.13 0 .217.015.26.044.041.028.073.06.093.097.02.035.03.15.03.347v1.34c0 .207-.023.341-.069.402-.046.059-.15.088-.314.088v.102h1.166v-.102c-.134-.002-.221-.032-.262-.091-.04-.059-.062-.166-.066-.323l1.091-1.265v1.188c0 .215-.026.351-.077.408-.052.055-.154.083-.306.083v.102h1.221v-.102c-.129 0-.215-.014-.259-.041a.299.299 0 0 1-.094-.1c-.02-.038-.03-.155-.03-.35v-1.339c0-.202.012-.321.036-.358a.28.28 0 0 1 .099-.091c.042-.026.125-.039.248-.039v-.105h-1.174v.105c.121.002.207.03.256.085.05.056.077.154.08.295l-1.091 1.263v-1.155c0-.202.012-.321.036-.358a.28.28 0 0 1 .099-.091c.042-.026.125-.039.248-.039v-.105zm10.002 0l-.108.687h.124c.05-.212.122-.348.215-.41.096-.065.254-.097.474-.097v1.752c0 .215-.025.351-.077.408-.051.055-.152.083-.303.083v.102H126c.401 0 .688-.065.86-.196a.61.61 0 0 0 .262-.512.623.623 0 0 0-.132-.397.72.72 0 0 0-.375-.243c-.164-.05-.396-.074-.697-.074h-.24v-.51c0-.219.015-.345.044-.378a.414.414 0 0 1 .102-.08c.038-.02.15-.03.336-.03v-.105zm8.089 0l-.105.684h.124a.994.994 0 0 1 .133-.336.349.349 0 0 1 .165-.138c.057-.02.164-.03.322-.03h.226v1.752c0 .217-.025.352-.077.406-.05.053-.162.081-.339.085v.102h1.373v-.102a1.664 1.664 0 0 1-.353-.033.184.184 0 0 1-.113-.1c-.022-.05-.033-.17-.033-.358v-1.752h.22c.16 0 .273.011.34.035a.37.37 0 0 1 .175.15.792.792 0 0 1 .111.319h.124l-.11-.684zm-70.117.105c.202 0 .368.088.498.265.193.257.29.61.29 1.058 0 .358-.058.611-.174.758a.537.537 0 0 1-.44.22c-.24 0-.433-.133-.58-.4-.145-.266-.217-.583-.217-.95 0-.228.03-.414.09-.56a.602.602 0 0 1 .237-.302.576.576 0 0 1 .296-.089zm57.656 0c.203 0 .37.088.5.265.193.257.29.61.29 1.058 0 .358-.059.611-.175.758a.538.538 0 0 1-.44.22c-.24 0-.433-.133-.58-.4-.145-.266-.217-.583-.217-.95 0-.228.03-.414.09-.56a.603.603 0 0 1 .238-.302.574.574 0 0 1 .294-.089zm2.886.008c.228 0 .414.124.557.37.143.246.215.555.215.926 0 .349-.055.603-.165.763a.516.516 0 0 1-.45.237c-.207 0-.39-.114-.548-.342-.158-.228-.237-.563-.237-1.005 0-.327.059-.567.176-.72a.546.546 0 0 1 .452-.229zm-75.409.006c.1 0 .194.03.284.088.092.059.16.14.207.243.03.066.048.18.058.341H47c.02-.21.09-.376.21-.493a.571.571 0 0 1 .41-.179zm27.65 0c.098 0 .193.03.283.088.092.059.16.14.207.243.029.066.048.18.058.341H74.65c.02-.21.09-.376.21-.493a.571.571 0 0 1 .41-.179zm22.4 0c.1 0 .195.03.285.088.092.059.16.14.206.243.03.066.05.18.058.341h-1.169c.02-.21.09-.376.21-.493a.57.57 0 0 1 .41-.179zm8.07 0c.1 0 .194.03.284.088.092.059.161.14.207.243.03.066.049.18.058.341h-1.169c.02-.21.09-.376.21-.493a.57.57 0 0 1 .41-.179zm22.777 0c.099 0 .193.03.283.088.092.059.161.14.207.243.03.066.049.18.058.341h-1.169c.02-.21.09-.376.21-.493a.571.571 0 0 1 .41-.179zm-83.865.06h.777v1.809c0 .182-.013.287-.039.316-.025.028-.123.042-.292.042h-.936c.327-.441.49-1.113.49-2.015zm38.365 0c.064 0 .132.01.204.031v.992a.753.753 0 0 1-.562-.155.499.499 0 0 1-.196-.402c0-.127.046-.236.138-.327.091-.092.23-.138.416-.138zm16.988 0h.777v1.809c0 .182-.013.287-.038.316-.026.028-.123.042-.292.042h-.938c.327-.441.491-1.113.491-2.015zm-48.226.147c.162 0 .302.071.42.215.168.207.252.504.252.89 0 .34-.074.603-.223.79a.543.543 0 0 1-.446.216.59.59 0 0 1-.38-.122.517.517 0 0 1-.188-.28 2.017 2.017 0 0 1-.024-.403v-.942c.152-.166.261-.265.327-.298a.571.571 0 0 1 .262-.066zm2.963.694v.962c-.228.184-.411.275-.551.275a.36.36 0 0 1-.273-.129.478.478 0 0 1-.119-.33.49.49 0 0 1 .094-.29.927.927 0 0 1 .311-.254c.081-.046.26-.123.538-.234zm13.593 0v.962c-.228.184-.411.275-.551.275a.36.36 0 0 1-.273-.129.478.478 0 0 1-.119-.33.49.49 0 0 1 .094-.29.927.927 0 0 1 .311-.254c.081-.046.26-.123.538-.234zm4.818 0v.962c-.228.184-.412.275-.552.275a.36.36 0 0 1-.273-.129.477.477 0 0 1-.118-.33.49.49 0 0 1 .094-.29.93.93 0 0 1 .311-.254c.081-.046.26-.123.538-.234zm52.811.262c.2 0 .356.052.466.157.11.105.166.233.166.386 0 .136-.051.257-.152.364-.1.104-.256.157-.471.157-.096 0-.194-.012-.295-.036v-1.012c.132-.01.228-.016.286-.016zm-14.232.02c.49 0 .736.176.736.529a.461.461 0 0 1-.174.369.663.663 0 0 1-.446.146 1.14 1.14 0 0 1-.292-.039v-1.003l.176-.003z" font-weight="400" font-size="21.333" font-family="Times New Roman" letter-spacing="0" word-spacing="0" text-anchor="middle"/></svg>