<svg xmlns="http://www.w3.org/2000/svg" width="44.077" height="138.557" viewBox="0 0 11.662086 36.659756"><g stroke-width=".926"><path d="M0 18.198c.004-.08 1.317-4.207 2.919-9.171L5.83 0l.018 9.171.017 9.172H2.93c-2.928 0-2.936 0-2.93-.145z" fill="red"/><path d="M11.662 18.198c-.004-.08-1.317-4.207-2.919-9.171L5.831 0l-.018 9.171-.017 9.172h2.936c2.928 0 2.936 0 2.93-.145z" fill="#d40000"/><path d="M0 18.462c.004.08 1.317 4.206 2.919 9.171L5.83 36.66l.018-9.172.017-9.17H2.93c-2.928 0-2.936 0-2.93.144z" fill="#e6e6e6"/><path d="M11.662 18.462c-.004.08-1.317 4.206-2.919 9.171L5.831 36.66l-.018-9.172-.017-9.17h2.936c2.928 0 2.936 0 2.93.144z" fill="#b3b3b3"/></g></svg>