<svg xmlns="http://www.w3.org/2000/svg" width="173.095" height="166.406" viewBox="0 0 45.798047 44.028363"><defs><filter id="b" x="-.074" width="1.148" y="-.024" height="1.048" color-interpolation-filters="sRGB"><feGaussianBlur stdDeviation=".363"/></filter><filter id="a" x="-.075" width="1.15" y="-.079" height="1.157" color-interpolation-filters="sRGB"><feGaussianBlur stdDeviation="1.246"/></filter></defs><g transform="translate(12.504 -.664)"><ellipse ry="19.024" rx="19.909" cy="22.679" cx="10.395" opacity=".976" stroke="#000001" stroke-width=".729" stroke-linejoin="round" filter="url(#a)"/><ellipse cx="10.395" cy="22.679" rx="19.909" ry="19.024" fill="#fff" stroke="#000001" stroke-width=".729" stroke-linejoin="round"/><path d="M10.485 4.34l5.876 18.336-5.876 18.323-5.88-18.333z" stroke="#000" stroke-width=".565" filter="url(#b)"/><g stroke-width=".926"><path d="M4.655 22.537c.004-.08 1.317-4.206 2.918-9.171l2.912-9.027.018 9.171.018 9.172H7.585c-2.928 0-2.936 0-2.93-.145z" fill="red"/><path d="M16.316 22.537c-.004-.08-1.317-4.206-2.918-9.171l-2.913-9.027-.017 9.171-.018 9.172h2.936c2.928 0 2.936 0 2.93-.145z" fill="#d40000"/><path d="M4.655 22.801c.004.08 1.317 4.207 2.918 9.171L10.485 41l.018-9.171.018-9.172H7.585c-2.928 0-2.936 0-2.93.145z" fill="#e6e6e6"/><path d="M16.316 22.801c-.004.08-1.317 4.207-2.918 9.171L10.485 41l-.017-9.171-.018-9.172h2.936c2.928 0 2.936 0 2.93.145z" fill="#b3b3b3"/></g></g></svg>