<svg xmlns="http://www.w3.org/2000/svg" width="51.024" height="145.144" viewBox="0 0 13.500044 38.402764"><defs><filter id="a" x="-.074" width="1.148" y="-.024" height="1.048" color-interpolation-filters="sRGB"><feGaussianBlur stdDeviation=".363"/></filter></defs><path d="M10.485 4.34l5.876 18.336-5.876 18.323-5.88-18.333z" stroke="#000" stroke-width=".565" filter="url(#a)" transform="translate(-3.733 -3.468)"/><g stroke-width=".926"><path d="M.922 19.07c.004-.08 1.317-4.207 2.918-9.172L6.753.872l.017 9.17.018 9.172H3.852c-2.928 0-2.936 0-2.93-.145z" fill="red"/><path d="M12.583 19.07c-.004-.08-1.316-4.207-2.918-9.172L6.753.872l-.018 9.17-.017 9.172h2.935c2.928 0 2.936 0 2.93-.145z" fill="#d40000"/><path d="M.922 19.333c.004.08 1.317 4.207 2.918 9.172l2.913 9.026.017-9.171.018-9.171H3.852c-2.928 0-2.936 0-2.93.144z" fill="#e6e6e6"/><path d="M12.583 19.333c-.004.08-1.316 4.207-2.918 9.172L6.753 37.53l-.018-9.171-.017-9.171h2.935c2.928 0 2.936 0 2.93.144z" fill="#b3b3b3"/></g></svg>