<?xml version="1.0" encoding="UTF-8" standalone="no"?>
<!-- Created with Inkscape (http://www.inkscape.org/) -->

<svg
   xmlns:dc="http://purl.org/dc/elements/1.1/"
   xmlns:cc="http://creativecommons.org/ns#"
   xmlns:rdf="http://www.w3.org/1999/02/22-rdf-syntax-ns#"
   xmlns:svg="http://www.w3.org/2000/svg"
   xmlns="http://www.w3.org/2000/svg"
   xmlns:sodipodi="http://sodipodi.sourceforge.net/DTD/sodipodi-0.dtd"
   xmlns:inkscape="http://www.inkscape.org/namespaces/inkscape"
   width="119.94999mm"
   height="132.17818mm"
   viewBox="0 0 119.94999 132.17818"
   version="1.1"
   id="svg8"
   inkscape:version="0.92.2 (5c3e80d, 2017-08-06)"
   sodipodi:docname="4.svg">
  <defs
     id="defs2">
    <inkscape:path-effect
       is_visible="true"
       id="path-effect35"
       effect="spiro" />
  </defs>
  <sodipodi:namedview
     id="base"
     pagecolor="#ffffff"
     bordercolor="#666666"
     borderopacity="1.0"
     inkscape:pageopacity="0.0"
     inkscape:pageshadow="2"
     inkscape:zoom="0.7"
     inkscape:cx="256.27233"
     inkscape:cy="54.502204"
     inkscape:document-units="mm"
     inkscape:current-layer="layer1"
     showgrid="false"
     fit-margin-top="0"
     fit-margin-left="0"
     fit-margin-right="0"
     fit-margin-bottom="0"
     inkscape:window-width="1920"
     inkscape:window-height="1001"
     inkscape:window-x="-9"
     inkscape:window-y="-9"
     inkscape:window-maximized="1"
     inkscape:snap-global="false" />
  <metadata
     id="metadata5">
    <rdf:RDF>
      <cc:Work
         rdf:about="">
        <dc:format>image/svg+xml</dc:format>
        <dc:type
           rdf:resource="http://purl.org/dc/dcmitype/StillImage" />
        <dc:title></dc:title>
      </cc:Work>
    </rdf:RDF>
  </metadata>
  <g
     inkscape:label="Layer 1"
     inkscape:groupmode="layer"
     id="layer1"
     transform="translate(-2.6372189,-2.4871326)">
    <path
       style="fill:#8fb82b;fill-opacity:1;stroke:none;stroke-width:1.09955502;stroke-miterlimit:4;stroke-dasharray:none;stroke-opacity:1"
       d="m 185.53999,492.73695 c -2.25049,-0.58811 -2.26082,0.88376 0.33887,-48.29607 l 2.13591,-40.4061 2.67695,-2.39211 c 5.14756,-4.59983 27.84486,-25.91359 30.15036,-28.31251 1.27935,-1.33119 2.32609,-2.71971 2.32609,-3.08559 0,-0.36589 -1.59099,-2.4022 -3.53553,-4.52515 -1.94454,-2.12295 -3.53553,-4.25734 -3.53553,-4.74309 0,-0.48575 -0.72441,-0.88318 -1.6098,-0.88318 -0.88539,0 -1.83656,-0.86711 -2.1137,-1.92692 -0.27714,-1.0598 -1.40474,-2.16248 -2.50578,-2.45041 -1.10103,-0.28793 -2.24844,-1.46637 -2.5498,-2.61877 -0.30136,-1.1524 -1.21932,-2.09528 -2.03991,-2.09528 -0.82059,0 -1.72973,-0.90913 -2.02031,-2.0203 -0.29057,-1.11117 -1.10426,-2.02031 -1.80819,-2.02031 -1.46429,0 -8.58602,-7.5611 -8.58602,-9.11573 0,-1.42659 10.46,-12.09747 11.85839,-12.09747 0.6256,0 1.39218,-0.79549 1.70352,-1.76777 0.90099,-2.81364 18.28072,-19.44543 20.31991,-19.44543 2.1006,0 33.7984,31.22103 33.7984,33.29004 0,2.33152 -19.2495,21.17307 -20.96066,20.51643 -1.03314,-0.39645 -1.36663,-0.12277 -1.01543,0.83334 0.29763,0.81027 -1.49269,3.52047 -4.15531,6.29035 l -4.67825,4.86669 14.32236,13.94052 c 7.87731,7.66729 15.8701,15.2505 17.76177,16.85159 l 3.4394,2.91106 2.2114,41.92133 c 1.21628,23.05674 2.20121,43.1714 2.18875,44.69925 l -0.0227,2.77792 -41.16371,-0.11717 c -22.64005,-0.0644 -41.95922,-0.32507 -42.93149,-0.57916 z"
       id="path942"
       inkscape:connector-curvature="0"
       transform="matrix(0.26458333,0,0,0.26458333,2.6372189,2.4871326)" />
    <path
       style="fill:#323844;fill-opacity:1;stroke:none;stroke-width:1.09955502;stroke-miterlimit:4;stroke-dasharray:none;stroke-opacity:1"
       d="M 160.03364,491.73392 C 99.545465,487.84117 48.93632,479.26928 17.311417,467.56045 2.3270403,462.01262 2.526712,462.29052 3.2960011,448.05412 c 0.347562,-6.43194 1.5313696,-15.98425 2.6306837,-21.22734 4.1169222,-19.6353 14.0023022,-44.64866 22.9882262,-58.168 2.11173,-3.1771 4.608575,-6.93797 5.548545,-8.35748 2.760177,-4.16835 16.113045,-16.663 23.125643,-21.63931 12.713559,-9.02187 37.416735,-20.52025 81.937321,-38.1387 l 9.79736,-3.87718 1.03424,5.20701 c 0.56882,2.86386 3.98679,21.34421 7.59548,41.06743 3.60869,19.72323 8.10188,43.81537 9.98486,53.53809 l 3.42359,17.67767 -2.31512,38.89087 c -2.64289,44.39716 -2.23827,39.44617 -3.20481,39.21387 -0.41669,-0.10011 -3.03046,-0.32835 -5.80838,-0.50713 z"
       id="path944"
       inkscape:connector-curvature="0"
       transform="matrix(0.26458333,0,0,0.26458333,2.6372189,2.4871326)" />
    <path
       style="fill:#323844;fill-opacity:1;stroke:none;stroke-width:1.09955502;stroke-miterlimit:4;stroke-dasharray:none;stroke-opacity:1"
       d="m 210.03619,288.99505 c -9.35027,-2.83796 -14.69855,-5.71545 -23.5454,-12.66791 -11.12706,-8.74442 -20.85974,-22.23633 -25.92399,-35.93707 -3.11557,-8.42882 -6.20253,-14.64721 -7.27123,-14.64721 -0.49581,0 -1.19997,-0.7955 -1.56479,-1.76777 -0.36482,-0.97227 -1.31176,-2.25431 -2.1043,-2.84896 -3.27433,-2.45679 -12.10927,-19.74751 -14.94094,-29.24069 -2.10457,-7.05556 -2.4537,-26.51793 -0.55856,-31.13631 0.65778,-1.60297 2.44232,-3.34679 4.0434,-3.95113 l 2.86595,-1.08177 0.61442,-24.83823 c 0.71643,-28.96182 1.95321,-35.59879 9.33454,-50.092032 4.88923,-9.599986 7.9747,-13.825245 10.92159,-14.956075 0.98469,-0.377861 1.51895,-1.126145 1.18725,-1.662853 -0.95039,-1.537768 10.28198,-9.863694 19.16287,-14.204361 13.58056,-6.637701 23.22255,-8.484457 44.44671,-8.512999 15.46376,-0.02079 19.49832,0.308495 26.98043,2.202071 9.28236,2.349186 21.18731,7.285446 24.24564,10.053195 1.00147,0.906314 2.84049,2.156195 4.08674,2.777512 1.24624,0.621317 2.26588,1.797496 2.26588,2.613731 0,0.816235 0.76444,1.484663 1.69876,1.485396 2.43089,0.0019 11.80073,11.258909 16.11885,19.365323 6.18626,11.613476 7.99546,19.1022 8.98822,37.204552 0.4875,8.88934 0.90594,21.17668 0.92986,27.30519 l 0.0435,11.14275 3.0207,1.14019 c 1.76903,0.66774 3.49487,2.32914 4.16504,4.00954 1.84721,4.63173 1.53461,23.0985 -0.5188,30.64854 -1.92191,7.06651 -8.45002,21.14265 -11.71201,25.25382 -6.3386,7.98874 -10.97793,15.25366 -12.57897,19.69797 -2.47852,6.88012 -10.40532,21.96166 -13.08066,24.88728 -1.20045,1.31276 -3.23255,3.87695 -4.51576,5.69818 -3.43064,4.86904 -14.79204,13.68822 -22.87276,17.75478 -14.20557,7.14884 -29.59477,8.65698 -43.93222,4.30535 z m 96.97465,-74.36387 c 0,-0.55558 -0.45457,-1.01015 -1.01016,-1.01015 -0.55558,0 -1.01015,0.45457 -1.01015,1.01015 0,0.55558 0.45457,1.01015 1.01015,1.01015 0.55559,0 1.01016,-0.45457 1.01016,-1.01015 z"
       id="path946"
       inkscape:connector-curvature="0"
       transform="matrix(0.26458333,0,0,0.26458333,2.6372189,2.4871326)" />
    <path
       style="fill:#323844;fill-opacity:1;stroke:none;stroke-width:1.09955502;stroke-miterlimit:4;stroke-dasharray:none;stroke-opacity:1"
       d="m 286.38075,489.14754 c -0.28676,-1.80972 -1.3925,-19.65017 -2.45722,-39.64545 l -1.93585,-36.35505 4.46768,-22.73887 c 2.45722,-12.50638 7.18995,-37.73964 10.51717,-56.07391 6.62271,-36.49367 6.70573,-36.87057 8.12084,-36.87057 1.50037,0 24.35108,9.09777 26.8832,10.70327 1.23052,0.78021 2.74532,1.41856 3.36622,1.41856 1.04437,0 11.56194,4.24796 18.64014,7.5286 1.66675,0.77251 7.72637,3.48539 13.46582,6.02862 5.73945,2.54322 13.15054,6.21537 16.4691,8.16032 3.31855,1.94495 6.276,3.53627 6.57209,3.53627 1.39799,0 9.32651,6.46163 8.85823,7.21932 -0.29298,0.47405 0.32445,0.8619 1.37206,0.8619 2.82017,0 16.31344,14.40033 22.7166,24.24367 3.07199,4.72246 7.06094,11.76827 8.86434,15.65736 1.80339,3.88909 3.67449,7.86678 4.15799,8.83932 8.28852,16.67209 16.27455,57.30591 13.38186,68.08842 -0.72396,2.69857 -7.35796,5.72201 -25.14741,11.46091 -28.05919,9.05193 -80.4625,17.53751 -121.72338,19.71047 -6.38922,0.33647 -12.61831,0.81551 -13.84244,1.06451 -1.86026,0.3784 -2.31128,-0.0875 -2.74704,-2.83767 z"
       id="path948"
       inkscape:connector-curvature="0"
       transform="matrix(0.26458333,0,0,0.26458333,2.6372189,2.4871326)" />
    <rect
       style="fill:#8fb82b;fill-opacity:1;stroke:none;stroke-width:0.28586069;stroke-miterlimit:4;stroke-dasharray:none;stroke-opacity:1"
       id="rect950"
       width="13.787443"
       height="13.037106"
       x="-27.978542"
       y="102.66935"
       transform="rotate(-45.257538)" />
  </g>
</svg>
