<?xml version="1.0" encoding="UTF-8"?>
<svg xmlns="http://www.w3.org/2000/svg" xmlns:xlink="http://www.w3.org/1999/xlink" width="60pt" height="59pt" viewBox="0 0 60 59" version="1.1">
<g id="surface1">
<path style=" stroke:none;fill-rule:nonzero;fill:rgb(30.196078%,30.196078%,30.196078%);fill-opacity:1;" d="M 14.195312 41.445312 C 13.019531 41.359375 11.777344 40.90625 10.84375 40.21875 C 10.492188 39.957031 10.027344 39.523438 9.8125 39.25 C 9.722656 39.144531 9.640625 39.050781 9.628906 39.046875 C 9.613281 39.039062 9.605469 39.019531 9.605469 39 C 9.605469 38.980469 9.542969 38.894531 9.464844 38.8125 C 9.320312 38.65625 9.035156 38.199219 8.867188 37.84375 C 8.621094 37.335938 8.441406 36.773438 8.328125 36.15625 L 8.257812 35.761719 L 8.257812 9.089844 L 8.328125 8.703125 C 8.578125 7.328125 9.15625 6.222656 10.113281 5.28125 C 10.714844 4.695312 11.070312 4.4375 11.75 4.09375 C 12.542969 3.691406 13.359375 3.46875 14.269531 3.40625 C 14.863281 3.367188 44.640625 3.367188 45.238281 3.40625 C 46.617188 3.503906 47.941406 4.023438 48.9375 4.855469 C 49.207031 5.078125 49.75 5.644531 49.96875 5.921875 C 50.667969 6.828125 51.113281 7.964844 51.234375 9.132812 C 51.277344 9.574219 51.277344 35.28125 51.234375 35.722656 C 51.113281 36.890625 50.667969 38.023438 49.96875 38.933594 C 49.75 39.210938 49.207031 39.777344 48.9375 40 C 48.246094 40.578125 47.335938 41.03125 46.410156 41.265625 C 45.566406 41.472656 46.121094 41.457031 38.46875 41.472656 C 34.417969 41.472656 31.550781 41.46875 31.550781 41.453125 C 31.550781 41.4375 31.511719 41.433594 31.464844 41.441406 C 31.417969 41.449219 31.324219 41.453125 31.253906 41.453125 C 31.1875 41.453125 31.019531 41.453125 30.886719 41.453125 C 28.210938 41.472656 14.449219 41.460938 14.195312 41.445312 Z M 45.195312 37.191406 C 46.03125 37.039062 46.683594 36.429688 46.894531 35.609375 C 46.953125 35.378906 46.953125 35.253906 46.953125 31.917969 C 46.953125 29.742188 46.96875 28.460938 46.984375 28.449219 C 47.003906 28.433594 47.003906 28.402344 46.984375 28.355469 C 46.949219 28.253906 46.949219 27.96875 46.984375 27.867188 C 47.003906 27.820312 47.003906 27.792969 46.984375 27.792969 C 46.964844 27.792969 46.953125 24.566406 46.953125 18.636719 C 46.953125 9.628906 46.953125 9.480469 46.894531 9.25 C 46.8125 8.933594 46.683594 8.683594 46.460938 8.398438 C 46.257812 8.132812 46.089844 8.007812 45.699219 7.824219 C 45.203125 7.59375 46.664062 7.613281 29.757812 7.613281 C 12.832031 7.613281 14.300781 7.59375 13.804688 7.824219 C 13.527344 7.957031 13.21875 8.171875 13.105469 8.320312 C 13.0625 8.371094 12.992188 8.464844 12.945312 8.523438 C 12.816406 8.679688 12.679688 8.980469 12.609375 9.25 C 12.546875 9.480469 12.546875 9.648438 12.546875 22.429688 C 12.546875 35.207031 12.546875 35.375 12.609375 35.609375 C 12.679688 35.875 12.816406 36.175781 12.945312 36.332031 C 12.992188 36.390625 13.0625 36.480469 13.105469 36.539062 C 13.21875 36.683594 13.527344 36.902344 13.804688 37.03125 C 14.285156 37.253906 12.863281 37.234375 29.726562 37.238281 C 43.457031 37.242188 44.960938 37.234375 45.195312 37.191406 Z M 16.273438 35.046875 C 15.613281 34.875 15.042969 34.363281 14.824219 33.746094 C 14.683594 33.339844 14.65625 32.894531 14.75 32.496094 C 14.773438 32.414062 14.851562 32.21875 14.929688 32.058594 C 15.042969 31.8125 15.105469 31.730469 15.320312 31.527344 C 16.011719 30.859375 16.988281 30.703125 17.84375 31.128906 C 17.960938 31.183594 18.097656 31.28125 18.148438 31.335938 C 18.199219 31.390625 18.253906 31.433594 18.273438 31.425781 C 18.308594 31.414062 18.53125 31.664062 18.53125 31.71875 C 18.53125 31.738281 18.558594 31.765625 18.585938 31.78125 C 18.660156 31.820312 18.855469 32.210938 18.925781 32.457031 C 18.964844 32.597656 18.980469 32.757812 18.980469 33.035156 C 18.976562 33.363281 18.964844 33.449219 18.894531 33.660156 C 18.710938 34.210938 18.339844 34.636719 17.839844 34.878906 C 17.683594 34.957031 17.457031 35.039062 17.339844 35.0625 C 17.03125 35.125 16.554688 35.117188 16.273438 35.046875 Z M 22.722656 35.046875 C 22.054688 34.875 21.488281 34.359375 21.265625 33.71875 C 21.042969 33.085938 21.148438 32.324219 21.519531 31.800781 C 21.746094 31.484375 22.167969 31.152344 22.523438 31.023438 C 23.113281 30.800781 23.855469 30.859375 24.382812 31.167969 C 24.742188 31.378906 25.03125 31.699219 25.226562 32.09375 C 25.617188 32.898438 25.476562 33.828125 24.863281 34.476562 C 24.589844 34.757812 24.160156 34.992188 23.777344 35.066406 C 23.453125 35.125 22.996094 35.117188 22.722656 35.046875 Z M 29.269531 35.074219 C 28.609375 34.925781 28.054688 34.480469 27.78125 33.875 C 27.539062 33.335938 27.550781 32.566406 27.816406 32.058594 C 28.070312 31.5625 28.554688 31.148438 29.0625 30.992188 C 29.714844 30.796875 30.355469 30.867188 30.898438 31.199219 C 31.324219 31.460938 31.65625 31.914062 31.816406 32.453125 C 31.945312 32.890625 31.90625 33.460938 31.71875 33.875 C 31.449219 34.476562 30.890625 34.925781 30.230469 35.066406 C 30.023438 35.109375 29.457031 35.117188 29.269531 35.074219 Z M 35.703125 35.066406 C 35.078125 34.917969 34.511719 34.480469 34.261719 33.941406 C 33.84375 33.042969 34.089844 31.953125 34.84375 31.363281 C 35.246094 31.046875 35.6875 30.894531 36.199219 30.894531 C 36.566406 30.894531 36.808594 30.953125 37.179688 31.132812 C 37.640625 31.347656 38.027344 31.757812 38.195312 32.207031 C 38.316406 32.527344 38.34375 32.691406 38.34375 33.035156 C 38.339844 33.976562 37.804688 34.6875 36.851562 35.023438 C 36.632812 35.101562 35.957031 35.125 35.703125 35.066406 Z M 42.152344 35.0625 C 41.875 35.003906 41.429688 34.777344 41.214844 34.589844 C 40.347656 33.828125 40.273438 32.476562 41.054688 31.59375 C 41.476562 31.121094 41.980469 30.898438 42.648438 30.894531 C 42.835938 30.890625 43.019531 30.90625 43.089844 30.925781 C 43.152344 30.949219 43.246094 30.972656 43.296875 30.980469 C 43.347656 30.984375 43.4375 31.019531 43.503906 31.054688 C 43.570312 31.085938 43.699219 31.15625 43.792969 31.207031 C 44.214844 31.433594 44.597656 31.945312 44.746094 32.484375 C 44.808594 32.71875 44.816406 33.214844 44.761719 33.460938 C 44.585938 34.230469 43.980469 34.855469 43.21875 35.046875 C 42.933594 35.121094 42.457031 35.125 42.152344 35.0625 Z M 16.375 28.722656 C 15.847656 28.605469 15.433594 28.339844 15.097656 27.914062 C 14.902344 27.667969 14.730469 27.203125 14.703125 26.839844 C 14.636719 26.058594 15.015625 25.304688 15.679688 24.882812 C 15.964844 24.703125 16.160156 24.628906 16.511719 24.570312 C 16.796875 24.523438 16.84375 24.523438 17.140625 24.566406 C 17.542969 24.628906 17.746094 24.703125 18.054688 24.90625 C 18.355469 25.101562 18.582031 25.367188 18.761719 25.734375 C 19.027344 26.261719 19.0625 26.8125 18.875 27.351562 C 18.640625 28.023438 18.195312 28.453125 17.5 28.679688 C 17.246094 28.757812 16.644531 28.785156 16.375 28.722656 Z M 22.824219 28.722656 C 22.417969 28.636719 21.902344 28.363281 21.960938 28.273438 C 21.972656 28.253906 21.964844 28.25 21.945312 28.261719 C 21.925781 28.273438 21.910156 28.269531 21.910156 28.253906 C 21.910156 28.234375 21.894531 28.21875 21.882812 28.21875 C 21.839844 28.21875 21.585938 27.96875 21.5 27.839844 C 21.265625 27.488281 21.152344 27.113281 21.152344 26.664062 C 21.152344 25.726562 21.695312 24.988281 22.636719 24.644531 C 22.703125 24.617188 22.890625 24.582031 23.046875 24.558594 C 23.457031 24.503906 23.820312 24.566406 24.25 24.773438 C 25.046875 25.15625 25.488281 25.902344 25.433594 26.78125 C 25.382812 27.695312 24.847656 28.378906 23.953125 28.675781 C 23.695312 28.761719 23.105469 28.789062 22.824219 28.722656 Z M 29.257812 28.722656 C 28.957031 28.65625 28.515625 28.429688 28.296875 28.230469 C 28.050781 28.007812 27.84375 27.691406 27.726562 27.367188 C 27.632812 27.121094 27.628906 27.082031 27.628906 26.648438 C 27.628906 26.230469 27.636719 26.171875 27.714844 25.96875 C 27.863281 25.578125 28.074219 25.28125 28.386719 25.03125 C 28.722656 24.765625 29.066406 24.621094 29.515625 24.554688 C 30.203125 24.460938 31.023438 24.800781 31.457031 25.363281 C 31.929688 25.980469 32.027344 26.832031 31.707031 27.566406 C 31.488281 28.0625 30.972656 28.5 30.390625 28.683594 C 30.136719 28.761719 29.535156 28.78125 29.257812 28.722656 Z M 35.84375 28.75 C 35 28.574219 34.425781 28.097656 34.167969 27.351562 C 34.054688 27.03125 34.027344 26.535156 34.105469 26.203125 C 34.265625 25.476562 34.816406 24.882812 35.550781 24.644531 C 36.535156 24.320312 37.65625 24.789062 38.140625 25.722656 C 38.402344 26.234375 38.414062 26.988281 38.167969 27.535156 C 37.894531 28.140625 37.335938 28.585938 36.675781 28.722656 C 36.480469 28.761719 35.988281 28.777344 35.84375 28.75 Z M 42.199219 28.722656 C 41.234375 28.515625 40.574219 27.753906 40.515625 26.78125 C 40.457031 25.757812 41.082031 24.898438 42.09375 24.625 C 42.855469 24.414062 43.617188 24.605469 44.164062 25.140625 C 44.578125 25.546875 44.800781 26.09375 44.796875 26.679688 C 44.789062 27.3125 44.582031 27.789062 44.117188 28.210938 C 43.617188 28.671875 42.875 28.867188 42.199219 28.722656 Z M 16.5 22.40625 C 16.335938 22.386719 16.035156 22.28125 15.84375 22.1875 C 15.316406 21.921875 14.925781 21.4375 14.757812 20.835938 C 14.707031 20.65625 14.703125 20.328125 14.703125 16.085938 C 14.703125 11.800781 14.703125 11.519531 14.757812 11.332031 C 14.902344 10.828125 15.210938 10.382812 15.609375 10.117188 C 15.8125 9.976562 16.160156 9.835938 16.378906 9.792969 C 16.726562 9.726562 42.777344 9.726562 43.121094 9.792969 C 43.347656 9.835938 43.722656 9.996094 43.871094 10.117188 C 43.90625 10.148438 44.023438 10.238281 44.128906 10.328125 C 44.417969 10.5625 44.625 10.902344 44.746094 11.332031 C 44.796875 11.519531 44.800781 11.800781 44.800781 16.085938 C 44.800781 21.164062 44.816406 20.773438 44.585938 21.25 C 44.339844 21.761719 43.902344 22.128906 43.289062 22.347656 L 43.097656 22.410156 L 29.847656 22.414062 C 22.558594 22.417969 16.554688 22.410156 16.5 22.40625 Z M 40.46875 18.175781 C 40.5 18.164062 40.507812 17.722656 40.507812 16.105469 C 40.507812 14.976562 40.5 14.027344 40.488281 14 C 40.472656 13.960938 39.496094 13.957031 29.75 13.957031 L 19.03125 13.957031 L 19.011719 14.019531 C 19.003906 14.0625 19 15.011719 19.003906 16.132812 L 19.011719 18.175781 L 26.496094 18.191406 C 34.070312 18.203125 40.398438 18.199219 40.46875 18.175781 Z M 40.46875 18.175781 "/>
<path style=" stroke:none;fill-rule:nonzero;fill:rgb(30.196078%,30.196078%,30.196078%);fill-opacity:1;" d="M 49.613281 47.511719 C 49.0625 47.511719 48.632812 47.773438 48.320312 48.300781 C 48.011719 48.824219 47.855469 49.539062 47.855469 50.4375 C 47.855469 51.335938 48.011719 52.046875 48.320312 52.574219 C 48.632812 53.097656 49.0625 53.363281 49.613281 53.363281 C 50.160156 53.363281 50.589844 53.097656 50.898438 52.574219 C 51.214844 52.046875 51.371094 51.335938 51.371094 50.4375 C 51.371094 49.539062 51.214844 48.824219 50.898438 48.300781 C 50.585938 47.773438 50.15625 47.511719 49.613281 47.511719 Z M 7.332031 47.519531 C 7.199219 47.519531 7.070312 47.535156 6.941406 47.558594 C 6.816406 47.585938 6.703125 47.621094 6.613281 47.660156 C 6.5 47.707031 6.402344 47.757812 6.328125 47.800781 C 6.253906 47.84375 6.179688 47.898438 6.09375 47.957031 L 6.09375 49.238281 L 6.1875 49.238281 C 6.234375 49.183594 6.289062 49.117188 6.355469 49.035156 C 6.421875 48.953125 6.5 48.878906 6.585938 48.8125 C 6.679688 48.730469 6.777344 48.671875 6.882812 48.625 C 6.996094 48.574219 7.109375 48.550781 7.238281 48.550781 C 7.339844 48.550781 7.445312 48.570312 7.542969 48.617188 C 7.652344 48.660156 7.742188 48.730469 7.832031 48.828125 C 7.917969 48.925781 7.992188 49.054688 8.054688 49.207031 C 8.117188 49.359375 8.164062 49.546875 8.1875 49.773438 L 6.6875 49.773438 L 6.6875 50.847656 L 8.207031 50.847656 C 8.191406 51.136719 8.144531 51.378906 8.074219 51.566406 C 8.007812 51.753906 7.921875 51.90625 7.828125 52.019531 C 7.734375 52.128906 7.628906 52.210938 7.515625 52.257812 C 7.402344 52.300781 7.289062 52.324219 7.1875 52.324219 C 7.042969 52.324219 6.917969 52.300781 6.8125 52.25 C 6.707031 52.203125 6.609375 52.140625 6.515625 52.066406 C 6.4375 52.007812 6.367188 51.9375 6.296875 51.863281 C 6.234375 51.785156 6.179688 51.710938 6.132812 51.648438 L 6.050781 51.648438 L 6.050781 52.917969 C 6.09375 52.953125 6.15625 52.992188 6.242188 53.042969 C 6.328125 53.097656 6.421875 53.144531 6.527344 53.191406 C 6.628906 53.238281 6.738281 53.277344 6.863281 53.304688 C 6.988281 53.339844 7.125 53.355469 7.269531 53.355469 C 7.539062 53.355469 7.785156 53.289062 8.007812 53.160156 C 8.226562 53.023438 8.417969 52.835938 8.574219 52.59375 C 8.730469 52.351562 8.851562 52.035156 8.941406 51.652344 C 9.03125 51.269531 9.078125 50.835938 9.078125 50.355469 C 9.078125 49.90625 9.039062 49.511719 8.957031 49.164062 C 8.875 48.816406 8.757812 48.523438 8.605469 48.277344 C 8.449219 48.027344 8.261719 47.839844 8.050781 47.710938 C 7.832031 47.582031 7.59375 47.519531 7.332031 47.519531 Z M 17.957031 47.617188 C 17.695312 47.617188 17.5 47.691406 17.367188 47.835938 C 17.242188 47.980469 17.117188 48.222656 17 48.558594 C 16.972656 48.640625 16.9375 48.746094 16.894531 48.871094 C 16.855469 48.996094 16.820312 49.097656 16.789062 49.191406 C 16.734375 49.335938 16.6875 49.460938 16.640625 49.5625 C 16.59375 49.660156 16.550781 49.730469 16.507812 49.785156 C 16.464844 49.828125 16.421875 49.863281 16.375 49.882812 C 16.328125 49.902344 16.269531 49.914062 16.195312 49.917969 L 16.195312 47.628906 L 15.316406 47.628906 L 15.316406 53.246094 L 16.195312 53.246094 L 16.195312 50.976562 L 16.414062 50.976562 L 17.421875 53.246094 L 18.496094 53.246094 L 17.164062 50.347656 C 17.214844 50.304688 17.265625 50.226562 17.320312 50.121094 C 17.371094 50.011719 17.441406 49.828125 17.523438 49.5625 C 17.609375 49.296875 17.683594 49.113281 17.753906 49.003906 C 17.824219 48.898438 17.921875 48.847656 18.046875 48.847656 L 18.300781 48.847656 L 18.300781 47.628906 C 18.273438 47.628906 18.226562 47.625 18.167969 47.625 C 18.105469 47.621094 18.039062 47.617188 17.957031 47.617188 Z M 32.734375 47.617188 C 32.472656 47.617188 32.28125 47.691406 32.148438 47.835938 C 32.019531 47.980469 31.898438 48.222656 31.777344 48.558594 C 31.75 48.640625 31.71875 48.746094 31.675781 48.871094 C 31.632812 48.996094 31.601562 49.097656 31.566406 49.191406 C 31.515625 49.335938 31.464844 49.460938 31.417969 49.5625 C 31.371094 49.660156 31.328125 49.730469 31.285156 49.785156 C 31.246094 49.828125 31.203125 49.863281 31.15625 49.882812 C 31.109375 49.902344 31.046875 49.914062 30.976562 49.917969 L 30.976562 47.628906 L 30.097656 47.628906 L 30.097656 53.246094 L 30.976562 53.246094 L 30.976562 50.976562 L 31.191406 50.976562 L 32.199219 53.246094 L 33.277344 53.246094 L 31.945312 50.347656 C 31.992188 50.304688 32.042969 50.226562 32.097656 50.121094 C 32.152344 50.011719 32.21875 49.828125 32.304688 49.5625 C 32.390625 49.296875 32.464844 49.113281 32.53125 49.003906 C 32.601562 48.898438 32.703125 48.847656 32.824219 48.847656 L 33.078125 48.847656 L 33.078125 47.628906 C 33.050781 47.628906 33.003906 47.625 32.945312 47.625 C 32.886719 47.621094 32.816406 47.617188 32.734375 47.617188 Z M 10.171875 47.628906 C 10.167969 48.023438 10.160156 48.378906 10.152344 48.691406 C 10.152344 48.996094 10.144531 49.277344 10.132812 49.539062 C 10.113281 50.199219 10.082031 50.714844 10.035156 51.078125 C 9.996094 51.445312 9.914062 51.710938 9.796875 51.878906 C 9.765625 51.925781 9.726562 51.957031 9.6875 51.972656 C 9.648438 51.992188 9.585938 52 9.5 52 C 9.476562 52 9.453125 52 9.433594 51.996094 C 9.417969 51.992188 9.40625 51.992188 9.390625 51.988281 L 9.359375 51.988281 L 9.359375 53.246094 C 9.382812 53.25 9.429688 53.257812 9.515625 53.265625 C 9.59375 53.28125 9.675781 53.28125 9.75 53.28125 C 9.878906 53.28125 9.996094 53.246094 10.105469 53.179688 C 10.21875 53.105469 10.308594 53.011719 10.386719 52.894531 C 10.445312 52.804688 10.503906 52.6875 10.558594 52.542969 C 10.617188 52.398438 10.671875 52.214844 10.722656 51.988281 C 10.777344 51.765625 10.820312 51.480469 10.859375 51.136719 C 10.898438 50.789062 10.933594 50.363281 10.949219 49.855469 C 10.960938 49.621094 10.964844 49.4375 10.972656 49.296875 C 10.976562 49.15625 10.984375 48.960938 10.988281 48.714844 L 11.964844 48.714844 L 11.964844 53.246094 L 12.84375 53.246094 L 12.84375 47.628906 Z M 19.816406 47.628906 L 18.558594 53.246094 L 19.441406 53.246094 L 19.679688 52.109375 L 20.941406 52.109375 L 21.175781 53.246094 L 22.085938 53.246094 L 20.828125 47.628906 Z M 22.996094 47.628906 C 22.996094 48.023438 22.988281 48.378906 22.980469 48.691406 C 22.976562 48.996094 22.972656 49.277344 22.960938 49.539062 C 22.941406 50.199219 22.90625 50.714844 22.863281 51.078125 C 22.820312 51.445312 22.742188 51.710938 22.625 51.878906 C 22.59375 51.925781 22.558594 51.957031 22.515625 51.972656 C 22.476562 51.992188 22.414062 52 22.324219 52 C 22.300781 52 22.28125 52 22.265625 51.996094 C 22.25 51.992188 22.230469 51.992188 22.21875 51.988281 L 22.1875 51.988281 L 22.1875 53.246094 C 22.210938 53.25 22.261719 53.257812 22.34375 53.265625 C 22.425781 53.28125 22.503906 53.28125 22.578125 53.28125 C 22.703125 53.28125 22.824219 53.246094 22.933594 53.179688 C 23.046875 53.105469 23.136719 53.011719 23.214844 52.894531 C 23.269531 52.804688 23.332031 52.6875 23.386719 52.542969 C 23.449219 52.398438 23.5 52.214844 23.554688 51.988281 C 23.605469 51.765625 23.648438 51.480469 23.6875 51.136719 C 23.730469 50.789062 23.761719 50.363281 23.78125 49.855469 C 23.789062 49.621094 23.796875 49.4375 23.800781 49.296875 C 23.804688 49.15625 23.808594 48.960938 23.816406 48.714844 L 24.792969 48.714844 L 24.792969 53.246094 L 25.671875 53.246094 L 25.671875 47.628906 Z M 26.542969 47.628906 L 26.542969 53.246094 L 28.117188 53.246094 C 28.332031 53.246094 28.511719 53.210938 28.660156 53.140625 C 28.8125 53.074219 28.957031 52.945312 29.097656 52.761719 C 29.207031 52.613281 29.292969 52.429688 29.355469 52.199219 C 29.421875 51.96875 29.453125 51.714844 29.453125 51.441406 C 29.453125 51.171875 29.425781 50.917969 29.375 50.691406 C 29.320312 50.460938 29.234375 50.269531 29.117188 50.117188 C 29 49.964844 28.863281 49.863281 28.714844 49.808594 C 28.5625 49.75 28.367188 49.722656 28.132812 49.722656 L 27.421875 49.722656 L 27.421875 47.628906 Z M 33.300781 47.628906 L 34.6875 51.828125 C 34.667969 51.90625 34.605469 51.96875 34.515625 52.019531 C 34.421875 52.066406 34.296875 52.089844 34.148438 52.089844 C 34.066406 52.089844 33.988281 52.085938 33.90625 52.066406 C 33.824219 52.050781 33.769531 52.035156 33.738281 52.019531 L 33.683594 52.019531 L 33.683594 53.246094 C 33.730469 53.253906 33.828125 53.261719 33.972656 53.265625 C 34.121094 53.28125 34.246094 53.28125 34.355469 53.28125 C 34.449219 53.28125 34.546875 53.273438 34.644531 53.25 C 34.738281 53.226562 34.839844 53.175781 34.941406 53.097656 C 35.039062 53.023438 35.132812 52.90625 35.226562 52.746094 C 35.320312 52.589844 35.402344 52.378906 35.476562 52.121094 L 36.714844 47.628906 L 35.800781 47.628906 L 35.101562 50.289062 L 34.257812 47.628906 Z M 37.585938 47.628906 C 37.578125 48.023438 37.578125 48.378906 37.570312 48.691406 C 37.5625 48.996094 37.554688 49.277344 37.550781 49.539062 C 37.527344 50.199219 37.492188 50.714844 37.449219 51.078125 C 37.40625 51.445312 37.328125 51.710938 37.214844 51.878906 C 37.179688 51.925781 37.144531 51.957031 37.105469 51.972656 C 37.058594 51.992188 36.996094 52 36.910156 52 C 36.890625 52 36.867188 52 36.851562 51.996094 C 36.835938 51.992188 36.816406 51.992188 36.804688 51.988281 L 36.773438 51.988281 L 36.773438 53.246094 C 36.792969 53.25 36.847656 53.257812 36.925781 53.265625 C 37.011719 53.28125 37.089844 53.28125 37.167969 53.28125 C 37.289062 53.28125 37.410156 53.246094 37.519531 53.179688 C 37.632812 53.105469 37.726562 53.011719 37.800781 52.894531 C 37.859375 52.804688 37.917969 52.6875 37.976562 52.542969 C 38.03125 52.398438 38.085938 52.214844 38.140625 51.988281 C 38.1875 51.765625 38.234375 51.480469 38.277344 51.136719 C 38.316406 50.789062 38.34375 50.363281 38.367188 49.855469 C 38.375 49.621094 38.382812 49.4375 38.386719 49.296875 C 38.390625 49.15625 38.398438 48.960938 38.40625 48.714844 L 39.382812 48.714844 L 39.382812 53.246094 L 40.261719 53.246094 L 40.261719 47.628906 Z M 42.394531 47.628906 C 42.203125 47.628906 42.03125 47.660156 41.882812 47.714844 C 41.734375 47.769531 41.609375 47.859375 41.503906 47.976562 C 41.386719 48.109375 41.285156 48.289062 41.207031 48.5 C 41.132812 48.710938 41.09375 48.964844 41.09375 49.25 C 41.09375 49.683594 41.152344 50.03125 41.269531 50.300781 C 41.386719 50.566406 41.546875 50.773438 41.753906 50.917969 L 40.734375 53.246094 L 41.777344 53.246094 L 42.632812 51.183594 L 43.113281 51.183594 L 43.113281 53.246094 L 43.988281 53.246094 L 43.988281 47.628906 Z M 44.519531 47.628906 L 44.519531 48.714844 L 45.578125 48.714844 L 45.578125 53.246094 L 46.457031 53.246094 L 46.457031 48.714844 L 47.523438 48.714844 L 47.523438 47.628906 Z M 52.035156 47.628906 L 52.035156 53.246094 L 52.914062 53.246094 L 52.914062 51.417969 L 53.464844 51.417969 C 53.714844 51.417969 53.917969 51.359375 54.085938 51.246094 C 54.253906 51.132812 54.40625 50.964844 54.542969 50.746094 C 54.636719 50.582031 54.714844 50.378906 54.769531 50.140625 C 54.820312 49.902344 54.847656 49.652344 54.847656 49.398438 C 54.847656 49.074219 54.816406 48.796875 54.742188 48.570312 C 54.667969 48.335938 54.566406 48.144531 54.425781 48 C 54.3125 47.875 54.179688 47.78125 54.03125 47.722656 C 53.882812 47.660156 53.699219 47.628906 53.484375 47.628906 Z M 49.613281 48.570312 C 49.722656 48.570312 49.828125 48.605469 49.929688 48.671875 C 50.03125 48.742188 50.121094 48.851562 50.199219 49 C 50.273438 49.148438 50.335938 49.339844 50.382812 49.574219 C 50.429688 49.8125 50.453125 50.097656 50.453125 50.433594 C 50.453125 50.75 50.433594 51.023438 50.394531 51.257812 C 50.351562 51.488281 50.289062 51.6875 50.203125 51.863281 C 50.128906 52.011719 50.039062 52.125 49.933594 52.195312 C 49.835938 52.269531 49.726562 52.300781 49.613281 52.300781 C 49.5 52.300781 49.390625 52.269531 49.289062 52.195312 C 49.1875 52.128906 49.097656 52.015625 49.023438 51.867188 C 48.945312 51.722656 48.882812 51.527344 48.835938 51.296875 C 48.789062 51.058594 48.769531 50.773438 48.769531 50.4375 C 48.769531 50.109375 48.792969 49.824219 48.839844 49.582031 C 48.890625 49.332031 48.949219 49.136719 49.027344 48.996094 C 49.109375 48.84375 49.199219 48.734375 49.296875 48.671875 C 49.394531 48.605469 49.5 48.570312 49.613281 48.570312 Z M 42.679688 48.664062 L 43.113281 48.664062 L 43.113281 50.175781 L 42.683594 50.175781 C 42.554688 50.175781 42.449219 50.167969 42.371094 50.148438 C 42.292969 50.128906 42.226562 50.085938 42.167969 50.007812 C 42.117188 49.945312 42.074219 49.863281 42.046875 49.761719 C 42.019531 49.65625 42.003906 49.539062 42.003906 49.414062 C 42.003906 49.289062 42.019531 49.175781 42.042969 49.074219 C 42.070312 48.976562 42.109375 48.890625 42.164062 48.828125 C 42.230469 48.746094 42.300781 48.695312 42.371094 48.6875 C 42.445312 48.671875 42.546875 48.664062 42.679688 48.664062 Z M 52.914062 48.675781 L 53.066406 48.675781 C 53.210938 48.675781 53.328125 48.679688 53.414062 48.691406 C 53.503906 48.691406 53.589844 48.726562 53.683594 48.789062 C 53.75 48.832031 53.8125 48.914062 53.863281 49.027344 C 53.917969 49.140625 53.941406 49.277344 53.941406 49.4375 C 53.941406 49.597656 53.929688 49.734375 53.902344 49.84375 C 53.875 49.957031 53.835938 50.050781 53.78125 50.132812 C 53.714844 50.226562 53.632812 50.285156 53.535156 50.3125 C 53.441406 50.34375 53.316406 50.359375 53.167969 50.359375 L 52.914062 50.359375 Z M 20.308594 49.066406 L 20.726562 51.078125 L 19.890625 51.078125 Z M 27.421875 50.769531 L 27.980469 50.769531 C 28.105469 50.769531 28.203125 50.789062 28.273438 50.828125 C 28.347656 50.867188 28.40625 50.921875 28.445312 50.988281 C 28.484375 51.058594 28.511719 51.136719 28.523438 51.21875 C 28.539062 51.300781 28.542969 51.390625 28.542969 51.480469 C 28.542969 51.585938 28.53125 51.683594 28.507812 51.765625 C 28.488281 51.847656 28.457031 51.921875 28.414062 51.984375 C 28.375 52.046875 28.316406 52.09375 28.238281 52.136719 C 28.160156 52.175781 28.074219 52.195312 27.980469 52.195312 L 27.421875 52.195312 Z M 27.421875 50.769531 "/>
</g>
</svg>
