<svg xmlns="http://www.w3.org/2000/svg" width="504" height="395.995" viewBox="0 0 133.34999 104.77357"><path d="M13.104 104.457c-1.8-.348-3.152-1.369-4.17-3.15l-.815-1.426-.006-41c-.007-44.816-.121-42.448 2.147-44.357 1.866-1.57 6.217-2.344 7.268-1.293.267.267.438 1.564.438 3.315 0 2.692.068 2.944 1.067 3.943l1.068 1.068h21.778c14.24 0 22.022-.13 22.481-.376 1.229-.658 1.806-2.328 1.806-5.227 0-3.049.105-3.172 2.677-3.145 1.814.019 4.019.752 5.067 1.684.417.37 1.06 1.33 1.428 2.134.638 1.39.671 3.448.679 42.122.008 38.966-.02 40.726-.676 42.209-1.03 2.326-2.499 3.185-6.027 3.523-3.757.36-54.339.339-56.21-.023zm58.255-4.677l.832-.832V29.245l-.832-.832-.832-.831H13.521l-.892 1.036-.891 1.036.033 8.964c-.404 13.342.009 27.114.004 38.343-.017 22.579-.029 22.428 1.815 23.368.712.363 6.91.443 28.921.372l28.016-.09.831-.831zm-51.502-6.742l.117-.825h21.544c21.3 0 21.544.008 21.544.73s-.275.732-21.661.825l-21.661.094zm0-10.955l.117-.824h21.544c21.3 0 21.544.008 21.544.73 0 .721-.275.732-21.661.825l-21.661.094zm.058-10.705c-.121-.316-.066-.73.123-.919.209-.209 8.702-.306 21.684-.249 21.065.093 21.34.104 21.34.825 0 .72-.275.731-21.463.824-19.253.085-21.486.035-21.684-.48zm0-10.954c-.121-.317-.066-.73.123-.92.209-.208 8.702-.306 21.684-.249 21.065.093 21.34.104 21.34.825 0 .72-.275.732-21.463.825-19.253.084-21.486.035-21.684-.481zm.123-10.626c-.136-.136-.247-.55-.247-.919 0-.646.831-.669 21.636-.578 21.36.093 21.635.103 21.635.824s-.275.732-21.39.825c-11.763.052-21.499-.017-21.634-.152zm0-10.955c-.136-.135-.247-.549-.247-.918 0-.647.831-.67 21.636-.579 21.36.093 21.635.104 21.635.825 0 .72-.275.731-21.39.824-11.763.052-21.499-.016-21.634-.152zM10.55 53.058c4.108-210.27 2.054-105.136 0 0zm10.153-32.206c-2.056-.858-2.95-4.197-2.033-7.6.539-2.002 1.35-2.426 5.066-2.65l3.033-.183.876-2.158C29.734 3.112 35.153.013 42.066.013c6.972 0 12.607 3.302 14.553 8.528l.699 1.878 2.507.093c5.1.19 5.61.679 5.61 5.39 0 3.114-.063 3.395-.942 4.222l-.942.885-21.058.074c-11.582.04-21.387-.063-21.789-.23zm22.414-11.02c2.322-.81 2.823-3.904.879-5.433-1.354-1.065-2.875-.943-4.15.333-1.992 1.991-1.142 4.242 2.073 5.49.02.009.56-.167 1.198-.39z" fill="#333945"/><g fill="#fff" stroke-width="1.161"><path d="M67.935 28.95l-2.603 1.154-13.96 12.272-4.09 24.573 2.474 3.304 24.947 8.17 2-.165 7.385-3.737-.732 17.924 1.33 2.437 13.677 13.41 4.225.49 25.656-6.48 1.603-2.214 3.819-28.254-1.9-2.53-17.92-10.516-18.849 2.274.958-18.952-.999-2.169-25.84-11.524z"/><path d="M66.089 28.673c-.467.399-2.182 1.915-3.812 3.37a2281.066 2281.066 0 0 1-9.323 8.295c-.82.727-1.632 1.519-1.805 1.76-.327.453-.37.666-1.633 8.146a3136.66 3136.66 0 0 1-.875 5.138c-2.287 13.361-2.197 12.625-1.667 13.576.56 1.008 1.196 1.372 3.84 2.201.55.173 2.05.663 3.334 1.09 1.283.428 2.364.744 2.402.702.038-.041.112-.02.164.045.081.103.84.377 2.557.923.501.16 8.098 2.637 11.385 3.713 1.446.474 2.889.924 3.206 1.001 1.517.369 2.808.058 5.482-1.318 9.818-5.053 14.327-7.444 14.74-7.815.726-.65 1.245-1.714 1.377-2.816.03-.248.18-3.896.334-8.106.153-4.21.354-9.702.447-12.204.156-4.248.152-4.599-.065-5.305-.238-.778-.702-1.435-1.244-1.763-.263-.16-3.251-1.55-5.536-2.577A485.27 485.27 0 0 0 85.539 35a452.042 452.042 0 0 1-3.854-1.737 486.982 486.982 0 0 0-3.92-1.767 186.777 186.777 0 0 1-2.22-.998c-.121-.07-2.262-1.03-3.199-1.435-.5-.215-1.176-.52-1.502-.678-1.037-.499-1.56-.667-2.203-.71-1-.066-1.566.154-2.552.998zm.416 1.666a.67.67 0 0 1 .316.358c.074.243-.292 3.489-1.668 14.781-.233 1.91-.55 4.545-.704 5.858-.441 3.752-.658 4.46-1.706 5.56-.62.65-12.628 8.869-13.204 9.036-.285.083-.45.06-.673-.093-.577-.396-.593-.113.384-6.628.98-6.543 1.438-9.604 1.79-11.99.196-1.325.407-2.709.47-3.076.205-1.187.568-1.634 3.366-4.14a225.032 225.032 0 0 1 2.552-2.27c.016-.004.622-.533 1.347-1.175 5.792-5.13 7.021-6.193 7.24-6.258a.806.806 0 0 1 .49.037zM54.591 42.35c-1.328.968-2.441 3.315-2.115 4.464.275.968 1.18.972 2.274.01 1.75-1.538 2.59-4.535 1.382-4.927-.325-.105-1.079.117-1.54.454zm3.295 4.47c-1.454.935-2.743 3.496-2.371 4.71.21.686.535.809 1.338.505.823-.31 1.405-.876 2.09-2.033.784-1.325.997-2.641.52-3.214-.328-.392-.937-.38-1.577.032zm3.11 4.77c-2.158 1.398-3.256 5.262-1.509 5.311 1.559.044 3.848-3.37 3.35-4.997-.147-.482-.356-.663-.786-.682-.443-.02-.471-.01-1.055.368zm9.458-22.077c.148.043.298.033.332-.022.035-.056.048-.04.03.034-.029.123.35.31 2.69 1.325.388.168.945.416 1.238.55.292.133 1.003.445 1.58.692.576.248 2.016.886 3.199 1.417 1.182.532 2.524 1.13 2.981 1.328.458.2 2.066.91 3.574 1.577 1.509.669 3.065 1.357 3.459 1.53 4.625 2.039 4.867 2.167 5.353 2.831.41.56.485 1.103.412 2.974-.194 4.913-.537 13.953-.646 16.972-.066 1.86-.153 3.645-.192 3.966-.092.763-.384 1.252-.874 1.467-.479.21-.69.148-5.364-1.582a1165.429 1165.429 0 0 0-6.814-2.502c-2.4-.88-3.349-1.228-4.032-1.475-.418-.15-.878-.329-1.022-.395-.26-.12-1.623-.625-6.178-2.288-2.77-1.011-2.984-1.107-3.388-1.517-.632-.641-.69-1.247-.388-3.98l.506-4.593.545-4.933c.11-.998.368-3.345.571-5.215.203-1.87.43-3.936.505-4.592.075-.655.148-1.391.164-1.635.046-.721.266-1.438.517-1.689.263-.262.81-.37 1.242-.245zm1.686 5.676c-.432.397-.714 1.215-.663 1.923.081 1.135 1.004 2.437 2.134 3.013 1.728.879 3.464.267 3.784-1.333.099-.496.077-.708-.148-1.438-.23-.745-.332-.93-.783-1.42-.985-1.066-2.297-1.527-3.42-1.2-.364.106-.718.284-.904.455zm-.491 6.867c-.465.226-.671.444-.92.974-.23.487-.276 1.378-.1 1.947.359 1.156 1.551 2.32 2.702 2.637 1.175.323 2.213.009 2.756-.835.447-.694.501-1.25.212-2.18-.317-1.019-.826-1.68-1.69-2.195-1.05-.625-2.128-.752-2.96-.348zm15.41-.248c-.376.355-.599.761-.71 1.296-.079.372-.045.644.162 1.325.23.753.325.927.79 1.43.928 1.007 2.095 1.49 3.193 1.324.958-.145 1.76-1.074 1.805-2.09.075-1.71-1.559-3.555-3.362-3.796-.59-.079-1.521.175-1.878.511zm-16.742 7.671a2.24 2.24 0 0 0-.439.533c-1.153 1.952.907 4.926 3.401 4.91 1.89-.014 2.81-1.845 1.852-3.689-.843-1.624-2.581-2.533-4.019-2.1-.312.094-.67.25-.795.346zm16.403-.466c-.798.76-.857 2.088-.147 3.314 1.44 2.488 4.801 2.683 5.4.313.128-.506.114-.66-.134-1.473-.248-.809-.335-.967-.802-1.468-1.317-1.41-3.235-1.716-4.317-.686zm.248 6.368c-.558.277-.98.846-1.1 1.484-.09.477-.065.709.156 1.426.23.744.332.93.783 1.419.63.685 1.09.988 1.835 1.208 2.326.69 3.92-1.367 2.77-3.576-.912-1.753-3.005-2.676-4.444-1.961zM65.22 58.354c.646-.001 1.918.395 5.55 1.728a4332.7 4332.7 0 0 0 9.042 3.31c1.604.586 3.893 1.423 5.088 1.862a2065.9 2065.9 0 0 0 4.577 1.674c1.323.482 2.522.98 2.664 1.109.532.48.505 1.169-.064 1.622-.168.134-2.224 1.218-4.57 2.41-11.322 5.75-11.103 5.65-12.417 5.694-.362.013-.854-.028-1.093-.09-.24-.062-2.639-.854-5.332-1.759a2614.547 2614.547 0 0 0-12.06-4.025 92.974 92.974 0 0 1-1.3-.443 28.457 28.457 0 0 0-1.238-.41 15.151 15.151 0 0 1-.965-.333c-.916-.342-1.248-.413-1.327-.286-.033.053-.045.035-.028-.039.032-.13-.29-.23-.455-.14-.043.023-.064-.013-.045-.08.018-.067-.163-.17-.404-.228-.522-.126-.873-.454-1.028-.959-.194-.632.15-1.045 1.776-2.134 2.724-1.825 7.688-5.16 9.942-6.68 1.259-.848 2.476-1.6 2.706-1.672.23-.072.672-.131.981-.131zm-.951 3.763c-.508.467-.645 1.04-.372 1.557.238.452 1.451 1.124 2.248 1.246 2.67.41 4.963-1.044 3.91-2.478-.302-.411-1.089-.862-1.808-1.037-1.345-.326-3.214.008-3.978.712zm-6.91 4.95c-.608.315-.952.713-1.037 1.198-.108.62.226 1.097 1.083 1.548 1.322.697 3.435.672 4.621-.054.441-.27.877-.924.86-1.291-.07-1.557-3.532-2.434-5.527-1.4zm10.796.312c-1.567 1.028-.652 2.653 1.699 3.015 2.597.401 4.792-.948 3.881-2.385-.83-1.311-3.996-1.669-5.58-.63zm11.852.184c-1.129.735-1.01 1.836.271 2.534 1.993 1.086 5.24.43 5.504-1.111.306-1.794-3.69-2.779-5.775-1.423zm-8.5 4.758c-.571.377-.757.593-.83.964-.145.746.369 1.383 1.479 1.832.804.326 1.738.407 2.816.244.991-.15 1.8-.605 2.128-1.196.38-.683-.102-1.546-1.122-2.013-1.3-.595-3.435-.514-4.47.17z"/><path d="M83.815 92.751l1.354-29.559 28.197-4.462z"/><path d="M85.574 61.83c-.864.413-1.578 1.393-1.764 2.421-.05.274-.288 6.617-.531 14.096-.37 11.412-.418 13.71-.293 14.29.207.971.736 1.903 1.633 2.878.73.794 12.558 12.486 13.136 12.985.187.162.354.238.403.184.053-.058.07-.043.047.04-.05.18.75.604 1.425.756.688.155 1.675.16 2.451.013.336-.063 4.922-1.218 10.191-2.565a9420.334 9420.334 0 0 1 12.617-3.218c3.24-.821 3.663-.976 4.314-1.578.406-.376.854-1.132.99-1.67.095-.381.708-4.407 1.263-8.303.091-.642.396-2.722.678-4.623.281-1.9.52-3.545.53-3.655.01-.11.09-.658.176-1.218.086-.56.28-1.864.43-2.898.15-1.033.414-2.816.586-3.963.452-3.01.509-3.534.451-4.16-.094-1.032-.675-1.913-1.617-2.455l-1.183-.678c-.403-.23-2.074-1.206-3.714-2.17a2197.05 2197.05 0 0 0-9.17-5.366c-.342-.195-1.427-.829-2.413-1.408-.986-.58-1.94-1.102-2.118-1.162-.527-.175-1.073-.161-2.965.075-.984.123-5.187.643-9.339 1.156-4.151.513-8.089 1.002-8.749 1.087-.66.085-1.829.228-2.597.32-2.063.243-4.36.54-4.413.567-.025.014-.23.113-.455.221zm4.794.6c.237-.036 1.29-.187 2.343-.335 3.38-.478 6.438-.914 9.132-1.304 10.9-1.577 10.825-1.568 11.6-1.382.714.17 1.461.589 8.12 4.543a264.09 264.09 0 0 0 2.616 1.538c1.973 1.127 6.24 3.674 6.39 3.814.41.384.33.878-.187 1.145-.143.074-1.004.259-1.914.41-1.522.253-11.058 1.884-13.03 2.229-4.29.75-10.516 1.77-10.835 1.774-.746.01-1.809-.24-2.552-.6-.408-.198-1.24-.747-1.85-1.22-.61-.473-2.136-1.65-3.392-2.614-3.77-2.896-3.951-3.037-4.749-3.666-.422-.334-1.251-.972-1.842-1.418-1.281-.967-1.52-1.2-1.641-1.595-.103-.337.055-.74.351-.899.557-.296.504-.28 1.44-.42zm18.986-1.32c-.275.14-.506.721-.41 1.034.361 1.18 3.143 2.322 5.123 2.103.824-.091 1.262-.305 1.5-.732.358-.647-.185-1.361-1.546-2.032-1.607-.792-3.54-.947-4.667-.374zm-8.094 9.087c-.483.523-.363 1.019.413 1.708.838.744 2.787 1.337 4.21 1.28.77-.03 1.163-.155 1.563-.495.574-.486.357-1.174-.59-1.871-1.595-1.172-4.761-1.524-5.596-.622zm-14.565-5.052c.335.108 1.285.821 5.048 3.787.546.43 2.701 2.12 4.79 3.756 2.09 1.635 3.947 3.12 4.128 3.3.484.478.742 1.117.808 2.003.048.654-.08 3.039-.36 6.65-.048.629-.253 3.533-.455 6.454-1.18 17.072-1.026 15.264-1.345 15.759-.395.614-1.084.654-1.778.103-.21-.167-.952-.88-1.65-1.587a484.627 484.627 0 0 0-1.952-1.962c-.374-.373-1.54-1.543-2.592-2.602a752.236 752.236 0 0 0-2.52-2.526c-2.17-2.151-3.714-3.779-4.051-4.268a4.951 4.951 0 0 1-.63-1.325c-.269-.844-.269-.857-.101-4.493.054-1.193.132-2.988.172-3.99.04-1 .104-2.551.142-3.445l.144-3.446a16975.743 16975.743 0 0 1 .406-9.755c.066-1.591.117-1.83.465-2.167.348-.337.792-.42 1.331-.246zm.944 6.61c-.673.63-.845 1.8-.481 3.261.492 1.972 1.764 3.247 2.907 2.915.697-.203 1.092-.886 1.192-2.064.051-.6.02-.813-.264-1.756-.277-.924-.38-1.15-.733-1.617-.469-.618-1.115-1.067-1.61-1.119-.462-.048-.617.01-1.01.38zm7.713 5.803c-1.005 1.167-.666 3.868.665 5.305.7.756 1.23.962 1.956.762.624-.172 1.112-1.156 1.11-2.236-.004-1.713-.952-3.536-2.131-4.098-.445-.212-.562-.226-.945-.115-.28.082-.516.22-.655.382zm-8.66 9.87c-.371.351-.53.687-.634 1.343-.257 1.623.493 3.697 1.64 4.54.405.296 1.046.467 1.386.369.315-.091.794-.53.941-.863.332-.75.349-2.002.04-3.01-.654-2.14-2.355-3.339-3.372-2.379zm7.515 7.106c-1.277 1.327-.431 4.974 1.383 5.962.868.473 1.578.226 2.018-.703.828-1.75-.193-4.774-1.866-5.525-.426-.191-.585-.213-.894-.121-.21.062-.494.233-.641.387zm14.916-18.207c1.675-.3 4.47-.809 6.212-1.128 8.462-1.554 14.95-2.726 15.541-2.808 1.224-.17 1.774.095 1.922.924.039.215-.032 1.121-.156 2.013l-.455 3.245c-.126.892-.596 4.268-1.046 7.501-.45 3.234-.928 6.655-1.063 7.604-.136.949-.39 2.761-.567 4.027-.4 2.881-.61 3.399-1.613 3.991-.429.254-1.333.498-9.206 2.488l-10.35 2.619c-4.48 1.137-5.091 1.265-5.607 1.176-.267-.046-.605-.173-.751-.282-.52-.386-.526-.68-.134-5.96.421-5.666.82-11.121 1.292-17.675.354-4.92.407-5.375.691-5.893.492-.897.979-1.067 5.29-1.842zm-.244 3.71c-1.402 1.007-2.084 2.813-1.624 4.298.28.901.883 1.431 1.838 1.613.606.116 1.72-.218 2.332-.698 1.689-1.327 2.174-3.827.993-5.112-.42-.458-.748-.627-1.378-.71-.605-.08-1.587.196-2.161.608zm15.846-2.662c-.517.304-1.382 1.242-1.65 1.788-.786 1.61-.447 3.425.758 4.06.67.352 1.095.378 1.984.12.722-.21.831-.271 1.381-.77 1.423-1.289 1.818-3.336.914-4.739-.255-.395-.84-.753-1.394-.853-.471-.086-1.534.124-1.993.394zm-8.436 9.712c-1.432.881-2.253 2.667-1.908 4.151.188.807.458 1.232 1 1.573.962.605 2.345.387 3.402-.536 2.166-1.89 1.885-5.213-.477-5.644-.542-.099-1.448.106-2.017.456zm-8.236 9.645c-2.021 1.048-2.896 3.94-1.636 5.41.643.75 1.5.974 2.548.666 1.987-.583 3.26-2.88 2.67-4.81-.19-.62-.445-.948-1.007-1.291-.696-.426-1.724-.416-2.575.025zm14.24-3.53c-1.95 1.33-2.562 3.993-1.236 5.374 1.507 1.57 4.501.196 5.144-2.36.412-1.64-.276-3.1-1.63-3.456-.433-.113-.633-.107-1.232.04-.429.106-.849.268-1.046.402z"/></g><g stroke-width="1.279"><path d="M67.942 30.415l-2.333 1.061-12.512 11.287-3.665 22.6 2.217 3.038 22.36 7.514 1.792-.152 6.619-3.436-.656 16.483 1.192 2.242 12.258 12.333 3.787.451 22.995-5.96 1.436-2.036 3.423-25.985-1.702-2.327-16.062-9.671-16.893 2.09.858-17.429-.895-1.995L69 29.925z" fill="#fff"/><path d="M66.288 30.16a362.61 362.61 0 0 0-3.417 3.1 2062.793 2062.793 0 0 1-8.356 7.629c-.735.668-1.463 1.396-1.618 1.617-.292.418-.33.614-1.464 7.493-.177 1.08-.53 3.206-.784 4.725-2.05 12.288-1.968 11.611-1.494 12.486.503.927 1.072 1.262 3.443 2.025.492.158 1.837.61 2.987 1.002 1.15.393 2.12.684 2.153.645.034-.038.1-.019.147.042.073.095.754.347 2.292.849.449.146 7.258 2.425 10.204 3.415 1.296.435 2.59.85 2.874.92 1.36.34 2.517.054 4.913-1.212 8.8-4.648 12.84-6.846 13.212-7.188.65-.598 1.115-1.576 1.234-2.589.026-.229.16-3.584.298-7.456l.4-11.223c.141-3.907.137-4.23-.057-4.879-.214-.716-.63-1.32-1.115-1.622-.236-.146-2.914-1.425-4.962-2.37a429.469 429.469 0 0 0-3.458-1.59 400.146 400.146 0 0 1-3.454-1.597c-.872-.41-2.453-1.141-3.513-1.626a165.33 165.33 0 0 1-1.99-.917c-.109-.065-2.027-.948-2.867-1.32a44.46 44.46 0 0 1-1.347-.623c-.929-.46-1.397-.614-1.974-.653-.897-.062-1.403.142-2.287.917zm.373 1.533a.612.612 0 0 1 .283.329c.066.223-.262 3.208-1.495 13.594-.209 1.756-.493 4.18-.631 5.387-.396 3.45-.59 4.101-1.529 5.113-.556.599-11.318 8.157-11.835 8.311-.255.077-.403.055-.603-.086-.517-.364-.531-.104.344-6.095.88-6.018 1.29-8.833 1.605-11.027.175-1.218.365-2.491.422-2.83.183-1.091.508-1.502 3.015-3.807a203.469 203.469 0 0 1 2.288-2.087c.014-.004.558-.49 1.207-1.081 5.192-4.719 6.293-5.696 6.49-5.756a.705.705 0 0 1 .439.035zM55.982 42.738c-1.19.89-2.187 3.05-1.895 4.105.246.89 1.058.895 2.038.01 1.568-1.414 2.322-4.171 1.239-4.531-.291-.097-.967.107-1.381.417zm2.954 4.111c-1.303.86-2.459 3.215-2.126 4.332.189.63.48.744 1.2.465.738-.287 1.259-.807 1.872-1.87.704-1.22.895-2.43.466-2.957-.293-.36-.838-.349-1.412.03zm2.787 4.387c-1.934 1.285-2.918 4.84-1.352 4.885 1.397.04 3.449-3.1 3.003-4.596-.133-.444-.32-.61-.705-.628-.397-.018-.422-.009-.946.34zM70.2 30.932c.133.04.267.03.298-.02.03-.051.043-.037.027.03-.026.114.314.286 2.41 1.22.348.155.848.382 1.11.505.262.122.899.41 1.416.637.517.228 1.807.814 2.867 1.303A361.76 361.76 0 0 0 81 35.83c.41.183 1.852.836 3.204 1.45l3.1 1.408c4.145 1.874 4.362 1.992 4.798 2.602.367.516.434 1.015.368 2.735-.173 4.519-.48 12.833-.578 15.61-.06 1.71-.137 3.352-.172 3.647-.083.701-.344 1.152-.783 1.35-.43.193-.619.136-4.808-1.456a1027.618 1027.618 0 0 0-6.107-2.3c-2.15-.81-3.002-1.13-3.615-1.357a16.71 16.71 0 0 1-.916-.364c-.232-.11-1.454-.575-5.536-2.104-2.484-.93-2.675-1.018-3.037-1.395-.566-.59-.619-1.147-.348-3.66l.454-4.224.488-4.537c.1-.918.33-3.076.512-4.796.182-1.72.386-3.62.453-4.224.066-.602.132-1.28.146-1.504.042-.663.239-1.322.464-1.552.235-.242.727-.341 1.113-.226zm1.512 5.22c-.388.365-.64 1.117-.595 1.769.073 1.044.9 2.241 1.913 2.77 1.548.809 3.105.246 3.39-1.225.09-.457.07-.652-.132-1.323-.206-.685-.297-.855-.702-1.305-.882-.981-2.058-1.405-3.065-1.104-.325.097-.643.261-.81.418zm-.44 6.316c-.418.208-.602.408-.826.895-.206.448-.247 1.268-.088 1.791.32 1.063 1.39 2.134 2.42 2.425 1.054.298 1.984.008 2.471-.768.4-.638.449-1.149.19-2.005-.284-.937-.74-1.545-1.516-2.019-.94-.574-1.907-.69-2.652-.32zm13.81-.228c-.336.326-.536.7-.636 1.192-.07.342-.04.591.146 1.218.205.693.291.852.708 1.316.832.925 1.877 1.37 2.862 1.217.858-.133 1.578-.988 1.618-1.922.067-1.573-1.398-3.27-3.014-3.491-.528-.073-1.364.16-1.683.47zm-15.005 7.055a2.05 2.05 0 0 0-.393.49c-1.034 1.795.813 4.53 3.048 4.515 1.694-.012 2.518-1.697 1.66-3.392-.755-1.494-2.314-2.33-3.602-1.932-.28.087-.6.23-.713.319zm14.702-.43c-.715.7-.768 1.92-.132 3.049 1.29 2.288 4.303 2.467 4.84.287.115-.465.102-.607-.12-1.354-.222-.744-.3-.89-.719-1.35-1.18-1.298-2.9-1.578-3.87-.631zM85 54.723c-.5.255-.878.779-.986 1.366-.08.438-.058.651.14 1.31.206.685.298.855.702 1.305.565.63.977.909 1.644 1.112 2.086.634 3.514-1.257 2.483-3.289-.817-1.612-2.693-2.462-3.983-1.804zm-19.49 2.735c.578 0 1.718.364 4.973 1.59 3.86 1.453 5.378 2.024 8.104 3.044 1.438.538 3.49 1.31 4.56 1.713 1.071.403 2.918 1.096 4.103 1.539 1.186.443 2.26.902 2.387 1.02.477.442.453 1.075-.057 1.492-.15.123-1.993 1.12-4.095 2.215-10.148 5.289-9.953 5.197-11.13 5.238-.324.011-.765-.026-.98-.083-.214-.057-2.365-.785-4.778-1.617a2301.88 2301.88 0 0 0-10.81-3.702 81.881 81.881 0 0 1-1.165-.408 25.048 25.048 0 0 0-1.11-.376c-.1-.026-.49-.164-.864-.307-.82-.314-1.118-.38-1.19-.263-.03.049-.04.032-.024-.036.028-.12-.261-.211-.408-.13-.04.022-.058-.01-.041-.072.017-.062-.146-.156-.362-.21a1.22 1.22 0 0 1-.921-.882c-.174-.582.134-.96 1.591-1.963 2.442-1.678 6.89-4.745 8.912-6.143 1.127-.78 2.219-1.472 2.425-1.538.206-.066.602-.12.88-.12zm-.854 3.461c-.455.43-.578.957-.333 1.432.214.416 1.3 1.034 2.015 1.147 2.392.376 4.448-.96 3.504-2.28-.27-.378-.975-.793-1.62-.953-1.206-.3-2.88.007-3.566.654zm-6.193 4.553c-.545.29-.853.656-.929 1.102-.097.57.202 1.009.97 1.424 1.185.64 3.08.617 4.142-.05.395-.248.786-.85.77-1.188-.062-1.431-3.165-2.238-4.953-1.288zm9.677.287c-1.405.945-.585 2.44 1.522 2.773 2.328.368 4.295-.872 3.479-2.194-.744-1.206-3.582-1.535-5.001-.58zm10.622.17c-1.011.675-.906 1.687.243 2.33 1.787.999 4.697.395 4.933-1.023.274-1.65-3.308-2.555-5.176-1.308zm-7.618 4.375c-.512.347-.679.545-.744.887-.13.686.33 1.271 1.325 1.685.721.3 1.559.374 2.524.224.889-.138 1.614-.557 1.908-1.1.34-.629-.091-1.422-1.006-1.852-1.165-.546-3.079-.472-4.007.156z" fill="#333945"/><path d="M82.175 89.092l1.214-27.185 25.272-4.103z" fill="#fff"/><path d="M83.752 60.654c-.775.38-1.414 1.282-1.581 2.227-.044.252-.259 6.085-.476 12.964-.332 10.495-.374 12.61-.263 13.143.186.893.66 1.75 1.464 2.646.654.73 11.255 11.483 11.773 11.942.168.149.318.219.361.17.048-.054.063-.04.043.036-.045.165.672.555 1.277.695.616.143 1.5.148 2.197.013.301-.059 4.412-1.12 9.134-2.36a8268.24 8268.24 0 0 1 11.308-2.96c2.905-.755 3.283-.897 3.866-1.45.365-.346.766-1.041.887-1.536.086-.351.635-4.054 1.133-7.637.082-.59.355-2.503.607-4.25.252-1.749.466-3.262.475-3.363.01-.1.08-.605.158-1.12.077-.515.251-1.714.386-2.665.135-.95.37-2.59.525-3.645.405-2.767.456-3.25.404-3.825-.085-.95-.605-1.76-1.45-2.258l-1.06-.624c-.36-.212-1.859-1.11-3.328-1.995-3.984-2.4-7.593-4.568-8.22-4.936-.305-.18-1.278-.762-2.162-1.295-.884-.533-1.738-1.013-1.898-1.068-.473-.161-.962-.149-2.657.069l-8.37 1.063c-3.722.472-7.25.922-7.842 1-.592.077-1.64.21-2.328.293-1.849.225-3.909.497-3.956.523-.022.012-.206.104-.407.203zm4.297.552c.212-.033 1.156-.171 2.1-.308 3.028-.44 5.77-.84 8.184-1.2 9.77-1.45 9.702-1.442 10.398-1.27.639.157 1.309.542 7.277 4.178.925.564 1.98 1.2 2.345 1.414 1.768 1.037 5.592 3.38 5.726 3.508.369.353.297.808-.166 1.053-.129.068-.901.238-1.716.377-1.364.233-9.912 1.733-11.68 2.05-3.844.69-9.424 1.627-9.71 1.632-.668.01-1.621-.22-2.287-.552-.366-.182-1.112-.687-1.658-1.122-.547-.435-1.915-1.517-3.04-2.404-3.38-2.664-3.542-2.793-4.257-3.372-.378-.307-1.121-.893-1.65-1.304-1.15-.89-1.363-1.103-1.472-1.467-.092-.31.05-.681.315-.826.499-.273.451-.258 1.291-.387zm17.016-1.214c-.247.128-.453.663-.367.951.323 1.085 2.817 2.136 4.591 1.934.74-.084 1.132-.28 1.344-.673.322-.595-.165-1.252-1.385-1.869-1.44-.729-3.172-.87-4.183-.343zm-7.254 8.358c-.433.48-.325.936.37 1.57.75.685 2.498 1.23 3.773 1.178.69-.029 1.042-.143 1.402-.455.514-.448.32-1.08-.53-1.722-1.429-1.077-4.267-1.401-5.015-.571zm-13.054-4.646c.3.099 1.151.755 4.524 3.482.49.396 2.421 1.95 4.293 3.454 1.873 1.504 3.538 2.87 3.7 3.035.434.44.665 1.028.724 1.843.043.601-.072 2.794-.322 6.115-.043.579-.227 3.25-.408 5.936-1.059 15.701-.92 14.039-1.206 14.493-.354.565-.972.602-1.593.095-.188-.153-.854-.81-1.48-1.46-.626-.65-1.413-1.461-1.749-1.804a953.28 953.28 0 0 1-2.323-2.393 683.365 683.365 0 0 0-2.258-2.323c-1.945-1.978-3.33-3.475-3.632-3.926a4.606 4.606 0 0 1-.565-1.217c-.24-.777-.24-.789-.09-4.133.05-1.097.119-2.748.155-3.669.036-.92.093-2.347.127-3.169l.13-3.169a16018.06 16018.06 0 0 1 .363-8.972c.059-1.463.104-1.682.416-1.992.312-.31.71-.386 1.194-.226zm.846 6.078c-.603.58-.758 1.656-.432 3 .441 1.813 1.581 2.986 2.606 2.68.625-.186.979-.815 1.069-1.898.045-.552.017-.747-.237-1.615-.248-.85-.34-1.057-.657-1.487-.42-.568-1-.982-1.443-1.029-.414-.044-.553.01-.906.349zm6.912 5.337c-.9 1.073-.596 3.557.597 4.879.627.695 1.103.885 1.753.7.559-.158.996-1.062.994-2.056-.003-1.575-.853-3.252-1.91-3.769-.398-.195-.503-.208-.846-.105-.25.075-.463.202-.588.351zm-7.76 9.078c-.334.323-.476.631-.569 1.234-.23 1.493.442 3.401 1.47 4.175.363.273.937.43 1.242.34.282-.083.711-.487.843-.793.298-.69.313-1.842.036-2.769-.587-1.967-2.11-3.07-3.022-2.187zm6.734 6.535c-1.144 1.22-.386 4.574 1.24 5.483.778.435 1.415.208 1.808-.646.742-1.61-.172-4.39-1.672-5.082-.382-.176-.524-.196-.801-.111a1.53 1.53 0 0 0-.575.356zm13.37-16.745c1.5-.277 4.006-.744 5.567-1.038 7.584-1.428 13.4-2.506 13.93-2.582 1.096-.156 1.589.087 1.722.85.034.198-.029 1.031-.14 1.852l-.408 2.984c-.113.82-.535 3.925-.938 6.899-.403 2.973-.832 6.12-.953 6.993-.12.872-.35 2.539-.507 3.703-.36 2.65-.547 3.126-1.446 3.67-.384.234-1.195.458-8.25 2.29a22917 22917 0 0 0-9.278 2.407c-4.016 1.046-4.563 1.164-5.025 1.082-.24-.042-.543-.159-.673-.259-.466-.356-.472-.626-.12-5.481.377-5.212.734-10.229 1.157-16.256.318-4.524.366-4.943.62-5.42.44-.825.877-.981 4.741-1.694zm-.22 3.412c-1.256.926-1.867 2.588-1.455 3.953.251.829.792 1.316 1.647 1.484.544.106 1.543-.201 2.09-.643 1.514-1.22 1.95-3.52.89-4.701-.377-.42-.67-.576-1.234-.653-.542-.074-1.423.18-1.938.56zm14.203-2.448c-.463.28-1.239 1.142-1.478 1.644-.705 1.481-.402 3.15.679 3.734.6.324.98.348 1.778.11.647-.193.745-.249 1.237-.707 1.276-1.186 1.63-3.069.82-4.359-.229-.363-.753-.693-1.25-.785-.422-.078-1.374.115-1.786.363zm-7.56 8.932c-1.284.81-2.02 2.453-1.711 3.818.168.742.41 1.133.896 1.446.862.557 2.102.357 3.05-.493 1.94-1.738 1.689-4.794-.428-5.19-.486-.091-1.298.097-1.808.419zm-7.382 8.87c-1.812.964-2.597 3.624-1.467 4.975.576.69 1.345.896 2.284.613 1.78-.536 2.922-2.648 2.392-4.424-.17-.57-.398-.871-.902-1.187-.624-.392-1.545-.383-2.307.023zm12.762-3.246c-1.747 1.222-2.296 3.672-1.108 4.942 1.35 1.444 4.035.18 4.61-2.17.37-1.508-.247-2.85-1.46-3.178-.388-.105-.568-.099-1.105.037-.384.097-.76.245-.937.37z" fill="#333945"/></g></svg>