<?xml version="1.0" encoding="UTF-8" standalone="no"?>
<!-- Created with Inkscape (http://www.inkscape.org/) -->

<svg
   xmlns:dc="http://purl.org/dc/elements/1.1/"
   xmlns:cc="http://creativecommons.org/ns#"
   xmlns:rdf="http://www.w3.org/1999/02/22-rdf-syntax-ns#"
   xmlns:svg="http://www.w3.org/2000/svg"
   xmlns="http://www.w3.org/2000/svg"
   xmlns:sodipodi="http://sodipodi.sourceforge.net/DTD/sodipodi-0.dtd"
   xmlns:inkscape="http://www.inkscape.org/namespaces/inkscape"
   width="48"
   height="48"
   viewBox="0 0 12.7 12.7"
   version="1.1"
   id="svg8"
   inkscape:version="0.92.2 (5c3e80d, 2017-08-06)"
   sodipodi:docname="Иконка_ЭкоЛаб_new.svg">
  <defs
     id="defs2">
    <inkscape:path-effect
       effect="spiro"
       id="path-effect4735"
       is_visible="true" />
    <inkscape:path-effect
       effect="spiro"
       id="path-effect4729"
       is_visible="true" />
    <inkscape:path-effect
       effect="spiro"
       id="path-effect4673"
       is_visible="true" />
    <inkscape:path-effect
       is_visible="true"
       id="path-effect6631"
       effect="spiro" />
    <inkscape:path-effect
       effect="spiro"
       id="path-effect6627"
       is_visible="true" />
    <inkscape:path-effect
       effect="spiro"
       id="path-effect6623"
       is_visible="true" />
    <inkscape:path-effect
       is_visible="true"
       id="path-effect6619"
       effect="spiro" />
    <inkscape:path-effect
       effect="skeletal"
       id="path-effect6567"
       is_visible="true"
       pattern="m 29.671094,-11.693042 h 1"
       copytype="single_stretched"
       prop_scale="0.64"
       scale_y_rel="false"
       spacing="0"
       normal_offset="0"
       tang_offset="0"
       prop_units="false"
       vertical_pattern="false"
       fuse_tolerance="0" />
    <inkscape:path-effect
       effect="skeletal"
       id="path-effect6555"
       is_visible="true"
       pattern="m 8.065085,284.3325 -0.00265,2.05052 H 0.0325 v 2.26549 h 8.0268991 l -0.00265,2.1792 4.9769577,-3.2396 z"
       copytype="repeated_stretched"
       prop_scale="1"
       scale_y_rel="false"
       spacing="0"
       normal_offset="0"
       tang_offset="0"
       prop_units="false"
       vertical_pattern="false"
       fuse_tolerance="0" />
    <inkscape:path-effect
       effect="skeletal"
       id="path-effect6537"
       is_visible="true"
       pattern="m 19.317152,313.72993 0.07213,5.12646 -19.2805474,0.29518 0.08671,5.66379 19.2732474,-0.29507 0.07706,5.44815 11.826093,-8.28203 z"
       copytype="repeated"
       prop_scale="1.529257"
       scale_y_rel="false"
       spacing="0"
       normal_offset="0"
       tang_offset="0"
       prop_units="false"
       vertical_pattern="false"
       fuse_tolerance="0" />
    <inkscape:path-effect
       is_visible="true"
       id="path-effect6496"
       effect="spiro" />
    <inkscape:path-effect
       is_visible="true"
       id="path-effect6431"
       effect="spiro" />
    <inkscape:path-effect
       effect="spiro"
       id="path-effect6427"
       is_visible="true" />
    <inkscape:path-effect
       effect="spiro"
       id="path-effect6423"
       is_visible="true" />
    <inkscape:path-effect
       is_visible="true"
       id="path-effect6419"
       effect="spiro" />
    <inkscape:path-effect
       is_visible="true"
       id="path-effect6411"
       effect="spiro" />
    <inkscape:path-effect
       is_visible="true"
       id="path-effect4708"
       effect="spiro" />
    <inkscape:path-effect
       effect="spiro"
       id="path-effect4704"
       is_visible="true" />
    <inkscape:path-effect
       effect="spiro"
       id="path-effect4700"
       is_visible="true" />
    <inkscape:path-effect
       is_visible="true"
       id="path-effect4696"
       effect="spiro" />
    <inkscape:path-effect
       is_visible="true"
       id="path-effect4603"
       effect="spiro" />
    <inkscape:path-effect
       effect="spiro"
       id="path-effect4599"
       is_visible="true" />
    <inkscape:path-effect
       effect="spiro"
       id="path-effect4595"
       is_visible="true" />
    <inkscape:path-effect
       is_visible="true"
       id="path-effect4591"
       effect="spiro" />
    <inkscape:path-effect
       effect="spiro"
       id="path-effect4559"
       is_visible="true" />
    <inkscape:path-effect
       is_visible="true"
       id="path-effect6079"
       effect="spiro" />
    <inkscape:path-effect
       effect="spiro"
       id="path-effect6075"
       is_visible="true" />
    <inkscape:path-effect
       effect="spiro"
       id="path-effect6071"
       is_visible="true" />
    <inkscape:path-effect
       is_visible="true"
       id="path-effect6067"
       effect="spiro" />
    <inkscape:path-effect
       effect="spiro"
       id="path-effect6059"
       is_visible="true" />
    <inkscape:path-effect
       is_visible="true"
       id="path-effect4521"
       effect="spiro" />
    <inkscape:path-effect
       effect="spiro"
       id="path-effect4516"
       is_visible="true" />
    <inkscape:path-effect
       effect="spiro"
       id="path-effect4505"
       is_visible="true" />
    <inkscape:path-effect
       effect="spiro"
       id="path-effect4520"
       is_visible="true" />
    <inkscape:path-effect
       effect="spiro"
       id="path-effect4508"
       is_visible="true" />
    <inkscape:path-effect
       effect="spiro"
       id="path-effect4504"
       is_visible="true" />
    <inkscape:path-effect
       is_visible="true"
       id="path-effect4521-0"
       effect="spiro" />
    <filter
       inkscape:collect="always"
       style="color-interpolation-filters:sRGB"
       id="filter967"
       x="-0.049858917"
       width="1.0997178"
       y="-0.075319691"
       height="1.1506394">
      <feGaussianBlur
         inkscape:collect="always"
         stdDeviation="0.49104143"
         id="feGaussianBlur969" />
    </filter>
  </defs>
  <sodipodi:namedview
     id="base"
     pagecolor="#ffffff"
     bordercolor="#666666"
     borderopacity="1.0"
     inkscape:pageopacity="0.0"
     inkscape:pageshadow="2"
     inkscape:zoom="11.313708"
     inkscape:cx="17.793486"
     inkscape:cy="25.380426"
     inkscape:document-units="mm"
     inkscape:current-layer="layer1"
     showgrid="false"
     units="px"
     inkscape:window-width="1920"
     inkscape:window-height="1001"
     inkscape:window-x="-9"
     inkscape:window-y="-9"
     inkscape:window-maximized="1"
     inkscape:snap-global="false" />
  <metadata
     id="metadata5">
    <rdf:RDF>
      <cc:Work
         rdf:about="">
        <dc:format>image/svg+xml</dc:format>
        <dc:type
           rdf:resource="http://purl.org/dc/dcmitype/StillImage" />
        <dc:title />
      </cc:Work>
    </rdf:RDF>
  </metadata>
  <g
     inkscape:label="Layer 1"
     inkscape:groupmode="layer"
     id="layer1"
     transform="translate(0,-284.3)">
    <path
       style="opacity:0.98000004;fill:#8fb82b;fill-opacity:1;stroke:none;stroke-width:2.9266634;stroke-miterlimit:4;stroke-dasharray:none;stroke-opacity:1"
       d="M 7.3476562 0.61523438 C 3.5706484 0.61523438 0.53125 3.6546328 0.53125 7.4316406 L 0.53125 40.833984 C 0.53125 44.610992 3.5706484 47.650391 7.3476562 47.650391 L 40.740234 47.650391 C 44.517242 47.650391 47.558594 44.610992 47.558594 40.833984 L 47.558594 7.4316406 C 47.558594 3.6546328 44.517242 0.61523438 40.740234 0.61523438 L 7.3476562 0.61523438 z "
       transform="matrix(0.26458333,0,0,0.26458333,0,284.3)"
       id="rect888" />
    <g
       style="fill:#000000;filter:url(#filter967)"
       transform="matrix(0.40803579,0,0,0.40803579,15.094754,167.62939)"
       id="g945">
      <path
         style="fill:#000000;stroke-width:0.26068562"
         d="m -32.213752,309.10736 -0.844532,-0.21244 v -2.17584 c 0,-1.19672 0.06634,-2.17584 0.147421,-2.17584 0.08108,0 0.664624,0.12642 1.296762,0.28093 0.959523,0.23455 1.309876,0.207 2.121354,-0.16681 0.97424,-0.44878 1.941268,-1.53197 1.633991,-1.83026 -0.0901,-0.0875 -0.790839,-0.17054 -1.557195,-0.18462 l -1.393375,-0.0256 -0.05792,-1.22001 -0.05792,-1.22001 h 1.466384 c 1.242678,0 1.453052,-0.0672 1.379004,-0.44046 -0.04806,-0.24224 -0.472933,-0.69267 -0.944167,-1.00094 -0.86459,-0.56561 -2.160672,-0.66155 -3.439027,-0.25458 -0.586343,0.18667 -0.595313,0.15624 -0.595313,-2.01903 0,-2.43907 -0.02482,-2.40512 1.852083,-2.53259 3.692564,-0.25078 7.208117,2.13327 8.093615,5.48861 0.950676,3.60232 -0.34733,7.24098 -3.152297,8.83673 -1.567004,0.89146 -4.260211,1.27753 -5.948869,0.85275 z"
         id="path941"
         inkscape:connector-curvature="0" />
      <path
         style="fill:#000000;stroke-width:0.26458332"
         d="m -21.923184,309.25686 -0.859896,-0.0829 v -2.0999 c 0,-1.6902 0.07743,-2.09991 0.396875,-2.09991 0.475045,0 0.434926,0.23222 0.537675,-3.11211 0.141983,-4.62128 1.431132,-7.05323 4.169976,-7.86658 2.602067,-0.77273 4.667267,-0.27788 6.342423,1.51975 1.5067387,1.61689 1.8036407,3.01327 1.8635827,8.76469 l 0.05093,4.88646 -1.3229157,0.0867 c -0.727605,0.0477 -1.799167,0.0272 -2.38125,-0.0456 l -1.058334,-0.13229 -0.02105,-4.10105 c -0.02907,-5.66405 -0.05583,-5.99221 -0.527014,-6.46339 -0.867744,-0.86774 -2.609615,-0.10858 -2.48465,1.08289 0.02802,0.26714 0.03723,2.53013 0.02047,5.02887 l -0.03047,4.54316 -1.918229,0.087 c -1.055026,0.0479 -2.305182,0.0497 -2.778125,0.004 z"
         id="path943"
         inkscape:connector-curvature="0" />
    </g>
    <g
       id="g939"
       transform="matrix(0.40803579,0,0,0.40803579,15.059675,167.57092)"
       style="fill:#ffffff">
      <path
         inkscape:connector-curvature="0"
         id="path920"
         d="m -32.213752,309.10736 -0.844532,-0.21244 v -2.17584 c 0,-1.19672 0.06634,-2.17584 0.147421,-2.17584 0.08108,0 0.664624,0.12642 1.296762,0.28093 0.959523,0.23455 1.309876,0.207 2.121354,-0.16681 0.97424,-0.44878 1.941268,-1.53197 1.633991,-1.83026 -0.0901,-0.0875 -0.790839,-0.17054 -1.557195,-0.18462 l -1.393375,-0.0256 -0.05792,-1.22001 -0.05792,-1.22001 h 1.466384 c 1.242678,0 1.453052,-0.0672 1.379004,-0.44046 -0.04806,-0.24224 -0.472933,-0.69267 -0.944167,-1.00094 -0.86459,-0.56561 -2.160672,-0.66155 -3.439027,-0.25458 -0.586343,0.18667 -0.595313,0.15624 -0.595313,-2.01903 0,-2.43907 -0.02482,-2.40512 1.852083,-2.53259 3.692564,-0.25078 7.208117,2.13327 8.093615,5.48861 0.950676,3.60232 -0.34733,7.24098 -3.152297,8.83673 -1.567004,0.89146 -4.260211,1.27753 -5.948869,0.85275 z"
         style="fill:#ffffff;stroke-width:0.26068562" />
      <path
         inkscape:connector-curvature="0"
         id="path933"
         d="m -21.923184,309.25686 -0.859896,-0.0829 v -2.0999 c 0,-1.6902 0.07743,-2.09991 0.396875,-2.09991 0.475045,0 0.434926,0.23222 0.537675,-3.11211 0.141983,-4.62128 1.431132,-7.05323 4.169976,-7.86658 2.602067,-0.77273 4.667267,-0.27788 6.342423,1.51975 1.5067387,1.61689 1.8036407,3.01327 1.8635827,8.76469 l 0.05093,4.88646 -1.3229157,0.0867 c -0.727605,0.0477 -1.799167,0.0272 -2.38125,-0.0456 l -1.058334,-0.13229 -0.02105,-4.10105 c -0.02907,-5.66405 -0.05583,-5.99221 -0.527014,-6.46339 -0.867744,-0.86774 -2.609615,-0.10858 -2.48465,1.08289 0.02802,0.26714 0.03723,2.53013 0.02047,5.02887 l -0.03047,4.54316 -1.918229,0.087 c -1.055026,0.0479 -2.305182,0.0497 -2.778125,0.004 z"
         style="fill:#ffffff;stroke-width:0.26458332" />
    </g>
  </g>
</svg>
