<?xml version="1.0" encoding="UTF-8" standalone="no"?>
<!-- Created with Inkscape (http://www.inkscape.org/) -->

<svg
   xmlns:dc="http://purl.org/dc/elements/1.1/"
   xmlns:cc="http://creativecommons.org/ns#"
   xmlns:rdf="http://www.w3.org/1999/02/22-rdf-syntax-ns#"
   xmlns:svg="http://www.w3.org/2000/svg"
   xmlns="http://www.w3.org/2000/svg"
   xmlns:xlink="http://www.w3.org/1999/xlink"
   xmlns:sodipodi="http://sodipodi.sourceforge.net/DTD/sodipodi-0.dtd"
   xmlns:inkscape="http://www.inkscape.org/namespaces/inkscape"
   width="500"
   height="200"
   viewBox="0 0 132.29167 52.916668"
   version="1.1"
   id="svg8"
   inkscape:version="0.92.2 (5c3e80d, 2017-08-06)"
   sodipodi:docname="Splashscreen_new.svg">
  <defs
     id="defs2">
    <linearGradient
       inkscape:collect="always"
       id="linearGradient1338">
      <stop
         style="stop-color:#8fb82b;stop-opacity:1;"
         offset="0"
         id="stop1334" />
      <stop
         style="stop-color:#7c9e26;stop-opacity:1"
         offset="1"
         id="stop1336" />
    </linearGradient>
    <filter
       inkscape:collect="always"
       style="color-interpolation-filters:sRGB"
       id="filter1090"
       x="-0.012469627"
       width="1.0249393"
       y="-0.049772341"
       height="1.0995447">
      <feGaussianBlur
         inkscape:collect="always"
         stdDeviation="0.49422131"
         id="feGaussianBlur1092" />
    </filter>
    <radialGradient
       inkscape:collect="always"
       xlink:href="#linearGradient1338"
       id="radialGradient1340"
       cx="66.181435"
       cy="270.55334"
       fx="66.181435"
       fy="270.55334"
       r="66.137016"
       gradientTransform="matrix(1.0905637,-0.01737007,0.00733833,0.4605671,-7.9673463,147.09495)"
       gradientUnits="userSpaceOnUse" />
  </defs>
  <sodipodi:namedview
     id="base"
     pagecolor="#ffffff"
     bordercolor="#666666"
     borderopacity="1.0"
     inkscape:pageopacity="0.0"
     inkscape:pageshadow="2"
     inkscape:zoom="1.4142136"
     inkscape:cx="188.52713"
     inkscape:cy="32.789707"
     inkscape:document-units="mm"
     inkscape:current-layer="layer1"
     showgrid="false"
     inkscape:window-width="1366"
     inkscape:window-height="705"
     inkscape:window-x="-8"
     inkscape:window-y="-8"
     inkscape:window-maximized="1"
     inkscape:snap-global="false"
     units="px"
     inkscape:pagecheckerboard="false" />
  <metadata
     id="metadata5">
    <rdf:RDF>
      <cc:Work
         rdf:about="">
        <dc:format>image/svg+xml</dc:format>
        <dc:type
           rdf:resource="http://purl.org/dc/dcmitype/StillImage" />
        <dc:title />
      </cc:Work>
    </rdf:RDF>
  </metadata>
  <g
     inkscape:label="Layer 1"
     inkscape:groupmode="layer"
     id="layer1"
     transform="translate(0,-244.08331)">
    <text
       xml:space="preserve"
       style="font-style:normal;font-weight:normal;font-size:10.58333302px;line-height:1.25;font-family:sans-serif;letter-spacing:0px;word-spacing:0px;fill:#000000;fill-opacity:1;stroke:none;stroke-width:0.26458332"
       x="134.70384"
       y="103.49686"
       id="text5313"><tspan
         sodipodi:role="line"
         id="tspan5311"
         x="134.70384"
         y="113.15235"
         style="stroke-width:0.26458332" /></text>
    <rect
       y="58.276741"
       x="-198.54898"
       height="69.222809"
       width="159.77373"
       id="rect856"
       style="opacity:1;fill:#ffffff;fill-opacity:1;fill-rule:nonzero;stroke:none;stroke-width:1.11500001;stroke-linecap:round;stroke-linejoin:round;stroke-miterlimit:4;stroke-dasharray:none;stroke-opacity:0;paint-order:normal" />
    <rect
       style="opacity:1;fill:url(#radialGradient1340);fill-opacity:1;stroke:none;stroke-width:0.59389037;stroke-miterlimit:4;stroke-dasharray:none;stroke-opacity:1"
       id="rect936"
       width="132.29742"
       height="52.982086"
       x="0.044421747"
       y="244.0623" />
    <g
       id="g1306"
       transform="matrix(1.0898355,0,0,1.0898355,-7.2490831,-21.914871)">
      <g
         transform="matrix(0.93648096,0,0,1.0116872,18.472157,0.67678028)"
         id="g1080"
         style="fill:#000000;filter:url(#filter1090)">
        <path
           id="path1068"
           d="m 99.493304,247.46731 c -0.09681,0.35591 -0.137925,0.72223 -0.321783,1.06224 -0.18704,0.30773 -0.42513,0.58453 -0.733409,0.82018 -0.341085,0.26071 -0.555869,0.5074 -1.183904,0.70866 -0.663856,0.19816 -1.180601,0.46186 -2.058902,0.5646 -0.954353,0.11928 -1.772132,0.23234 -3.094519,0.25061 -0.782871,0.0233 -1.800014,-0.0521 -2.760655,-0.129 -0.710095,-0.10724 -1.512986,-0.19116 -2.380689,-0.25838 -0.512629,-0.0233 -1.035709,-0.0466 -1.608398,-0.0556 -0.579075,-0.0194 -1.158308,0.0233 -1.737383,0.12355 -0.534929,0.0661 -1.082132,0.24828 -1.63414,0.4748 -0.451715,0.21953 -0.80444,0.45767 -1.119548,0.70245 -0.509263,0.36251 -0.822332,0.87244 -1.093806,1.41387 -0.213586,0.52127 -0.39309,1.10397 -0.386139,2.02202 0.02847,0.53441 0.02429,1.06636 0.167319,1.60943 0.198261,0.95399 0.292221,0.94043 0.424761,1.28523 -0.716589,0.56401 -1.257046,1.42179 -1.732827,2.12852 l 0.02847,0.0155 c -0.0675,0.12666 -0.133989,0.25644 -0.197382,0.3939 -0.521799,1.15118 -0.782478,2.60589 -0.782478,4.36405 0,1.61864 0.230377,2.86757 0.691307,3.74665 0.460922,0.87213 1.182632,1.5208 2.16536,1.94641 0.98272,0.42557 2.061243,0.6385 3.235299,0.6385 1.782818,0 3.213438,-0.43253 4.29183,-1.29766 1.078384,-0.86513 1.617513,-1.94661 1.617513,-3.24431 0,-1.33954 -0.543572,-2.44184 -1.630652,-3.30697 -1.087089,-0.87212 -2.517713,-1.30811 -4.29183,-1.30811 -0.930553,0 -1.787039,0.16358 -2.569743,0.49166 -0.774003,0.32094 -1.552399,1.0535 -2.335095,2.19772 -0.02889,-3.20859 1.608662,-6.45569 5.107559,-6.94296 1.125284,0.60725 1.917644,0.82433 3.094246,1.08166 -0.79988,-0.51074 -1.687933,-0.94657 -2.264839,-1.64626 l 3.268549,-1.07172 c 0.81907,0.59646 1.828119,0.78879 2.792307,1.0767 -0.617706,-0.45868 -1.329316,-0.79714 -1.840086,-1.39247 l 2.13613,-0.66961 c 0.656399,0.21409 1.298117,0.22535 1.943052,0.28053 -0.413314,-0.17951 -0.843569,-0.28908 -1.23539,-0.55966 1.142163,-0.43603 2.161977,-0.97801 2.893937,-1.7692 -1.534742,0.62443 -3.069496,1.26296 -4.604238,1.658 0.03978,-0.46742 0.169664,-0.92788 0.273003,-1.39049 -0.378393,0.54824 -0.747683,1.08929 -1.09193,1.61067 -1.048525,0.2883 -2.089552,0.59331 -3.184622,0.77787 0.27204,-0.8752 0.78337,-1.75299 1.291975,-2.63068 -0.977486,0.90858 -1.732032,1.83409 -2.42037,2.76457 -1.162408,0.33687 -2.192556,0.72969 -3.184622,1.1384 -0.352474,-0.75965 -0.227195,-1.48304 -0.07482,-2.20441 0.179377,-0.43015 0.321489,-0.70225 0.445944,-0.90002 0.185951,-0.29568 0.332879,-0.4253 0.506545,-0.66888 0.429911,-0.46361 0.926014,-0.78493 1.441067,-1.06601 0.660577,-0.30423 1.3211,-0.46415 1.98167,-0.62579 0.671187,-0.12588 1.334939,-0.19932 1.981942,-0.16008 l 3.705909,0.25916 c 1.685818,0.0598 3.287961,-0.12045 4.709888,-0.6186 1.64573,-0.54983 2.800555,-1.39083 3.354628,-2.58786 -0.227111,1.03866 -0.415575,2.08038 -0.946321,3.096 -0.363654,0.72693 -0.743324,1.39755 -1.141271,2.0036 -0.308802,0.42258 -0.596376,0.84466 -1.30565,1.2775 -0.303987,0.16901 -0.58399,0.35279 -0.952221,0.48222 -0.580637,0.15153 -1.199711,0.20049 -1.891571,0.0559 0.519755,0.16668 1.038309,0.34192 1.569784,0.41854 0.592101,0.0571 1.043024,-0.0459 1.479949,-0.16513 -0.351093,0.56591 -0.920784,1.06503 -1.526075,1.55324 -0.633976,0.45817 -1.293385,0.91902 -2.062917,1.16252 -0.584752,0.27898 -1.21504,0.38622 -1.867972,0.48374 -0.578157,0.0987 -1.130292,0.10879 -1.674366,0.0925 -0.65804,-0.0117 -1.29473,-0.1492 -1.928845,-0.30306 0.171883,0.25061 0.324755,0.49854 0.695595,0.7786 0.356033,0.28869 0.712037,0.51669 1.068062,0.65769 0.34745,0.15464 0.695143,0.23468 1.042593,0.25644 -0.407201,0.251 -0.931273,0.41963 -1.595795,0.48871 -0.681735,0.11035 -1.311353,0.0897 -1.943052,0.0746 -0.604909,-0.0272 -1.194594,-0.10802 -1.763125,-0.26654 -1.151572,-0.27898 -2.2118,-0.77165 -3.242807,-1.33251 0.663618,0.61883 1.395377,1.14508 2.213354,1.55394 0.577387,0.27975 1.191621,0.54447 1.925893,0.76096 0.583697,0.19894 1.165447,0.28869 1.677314,0.37689 0.737328,0.0556 1.277207,0.061 1.724244,0.0423 0.973516,-0.035 1.588956,-0.16086 2.084908,-0.3186 0.885926,-0.31045 1.7689,-0.64281 2.637846,-1.08618 0.627868,-0.30811 1.174291,-0.69231 1.68241,-1.11252 0.592763,-0.47079 1.13909,-0.99665 1.611886,-1.60946 0.438696,-0.49846 0.805227,-1.03326 1.106681,-1.60123 0.403097,-0.88607 0.822248,-1.77118 1.132415,-2.66428 0.26869,-0.65816 0.368972,-1.4258 0.489118,-2.18051 0.08781,-0.69561 0.05443,-1.40039 0.05121,-2.10288 -0.0071,-0.69118 -0.173474,-1.33546 -0.347241,-1.97772 z m -16.244067,15.38435 c 0.974024,0 1.696002,0.29996 2.165624,0.90003 0.469623,0.60002 0.704447,1.60826 0.704447,3.02458 0,2.53256 -0.92624,3.79891 -2.778627,3.79891 -0.878364,0 -1.574223,-0.251 -2.087329,-0.75347 -0.504401,-0.50231 -0.756467,-1.58724 -0.756467,-3.25471 0,-1.31165 0.213168,-2.25713 0.639286,-2.83622 0.434835,-0.58604 1.139035,-0.87912 2.113066,-0.87912 z"
           style="font-style:normal;font-variant:normal;font-weight:bold;font-stretch:normal;font-size:47.87103653px;line-height:1.25;font-family:Garamond;-inkscape-font-specification:'Garamond Bold';letter-spacing:0px;word-spacing:0px;opacity:1;fill:#000000;fill-opacity:1;stroke:none;stroke-width:0.12463118;stroke-opacity:1"
           inkscape:connector-curvature="0" />
        <path
           inkscape:connector-curvature="0"
           id="path1070"
           d="m 11.850645,257.20037 c -2.2611367,0 -4.2308899,0.21642 -5.9093472,0.64895 -0.60877,1.23491 -0.9219563,2.264 -0.9393497,3.08725 h 1.1871244 c 0.9305441,-1.06045 1.8176005,-1.76869 2.6611775,-2.12452 0.8522737,-0.3629 1.774067,-0.54419 2.765488,-0.54419 1.643674,0 2.878654,0.43971 3.704841,1.31879 0.826184,0.87213 1.287215,2.2325 1.382878,4.08138 l -0.952489,0.0311 c -2.722062,0 -4.235224,-0.10141 -4.539609,-0.30346 -0.295696,-0.20243 -0.560806,-0.85794 -0.795617,-1.96723 -0.09568,-0.008 -0.160954,-0.0117 -0.195749,-0.0117 l -0.7304572,0.0117 c -0.034753,0.57209 -0.052297,1.07086 -0.052297,1.49647 l 0.02596,1.48603 0.01298,0.3664 -0.065152,1.25585 -0.01298,0.77436 h 0.9262102 l 0.195749,-0.69075 c 0.20873,-0.7814 0.412979,-1.23825 0.613003,-1.37082 0.20873,-0.13249 0.974053,-0.19893 2.29595,-0.19893 l 2.035035,0.0311 c 0.304364,0.0155 0.517527,0.0194 0.639281,0.0194 l 0.652153,-0.0117 c 0,1.93953 -0.52189,3.36992 -1.565492,4.29088 -1.034905,0.91398 -2.352425,1.37083 -3.952612,1.37083 -2.2350467,0 -3.9830359,-0.95244 -5.2440551,-2.85712 -0.3217826,-0.056 -0.7436255,-0.0835 -1.2654241,-0.0835 0.1304716,0.85118 0.3872277,1.83836 0.7698747,2.9616 1.3566789,0.65586 3.2828062,0.98391 5.7787545,0.98391 2.869903,0 5.165902,-0.60699 6.887843,-1.82095 1.730642,-1.21401 2.596017,-2.9548 2.596017,-5.22226 0,-2.0303 -0.765332,-3.70485 -2.295949,-5.02345 -1.530613,-1.32563 -3.73519,-1.98845 -6.61379,-1.98845 z"
           style="font-style:normal;font-variant:normal;font-weight:bold;font-stretch:normal;font-size:47.87103653px;line-height:1.25;font-family:Garamond;-inkscape-font-specification:'Garamond Bold';letter-spacing:0px;word-spacing:0px;opacity:1;fill:#000000;fill-opacity:1;stroke:none;stroke-width:0.12463118;stroke-opacity:1" />
        <path
           inkscape:connector-curvature="0"
           id="path1072"
           d="m 55.401541,257.24241 -1.539486,3.29652 -1.734963,3.57896 c -1.191445,2.60934 -1.926215,4.18963 -2.20451,4.74078 -0.278278,0.54419 -0.513114,0.87574 -0.704442,0.99436 -0.182643,0.11151 -0.613095,0.21991 -1.291435,0.32443 -0.495712,0.0765 -0.787222,0.129 -0.874193,0.15697 l -0.02596,0.71143 c 0.756618,0 1.44803,-0.0416 2.074189,-0.1255 l 0.534967,-0.0734 1.500064,0.0839 c 1.034904,0.0629 1.821921,0.094 2.361113,0.094 0.01759,-0.0769 0.02596,-0.15697 0.02596,-0.24051 l -0.01298,-0.52329 c -0.547889,-0.063 -0.856633,-0.10102 -0.926207,-0.11501 -0.469622,-0.049 -0.808936,-0.12239 -1.017653,-0.21992 -0.20873,-0.0975 -0.312948,-0.251 -0.312948,-0.46031 0,-0.13948 0.352098,-0.96988 1.05654,-2.49083 l 2.739473,-5.85007 c 0.40004,0.63488 1.278484,2.39653 2.635167,5.28497 l 0.586992,1.18269 c 0.643557,1.23491 0.965361,1.91509 0.965361,2.04071 0,0.13249 -0.05226,0.21952 -0.1566,0.26149 -0.104344,0.042 -0.513148,0.13948 -1.226274,0.29296 -0.591372,0.0835 -0.908733,0.13249 -0.952221,0.14648 -0.02596,0.21642 -0.03894,0.44978 -0.03894,0.70097 l 1.487193,-0.042 c 1.034904,-0.0629 2.09592,-0.094 3.183009,-0.094 0.400041,0 0.965289,0.0233 1.695818,0.073 0.817482,0.049 1.548077,0.073 2.191634,0.073 l 0.01298,-0.21991 c 0,-0.11851 -0.02177,-0.29296 -0.06515,-0.52329 -0.391331,-0.1255 -0.821816,-0.21254 -1.291435,-0.26149 -0.382663,-0.035 -0.682786,-0.20243 -0.900199,-0.50239 -0.217397,-0.30695 -0.491157,-0.81967 -0.821633,-1.53828 -0.313073,-0.66981 -0.61765,-1.28375 -0.913339,-1.8419 l -0.417249,-0.80595 c -0.704434,-1.48607 -1.252448,-2.57795 -1.643796,-3.27566 l -0.352098,-0.61736 c -1.208839,-2.37909 -1.948051,-3.78142 -2.217645,-4.20699 z"
           style="font-style:normal;font-variant:normal;font-weight:bold;font-stretch:normal;font-size:47.87103653px;line-height:1.25;font-family:Garamond;-inkscape-font-specification:'Garamond Bold';letter-spacing:0px;word-spacing:0px;opacity:1;fill:#000000;fill-opacity:1;stroke:none;stroke-width:0.12463118;stroke-opacity:1" />
        <path
           inkscape:connector-curvature="0"
           id="path1074"
           d="m 32.902754,262.14016 c -1.278416,0 -2.591758,0.74647 -3.939745,2.23953 -0.643552,0.71162 -1.139056,1.18261 -1.486928,1.41286 -0.347869,0.23041 -0.848078,0.41858 -1.500336,0.5651 v -0.98387 c 0,-0.13949 0.03057,-0.49889 0.09145,-1.07798 0.01759,-0.15347 0.02596,-0.27198 0.02596,-0.3559 0.02596,-0.29996 0.07834,-0.48141 0.156599,-0.5442 0.07826,-0.0629 0.286987,-0.094 0.626147,-0.094 l 0.952229,-0.0835 0.156599,-0.72215 c -0.469626,0.0629 -1.291644,0.094 -2.465704,0.094 l -1.043392,-0.0117 -0.678436,0.0117 c -0.513102,0 -1.347915,-0.0311 -2.504574,-0.094 l 0.169496,0.72215 c 0.417417,0.042 0.726186,0.0625 0.926211,0.0625 0.408749,0.008 0.643565,0.0699 0.704442,0.18845 0.06088,0.11151 0.09145,0.41858 0.09145,0.92092 l -0.01298,1.2454 -0.01298,1.09884 -0.01298,0.34542 c -0.0088,2.00236 -0.06092,3.03495 -0.1566,3.09774 -0.07826,0.035 -0.204417,0.0591 -0.378351,0.0731 l -0.495549,0.0311 c -0.05217,0.0155 -0.161122,0.0311 -0.326347,0.0525 -0.173934,0.0194 -0.334846,0.0625 -0.482678,0.1255 -0.0088,0.1185 -0.01298,0.21292 -0.01298,0.28286 0,0.11151 0.01717,0.22341 0.052,0.33492 0.165225,0 0.34364,-0.003 0.534972,-0.0117 0.139139,-0.008 0.330324,-0.0117 0.573853,-0.0117 0.895757,-0.063 1.500189,-0.0944 1.813267,-0.0944 0.547893,0 1.135086,0.0155 1.76125,0.0521 l 1.369743,0.042 0.09115,-0.0311 c 0.01759,-0.0765 0.02596,-0.1325 0.02596,-0.16747 l -0.01298,-0.18844 v -0.26149 c -0.08697,-0.0155 -0.191437,-0.0272 -0.313199,-0.0416 -0.608774,-0.0559 -1.021736,-0.15698 -1.239154,-0.30346 l -0.01298,-0.38699 -0.01298,-0.34541 v -2.3965 c 0.66095,0 1.156725,0.0979 1.487201,0.29296 0.339159,0.18844 0.895799,0.70455 1.669802,1.54874 l 1.265428,1.34991 c 0.460922,0.47445 0.756606,0.79209 0.887061,0.95256 0.791392,-0.049 1.465306,-0.0734 2.021891,-0.0734 0.495713,0 0.960918,0.0194 1.39575,0.0525 0.321782,0.0272 0.534921,0.042 0.639286,0.042 0.0088,-0.11151 0.01298,-0.19544 0.01298,-0.25139 l -0.01298,-0.34541 c -0.704434,-0.16047 -1.191316,-0.31045 -1.460914,-0.4499 -0.260902,-0.14648 -0.682745,-0.53363 -1.265429,-1.16155 -1.130564,-1.21397 -1.9437,-1.98845 -2.439409,-2.32334 -0.495712,-0.33492 -0.973977,-0.55822 -1.434903,-0.66985 0.217397,-0.16047 0.547843,-0.46745 0.991371,-0.92096 0.530495,-0.5442 0.943457,-0.91048 1.239145,-1.09884 0.295697,-0.18845 0.587202,-0.28247 0.87419,-0.28247 0.191311,0 0.40004,0.10801 0.626146,0.32404 0.347869,0.33493 0.734711,0.50239 1.160846,0.50239 0.391331,0 0.695921,-0.10102 0.913339,-0.30345 0.226106,-0.20244 0.339201,-0.43238 0.339201,-0.69052 0,-0.35591 -0.16535,-0.65932 -0.495817,-0.91048 -0.330492,-0.251 -0.80874,-0.37689 -1.434903,-0.37689 z"
           style="font-style:normal;font-variant:normal;font-weight:bold;font-stretch:normal;font-size:47.87103653px;line-height:1.25;font-family:Garamond;-inkscape-font-specification:'Garamond Bold';letter-spacing:0px;word-spacing:0px;opacity:1;fill:#000000;fill-opacity:1;stroke:none;stroke-width:0.12463118;stroke-opacity:1" />
        <path
           id="path1076"
           d="m 41.301644,262.14024 c -0.834876,0 -1.547973,0.073 -2.139345,0.21953 -0.582676,0.13948 -1.165431,0.37688 -1.748107,0.71165 -0.40004,0.23702 -0.769657,0.53029 -1.108824,0.87912 -0.330492,0.34892 -0.591155,0.76031 -0.782479,1.23472 -0.19131,0.46745 -0.287196,0.93499 -0.287196,1.40245 0,0.92092 0.200104,1.69195 0.600132,2.31288 0.408749,0.62093 1.082655,1.17558 2.021891,1.66394 0.947942,0.4884 2.10038,0.73256 3.457063,0.73256 1.208839,0 2.269855,-0.20593 3.18301,-0.61759 0.91315,-0.41162 1.639303,-1.04988 2.178495,-1.91502 0.356578,-0.57209 0.534703,-1.32547 0.534703,-2.26039 0,-0.49535 -0.138971,-1.02218 -0.417249,-1.58036 -0.269611,-0.5651 -0.682833,-1.06391 -1.239418,-1.49648 -1.017507,-0.85814 -2.435071,-1.2872 -4.25268,-1.2872 z m -0.104302,0.71142 c 0.852278,0 1.539243,0.26538 2.061042,0.79551 0.521806,0.52325 0.78275,1.41985 0.78275,2.68965 0,1.03256 -0.06088,1.77553 -0.182602,2.22904 -0.191311,0.69072 -0.504246,1.19994 -0.939082,1.52783 -0.434835,0.32094 -0.96979,0.48149 -1.604646,0.48149 -0.530499,0 -0.987083,-0.0835 -1.369738,-0.251 -0.382664,-0.16747 -0.656659,-0.35941 -0.821896,-0.57582 -0.243525,-0.33493 -0.421647,-0.73591 -0.534704,-1.20336 -0.03475,-0.1325 -0.09149,-0.63135 -0.169747,-1.49648 0.01759,-1.23491 0.0827,-2.0409 0.195749,-2.41768 0.173935,-0.58604 0.47824,-1.02901 0.913072,-1.32901 0.443528,-0.29996 1.000163,-0.45013 1.669806,-0.45013 z"
           style="font-style:normal;font-variant:normal;font-weight:bold;font-stretch:normal;font-size:47.87103653px;line-height:1.25;font-family:Garamond;-inkscape-font-specification:'Garamond Bold';letter-spacing:0px;word-spacing:0px;opacity:1;fill:#000000;fill-opacity:1;stroke:none;stroke-width:0.12463118;stroke-opacity:1"
           inkscape:connector-curvature="0" />
        <path
           id="path1078"
           d="m 71.88909,262.22385 c -1.078388,0 -1.991564,0.0979 -2.739482,0.29297 -0.547888,0.15347 -1.139256,0.42199 -1.774117,0.80572 -0.626159,0.37689 -1.095806,0.76761 -1.408888,1.17228 -0.208729,0.28596 -0.312948,0.62773 -0.312948,1.0254 0,0.15348 0.06084,0.27198 0.182602,0.35591 0.278278,0 0.652078,-0.0905 1.1217,-0.27198 0.121763,-0.049 0.352391,-0.12589 0.691567,-0.23041 0.347868,-0.11151 0.586871,-0.2339 0.717322,-0.3664 0.05217,-0.0489 0.108866,-0.22691 0.169747,-0.53374 0.08697,-0.42557 0.191185,-0.71492 0.312947,-0.86843 0.165225,-0.20943 0.430624,-0.38039 0.795886,-0.51284 0.365245,-0.1325 0.765164,-0.19894 1.199995,-0.19894 0.434836,0 0.739137,0.10452 0.913072,0.31395 0.286987,0.34192 0.430661,0.98383 0.430661,1.9257 0,0.27198 -0.01298,0.54062 -0.03894,0.80572 l -3.248174,1.04662 c -0.565282,0.19544 -0.895699,0.31394 -0.991371,0.35591 -0.626151,0.27897 -1.082747,0.53716 -1.369739,0.77437 -0.278278,0.23001 -0.482824,0.46399 -0.613271,0.7012 -0.121762,0.23701 -0.182601,0.47099 -0.182601,0.70121 0,0.49535 0.213126,0.89664 0.639277,1.20363 0.426139,0.29995 1.091431,0.44985 1.995885,0.44985 0.982725,0 1.813091,-0.13249 2.491435,-0.39763 0.678339,-0.27198 1.204673,-0.67335 1.578631,-1.2036 0.304364,0.5721 0.639249,0.97338 1.004515,1.2036 0.373954,0.22341 0.817482,0.33492 1.330584,0.33492 0.504405,0 0.925989,-0.11501 1.265161,-0.34541 0.339159,-0.2374 0.613174,-0.66628 0.821896,-1.28721 l -0.01298,-0.0521 c -0.01759,-0.0695 -0.06519,-0.12899 -0.143451,-0.17795 l -0.300052,-0.15697 -0.234648,0.0731 -0.391498,0.49193 c -0.06959,0.042 -0.15212,0.0626 -0.247754,0.0626 -0.156558,0 -0.286862,-0.0525 -0.391247,-0.15698 -0.09568,-0.11151 -0.143452,-0.31394 -0.143452,-0.6069 v -0.32443 l -0.02638,-1.26631 0.03894,-1.72665 c 0,-1.05353 -0.100031,-1.7826 -0.300051,-2.18727 -0.191311,-0.40463 -0.538983,-0.70812 -1.043392,-0.91047 -0.495713,-0.20943 -1.091523,-0.31394 -1.787256,-0.31394 z m 0.247795,4.43721 c 0.03475,0.30695 0.0523,0.61394 0.0523,0.92093 0,0.83024 -0.03936,1.33624 -0.11745,1.51761 -0.07826,0.17446 -0.347826,0.41167 -0.808756,0.71166 -0.33916,0.22341 -0.752398,0.33493 -1.23941,0.33493 -0.295696,0 -0.556372,-0.0979 -0.782482,-0.29297 -0.226106,-0.19543 -0.339201,-0.44301 -0.339201,-0.74301 0,-0.33492 0.08701,-0.61751 0.260901,-0.84776 0.243525,-0.31395 0.673973,-0.62439 1.291435,-0.93138 0.626163,-0.31394 1.18697,-0.53732 1.682682,-0.66985 z"
           style="font-style:normal;font-variant:normal;font-weight:bold;font-stretch:normal;font-size:47.87103653px;line-height:1.25;font-family:Garamond;-inkscape-font-specification:'Garamond Bold';letter-spacing:0px;word-spacing:0px;opacity:1;fill:#000000;fill-opacity:1;stroke:none;stroke-width:0.12463118;stroke-opacity:1"
           inkscape:connector-curvature="0" />
      </g>
      <g
         style="fill:#ffffff"
         id="g1066"
         transform="matrix(0.93648096,0,0,1.0116872,18.339865,0.41219701)">
        <path
           inkscape:connector-curvature="0"
           style="font-style:normal;font-variant:normal;font-weight:bold;font-stretch:normal;font-size:47.87103653px;line-height:1.25;font-family:Garamond;-inkscape-font-specification:'Garamond Bold';letter-spacing:0px;word-spacing:0px;opacity:1;fill:#ffffff;fill-opacity:1;stroke:none;stroke-width:0.12463118;stroke-opacity:1"
           d="m 99.493304,247.46731 c -0.09681,0.35591 -0.137925,0.72223 -0.321783,1.06224 -0.18704,0.30773 -0.42513,0.58453 -0.733409,0.82018 -0.341085,0.26071 -0.555869,0.5074 -1.183904,0.70866 -0.663856,0.19816 -1.180601,0.46186 -2.058902,0.5646 -0.954353,0.11928 -1.772132,0.23234 -3.094519,0.25061 -0.782871,0.0233 -1.800014,-0.0521 -2.760655,-0.129 -0.710095,-0.10724 -1.512986,-0.19116 -2.380689,-0.25838 -0.512629,-0.0233 -1.035709,-0.0466 -1.608398,-0.0556 -0.579075,-0.0194 -1.158308,0.0233 -1.737383,0.12355 -0.534929,0.0661 -1.082132,0.24828 -1.63414,0.4748 -0.451715,0.21953 -0.80444,0.45767 -1.119548,0.70245 -0.509263,0.36251 -0.822332,0.87244 -1.093806,1.41387 -0.213586,0.52127 -0.39309,1.10397 -0.386139,2.02202 0.02847,0.53441 0.02429,1.06636 0.167319,1.60943 0.198261,0.95399 0.292221,0.94043 0.424761,1.28523 -0.716589,0.56401 -1.257046,1.42179 -1.732827,2.12852 l 0.02847,0.0155 c -0.0675,0.12666 -0.133989,0.25644 -0.197382,0.3939 -0.521799,1.15118 -0.782478,2.60589 -0.782478,4.36405 0,1.61864 0.230377,2.86757 0.691307,3.74665 0.460922,0.87213 1.182632,1.5208 2.16536,1.94641 0.98272,0.42557 2.061243,0.6385 3.235299,0.6385 1.782818,0 3.213438,-0.43253 4.29183,-1.29766 1.078384,-0.86513 1.617513,-1.94661 1.617513,-3.24431 0,-1.33954 -0.543572,-2.44184 -1.630652,-3.30697 -1.087089,-0.87212 -2.517713,-1.30811 -4.29183,-1.30811 -0.930553,0 -1.787039,0.16358 -2.569743,0.49166 -0.774003,0.32094 -1.552399,1.0535 -2.335095,2.19772 -0.02889,-3.20859 1.608662,-6.45569 5.107559,-6.94296 1.125284,0.60725 1.917644,0.82433 3.094246,1.08166 -0.79988,-0.51074 -1.687933,-0.94657 -2.264839,-1.64626 l 3.268549,-1.07172 c 0.81907,0.59646 1.828119,0.78879 2.792307,1.0767 -0.617706,-0.45868 -1.329316,-0.79714 -1.840086,-1.39247 l 2.13613,-0.66961 c 0.656399,0.21409 1.298117,0.22535 1.943052,0.28053 -0.413314,-0.17951 -0.843569,-0.28908 -1.23539,-0.55966 1.142163,-0.43603 2.161977,-0.97801 2.893937,-1.7692 -1.534742,0.62443 -3.069496,1.26296 -4.604238,1.658 0.03978,-0.46742 0.169664,-0.92788 0.273003,-1.39049 -0.378393,0.54824 -0.747683,1.08929 -1.09193,1.61067 -1.048525,0.2883 -2.089552,0.59331 -3.184622,0.77787 0.27204,-0.8752 0.78337,-1.75299 1.291975,-2.63068 -0.977486,0.90858 -1.732032,1.83409 -2.42037,2.76457 -1.162408,0.33687 -2.192556,0.72969 -3.184622,1.1384 -0.352474,-0.75965 -0.227195,-1.48304 -0.07482,-2.20441 0.179377,-0.43015 0.321489,-0.70225 0.445944,-0.90002 0.185951,-0.29568 0.332879,-0.4253 0.506545,-0.66888 0.429911,-0.46361 0.926014,-0.78493 1.441067,-1.06601 0.660577,-0.30423 1.3211,-0.46415 1.98167,-0.62579 0.671187,-0.12588 1.334939,-0.19932 1.981942,-0.16008 l 3.705909,0.25916 c 1.685818,0.0598 3.287961,-0.12045 4.709888,-0.6186 1.64573,-0.54983 2.800555,-1.39083 3.354628,-2.58786 -0.227111,1.03866 -0.415575,2.08038 -0.946321,3.096 -0.363654,0.72693 -0.743324,1.39755 -1.141271,2.0036 -0.308802,0.42258 -0.596376,0.84466 -1.30565,1.2775 -0.303987,0.16901 -0.58399,0.35279 -0.952221,0.48222 -0.580637,0.15153 -1.199711,0.20049 -1.891571,0.0559 0.519755,0.16668 1.038309,0.34192 1.569784,0.41854 0.592101,0.0571 1.043024,-0.0459 1.479949,-0.16513 -0.351093,0.56591 -0.920784,1.06503 -1.526075,1.55324 -0.633976,0.45817 -1.293385,0.91902 -2.062917,1.16252 -0.584752,0.27898 -1.21504,0.38622 -1.867972,0.48374 -0.578157,0.0987 -1.130292,0.10879 -1.674366,0.0925 -0.65804,-0.0117 -1.29473,-0.1492 -1.928845,-0.30306 0.171883,0.25061 0.324755,0.49854 0.695595,0.7786 0.356033,0.28869 0.712037,0.51669 1.068062,0.65769 0.34745,0.15464 0.695143,0.23468 1.042593,0.25644 -0.407201,0.251 -0.931273,0.41963 -1.595795,0.48871 -0.681735,0.11035 -1.311353,0.0897 -1.943052,0.0746 -0.604909,-0.0272 -1.194594,-0.10802 -1.763125,-0.26654 -1.151572,-0.27898 -2.2118,-0.77165 -3.242807,-1.33251 0.663618,0.61883 1.395377,1.14508 2.213354,1.55394 0.577387,0.27975 1.191621,0.54447 1.925893,0.76096 0.583697,0.19894 1.165447,0.28869 1.677314,0.37689 0.737328,0.0556 1.277207,0.061 1.724244,0.0423 0.973516,-0.035 1.588956,-0.16086 2.084908,-0.3186 0.885926,-0.31045 1.7689,-0.64281 2.637846,-1.08618 0.627868,-0.30811 1.174291,-0.69231 1.68241,-1.11252 0.592763,-0.47079 1.13909,-0.99665 1.611886,-1.60946 0.438696,-0.49846 0.805227,-1.03326 1.106681,-1.60123 0.403097,-0.88607 0.822248,-1.77118 1.132415,-2.66428 0.26869,-0.65816 0.368972,-1.4258 0.489118,-2.18051 0.08781,-0.69561 0.05443,-1.40039 0.05121,-2.10288 -0.0071,-0.69118 -0.173474,-1.33546 -0.347241,-1.97772 z m -16.244067,15.38435 c 0.974024,0 1.696002,0.29996 2.165624,0.90003 0.469623,0.60002 0.704447,1.60826 0.704447,3.02458 0,2.53256 -0.92624,3.79891 -2.778627,3.79891 -0.878364,0 -1.574223,-0.251 -2.087329,-0.75347 -0.504401,-0.50231 -0.756467,-1.58724 -0.756467,-3.25471 0,-1.31165 0.213168,-2.25713 0.639286,-2.83622 0.434835,-0.58604 1.139035,-0.87912 2.113066,-0.87912 z"
           id="path1054" />
        <path
           style="font-style:normal;font-variant:normal;font-weight:bold;font-stretch:normal;font-size:47.87103653px;line-height:1.25;font-family:Garamond;-inkscape-font-specification:'Garamond Bold';letter-spacing:0px;word-spacing:0px;opacity:1;fill:#ffffff;fill-opacity:1;stroke:none;stroke-width:0.12463118;stroke-opacity:1"
           d="m 11.850645,257.20037 c -2.2611367,0 -4.2308899,0.21642 -5.9093472,0.64895 -0.60877,1.23491 -0.9219563,2.264 -0.9393497,3.08725 h 1.1871244 c 0.9305441,-1.06045 1.8176005,-1.76869 2.6611775,-2.12452 0.8522737,-0.3629 1.774067,-0.54419 2.765488,-0.54419 1.643674,0 2.878654,0.43971 3.704841,1.31879 0.826184,0.87213 1.287215,2.2325 1.382878,4.08138 l -0.952489,0.0311 c -2.722062,0 -4.235224,-0.10141 -4.539609,-0.30346 -0.295696,-0.20243 -0.560806,-0.85794 -0.795617,-1.96723 -0.09568,-0.008 -0.160954,-0.0117 -0.195749,-0.0117 l -0.7304572,0.0117 c -0.034753,0.57209 -0.052297,1.07086 -0.052297,1.49647 l 0.02596,1.48603 0.01298,0.3664 -0.065152,1.25585 -0.01298,0.77436 h 0.9262102 l 0.195749,-0.69075 c 0.20873,-0.7814 0.412979,-1.23825 0.613003,-1.37082 0.20873,-0.13249 0.974053,-0.19893 2.29595,-0.19893 l 2.035035,0.0311 c 0.304364,0.0155 0.517527,0.0194 0.639281,0.0194 l 0.652153,-0.0117 c 0,1.93953 -0.52189,3.36992 -1.565492,4.29088 -1.034905,0.91398 -2.352425,1.37083 -3.952612,1.37083 -2.2350467,0 -3.9830359,-0.95244 -5.2440551,-2.85712 -0.3217826,-0.056 -0.7436255,-0.0835 -1.2654241,-0.0835 0.1304716,0.85118 0.3872277,1.83836 0.7698747,2.9616 1.3566789,0.65586 3.2828062,0.98391 5.7787545,0.98391 2.869903,0 5.165902,-0.60699 6.887843,-1.82095 1.730642,-1.21401 2.596017,-2.9548 2.596017,-5.22226 0,-2.0303 -0.765332,-3.70485 -2.295949,-5.02345 -1.530613,-1.32563 -3.73519,-1.98845 -6.61379,-1.98845 z"
           id="path1056"
           inkscape:connector-curvature="0" />
        <path
           style="font-style:normal;font-variant:normal;font-weight:bold;font-stretch:normal;font-size:47.87103653px;line-height:1.25;font-family:Garamond;-inkscape-font-specification:'Garamond Bold';letter-spacing:0px;word-spacing:0px;opacity:1;fill:#ffffff;fill-opacity:1;stroke:none;stroke-width:0.12463118;stroke-opacity:1"
           d="m 55.401541,257.24241 -1.539486,3.29652 -1.734963,3.57896 c -1.191445,2.60934 -1.926215,4.18963 -2.20451,4.74078 -0.278278,0.54419 -0.513114,0.87574 -0.704442,0.99436 -0.182643,0.11151 -0.613095,0.21991 -1.291435,0.32443 -0.495712,0.0765 -0.787222,0.129 -0.874193,0.15697 l -0.02596,0.71143 c 0.756618,0 1.44803,-0.0416 2.074189,-0.1255 l 0.534967,-0.0734 1.500064,0.0839 c 1.034904,0.0629 1.821921,0.094 2.361113,0.094 0.01759,-0.0769 0.02596,-0.15697 0.02596,-0.24051 l -0.01298,-0.52329 c -0.547889,-0.063 -0.856633,-0.10102 -0.926207,-0.11501 -0.469622,-0.049 -0.808936,-0.12239 -1.017653,-0.21992 -0.20873,-0.0975 -0.312948,-0.251 -0.312948,-0.46031 0,-0.13948 0.352098,-0.96988 1.05654,-2.49083 l 2.739473,-5.85007 c 0.40004,0.63488 1.278484,2.39653 2.635167,5.28497 l 0.586992,1.18269 c 0.643557,1.23491 0.965361,1.91509 0.965361,2.04071 0,0.13249 -0.05226,0.21952 -0.1566,0.26149 -0.104344,0.042 -0.513148,0.13948 -1.226274,0.29296 -0.591372,0.0835 -0.908733,0.13249 -0.952221,0.14648 -0.02596,0.21642 -0.03894,0.44978 -0.03894,0.70097 l 1.487193,-0.042 c 1.034904,-0.0629 2.09592,-0.094 3.183009,-0.094 0.400041,0 0.965289,0.0233 1.695818,0.073 0.817482,0.049 1.548077,0.073 2.191634,0.073 l 0.01298,-0.21991 c 0,-0.11851 -0.02177,-0.29296 -0.06515,-0.52329 -0.391331,-0.1255 -0.821816,-0.21254 -1.291435,-0.26149 -0.382663,-0.035 -0.682786,-0.20243 -0.900199,-0.50239 -0.217397,-0.30695 -0.491157,-0.81967 -0.821633,-1.53828 -0.313073,-0.66981 -0.61765,-1.28375 -0.913339,-1.8419 l -0.417249,-0.80595 c -0.704434,-1.48607 -1.252448,-2.57795 -1.643796,-3.27566 l -0.352098,-0.61736 c -1.208839,-2.37909 -1.948051,-3.78142 -2.217645,-4.20699 z"
           id="path1058"
           inkscape:connector-curvature="0" />
        <path
           style="font-style:normal;font-variant:normal;font-weight:bold;font-stretch:normal;font-size:47.87103653px;line-height:1.25;font-family:Garamond;-inkscape-font-specification:'Garamond Bold';letter-spacing:0px;word-spacing:0px;opacity:1;fill:#ffffff;fill-opacity:1;stroke:none;stroke-width:0.12463118;stroke-opacity:1"
           d="m 32.902754,262.14016 c -1.278416,0 -2.591758,0.74647 -3.939745,2.23953 -0.643552,0.71162 -1.139056,1.18261 -1.486928,1.41286 -0.347869,0.23041 -0.848078,0.41858 -1.500336,0.5651 v -0.98387 c 0,-0.13949 0.03057,-0.49889 0.09145,-1.07798 0.01759,-0.15347 0.02596,-0.27198 0.02596,-0.3559 0.02596,-0.29996 0.07834,-0.48141 0.156599,-0.5442 0.07826,-0.0629 0.286987,-0.094 0.626147,-0.094 l 0.952229,-0.0835 0.156599,-0.72215 c -0.469626,0.0629 -1.291644,0.094 -2.465704,0.094 l -1.043392,-0.0117 -0.678436,0.0117 c -0.513102,0 -1.347915,-0.0311 -2.504574,-0.094 l 0.169496,0.72215 c 0.417417,0.042 0.726186,0.0625 0.926211,0.0625 0.408749,0.008 0.643565,0.0699 0.704442,0.18845 0.06088,0.11151 0.09145,0.41858 0.09145,0.92092 l -0.01298,1.2454 -0.01298,1.09884 -0.01298,0.34542 c -0.0088,2.00236 -0.06092,3.03495 -0.1566,3.09774 -0.07826,0.035 -0.204417,0.0591 -0.378351,0.0731 l -0.495549,0.0311 c -0.05217,0.0155 -0.161122,0.0311 -0.326347,0.0525 -0.173934,0.0194 -0.334846,0.0625 -0.482678,0.1255 -0.0088,0.1185 -0.01298,0.21292 -0.01298,0.28286 0,0.11151 0.01717,0.22341 0.052,0.33492 0.165225,0 0.34364,-0.003 0.534972,-0.0117 0.139139,-0.008 0.330324,-0.0117 0.573853,-0.0117 0.895757,-0.063 1.500189,-0.0944 1.813267,-0.0944 0.547893,0 1.135086,0.0155 1.76125,0.0521 l 1.369743,0.042 0.09115,-0.0311 c 0.01759,-0.0765 0.02596,-0.1325 0.02596,-0.16747 l -0.01298,-0.18844 v -0.26149 c -0.08697,-0.0155 -0.191437,-0.0272 -0.313199,-0.0416 -0.608774,-0.0559 -1.021736,-0.15698 -1.239154,-0.30346 l -0.01298,-0.38699 -0.01298,-0.34541 v -2.3965 c 0.66095,0 1.156725,0.0979 1.487201,0.29296 0.339159,0.18844 0.895799,0.70455 1.669802,1.54874 l 1.265428,1.34991 c 0.460922,0.47445 0.756606,0.79209 0.887061,0.95256 0.791392,-0.049 1.465306,-0.0734 2.021891,-0.0734 0.495713,0 0.960918,0.0194 1.39575,0.0525 0.321782,0.0272 0.534921,0.042 0.639286,0.042 0.0088,-0.11151 0.01298,-0.19544 0.01298,-0.25139 l -0.01298,-0.34541 c -0.704434,-0.16047 -1.191316,-0.31045 -1.460914,-0.4499 -0.260902,-0.14648 -0.682745,-0.53363 -1.265429,-1.16155 -1.130564,-1.21397 -1.9437,-1.98845 -2.439409,-2.32334 -0.495712,-0.33492 -0.973977,-0.55822 -1.434903,-0.66985 0.217397,-0.16047 0.547843,-0.46745 0.991371,-0.92096 0.530495,-0.5442 0.943457,-0.91048 1.239145,-1.09884 0.295697,-0.18845 0.587202,-0.28247 0.87419,-0.28247 0.191311,0 0.40004,0.10801 0.626146,0.32404 0.347869,0.33493 0.734711,0.50239 1.160846,0.50239 0.391331,0 0.695921,-0.10102 0.913339,-0.30345 0.226106,-0.20244 0.339201,-0.43238 0.339201,-0.69052 0,-0.35591 -0.16535,-0.65932 -0.495817,-0.91048 -0.330492,-0.251 -0.80874,-0.37689 -1.434903,-0.37689 z"
           id="path1060"
           inkscape:connector-curvature="0" />
        <path
           inkscape:connector-curvature="0"
           style="font-style:normal;font-variant:normal;font-weight:bold;font-stretch:normal;font-size:47.87103653px;line-height:1.25;font-family:Garamond;-inkscape-font-specification:'Garamond Bold';letter-spacing:0px;word-spacing:0px;opacity:1;fill:#ffffff;fill-opacity:1;stroke:none;stroke-width:0.12463118;stroke-opacity:1"
           d="m 41.301644,262.14024 c -0.834876,0 -1.547973,0.073 -2.139345,0.21953 -0.582676,0.13948 -1.165431,0.37688 -1.748107,0.71165 -0.40004,0.23702 -0.769657,0.53029 -1.108824,0.87912 -0.330492,0.34892 -0.591155,0.76031 -0.782479,1.23472 -0.19131,0.46745 -0.287196,0.93499 -0.287196,1.40245 0,0.92092 0.200104,1.69195 0.600132,2.31288 0.408749,0.62093 1.082655,1.17558 2.021891,1.66394 0.947942,0.4884 2.10038,0.73256 3.457063,0.73256 1.208839,0 2.269855,-0.20593 3.18301,-0.61759 0.91315,-0.41162 1.639303,-1.04988 2.178495,-1.91502 0.356578,-0.57209 0.534703,-1.32547 0.534703,-2.26039 0,-0.49535 -0.138971,-1.02218 -0.417249,-1.58036 -0.269611,-0.5651 -0.682833,-1.06391 -1.239418,-1.49648 -1.017507,-0.85814 -2.435071,-1.2872 -4.25268,-1.2872 z m -0.104302,0.71142 c 0.852278,0 1.539243,0.26538 2.061042,0.79551 0.521806,0.52325 0.78275,1.41985 0.78275,2.68965 0,1.03256 -0.06088,1.77553 -0.182602,2.22904 -0.191311,0.69072 -0.504246,1.19994 -0.939082,1.52783 -0.434835,0.32094 -0.96979,0.48149 -1.604646,0.48149 -0.530499,0 -0.987083,-0.0835 -1.369738,-0.251 -0.382664,-0.16747 -0.656659,-0.35941 -0.821896,-0.57582 -0.243525,-0.33493 -0.421647,-0.73591 -0.534704,-1.20336 -0.03475,-0.1325 -0.09149,-0.63135 -0.169747,-1.49648 0.01759,-1.23491 0.0827,-2.0409 0.195749,-2.41768 0.173935,-0.58604 0.47824,-1.02901 0.913072,-1.32901 0.443528,-0.29996 1.000163,-0.45013 1.669806,-0.45013 z"
           id="path1062" />
        <path
           inkscape:connector-curvature="0"
           style="font-style:normal;font-variant:normal;font-weight:bold;font-stretch:normal;font-size:47.87103653px;line-height:1.25;font-family:Garamond;-inkscape-font-specification:'Garamond Bold';letter-spacing:0px;word-spacing:0px;opacity:1;fill:#ffffff;fill-opacity:1;stroke:none;stroke-width:0.12463118;stroke-opacity:1"
           d="m 71.88909,262.22385 c -1.078388,0 -1.991564,0.0979 -2.739482,0.29297 -0.547888,0.15347 -1.139256,0.42199 -1.774117,0.80572 -0.626159,0.37689 -1.095806,0.76761 -1.408888,1.17228 -0.208729,0.28596 -0.312948,0.62773 -0.312948,1.0254 0,0.15348 0.06084,0.27198 0.182602,0.35591 0.278278,0 0.652078,-0.0905 1.1217,-0.27198 0.121763,-0.049 0.352391,-0.12589 0.691567,-0.23041 0.347868,-0.11151 0.586871,-0.2339 0.717322,-0.3664 0.05217,-0.0489 0.108866,-0.22691 0.169747,-0.53374 0.08697,-0.42557 0.191185,-0.71492 0.312947,-0.86843 0.165225,-0.20943 0.430624,-0.38039 0.795886,-0.51284 0.365245,-0.1325 0.765164,-0.19894 1.199995,-0.19894 0.434836,0 0.739137,0.10452 0.913072,0.31395 0.286987,0.34192 0.430661,0.98383 0.430661,1.9257 0,0.27198 -0.01298,0.54062 -0.03894,0.80572 l -3.248174,1.04662 c -0.565282,0.19544 -0.895699,0.31394 -0.991371,0.35591 -0.626151,0.27897 -1.082747,0.53716 -1.369739,0.77437 -0.278278,0.23001 -0.482824,0.46399 -0.613271,0.7012 -0.121762,0.23701 -0.182601,0.47099 -0.182601,0.70121 0,0.49535 0.213126,0.89664 0.639277,1.20363 0.426139,0.29995 1.091431,0.44985 1.995885,0.44985 0.982725,0 1.813091,-0.13249 2.491435,-0.39763 0.678339,-0.27198 1.204673,-0.67335 1.578631,-1.2036 0.304364,0.5721 0.639249,0.97338 1.004515,1.2036 0.373954,0.22341 0.817482,0.33492 1.330584,0.33492 0.504405,0 0.925989,-0.11501 1.265161,-0.34541 0.339159,-0.2374 0.613174,-0.66628 0.821896,-1.28721 l -0.01298,-0.0521 c -0.01759,-0.0695 -0.06519,-0.12899 -0.143451,-0.17795 l -0.300052,-0.15697 -0.234648,0.0731 -0.391498,0.49193 c -0.06959,0.042 -0.15212,0.0626 -0.247754,0.0626 -0.156558,0 -0.286862,-0.0525 -0.391247,-0.15698 -0.09568,-0.11151 -0.143452,-0.31394 -0.143452,-0.6069 v -0.32443 l -0.02638,-1.26631 0.03894,-1.72665 c 0,-1.05353 -0.100031,-1.7826 -0.300051,-2.18727 -0.191311,-0.40463 -0.538983,-0.70812 -1.043392,-0.91047 -0.495713,-0.20943 -1.091523,-0.31394 -1.787256,-0.31394 z m 0.247795,4.43721 c 0.03475,0.30695 0.0523,0.61394 0.0523,0.92093 0,0.83024 -0.03936,1.33624 -0.11745,1.51761 -0.07826,0.17446 -0.347826,0.41167 -0.808756,0.71166 -0.33916,0.22341 -0.752398,0.33493 -1.23941,0.33493 -0.295696,0 -0.556372,-0.0979 -0.782482,-0.29297 -0.226106,-0.19543 -0.339201,-0.44301 -0.339201,-0.74301 0,-0.33492 0.08701,-0.61751 0.260901,-0.84776 0.243525,-0.31395 0.673973,-0.62439 1.291435,-0.93138 0.626163,-0.31394 1.18697,-0.53732 1.682682,-0.66985 z"
           id="path1064" />
      </g>
    </g>
    <path
       style="font-style:normal;font-variant:normal;font-weight:bold;font-stretch:normal;font-size:7.91357613px;line-height:1.25;font-family:sans-serif;-inkscape-font-specification:'sans-serif, Bold';font-variant-ligatures:normal;font-variant-caps:normal;font-variant-numeric:normal;font-feature-settings:normal;text-align:start;letter-spacing:0px;word-spacing:0px;writing-mode:lr-tb;text-anchor:start;fill:#333945;fill-opacity:1;stroke:none;stroke-width:0.82711154"
       d="M 195.14258 156.99609 C 194.15802 156.99609 193.20955 157.10003 192.29883 157.31055 C 191.39426 157.51389 190.62766 157.74307 190 157.99414 L 190 161.17969 L 190.3418 161.17969 C 190.60648 161.044 190.85959 160.91205 191.09961 160.7832 C 191.33957 160.64752 191.65861 160.50157 192.05859 160.3457 C 192.42782 160.21002 192.81653 160.08995 193.22266 159.98828 C 193.62879 159.88661 194.06915 159.83594 194.54297 159.83594 C 195.33677 159.83594 195.96065 159.95109 196.41602 160.18164 C 196.87753 160.41219 197.10938 160.7821 197.10938 161.29102 C 197.10938 161.5896 197.07179 161.83644 196.99805 162.0332 C 196.93032 162.22974 196.8001 162.41128 196.60938 162.57422 C 196.43714 162.71671 196.18385 162.82852 195.85156 162.91016 C 195.51927 162.98499 195.12362 163.02148 194.66211 163.02148 L 192.22461 163.02148 L 192.22461 165.73047 L 194.75391 165.73047 C 195.21542 165.73047 195.61664 165.75694 195.95508 165.8125 C 196.29966 165.86693 196.58482 165.96336 196.8125 166.10547 C 197.04007 166.26156 197.20594 166.46261 197.31055 166.70703 C 197.42125 166.95119 197.47656 167.2705 197.47656 167.66406 C 197.47656 168.07803 197.40334 168.417 197.25586 168.68164 C 197.10804 168.9394 196.88355 169.16648 196.58203 169.36328 C 196.31115 169.54621 195.97615 169.68312 195.57617 169.77148 C 195.17616 169.85993 194.73222 169.90234 194.24609 169.90234 C 193.74766 169.90234 193.3073 169.85167 192.92578 169.75 C 192.5504 169.64153 192.14227 169.49558 191.69922 169.3125 C 191.34844 169.17001 190.99919 168.9995 190.64844 168.80273 C 190.30386 168.5994 190.04339 168.44445 189.87109 168.33594 L 189.53906 168.33594 L 189.53906 171.75586 C 190.25287 172.05444 191.03559 172.29228 191.88477 172.46875 C 192.7401 172.65168 193.6616 172.74219 194.65234 172.74219 C 195.7784 172.74219 196.73218 172.63334 197.51367 172.41602 C 198.29516 172.19227 198.96904 171.86696 199.53516 171.43945 C 200.07666 171.03236 200.48315 170.52776 200.75391 169.92383 C 201.03098 169.31994 201.16992 168.65382 201.16992 167.92773 C 201.16992 167.2763 201.07199 166.74401 200.875 166.33008 C 200.67801 165.90942 200.42486 165.5565 200.11719 165.27148 C 199.81569 164.99331 199.48054 164.78015 199.11133 164.63086 C 198.74827 164.47476 198.40065 164.36592 198.06836 164.30469 L 198.06836 164.15234 C 198.87447 163.9422 199.52862 163.52469 200.0332 162.90039 C 200.54395 162.27613 200.80078 161.53173 200.80078 160.66992 C 200.80078 159.51633 200.32658 158.61729 199.37891 157.97266 C 198.43745 157.32125 197.02558 156.99609 195.14258 156.99609 z M 263.00391 156.99609 C 262.01935 156.99609 261.07087 157.10003 260.16016 157.31055 C 259.25559 157.51389 258.49094 157.74307 257.86328 157.99414 L 257.86328 161.17969 L 258.20508 161.17969 C 258.46976 161.044 258.72095 160.91205 258.96094 160.7832 C 259.2009 160.64752 259.51995 160.50157 259.91992 160.3457 C 260.28914 160.21002 260.67785 160.08995 261.08398 159.98828 C 261.49011 159.88661 261.93048 159.83594 262.4043 159.83594 C 263.1981 159.83594 263.82198 159.95109 264.27734 160.18164 C 264.73885 160.41219 264.9707 160.7821 264.9707 161.29102 C 264.9707 161.5896 264.93135 161.83644 264.85742 162.0332 C 264.78969 162.22974 264.66137 162.41128 264.4707 162.57422 C 264.29847 162.71671 264.04713 162.82852 263.71484 162.91016 C 263.38255 162.98499 262.98495 163.02148 262.52344 163.02148 L 260.08594 163.02148 L 260.08594 165.73047 L 262.61523 165.73047 C 263.07675 165.73047 263.47796 165.75694 263.81641 165.8125 C 264.16099 165.86693 264.44615 165.96336 264.67383 166.10547 C 264.90143 166.26156 265.06922 166.46261 265.17383 166.70703 C 265.28453 166.95119 265.33984 167.2705 265.33984 167.66406 C 265.33984 168.07803 265.26466 168.417 265.11719 168.68164 C 264.96937 168.9394 264.7449 169.16648 264.44336 169.36328 C 264.17248 169.54621 263.83748 169.68312 263.4375 169.77148 C 263.03752 169.85993 262.59355 169.90234 262.10742 169.90234 C 261.60899 169.90234 261.17058 169.85167 260.78906 169.75 C 260.41368 169.64153 260.0036 169.49558 259.56055 169.3125 C 259.20981 169.17001 258.85856 168.9995 258.50781 168.80273 C 258.16323 168.5994 257.90472 168.44445 257.73242 168.33594 L 257.40039 168.33594 L 257.40039 171.75586 C 258.1142 172.05444 258.89496 172.29228 259.74414 172.46875 C 260.59948 172.65168 261.52296 172.74219 262.51367 172.74219 C 263.63976 172.74219 264.59546 172.63334 265.37695 172.41602 C 266.15845 172.19227 266.83231 171.86696 267.39844 171.43945 C 267.93995 171.03236 268.34448 170.52776 268.61523 169.92383 C 268.89197 169.31994 269.03125 168.65382 269.03125 167.92773 C 269.03125 167.2763 268.93136 166.74401 268.73438 166.33008 C 268.53739 165.90942 268.28616 165.5565 267.97852 165.27148 C 267.67702 164.99331 267.34187 164.78015 266.97266 164.63086 C 266.60959 164.47476 266.26198 164.36592 265.92969 164.30469 L 265.92969 164.15234 C 266.7358 163.9422 267.39189 163.52469 267.89648 162.90039 C 268.40722 162.27613 268.66211 161.53173 268.66211 160.66992 C 268.66211 159.51633 268.18787 158.61729 267.24023 157.97266 C 266.29875 157.32125 264.88688 156.99609 263.00391 156.99609 z M 282.44141 157.26172 C 281.383 157.26172 280.59336 157.45781 280.07031 157.85156 C 279.54726 158.23836 279.04804 158.88861 278.57422 159.80469 C 278.46352 160.02163 278.3264 160.29938 278.16016 160.63867 C 278.00028 160.97127 277.85565 161.26159 277.72656 161.50586 C 277.51721 161.89946 277.31576 162.23055 277.125 162.50195 C 276.93421 162.76652 276.75599 162.96779 276.58984 163.10352 C 276.42997 163.2324 276.25521 163.32253 276.06445 163.37695 C 275.87366 163.4242 275.63297 163.45514 275.34375 163.46875 L 275.34375 157.29102 L 271.79883 157.29102 L 271.79883 172.44727 L 275.34375 172.44727 L 275.34375 166.33008 L 276.21094 166.33008 L 280.27344 172.44727 L 284.61914 172.44727 L 279.24023 164.63086 C 279.44338 164.50878 279.65181 164.30432 279.86719 164.01953 C 280.08239 163.72775 280.36078 163.2242 280.69922 162.51172 C 281.03768 161.79244 281.34418 161.29084 281.62109 161.00586 C 281.90403 160.72088 282.29814 160.57812 282.80273 160.57812 L 283.82812 160.57812 L 283.82812 157.29102 C 283.71122 157.29102 283.52939 157.28766 283.2832 157.2832 C 283.03708 157.26809 282.75524 157.26172 282.44141 157.26172 z M 207.48438 157.29102 L 202.40625 172.44727 L 205.97852 172.44727 L 206.92969 169.38281 L 212.02539 169.38281 L 212.97656 172.44727 L 216.64062 172.44727 L 211.5625 157.29102 L 207.48438 157.29102 z M 218.63281 157.29102 L 218.63281 172.44727 L 222.17773 172.44727 L 222.17773 160.22266 L 228.54688 160.22266 L 228.54688 157.29102 L 218.63281 157.29102 z M 230.66992 157.29102 L 230.66992 172.44727 L 234.21484 172.44727 L 234.21484 167.50977 L 236.41992 167.50977 C 237.42294 167.50977 238.26091 167.35579 238.93164 167.05078 C 239.60853 166.7454 240.21991 166.29638 240.76758 165.69922 C 241.16758 165.25815 241.47607 164.71499 241.69141 164.07031 C 241.90661 163.41887 242.01367 162.75276 242.01367 162.07422 C 242.01367 161.19888 241.86771 160.45044 241.57227 159.82617 C 241.28313 159.20187 240.86046 158.68747 240.30664 158.28711 C 239.84513 157.95451 239.31203 157.70782 238.70898 157.54492 C 238.11209 157.37522 237.37575 157.29102 236.50195 157.29102 L 230.66992 157.29102 z M 242.85352 157.29102 L 248.4375 168.63086 C 248.35121 168.841 248.11785 169.00975 247.73633 169.13867 C 247.36098 169.26755 246.86896 169.33203 246.25977 169.33203 C 245.93979 169.33203 245.6152 169.30966 245.28906 169.27148 C 244.96293 169.22424 244.73664 169.17911 244.60742 169.13867 L 244.39453 169.13867 L 244.39453 172.44727 C 244.58532 172.46994 244.97762 172.48778 245.56836 172.50781 C 246.15913 172.53427 246.66886 172.54883 247.09961 172.54883 C 247.48728 172.54883 247.87405 172.51826 248.26172 172.45703 C 248.65554 172.39618 249.05315 172.26119 249.45312 172.05078 C 249.85314 171.84744 250.23987 171.53102 250.61523 171.10352 C 250.99058 170.67598 251.32407 170.11301 251.61328 169.41406 L 256.61523 157.29102 L 252.93359 157.29102 L 250.11914 164.47852 L 246.70312 157.29102 L 242.85352 157.29102 z M 289.92773 157.29102 L 284.85156 172.44727 L 288.42383 172.44727 L 289.37305 169.38281 L 294.46875 169.38281 L 295.41992 172.44727 L 299.08398 172.44727 L 294.00781 157.29102 L 289.92773 157.29102 z M 234.21484 160.12109 L 234.82227 160.12109 C 235.40685 160.12109 235.87581 160.12771 236.22656 160.15039 C 236.5773 160.16551 236.93743 160.25312 237.30664 160.41602 C 237.58372 160.53809 237.82594 160.75418 238.03516 161.06641 C 238.2445 161.37179 238.34961 161.73851 238.34961 162.16602 C 238.34961 162.60028 238.29625 162.97004 238.19141 163.27539 C 238.09306 163.57397 237.93082 163.83166 237.70312 164.04883 C 237.43844 164.29299 237.10867 164.45765 236.71484 164.53906 C 236.32717 164.62032 235.83156 164.66016 235.22852 164.66016 L 234.21484 164.66016 L 234.21484 160.12109 z M 209.47656 161.16992 L 211.16602 166.60547 L 207.78711 166.60547 L 209.47656 161.16992 z M 291.92188 161.16992 L 293.61133 166.60547 L 290.23242 166.60547 L 291.92188 161.16992 z M 301.01367 168.44727 L 301.01367 172.44727 L 304.4668 172.44727 L 304.4668 168.44727 L 301.01367 168.44727 z M 307.84375 168.44727 L 307.84375 172.44727 L 311.29688 172.44727 L 311.29688 168.44727 L 307.84375 168.44727 z M 314.67383 168.44727 L 314.67383 172.44727 L 318.12695 172.44727 L 318.12695 168.44727 L 314.67383 168.44727 z "
       transform="matrix(0.26458333,0,0,0.26458333,0,244.08331)"
       id="path1308" />
  </g>
</svg>
