<svg xmlns="http://www.w3.org/2000/svg" xmlns:xlink="http://www.w3.org/1999/xlink" width="328.782" height="437.436" viewBox="0 0 86.990189 115.73839"><defs><linearGradient id="a"><stop offset="0" stop-color="#586375"/><stop offset="1" stop-color="#6c7d94"/></linearGradient><radialGradient xlink:href="#a" id="s" cx="-380.507" cy="84.738" fx="-380.507" fy="84.738" r="12.16" gradientTransform="matrix(.52917 0 0 .41117 274.825 5.017)" gradientUnits="userSpaceOnUse"/><radialGradient xlink:href="#a" id="r" cx="-380.507" cy="105.905" fx="-380.507" fy="105.905" r="12.16" gradientTransform="matrix(.52917 0 0 .41117 274.825 9.298)" gradientUnits="userSpaceOnUse"/><radialGradient xlink:href="#a" id="q" cx="-380.507" cy="127.072" fx="-380.507" fy="127.072" r="12.16" gradientTransform="matrix(.52917 0 0 .41117 274.825 13.579)" gradientUnits="userSpaceOnUse"/><radialGradient xlink:href="#a" id="p" cx="-380.507" cy="145.704" fx="-380.507" fy="145.704" r="12.16" gradientTransform="matrix(.52917 0 0 .31005 274.825 32.08)" gradientUnits="userSpaceOnUse"/><radialGradient xlink:href="#a" id="b" cx="19.241" cy="183.846" fx="19.241" fy="183.846" r="12.936" gradientTransform="matrix(1 0 0 1.3287 0 -60.43)" gradientUnits="userSpaceOnUse"/><radialGradient xlink:href="#a" id="t" cx="-452.599" cy="47.86" fx="-452.599" fy="47.86" r="10.129" gradientTransform="matrix(.52917 0 0 .44047 274.825 -3.844)" gradientUnits="userSpaceOnUse"/><radialGradient xlink:href="#a" id="c" gradientUnits="userSpaceOnUse" gradientTransform="matrix(1 0 0 1.3287 0 -60.43)" cx="19.241" cy="183.846" fx="19.241" fy="183.846" r="12.936"/><radialGradient xlink:href="#a" id="d" gradientUnits="userSpaceOnUse" gradientTransform="matrix(1 0 0 1.3287 0 -60.43)" cx="19.241" cy="183.846" fx="19.241" fy="183.846" r="12.936"/><radialGradient xlink:href="#a" id="e" gradientUnits="userSpaceOnUse" gradientTransform="matrix(1 0 0 1.3287 0 -60.43)" cx="19.241" cy="183.846" fx="19.241" fy="183.846" r="12.936"/><radialGradient xlink:href="#a" id="f" gradientUnits="userSpaceOnUse" gradientTransform="matrix(1 0 0 1.3287 0 -60.43)" cx="19.241" cy="183.846" fx="19.241" fy="183.846" r="12.936"/><radialGradient xlink:href="#a" id="g" gradientUnits="userSpaceOnUse" gradientTransform="matrix(1 0 0 1.3287 0 -60.43)" cx="19.241" cy="183.846" fx="19.241" fy="183.846" r="12.936"/><radialGradient xlink:href="#a" id="h" gradientUnits="userSpaceOnUse" gradientTransform="matrix(1 0 0 1.3287 0 -60.43)" cx="19.241" cy="183.846" fx="19.241" fy="183.846" r="12.936"/><radialGradient xlink:href="#a" id="i" gradientUnits="userSpaceOnUse" gradientTransform="matrix(1 0 0 1.3287 0 -60.43)" cx="19.241" cy="183.846" fx="19.241" fy="183.846" r="12.936"/><radialGradient xlink:href="#a" id="j" gradientUnits="userSpaceOnUse" gradientTransform="matrix(1 0 0 1.3287 0 -60.43)" cx="19.241" cy="183.846" fx="19.241" fy="183.846" r="12.936"/><radialGradient xlink:href="#a" id="k" gradientUnits="userSpaceOnUse" gradientTransform="matrix(1 0 0 1.3287 0 -60.43)" cx="19.241" cy="183.846" fx="19.241" fy="183.846" r="12.936"/><radialGradient xlink:href="#a" id="l" gradientUnits="userSpaceOnUse" gradientTransform="matrix(1 0 0 1.3287 0 -60.43)" cx="19.241" cy="183.846" fx="19.241" fy="183.846" r="12.936"/><radialGradient xlink:href="#a" id="m" gradientUnits="userSpaceOnUse" gradientTransform="matrix(1 0 0 1.3287 0 -60.43)" cx="19.241" cy="183.846" fx="19.241" fy="183.846" r="12.936"/><radialGradient xlink:href="#a" id="n" gradientUnits="userSpaceOnUse" gradientTransform="matrix(1 0 0 1.3287 0 -60.43)" cx="19.241" cy="183.846" fx="19.241" fy="183.846" r="12.936"/><radialGradient xlink:href="#a" id="o" gradientUnits="userSpaceOnUse" gradientTransform="matrix(1 0 0 1.3287 0 -60.43)" cx="19.241" cy="183.846" fx="19.241" fy="183.846" r="12.936"/></defs><g transform="translate(-1.393 -.828)"><g fill="#d8dce2" fill-opacity=".291" stroke="#000" stroke-linecap="round" stroke-linejoin="round"><path stroke-width=".265" d="M-479.254 66.84h2.588v90.052h-2.588zM-476.609 66.84h2.588v90.052h-2.588zM-473.963 66.84h2.588v90.052h-2.588zM-471.317 66.84h2.588v90.052h-2.588zM-468.671 66.84h2.588v90.052h-2.588zM-466.025 66.84h2.588v90.052h-2.588zM-463.38 66.84h2.588v90.052h-2.588zM-460.734 66.84h2.588v90.052h-2.588zM-458.088 66.84h2.588v90.052h-2.588zM-455.442 66.84h2.588v90.052h-2.588zM-452.796 66.84h2.588v90.052h-2.588zM-450.151 66.84h2.588v90.052h-2.588z" transform="matrix(.52917 0 0 .6134 274.825 -12.12)"/><path stroke-width=".254" d="M-481.906 74.853h2.599v82.045h-2.599z" transform="matrix(.52917 0 0 .6134 274.825 -12.12)"/><path stroke-width=".252" d="M-484.553 76.155h2.601v80.744h-2.601z" transform="matrix(.52917 0 0 .6134 274.825 -12.12)"/><path stroke-width=".25" d="M-487.2 77.571h2.603V156.9h-2.603z" transform="matrix(.52917 0 0 .6134 274.825 -12.12)"/><path stroke-width=".248" d="M-489.846 78.94h2.605v77.961h-2.605z" transform="matrix(.52917 0 0 .6134 274.825 -12.12)"/></g><path fill="#99a4b5" stroke="#000" stroke-width=".151" stroke-linecap="round" stroke-linejoin="round" d="M3.13 72.017h.625v1.565H3.13z"/><g fill="#d9dde0" fill-opacity=".29" stroke="#000" stroke-linecap="round" stroke-linejoin="round"><path stroke-width=".275" d="M-444.854 59.664h2.578v97.223h-2.578z" transform="matrix(.52917 0 0 .6134 274.825 -12.12)"/><path stroke-width=".231" d="M-442.231 89.596h2.622v67.313h-2.622z" transform="matrix(.52917 0 0 .6134 274.825 -12.12)"/><path stroke-width=".222" d="M-439.589 94.695h2.631v62.219h-2.631z" transform="matrix(.52917 0 0 .6134 274.825 -12.12)"/><path stroke-width=".249" d="M-436.93 99.622h3.596V156.9h-3.596z" transform="matrix(.52917 0 0 .6134 274.825 -12.12)"/></g><path d="M40.87 43.368l4.076 7.449-.05-2.03-2.7-7.245z" fill="#fff"/><path fill="#6c7d94" stroke="#000" stroke-width=".151" stroke-linecap="round" stroke-linejoin="round" d="M19.939 27.522h19.093v1.312H19.939z"/><path d="M15.506 23.53l.2-21.678c.86-.542 1.804-.658 2.9 0l.15 21.504z" fill="#99a4b5" stroke="#000" stroke-width=".151"/><path d="M27.205 5.307l-.027-2.47c.012-.533-.227-.759-.592-.83l-9.058.258.378.391 8.238-.074c.152.055.336.022.354.44v1.875z" fill="#e2e5eb" stroke="#000" stroke-width=".151"/><path d="M78.88 109.453l1.539 1.599v1.906h.406v1.373l-.901 1.496.017.615h2.882v-.636l-.69-1.66v-4.365l-.353-.39z" fill="#99a4b5" stroke="#000" stroke-width=".151"/><g transform="matrix(.52917 0 0 .6134 63.824 -15.317)" fill="url(#b)" stroke="#000" stroke-width=".265" stroke-linecap="round" stroke-linejoin="round"><path fill="url(#c)" d="M6.437 166.79h25.608v34.112H6.437z"/><path fill="url(#d)" d="M6.437 166.79h2.067v34.11H6.437z"/><path fill="url(#e)" d="M8.504 166.79h2.067v34.11H8.504z"/><path fill="url(#f)" d="M10.572 166.79h2.067v34.11h-2.067z"/><path fill="url(#g)" d="M12.639 166.79h2.067v34.11h-2.067z"/><path fill="url(#h)" d="M14.707 166.79h2.067v34.11h-2.067z"/><path fill="url(#i)" d="M16.774 166.79h2.067v34.11h-2.067z"/><path fill="url(#j)" d="M18.842 166.79h2.067v34.11h-2.067z"/><path fill="url(#k)" d="M20.909 166.79h2.067v34.11h-2.067z"/><path fill="url(#l)" d="M22.977 166.79h2.067v34.11h-2.067z"/><path fill="url(#m)" d="M25.044 166.79h2.067v34.11h-2.067z"/><path fill="url(#n)" d="M27.111 166.79h2.067v34.11h-2.067z"/><path fill="url(#o)" d="M29.179 166.79h2.067v34.11h-2.067z"/></g><path fill="url(#p)" stroke="#000" stroke-width=".131" stroke-linecap="round" stroke-linejoin="round" d="M67.097 73.556h12.747v7.399H67.097z"/><path fill="url(#q)" stroke="#000" stroke-width=".151" stroke-linecap="round" stroke-linejoin="round" d="M67.106 60.908h12.729v9.837H67.106z"/><path fill="url(#r)" stroke="#000" stroke-width=".151" stroke-linecap="round" stroke-linejoin="round" d="M67.106 47.924h12.729v9.837H67.106z"/><path fill="url(#s)" stroke="#000" stroke-width=".151" stroke-linecap="round" stroke-linejoin="round" d="M67.106 34.94h12.729v9.837H67.106z"/><path d="M39.508 24.342l1.175 1.913 1.05-1.073-1.825-1.739z" fill="#fff"/><path fill="#e2e5eb" stroke="#000" stroke-width=".085" stroke-linecap="round" stroke-linejoin="round" d="M40.837 18h11.531v1.554H40.837z"/><path d="M12.514 36.498v58.036h35.64V45.843L65.551 32.07l-.142 55.25h2.97l-.02-57.705-3.95.058-18.5 16.056.053 35.197-1.768.656v8.689H16.981V86.13h-1.7l-.01-48.404 21.357-10.984.495-7.787h41.722v68.16h2.404V16.575H34.082l.636 6.274v3.28z" fill="#586375" stroke="#000" stroke-width=".151"/><path d="M51.867 84.062V65.41c-.07-2.145-1.07-2.286-2.007-2.547l-.035.636c.912.092 1.515.63 1.556 1.977v18.516z" fill="#e2e5eb" stroke="#000" stroke-width=".151"/><path d="M48.154 94.534h1.84V45.802l15.557-13.73-17.397 13.77z" fill="#99a4b5" stroke="#000" stroke-width=".151"/><path d="M17.106 23.74V.827" fill="none" stroke="#000" stroke-width=".17" stroke-dasharray="2.03428317,.1695236"/><path fill="#e2e5eb" stroke="#000" stroke-width=".151" stroke-linecap="round" stroke-linejoin="round" d="M22.98 16.374h5.94v7.05h-5.94z"/><path fill="#99a4b5" stroke="#000" stroke-width=".151" stroke-linecap="round" stroke-linejoin="round" d="M9.556 77.755h1.55v5.564h-1.55zM9.556 70.799h1.55v3.043h-1.55z"/><path d="M12.514 94.534h-1.45v-71.52H32.28l-2.581 1.065H12.58zM81.25 16.575h.623V15.4l-42.558-.216v1.393z" fill="#99a4b5" stroke="#000" stroke-width=".151"/><path fill="#99a4b5" stroke="#000" stroke-width=".148" stroke-linecap="round" stroke-linejoin="round" d="M54.657 8.342h3.203v8.227h-3.203z"/><path d="M11.064 94.534l-.703 3.043" fill="none" stroke="#000" stroke-width=".151"/><path d="M10.36 97.577h40.765l-1.132-3.043H11.064" fill="#5f7189" stroke="#000" stroke-width=".151"/><path d="M10.53 96.593h40.228" fill="none" stroke="#000" stroke-width=".151"/><path d="M10.36 97.577h40.765v3.856h-4.217v-1.855h-33.05v1.965h-3.855v-3.936l.358-.03" fill="#5f7189" stroke="#000" stroke-width=".151"/><path fill="#99a4b5" stroke="#000" stroke-width=".19" stroke-linecap="round" stroke-linejoin="round" d="M9.308 97.625h5.47v18.846h-5.47zM46.323 97.625h5.47v18.846h-5.47z"/><path d="M88.383 116.472H3.145" fill="none" stroke="#000" stroke-width=".151"/><path d="M41.878 11.66c-.293-.987-.707-1.108-1.113-1.291h-3.801c-.838.25-1.033.825-1.079 1.476l.335.455.562-.377c-.022-.295.131-.57.426-.826h3.212c.322.152.615.343.625.913v4.558l.833-.072z" fill="#e2e5eb" stroke="#000" stroke-width=".151"/><path fill="#99a4b5" stroke="#000" stroke-width=".151" stroke-linecap="round" stroke-linejoin="round" d="M4.555 77.668H8.83v4.115H4.555zM3.805 78.595h.725v2.319h-.725zM3.105 78.914h.7v1.594h-.7zM3.78 71.495h.675v2.753H3.78z"/><path fill="#99a4b5" stroke="#000" stroke-width=".151" stroke-linecap="round" stroke-linejoin="round" d="M4.405 70.51H8.88v5.333H4.405z"/><path d="M8.854 75.168c.13.375.38.73.743 1.066.483.42.966.447 1.45.533l.052-.717c-.42-.103-.81-.07-1.308-.513-.184-.123-.228-.29-.23-.471z" fill="#e2e5eb" stroke="#000" stroke-width=".151"/><path fill="#6c7d94" stroke="#000" stroke-width=".153" stroke-linecap="round" stroke-linejoin="round" d="M16.735 84.12h27.467v1.599H16.735z"/><path d="M9.827 88.304h4.083c.83-.483 1.517-1.14 1.998-2.049v-46.96c.305-.668.828-.982 1.379-1.25l20.534-10.523c.425-.436.888-.836.557-1.988l-.884-3.586-.654.225.955 3.689c.12.382.198.776-.513 1.373L17.084 37.44c-.754.373-1.398.855-1.803 1.574V86.1c-.285.85-.983 1.364-1.763 1.812H9.831z" fill="#e2e5eb" stroke="#000" stroke-width=".151"/><path d="M38.36 21.722l2.316 3.832c.16.308.3.667.319 1.353l.176 15.042c.114.885.14 1.72 1.026 3.053l3.2 6.394-.036 1.25-3.942-7.603c-.329-.696-.707-1.312-.813-2.377l-.177-15.841c-.072-.554-.286-.888-.495-1.23l-2.21-3.627z" fill="#e2e5eb" stroke="#000" stroke-width=".151"/><path d="M50.965 84.38c-.318-.347-.949-.742-1.555-1.014-.772-.307-1.206-.337-2.069-.451-.973-.073-1.908-.611-2.087-1.66l-.087-35.33c-.627-2.156-1.962-3.54-2.74-5.452-.134-.355-.176-.71-.248-1.065v-13.56c-.002-.62-.408-.974-.721-1.39l-2.675-3.043.45-.348 2.85 3.217c.475.509.62 1.06.675 1.623V39.44c.168.635.346 1.27.775 1.942a31.53 31.53 0 0 0 1.525 2.608c.32.586.665 1.134.825 1.942l.088 34.973c.108 1.56 1 1.254 1.666 1.483.98.06 1.616.32 1.996.496.896.383 1.408.835 1.982 1.18z" fill="#e2e5eb" stroke="#000" stroke-width=".151"/><path d="M40.308 20.342l3.225 2.174c.385.51.74 1.05.8 1.884v10.81c-.19 1.454-.795 2.86-1.45 4.26-.45 1.102-.171 2.203-.025 3.304l2.325 5.39.013 1.928-2.938-6.84c-.268-.68-.286-1.362-.275-2.043-.027-.662.185-1.323.387-1.985.416-1.194 1.134-2.22 1.33-3.566.15-.187.113-.51.123-.861l-.07-10.472c-.075-.714-.429-1.102-.778-1.496L39.987 20.8z" fill="#e2e5eb" stroke="#000" stroke-width=".151"/><path d="M22.962 17.378h5.975M22.944 18.054h5.976" fill="none" stroke="#000" stroke-width=".151"/><path d="M22.962 18.771h5.979" fill="none" stroke="#000" stroke-width=".15"/><path d="M22.931 19.516h5.976M22.956 20.255h5.95M23.006 20.994h5.888M22.994 21.646h5.888M22.994 22.458h5.888" fill="none" stroke="#000" stroke-width=".151"/><path d="M17.281 2.78l8.95 2.231c.502.254.383.75.421 1.16l.08 3.274c.05.704.318 1.246.65 1.74l3.025 2.955.5-.521-2.675-2.594c-.318-.384-.712-.639-.763-1.478l-.123-3.97c-.024-.438-.033-.833-.602-1.059l-9.386-2.254c-.114.105-.228.21-.077.515zM30.175 14.242l-5.728.02-2.44-2.233h-3.871c-.257.246-.309.492 0 .738h3.606l2.528 2.11h5.887z" fill="#e2e5eb" stroke="#000" stroke-width=".151"/><path d="M29.687 15.28l-5.803-.116-2.002-1.706c-4.534-.003-2.455-.005-3.72-.008-.256.246-.335.37-.026.615l3.744-.014 1.903 1.618 5.8.029z" fill="#e2e5eb" stroke="#000" stroke-width=".151"/><path d="M29.253 15.999l-5.84-.003-1.506-1.133c-4.534-.002-2.455-.005-3.72-.007-.256.246-.335.369-.026.615l3.744-.015 1.098.901 6.136.009z" fill="#e2e5eb" stroke="#000" stroke-width=".151"/><path fill="none" stroke="#000" stroke-width=".151" stroke-linecap="round" stroke-linejoin="round" d="M11.091 34.951h1.414v1.916h-1.414z"/><ellipse ry="1.378" rx="1.669" cy="77.365" cx="30.322" fill="#fff" stroke="#000" stroke-width=".173" stroke-linecap="round" stroke-linejoin="round"/><path d="M33.936 77.443h-7.227M30.322 80.35v-5.69" fill="none" stroke="#000" stroke-width=".077" stroke-dasharray=".30765692,.07691423"/><ellipse ry=".807" rx=".926" cy="71.046" cx="19.832" fill="#fff" stroke="#000" stroke-width=".089" stroke-linecap="round" stroke-linejoin="round"/><ellipse ry=".789" rx=".899" cy="70.894" cx="40.756" fill="#fff" stroke="#000" stroke-width=".091" stroke-linecap="round" stroke-linejoin="round"/><ellipse ry=".768" rx=".963" cy="46.368" cx="19.781" fill="#fff" stroke="#000" stroke-width=".089" stroke-linecap="round" stroke-linejoin="round"/><ellipse ry="1.415" rx="1.616" cy="40.209" cx="45.038" fill="none" stroke="#000" stroke-width=".099" stroke-linecap="round" stroke-linejoin="round"/><ellipse ry="1.217" rx="1.363" cy="21.502" cx="44.596" fill="none" stroke="#000" stroke-width=".151" stroke-linecap="round" stroke-linejoin="round"/><path d="M47.758 19.56l.6 1.101-.275 20.809c.478 1.569 1.736 1.018 2 .058l-.325-22.519-1.537 21.722c.66.999 1.47.649 1.712.014l.075-21.156.275 19.823c.18 1.112 1.187.768 1.076-.029l-.125-20.229-1.026 18.432" fill="none" stroke="#000" stroke-width=".151"/><ellipse ry="1.405" rx="1.614" cy="36.32" cx="53.39" fill="none" stroke="#000" stroke-width=".162" stroke-linecap="round" stroke-linejoin="round"/><ellipse ry=".645" rx=".881" cy="12.206" cx="56.128" fill="#fff" stroke="#000" stroke-width=".151" stroke-linecap="round" stroke-linejoin="round"/><path fill="#99a4b5" stroke="#000" stroke-width=".15" stroke-linecap="round" stroke-linejoin="round" d="M54.658 8.329h3.176v.813h-3.176z"/><path d="M1.406 79.78h9.617M1.393 72.813h9.617" fill="none" stroke="#000" stroke-width=".118" stroke-dasharray="1.41902463,.11825206"/><path d="M49.633 12.418c-.896 0-1.623.628-1.623 1.403.001.546.368 1.041.94 1.271l.02 1.483.8.014-.024 2.203c.031.25.254.482.607.592.758.234 1.957.17 2.033.182.624-.053.29-.23.984-.28.909-.026 1.827-.011 2.637-.048.08-.004.014-.195.034-.303l-1.776-.003-3.573-.005c-.35-.03-.392-.353-.42-.57V15.11c.596-.22.984-.728.984-1.289 0-.775-.726-1.403-1.623-1.403z" fill="#fff" stroke="#000" stroke-width=".093" stroke-linecap="round" stroke-linejoin="round"/><g fill="none" stroke="#000" stroke-width=".265"><path d="M-120.104 36.563v-3.074l5.245.05-1.639-.946M-114.86 33.54l-1.572.907" transform="matrix(.52917 0 0 .6134 113.213 -10.266)"/></g><path fill="#99a4b5" stroke="#000" stroke-width=".151" stroke-linecap="round" stroke-linejoin="round" d="M66.576 107.445h13.33v2.09h-13.33z"/><path d="M68.308 107.404v2.131" fill="none" stroke="#000" stroke-width=".151"/><path d="M80.72 87.772v4.262c1.022.058 1.8.557 2.305 1.543v6.245c-.412 1.097-1.278 1.667-2.2 2.172v5.123l4.494-3.007V89.41z" fill="#99a4b5" stroke="#000" stroke-width=".151"/><path fill="#99a4b5" stroke="#000" stroke-width=".151" stroke-linecap="round" stroke-linejoin="round" d="M67.23 86.993h14.037v.369H67.23zM68.238 107.035h11.456v.451H68.238z"/><path fill="none" stroke="#000" stroke-width=".151" stroke-linecap="round" stroke-linejoin="round" d="M79.906 109.33h.088v.061h-.088z"/><path fill="#99a4b5" stroke="#000" stroke-width=".172" stroke-linecap="round" stroke-linejoin="round" d="M80.889 106.414h1.342v2.943h-1.342z"/><path fill="#99a4b5" stroke="#000" stroke-width=".151" stroke-linecap="round" stroke-linejoin="round" d="M79.942 107.134h1.361v2.234h-1.361z"/><path d="M65.785 109.548h2.825v.84l-1.425 1.276-.025 2.637.775 1.333v.783h-3.076v-.957l.876-1.188z" fill="#99a4b5" stroke="#000" stroke-width=".151"/><path d="M67.185 111.664h-1.45M65.722 114.272h1.438" fill="none" stroke="#000" stroke-width=".151"/><path fill="none" stroke="#000" stroke-width=".142" stroke-linecap="round" stroke-linejoin="round" d="M80.407 109.442h.421v3.502h-.421z"/><path d="M80.823 111.287l1.325.029" fill="none" stroke="#000" stroke-width=".151"/><path fill="#fff" stroke="#000" stroke-width=".151" stroke-linecap="round" stroke-linejoin="round" d="M80.661 54.773h1.5v2.029h-1.5z"/><path d="M65.44 81.654l.111-49.767.888 49.81z" fill="#99a4b5" stroke="#000" stroke-width=".151"/><path fill="#fff" stroke="#000" stroke-width=".151" stroke-linecap="round" stroke-linejoin="round" d="M65.085 55.062h1.625v2.087h-1.625zM65.16 41.905h1.325v2.319H65.16zM65.169 31.972h1.202v1.537h-1.202zM80.848 81.363h1.313v2.116h-1.313zM80.336 41.499h1.725v2.608h-1.725zM80.561 31.558h1.425v2.782h-1.425zM78.885 26.921h1.475v3.768h-1.475z"/><path fill="#fff" stroke="#000" stroke-width=".156" stroke-linecap="round" stroke-linejoin="round" d="M65.677 15.318h1.284v1.23h-1.284z"/><path fill="#d9dde0" fill-opacity=".29" stroke="#000" stroke-width=".151" stroke-linecap="round" stroke-linejoin="round" d="M37.987 28.88h1.369v55.238h-1.369z"/><path d="M8.819 87.188l.292.553.45-.564V31.375c.198-.77.648-1.13 1.176-1.363l21.436-6.26c.998-.552 1.095-1.213 1.534-1.816l-.9-.174c-.004.434-.144.882-.875 1.392L10.57 29.366c-.662.33-1.315.673-1.52 1.722z" fill="#e2e5eb" stroke="#000" stroke-width=".151"/><ellipse cx="35.332" cy="17.285" rx="6.629" ry="5.497" fill="#99a4b5" stroke="#000" stroke-width=".143" stroke-linecap="round" stroke-linejoin="round"/><ellipse ry="4.4" rx="5.307" cy="17.237" cx="35.322" fill="url(#t)" stroke="#000" stroke-width=".114" stroke-linecap="round" stroke-linejoin="round"/><ellipse ry=".691" rx=".874" cy="13.836" cx="49.605" fill="#fff" stroke="#000" stroke-width=".093" stroke-linecap="round" stroke-linejoin="round"/><path d="M60.07 20.431l1.167 7.87c-.138.538-.836 1.01-1.238 0l.106-8.526c.371-.379 1.111-1.061 1.91.287l.07 8.362c.236 1.119 1.269.745 1.309.081l-.425-8.853c.19-.44.902-.955 1.344-.123l-.389 8.526c.146.631 1.271 1.164 1.803.04l-.813-8.32c.322-.744 1.233-.852 1.733.041l-.213 8.485c.573.762 1.254.712 1.874.082l-.247-8.526c-.336-.847-.83-.708-1.344-.963" fill="none" stroke="#000" stroke-width=".151"/><path d="M56.184 11.563v-1.541c.211-.69 1.106-.353 1.112.014v4.22c-.049.22-.169.347-.287.46l-.788.634c-.19.227-.317.487-.25.85l.063 3.01 4.975.042" fill="none" stroke="#000" stroke-width=".15"/><ellipse ry=".939" rx="1.131" cy="88.071" cx="9.143" fill="#e2e5eb" stroke="#000" stroke-width=".165" stroke-linecap="round" stroke-linejoin="round"/><ellipse ry=".892" rx="1.043" cy="84.636" cx="51.558" fill="#e2e5eb" stroke="#000" stroke-width=".169" stroke-linecap="round" stroke-linejoin="round"/><path d="M12.09 116.084V99.37" fill="none" stroke="#000" stroke-width=".145" stroke-dasharray="1.73744265,.14478689"/><path d="M49.052 116.15V99.37" fill="none" stroke="#000" stroke-width=".145" stroke-dasharray="1.74091232,.14507603"/><path d="M21.772 71.039h-3.927M19.809 73.042v-3.921M42.744 70.888h-3.927M40.78 72.891v-3.92" fill="none" stroke="#000" stroke-width=".077" stroke-dasharray=".30765692,.07691423"/><g fill="none" stroke="#000" stroke-width=".135" stroke-dasharray=".54,.135"><path d="M-418.113 157.718h-7.42M-421.823 160.984v-6.392" transform="matrix(.52917 0 0 .6134 274.825 -12.12)"/></g><g fill="none" stroke="#000" stroke-width=".135" stroke-dasharray=".54,.135"><path d="M-418.113 157.718h-7.42M-421.823 160.984v-6.392" transform="matrix(.52917 0 0 .6134 232.405 -8.712)"/></g><g fill="none" stroke="#000" stroke-width=".135" stroke-dasharray=".54,.135"><path d="M-418.113 157.718h-7.42M-421.823 160.984v-6.392" transform="matrix(.52917 0 0 .6134 276.63 -60.383)"/></g><g fill="none" stroke="#000" stroke-width=".135" stroke-dasharray=".54,.135"><path d="M-418.113 157.718h-7.42M-421.823 160.984v-6.392" transform="matrix(.52917 0 0 .6134 268.25 -56.571)"/></g><g fill="none" stroke="#000" stroke-width=".135" stroke-dasharray=".54,.135"><path d="M-418.113 157.718h-7.42M-421.823 160.984v-6.392" transform="matrix(.52917 0 0 .6134 267.826 -75.22)"/></g><g fill="none" stroke="#000" stroke-width=".135" stroke-dasharray=".54,.135"><path d="M-418.113 157.718h-7.42M-421.823 160.984v-6.392" transform="matrix(.52917 0 0 .6134 272.855 -82.886)"/></g><g fill="none" stroke="#000" stroke-width=".135" stroke-dasharray=".54,.135"><path d="M-418.113 157.718h-7.42M-421.823 160.984v-6.392" transform="matrix(.28994 0 0 .3361 178.474 -40.816)"/></g><path fill="#99a4b5" stroke="#000" stroke-width=".155" stroke-linecap="round" stroke-linejoin="round" d="M65.343 81.655h2.015v27.799h-2.015z"/><path d="M46.153 40.306a1.09.95 0 0 1-.555-.827 1.09.95 0 0 1-1.1.017" fill="none" stroke="#000" stroke-width=".077" stroke-linecap="round" stroke-linejoin="round"/><path fill="#fff" stroke="#000" stroke-width=".211" stroke-linecap="round" stroke-linejoin="round" d="M65.355 81.668h1.993v2.727h-1.993z"/><text style="line-height:1.25" x="53.116" y="8.443" transform="scale(.9288 1.07665)" font-weight="400" font-size="4.865" font-family="sans-serif" letter-spacing="0" word-spacing="0" stroke-width=".101"><tspan x="53.116" y="8.443" style="-inkscape-font-specification:'Times New Roman, '" font-size="2.162" font-family="Times New Roman">Пар</tspan></text><path d="M21.762 46.358h-3.927M19.798 48.361V44.44" fill="none" stroke="#000" stroke-width=".077" stroke-dasharray=".30765692,.07691423"/></g></svg>